<svg width="164" height="32" viewBox="0 0 164 32" fill="none" xmlns="http://www.w3.org/2000/svg">
<path fill-rule="evenodd" clip-rule="evenodd" d="M127.366 11.8183C126.6 11.8183 125.963 11.5782 125.377 11.1131C125.31 11.0681 125.265 10.9855 125.265 10.888C125.265 10.7229 125.392 10.5954 125.55 10.5954C125.625 10.5954 125.692 10.6254 125.73 10.6629C126.225 11.0831 126.72 11.2856 127.388 11.2856C128.093 11.2856 128.558 10.9105 128.558 10.3928V10.3778C128.558 9.89013 128.296 9.61253 127.193 9.37995C125.985 9.11735 125.43 8.72721 125.43 7.8644V7.84939C125.43 7.02409 126.158 6.41637 127.155 6.41637C127.846 6.41637 128.348 6.58893 128.829 6.93406C128.889 6.97908 128.956 7.06161 128.956 7.17415C128.956 7.3317 128.829 7.45925 128.671 7.45925C128.603 7.45925 128.551 7.44424 128.498 7.40673C128.056 7.08411 127.628 6.94907 127.14 6.94907C126.458 6.94907 126.023 7.3242 126.023 7.79687V7.81188C126.023 8.30706 126.293 8.58466 127.448 8.83225C128.618 9.08734 129.159 9.51499 129.159 10.3178V10.3328C129.159 11.2331 128.408 11.8183 127.366 11.8183ZM132.432 11.4807V7.0391H130.909C130.758 7.0391 130.631 6.91905 130.631 6.769C130.631 6.61895 130.758 6.4914 130.909 6.4914H134.555C134.705 6.4914 134.832 6.61895 134.832 6.769C134.832 6.91905 134.705 7.0391 134.555 7.0391H133.032V11.4807C133.032 11.6458 132.897 11.7808 132.732 11.7808C132.567 11.7808 132.432 11.6458 132.432 11.4807ZM138.796 11.8258C137.498 11.8258 136.612 11.0305 136.612 9.54501V6.75399C136.612 6.58893 136.747 6.45389 136.905 6.45389C137.07 6.45389 137.205 6.58893 137.205 6.75399V9.50749C137.205 10.6404 137.813 11.2781 138.811 11.2781C139.778 11.2781 140.394 10.6929 140.394 9.54501V6.75399C140.394 6.58893 140.529 6.45389 140.694 6.45389C140.851 6.45389 140.986 6.58893 140.986 6.75399V9.49999C140.986 11.0305 140.109 11.8258 138.796 11.8258ZM143.179 11.4432V6.79151C143.179 6.62645 143.314 6.4914 143.471 6.4914H145.002C146.653 6.4914 147.793 7.62431 147.793 9.10234V9.11735C147.793 10.5954 146.653 11.7433 145.002 11.7433H143.471C143.314 11.7433 143.179 11.6083 143.179 11.4432ZM143.772 11.1956H145.002C146.33 11.1956 147.178 10.2953 147.178 9.13236V9.11735C147.178 7.95443 146.33 7.0391 145.002 7.0391H143.772V11.1956ZM149.888 11.4807V6.75399C149.888 6.58893 150.023 6.45389 150.181 6.45389C150.346 6.45389 150.481 6.58893 150.481 6.75399V11.4807C150.481 11.6458 150.346 11.7808 150.181 11.7808C150.023 11.7808 149.888 11.6458 149.888 11.4807ZM155.247 11.8333C153.649 11.8333 152.576 10.5804 152.576 9.13236V9.11735C152.576 7.66933 153.664 6.40137 155.262 6.40137C156.86 6.40137 157.933 7.65432 157.933 9.10234V9.11735C157.933 10.5654 156.845 11.8333 155.247 11.8333ZM155.262 11.2856C156.462 11.2856 157.317 10.3253 157.317 9.13236V9.11735C157.317 7.92442 156.447 6.94907 155.247 6.94907C154.046 6.94907 153.191 7.90941 153.191 9.10234V9.11735C153.191 10.3103 154.061 11.2856 155.262 11.2856ZM161.738 11.8183C160.973 11.8183 160.335 11.5782 159.75 11.1131C159.682 11.0681 159.637 10.9855 159.637 10.888C159.637 10.7229 159.765 10.5954 159.922 10.5954C159.998 10.5954 160.065 10.6254 160.103 10.6629C160.598 11.0831 161.093 11.2856 161.761 11.2856C162.466 11.2856 162.931 10.9105 162.931 10.3928V10.3778C162.931 9.89013 162.668 9.61253 161.566 9.37995C160.358 9.11735 159.802 8.72721 159.802 7.8644V7.84939C159.802 7.02409 160.53 6.41637 161.528 6.41637C162.218 6.41637 162.721 6.58893 163.201 6.93406C163.261 6.97908 163.329 7.06161 163.329 7.17415C163.329 7.3317 163.201 7.45925 163.044 7.45925C162.976 7.45925 162.924 7.44424 162.871 7.40673C162.428 7.08411 162.001 6.94907 161.513 6.94907C160.83 6.94907 160.395 7.3242 160.395 7.79687V7.81188C160.395 8.30706 160.665 8.58466 161.821 8.83225C162.991 9.08734 163.531 9.51499 163.531 10.3178V10.3328C163.531 11.2331 162.781 11.8183 161.738 11.8183Z" fill="#2C302C"/>
<path fill-rule="evenodd" clip-rule="evenodd" d="M90.2271 1.11115C90.2271 1.72531 89.7281 2.22325 89.1131 2.22325C88.4981 2.22325 88 1.72531 88 1.11115C88 0.497943 88.4981 0 89.1131 0C89.7281 0 90.2271 0.497943 90.2271 1.11115ZM93.4926 1.11115C93.4926 1.72531 92.9936 2.22325 92.379 2.22325C91.764 2.22325 91.266 1.72531 91.266 1.11115C91.266 0.497943 91.764 0 92.379 0C92.9936 0 93.4926 0.497943 93.4926 1.11115ZM93.4926 7.62898C93.4926 8.24314 92.9936 8.74108 92.379 8.74108C91.764 8.74108 91.266 8.24314 91.266 7.62898C91.266 7.01554 91.764 6.51783 92.379 6.51783C92.9936 6.51783 93.4926 7.01554 93.4926 7.62898ZM93.4926 10.8879C93.4926 11.5013 92.9936 11.999 92.379 11.999C91.764 11.999 91.266 11.5013 91.266 10.8879C91.266 10.2737 91.764 9.77675 92.379 9.77675C92.9936 9.77675 93.4926 10.2737 93.4926 10.8879ZM96.759 1.11115C96.759 1.72531 96.26 2.22325 95.645 2.22325C95.03 2.22325 94.5319 1.72531 94.5319 1.11115C94.5319 0.497943 95.03 0 95.645 0C96.26 0 96.759 0.497943 96.759 1.11115ZM96.759 4.37078C96.759 4.98422 96.26 5.48193 95.645 5.48193C95.03 5.48193 94.5319 4.98422 94.5319 4.37078C94.5319 3.75662 95.03 3.25892 95.645 3.25892C96.26 3.25892 96.759 3.75662 96.759 4.37078ZM102.638 1.11115C102.638 1.72531 102.139 2.22325 101.524 2.22325C100.909 2.22325 100.411 1.72531 100.411 1.11115C100.411 0.497943 100.909 0 101.524 0C102.139 0 102.638 0.497943 102.638 1.11115ZM102.638 4.37078C102.638 4.98422 102.139 5.48193 101.524 5.48193C100.909 5.48193 100.411 4.98422 100.411 4.37078C100.411 3.75662 100.909 3.25892 101.524 3.25892C102.139 3.25892 102.638 3.75662 102.638 4.37078ZM102.638 7.62898C102.638 8.24314 102.139 8.74108 101.524 8.74108C100.909 8.74108 100.411 8.24314 100.411 7.62898C100.411 7.01554 100.909 6.51783 101.524 6.51783C102.139 6.51783 102.638 7.01554 102.638 7.62898ZM105.903 7.62898C105.903 8.24314 105.405 8.74108 104.789 8.74108C104.175 8.74108 103.677 8.24314 103.677 7.62898C103.677 7.01554 104.175 6.51783 104.789 6.51783C105.405 6.51783 105.903 7.01554 105.903 7.62898ZM109.169 7.62898C109.169 8.24314 108.671 8.74108 108.056 8.74108C107.441 8.74108 106.943 8.24314 106.943 7.62898C106.943 7.01554 107.441 6.51783 108.056 6.51783C108.671 6.51783 109.169 7.01554 109.169 7.62898ZM109.169 4.37006C109.169 4.98422 108.671 5.48121 108.056 5.48121C107.441 5.48121 106.943 4.98422 106.943 4.37006C106.943 3.75662 107.441 3.25892 108.056 3.25892C108.671 3.25892 109.169 3.75662 109.169 4.37006ZM109.169 1.11115C109.169 1.72531 108.671 2.22325 108.056 2.22325C107.441 2.22325 106.943 1.72531 106.943 1.11115C106.943 0.497943 107.441 0 108.056 0C108.671 0 109.169 0.497943 109.169 1.11115ZM114.395 1.11115C114.395 1.72531 113.897 2.22325 113.281 2.22325C112.667 2.22325 112.168 1.72531 112.168 1.11115C112.168 0.497943 112.667 0 113.281 0C113.897 0 114.395 0.497943 114.395 1.11115ZM117.661 1.11115C117.661 1.72531 117.163 2.22325 116.547 2.22325C115.933 2.22325 115.434 1.72531 115.434 1.11115C115.434 0.497943 115.933 0 116.547 0C117.163 0 117.661 0.497943 117.661 1.11115ZM120.927 1.11115C120.927 1.72531 120.429 2.22325 119.813 2.22325C119.199 2.22325 118.7 1.72531 118.7 1.11115C118.7 0.497943 119.199 0 119.813 0C120.429 0 120.927 0.497943 120.927 1.11115ZM120.927 4.37078C120.927 4.98422 120.429 5.48193 119.813 5.48193C119.199 5.48193 118.7 4.98422 118.7 4.37078C118.7 3.75662 119.199 3.25892 119.813 3.25892C120.429 3.25892 120.927 3.75662 120.927 4.37078ZM117.661 7.62898C117.661 8.24314 117.163 8.74108 116.547 8.74108C115.933 8.74108 115.434 8.24314 115.434 7.62898C115.434 7.01554 115.933 6.51783 116.547 6.51783C117.163 6.51783 117.661 7.01554 117.661 7.62898ZM117.661 10.8879C117.661 11.5021 117.163 12 116.547 12C115.933 12 115.434 11.5021 115.434 10.8879C115.434 10.2745 115.933 9.77675 116.547 9.77675C117.163 9.77675 117.661 10.2745 117.661 10.8879ZM109.169 10.8879C109.169 11.5021 108.671 12 108.056 12C107.441 12 106.943 11.5021 106.943 10.8879C106.943 10.2747 107.441 9.77675 108.056 9.77675C108.671 9.77675 109.169 10.2747 109.169 10.8879Z" fill="#E8247E"/>
<path d="M12.6445 25L11.4023 20.9219H5.15625L3.91406 25H0L6.04688 7.79688H10.4883L16.5586 25H12.6445ZM10.5352 17.875C9.38672 14.1797 8.73828 12.0898 8.58984 11.6055C8.44922 11.1211 8.34766 10.7383 8.28516 10.457C8.02734 11.457 7.28906 13.9297 6.07031 17.875H10.5352ZM22.0195 25H18.4453V6.76562H22.0195V25ZM25.6289 8.51172C25.6289 7.34766 26.2773 6.76562 27.5742 6.76562C28.8711 6.76562 29.5195 7.34766 29.5195 8.51172C29.5195 9.06641 29.3555 9.5 29.0273 9.8125C28.707 10.1172 28.2227 10.2695 27.5742 10.2695C26.2773 10.2695 25.6289 9.68359 25.6289 8.51172ZM29.3555 25H25.7812V11.8984H29.3555V25ZM36.2344 25L31.2422 11.8984H34.9805L37.5117 19.3633C37.793 20.3086 37.9688 21.2031 38.0391 22.0469H38.1094C38.1484 21.2969 38.3242 20.4023 38.6367 19.3633L41.1562 11.8984H44.8945L39.9023 25H36.2344ZM46.6289 8.51172C46.6289 7.34766 47.2773 6.76562 48.5742 6.76562C49.8711 6.76562 50.5195 7.34766 50.5195 8.51172C50.5195 9.06641 50.3555 9.5 50.0273 9.8125C49.707 10.1172 49.2227 10.2695 48.5742 10.2695C47.2773 10.2695 46.6289 9.68359 46.6289 8.51172ZM50.3555 25H46.7812V11.8984H50.3555V25ZM57.5508 17.875L59.1094 15.8828L62.7773 11.8984H66.8086L61.6055 17.582L67.125 25H63L59.2266 19.6914L57.6914 20.9219V25H54.1172V6.76562H57.6914V14.8984L57.5039 17.875H57.5508Z" fill="#FF5A5A"/>
<path d="M75.3496 4.56055C76.0527 4.56055 76.598 4.80143 76.9854 5.2832C77.376 5.76172 77.5713 6.44043 77.5713 7.31934C77.5713 8.19824 77.3743 8.88184 76.9805 9.37012C76.5898 9.85514 76.0462 10.0977 75.3496 10.0977C75.0013 10.0977 74.6823 10.0342 74.3926 9.90723C74.1061 9.77702 73.8652 9.57845 73.6699 9.31152H73.6113L73.4404 10H72.8594V2.40234H73.6699V4.24805C73.6699 4.66146 73.6569 5.03255 73.6309 5.36133H73.6699C74.0475 4.82747 74.6074 4.56055 75.3496 4.56055ZM75.2324 5.23926C74.679 5.23926 74.2803 5.39876 74.0361 5.71777C73.792 6.03353 73.6699 6.56738 73.6699 7.31934C73.6699 8.07129 73.7952 8.61003 74.0459 8.93555C74.2965 9.25781 74.6986 9.41895 75.252 9.41895C75.75 9.41895 76.1211 9.23828 76.3652 8.87695C76.6094 8.51237 76.7314 7.98991 76.7314 7.30957C76.7314 6.61296 76.6094 6.09375 76.3652 5.75195C76.1211 5.41016 75.7435 5.23926 75.2324 5.23926ZM78.1426 4.64844H79.0117L80.1836 7.7002C80.4408 8.39681 80.6003 8.89974 80.6621 9.20898H80.7012C80.7435 9.04297 80.8314 8.75977 80.9648 8.35938C81.1016 7.95573 81.5443 6.71875 82.293 4.64844H83.1621L80.8623 10.7422C80.6344 11.3444 80.3675 11.7708 80.0615 12.0215C79.7588 12.2754 79.3861 12.4023 78.9434 12.4023C78.696 12.4023 78.4518 12.3747 78.2109 12.3193V11.6699C78.39 11.709 78.5902 11.7285 78.8115 11.7285C79.3682 11.7285 79.7653 11.416 80.0029 10.791L80.3008 10.0293L78.1426 4.64844Z" fill="black"/>
</svg>
