<svg id="Layer_1" data-name="Layer 1" xmlns="http://www.w3.org/2000/svg" width="600mm" height="600mm" viewBox="0 0 1700.79 1700.79">
  <title>sketches frames</title>
  <g>
    <path d="M307.22,381.76c190.7-13.9,380.34-16.58,570.08-15.7a1072.73,1072.73,0,0,1-133.54-7v-1.88c3.22-.26,6.45-.74,9.67-.73,24.07.07,48.14,0,72.21.47,7.66.14,15.29,2.16,23,2.33,14,.31,28-.45,42-.16,16.46.35,32.9,1.51,49.35,2,10.63.33,21.27,0,31.9.21,2.52.06,5,1.42,7.53,1.91,4.27.82,8.59,1.42,12.88,2.12a5.26,5.26,0,0,1,2.93,1.13H979l-.08.83c3.25.44,6.5,1.26,9.75,1.24a196.49,196.49,0,0,1,57.64,8c9.87,3,20.49,3.48,30.25,6.71,14.5,4.79,28.63,10.78,42.76,16.65,19,7.89,36.19,19,54.11,30.61a25.9,25.9,0,0,1-2.72.19,3.33,3.33,0,0,0-2.31.32L1215,461.4l.59-.84L1181,436.39c.17-.27.34-.54.5-.81,3.39,2,6.81,4,10.16,6.07,23.3,14.5,46.89,28.38,72.23,39.18,7.41,3.15,14,8.39,20.72,13,10.63,7.2,21,14.78,31.66,21.92a104.1,104.1,0,0,0,12.62,6.69c14.82,7.16,25.47,18.81,34.44,32.16,11.57,17.22,20.77,35.62,24.41,56.18,1.61,9.1,1.28,18.55,1.72,27.85.26,5.23.14,10.48.47,15.71s1.54,10.73-2.06,15.59c-.5.67-.21,2-.18,3,.87,28,2.06,56,2.56,84,.75,41.86,1.4,83.73,1.33,125.59,0,20.1-2,40.19-2.77,60.29-.45,11.94-.22,23.9-.3,35.85,0,1.58,0,3.16,0,4.48-.55.45-.75.76-1,.78-7.28.82-7.27.82-7.25,8.31a102.51,102.51,0,0,0,1,17.37,38.86,38.86,0,0,1,.75-5.3c.22-.82,1.18-1.44,1.81-2.15.64.69,1.82,1.36,1.85,2.07a44.15,44.15,0,0,1-.33,8.21c-2.23,14.51-4.6,29-6.9,43.5q-4,25.35-8,50.7c-.15,1-.2,2-.3,3l-1.17.26c-.52-2.16-1.44-4.33-1.47-6.5-.14-10.65,0-21.3,0-32a4.61,4.61,0,0,0-1-3.36c-1.65,5.63-3.32,11.26-5,16.89a193.15,193.15,0,0,1-22.5,50.61c-9.23,14.42-23,22.39-39.38,26.14-3.93.91-6.37,2.14-7.61,6.37-7,23.77-14.32,47.44-21.37,71.19q-9.46,31.9-18.55,63.92c-3.69,13-7,26.16-10.44,39.24l1.55.48,15.48-49.56,1.69.55a338.65,338.65,0,0,1-17.46,58c-12,0-23.11.11-34.27,0-6.17-.08-12.72,1.53-18.14-2.83-1.42-1.15-2.13-3.22-3-4.93-.7-1.31-.93-3-1.85-4-5.33-6.39-10.82-12.63-16.21-19-2.09-2.47-2.76-5-2.82-8.61-.33-18.94-1.2-37.88-2.37-56.8a55,55,0,0,0-3.72-15.81c-1.77-4.66-5.62-8.57-7.16-13.27-2.67-8.2-6.69-13.76-16.15-13.84-3.73,0-7.45-1.46-11.18-1.46-37.35,0-74.7.36-112,0-19.81-.17-39.62-1.54-59.43-2.26-8.45-.31-16.9-.43-25.36-.5-26.84-.21-53.68-.67-80.52-.43-22.59.2-45.17,1.56-67.76,1.86-46.8.61-93.61,1.45-140.41,1-22.22-.22-44.41-3.23-66.62-5-4.65-.36-9.3-.86-13.95-.9-1.38,0-2.78,1.32-4.17,2a16.88,16.88,0,0,0,3.14,3,12.51,12.51,0,0,0,3.53,1c-7.31,0-15.27,0-23.23,0-14.19-.08-28.36-.94-42-4.92-4.61-1.34-8.62-4.77-12.9-7.24.23-.67.47-1.33.71-2,21.81,8.19,44.17,4.3,66.39,4.25-.46-7.18.52-7.77,7.68-7.93,19.38-.43,38.75-1.17,58.12-1.86,11.8-.42,23.6-1.27,35.4-1.43q94.08-1.19,188.17-2.1,42-.42,84-.4c7.42,0,14.84.86,22.27,1.28a9.86,9.86,0,0,0,5.17-.86l-14.93-3c0-.52,0-1,.07-1.56a19.81,19.81,0,0,1,3.71-.46c32,2.18,63.84-.64,95.73-2.2,17.34-.84,34.67-1.63,52-2.17,24.77-.78,49.56-1.27,74.34-2a155.34,155.34,0,0,0,16.58-1c2.81-.38,5.44-2.06,8-3.9-8.67,0-17.35-.11-26,0-22.8.34-45.56.31-67.71-6.16-5.57-1.63-10.9-4.06-16.39-6a8,8,0,0,0-4.52-.54c-14.55,4.39-29.41,5.78-44.54,5.26-12.52-.44-25-.72-37.57-1.1-.68,0-1.7-.16-2-.61-2.87-4.52-7.61-3.83-11.81-4-45-2.34-90-5.09-135.06-6.6-28.7-1-57.47,0-86.22,0q-134.14,0-268.31-.12c-22,0-44.05-.36-66.08-.61-2,0-4-.39-6-.6l-.26-1.54c2.16-.58,4.31-1.64,6.47-1.66,14.3-.09,28.63.68,42.88-.1,11.72-.64,23.74-1.7,34.89-5,9.05-2.72,17.81-3.17,26.87-3.16l445.58.57c10.2,0,20.41-.23,30.61,0,14.4.39,26-6.36,37.31-14a7,7,0,0,0,1.24-1.37c-3.53,0-7,.41-10.37-.16-1.8-.31-4.29-2-4.68-3.57s1.14-4.16,2.61-5.17c3.13-2.15,6.77-3.55,9.82-5.07l-5.2-3.85c-16.51,19.19-38.82,27.32-62.95,31.65-.24-.45-.48-.91-.71-1.37a30.75,30.75,0,0,1,4.14-2.16c5.92-2.06,11.84-4.15,17.84-6,18.29-5.55,32-17.62,44.54-31.29a12.93,12.93,0,0,0,2.72-5.39q5.52-21.37,10.68-42.83c.33-1.38-.57-3-1.29-4.51,3.56-16.45,2.16-33.1-.08-49.69-3.32-24.58-13.82-46.53-25.7-67.93a256.64,256.64,0,0,0-36-50.41,8.08,8.08,0,0,0-5.33-2.07c-44.77-.57-89.55-1-134.33-1.5-7.42-.08-14.72-.23-22.21-1.71-8.1-1.6-16.88-.77-25.24.15-18.33,2-36.31-2-54.5-2.38-14.13-.27-28.25-1.27-42.38-1.65-46.65-1.24-93.3-2.47-140-3.42-16-.32-32.1-.07-48.14.41-8.65.25-17.2.88-25.59,4.48-4.49,1.92-10.54.59-15.84.13-18.72-1.59-37.41-3.44-56.12-5.19l-4.13-.37-.1-1.5c3.36-.44,6.71-1.23,10.07-1.26,43-.31,86.08-.73,129.12-.71q126.27,0,252.55.51a11.27,11.27,0,0,0,3.95-.48c-57.4-3.25-114.83-5.88-171.9-13v-1.5c3.06,0,6.13-.18,9.17,0,25.16,1.72,50.31,3.66,75.48,5.24,29.55,1.86,59.11,3.49,88.68,5.09,25.34,1.38,50.67,3.2,76,3.71,38.94.79,77.9.59,116.86.89,6.7.05,13.41.42,20.1.83,2.94.18,4.74-.71,6.38-3.34,6.11-9.78,5.86-20.45,3.88-31-3.31-17.56-12.08-31.73-27-42.39-17.51-12.52-32.68-27.7-46.22-44.48-1.08-1.34-3-2-4.46-3a29.63,29.63,0,0,1-4.93-4.17c-1.87-2.22-3.06-5-5.07-7.11-3.83-3.94-8-7.6-12.13-11.2-.7-.6-2.17-.31-4.76-.6l7.76,21.83-.7.4c-2.13-3.58-4.31-7.12-6.36-10.75a44.78,44.78,0,0,1-3.76-7.4c-3-8.85-9.26-15.12-15.59-21.72-14.56-15.17-32.42-24.46-51.45-32.5-7.21-3.05-14.54-2.32-21.73-3.87-9.15-2-18.61-2.51-28-3.48a42.52,42.52,0,0,0-7.81.17c-3.17.27-5.51-.4-5.6-4.35-107.79-2.85-215.39-4.13-323.48.29a38.24,38.24,0,0,1,2.6,6c.26,1-.59,2.31-.94,3.47-1.14-.35-2.31-.65-3.41-1.09a1.8,1.8,0,0,1-.76-1c-2.37-7.1-7.68-7.79-14.2-7.23s-13,.12-20.44.12c2.3,3.63,3.73,5.9,5.17,8.16l-.76,1c-.94-.62-2.25-1-2.77-1.91-2.78-4.72-6.43-6.32-12.19-6.17-35,.91-70,1.88-104.94-1.67q-9.78-1-19.51-2.54c-1.47-.23-2.76-1.61-4.14-2.46,1.41-.72,2.79-2,4.22-2.07,11.07-.57,22.15-.91,33.22-1.33l24.95-.93-31.51-49c.45-.31.9-.62,1.36-.92a29.22,29.22,0,0,1,2.13,2.47c9.74,14.36,19.53,28.7,29.14,43.15,2.17,3.27,4.64,4.6,8.65,4.36,6.48-.38,13-.1,20.41-.1L354.85,587l.51-.43c5.42,7.05,11.18,13.87,16.16,21.21,5.23,7.71,9.64,16,14.56,23.9a74.09,74.09,0,0,0,6.24,8.41,5.71,5.71,0,0,0,3.57,2.06c8.72.17,17.44.09,26.16.09l1-1.57L368.75,532.85l.82-.5c.54.84,1.14,1.65,1.61,2.53q19.94,37.71,39.81,75.44c4.46,8.52,8.65,17.18,12.86,25.83,1.7,3.49,3.86,5.25,8.14,4.87,8.06-.71,16.18-.76,24.8-1.11-8.92-20.16-17.21-39.88-26.34-59.21s-19.07-38.21-28.66-57.29l1.37-.76c.83,1.41,1.62,2.84,2.48,4.23,20.84,33.55,37,69.45,53.29,105.31a46.49,46.49,0,0,0,2.92,5.38,4.7,4.7,0,0,0,2.15,2c13.26,4.41,26.72,4,40.29,1.59a76.39,76.39,0,0,1,12.12-1.46c2.45,0,5,.9,7.37,1.78,12.5,4.66,25.43,5.48,38.58,4.51,10.73-.79,21.48-1.45,32.19-2.44,13.92-1.29,27.78-3.08,41.71-4.21,11.72-1,23.51-1.88,35.26-1.74,29.75.36,59.5,1.9,89.25,1.77,10.62,0,21.22-3.55,31.83-5.5a18.32,18.32,0,0,0,5.9-2l-6.38-1.08c2.21-.68,3.24-1.05,4.28-1.32,9.17-2.35,18.61-3.94,27.43-7.23,10-3.74,16.95-11.88,22.3-20.84,10.8-18.08,17.39-37.84,21.33-58.47,1.09-5.71,1.09-11.64,2.3-17.32,1.52-7.11,3.8-14.07,5.72-21.1,4.94-18.1,11.48-35.51,22-51.2q1.34-2,2.74-3.95a5.15,5.15,0,0,1,2-1.78c-3.13,5.87-6.61,11.58-9.33,17.64-10.14,22.63-17.23,46.14-19.53,70.94-.45,4.75.27,5.37,4.49,4,.45,16.31-2.81,32.1-6.33,47.89C870,595,870,602.33,868.19,609.21,866,618,863.32,626.75,857,633.71a9.4,9.4,0,0,0-.92,1.51c9.43,0,13-2.87,14.51-11.69q3-17,6.11-33.95a7.34,7.34,0,0,1,1.42-3.2,202.63,202.63,0,0,0,13.48,54.46c3.25-2.12,4.6-4.21,4.36-7.77-.89-13.53-1.46-27.09-2.12-40.63a2.57,2.57,0,0,1,1.07-2.24c3,10.8,6.38,21.53,9,32.43,3.78,15.86,9.16,31,17.37,45.13a5.54,5.54,0,0,0,2.78,2.59c-1.27-4.27-2.77-8.5-3.7-12.84-.56-2.64-.19-5.46-.33-8.2a15.06,15.06,0,0,0-.56-3.86c-1.13-3.62-2.58-7.14-3.6-10.79-3.41-12.24-6.49-24.58-10.07-36.77-3.37-11.47-7.32-22.77-10.78-34.21-1-3.21-1.1-6.67-1.62-10l1.22-.24c3.1,8.54,6.29,17,9.26,25.63,11.36,32.78,22.55,65.62,34,98.36,3.52,10,7.76,19.82,11.72,29.7a7.16,7.16,0,0,0,1.9,2.88c4.71,3.69,9.52,7.24,14.3,10.83l-1.41,1.79c-.75-1.92-1.39-3.9-2.28-5.76-10.68-22.13-19.51-44.92-25.47-68.81-7.37-29.56-15.05-59-22.59-88.56a2.3,2.3,0,0,1-.21-.85c.23-1.67.51-3.34.78-5,.92,1.31,2.31,2.5,2.68,4,4,15.69,8,31.39,11.62,47.16,6.83,29.59,14.62,58.87,26.23,87,5.56,13.48,10.61,27.2,16.89,40.33,2.78,5.8,8.06,10.41,12.75,15.22C969.69,688.49,950,631.13,938.31,571.61c12.55,32.24,18.75,66.42,30.92,98.83l-.77-6.63,1.15-.33a21.59,21.59,0,0,1,1.71,3.57c4.6,16.76,12.77,32.08,21.36,46.83,6.41,11,8.49,23.35,14.57,34.2a7.83,7.83,0,0,0,2.52,3.34l-6.54-37.2,1.13-.3c2,7.93,4.43,15.79,6,23.82a218.21,218.21,0,0,0,15.71,49,10,10,0,0,0,1.56,2.62c5.82,6.28,11.69,12.5,18.49,19.74-2-6.3-3.29-11.72-5.45-16.76-5-11.71-6.49-24.1-8.45-36.51a310,310,0,0,0-8-37.61c-6-20.72-13.18-41.07-19.46-61.71-4.66-15.3-8.68-30.81-13-46.22l1.31-.7c2,3,4.88,5.71,5.94,9,7.89,24.55,15.23,49.28,23.15,73.81,3.66,11.36,9,22.2,12.19,33.67,3.55,12.89,5.16,26.3,8.2,39.35,2.55,10.89,6,21.57,9,32.36,1.84,6.59,3.6,13.21,5.44,19.81a5,5,0,0,0,2.39,3,11.15,11.15,0,0,0,.7-3.27c-.75-7.2-1.06-14.51-2.58-21.55-5-22.94-10.39-45.78-15.67-68.65-5.36-23.16-10.8-46.3-16.1-69.48a69.17,69.17,0,0,1-1.89-15.33c16.54,42.33,27.54,86.22,38.08,130.38,1-8.88,2.09-17.76,3-26.65.46-4.34.39-8.75,1-13.07,1.32-9-1.28-17.34-3.38-25.81-4.52-18.25-9.06-36.49-13.48-54.76-.28-1.17.36-2.55.57-3.84,1,1,2.53,1.78,2.92,3,4.14,12.44,8.09,25,12.11,37.44.42,1.32.88,2.63,1.41,4.21,4.94-7.36,3.77-15.48,4.88-23.14a15.76,15.76,0,0,1,.67-2.51,25.31,25.31,0,0,1,1.38-2.38c1.06,2.53,2.08,3.89,2.14,5.29.58,13.08,1.48,26.18,1.3,39.26-.16,11.31,0,22.39,4.29,33,1.28,3.16,2.35,6.32-2.45,7.55-.26.07-.69.29-.7.46-.21,3.48-.24,7-.58,10.43-.36,3.76.69,5.71,4.28,8.16,11.29,7.68,22.61,15.65,32.5,25,31.69,30,62.68,60.67,94.07,90.94,13.13,12.66,26.6,25,39.88,37.45a41.85,41.85,0,0,1,3.35,4l-1,1.1c-1.18-.81-2.42-1.54-3.52-2.45-26.23-21.66-50.91-45-75.28-68.72q-32.3-31.44-65.43-62c-8.62-7.93-18.49-14.49-27.8-21.67l-1.1.71c0,5.87-.07,11.75.07,17.62,0,.85.91,1.78,1.58,2.5q47.4,50.94,94.83,101.83c7.36,7.9,14.75,15.76,22.07,23.69a65.4,65.4,0,0,1,6.14,7.7C1156.48,886.62,1119,839,1077.27,794.8a23.92,23.92,0,0,0-.36,2.9c-.05,10.06-.06,20.13-.1,30.2,0,5.93,2.72,9.51,8.73,8.89s9.36,1.88,13.18,5.63c10.4,10.21,21.35,19.87,31.68,30.16,3.87,3.85,6.44,8.95,9.92,13.23,5.75,7.07,11.76,13.94,17.26,21.3l-41.16-38.48c-7.14-6.67-14.24-13.39-21.5-19.93a8.39,8.39,0,0,0-4.58-1.62,70.69,70.69,0,0,0-7.53-.08L1114,889.25l-.51.35-33.9-32.26c.17,1.53.28,3,.49,4.46.66,4.44-.26,8.16-2.42,12.39-2,3.89-1.39,9.32-1.08,14,.1,1.58,2.65,3.17,4.31,4.46q15.51,12.11,31.15,24.06a12.13,12.13,0,0,0,2.26,1.1l-1,1-37.06-26.58c0,4.27,0,7.35,0,10.44-.26,12.29,2.43,23.36,10.45,33.34,7.1,8.83,12.77,18.81,19.06,28.28.28.42.47.9.71,1.35l-1.3,1c-8.44-10-16.87-19.91-25.69-30.32,0,4.56.09,9,0,13.45-.86,38.92-1.65,77.85-2.74,116.77-.15,5.52,1.23,9.63,5,13.68,7.67,8.19,14.83,16.86,22.19,25.35a4.54,4.54,0,0,1,1.31,3.16l-27-27.91-1.51.58c.31,3,.13,6.11,1,8.91,2.64,8.34,5.7,16.55,8.57,24.82,1.91,5.51,6.2,9,11.08,11.27,21.44,9.88,42.86,19.85,64.7,28.75,6.07,2.48,13.58,1.42,20.42,2,.23-.54.47-1.08.7-1.61-2.58-3.23-4.62-7.19-7.84-9.55-17.73-13-30.47-30.83-45.35-46.58-9.29-9.84-19.68-18.65-29.74-27.73-6.54-5.91-13.38-11.49-19.49-18.1a32.77,32.77,0,0,1,3.23,2.2c15.58,13.63,31.56,26.84,46.56,41.08,9.7,9.21,17.73,20.14,26.92,29.9,5.58,5.91,12.09,10.94,17.92,16.63,3.52,3.44,6.42,7.51,9.86,11a6.72,6.72,0,0,0,4.63,2c12.21-1,24.39-2.27,36.58-3.49q33.29-3.33,66.57-6.71c.54-.06,1.07-.19,1.37-.24-3.6-3.91-7.24-7.77-10.76-11.72s-6.68-8-6.65-13.6l23.77,23,6.54-5.37c.37-5.3-3.36-8.3-6.39-11.78-7.58-8.66-15-17.42-22.53-26.15l1-.92,30.06,28.14c2.87-.72,5.14-1.12,7.26-1.89a9.93,9.93,0,0,0,3.9-2.47q6.9-7.9,13.5-16.06c12.92-16,20.41-34.42,24-54.65,1.75-9.83,5-19.39,6.82-29.22,1.5-8.29,1.84-16.79,2.68-25.2,0-.42.1-1-.13-1.27-5.83-5.86-3.4-13-3.14-19.8a10.16,10.16,0,0,0-.53-3.36c-2.2,17.07-3,34.39-10.26,50.4,1.37-8.29,2.75-16.57,4.09-24.87a38.33,38.33,0,0,0,.49-4.78q1.53-46.78,3-93.57c.38-12.08.49-24.17,1.22-36.23,1-16.54,2.66-33,3.67-49.57.75-12.35,1-24.74,1.23-37.12,0-1.23-1.46-2.49-2.25-3.74-1.21,1.15-3.28,2.18-3.47,3.49a183.19,183.19,0,0,0-2.28,21.63c-.81,31.78-.86,63.59-2.11,95.35-.66,16.72-3.3,33.36-4.9,50.06-.73,7.54-.87,15.15-1.73,22.68-.43,3.8-1.87,7.49-2.85,11.23l-2.21-.38c0-6.31-.38-12.64.07-18.91,1-14.25,2.33-28.47,3.73-42.68,3.85-39.09,5-78.29,5.57-117.54.5-31.64,1.74-63.28,2.62-94.91q.83-29.32,1.59-58.63c0-1.31-.35-2.88.23-3.89,6.08-10.63.64-21.55.84-32.31,0-1.84-1.69-4-3.14-5.54q-25.2-26.46-50.64-52.66c-1-1.08-3.11-1.46-4.75-1.61a62.51,62.51,0,0,0-9.18-.12c-13,.78-25.67-1.83-38.48-3.32-10.87-1.27-22.13-.69-33.07.44-18.82,2-37.49,5.17-56.54,4.48a193.26,193.26,0,0,0-23.56,1,13.55,13.55,0,0,0-7.38,3c-6.55,5.78-12.62,12.1-19.06,18-6,5.52-12.29,10.71-18.31,16.2-1.77,1.62-3.79,3.56-4.44,5.73-3.91,13.13-7.54,26.32-6,40.33.22,1.94-.82,4.28-1.91,6.06-1.59,2.63-.93,4.64.14,7.26,2.24,5.52,6.33,8.62,11,12.12,15.51,11.6,30.4,24,45.35,36.37,35.09,29,70,58.11,105.14,87.08,9.1,7.52,18.5,14.7,27.82,21.95a38.84,38.84,0,0,0,5,2.81l-2,2.66c-1.53-.7-3.27-1.12-4.56-2.12-20.95-16.3-42.07-32.4-62.7-49.1-32.87-26.62-65.41-53.65-98.09-80.51a100.23,100.23,0,0,0-14-10.16c1.24,1.62,2.56,3.19,3.7,4.88s2.12,3.56,3.8,6.41c-7.69-1.86-11.69-6.65-15.46-11.23s-6.71-10-10.09-15.24c-1.11,1.57-2.3,3.28-3.5,5l-1.35-.18c-.28-3.18-.53-6.36-.83-9.54-.41-4.42-1-8.83-1.24-13.26-.12-2.26-.51-5.25.69-6.69,2.54-3.06,2.54-6.34,2.57-9.79.07-8.48,2.14-15.89,7.64-22.92,12.41-15.87,24.7-31.76,38.92-46.1,7.3-7.35,15.91-12.6,24.74-17.66,6.75-3.87,14.09-4.47,21.63-3.63a19.15,19.15,0,0,1,3.08,1.05c-11.05,4.57-22.58,6.24-31.82,12.94.14.46.28.93.43,1.39a11.05,11.05,0,0,0,2.7,0,64.57,64.57,0,0,0,9.6-2.91c15.44-6.93,32.07-6.33,48.34-8,18.17-1.83,36.36-2.88,54.58-1a47.1,47.1,0,0,1,6.53,1.6l-.12,1.7h-24.17l0,1.74h66.87c1.44-3.06-.24-4.69-3.26-6.21-8.46-4.28-17.14-8.26-25.05-13.42-8.86-5.78-16.67-13.14-25.46-19.05-12.68-8.53-25.82-16.4-38.79-24.5-19.79-12.36-39.37-25.09-59.51-36.87-11.15-6.52-23.18-11.55-35-17-2.56-1.18-5.74-.92-8.49-1.77a40.77,40.77,0,0,1-6.2-3.1c1-1.94,2-3.89,3-5.82a24.37,24.37,0,0,1,1.57-2.06c-5.45.72-10,1.14-14.35,2-.86.17-1.36,2.14-1.45,2.3-5.33-1.4-10.49-2.7-15.62-4.12-7.3-2-15-3.18-21.77-6.39-12.89-6.12-26-5.52-39.31-3.29-12.63,2.12-25.09,5.23-37.65,7.75-4,.81-8.16,1.14-13.26,1.83,3.71-4,16.55-9.09,30.49-12.08,10.5-2.26,21.15-3.89,31.66-5.8-.12-.11-.43-.59-.75-.61-9.65-.41-19.34-3.78-28.92.66-11.49,5.33-23.05,10.52-34.61,15.7a10.94,10.94,0,0,1-4.5,1.27c-16.07-.41-28,7.52-38.54,18.6-1.69,1.78-3.28,3.67-4.92,5.5l-.95-.71c4-5.34,7.76-10.84,12-16a196.87,196.87,0,0,1,13.72-15.29c4.85-4.82,9.82-9.72,15.48-13.48s12.18-6.1,18.29-9.49c-5.31-.55-11-2.41-15.74.87-7.53,5.17-15.19,10.44-21.63,16.83-7.41,7.36-13.57,16-20.26,24.06a28.52,28.52,0,0,1-5,5.12,19.07,19.07,0,0,1,1-2.26c5.14-8.65,10.8-17,15.32-26,3.58-7.12,8.92-12.1,15.11-16.56,1.14-.82,2.26-1.65,4.17-3-2.37,0-3.74-.09-5.09,0-6.83.5-13.66,1.44-20.5,1.45s-11.19,3.19-13.83,9.27c-1.68,3.88-3.47,7.71-5.26,11.54-.57,1.24-1.26,2.43-1.9,3.63l-1.3-.5c2.39-7.55,4.79-15.09,7.11-22.41H606.43c86.31,6.45,173.07,3.55,259.34,11.07,0,.48.08,1,.13,1.45a30.28,30.28,0,0,1-3.73.56c-16.63.29-33.26,1-49.87.71-45.37-.82-90.75-1.64-136.09-3.33-27-1-53.82-3.83-80.75-5.49-32-2-64.06-4.88-96.1-5-40.38-.17-80.77,2.27-121.17,3.16-21.86.48-43.75.1-65.62.08C311.17,382.16,309.78,382,307.22,381.76Zm896.61,959.11c8.1,0,16.83,0,25.56-.07a3.15,3.15,0,0,0,2.21-1.5c2.08-4,4.48-7.88,5.86-12.11,2.28-7,3.79-14.25,5.76-21.36,11.16-40.33,19.3-81.32,26.48-122.51a5.54,5.54,0,0,0-.18-1.43c-3.55.42-3.81,3.15-4.26,5.67-2.21,12.49-4.21,25-6.61,37.48-4.24,22.07-9.43,43.91-17.89,64.82-.83,2-2,4-3,5.93l-1.71-.59c9.43-35.91,21.47-71.27,23.75-108.83a11.43,11.43,0,0,0-1.59.45q-24,10.07-47.94,20.18c-.9.38-2.29,1-2.41,1.62-.49,2.8-2.45,2.4-4.32,2.4h-4.23C1200.85,1254.23,1202.32,1296.94,1203.83,1340.87ZM1007.55,883.1c19,21.15,36.14,43.62,48.57,69.42a2.49,2.49,0,0,0,.31-1.85c-5.87-26.26-17.69-49.9-32.09-72.38a5.75,5.75,0,0,0-3.91-2.09c-7.26-.6-14.54-1-21.82-1.33-3.66-.16-7.34,0-11.93,0,5.05,5,9.89,9,13.83,13.74,15,18.21,26.43,38.76,36.6,59.95,10.25,21.36,17.18,43.65,17,67.69a8,8,0,0,0,1.12,3.07c1.23,2.65,3.16,5.16,3.65,7.93,1.71,9.68-.37,19.81,3.2,29.29a77.75,77.75,0,0,0,3.48,7l1.39-.6c.11-1.26.31-2.52.33-3.79.4-20.26,1-40.52,1.09-60.78,0-12.22-.54-24.46-1.27-36.66-.59-9.73-.74-19.69-3-29.07-3.49-14.09-8.44-27.84-13.26-41.56-2.85-8.15-13.27-14.35-21.65-13.6.53.84,1,1.54,1.44,2.24,11.66,18.13,21.27,37.34,26.82,58.15,3.7,13.87,5.67,28.25,7.71,42.5,1.27,8.9,1.4,18,1.73,27,.11,3.11-.39,6.44-3.75,7.69-.51-8-1.15-15.93-1.48-23.86-.57-14.09-4.76-27.26-10.18-40-6.3-14.84-15.07-28.26-24.69-41.16C1020.16,901.15,1013.93,892.07,1007.55,883.1Zm204.35,292.71c-1.24-.15-2.71-.83-3.68-.39-5.31,2.38-10.48,5.07-15.72,7.59-2.28,1.09-4.59,2.8-7,2.9-17.48.76-35,1.4-52.45,1.67-26.84.42-53.68.54-80.51.75-8.87.07-17.74,0-26.61,0v2.37c10.35,0,20.75-.64,31,.13,20.92,1.58,41.78,3.88,62.65,6,5.33.54,10.59,1.92,15.93,2.18,12.91.63,25.85-.21,38.78-.06,3.41,0,7-1.63,10.24-3.18C1194.71,1190.9,1205.82,1187.35,1211.9,1175.81Zm172.72-305.67h.79V859.27c0-51-.14-102.08,0-153.11,0-12.37,1.2-24.73,1.69-37.09.21-5.28,0-10.57,0-16.09l-7.12,7.22c.61,2.26,1.66,5.45,2.28,8.73a12.9,12.9,0,0,1-.38,5c-.51,2.27-2,4.47-1.93,6.68.86,51.45-.52,102.95,2.83,154.36C1383.62,846.68,1384,858.41,1384.62,870.14ZM787.83,640.41c11.66.72,23.33,2.17,35,2,12.91-.24,24.46-4.76,33-15.24,1.9-2.33,2.68-4.27.5-6.58C834.51,631,811.14,635.17,787.83,640.41Zm195.55,511.95c2.71,1.94,5.16,2.82,6,4.5,1.68,3.34,4.22,3.48,7.22,3.37,16.87-.58,33.75-.81,50.59-1.82,7.79-.47,15.5-2.45,23.24-3.74l-.09-1.33a15,15,0,0,0-2.26-.5c-7.25-.47-14.51-1.24-21.76-1.25-9,0-17.94-1.22-26.86,1.47-10.94,3.29-22.05,3.8-33-.46A14.45,14.45,0,0,0,983.38,1152.36ZM1357.9,594c-.82-2.79-1.12-8-3.63-11.68-8.28-12.24-18.41-22.92-31.34-30.4-2.76-1.6-6.67-1.23-9-1.6C1328.81,565.05,1343.8,580,1357.9,594ZM1007.09,382.19c-.37-.33-.64-.78-1-.84-8.59-1.55-17.19-3.12-25.81-4.51a4.69,4.69,0,0,0-3,1.18c-5.62,4.41-11.43,8.61-16.66,13.46s-9.82,10.33-14,14.79C983.6,387,983.6,387,1007.09,382.19Zm182.54,874.63c.62-8.55,2.21-16-6-21.2-3.79-2.38-6.7-6.17-10-9.32l-1.26.61c.48,3.64-.16,8,1.67,10.77C1178.39,1244.23,1183.94,1250,1189.63,1256.82Zm-154.57-443.2c5.5,13.89,8.39,27.77,4.25,42.71,2.43-1.44,5.27-2.74,6-4.8a39.47,39.47,0,0,0,2.43-12.8c.06-3.94-.39-8.42-2.24-11.75C1042.79,822.1,1038.61,818,1035.06,813.62Zm156.87,398.79-14.51,3.78,12.91,18.79C1190.84,1227.68,1191.33,1220.77,1191.93,1212.41ZM1175.18,1289c0-.39.09-.79.14-1.18.59,2.8.54,6,1.92,8.3,2.26,3.82,5.55,7,8.21,10.61,1.83,2.49,3.32,5.23,5,7.86a29.21,29.21,0,0,0,.36-9.22c-.13-1.38-.21-3.21-1.07-4C1185,1297.13,1180.05,1293.13,1175.18,1289Zm116.08-124.34c-5-.17-7.31,1.74-7.84,6.19-.49,4.19-1.55,8.3-2.17,12.48a38.73,38.73,0,0,0,0,5.6l1.1.06ZM854,616l.67.88c1.85-1.35,4.72-2.33,5.36-4.11,2.37-6.61,4-13.49,5.92-20.26l-1.25-.38Zm334.56,656.67,1.47-.67c-.42-2-.19-4.6-1.39-5.83-3.49-3.54-7.58-6.49-11.35-9.76a37.36,37.36,0,0,1-3.22-3.53l-1.36,1.21C1175.71,1262.16,1183.46,1266.33,1188.56,1272.67ZM1159.34,544c3.67,2.27,30.36-.49,51.74-4.87ZM853.49,605.1l-16.14,17C848.7,622.24,850.74,613.4,853.49,605.1Zm493.32-43.22c-4.92-12.53-5.4-13.4-14.32-11.14Zm-157.06,727.39c.94-4.88.33-8.29-4.59-10.06-2.06-.74-3.77-2.68-5.41-4.3a60.3,60.3,0,0,1-4.19-5.07l-1.35,1.29Zm-134.34-189.58.69,0v-17.53l-1.29-.23c-1.64,5.38-3.28,10.77-5.17,17l5.67-4.47,1,.66Zm319.85-497.43-1,.17q1.29,11.79,2.59,23.57l2-.29Q1377.05,614,1375.26,602.26Zm-75.49-82.72-.85,1.75c5.45,1.72,9.34,6.8,15.25,7.53l.71-1.5Zm-418.1,123c-1.15-5.62-2.08-10.13-3-14.65C876.65,634.46,877.31,637.64,881.67,642.56ZM927.41,682c-3.26,4.44-2.6,6.4,3.25,9.87C929.52,688.46,928.51,685.38,927.41,682Zm147.1,447.64c-.55,5.32,1.87,8.57,6,9.06ZM878,624.08c3.12-1.93,3.08-6.89.65-11.72C878.43,616.18,878.23,619.76,878,624.08Zm493.24-29.61,1-.4q-2.4-6.39-4.82-12.77l-1.22.47Q1368.7,588.13,1371.23,594.47Zm-55.37,548.61-.66-1.22-10.3,5.25c.24.45.49.9.73,1.36Z"/>
    <path d="M704,352.57c-6.28,1-12.53,2.47-18.84,2.81-20.23,1.08-40.47,2-60.72,2.49-42.42,1-84.85,1.4-127.27,2.37-49,1.11-97.95,2.65-146.93,3.8-10.92.25-21.86-.36-32.8-.68a14.53,14.53,0,0,1-3.72-1.12l0-1.35a18.29,18.29,0,0,1,4-1.11c39.19-1.53,78.37-3.13,117.57-4.44q67.11-2.22,134.22-4c34-1,67.91-1.93,101.87-2.52,9.59-.17,19.2.94,28.8,1.52a27.06,27.06,0,0,1,3.74.71Z"/>
    <path d="M600.23,1123.54c.94.09,1.88.26,2.82.26q48.57,0,97.15.09a94,94,0,0,1,10.48.37c9.46,1.06,18.09-1.89,27-4.68-1.09.62-2.17,1.26-3.28,1.85s-2.55,1.3-5.09,2.59l24.83,1.85.05,1.15a19.4,19.4,0,0,1-3.06.72c-6.25.48-12.52,1.37-18.76,1.23a120.72,120.72,0,0,0-35,4.41c-1.43.4-3.14-.23-4.73-.38l3.34-3.42c-.83,0-2-.19-3.23-.19q-58,.06-116,.21c-4,0-8.08.86-12.11,1.36-2.32.29-4.75,1.77-6.58-1.29-.36-.6-2.16-.43-3.31-.47-7.14-.26-14.29-.38-21.43-.78-1.29-.07-2.52-1.22-3.78-1.86,1.32-.58,2.62-1.61,4-1.66,11.94-.45,23.9-.59,35.85-1.13a53.14,53.14,0,0,0,12-2c40.28-11.44,80.79-21.86,122.12-28.81a59,59,0,0,1,8.21-1.15c1.28,0,2.59,1,3.89,1.6-1,.83-2,2.12-3.14,2.4-8.93,2.15-17.93,4-26.86,6.12q-41.25,9.86-82.47,19.86c-1,.25-2,.68-3,1Z"/>
    <path d="M1109.5,643.55a31.58,31.58,0,0,1,2.76,1.77c21.25,17.1,42.76,33.87,63.65,51.39,29.6,24.83,58.83,50.12,88,75.4a364.48,364.48,0,0,1,43.25,45.11c2.71,3.31,4.63,7.27,6.92,10.94l-1.53,1.06c-1-.86-2.19-1.64-3.15-2.6-15.42-15.51-31-30.82-46.11-46.66-7.07-7.44-15.31-13.24-23.06-19.75-26.34-22.14-52.08-45-77.92-67.73-17.62-15.5-35-31.25-52.5-46.91a9.91,9.91,0,0,1-1-1.29Z"/>
    <path d="M1206.45,856.31c-40.57-33.85-75.72-72.55-111.57-110.63,1.42,1.13,2.8,2.3,4.25,3.4,21.59,16.35,39.76,36.39,59.21,55q21.15,20.29,43,39.85C1205.15,847.41,1207.37,850.8,1206.45,856.31Z"/>
    <path d="M456.46,524.93c-.42,8.49,2.4,16.42,5.53,24,8.95,21.69,18.56,43.1,27.76,64.69,2.58,6,4.63,12.33,6.92,18.51l-2,1.08c-2.89-4-6.71-7.67-8.51-12.13-6.43-15.94-12.4-32.08-18.13-48.29-4.71-13.33-8.84-26.86-13.19-40.32a11.73,11.73,0,0,1-.89-4.25,38.65,38.65,0,0,1,1.37-6c2.29.63,5.34.55,6.74,2,4.8,5.06,9.67,10.26,13.35,16.13,12.7,20.26,24.91,40.82,37.3,61.27,4.07,6.73,8.18,13.44,12.12,20.24a27.9,27.9,0,0,1,1.78,5.22l-1,.57c-.75-1-1.59-2-2.25-3.1-16.32-27.1-32.52-54.27-49-81.26-3.4-5.57-7.72-10.59-11.84-15.68-1.25-1.54-3.26-2.47-4.92-3.68Z"/>
    <path d="M1279.84,861.51c-65-48.11-130.43-95.64-184.68-156.48l.77-1c3.93,3.2,8,6.21,11.76,9.62,8.29,7.57,16.61,15.14,24.52,23.1,5.84,5.88,10.73,12.71,16.6,18.55,18.79,18.67,39.75,34.58,61.7,49.43,16.38,11.09,31.4,24.19,47,36.4q10.17,7.93,20.32,15.91c1.17.92,2.2,2,3.29,3Z"/>
    <path d="M968.69,1077.59a18.79,18.79,0,0,1,4.13-.7c7.91.4,14.54-2.92,20.59-7.37a68.44,68.44,0,0,0,19-20.86c1.56-2.71,3-6,3-9,.28-18.34,1.27-36.72-3.73-54.77-3.37-12.14-7.51-23.8-15.76-33.66l1.2-.77c3.28,4.83,7,9.4,9.76,14.53,8.63,16.32,11.85,34,12.14,52.31.08,5-.33,10,.07,14.87.87,10.62-3.16,19.48-9.6,27.34-7.24,8.84-16.06,15.81-27.37,18.64-4.24,1.06-8.81.77-13.23,1.09Z"/>
    <path d="M1006.29,1081.47c3.24-3,6.42-6,9.71-9s6.78-5.17,9.56-8.3,6-6.8,7.08-10.75c2.32-8.65,4.3-17.6,4.76-26.51.64-12.59,1.86-25.53-3.32-37.59-3.84-8.94-8.42-17.57-12.77-26.29-3.69-7.39-7.52-14.7-10.79-22.29,9.42,19,25,35.05,28.6,56.86,1.29,7.69.89,15.66,1.28,23.5a90,90,0,0,1-3.59,30.25c-1.74,5.9-4.59,10.94-9.49,14.83-5.48,4.34-10.77,8.92-16.16,13.36-1.28,1-2.66,2-4,2.93C1006.88,1082.16,1006.59,1081.81,1006.29,1081.47Z"/>
    <path d="M1094.89,741.39c-1.25-2.06-2.38-3.39-2.92-4.92-3.51-9.9-7.55-19.67-10.11-29.81-1.79-7.11-1.64-14.74-2-22.16-.06-1.15,1.55-2.39,2.39-3.59,1,1,2.61,1.84,2.92,3a42.77,42.77,0,0,1,1.3,9.08c.46,12.52,6.45,23.55,9.32,35.41C1096.69,732.32,1098.65,736.5,1094.89,741.39Z"/>
    <path d="M1241.35,882.47c21.25,10.72,57,47.92,55,57.22Z"/>
    <path d="M1219,682.25l97.08,67.08C1300.09,744.06,1235.43,699.11,1219,682.25Z"/>
    <path d="M1190,1118.18c-5.21-2.78-50.77-49.73-53.92-55.57C1146.69,1068.71,1184.12,1107.3,1190,1118.18Z"/>
    <path d="M1402.44,705.23c4.61,33.31,3,66.6,0,99.89Z"/>
    <path d="M1364.34,1008c-2.45,20.74-10.65,38-21.1,54.45Z"/>
    <path d="M405.5,1139.93c.94,2.79,1.9,4.61,2.06,6.5.08.94-1.36,2.93-2,2.89-7.45-.45-14.89-1.2-22.33-1.87l-.13-1.38Z"/>
    <path d="M1320.24,1119.48c.19-1.11.07-2.41.61-3.32q12.83-21.81,25.8-43.52a9.47,9.47,0,0,1,1.73-2.33,190.13,190.13,0,0,1-26.78,49.46Z"/>
    <path d="M1131.4,1028.92l30.76,30.17C1149.81,1049.47,1139.24,1038.1,1131.4,1028.92Z"/>
    <path d="M1009.06,363.93c11.9.46,23.72,1,34.61,6.45Z"/>
    <path d="M890.72,493.12l-10.27,41.33-1.19-.29,10.08-41.37Z"/>
    <ellipse cx="886.19" cy="565.7" rx="0.59" ry="19.16"/>
    <path d="M579.73,403.06l9.13-1.51C587,404.77,584.82,405.16,579.73,403.06Z"/>
    <path d="M1221.57,868.52q4.26,2.82,8.54,5.62C1225.63,874.9,1223.79,871.23,1221.57,868.52Z"/>
  </g>
</svg>
