<svg id="Layer_1" data-name="Layer 1" xmlns="http://www.w3.org/2000/svg" width="600mm" height="600mm" viewBox="0 0 1700.79 1700.79">
  <title>sketches frames</title>
  <g>
    <path d="M1141.75,507.85c-.77-4.05-1.28-6.79-1.91-10.1,5.42,1.52,4.45,7.18,8.16,9.65.86-1.19,2-2.15,2.33-3.34,1.21-4.1,4.21-5.19,7.94-4.94,2.39.16,5,.24,7.07,1.26,10.82,5.35,22.34,5,33.85,4.44,13.3-.63,26.58-1.73,39.88-2.39,16.12-.8,32.25-1.48,48.39-1.91,4.17-.11,8.37.94,12.56,1.4a126.69,126.69,0,0,0,13.13,1.24c2.77,0,4.88.44,5.74,3.19,1.24,3.94,4.2,5.22,7.87,5.36,5.64.22,11.28.29,16.92.37,3.42,0,6.83,0,10.24,0,2.5,3.29,2.33,6.71,1.51,10a38.51,38.51,0,0,1-2.87,8c-5.32,10.53-6,21.64-4.63,33.08,1.35,11.81,2.63,23.63,4,35.75l194.3,101.91c0,2,.14,4.18,0,6.33-1.19,15.9-2.56,31.79-3.6,47.7-.49,7.45-.24,14.94-.57,22.4-.21,4.69,1.46,7.59,5.72,10.09,24.25,14.18,49.56,26.24,75.25,37.51,22.16,9.73,44.38,19.34,66.56,29,2,.86,3.87,1.9,5.45,2.67-1,2.38-2.46,4.23-2.34,6,1,16.19-2.34,31.72-6.56,47.15-1,3.64-1.92,7.3-3,11.28l5.75,1.16c-1.63,3.8-3.29,7.44-4.75,11.17s-1.35,7.16,3.43,10c-4.32.39-5.54,2.21-5.86,5.77-1.54,17.28-3.5,34.52-5.29,51.78-.77,7.38-1.5,14.76-2.35,23.2-1.63-1.8-2.69-3-3.8-4.22-.3,0-.69,0-1.08,0-5,.49-10,1.47-15,1.39a77.28,77.28,0,0,0-40.83,10.38,36.9,36.9,0,0,0,5.26,0c8.19-1.18,16.35-2.52,24.53-3.73,6.19-.91,12.39-1.67,18.84-.3.2,3.06-2,4.5-4.15,5.16-3,.93-6.45,2-9.39,1.37-19.08-3.89-37.77-.67-56.48,2.47-20.89,3.5-41.73,7.33-62.66,10.5-7.54,1.14-15.3.76-23,1.07-1.4.06-3.37-.44-4.1.29-3.89,3.86-8.19,2.2-12.49,1.49a36.24,36.24,0,0,0-4.26,0l4.15,2.78-16.31,1.85c11.37,2.36,21.69-2.42,31.66,1.75-6.38.77-12.77,1.51-19.14,2.33-25.84,3.31-51.81,5.05-77.81,6.59-10.82.64-21.57,2.77-32.33,4.42-3.55.55-7,1.48-9.92,4.08-1.13,1-3.32.81-5.44,1.24l-2.16,4c-7.82-.48-10.37-1.24-9.82-12.16-1.8-1.34-3.84-2.94-6-4.42-16.07-11.19-32.17-22.32-48.23-33.53-18.06-12.6-35.56-25.86-51.62-41-3.42-3.22-8-5.27-12.3-7.43-1.43-.72-3.56-.26-5.33,0-8.8,1.2-17.55,2.68-26.37,3.73-12.72,1.52-25.47,2.9-38.24,4.06s-25.37,1.78-38,2.91c-28.54,2.57-57,5.44-85.58,7.91-10.86.94-21.78,1-32.66,1.71-4.28.27-8.38.16-12.55,2.94-3.16,2.11-8.16,1.65-12.37,1.95-11.88.83-23.81,1.12-35.65,2.25-20.29,2-40.53,4.34-60.79,6.62-23.85,2.67-47.58,6.31-71.69,6.74-13.06.24-26.09,2.57-39.12,4-18.26,2-36.54,3.74-54.77,5.91-20.42,2.43-40.79,5.35-61.22,7.78-10.61,1.26-21.3,1.86-31.95,2.84q-24.11,2.24-48.2,4.59-27.11,2.68-54.2,5.55c-3.19.34-6.35,1.1-9.45,1.66-2.56,5.4-2.56,5.4-8.5,5.14,0,3.63,0,7.23,0,10.83,0,6.26,0,12.52-.11,18.78-.05,3.26,1.1,6.8-2.58,9.25-.81.54-.76,2.63-.83,4q-.85,19.35-1.59,38.71c-.14,4,0,8.06,0,12.91-3.23,0-6-.15-8.71.05a63.68,63.68,0,0,1-8.23.44c-5.41-.29-11.24-.63-15.66,4.15-1,1.12-3.24,1.34-5,1.63-10.92,1.82-22,2.8-32.75,5.44-30.56,7.55-61.67,10.17-93,11.62-.8,0-1.61.12-2.7.21-1.22,4.39-3.83,6.61-8.84,7.33-7.54,1.08-14.81,3.81-22.3,5.31-7.3,1.47-14.7,2.57-22.11,3.31-16.47,1.65-33,3-49.46,4.38a14.4,14.4,0,0,1-6.85-1.18c12.92-2.8,26-3.85,39-5.37,13.21-1.54,26.42-3.11,39.6-5.32l-14.95.84c-30,1.63-60,4.35-89.79,8.52-14.57,2-29,5.06-43.49,7.74a45.18,45.18,0,0,1-18-.12c-4.89-1-9.85-1.75-15.4-2.71,2.58-9.65-.45-18.22-3-26.92-8.94-30.86-19.74-61.06-31.37-91-1.46-3.76-2.86-7.54-4.29-11.31-2.12-5.6-2.59-6-8.32-5.28-6.8.87-13.56,2-20.35,3a25.35,25.35,0,0,1-4.79.57c-1.94-.09-4.24-.1-5.64-1.14-.79-.58,0-3.17-.1-4.85a118,118,0,0,0-.89-12.06c-2.05-12.7-3.94-25.33-7.47-37.86-6.19-21.91-10.32-44.39-15.28-66.65-1.87-8.37-3.63-16.77-5.47-25.29L8,922.5c-.26-2.43-.64-4.38-.64-6.33-.05-13.52,0-27,0-40.56.06-38.55-.91-77.1.73-115.65.48-11.46-.63-23-1-34.48-.42-11.9-.89-23.8-1.29-35.7a37.62,37.62,0,0,1,.32-4.32c6.09-1.13,12-2.64,17.91-3.19s11.81-.12,18.21-.12a43.39,43.39,0,0,0,.74-6.88c-.48-12.26,3.09-24,4.73-35.92.9-6.59,1.66-13.21,2.33-19.83.23-2.2.51-4.6-.14-6.62-2.43-7.61-1.35-15.22-.43-22.82,1-8.61,2.36-17.19,3.42-25.8.37-3,1.49-5.39,4.19-6.91,6.66-3.74,13.26-7.6,20-11.2,3.59-1.91,6.66-.79,10,1.65a57.29,57.29,0,0,0,14.65,8.23c3.48,1.2,7.8,0,11.77-.54-3-1.58-7.06-.19-9.11-4,1.18-2.46,3.62-2.54,5.66-2.75,15-1.54,30.12-2.94,45.19-4.32,1.39-.13,3.1-.35,4.17.29,4.56,2.76,9.41,1.35,14.16,1.38,3.82,0,7.65-.21,11.48-.31l21-.57,0-1.31-30.68,1.82-.34-1.58a28.12,28.12,0,0,1,3.92-1.3,469.18,469.18,0,0,1,95.23-7.45c5.38.14,10.73,1.53,16.12,2a35,35,0,0,0,8.85-.31c5.17-.85,10.27-2.09,15.39-3.22,6.44-1.42,12.81-1.44,19.25,1.17-.21-1.06-.36-1.81-.5-2.57,11.24-3.7,67.75-7.11,87.71-5-23.75,3.32-47.88,1.6-72.54,4.79,3,2.58,5.67,2,8.12,1.8a39.92,39.92,0,0,1,14.94,1.14c5.33,1.55,10.8.67,16.17-.54,5.9-1.33,11.82-2.65,17.78-3.61,3.5-.57,7.18-.88,11.32,1.51l-5.91.64c0,.39,0,.78,0,1.16,3,0,6,.27,9,.09,10.27-.6,20.54-1.34,30.81-2,2.41-.16,4.83-.3,7.24-.44,1.41-.08,3.08.34,4.19-.27,6.84-3.74,14.26-1.39,21.33-2.38,4.12-.58,8.14-2,12.21-3a29.44,29.44,0,0,1,5.73-1.31c17.35-.63,34.71-.89,52-1.75,17.13-.84,34.23-2.28,51.35-3.41,14.9-1,29.8-2,44.71-2.84,12.69-.66,25.41-.93,38.1-1.52a8.21,8.21,0,0,0,4.19-1.65c5.72-4.25,8.56-4.43,14.73-.84a5.42,5.42,0,0,0,3.29.59c16.6-2.57,33.31-2.71,50-2.7,4.58,0,9.16-1,13.74-1.52,1.52-.17,2.81-.61,4.3,1,.92,1,3.4.7,5.17.64,12.3-.41,24.6-1.08,36.91-1.29a88.13,88.13,0,0,1,17.42,1.11c8.92,1.66,17.69.35,26.48-.29,27.19-2,54.35-4.39,81.65-3.17,6,.26,12,1.25,18,1.86a31.12,31.12,0,0,0,4.82.22q30.82-1.78,61.66-3.65c17.12-1,34.25-2.14,51.38-3.06,11.49-.62,23-1,34.49-1.42a25,25,0,0,1,7.19.6l-61.92,4.33,0,.78c4.22,0,8.44,0,12.67,0,12.31.07,24.62.34,36.93.18a80.2,80.2,0,0,0,16.15-1.68c3.38-.74,6.12-.95,9.09,1C1137.21,507.34,1139,507.27,1141.75,507.85Zm-129,376.9v-4.21c-4.26.8-7.26,2.36-8.38,7.55l8.2-2.94c3.77,2.78,10.94,2.18,14.37-1.33.72-.75,1-1.94,1.64-3.25C1022.05,878.77,1017.18,880.87,1012.79,884.75ZM625.34,916.31c.15-1.19.3-2.39.47-3.82-6.93,1.93-7.79,2.67-9.29,7.86,3.75,0,6.36-2.1,9-4.18,0,1.36-.38,3.23,1.69,3.07a72.12,72.12,0,0,0,11.74-1.63,4.79,4.79,0,0,0,3.66-5.26C635.29,911.57,635.29,911.57,625.34,916.31ZM1511,980c-.12-1.53-.24-3.06-.38-4.82-1.4.24-3,.12-3.21.61-1.48,3.31-4.41,3-7.17,3.32a26.66,26.66,0,0,0-5.32,1.05c-2,.65-3.39,1.93-2.72,4.72a34.76,34.76,0,0,0,19-5.1c.52.54,1,1.52,1.57,1.55,6.25.32,12.44-.15,18.18-2.9,2.24-1.07,4.38-2.58,4.69-6-3.75.42-7.1,1-10.46,1.12C1519.49,973.75,1514.7,975.62,1511,980ZM90.05,966.77c2.73,0,2.47-2.13,2.6-3.89.69-9.44,1.54-18.88,2-28.34a14.9,14.9,0,0,0-4.09-10.72c0,6.79.44,13.65-.11,20.44-.63,7.52-2.17,15-.32,22.54-.83,5.91-1.82,11.83,0,17.85a5.38,5.38,0,0,0,1.91-3.27C92.74,976.34,91.7,971.51,90.05,966.77ZM689.38,724.36c-.07.72-.15,1.44-.21,2.09h6.5c0-.35.08-.7.13-1.05l-6.65-.84,9.91-2.37c-.5-2.12-.93-4-1.4-6-11.84,2.52-23.2,5-33.31,11.25a10.09,10.09,0,0,0,3.61-.14Zm531.2,209.35,0,0c1.39,2.6,3.08,4.8,7,5.29,0-6.64.05-12.83,0-19,0-3.29-1.2-5.85-5.22-6.49-.53,1.31-1,2.5-1.78,4.36-.37-4.78-.37-4.78-2.47-6.72-.51,4.9-1.14,9.68-1.47,14.48C1216.39,929,1217.11,932.06,1220.58,933.71ZM33.36,807l-.58,6.5.58,0V807c-1.46-6-1-12,.11-18.11A4.62,4.62,0,0,1,35,791.44c.94,5.56,1.78,11.14,2.67,16.7.23,1.49,0,3.45,2.56,2.85.51-8.25-11.71-54.81-17.68-64.17q3.6,91.74,7.19,183.16c-.07.14.11,0,.11-.22.28-39.88,2.64-79.75-1.82-119.6-1.36-12.16-.52-24.57-.59-36.87a27.91,27.91,0,0,1,.77-4.73,7,7,0,0,1,1.72,4.1c.62,9.66,1.14,19.32,1.78,29C31.81,803.51,30.89,805.81,33.36,807Zm1560.92,205.27a50.55,50.55,0,0,1,2.48-5.44c5.43-9,11-17.86,16.4-26.85,1.8-3,3.21-6.24,4.84-9.45-3-1.4-4,.31-5.17,1.64-3.64,4.32-7.2,8.71-10.9,13a35.39,35.39,0,0,1-3.88,3.42c1.92-3.28,3.94-6.51,5.72-9.86,1.14-2.15,1.93-4.48,3.19-7.46-6.9,1.09-12.62,2.11-18.37,2.87-3.51.46-5.54,2.26-7.42,5.26-7.48,11.94-15.31,23.67-23,35.47-.44.67-.89,1.34-1.4,2a15.83,15.83,0,0,1-1.31,1.28c6.78-14.85,17.82-27,24.5-42.57l-14.48,2.1c-7.24,10.66-14.28,20.72-21,31-3.49,5.38-6.41,11.15-9.47,16.81a15.2,15.2,0,0,0-.9,3.73c11.43-1.9,22.33-3.64,33.19-5.6a8,8,0,0,0,4.38-2.57c6.39-7.8,12.55-15.77,18.86-23.62a52,52,0,0,1,4.11-4.16c-3.1,4.6-6.2,9.22-9.32,13.82-3,4.42-6,8.82-9.23,13.53,5.92.86,7.75.48,11.4-2.16,1.59-1.14,3.16-2.34,4.74-3.51V1019c4.57-.5,8.7-1.22,12.85-1.32a6,6,0,0,0,5.38-3c10.21-14.77,20.51-29.48,30.74-44.24a34.78,34.78,0,0,0,2.15-4.69c-6,.89-10.88,1.89-15.83,2.26-3.43.26-5.24,1.72-7,4.62-7.69,12.55-15.69,24.9-23.64,37.29A14.43,14.43,0,0,1,1594.28,1012.27Zm-98.65,18.82v4.63c3-.47,5.71-.94,8.46-1.34a8.69,8.69,0,0,0,7-5c2.26-4.27,5.07-8.25,7.64-12.35,6-9.55,12.06-19.09,18-28.68,1.1-1.78,1.86-3.78,2.94-6-8.24.44-8.09.56-11.76,5.44-5.69,7.56-11.61,14.94-17.44,22.4a33.48,33.48,0,0,1,2.51-5.38c3.09-4.47,6.43-8.78,9.62-13.19,1.46-2,3.59-3.86,2.4-7.18-4.34.63-8.46,1.53-12.62,1.74a6.79,6.79,0,0,0-6,3.27c-10,15.14-20,30.24-30,45.38a24.66,24.66,0,0,0-1.69,4C1483.39,1039.93,1490.14,1037.19,1495.63,1031.09ZM64.05,1009.76c-.86,1.57-1.62,3.2-2.6,4.69-3.78,5.71-7.67,11.36-11.43,17.08a23,23,0,0,0-1.55,3.77c2.92-1.29,3.56-4.87,7.3-4.23v6.33a192.11,192.11,0,0,0,17.6-26.72A14.81,14.81,0,0,0,73.89,997l3.53-7.38c.69,3.4,1.26,6.21,1.91,9.43,2.9-4.74,3.66-19.91,1.35-25.37-4.8,6.75-9.46,13.33-14.13,19.91a54.87,54.87,0,0,1,8.26-14.64c6.14-7.47,8.33-15.73,7.45-25.23-.49-5.28-.09-10.64-.09-16-1,.15-1.29.1-1.37.21a10.65,10.65,0,0,0-1.38,1.91,144.31,144.31,0,0,1-16.34,26.8,63,63,0,0,0-6.24,10.36c-2.49,4.81-4.44,9.93-7.09,14.64-2.1,3.73-2.11,7.37-1.53,12.65,2.37-4.1,4-7,5.75-9.91,1.87-3.12,3.79-6.2,5.73-9.27q2.74-4.35,5.57-8.65c1.85-2.82,3.52-5.82,6.74-7.4a46.9,46.9,0,0,1-4,8.17c-6.19,10.4-12.44,20.77-18.64,31.16-2.43,4.07-2.88,13.26-1.07,17.86Zm293.51,136.15q-.74,3.33-1.48,6.67c9.25,0,17.13-2,22.48-9.85l-3.63,6.58c14.16-1.67,14.16-1.67,18.74-7.94v4a59.88,59.88,0,0,1,7.81-.32c11,1,11,.1,15.27-8.17,3-5.82,6.39-11.48,9.6-17.21l-9.25,20.81,5.83.82c-3.66,3.35-9.92,3.09-9.73,10l25.64-4.48a63.76,63.76,0,0,1,2.61-8.24,61.93,61.93,0,0,1,4.53-7.2l.85.49q-.9,6.7-1.82,13.4l.67.18c.67-1.36,1.34-2.71,1.95-4,7.29-1,13-3.6,14.21-11.62.08-.54.38-1.45.64-1.48,3.5-.3,3.58-3.56,4.61-5.66,4.45-9,8.68-18.21,12.78-27.43,1.49-3.36,2.42-7,3.61-10.51-11.42.3-22.09,1-32.73.69-5.4-.13-8.17,1.84-9.85,6.6a57.28,57.28,0,0,1-3.74,8.26c-3.46,6.36-7.09,12.63-10.65,18.94,4.93-11,9.87-21.91,15-33.34-7.29-2.07-14.17.42-20.15.81-2.09,5.33-3.42,10-5.64,14.18-7.25,13.65-14.83,27.13-22.28,40.67,1.93-4.39,3.7-8.85,5.8-13.15,5.36-10.93,10.86-21.78,16.84-33.73-5.86,2-11.5,1.28-13.91,6.08-1.52-.85-2.68-2.08-3.75-2-3.79.31-7.57,1-11.32,1.68-2.72.5-4.08,2.13-3.71,5.25l6.68.6c-7-1-9.57,3.54-12.57,8.85-4.64,8.17-10.46,15.68-15.77,23.47,2.36-4.88,4.63-9.81,7.11-14.62,2.56-5,5.33-9.83,8.51-15.67-5,.25-9,.6-12.9.57-3.08,0-4.73,1.31-5.93,4-1.29,2.92-3.07,5.61-4.64,8.41l-1.16-.63,5-10.77c-5.81-1-5.84-1-8.27,3.15-6.21,10.63-12.3,21.32-18.6,31.89-1.95,3.27-4.42,6.22-6.65,9.32,3.46-6.58,6.78-13.25,10.43-19.72,5.49-9.71,11.22-19.29,17.34-29.78l-30.83,3.49-18.56,35.94c2.82-12.8,11.06-23.15,15.92-35.75l-9,1.3L274.77,1171c2.77-.32,4.9-.51,7-.82,2.38-.34,4.79-1.31,7.11-1.11,8.41.75,16.32-1.73,24.37-3.33.89-.18,1.65-1,3.18-2.06l-9.86-.68a39.08,39.08,0,0,1,9.47-2.86,9.57,9.57,0,0,0,6.51-4c1.23,3.89,3.86,1.54,5.89,1.17,1.09-.19,2.47-2,3-1.76,4.43,2.49,8.48-.63,12.69-.58,5.64.06,9.51-2.47,11.7-7.69C356.07,1146.73,357,1146.38,357.56,1145.91ZM1516.8,772.8c4-1.09,7,1.07,10,3.07,2.78,1.81,5.42,4.17,9.67,3.31.78-24.57,4-48.87,4.67-73.48-9.71-2.5-18.59.33-28.22.3,0,2.1-.33,3.93.07,5.59a27.74,27.74,0,0,1,.21,10.47c-1.48,10.55-2.84,21.12-4.36,31.67-.54,3.73-1.41,7.42-2.19,11.46,2.31,1.12,4.25,2.09,6.22,3s4,2,4.06,4.7c-3-1-5.71-3.69-10.63-1.91,3.76,2,6.62,3.57,9.45,5.14,3.16,1.75,6.25,3.64,9.45,5.3,5,2.6,5.26,2.58,9.21,1.66ZM1141.47,954.43c-11.9-.12-23.51,1-35.14,1.85-10.43.77-20.87,1.26-31.31,1.88a11.26,11.26,0,0,1,2.74-1c5.22-.54,10.45-.88,15.66-1.45,7.28-.79,14.53-1.73,21.8-2.6,0-.39-.07-.78-.1-1.16-4,.22-8,.37-12,.69-11.86,1-23.71,2-35.58,2.93-2.14.16-4.66,1-6.24-1.26,9.44-3.79,20.1.63,29.71-5-1-.56-1.37-.9-1.68-.88-16.71.83-33.43,1.4-50.11,2.63-16.87,1.25-33.69,3.13-50.52,4.76-2.8.27-5.86.08-8.33,1.16-5.24,2.3-10.46,2.36-15.89,1.45a12.11,12.11,0,0,0-1.81,0c-14.8-.08-29.26,1.7-42,7.67l-5.93-4.7,3.55-1.92c-2.32.1-3.53.09-4.73.22-27.45,3-54.88,6-82.34,8.92-11.62,1.22-23.28,2-34.92,3a33.51,33.51,0,0,0-6.51,1.22,4.43,4.43,0,0,0-3.57,4.66c8.64,0,17,.15,25.28-.06,4.42-.11,8.82-.94,13.24-1.27,13.48-1,27-1.86,40.43-3,20.71-1.7,41.4-3.55,62.09-5.36,19.68-1.73,39.39-3.25,59-5.34,21.86-2.31,43.65-5.17,65.48-7.76,2.27-.27,4.62-.64,7.88,1.37L1035,959.7l.09.82,40.07-2.45a42.3,42.3,0,0,1-5.74,1.61c-9,1.23-18,2.28-27,3.47-2,.27-4,.84-6,1.27a39.54,39.54,0,0,0,11,.24q20.44-1.67,40.88-3.38,10.8-.93,21.61-2m-193-38h0a10.89,10.89,0,0,1,2.74-1.76c3.89-1,7.82-1.9,11.74-2.83a7.17,7.17,0,0,0-4.26-.29c-5.58.82-11.15,1.71-16.74,2.41-1.32.16-3.46.19-4-.56-2.08-3.14-4.8-2.07-7.52-1.81-6.43.61-12.86,1.35-19.31,1.61-3.4.14-5.5,1.25-7.2,4.27a242.07,242.07,0,0,1-27.06,37.88c-1,1.16-1.94,2.36-3.84,4.67,6.76-.73,12.08-1.44,17.42-1.85a9.11,9.11,0,0,0,7.41-4.31c5.07-7.29,10.48-14.34,15.87-21.4a58,58,0,0,1,5-5.17l1.15,1-19.56,28.42c5.92-.76,10.84-1.47,15.79-2,11.82-1.35,23.66-2.59,35.49-4,2.73-.31,5.53-.27,7.59-2.94,5.91-7.67,12.19-15.06,18-22.79,2.61-3.45,4.49-7.45,6.64-11.12-.87-.66-1.25-1.15-1.49-1.09-5.26,1.25-11.12,1-14.44,6.74-1.59,2.75-4.11,5-6.22,7.4q-9.3,10.77-18.61,21.51a6.07,6.07,0,0,1-1.1.77l-3.27-2.49c7.16-10.1,15-19.36,20.74-31.6ZM60.83,916.35c-2.94,5.27-6,10.47-8.76,15.82a18.69,18.69,0,0,0-2.44,7.28c-.63,14.1-.94,28.21-1.31,42.33a25.72,25.72,0,0,0,.82,4.26c5-8.63,9.25-16.18,13.74-23.58,5.63-9.28,10.31-19.13,17.67-27.37,3-3.41,1.71-8,.81-12.89L72.65,935l-1.58-.88c5.38-6.51,4.43-15.62,10.12-22.07.77-.87.64-2.67.65-4,0-4-.06-8.06-.17-12.09,0-2.09-.24-4.16-.37-6.24l-1.1-.19L66.5,907.53c3-7.28,6.34-14.43,12-20.11a11.42,11.42,0,0,0,3.32-8.65c.16-15.92.46-31.84.69-47.76a16.5,16.5,0,0,0-.27-2.23l-6,1,5.47-7.1c-7.55,0-14.54,0-21.52,0a26.8,26.8,0,0,0-4.79.59c-3.56.69-5.56,2.93-5.71,6.55-.2,5-.36,10-.34,14.94q.13,39.91.39,79.82c0,1.46.23,2.92.35,4.41ZM1443.13,654a67.33,67.33,0,0,1-6.55-2.72q-38.88-20.92-77.71-41.93c-2.62-1.41-5.35-2.61-8.32-4-.52,2.09-.91,3.6-1.27,5.12-1.22,5.08-1.24,5.12,3.24,7.58,6.71,3.69,13.47,7.3,20.2,11,41.78,22.8,83.17,46.25,123.34,71.82a12.63,12.63,0,0,0,6.1,1.68c5,.16,10-.15,15.06-.19,4.43,0,8.88.26,13.29,0,2.37-.15,5.15-.08,7.18-2.9-43.09-21.67-84.47-45.8-127.61-66.63a18.87,18.87,0,0,0,4.48,3.59c8.47,5.09,17,10.12,25.42,15.24a24.57,24.57,0,0,1,3,2.58ZM17.09,720.9c1.45,3.28,4.11,5.16,7.22,6.79,4.82,2.52,9.52,5.29,14.1,8.22a62.75,62.75,0,0,1,6.48,5.45l-.68.72L21,728.47c1.82,6.18,3.1,11,4.65,15.71,8.22,25.07,18,49.69,22.49,75.87a25.26,25.26,0,0,0,.9,2.79l30.71-6.69c-1.82-6.36-3.19-12-5.09-17.56-1.79-5.19-1.47-11.3-6.37-15.27-.59-.49-.64-1.91-.59-2.88.41-9.81-3.92-18.41-6.78-27.4a6.51,6.51,0,0,0-4.79-4.82c-2.49-.74-4.74-2.27-7.1-3.45l.45-1.07,8.29,1.37c-3.07-13.16-13.41-19-23.23-25.23-4.73-3-9.87-5.36-14.79-8.07-1.52-.83-2.92-1.88-4.47-2.89-.2.75-.5,1.36-.38,1.45,7.31,5.71,14.66,11.38,22.57,17.49-9.17-.66-14-7.57-21.07-12.19.36,2.35.6,3.89.83,5.42l-2.14.27,1.34,2.89ZM733.32,873.27c-1.06,1.68-2,3.43-3.21,5.05-5.19,7.2-10.44,14.35-15.64,21.54a34.41,34.41,0,0,0-1.89,3.3l1,.88L724,895.7l.49.29-4.69,7.77c2.8,0,4.41-.14,6,0,4,.41,6.67-.88,9.09-4.32,4.51-6.43,9.66-12.42,14.56-18.57,8.8-11,17.64-22.06,26.41-33.12a37.31,37.31,0,0,0,2.47-4.09l-.93-.64-5.25,3.72c-.34-1.34-.58-2.24-.9-3.5a38.18,38.18,0,0,1-5.35,0c-4.88-.68-8.23,1.15-11.3,5.06-6.09,7.75-12.7,15.09-19.1,22.6.39-4,2.34-7.12,4.74-10.21,3.9-5,7.5-10.33,11.78-16.3-2.86-.31-4.66-.82-6.37-.62-5.2.6-10.38,1.4-15.53,2.33a6.39,6.39,0,0,0-2.9,1.95c-4.88,4.82-9.67,9.73-14.55,14.55-1.32,1.31-2.82,2.43-4.24,3.64l-.64-.69,13.33-18.77c-7.26.59-13.89,1-20.47,1.77a7.23,7.23,0,0,0-3.87,2.42c-3.15,3.4-6.11,7-9.14,10.49C676,874.87,664,888,654.82,903.32c-.87,1.45-1.56,3-2.44,4.75,5.31,1.2,8.85-.58,11.84-4.06,1.88-2.19,3.4-4.88,7.75-6l-7.29,8.32c6.57.88,11.55.92,14.84-5,1.64-3,4.19-5.41,6.32-8.1,1.26-1.58,2.63-2.93,5.53-2.62L680.5,906.41c2.42,0,3.75.37,4.75-.06,5.25-2.26,10.72-1.31,16.09-1.18a8.05,8.05,0,0,0,7.57-3.72c4.19-5.93,8.53-11.78,13.24-17.3C725.52,880.22,729.57,876.87,733.32,873.27Zm678.21,134.53.13.11c.64-2,1.29-4.06,2-6.24l-8.47-2.68-10.34,14.54-.79-.61,11.8-20.33c-5.94,1-10.28,1.63-14.59,2.46-6.79,1.31-13.5,2.29-20.46-3.16-.46,18.49-.89,35.88-1.32,53.41,4.87,2.12,11.28-.8,14.56,5l2.8-1.86c.27,1.29.45,2.21.79,3.87l16.47-6.61c-.16.39-.61,1.58-1.18,3.07,6.18,1.57,10.26-1.72,14.49-5.44-.15,3,1.07,3.79,3.3,3.44,3.57-.57,7.14-1.1,10.71-1.65,1.31-1.82,2.63-3.64,3.94-5.47l.93.5c-.08,1.4-.16,2.79-.23,4l18.37-.62a8.34,8.34,0,0,0,1.15-.34c3.34-.7,6.65-1.77,10-2a7.17,7.17,0,0,0,6.34-3.67c9.28-14.67,18.69-29.25,28-43.89.89-1.4,1.55-2.95,2.62-5l-15.34,1.55c-1.17,1.62-2.38,3.23-3.52,4.89q-14.54,21.24-29.07,42.48c-.87,1.27-1.28,3.42-4.46,3,10.32-16.41,22-31.23,31.25-48.15-7.33-1.15-12.3.38-16.2,6.4-8.11,12.53-16.8,24.69-25.31,37a16.19,16.19,0,0,1-2.55,2.4l-1-.89c8.47-14.34,20.14-26.75,27.4-43-3.71.53-6.3,1.33-8.82,1.15-4.11-.29-6.27,1.83-8.12,5q-3.66,6.27-7.59,12.39a14.62,14.62,0,0,1-6.07,5.82l12.73-20.47c-.26-.38-.53-.76-.8-1.13-2.49.35-5,1.11-7.47,1-3.43-.21-4.93,1.55-6.51,4.18-5.21,8.64-10.67,17.13-16.08,25.64-.93,1.47-2.07,2.79-3.11,4.18l-1-.65c5.28-10.88,14-19.81,19-30.79-2.15-1.46-4.37-2.41-3.23-5.35a31.5,31.5,0,0,0,5.3-1.08,7.72,7.72,0,0,0,3.84-2.66c.57-.95-.16-2.68-.33-4.19l3.38-1.52-.32-1.36a16.55,16.55,0,0,0-4.09.43c-7.35,2.73-12.18,8.41-16.62,14.5C1415.77,1002.12,1413.64,1005,1411.53,1007.8ZM236,1124l.12.11c.28-1.12.56-2.25,1-4-2.88.35-5.4.78-7.94.93-4.42.26-7,2.35-9.24,6.36-7.17,12.63-15,24.89-22.56,37.28-2.85,4.65-5.73,9.26-8.61,13.89-.55.88-1.18,1.73-1.77,2.59l-1.12-.52a41.53,41.53,0,0,1,2.15-5.29c2-3.49,4.27-6.85,6.41-10.27q11.75-18.7,23.46-37.44a38.16,38.16,0,0,0,2-4.55,23.19,23.19,0,0,0-3,0c-8.17,1.24-16.32,2.57-24.49,3.76a6.76,6.76,0,0,0-5.1,3.76c-2.2,3.75-4.61,7.38-6.94,11.06l-.94-.53,7.4-13.31c-10.68,1.6-20.06,2.86-29.38,4.5a11.24,11.24,0,0,0-5.42,3.23c-2.84,2.84-5.25,6.11-8,9.08-.62.67-1.82.8-2.75,1.17l-.65-.89,11-12-12.34,1.17c0,6-.27,11.59.08,17.18.34,5.24-3.33,10.63.3,15.68-4.32,7.17-3.31,15.2-4.15,23h8.52c-.3-1.28-.52-2.17-.94-3.95l26.11-1.79,27.06-43.22c-6.7,15.09-16.44,28.43-24.39,44.32,9.74-.55,18.23-.49,26.56-1.64,8.75-1.22,17.33-3.69,26-5.45,5.12-1,10.55-1.08,15.43-2.76a77.44,77.44,0,0,1,25.54-4.11c3.9,0,6.32-1.32,8.29-4.67,10-17.06,20.16-34,30.22-51a60.22,60.22,0,0,0,2.53-5.5c-4.76.59-8.89,1.4-13,1.54-3.75.12-5.67,2.13-7.47,5-7.13,11.49-14.39,22.9-21.64,34.31-.94,1.48-2.11,2.81-3.17,4.21l-1-.7,25.18-41.5c-4.92.58-8.66,1.25-12.42,1.4-3.47.13-5.31,1.8-7,4.71q-7.14,12.29-14.94,24.2c-3,4.61-6.62,8.84-10,13.25l-1-.71c7.81-13.46,17.84-25.58,25.56-40.29-5.88.9-10.8,1.86-15.76,2.36C244.58,1118.4,239.41,1119.09,236,1124ZM1326.76,684.38l5.55-.34c-5.07-5.37-11-7.54-16.67-11.54,6.11-.55,8.71,5.28,14.13,5.67.77-8.61,1.21-16.75-1.76-24.76v16.68a11.88,11.88,0,0,1-2.22-6.1c-.38-4.22-.49-8.46-.78-12.69-.94-13.81.39-27.89-5.29-41.13,2.45-1.54,3.62-3.1,2.93-6.09a37.69,37.69,0,0,1,1.52-21.45c2.11-5.88,4.35-11.71,6.54-17.57,2.56-6.83,4.5-13.78,4.62-21.17a9.13,9.13,0,0,1,1.64-5c3.86-5.21,5.54-11.13,6.54-17.38A56.49,56.49,0,0,1,1345,516c-1.29.13-2.86.34-4.44.42-4.82.25-9.66.72-14.48.59s-9.41-1.17-12.84-4.56c-2.28-2.24-4.52-2.72-7.51-2.66q-36.63.71-73.27,1.08c-5.62.05-11.86.62-16.71-1.53-4.53-2-8.46-1.83-12.68-1.32-7.78.93-15.5,2.3-23.08,3.46-8.52-8.59-17.4-10.14-23.83-4.34a3.08,3.08,0,0,0,.44,1.06c4.26,4.24,4.4,6,.05,10.12-2,1.9-1.66,4-1.49,6.15.8,9.85,1.64,19.7,2.67,29.53,1.92,18.46,4.12,36.89,5.88,55.36.6,6.3,1,12.74-.86,19-1.79-24.56-2.32-49.21-8.54-73.25a1403.24,1403.24,0,0,0-4.55,155.83c9.84-.68,19,1.24,27.47-4.05a13.05,13.05,0,0,1,5.72-1.66c16.29-1.28,32.57-2.87,48.89-3.52,24.8-1,49.63-1.15,74.45-1.92,8.39-.26,16.76-1.3,24.82-2,1.85-6.15.82-10.56-4.23-13.57Zm-196.63-21.12.06,0c.81-2.45,2.14-4.85,2.33-7.34.53-7.24,1.27-14.55.71-21.74-1.08-14.07-3-28.06-4.53-42.09-1.15-10.58-2.22-21.18-3.33-31.77l1-.21,1.42,1.6c.56-11.26-2.72-21.64-4.12-32.63l-6.37.93c1-3.14,1.76-5.47,2.6-8-1.94-.69-4.8-1-5-1.87-1.07-5.13-5-4.15-8.16-4-8.45.35-16.89,1.06-25.32,1.73-12.66,1-25.29,2.85-38,2.95-22,.18-44-.65-66-1.22-2.36-.06-4.7-1.15-6.74-1.68-14,2.38-27.89,4.45-42.54,3.65,3,42.39-1.15,84.4-.18,127.62-2-4.91.65-9.57-3-13.24-.69,9.85-1.45,19.29-2,28.74-.4,7-.61,14.1-.68,21.15a46.84,46.84,0,0,0,1,7.2c4.51-11.07,2.41-22.66,4.63-33.82,2.37,13,.73,26.11.3,39.44,67.73,2.55,134.27-4.27,201.48-11.14.57-7.92,1.13-15.52,1.6-23.13C1131.35,664,1130.55,663.62,1130.13,663.26ZM91.07,558.1c-2.42-1.79-4.86-3.54-7.24-5.36-3-2.27-5.53-2.55-8,0-3.61,3.88-6.78,8.16-10.42,12.6,1,.16,1.26.27,1.37.2a19.09,19.09,0,0,0,2-1.37c5.13-4.34,10.84-6.76,17.75-5.82,1.51.21,3.13-.3,4.69-.48-.22,3.94-3.37,2.84-5.43,2.83-10.22,0-16.72,6-22.27,13.5a7.49,7.49,0,0,0-1.05,5c1.34,9.29,2.93,18.53,4.44,27.79,1.18-11.66-1.06-23.48,3.56-34.78,1.39,12.07.08,24.42,4.75,36.15V592.72l1.38,0c1,23.57,1.89,47.14,2.86,71.25.67-12.79,1.31-25,2-37.29,4,45,.45,89.86-1.16,134.24,7.7,4.61,15.62,3.52,23.4,3.55l4.24,0c16.14,0,32.28,0,48.33-2.31,4.45-.64,9-.83,13.45-1.22-13.93,2.58-28,4.05-41.84,6.55-14.21,2.57-28.51.61-44.3,1.79,3.27,1.92,3.89,4.79,7.19,4.73,13.11-.24,26.24,0,39.33-.64,10.65-.54,21.26-2.13,31.88-3.24,5.42-.57,10.9-.73,16.24-1.7,31.52-5.73,63-11.64,94.52-17.47,3.59-.66,4.1-1.25,3.66-5.31-.55-5-1.2-10-1.75-14.48-1.44,4.17-3,8.78-4.74,13.69h-4.94l3.79-8.78c.84-1.95,2.1-3.83,2.44-5.86.77-4.57,1.12-9.21,1.58-13.83q1.93-19.38,3.81-38.75l.59,0q-.92,21.69-1.82,43.4c2.57.84,4.3.51,4.94-2.06a22,22,0,0,0,.72-4.16c.85-16.94,2.54-33.89,2.25-50.8-.47-27.44-2.28-54.85-3.48-82.27-.25-5.74-3.94-9.4-7.4-13.48A12.54,12.54,0,0,1,271,569.9a10.8,10.8,0,0,1-1.77,1c-.59-8-.57-8,6.78-10.5,1.12-.39,2-1.61,3.85-3.23-3.32-.52-5.45-.94-7.6-1.17-6-.63-12-1.13-18.07-1.79-1.43-.16-3.48.12-3.25-3.1,10.5-.52,20.83,2,31.58,2.87-.24-1.74-.38-2.7-.57-4.1-7.15-.18-14.19-.52-21.23-.51-11.05,0-22.22-.67-33.12.66A320.51,320.51,0,0,1,191.4,552a50.62,50.62,0,0,0-8.45.51c-16.73,3-33.62,4.12-50.59,4.63a86.64,86.64,0,0,0-19.12,2.59c-7.53,1.95-14.61,2.51-21.6-1.4A2.8,2.8,0,0,0,91.07,558.1Zm1451,237.35.18.18c-1.36-2.43-3.52-3.53-6.14-4.08-.34,1.1-.58,1.9-.82,2.69l-18.46-8c-.55-.24-1.38-.38-1.56-.79-1.64-3.69-5.41-4-8.45-5.17-18.79-7.39-38.34-12.23-57.86-17.2-9.58-2.43-19.12-5-28.68-7.48,8.19,1,16.17,2.81,24.18,4.53,1.54.33,3.52,1.77,4.53-.91,8.6,4.08,22.75,7.59,29.47,7a34.55,34.55,0,0,0-4.29-2.88c-9-4.13-18-8.14-27-12.23-2.23-1-5.24-.91-5.91-4.3-.12-.65-1.57-1.06-2.44-1.55-12.3-6.89-24.69-13.64-36.89-20.7-11-6.37-22.06-12.62-34.1-16.86-3.4-1.19-6.8-2-9-5.45-.94-1.48-3.3-2.17-5.13-3-2.76-1.18-5.61-2.14-8.19-3.11l-7.63,5.47c5.1,2.75,10.15,5.69,15.4,8.22s11.33,3.07,16.05,6.89a228.19,228.19,0,0,1-40.46-15.36c-3.76,3.13-8.14,2.15-12.3,2.41-3.33.2-6.79,0-9.69,3.33,6.62,2.49,13.56,3,19,7.35a53,53,0,0,1-8.7-1.85c-5.62-1.57-11.18-3.42-16.88-4.67-4.81-1.06-7.35,0-10.79,3.33,2.25.73,4.31,1.46,6.4,2.07q60.35,17.65,120.69,35.31c10,3,19.91,6.45,29.86,9.69a56.07,56.07,0,0,1-7.11-1.17c-18.79-5.44-37.58-10.85-56.3-16.53-31.85-9.66-63.77-19-96.46-25.48-3.6-.71-7.23-1.26-10.84-1.88l-.31,1.4c27.68,10.73,57,16,85.12,25.41l-85.45-20.76c69.57,23.3,140.62,41.3,211.46,60.08a2.47,2.47,0,0,1-1.81.34c-31.7-7.86-63.54-15.23-95.06-23.77-39.11-10.6-78-22.19-116.93-33.32-13.83-4-27.85-7.16-42.32-6.26-12.48.78-25,2.09-37.34,3.77-14.18,1.93-28.27,4.54-42.41,6.79-1.3.21-3.16.52-3.93-.16-5.25-4.68-11.32-2.6-18.27-3.28,7.54,13.92,20.56,21.65,28.21,33.82-5.25-2.06-8.74-6.08-12.17-10.19-3.88-4.65-7.91-9.18-11.68-13.91-2.83-3.56-6.15-4.26-10.62-3.74-26.3,3-52.66,4.84-79.13,2.21a50.12,50.12,0,0,0-7.25,0c-7.45.34-14.9.91-22.35,1.1-13.12.33-26.25.38-39.36.67-4.27.09-8.54.58-12.8.89,0,.44,0,.88.07,1.32h36.28q-22.71,1.69-45.39,2.11c-10.47.18-21,.69-31.4-1.38a89.16,89.16,0,0,0-19.79-1.93c-14.92.45-29.8,1.8-44.72,2.55-12.69.64-25.4,1.22-38.1,1.32-11.09.08-22.2-1-33.28-.75-21,.4-41.95,1.33-62.93,2.07a23.4,23.4,0,0,0-3,.5,16.13,16.13,0,0,0,4.41,13.42c4.31,4.63,8.23,9.6,12.32,14.43l-.93,1a14.86,14.86,0,0,1-2.91-1.52c-4.17-3.49-8.11-7.27-12.43-10.56-5.38-4.11-8.2-9.14-7.29-16,0-.19-.52-.45-.33-.3-3,.81-5.49,1.89-8.11,2.16-16.05,1.66-32.14,2.93-48.16,4.72-13.27,1.49-26.53-.83-39.87.88-14.38,1.84-29,1.79-43.49,2.76-8.89.59-17.75,1.55-26.62,2.34l.09,1.43,51.63-1.77c-.51,1-1.07,1.22-1.62,1.21-20.41-.13-40.69,2-61,3.47-10.85.78-21.73,1-32.61-.81a76.78,76.78,0,0,0-18.67-.71c-15.88,1.32-31.69,3.47-47.57,4.85-13.25,1.15-26.55,1.8-39.85,2.45-13.49.66-27,.83-40.49,1.63-12.48.73-24.93,2-37.4,3-5.14.41-10.3.65-16.12,1,3.9,3,7.4,5.18,10.38,8a128.88,128.88,0,0,1,8.91,9.89c2.77,3.21,5.62,6.38,8.1,9.81s6.43,5.91,7.47,11.52C330.11,802,324,796.24,318,790.42s-12.15-11.79-18.73-18.17c-.28,5.29,2.18,8.28,4.94,11.36,5.65,6.29,11.07,12.8,16.47,19.32,1.07,1.28,2.57,2.85.14,5.42a37.68,37.68,0,0,1-4.43-3.1c-5.17-4.82-10-10.07-15.41-14.55-4.4-3.62-7.58-7.67-8.77-13.24-.06-.27-.56-.44.24.15-2.64.17-4.22.7-5.45.26-4.18-1.47-8.2-3.42-12.37-4.9a14.28,14.28,0,0,0-5.86-.81c-9.24.78-18.46,1.94-27.71,2.64-7.71.59-15.45.72-23.17,1.05,6.76,1.15,13.75-1,20.45,1.75-10.48,3.1-21.36,2.15-32,3.56-10.81,1.42-21.66,2.56-32.5,3.82l-.18-1.18,19.57-4.28a3.5,3.5,0,0,0-2.4-.52c-1.4.15-2.8.38-4.19.59-16,2.42-31.8,5.59-48,5.69-12.51.08-25,.31-37.53.61-4,.09-7.92.64-11.87,1-.38,2.85-.66,5-1,7.2l-7,1.65c1.92,5.76,3.57,11.13,5.54,16.37,1.25,3.35,2.18,6.41-.09,9.75-.71,1-.68,2.7-.66,4.08.36,18.36,1,36.73,1,55.1,0,7,2.06,12.89,5.55,18.76,8.35,14.05,16.38,28.29,24.54,42.45.7,1.22,1.19,3.14,2.21,3.49,3.59,1.22,3.67,4.45,4.8,7.13,1.25,3,2.4,6,3.84,8.85,5,9.93,10.08,19.78,15.06,29.7a54.92,54.92,0,0,1,2.09,5.49c-16.41-26.82-30-55-46.46-81.66a3.59,3.59,0,0,0-.13,2.54,96.78,96.78,0,0,0,6.75,15.68c11.4,21.6,20.34,44.35,28.78,67.28,1.86,5,4.35,9.86,6.63,14.95,3.61-.43,6.6-.74,9.57-1.14,22-3,43.9-6.83,66-8.86,23.3-2.14,46.75-2.57,70.13-3.78,2.61-.14,5.22-.47,7.82-.81,18.81-2.45,37.58-5.19,56.43-7.28a120.6,120.6,0,0,1,24.76-.45c10,1,19.26-1.35,30.16-2.92-7,0-12.65.22-18.23-.07s-11.36-.18-16.74-2.72c10.74-2,21.55-2.63,32.16-4.44s21.13-4.79,32.3-7.39c-1.77-2.83-3.39-5.1-4.68-7.55-1.18-2.25-3.33-4.14-2.85-7.29a6.06,6.06,0,0,1,2.14,2.22q3,4.15,6.13,8.26c2.92,3.9,2.93,3.9,7.67,2.14l.26-5.14A18.69,18.69,0,0,1,447,971c5.08,6.45,12.81,8.34,19.93,9.3,7.33,1,15.06-1,24.11-1.83-2.14-2.79-3.35-4.45-4.65-6-9.75-11.95-23.66-19.31-34-30.56-6.7-7.28-13.6-14.2-21.83-19.77a23.82,23.82,0,0,1-4.59-4.8c-9.56-11.48-18.78-23.27-28.7-34.43C387,871.33,378,858.44,363.52,851.05l4.39-2.4c-2.48-3.28-4.65-6.18-6.86-9.06Q357.54,835,354,830.5c-4.65-5.9-4.66-5.9-4.86-9.29,6.3,7.8,12.46,15,18.08,22.54,3.15,4.23,6.3,5.66,11.71,4.68,4.64-.84,10-3.66,14.54,1.2.68.73,2.72.16,4.13.25,5,.31,10.07.6,15.09,1,7.83.58,15.69,2,23.48,1.69,23.18-1,46.36-2.4,69.49-4.28,25.53-2.08,51-5.31,76.52-7.23,25-1.88,50-2.74,75-4,10.08-.52,20.2-.67,29.73-4.69,1.47-.62,3.42-1.49,4.66-1,5.8,2.32,10.92-.51,16.4-1.12,13.78-1.52,27.75-2.76,41.68-.69a18,18,0,0,0,4.2-.14c7-.61,14-1.36,21-1.86,3.31-.24,6.65,0,11.29,0L779,821.75c1.51-1,2.55-2.19,3.54-2.15,3.75.15,7.49.71,11.77,1.18,1.19,5,5.22,5.82,10,5.47a57,57,0,0,1,6.66.16c15.36.72,30.67.37,45.84-2.43,5.16-1,10.29-2.2,15.49-2.7,19.08-1.84,38.25-2.91,57.27-5.21,40.53-4.92,81.3-6,122-8.28,5-.28,9.87-1.76,14.78-2.8,2.36-.5,4.95-2.29,6.93-1.73,5.86,1.69,11-.55,16.55-1.29,12.8-1.69,25.74-2.19,38.64-.41a6.45,6.45,0,0,0,2.4,0c12.36-3.13,24.87-1.85,37.37-1.55a160.14,160.14,0,0,0,19.35-.62c5.84-.57,11.47-2.25,15.49-7.92-3.18-2.38-6.19-4.7-9.27-6.91-3.29-2.35-6.65-4.58-10-6.87-3.17-2.16-6.37-4.27-9.49-6.51s-6.28-4.34-8.27-7.78a20.12,20.12,0,0,1,5.69,3.18c4,3,7.81,6.5,12.14,9,4.64,2.7,9.63,5.42,14.8,6.44a15.08,15.08,0,0,1,9.83,6.11c1.47,1.92,2.87,3.9,4.39,5.79,2,2.45,3.5,5.5,7.78,4.14,1.06-.33,2.79,1.29,4.15,2.12,12.58,7.67,24.95,15.69,37.74,23,17.7,10.1,35.72,19.63,53.56,29.48,8,4.44,16,9.09,23.93,13.64-12.72-3.24-23-11.79-35.33-15.69,14,10,27.93,19.95,42.08,29.58,5,3.4,10.65,4.24,16.79,3.17,8.74-1.52,17.57-2.58,26.39-3.51,4.1-.43,8.29-.07,13.34-.07-5.4,2.31-10.83.67-16.1,4.66,8.3-.63,15.35-1,22.35-1.73q49.65-5.34,99.29-10.87a709.56,709.56,0,0,1,91.25-4.59c5,.09,10,0,14.94,0a16.75,16.75,0,0,1-6.83,2.5c-40.2,6.85-80.73,11.14-121.26,15.52-31.69,3.42-63.41,6.72-95.1,10.15-6.36.68-12.68,1.71-19.08,2.6-.42,4.53,1.79,7.49,4.35,10,3,3,6.44,5.49,9.71,8.18,2.88,2.35,5.8,4.66,8.7,7l-.82,1.32c-3.68-1.9-7.3-3.93-11.06-5.66s-7.63-3.71-12.76-2.36c-.59,17-1.18,34.09-1.78,51.45,2.12-.12,3.71-.11,5.27-.31,41.2-5.49,82.36-11.26,123.59-16.44,47.85-6,95.73-11.78,143.3-19.74,10.12-1.69,20.21-3.61,30.42-5.45,5.13-19.88,10.26-39.37,11.3-59.66a19.58,19.58,0,0,0-.35-5.41c-.5-2.13-1.4-4.2-4.7-4l1.94,6.07a48.54,48.54,0,0,1-4.77-1c-8.09-2.67-16.38-4.69-24.9-4.5-14.91.33-29.82,1.1-44.72,1.82-8.81.43-17.73.35-26,4.24a7.16,7.16,0,0,1-2.38.39c-21.91,1.92-43.8,4-65.72,5.7-21.73,1.72-43.48,3.13-65.23,4.59-3.38.23-6.79,0-10.19,0,71.77-10.73,144.24-14.47,216.84-22.12-8.54-9.72-40.8-27.2-78.31-42.79l-1.16,2c-2.07-1.16-4-2.3-5.94-3.29Q1554.8,801.76,1542.09,795.45ZM492.75,612.53c2.9-25.72,1.4-50.93-7.93-75.46-30.89,1.28-61.11,3.8-92.69,4.49,3.58-2.25,7.32-.06,9.74-4.46-27.38,2.07-53.76,6.46-80.47,6.25,14.21-5.47,29.66-2.65,44.14-6.38a10.5,10.5,0,0,0-3.63-.69c-18.88-.74-37.42,2.08-55.93,5.32a5.62,5.62,0,0,0-2.78,1c-3.77,3.54-7.44,7.18-11.08,10.86-.46.47-.53,1.34-1,2.58,6.87.74,7.19,5.55,7.49,10.64.93,16.11,2.31,32.21,3,48.33,1.29,29.44,2.21,58.9,3.32,88.35a54.9,54.9,0,0,0,.75,5.52c54.59-5,108.69-8.64,162.93-9.74-5.38.88-10.76,1.56-16.17,1.9-20.33,1.28-40.67,2.63-61,3.6-23.8,1.14-47.53,2.88-71.1,6.38-4.9.72-9.77,1.7-15,2.61.33,5.23.61,9.74.92,14.71L337.53,727c-8.59,1.5-17.19,2.48-25.75,3.7-2.81.4-5.57,1.41-5,5.78,5.07.37,10.07.91,15.09,1.08,33.2,1.09,66.07-3.1,99-6.49,7.35-.76,14.71-1.44,22.06-2.15-.42,1-.95,1.36-1.49,1.43-28.47,3.16-56.9,6.61-85.41,9.31-13,1.23-26.11,2.82-39.26.75a14.78,14.78,0,0,0-6.49.93c-1.24.39-2.19,1.73-4,3.25,2.6.85,4.1,1.77,5.59,1.76,4.81,0,9.61-.41,14.41-.67,1.56-.08,3.88-.95,4.55-.23,2.15,2.31,4.57,1.2,6.8,1.15,11.49-.3,23-.79,34.45-1.22l.11.53-27.41,6.46a27,27,0,0,0,8.36.09,7.79,7.79,0,0,1,2.19.16c.08,3.29,2.39,2,3.87,1.76,12.9-2.3,25.79-4.65,38.66-7.14,1.7-.33,4.07.15,4.79-2.55.15-.56,1.58-1,2.46-1.09,3-.42,6-.74,9-1a370,370,0,0,0,65.5-11.32c4-1.1,8-2.52,11.78-3.74,1.09-5.17,1.58-9.68-.59-14.35a28.84,28.84,0,0,0-3.61,0c-11.19,1.47-22.37,2.94-33.55,4.5-9.38,1.3-17.57,1.29-22.75-.25,20.4-2.55,41.1-2,61.36-8.17-2.14-4.24,2.17-9.69-4.17-12.3,2.84-.49,3-2.22,3-4.49,0-4.84.29-9.67.44-14.51.35-11.49,1.61-23.05.84-34.46-1.54-22.94-4.24-45.8-6.37-68.7-.86-9.25-1.49-18.53-2.22-27.81l1.19-.11C490.71,568.39,489.71,590.71,492.75,612.53Zm422-19.29c4.92-17.52,2.47-60.59-5.28-73.35L818.13,521c3.76-2.58,7.37,0,10-3.42-5.54,0-10.49-.24-15.41,0-23.15,1.33-46.34,4-69.47,1.07-9-1.15-14.91,2.67-20.71,8.1a17.62,17.62,0,0,0-2.19,3.23c6.47,4,6.5,4,6.71,11.66.39,14.32,1,28.65,1.05,43,0,28.46-.31,56.92-.49,85.39,0,3.37,0,6.75,0,10.83,54.17-2.69,107.53-4,160.93-3-15.29.89-30.59,1.35-45.89,1.67-32.28.67-64.6.33-96.78,3.61-5.92.6-12,.67-17.61,2.69V700H750a97.4,97.4,0,0,1-16.15,2.36c-2.91.26-5.62.79-5.77,4.64a7.19,7.19,0,0,0,1.66,1,28.69,28.69,0,0,0,3.58.57c25,2.73,50,2,75,.54,16.32-1,32.64-2,49-2.89,2.15-.13,4.31,0,6.47,0a123.62,123.62,0,0,1-18,2.51c-13.47,1.09-26.94,2.52-40.44,3-22.15.83-44.3,3.41-66.49.55a17.37,17.37,0,0,0-6,.09c-1.69.38-3.19,1.6-4.78,2.45.08.46.17.91.25,1.37,2,.68,4,1.85,6.11,1.94,4,.17,8-.27,12-.46,1.59-.08,3.85-.89,4.63-.14,2.46,2.36,5.3,1.59,8,1.64,8.07.16,16.15.06,24.22.1,1.9,0,3.8.17,5.7.26a289.35,289.35,0,0,1-30.79,6.3c-10.16,1.51-20.4,2.49-30.6,3.7,1,1.39,2,2.12,3.12,2.17,5.22.29,10.54,1.11,15.65.43C770,729,793.51,725.4,817.05,722c1.36-.2,3.66-.6,3.81-1.28.59-2.69,2.44-2,4.11-2.17,15.47-1.3,31-2.1,46.4-4.08,11.37-1.46,22.53-4.45,33.79-6.75,2.05-.42,4.12-.95,4.47-3.39.56-3.93,1.42-7.93-.86-11.95-1.23,0-2.41-.09-3.57,0-13.07,1.11-26.11,2.41-39.19,3.29-5.19.35-10.44-.22-15.67-.37,19.82-2.81,39.94-1.26,59.46-6.35a7.23,7.23,0,0,0,.27-2c-.69-3.42,1.56-7.33-1.68-10.33,3.38-3.31,1.61-7.64,2-11.42,1.34-14.46,3.19-29,2.89-43.44-.53-25.21-2.55-50.38-3.83-75.57-.27-5.38,0-10.77,0-16.16C915,550.77,912.69,572.19,914.75,593.24Zm-369-61c-3.42,2.89-8.57,1.82-13.07,2.88a113.73,113.73,0,0,1-14.94,2.31c-4.76.46-9.57.44-14.49.64,4.38,40.91,2.74,81.66,4.59,122.7-2.33-1.48.28-5-3.43-5.37.81,19.4-2.66,38.73,1.4,57.95,3.95-11.61.79-23.73,2.91-35.52,2.74,13.3,2.27,26.81,1.92,40.18,20.52,3.37,169.94-10.76,186.79-17.59.19-2.49.39-5.08.63-8.08,4.4.28,5.32-2.68,5.65-6.11s.66-7.17,1-11.1a36.57,36.57,0,0,0-4.36-.23c-6.85.45-13.69.94-20.53,1.51q-32,2.65-63.89,5.41c-20.69,1.79-41.4,3.42-61.91,7-6.3,1.09-12.73,2.48-19.25,1.1C591,680.06,647.94,677,704.54,673.17a11.39,11.39,0,0,0,.55-1.69c3.54-31.94,5.38-63.92,2.13-96-.26-2.6-.82-5.41-.14-7.82,2.37-8.35-.79-15.7-3.53-23.17a30.74,30.74,0,0,0-1.7-3.3,24.29,24.29,0,0,1-2.14,2.48,5.93,5.93,0,0,1-1.44.58c-.9-4.87-1.67-9.48,1.2-14.63-2.88,0-4.83-.09-6.77,0-12.89.7-25.77,1.76-38.67,2.11-33.48.91-67,1.56-100.46,2.18C551.23,533.94,548.86,532.9,545.75,532.19ZM141.68,1093.82a9.89,9.89,0,0,0,2.19.44c13.12-.18,26.3.34,39.34-.77,22.51-1.91,44.92-5,67.39-7.29,23.68-2.45,47.39-4.6,71.09-6.84,20.68-1.95,41.5-2.25,62-6,12.29-2.26,24.66-4,36.93-6l3.43-6.22c-4.41.69-8.36,1.28-12.31,1.93-10.35,1.68-20.69,3.47-31.05,5a48.56,48.56,0,0,1-7.24,0l-.24-1.51a51.72,51.72,0,0,1,5.35-1.68c10.08-2.05,20.12-4.38,30.28-5.89,11.15-1.66,22.41-2.57,33.64-3.69a17.16,17.16,0,0,1,4.24.67v1.29l-18.12,3c21.7,1.17,42-6.65,63.8-8.31-1.33-19.65.38-39-1.73-58.34-4.94.42-9.5,1.14-12.47-3.5-.24-.37-1.12-.51-1.68-.46-4.22.4-8.88-.55-11.63,3.79-2.25-.88-4.18-2.3-6.12-2.3-13.71,0-27.38.31-41,2.77-31.35,5.69-62.76,11.06-94.12,16.71-3.09.56-5.42.33-7.39-2.45l24.9-5.39c-14.38.73-28.59,2.31-42.74,4.35-31.14,4.48-62.21,9.49-93.62,11.91-1.57.12-3.47.26-4.59,1.16-2.41,1.95-5.1,2.21-7.93,2.42-4.82.36-9.67.57-14.47,1.14-9.39,1.13-18.77,2.33-28.12,3.77-4,.62-6.08,3-6.22,7.51-.42,12.9-1.32,25.79-1.81,38.69C141.47,1080.32,141.68,1086.94,141.68,1093.82ZM823.34,863.17l-.9-.49a8.14,8.14,0,0,1,.66-2.06c2.17-3.37,4.38-6.72,6.67-10,1.08-1.57,3-2.62,2-5.15-1.16-2.84-3.46-2.22-5.58-2.28-1.81,0-3.65.17-5.44,0-7.63-.91-13.3,2.34-18,8s-9.95,11-14.55,16.86c-7.88,10-15.48,20.13-23.13,30.27a47.12,47.12,0,0,0-3,5.59c3-.55,4.91-.87,6.81-1.27,1.35-.28,2.78-1.16,4-.92,7.46,1.48,12.28-2.06,16.19-7.85,4.4-6.52,8.94-12.95,13.47-19.37a26.65,26.65,0,0,1,2.74-2.89,72.68,72.68,0,0,1-7.76,14.28c-2.92,4.33-6.84,8.11-7.65,13.57,8.87.91,14.76-2.87,19.3-9.52a66.56,66.56,0,0,1,5.51-6.28l1,.79c-2.4,4-4.79,7.92-7.32,12.08,8.79.82,15-2.52,19.86-8.91,2.07-2.73,4.4-5.27,6.72-7.79a168.34,168.34,0,0,0,22.06-30.25c1.28-2.23,2.29-4.62,3.77-7.65-6.62.57-12.43.82-18.16,1.64a12.36,12.36,0,0,0-9.11,6.21C830.43,854.44,826.71,858.7,823.34,863.17ZM702.85,936a44.08,44.08,0,0,1-5.63,0c-5.15-.73-8.76,1.55-12.09,5.24a137,137,0,0,1-11.29,10.92c-9.29,8.17-18.09,16.77-25.52,26.72,1.73-5.52,5.56-9.62,9.23-13.82,4.25-4.85,8.65-9.59,12.71-14.59,2.61-3.21,4.85-6.76,5.37-11.57a32.46,32.46,0,0,0-19.74,7.43,165.25,165.25,0,0,0-14.67,14.33c-5,5.28-9.42,11-14.47,16.25-3.11,3.2-6.38,6.49-11.63,8.42a12.1,12.1,0,0,1,.8-2.86c3.26-4.83,6.34-9.8,9.94-14.36,4.87-6.16,10.22-11.95,15.23-18,1.7-2.06,3-4.46,4.9-7.32-3.76,0-6.39.19-9-.05-3.38-.31-5.68,1.1-7.83,3.55-8.63,9.86-17.52,19.49-26,29.46-3.72,4.37-6.74,9.34-10.8,15.06,26.85-.92,52.06-4.32,77.12-7C677.37,965.52,693.47,953.78,702.85,936ZM937.29,711.77c6.22.64,11.33-.26,15.88-3a7.86,7.86,0,0,1,6.8-1c31.64,9,63.84,8.75,96.07,4.84,14.37-1.74,28.49-5.51,42.74-8.22,4.89-.93,9.86-1.44,14.79-2.14-11.54,3.42-23.55,4.82-34.19,10.87a26.21,26.21,0,0,0,6.69-.07c7.22-.77,14.42-1.6,21.64-2.29,1.33-.12,3.74,0,3.9.51,1.18,3.84,4.2,2.37,6.43,2.3,4.62-.14,9.24-.74,13.85-1.22a31,31,0,0,0,3.51-.76c-.07-.46-.13-.93-.2-1.39h-9.81c0-.36,0-.71,0-1.07l6.49-.84c-3.93-5.29-3.46-10.94-3-17L939.85,704C939.15,706.15,938.35,708.56,937.29,711.77ZM697.12,704.7,522.67,723.59l-1.91,7.8a21.77,21.77,0,0,0,15.87-3.58c2.49-1.73,4.56-1.77,7.23-1.12a174.42,174.42,0,0,0,35.3,4.84,295,295,0,0,0,93.9-11.18c8.07-2.34,16.32-4,24.86-6.11C697.66,711.1,697.41,708.16,697.12,704.7ZM1002.9,947.63a16,16,0,0,1,1.42-3.15c4.63-6.32,9.27-12.64,14-18.86,3.19-4.16,6.64-8.12,9.86-12.25a19.62,19.62,0,0,0,1.72-3.83c-1.81-.13-3-.15-4.2-.32-5-.75-8.72,1-12,5.06-6.74,8.3-14.06,16.1-20.88,24.33-3.41,4.11-6.24,8.7-9.5,13.32,7.53,1.68,55.41-1.47,68.09-4.28,7-16.33,22-27.39,30.52-43.4-7-1.58-12.5-.85-16.53,4.91a40.16,40.16,0,0,1-2.84,3.15c-6.49,7.46-12.92,15-19.48,22.36a32.35,32.35,0,0,1-10.63,8.38,32.7,32.7,0,0,1,5-8.7c4-4.82,8.31-9.35,12.37-14.11,3.41-4,6.5-8.2,7.75-14.21-2.13.29-3.88.4-5.57.79-8.86,2-15.56,7.44-21.42,14-4,4.51-7.74,9.3-11.67,13.91C1014.5,940,1009.68,944.77,1002.9,947.63Zm-229,22.82c3.9,0,6.31-.13,8.71,0a6.17,6.17,0,0,0,5.66-2.74Q803,949,817.9,930.27c1.35-1.7,2.23-4.12,5.78-5-8.18,16.61-22,28.1-31.62,43.79,2.94,0,4.88-.13,6.79,0,3.85.31,6.33-1.25,8.39-4.57a122.14,122.14,0,0,1,8.37-11.1c7.77-9.8,15.61-19.55,23.36-29.37a37.47,37.47,0,0,0,2.58-4.51c-15.23.58-29.56.22-43.71,3-2.79.55-4.67,1.54-6.14,4.1-7.87,13.72-17.68,26-28.34,37.64-2.68,2.93-5.12,6.09-8.56,10.22,11.29-2,19.18-7.29,26.34-14l.88,1ZM545.79,915.1c1,.58,2,1.7,2.89,1.66,4.61-.18,9.41,0,13.72-1.31,2.4-.74,4.05-4.11,5.88-6.41,2.13-2.68,4-5.53,6.14-8.24,8.15-10.49,16.41-20.91,24.49-31.46,3.27-4.27,6.16-8.83,9.8-14.07-10.43,1.07-19.78,1.85-29.06,3.14-1.87.26-3.82,2.15-5.14,3.78q-20.6,25.27-41,50.76c-1.19,1.48-2.08,3.19-3.4,5.23C536.34,919.82,541,917.17,545.79,915.1Zm174.36,18.12a6.21,6.21,0,0,0-2.8,2c-9.26,9.84-18.59,19.62-27.68,29.62-4.7,5.18-9,10.77-14.34,17.27a39.77,39.77,0,0,0,4.06.18c12-1.24,24.05-2.56,36.09-3.73,2.93-.29,4.69-2.07,6.43-4.06,8.91-10.16,17.89-20.27,26.7-30.52,4.17-4.84,8-10,12.65-15.75a93.54,93.54,0,0,1-9.41.74,8.6,8.6,0,0,0-7.35,3.37q-4.86,5.79-9.89,11.44a51.25,51.25,0,0,1-9.46,8.52c-1.17-5.48-.44-9.69,2.92-13.5M526,919c12-20.68,31-36.85,42.72-58.55-1,.73-1.91,1.45-3.19,2.44-1.84-3.25-4.79-3.22-7.89-2.8-3.78.52-7.6.78-11.33,1.52a7.44,7.44,0,0,0-3.79,2.48c-10,11.64-20,23.22-29.62,35.12-5.38,6.65-10.07,13.87-15.78,21.8Zm343.25,78.37c0-.36-.06-.71-.1-1.06-3.28,0-6.57-.23-9.83.06-3.8.34-7.56,1.22-11.36,1.71-27.58,3.62-55.25,6.66-82.7,11.07a164.66,164.66,0,0,1-31,1.55,21.74,21.74,0,0,0-3,.15c-18.23,2-36.47,3.86-54.67,6.15-20.19,2.53-40.32,5.6-60.52,8.16-5.56.71-11.25.42-16.89.63a13.65,13.65,0,0,0-8.91,3.5c2.74,0,4.49.14,6.2,0,21.49-1.93,43-3.73,64.46-5.9,36.9-3.74,73.78-7.66,110.85-9.36,6.43-.3,12.85-.94,19.29-1.26,1.58-.08,3.22.8,4.76.62,1.26-.14,2.35-1.61,3.61-1.79,9.87-1.41,19.76-2.65,29.64-3.94-2.48,1.89-2.48,1.89-3.15,5.38l74.39-10c-.06-.52-.11-1-.17-1.55l-66,6.08a7.78,7.78,0,0,1,2.78-1c5.14-1.65,10.28-3.32,15.39-5.08,1.81-.62,3.48-1.79,5.32-2.19C861.48,998.47,865.38,998,869.24,997.37ZM998.09,825.8c-8.39.8-15.53,1.57-22.69,2.14a10.4,10.4,0,0,0-8,4.48c-12,16-24.16,31.82-36.22,47.73a41.47,41.47,0,0,0-2.42,4c3.84,1.71,6.78.22,9.8-.8a13.52,13.52,0,0,1,4.47-1c3.35.07,6.7.54,10.06.69,3.58.16,5.81-1.69,7.78-4.68,4.44-6.74,9.28-13.21,14-19.75,6.4-8.82,12.87-17.59,19.26-26.41C995.34,830.55,996.35,828.64,998.09,825.8Zm79.08,115.37c9.54-14.92,23.93-25,32.06-41.19-3.12.5-5.27,1.2-7.38,1.09-3.93-.2-6.23,1.75-8.5,4.63-2.85,3.64-6.2,6.88-9.34,10.29-7.37,8-14.79,16-22.09,24a79.8,79.8,0,0,0-5,7c2.54,0,3.87.09,5.2,0,7.23-.57,14.46-1.69,21.68-1.65,8.6,0,14.58-3.44,19.9-10.08,9.7-12.1,20.17-23.58,30.22-35.4,1.29-1.53,3.55-2.92,2.33-6a13.39,13.39,0,0,0-10.14,2.55,85.2,85.2,0,0,0-8.83,8.17c-4.53,4.58-8.65,9.59-13.41,13.9-6.7,6.06-14.31,11.14-18.85,19.36C1083.71,940.31,1081.38,942.07,1077.17,941.17Zm-440.49-89a30.77,30.77,0,0,0-4.63-.23c-6,.94-11.95,1.79-17.83,3.1-1.45.32-2.73,2.1-3.75,3.46-4.61,6.11-9,12.41-13.66,18.46-7.52,9.72-15.28,19.26-22.79,29-2.17,2.81-3.85,6-5.9,9.23,6.72,2.32,10.17-2.13,14.44-5.94v4.63c6,.46,11-.18,14-6.16,1.42-2.84,3.66-5.3,5.65-7.83,8.84-11.25,17.66-22.52,26.65-33.65,1.91-2.37,2.87-4.63,2-6.51ZM510,867.11c-7.85.58-14.67.94-21.45,1.68a7.24,7.24,0,0,0-4.3,2.58q-13.39,16.43-26.51,33c-4.1,5.18-8,10.51-11.83,15.56,2.2,4.83,5.35,6.55,10,5.75a21.52,21.52,0,0,1,6-.38c3.22.39,5.2-.91,7.09-3.41,7.7-10.11,15.7-20,23.34-30.15C498.28,883.92,503.84,875.78,510,867.11Zm414.07,18c6.56-9,12.61-17.49,18.94-25.8s13.05-16.24,18.22-25.2c-2.2-2.39-3.66-4.65-7.14-4.42-11.54.77-12.47,1.13-20,10.34-.38.47-.79.91-1.15,1.4q-15.09,20.37-30.13,40.77a25.32,25.32,0,0,0-2,4.28ZM693.33,849.28c-7,0-12.59-.13-18.19.05-3.38.11-5.83,1.85-7.93,4.73-5.24,7.16-10.92,14-16.37,21q-11.7,15-23.3,30.14a21.39,21.39,0,0,0-1.9,3.6c5.6,0,10.85-.37,16,.14,3.05.3,4.73-.42,6.55-2.79,8.35-10.88,16.87-21.63,25.4-32.37C679.86,865.91,686.21,858.12,693.33,849.28ZM1163.23,937c8.86.58,16.1.78,20.28-7.57,1.33-2.65,3.75-4.73,5.48-7.22,3-4.3,6.17-8.51,8.62-13.11,4.38-8.19,5.68-17,4.06-26.83-2.44,0-4.62.14-6.78,0-2.68-.22-4.45.84-6.2,2.87-6.35,7.3-13,14.34-19.35,21.65-4.62,5.32-8.92,10.91-13.32,16.41-.12.16.17.65.27,1l4.84-1c-3.63,6.25-10.59,8.36-13.59,14.37,6.47,2,11.1.4,15.07-4.78,6.5-8.48,13.5-16.58,20.28-24.84,2.14-2.61,4.6-4.85,5.15-8.62.36-2.5,2.15-4.7,6.13-3.36C1186.16,911.14,1173,922.05,1163.23,937Zm-414-38.66v5.06c6,.66,9.58-2.76,12.79-6.84,5.36-6.82,10.68-13.67,16.14-20.41q11.24-13.87,22.69-27.58c2.28-2.7,2.7-5.1.59-7.46-5,.73-9.75,1.68-14.53,2-2.64.17-3.92,1.57-5.34,3.31q-8.07,9.82-16.25,19.56c-8.36,10-17.49,19.31-24.27,30.53-1.31,2.16-2.63,4.31-4.27,7C741.91,903.62,745.33,901.69,749.21,898.3Zm273.54-74.39c-.24-.51-.47-1-.7-1.55-6.31.95-12.64,1.83-18.93,2.95-1,.18-1.85,1.4-2.53,2.32-8.26,11.17-16.52,22.34-24.67,33.58-4.14,5.7-8.17,11.49-12,17.38-.92,1.39-1,3.33-1.61,5.56-3.14,1-7.36,2.1-7.06,7.73,5.86.12,8.92-1.69,10.57-6.14.33-.89.25-2.18.87-2.69,3.25-2.71,6.66-5.22,10.46-8.15l-3.21,6c4.71.21,8.56,1,11.53-3,9.86-13.49,19.93-26.83,29.86-40.29,1.58-2.15,4.22-4,2.75-7.43-.14-.33.77-1.11,1.2-1.67C1020.4,826.94,1021.58,825.43,1022.75,823.91Zm53.38,50.61c2.41,0,4.6.29,6.66-.09a7.73,7.73,0,0,0,4.49-2.23q19.71-25.65,39.14-51.52a40.19,40.19,0,0,0,2.44-4.3c-1.13-.44-1.88-1-2.54-1-6,.73-12,1.51-17.89,2.46-.82.13-1.59,1.16-2.2,1.92q-19.89,24.74-39.72,49.53a62,62,0,0,0-3.61,5.69c5.43.6,8-.18,11.07-3.63,1.75-1.94,3.12-4.22,4.83-6.2,1.45-1.68,2.74-3.79,6.11-4.12C1082.7,866.37,1077,868.47,1076.13,874.52ZM608.77,910.74c5.91.9,10.37-1.5,14-5a122.35,122.35,0,0,0,10.92-12.86c5.81-7.46,11.4-15.1,17.14-22.63,3.05-4,6.29-7.87,9.3-11.91,1.4-1.88,2.46-4,4-6.57-6.93,0-13.09-.19-19.21.14-1.45.08-3.09,1.71-4.14,3-2.89,3.62-5.42,7.52-8.27,11.18-10.15,13-20.39,26-30.55,39.06-1.58,2-2.87,4.28-4.41,6.61,3.32,1.51,5.51.41,7.51-1.52,1.3-1.25,2.56-2.56,3.94-3.72.32-.27,1.06,0,1.68,0C610,907.92,609.47,909.15,608.77,910.74Zm440.37-35.56c5.86,1.56,9.78-.15,12.92-5.21,2.85-4.59,6.78-8.5,10.13-12.79q7.82-10,15.47-20.14a35.9,35.9,0,0,0,2.64-4.7c.9-1.67,1.5-3.58,2.7-5,2.38-2.81,5.09-5.36,7.66-8-6.11-.5-11.69.17-17.28.43a6.91,6.91,0,0,0-5.57,2.85c-6,7.32-12.41,14.34-18.24,21.81-6.81,8.72-13.22,17.77-19.73,26.73a52.78,52.78,0,0,0-3,5.29c5.23,1.5,8.4-.77,11.3-3.82.16-.16.65,0,1,0ZM514,866.82c-11.7,19.78-29.27,36-40.25,57a6,6,0,0,0,3.69-1.44c1.13-1.09,1.9-2.57,3-3.75.27-.29,1.08-.1,1.7-.14l-1.52,4.3a49.3,49.3,0,0,1,5.37,0c4.27.55,7.05-1.13,9.48-4.74,3.81-5.67,8.17-11,12.39-16.39,8.45-10.79,17-21.51,25.42-32.3,1.27-1.61,2.26-3.44,3.38-5.17-.3-.41-.59-.82-.89-1.22Zm396.52-30.69c-5.78.48-11,1.18-16.13,1.26-3.22,0-5.11,1.23-6.89,3.81-4.59,6.62-9.55,13-14.25,19.53q-9.35,13-18.51,26.14a34,34,0,0,0-2.21,4.63c6-.54,11.21-1.41,16.39-1.33,3.56.06,5.52-1.32,7.38-4,10.31-14.91,20.73-29.75,31.08-44.64C908.45,839.93,909.3,838.16,910.48,836.13ZM714.15,983.39a8.74,8.74,0,0,0-2.18-.6c-19.82,1.77-39.65,3.47-59.46,5.42-15.44,1.51-30.83,3.41-46.26,5-7.79.81-15.74.5-23,4.28-1.13.59-2.72.37-4.1.36-5.83,0-11.68-.38-17.5-.1a116.54,116.54,0,0,0-33.15,6.19c-3.28,1.15-6.22,2.62-8.16,6.62,2.6-.14,4.74-.12,6.83-.4,31.75-4.2,63.49-8.53,95.25-12.62,27.15-3.5,54.11-8.46,81.48-10.2A16.36,16.36,0,0,0,714.15,983.39ZM1181,812.72c-6.85.95-12.19,2-17.57,2.33a8.15,8.15,0,0,0-6.45,3.53c-5.83,7.19-12,14.13-17.76,21.35-7.68,9.57-15.16,19.3-22.65,29a24.86,24.86,0,0,0-2.11,4.29A13.33,13.33,0,0,0,1124.8,869a4.76,4.76,0,0,1,1.45-.65c-.32,1.74-.58,3.2-.88,4.84,5.85.9,9-2.46,12-6.13,4.26-5.35,8.34-10.86,12.68-16.14,7.54-9.17,15.27-18.19,22.83-27.35C1175.38,820.51,1177.65,817.21,1181,812.72Zm-105.7,7.46c-6,0-10.67-.13-15.28,0a10.66,10.66,0,0,0-9,5c-4.55,6.64-9.66,12.9-14.54,19.31-6.71,8.81-13.46,17.59-20.12,26.45a69.5,69.5,0,0,0-3.68,6.19c5.59,0,10.36-.24,15.08.09,2.6.19,4-.68,5.51-2.63,11.54-15,23.19-30,34.8-44.92C1070.24,826.89,1072.38,824,1075.32,820.18Zm73.67,53c6.81-.94,9.25-2.58,13.92-8.92,6.21-8.43,12.48-16.81,18.67-25.25,1.16-1.59,3.32-3.81,2.9-5-1.2-3.27,1.27-3.76,2.74-5.08,2-1.75,4.08-3.31,5.93-5.15,4.43-4.4,8.47-9.1,10.66-15.39-4.51-1.67-8.74-2.78-14.12-.47l6.8,2.66a11.28,11.28,0,0,1-2.4,1c-5.74.15-10.38,2-13.63,7.21-2.09,3.38-5.2,6.12-7.77,9.22-9.38,11.32-18.79,22.61-28,34.05-2.61,3.24-4.64,6.95-7.06,10.63,4.84.91,4.84.91,10.5-2.58C1148.38,871.08,1148.63,872,1149,873.19ZM812,967.87c8.23-.7,15-1.12,21.72-2a7.62,7.62,0,0,0,4.33-2.84c8.19-10.24,16.24-20.59,24.3-30.94a38.28,38.28,0,0,0,2.24-3.57c1.35-2.17,2.68-4.35,4-6.52.55-.88,1.11-1.75,1.63-2.56-6.83,0-13.27.1-19.7-.05-2.68-.07-3.84,1.53-5.22,3.36-9.24,12.24-18.59,24.39-27.84,36.63C815.76,961.72,814.33,964.27,812,967.87Zm236.82-145.56c-6.12,0-10.75.06-15.37,0-3.13-.06-5.09,1.32-6.87,3.94-4.54,6.66-9.38,13.11-14.19,19.58-7,9.37-14.06,18.67-21,28.05-1.28,1.72-2.26,3.66-3.55,5.78,6.17,2,7.43-4.49,11.93-5.78-.63,1.75-1.12,3.08-1.81,5a35.82,35.82,0,0,0,4.13-.38c6.57-1.47,10.72-6.17,14.49-11.21q13.23-17.64,26.24-35.45C1044.78,829.11,1046.4,826.16,1048.83,822.31Zm67.92,26.89,1,.81c-3.38,3.7-6.72,7.44-10.15,11.1-6.36,6.79-7.17,8-8,12.28,2.26,0,4.48-.07,6.69,0a5.14,5.14,0,0,0,4.63-2.17q20.63-26.15,41.37-52.18c.8-1,1.43-2.13,2.14-3.2l-.74-.77-4.42,2.66c-1.29-1.08-2.09-2.29-3-2.44-2.18-.32-4.44,0-6.65-.15a6,6,0,0,0-5.65,2.66c-13,16.72-26.12,33.35-39.15,50a44.42,44.42,0,0,0-2.87,4.8C1103.07,867.64,1107.56,856,1116.75,849.2Zm548.61,113.53a49.7,49.7,0,0,1-5.58.36c-4-.25-6.31,1.6-8,5.1s-4,7-6,10.48c-6,10.06-12,20.1-17.87,30.19a43.06,43.06,0,0,0-2.16,5.08,24.51,24.51,0,0,0,3.22,0c7.75-1.26,15.52-2.46,23.23-4a5.92,5.92,0,0,0,3.46-2.89C1662.64,993.34,1665.35,978.65,1665.36,962.73Zm-779.74-123c-4.36,0-7.74.34-11-.08-4.09-.53-6.91.81-9.3,4-7.3,9.88-14.72,19.67-22.08,29.51-2.77,3.69-5.49,7.42-8.24,11.13-2.23,3-4.47,6-7.4,10,4.66-.52,8.07-1.38,11.4-1.17,6.71.42,10.88-3.28,14.56-8,1.72-2.22,3.09-4.72,4.73-7q12.48-17.41,25-34.79C884.05,842.23,884.71,841.11,885.62,839.7Zm297.92,130.82h-25.33c-1.77.92-3.71,2.63-5.84,2.92-7.74,1-15.59,2.6-23.3,2.16-21.45-1.23-42.67.36-64,2.59-25,2.62-49.84,7.76-75.19,6.84-3-.11-5.86.58-9.44,3.34,3,0,4.76.08,6.46,0,8.66-.51,17.32-1,26-1.6,24.13-1.71,48.25-3.56,72.39-5.19,16.69-1.14,33.45-1.59,50.1-3.14,11.11-1,22.06-2.27,32.79,1.54,2.88-4.08,6.91-4.75,11.17-4.88,2.42,4.2,5.79,1.18,8.17.46,5-1.49,9.41-4.35,11.8-10.22C1192.88,965.64,1187.32,966.67,1183.54,970.52ZM935.07,832.68c-4.09.44-6.79.61-9.44,1.06s-5.46,1.52-8.23,1.72c-2.38.17-3.47,1.33-4.67,3.11-5.63,8.33-11.43,16.55-17.13,24.84-4.56,6.63-9.11,13.27-13.57,20a44.81,44.81,0,0,0-2.56,5l1.3.9,5.74-6.08c-.22,2-.36,3.23-.53,4.7,2.43,0,4.44-.12,6.44,0,2.29.16,3.62-.89,4.92-2.69,9.68-13.37,19.49-26.64,29.2-40C929.21,841.6,931.65,837.75,935.07,832.68Zm-319.2,117c-5.64,0-10.2-.07-14.74.05a4.27,4.27,0,0,0-2.6,1.26c-10.3,10.45-21.45,20.14-30,32.17-2.41,3.37-4.29,7.13-6.8,11.37,7.47-.47,13.87-.73,20.24-1.39,1.29-.13,2.69-1.53,3.59-2.69q11.34-14.52,22.46-29.18C610.59,957.78,612.88,954.07,615.87,949.66ZM431.1,907.93c2.48,2.07,4.3,4.08,6.54,5.34s4.93,2.2,5.94,6.71c11.65-17.12,22.73-32.82,36.2-46.61a7.43,7.43,0,0,0,1-2c-.74-.48-1.23-1.09-1.69-1.07-4.57.23-9.15.41-13.68.93-1.85.21-4.09.75-5.33,2C449.6,883.49,440.64,895.07,431.1,907.93ZM486,1083.75c-2.84,8.57-4.91,16.14-7.83,23.37-4.29,10.64-9.21,21-13.8,31.55-1,2.3-1.75,4.71-2.9,7.83l24-3.74c1-5.85,2-11.86,3.05-17.86l-1.26-.39q-2.08,4.48-4.16,9a42.37,42.37,0,0,1,2.9-11c3.35-7.54,4.34-15.48,4.63-23.56.19-5.55.31-11.07,4.63-16.73ZM751.94,974c3.41-4.12,7.36-8.67,11.07-13.41q12.45-15.93,24.7-32A31.9,31.9,0,0,0,790,924c-5.32,1.14-10.19-.07-13.79,3.9-3.79,4.18-7.78,8.16-11.54,12.36-9.28,10.37-18.9,20.39-30.11,28.74-2.26,1.68-4.4,3.52-4.45,7.08a13.88,13.88,0,0,0,3.54.39c4.55-.72,9.07-1.67,13.63-2.4A31.55,31.55,0,0,1,751.94,974Zm760.28,59.27c5.5-1,10-1.66,14.44-2.86,1.48-.4,2.85-2.08,3.78-3.49q7.63-11.61,15-23.38,6.25-10,12.26-20.1a26.41,26.41,0,0,0,1.64-4.45c-4.46.41-8.25.87-12,1.07-2.76.14-4.17,1.61-5.53,3.9-4.42,7.43-9.12,14.69-13.71,22-4.27,6.82-8.58,13.62-12.76,20.5A67.37,67.37,0,0,0,1512.22,1033.27Zm-384.17-93.59c7.26,1.42,10,.17,14.07-5,5.17-6.68,10.44-13.3,16-19.69,8.17-9.45,16.62-18.65,24.9-28a38,38,0,0,0,3-4.71c-3.94,0-6.91.17-9.85-.05a9.87,9.87,0,0,0-8.52,3.44c-12,12.79-23.45,26.08-33.33,40.63-.84,1.23-1.53,2.56-2.28,3.84,10.07-7.49,18.5-16.6,28.43-24C1150.75,918.26,1138.3,927.65,1128.05,939.68Zm-614.4,62.64c2.09-.81,3-1.43,3.85-1.44,4.08,0,6.55-2.33,8.88-5.38,3.43-4.49,7.36-8.58,10.85-13q8.79-11.18,17.25-22.6c1.27-1.7,2-3.77,3.77-7.06-6,1.42-10.58,2.46-15.12,3.61-.48.12-.81.87-1.2,1.33q-14,16.65-28,33.29c-3.63,4.33-6.12,9-4.51,15l5.8,4.24C520.41,1005.43,520.38,1004.74,513.65,1002.32Zm442.29-46.65c6.45-.31,11.86-.41,17.22-.93a6.28,6.28,0,0,0,3.74-2.5c7.77-10.3,15.42-20.68,23.05-31.07,1.26-1.72,2.23-3.65,3.66-6-8-.85-15-1.57-20,5.72-2,2.94-5.15,5.11-7.54,7.83-4.92,5.59-9.84,11.19-14.43,17C959.52,948.53,958.1,951.89,955.94,955.67Zm-370.22-2.92c-6.17-2.45-11.27-1.52-14.87,2.35-2.33,2.51-4.56,5.1-6.86,7.64-9.47,10.42-19,20.82-28.4,31.28a40.64,40.64,0,0,0-3,4.54c6.53-.85,11.87-1.76,17.25-2.16a6,6,0,0,0,4.88-2.79c5.56-7.4,11.31-14.65,16.91-22C576.37,965.41,581,959.14,585.72,952.75Zm539.51-431.21c6.82,32.65,9.5,65.82,12,99,2.92-29.32,3.57-58.61-1-88.37,3.34.11,4.66-5.54,8.38-1.49v-9.17Zm75.92,298.08a10.91,10.91,0,0,0-2.34,1.59c-11,14.15-22,28.3-32.86,42.56a17.06,17.06,0,0,0-3.71,9.2c6.37.36,9.38-1,14.9-6.89,8.35-9,16.59-18.13,24.83-27.24.77-.85,1.73-2,1.74-3,0-4.21-.16-8.43-.56-12.62C1203,822.06,1201.94,821,1201.15,819.62ZM913.88,984.3l-.48-2c-29,.13-57.93-.43-86.77,1.74-.69,1.4-1.06,3.47-2,3.72-4.2,1.21-8.53,2.5-12.85,2.68-7,.29-14.09-.65-21.1-.35-5.43.24-11,.72-17.26,4.48l24.43.93c3.36-2.77,8.45-3.45,13.83-3.4,6.83.06,13.79.67,20.47-.39a361.34,361.34,0,0,1,55.44-4.52c7.44,0,14.89-.91,22.32-1.55A16,16,0,0,0,913.88,984.3Zm353.63-82c0-3,0-5.42,0-7.82.11-15.1.11-30.2.38-45.3.11-6.3-2.38-9.49-9.54-10.68-.15,1.55-.43,3.09-.44,4.63,0,16.11-.09,32.22,0,48.33C1258,898.92,1258.84,899.82,1267.51,902.34Zm-838.25,2.1,1.14.54c8-9.61,15.88-19.33,21.45-31.22-6.5.48-12.55.45-18.4,1.52A26.29,26.29,0,0,0,422.3,880c-3.2,2.5-5.24,6.47-8.13,10.24,5.6,3.71,7.83,11.17,15.61,11.62C429.61,902.72,429.43,903.58,429.26,904.44Zm223.45,96.82.18,1.59c9-.92,18-1.77,27-2.76,16.6-1.83,33.21-3.63,49.79-5.66,11.59-1.42,23.14-3.16,34.69-4.86a18.08,18.08,0,0,0,4-1.62c-23.52,1.07-46.66,4.37-69.91,6.4-.05-.45-.11-.89-.16-1.34l43.93-5.86c-.06-.46-.13-.92-.19-1.39-31.58,3.11-63.28,5.18-94.42,12.08,5.16-.09,10.29-.53,15.41-1.09s10-1.16,15-1.83c10.45-1.41,11.37-1.43,15.29.15Zm324.73-83.82c-6.68-2.19-10.29-1.42-13.59,2.26q-11.48,12.81-22.92,25.63c-2.1,2.37-4.09,4.83-6.21,7.34,2.5,1.85,5.84-.7,7.61,3l-8.38,2c0,.19.09.38.13.57l14-1.53ZM73.73,754.23h.88c.43-8.59,1.09-17.16,1.24-25.75.12-7.24-.55-14.49-.51-21.73.15-25.19.26-50.39.81-75.57.16-7.68-2-14.39-5.62-21.49.81,13,1.65,25.48,2.36,37.93a172.13,172.13,0,0,1-1.34,37l-.73-12.88c-.64,9.27-.69,18.54-.62,27.81,0,4,.18,8.05.53,12.06.57,6.61,1.53,13.19,2,19.8C73.25,739,73.41,746.61,73.73,754.23Zm1151.05,61.3c-.26,2.11-.7,4.25-.78,6.41-.56,13.89-.85,27.8-1.64,41.68-.34,5.91,2.29,9.4,7.21,12.18a8.29,8.29,0,0,0,1-2.41c.61-17.51,1.25-35,1.65-52.54C1232.27,817.26,1229.9,815.81,1224.78,815.53Zm-48.17,58.73c9.31,2.55,17.06,1.32,22.88-5.5,6.17-7.22,6.32-15.59,2.72-25.47C1192.74,853.45,1182.41,861.52,1176.61,874.26Zm199,97c0,.55.11,1.1.17,1.65,4.19-.26,8.42-.28,12.57-.85,5.78-.79,11.48-2.2,17.27-3q40.14-5.52,80.3-10.86c10-1.35,20-2.65,29.94-4.11a45.73,45.73,0,0,0,6.36-1.88l-.35-1.35c-46.12,7.55-93,9.4-138.89,18.52C1380.45,969.85,1378,970.61,1375.56,971.24Zm-80.38-107.76a56.4,56.4,0,0,0-1,5.76c-.8,11.07-1.71,22.13-2.18,33.21a71.89,71.89,0,0,0,1,13.8c.4,2.61,1.41,5.37,4.91,6.47.17-2,.27-3.55.45-5.13,1.54-13.42,3-26.85,4.68-40.25C1304,870,1303.14,868,1295.18,863.48ZM1246.81,886l3.85-54.42c-3.9-1.45-5.21-6.11-10-6.08-.15,1.15-.34,2.11-.37,3.08-.21,7.85-.31,15.71-.61,23.55-.25,6.85-.83,13.69-1,20.54-.1,3,.24,6.14,2.27,8.81,2.36-15-1.3-30.33,3.68-45a69.87,69.87,0,0,1,.42,12.42c-.53,8.24-1.47,16.46-2,24.71A17.19,17.19,0,0,0,1246.81,886ZM500.9,968.51c1,.83,1.44,1.36,2,1.54,5.91,2,6.88,3.69,5.26,9.42-.72,2.56-1,5,.95,7.84,1.6-2.45,2.89-4.6,4.35-6.63,4.18-5.87,8.49-11.66,12.62-17.57a61.19,61.19,0,0,0,3.38-6.52c-6.81.73-12.36,1.27-17.89,2a4.75,4.75,0,0,0-2.55,1.39C506.33,962.63,503.78,965.44,500.9,968.51ZM73.73,1018.63c-1,.31-1.5.31-1.67.56q-10.44,15.51-20.8,31.08c-1.58,2.39-1.75,5-1,8.16,6-3.83,11.52-7.09,16.69-10.86,2-1.44,4-3.92,4.36-6.18C72.53,1033.94,73,1026.38,73.73,1018.63ZM1350.86,902.15c-1.15,14.36-2.31,28.35-3.37,42.34a103.17,103.17,0,0,0-.27,10.84c.09,2.91,1.24,5.28,4.94,6,3.58-19,2.5-37.93,4.26-56.74Zm-1062.42-272-1.53.27q0,9.35,0,18.69,0,32-.05,64.08a34.7,34.7,0,0,0,.38,7.22c.47,2.16,1.71,4.16,2.6,6.24a6,6,0,0,0,2.07-4.09c.2-8,.71-16.12.32-24.14-1.06-21.52-4.2-42.95-2.88-64.58C289.42,632.6,288.76,631.35,288.44,630.12Zm870.9,258.64-1.08-.65a4.8,4.8,0,0,0-1.45.79c-14.46,17.42-29.72,34-47.77,47.86-1.65,1.27-3.38,2.9-2.38,5.8,5.88.16,10.81-.69,14.87-5.84,12-15.2,24.41-30.05,36.61-45.08A10.92,10.92,0,0,0,1159.34,888.76ZM222.9,1093.1c32.93,1.75,65.39-2.69,97.69-8.74C313.9,1082.83,230,1090.79,222.9,1093.1ZM712.51,616c-.31,8.23-.72,16.47-.91,24.71-.33,14.63.07,29.28-2,43.84-.44,3.1.17,6.41.7,9.55.21,1.26,1.49,2.34,2.68,4.07C715.66,687.38,715.59,624.61,712.51,616Zm640.62,422.32c-.25-5-.68-9.41-.64-13.79,0-4.62.87-9.24.77-13.85-.1-4.86-1.61-9.32-7-12.87-.94,10-1.88,19.07-2.62,28.13C1343,1033,1345.06,1035.63,1353.13,1038.3ZM803.86,902.65c9.16,5.5,16.18,1.33,23-3,.7,1.15,1.21,2.69,1.69,2.68,9-.14,17.92-.47,26.88-.76l2-.79c-6.24-2.16-.54-4.22-2.08-6.62-2.71.22-5.52.35-8.3.7-9.34,1.16-19,.31-27.91,4.36-.61.28-1.51-.11-2.27-.1-2.77,0-5.61-.28-8.28.26C807,899.72,805.62,901.37,803.86,902.65Zm530.33,46.51c3.3-17.92,1.44-36.15,7.69-53.81l-7.25-3.2c-2.21,13.5-2.63,26.14-2.79,38.82-.06,4.18-.66,8.37-1.13,12.55C1330.46,945.83,1330.21,948,1334.19,949.16ZM1621.84,1015l28.23-49.32c-3.3.89-3.27.91-4.17,2.21-5.76,8.25-11.57,16.46-17.28,24.75-4.21,6.13-8.32,12.33-12.4,18.56A38.09,38.09,0,0,0,1614,1016ZM424.08,1152c1.27,4.31-.73,6-4.36,6.43-1.19.15-2.35.55-3.54.74-15.67,2.52-31.34,5-47,7.54-1.67.27-3.29.84-4.93,1.27l.24,1.22c8.15-1,16.38-1.68,24.44-3.18,18.93-3.51,37.78-7.42,57.47-11.34-.09-1.53-.23-3.65-.37-5.84Zm890.59-176.67-7.06-4.37c-1.81,8.8-3.26,16.92-2.7,25.25.4,5.94,2,8,7.73,9.77C1313.32,995.63,1314,985.45,1314.67,975.32ZM275.26,755.8,202,767.11a32.47,32.47,0,0,0,9.67.72c9.84-.73,19.68-1.41,29.48-2.5,8.6-1,17.16-2.34,25.7-3.74C270.09,761.05,273.74,760.68,275.26,755.8Zm-236,111.67a21.3,21.3,0,0,0-2.55,10.88q0,29-.32,58a25,25,0,0,1-1.54,8.25c-1.07,2.82-2.59,5.26-1.37,8.55,1,2.82,1.11,6,3,8.64C39.39,930.33,38.78,898.91,39.26,867.47ZM140.82,1127.9a12.5,12.5,0,0,0,1.93.15c7.76-1.29,15.68-2,23.21-4.07a139.05,139.05,0,0,1,22.81-3.87,4.55,4.55,0,0,0,2.29-.71,40.39,40.39,0,0,0,3.62-4l-53.86,7.41ZM1314.35,934.53c-.93-16,3.63-32-.58-47.88a61.88,61.88,0,0,0-2.25,11.13c-1,7.78-2.2,15.55-2.71,23.36C1308.48,926.12,1309.23,931.18,1314.35,934.53ZM452.46,744.45c13.51-.06,27.08.26,40.78-2.22-.22-2.59-.39-4.5-.6-6.88A114.91,114.91,0,0,0,452.46,744.45Zm879.08,241.36-1.69.65c-.79,8.77-1.88,17.51-2.24,26.29-.16,4.11,1.16,8.24,6.19,9.85a9.71,9.71,0,0,0,.81-2.57c-.13-10.26-.26-20.52-.63-30.77C1333.93,988.08,1332.39,987,1331.54,985.81Zm-836.77,82.75c.36-7-.78-8.39-6.58-7.33-7.92,1.44-15.75,3.39-23.62,5.16-3.43.77-6.84,1.61-10.27,2.42l.17,1.35C467.81,1070.27,481.15,1070.31,494.77,1068.56Zm770-102c.33-7.15.79-14.29.91-21.44.06-3.41-3.39-5.87-8.19-6.2-.41,7-1,13.91-1.16,20.88C1256.18,963.5,1259.63,966.16,1264.73,966.56ZM909.89,714.62c-14-.63-26.85,2.24-39.48,6.62,13.05,2,38,1.08,39.48-1.29ZM1201,960.79c-1.09-4.11-3.3-4.92-5.81-4.83a31.29,31.29,0,0,0-7.15,1,29.57,29.57,0,0,1-10.07.6,209,209,0,0,0-22.94.07c-2.75.12-5.46,1.35-8.19,2.07a121.39,121.39,0,0,0,19.75,3,1.88,1.88,0,0,0,1.11-.38c6.45-4.37,13.56-2.86,20.56-2.35C1192.28,960.29,1196.28,960.5,1201,960.79ZM489.84,930.85a17.39,17.39,0,0,0,2.92.49c7.21-.27,14.43-.5,21.63-.93,3.26-.19,5.7-3.42,6.49-8.75-4.35,1-8.41,1.73-12.39,2.79-1.73.46-3.07,1-5.07.25C497.86,922.62,493.39,924.71,489.84,930.85ZM1490.37,708c-1,6.4-2,11.89-2.59,17.42-.53,4.93,1,6.66,7.48,8.86.72-8,1.42-15.86,2.13-23.86ZM520.66,739.37c12.49-.36,25.08.43,37-4.23C544.8,732.39,532.15,731.19,520.66,739.37Zm630.27,151.55c-10,3.24-25.08,19.11-30.08,31.42C1133,913.05,1143,903,1150.93,890.92Zm457.5,133.43c15.23-4.62,30.61-2.57,45.41-7.83-4.13-3.12-5-3.68-9.43-2.76-5.9,1.21-11.66,3.06-17.49,4.63-2.87.77-5.46,1.42-8.62-.12C1614.11,1016.22,1610.06,1018.64,1608.43,1024.35Zm-426.1-88.55c5.8.8,10.55-.11,15.44-1.5.39-6.2,2.28-12-.09-19.1C1192.79,922.67,1186.38,927.9,1182.33,935.8ZM743.44,955.07c9-4.25,27-22.19,28.9-28.21A10.23,10.23,0,0,0,762.27,931Zm15.81,26.12c-.11-1.71-.19-3-.3-4.78a31.15,31.15,0,0,0-4.94.33,75.18,75.18,0,0,1-20.16,2.32,26.31,26.31,0,0,0-7.73,1c-2.14.58-4.39,1.59-4.71,4.82Zm481.59-31.87c.37-4.71.89-8.87,1-13.05a30.71,30.71,0,0,0-.9-8.28c-.73-2.75-2.47-4.91-5.87-4.59-.4,5-.68,9.8-1.17,14.56C1233.15,945.07,1233.28,945.41,1240.84,949.32ZM1320.3,883c-2.71,12.17-3.44,43.37-1.15,51.11,1-9.74,2-19.31,2.83-28.91.53-6.2.78-12.43,1.09-18.65C1323.17,884.68,1323,882.8,1320.3,883Zm-26.87,78.69c-2.43,5.76-4.57,17.54-3.88,22.17.52,3.52,1.26,7.08,5.53,8.39C1297.53,975.49,1297.17,967.71,1293.43,961.71Zm51.14-400.85c-5,12.89-4.24,28.55,2,35.51A88.91,88.91,0,0,0,1344.57,560.86Zm-407,158c15,2.2,31.06.83,36.59-2.71C961.48,713.71,949.19,711.85,937.55,718.86ZM110,1011.42c.58-11.5,1.33-21.74,1.5-32,.07-4.46-1.8-8.66-4.69-13C105.6,981.77,107,1005.86,110,1011.42ZM920.89,887.65c-3.72.67-7,1-10.18,1.92-2.15.62-3.77,1.1-6.16,0-4-1.76-8.07.69-10.72,6.07,2.41.13,4.53.36,6.64.32,3.83-.07,7.65-.36,11.48-.45C917.68,895.42,918.53,894.78,920.89,887.65Zm-765,217.21,26.28-1.56,0-.85H140.73v7.07l19.08-2.28Zm1471-167.49c17.89,1.53,37-1.41,42.86-6.33C1661.4,930.32,1638.43,933.6,1626.86,937.37ZM101,948.18l-1.47.1c1.34,14.25-1.33,28.64,1.73,42.91a4,4,0,0,0,1.23-2.54c.26-10.84.59-21.69.54-32.53C103,953.47,101.72,950.82,101,948.18ZM537.83,927.3c10.4,2.46,17.9-.24,20.39-7.32C546.53,917.43,539.18,920.07,537.83,927.3Zm1112.36,28c-7.87,1.89-16.51-.36-22.7,7.19C1637.5,967.29,1647.47,964.23,1650.19,955.31ZM674.72,915l26.5-2.92c.38-1.69.62-2.79.8-3.61-6.11,0-11.89-.07-17.67,0a28.73,28.73,0,0,0-6,.9C676,910,674.41,911.29,674.72,915ZM17.25,725.71l-2,.39,3.33,63.32a12.08,12.08,0,0,0,.8-5.29c-.19-17.72-.35-35.44-.65-53.15C18.66,729.21,17.75,727.46,17.25,725.71ZM1279.38,906.49l1,.13a29.84,29.84,0,0,0,1-4.5q1.59-22.51,3-45c.06-.93-1.06-1.94-1.64-2.91l-1.45.39ZM59.18,645.84c-5.64,5.74-7.62,17.91-5.1,28.33C61,665.81,58.51,655.92,59.18,645.84ZM935.47,893.32c10.95,1.67,16.52-.79,17.35-7.43C940.13,884.83,936.48,886.31,935.47,893.32Zm656.06,74.36c.08.48.15,1,.22,1.42,5.5-.51,11-.77,16.5-1.62,3.46-.55,6.78-2,7.17-6.8C1606.55,961.11,1598.45,962.42,1591.53,967.68Zm63.94-19.36.27,1.42,9,3.67-7.37,7.71,10-.64c.79-5,1.49-9.4,2.32-14.68ZM1408,665.29a27,27,0,0,0-2.65,15.14c.39,3.28,1.93,5.62,5.72,5.51,1.68-6.78,1.86-13.57.19-17.26C1410.73,667.61,1409.52,666.87,1408,665.29ZM466.51,932c5.65,0,10.86.4,16-.13,4.18-.43,4.82-1.81,5.06-7.15-3.25.68-6.29,1.38-9.36,1.94s-6.19,1-10,1.55a13.64,13.64,0,0,0-1.21,1.72A8,8,0,0,0,466.51,932ZM51.39,716.09C58.57,705.7,60.56,698,57.92,692c-2.56,4.57-5.22,9-7.51,13.6a12.17,12.17,0,0,0-1.11,5.78C49.37,712.8,50.51,714.21,51.39,716.09Zm1420.77,5.8c3.18.09,4.26-1.77,4.91-3.95,1.69-5.61.39-11.13-.81-16.6-.13-.59-1.44-.91-2.25-1.39C1472.08,704.79,1471.2,715.29,1472.16,721.89Zm-38.87-42.17c-3.82,12.28-3,18.52,3.28,20.88.2-3.15.48-6.07.57-9,.09-3.18,0-6.37,0-9.87ZM1265.61,937.65c1.37-10.31-.83-14.66-7.53-15.26a8.27,8.27,0,0,0-.32,1.75c.08,2,.21,4,.37,6C1258.6,935.87,1258.79,936.05,1265.61,937.65ZM21.8,906.34l1.6.15q-.78-33.15-1.55-66.28l-1,0ZM329,1097.88l0,1,13.1-1.31,38.3-3.74c1.9-.19,3.74-.46,4.83-3.18ZM1417.09,671.55c-2.88,11.79-2.14,16.92,2.92,19.75.52-4.87,1-9.62,1.51-14.37C1421.81,673.92,1420.75,671.87,1417.09,671.55ZM115.17,1078.94c-.59,8.26-3.42,16.67,2,24.37C117.24,1095.11,120.91,1086.69,115.17,1078.94Zm272.68,77.34c7.75-1.44,14.43-2.61,21.08-3.93,2.63-.52,3.33-2.36,2.86-5.54-7.55,2-14.68,3.91-21.76,6C389.37,1153,389,1154.32,387.85,1156.28Zm149.82-235.4c-9.46-.44-12.7,1.31-15.11,7.92C530.12,931.2,533.52,929.5,537.67,920.88Zm245.15,52.64c-9.65-.86-16,1.79-17.1,7.15C776.05,981.45,781.5,979.17,782.82,973.52Zm440.31-77.06c-3.49,8.29-1.82,13.54,4.8,15C1230.12,902.47,1229,899.05,1223.13,896.46Zm234.64-182.73c2.19-7.79,2.65-15.56,1.37-20.28-.54.2-1.45.3-1.52.6-1.24,5.41-2.54,10.83-3.36,16.31C1454.13,711.21,1456.33,712.4,1457.77,713.73Zm24.36-9.3c-.68,6.22-1.42,11.74-1.82,17.3-.17,2.25.06,4.78,3.28,5.29C1487,709.47,1486.92,706.8,1482.13,704.43ZM1155,953.08c14.08,1.2,18.42.62,22.25-2.82C1163.52,947.46,1160.17,947.81,1155,953.08Zm-752.12-74.7,9.52,8.83,7.12-8.3C414,875.83,409.23,878,402.85,878.38Zm-280.17,251c-.18,3.14-.31,5-.39,6.92-.31,7.78.42,15.61-1.92,23.29-.61,2,.66,4.6,1.06,6.93l1.43-.19a318.74,318.74,0,0,0,1.66-34C124.52,1131.74,123.78,1131.12,122.68,1129.4Zm1185.2-172.64c-.46,3.36-.87,6.32-1.33,9.7l7.26,5.12C1315.67,962.32,1314.61,959.67,1307.88,956.76ZM499.52,990.51c-3.41.14-4.15,1.67-4,4.07.58,9.25,1.12,18.51,1.67,27.77H498C498.48,1011.77,499,1001.19,499.52,990.51Zm818.29-10.18c-2.47,6.36-3.41,22.24-1.61,27.09C1319.36,1000.15,1320,990.09,1317.81,980.33ZM587.26,916.78c-7.68-1.67-12.28,1-13.33,7.75C581.87,925,585,923.17,587.26,916.78Zm793.9-263.48c-2.62,4.86-2.78,6.22-1.74,13.89l4.57,1.65C1386.19,659.5,1385.67,656.56,1381.16,653.3Zm71.94,334.5c-8.87-1.42-11.19-.71-13.53,3.92,1.78,2.86,4,4.77,7.86,3.52.85-1.15,1.77-2.43,2.72-3.69S1452,989.19,1453.1,987.8Zm-297.62-46.57c-10.82-.85-15.82,1.17-17,6.9C1144.35,946.59,1151.12,948.75,1155.48,941.23ZM30.29,706.75c1.51,1.87,4.08,4.4,5.85,7.4,2.79,4.72,7.35,7,11.83,9.5C45.31,713.8,36.38,711,30.29,706.75Zm75.46,351.13c-.76,7.31-3,14.75,1.67,21.66C107.44,1072.28,111.22,1064.83,105.75,1057.88ZM1308,1027.06c-3.5-6.3-15.07-14.81-22.59-16.5C1292.43,1018.24,1300.62,1022.09,1308,1027.06ZM599.57,921.45c9.67,1.45,13.68-.73,14.23-7.71C608.27,914.53,602.56,914.52,599.57,921.45Zm637-14c-.23,2.18-.42,4-.61,5.73,0,.4-.11.8-.14,1.19-.34,4.94-.08,5.27,5.55,7.23C1243.12,911.44,1242,907.9,1236.57,907.43ZM108.15,1015.67c-2.48,12.66-2,20,1.28,24.11C110.85,1027.12,110.57,1020.39,108.15,1015.67Zm1440.09-39.45c5.59-.77,9.73-1.19,13.8-1.94,2.75-.5,4.27-2,2.73-4.95l-13.93,1.35C1550.33,971.75,1549.61,973.3,1548.24,976.22ZM194.9,1118.14c9.31,0,27.37-3.52,31.44-6.71-10.91,1.68-20.6,3.16-30.28,4.72C195.71,1116.21,195.5,1117.07,194.9,1118.14ZM105,1113.89c1.61-6.21-4.59-20.93-10.2-25.9C98.27,1096.92,101.61,1105.4,105,1113.89ZM1455.26,990.2c10.52,0,13-.81,15.52-5.18C1463.05,982.93,1458.52,984.31,1455.26,990.2ZM560.5,925.85c7.75.19,12.14-3.31,11.52-8.81C563.79,917.94,561.71,919.46,560.5,925.85Zm1025.18,41.49c-5.42,1.22-12.61-2.87-16.88,5.49C1575.49,972.08,1581.5,972.87,1585.68,967.34ZM922.09,894.59c7.82,1.17,10.06-.21,12.71-7.48C926.93,886.37,924,888,922.09,894.59Zm-209.77,40.7c-8.57,4.89-14.93,12.38-16.74,19.5C701.16,948.36,707.91,943.76,712.32,935.29ZM118.83,1060.22c-.71-9.41,1.33-18.17-1.85-26.6C114.52,1047.71,115,1055.68,118.83,1060.22ZM1447.26,707c2.4-11.49,2.38-14.74-.1-18.73C1443,698.42,1443,704.18,1447.26,707ZM978.67,883.79c-7.43-1.2-11,1.07-11.46,7.23C974.24,891.26,976.76,889.67,978.67,883.79Zm-580.85,194c-8.49,1.18-17,2.32-25.44,3.62-.59.09-1,1.27-2.39,3.12C380.33,1083,389.22,1081.32,397.82,1077.75Zm-35.39,28c5.23,1.51,10.32.65,15.36,0,.92-.11,1.61-2.09,3.22-4.37C373.7,1102.76,367.69,1102.18,362.43,1105.71Zm143.18-371.8c-1.58,3.08-2.19,5.94.59,7.29,1.58.76,4.2-.22,6.2-.87s3.36-2,2.67-5ZM932.3,715.48c-2.27-.58-4-1.1-5.7-1.43-1.33-.25-2.72-.28-4.74-.47v6.85C928.75,721.07,929.69,720.65,932.3,715.48Zm398.16,257.59c-1.74,8.21-1.54,8.8,3.82,11.39C1337.44,978.26,1336.52,975.51,1330.46,973.07Zm-766.08-18c-6.16,5.19-12.24,10.45-15,18.34C554.79,967.63,562.16,963.4,564.38,955.08ZM115.7,1126.54c2.07-11.72,1.63-16.15-2.07-21.62C111.19,1112.39,114,1119.14,115.7,1126.54ZM1487.29,982c-2.3,0-4.6,0-6.9,0-4.58-.11-4.78.06-5.62,5.23C1481.18,988.86,1486.15,986.79,1487.29,982ZM891.73,891.78c-4.85.38-9.34.77-13.84,1.08-2,.14-4.14.06-4,3.38,3.14.15,6.28.31,9.42.42a21.3,21.3,0,0,0,3-.09C889.24,896.28,891.46,895.15,891.73,891.78Zm110.77-9.54c-7.18-.87-10.14.61-12.26,6.14C997.78,890,1000.66,888.55,1002.5,882.24Zm138.72-171.9,1.74.26c3.85-6.63,1.59-14.12,3.1-21.45a11,11,0,0,0-2.47.39C1142.75,696.47,1142,703.4,1141.22,710.34ZM1589.4,1025c.08.46.17.93.25,1.39,4.11-.57,8.24-1.08,12.34-1.75,2.64-.43,2.35-2.45,2.64-4.49C1598.48,1019.91,1593.53,1021.3,1589.4,1025Zm-475.76-79.38c-5.43,0-11.55-2.2-16.08,4.53C1103.78,949.48,1109.68,951.5,1113.64,945.65Zm18.85-2.31c-4.88.52-10-1.33-13.26,4.64h13.26ZM212.05,542.74c0,.43,0,.85,0,1.27L252,542.13l0-.76Zm1208.46,447.6c-.32-.34-.65-.68-1-1-3.51,3.34-9.31,1-12.43,5.49,1,1.52,1.92,2.78,3,4.33,1.12-4.64,4.85-2.63,7.84-3.17Q1419.23,993.14,1420.51,990.34ZM1353,996.9c-1.85-11.32-1.85-11.32-6.08-11.74C1345.61,993.2,1346.86,995.8,1353,996.9Zm-696.5-81.6c10.44.44,11.76,0,14.41-4.9C665.78,911,660.22,908.57,656.45,915.3Zm639.35,42.76c.49-4.52,1.64-9-2.16-13C1290,951.48,1290.79,956.23,1295.8,958.06ZM804.68,985.55c.05-.7.1-1.4.14-2.1-5.37,0-10.74.06-16.11,0-2.29,0-4.23.13-4.91,3.36ZM640.86,956.21c5.81-3.43,10.85-9.16,12.25-13.93C647.45,945.18,643.69,949.45,640.86,956.21Zm441.29-78.91h-10.88l-3.19,5.65c5.24-1.05,9.1-1.73,12.89-2.69C1081.51,880.12,1081.68,878.55,1082.15,877.3ZM589.36,922.56c5.7,1.08,7.81-.49,9-6.65C592.56,915.45,590.86,916.71,589.36,922.56Zm66.26-11.45c-3.82-.9-6.71-.17-9.25,2v4.81C650.61,917.25,654.74,917.07,655.62,911.11ZM409,1088.47c-8-.64-17.19.93-20.21,3.45C395.48,1092.78,405.84,1091,409,1088.47Zm535.8-151.84c12.44-11.92,13.23-13,13.19-17.59C950.69,925.78,947.68,929.64,944.83,936.63Zm179.64-209.06c-2-3.35-4.09-3.71-6.37-3.37-2,.3-3.93.76-5.87,1.25s-4.06-.15-6.26,2.12Zm73.3,211.53-12.87,6.49h12.46C1197.49,943.5,1197.61,941.7,1197.77,939.1Zm-121.38-20c5.21-4.27,10.51-8.46,13.22-14.92C1083.69,907.87,1078.93,912.54,1076.39,919.15Zm290.39-260c2-10.28,1.8-12-1.73-14.37C1363.62,652.63,1363.87,655.29,1366.78,659.18Zm-90.94,293.43c-3.36,14.87-3.32,18.56,0,23.26Zm76.08,103v-7.32c-2.81-1.14-5.41-2.66-8.76.31ZM10,867h.54V833.9H10Zm116.2,159.38c-2,1.11-3.27,1.36-3.52,2-1,2.48.28,9.19,2.62,13.27C125.66,1036.29,125.91,1032,126.24,1026.36Zm-9.11-2.07c1.1-3,.7-25.8-.53-30.12C115.45,1001.89,115.77,1020.22,117.13,1024.29Zm1493.94-79.88c5.55.46,11.15.7,17.71-2.07C1621.73,940.32,1616.45,942.52,1611.07,944.41Zm-897-34c9.41,1.07,10.36.87,12.43-2.58C719,906.28,716.25,906.84,714.09,910.43Zm-2.55-382.61V517.19l-4.89-.94C707.74,520.68,707.5,524.89,711.54,527.82ZM980.46,889.67c5.77.17,6.65-.56,8.09-6.26C983.32,882.86,982.27,883.63,980.46,889.67Zm61.09-6.09c4-1,9.18,1.84,12-3.67C1046.27,878.09,1044,878.68,1041.55,883.58ZM122.21,1023.11c3.94-1.17,4.18-1.24,3.67-3-1.11-3.72-2.49-7.37-3.76-11l-1.13.31C121.39,1014,121.79,1018.47,122.21,1023.11ZM1039.8,879.92c-4.08-.8-6.41-.75-7.48.84-.81,1.2-.79,3-1.23,4.91C1035.61,885.35,1038.81,884.77,1039.8,879.92Zm497,97.26c7,.54,8.93-.85,8.36-5.58C1539.49,972.34,1539.19,972.53,1536.8,977.18Zm-291.55-43.95c-2.53,6.46-2.38,12.22,0,16.52Zm-219-11.61a39.51,39.51,0,0,0,11.8-12.69C1032.31,911.32,1030.43,913.3,1026.26,921.62Zm442-222.12c-2,5.71-3.2,11.43-1.51,17.22l1.51,0Zm195.78,245c.67-2.48.17-4.15-2-4.51-3.08-.49-5.22.9-6.85,4.51Zm6.6,68.16c1.77-5.3,1.6-10.69.88-16.11C1670.44,1001.87,1667.79,1007.07,1670.66,1012.66Zm-1554.74,129c0-5.39.93-10-3.1-14.43C112.69,1132.55,111.29,1137.1,115.92,1141.68Zm411-172.2c3.27-3.2,6.55-6.37,9.77-9.61a12.29,12.29,0,0,0,1.34-2.72C531.51,959.44,528.7,964,526.93,969.48Zm816-367.79c-1.88,7.55-1.59,8.48,2.64,9.25C1347.25,604.82,1347,603.64,1342.94,601.69ZM123.24,1125.63l1.42.07v-25.43C123.8,1108.72,122.26,1117.15,123.24,1125.63Zm646.3-131q-7.24-2.82-16.72.86C761.85,996.49,764.91,996.33,769.54,994.64Zm100.78-100c-.06-.49-.11-1-.16-1.47-2.08.16-4.18.21-6.24.49s-4.84-.57-5.7,2.88C863.05,898.31,866.92,897.6,870.32,894.68Zm272.27,66.68c-5.82-2.63-11.19-2.39-15.87,0Zm-75.24-82.82c-7.57-1.19-8.52-.78-10.38,4.33C1061.12,883.7,1064.3,882.48,1067.35,878.54ZM1389.88,659l-1.38.11-.71,10.86C1391.74,666.49,1391.89,662.8,1389.88,659ZM730.49,942.44c9.29-8,9.29-8,10.08-12C735,933.63,733.34,935.46,730.49,942.44ZM86.75,791.51c.57-2.39.32-4.2-2-4.48-1.82-.22-3.73.3-6.08.54l2.17,5.27Zm1018.62,85.73c-4.63-.7-8.36-1.3-11.94.85-.39.24-.27,1.34-.5,2.78C1096.91,878.58,1101.54,882.12,1105.37,877.24ZM101.53,999.07l-1.48,0c.33,6.43-1.06,12.89,1.48,19.28Zm772-84.2-.15-1.75-18,1.77.1,1.2ZM1143.74,683.8l2,.08V669.31l-.39,0Q1144.54,676.54,1143.74,683.8ZM1257.8,914.11c1.77,5.9,3.16,7,8.55,7C1264.87,917.41,1262,915.61,1257.8,914.11ZM371.93,1155.84l.18,1.14c3,0,6,0,9,0,2.7,0,2.69-.1,4.38-3.79ZM926.19,930.91c3.11-2.91,7.08-5.08,9.28-10.58C930,923.11,927.27,926.31,926.19,930.91Zm391.37,42.55c3.88-3.82,3.69-5.33-.57-9.62C1317.21,967.45,1317.38,970.46,1317.56,973.46Zm-201-74.14c-3.83,2.36-7.46,4.91-8.76,10.27C1114.8,904.25,1115,904.05,1116.59,899.32Zm103-31.74c1.94-7.59,1.91-8.39-.52-13.37C1219.13,858.87,1217,863.1,1219.62,867.58Zm154.64-216.26c-3.15,5.78-3,7.25.5,10.71C1374.59,658.23,1374.43,654.77,1374.26,651.32Zm66.84,35.5c-.28,3-.51,5.29-.7,7.58s-.31,4.3-.55,7.74C1443.07,695.39,1443.3,692.27,1441.1,686.82ZM463.85,929.35c-.14-.41-.28-.82-.43-1.23l-8.47.48,4.1,4.46Zm754.3-35.61v11.5C1221.15,900.6,1221.07,897.6,1218.15,893.74Zm108.52-284.19,1.52,0c.14-5.19,1.55-10.44-.69-15.77C1327.21,599.24,1326.94,604.4,1326.67,609.55Zm163.62,135.28c.88,4.19.88,4.19,4.24,5.38C1495.4,745.53,1495.4,745.53,1490.29,744.83Zm-94-83.39c.35,4.78.62,8.47,1,13.08C1400,666.07,1400,664.44,1396.24,661.44ZM715.41,708.25c-.9-4.53-.9-4.53-5.39-4.18.11,1.48.21,3,.35,4.77Zm24.77,198.16c-3-.66-5.69-1.28-8.15,1.25C736.29,910.55,737.08,910.43,740.18,906.41Zm-615.7,142.74h-.68V1067h.68Zm164-311,5.32-.7c.16-4-1.39-5.44-5.32-4.52Zm970.87,250.08c1.66,4,4.55,6.36,9,6.29ZM106.78,1097.89v-7.42C102.87,1092.2,102.87,1092.2,106.78,1097.89ZM392.92,854l.07,1.54c4,1.08,7.79,0,11.4-2.15Zm852.59,58.14c-3.15,6.28-3,8.09.57,12.12C1245.88,920.16,1245.73,916.82,1245.51,912.16Zm320.85,38.68c3.83-.26,7.86.77,11.85-2C1571.2,948.1,1570.8,948.16,1566.36,950.84Zm51,13c.31.38.61.76.92,1.13,4.58-.73,4.58-.73,5.36-5.81ZM703,739.28c-4-2.12-6.69.2-9.53.27C696.33,741.5,699.19,741.62,703,739.28Zm896.8,207.62c0-.58-.1-1.16-.14-1.74-4,1.15-8.3-.35-12,2.85ZM229.71,1111.32l.21,1.49L243,1110.6l-.16-1ZM1657.64,954.25c-4.49,3.07-4.49,3.07-5.45,7.06C1655.62,959.58,1655.62,959.58,1657.64,954.25ZM1471.83,982l.18-1.75-9.56,1,.15,1.44ZM98.72,1057.54l.22,0,.75-11.89-1,0ZM1110,876.13c3.86,3.93,4.64,3.78,7-.56ZM501.64,961.45l-.93-.94-5.8,3.81,3.44,2.77C499.61,964.92,500.63,963.18,501.64,961.45ZM59,719.82c1.09-4.36,1.08-4.36-.47-7.26C55.41,717.64,55.41,717.64,59,719.82ZM233.31,1182.1l-.14-1.11-12.31,1.81.08.71ZM1558.09,952.69l-.15-1.84-10.83,1.52.21,1.63ZM38.33,706.5c-.27-4.9-.5-5-5.85-3.75Zm18.28-69.61,1.57.08c1.82-2.8,1.24-5.87-.06-9.07C57.62,630.9,57.11,633.9,56.61,636.89Zm686.84,272,8.09-.8C746.27,905.2,746.27,905.2,743.45,908.89Zm636.38,144.45c-2.75-.57-5.78-2.2-8.69,1C1374.49,1055.86,1377.18,1055.76,1379.83,1053.34ZM1127.64,876.58c-5.5-1.51-5.5-1.51-7.8,1.79C1122.72,878.44,1125.4,879.17,1127.64,876.58Zm409.61,78.84c-3.55-.48-7.21-1.92-10.36,1.13ZM90.53,1017.11v-12.66C88.75,1008.66,89.05,1012.88,90.53,1017.11Zm1087.2-73,6.68-2.32C1179.79,939.42,1179.79,939.42,1177.73,944.15Zm169.59-303c-1.77,2.68-3.64,5.3,0,8.28ZM1415.43,985l.28,1.61,7.61-.65-.16-1.65Zm-194-146.43-.88-.05-1.11,8.25,1.44.15Zm433.47,6.23c1.1,3.5,3.24,5,8,4.07ZM710,715.38c1.28,2,3,2.22,4.76.74a2,2,0,0,0,.1-2c-1.6-1.37-3.18-.92-4.53.55A2.74,2.74,0,0,0,710,715.38Zm568.61,227.69,1.51,0V937h-1Zm123.11,44,.35,1.63c2-.72,4.7,1.11,6.94-2.75Zm-1042,119.23c-.12-.63-.23-1.25-.34-1.87-2.07.2-4.42-.65-6.69,3.09ZM289.11,744.19c1.46,1.91,2.85,2.81,4.64,1.17a1.65,1.65,0,0,0,.14-1.58C292.41,741.8,290.92,742.52,289.11,744.19Zm1033,293.82,1-1.47-6.17-4.55-1,1.31Zm176.55-306.7c3.1-2,4-3.64,2-6.91C1499.92,726.92,1499.42,728.66,1498.67,731.31Zm-389.9-17.69c-2.16-1.27-4.31-2.19-6.37,0Zm166.61,232c1.38-1.81,2.19-3.58,0-5.85Zm238.9,12.7-.28-1.15-5.27,1.21c.1.39.19.79.29,1.18ZM705.33,911l1.19,1.11c1.68-.88,3.57-1.59,3.54-5.52ZM163.21,1190.31l-.22-.17h-5.14v.17ZM1220.51,829.7l.4,0v-6.8l-.4,0Zm224.91,154.51c.17.49.34,1,.5,1.49l6.62-1.3-.18-1.06ZM1240.07,904.7l1.17-1.27c-.27-2.29-1.43-3.49-5.42-3.16ZM206.7,776.84l.07.31h5.48l0-.69ZM58.44,732l1.5-.23-.58-3.26-1.07.14ZM1271.65,996.75l-1.28,1.27,5.14,4.17Zm41-41.24c.35-.52.69-1,1-1.58l-4.25-2.75-.87,1.24ZM413.41,987.66l.12.86,5.12-.61-.13-1Zm980.39.48v1.24c1.69.38,3.43,1,4.48-1.86ZM718.59,531.3c-3.23,2.51-3.17,3.83-.3,5.52C718.39,535.06,718.45,533.79,718.59,531.3ZM208,1106.4v.44h4.54v-.44Zm81.33-548.76c-3,2.68-3,2.68.45,4.13C289.66,560.33,289.53,559.1,289.37,557.64Zm125.25,531.41c3.46,1.32,4.42.64,4.62-2.38ZM1638.75,941.59c0-.36,0-.72,0-1.08a8.88,8.88,0,0,0-2.25,0,8,8,0,0,0-1.86,1.12l.33.65ZM774.61,921.13c.09.41.18.82.28,1.24l3-1.22c-.12-.31-.23-.62-.34-.92ZM705.35,533.64l1,.35c.5-.86,1-1.71,1.51-2.56l-2.09-.72Zm525,361.11-4.65-3.44C1226,893.7,1226.7,895.58,1230.35,894.75Zm-145-15.06,1.29,1.26,2.81-3-1-1Zm412.58-126.57.73.1v-5.88l-.73,0Zm-167.56,271.65-.93,1,3.22,3,.86-.9ZM137,1196l.27,1,4.77-.32,0-.64ZM1431.19,997.06c0-.46-.08-.92-.11-1.38l-2.72.55.12.95ZM44.74,703.12l-1.14.33c.46,1,.92,1.95,1.37,2.93l.88-.36Zm278.4,396.49-.05-.69-3.75.3.06.61ZM782.38,920.93l4.51-.88C784.76,917.43,783.78,918.26,782.38,920.93Zm-584-142.87-.08.71,3.48-.24v-.47Zm190.47,74.33-.46-1.64-3.79,1.17.32,1.14Z"/>
    <path d="M1509.43,1053.14c46.36-4.38,91.4-11.78,137-13.89l.15,1.26q-34,4.11-68,8.24C1527.5,1055,1515.56,1055.9,1509.43,1053.14Z"/>
    <path d="M334.11,1180.9q45.38-5,90.75-9.93c2.39-.27,4.44-.26,5.18,3.14-1.18.57-2.31,1.49-3.55,1.64-6.79.86-13.62,2.22-20.42,2.13-20.84-.27-41.46,2.36-62.16,3.94-3.2.25-6.41.39-9.61.58Z"/>
    <path d="M1478.56,1075.44l-28.64,3.87c-18.6,2.48-37.2,4.87-55.77,7.49-3.76.53-7.39,2-11.11,2.88-3.93.94-7.87,1.53-11.45-1.4.41-2.8,2.18-3.69,4.33-3.32,11.84,2,23.29-1.17,34.85-2.53,19.42-2.28,38.79-5.06,58.2-7.49,3.13-.39,6.35-.06,9.52-.06C1478.51,1075.07,1478.54,1075.26,1478.56,1075.44Z"/>
    <path d="M75.65,1072.11c3.34,4.71,15.88,38.07,17,45.15C87.3,1109,76.49,1080.28,75.65,1072.11Z"/>
    <path d="M848.05,508.51H791.46C803.92,506.92,835,505.83,848.05,508.51Z"/>
    <path d="M1385.85,1007.45c2.1-5.54,6.66-6.1,11.85-6.12-2.52-.7-5.31-.4-4.79-3.06-4.07.3-8,.59-11.89.9-2.46.2-5.14.11-6.06,4.52,2.78-.78,4.78-1.32,6.77-1.91,2.81-.84,4.18,0,4.47,2.85A13.11,13.11,0,0,1,1385.85,1007.45Zm43.9,18.69-1.16-1c-5,3.08-7.36,7.8-7.78,13.77Zm-44.15-1,1.24.89,4-5.72-1.07-.76C1388.35,1021.44,1387,1023.3,1385.6,1025.17Z" style="fill: #fff"/>
    <path d="M1168.29,916.15A54.32,54.32,0,0,0,1178.86,906l-1-.93Z" style="fill: #fff"/>
    <path d="M621.9,893.28c-4.91,3.36-4.91,3.36-5.66,7.07C618,898.16,619.56,896.19,621.9,893.28Z" style="fill: #fff"/>
    <path d="M1134.22,861.2c-.41-.42-.82-.83-1.24-1.24l-4.83,5.18.95,1Z" style="fill: #fff"/>
    <path d="M234.68,1000.85c-2.51.29-5,.74-7.53.85-10.48.46-21,.35-31.43,1.33-14,1.32-28,3.4-42,5.26-3.37.45-6.66,1.57-10,1.82a6.07,6.07,0,0,1-4.56-1.91c-1.39-1.77-2-4.17-2.86-6.31l1-1c1.72,1.05,3.89,1.75,5.07,3.23,2.74,3.45,6.1,3.43,9.83,2.77,8.34-1.48,16.63-3.42,25-4.23,16.86-1.62,33.78-2.64,50.68-3.8a42.32,42.32,0,0,1,6.52.51Z"/>
    <path d="M107.4,890.35c4.08-.78,5.37,1,6.44,3,3.31,6.2,7.7,11.89,8.76,19.15a4.39,4.39,0,0,0,1.7,3c3.2,1.53,2.79,4.48,2.69,7.75a33.09,33.09,0,0,1-3.68-4.11c-4.81-7.45-9.59-14.94-14.16-22.55C108.13,895,108,892.7,107.4,890.35Z"/>
    <path d="M753.22,794.56,777.93,817C772.7,816.15,762.31,807.11,753.22,794.56Z"/>
    <path d="M95,801.72c2,5.16,3.79,9.7,5.56,14.24l-1,.55-8-14.12Z"/>
    <path d="M1558.2,807.13l-7.09-4C1555.15,803.23,1555.17,803.2,1558.2,807.13Z"/>
    <path d="M1542.09,795.45l5,4.48-.83,1.12-7.58-4.69c1.75-.34,2.69-.52,3.61-.72Z"/>
    <path d="M1004.65,736.83h7.49v.45h-7.49Z"/>
    <path d="M1065.09,740.3l-5-.62.24-1.48,4.94,1.09Z"/>
    <path d="M435.7,958.12l-3.08-3.83C435.93,954.31,435.92,956.23,435.7,958.12Z"/>
    <path d="M419.81,720.63c-24.87,5.34-50.2,4.89-75.45,5.56l75.46-7Z"/>
    <path d="M448.05,728.47h2.77v.2h-2.76Z"/>
    <path d="M840.73,696.64c-26.32,4.83-52.92,3-79.44,2.85l79.57-4.08C840.82,695.82,840.77,696.23,840.73,696.64Z"/>
    <path d="M1130.13,663.26c-33.28,1.23-66.56,2.35-99.83,3.75-15.51.66-31,1.77-46.5,2.86-7.85.55-15.65,1.61-23.49,2.26a23.74,23.74,0,0,1-9.4-1c12.2-1.23,24.38-2.69,36.59-3.65,41.06-3.25,82.21-4.56,123.39-5,6.41-.08,12.84.52,19.28.82Z"/>
    <path d="M1155.32,661.22h7.45c0,.3,0,.6,0,.9h-7.44C1155.33,661.82,1155.33,661.52,1155.32,661.22Z"/>
    <path d="M1326.87,684.26c-2.22.43-3.61-.67-4.81-2.12.22-.35.43-.7.65-1l4,3.28Z"/>
    <path d="M421.12,1004.06c-4.2,1.7-36.81,5.19-42.4,4.55C388.21,1002.22,412.46,999.63,421.12,1004.06Z"/>
    <path d="M211.63,1022.71l4.08-.2.08.65-4.22.35Z"/>
    <path d="M169.27,1137.08l-11.2,16.41C157.92,1148.24,161.9,1142.08,169.27,1137.08Z"/>
    <path d="M236,1124c0,.58.32,1.29.09,1.73-3.72,7.27-7.15,14.71-12.24,21.16l-1.09-.58c2.15-3.68,4.25-7.39,6.46-11s4.6-7.43,6.91-11.14Z"/>
    <path d="M157.65,1179.76c-.86-6.21,1.76-10.67,8.63-15C163.21,1170.06,160.72,1174.41,157.65,1179.76Z"/>
    <path d="M211.6,1163.64a29.47,29.47,0,0,1-8.57,14.09C203.34,1173.69,205.25,1170.46,211.6,1163.64Z"/>
    <path d="M258.39,1160.3l-5.25,8.36c-.57-4.06,2.23-6.31,4-9.11Z"/>
    <path d="M1385.85,1007.45a13.11,13.11,0,0,0,.35-2.82c-.29-2.88-1.66-3.69-4.47-2.85-2,.59-4,1.13-6.77,1.91.92-4.41,3.6-4.32,6.06-4.52,3.91-.31,7.82-.6,11.89-.9-.52,2.66,2.27,2.36,4.79,3.06C1392.51,1001.35,1388,1001.91,1385.85,1007.45Z"/>
    <path d="M1411.53,1007.8c-2.66,5.31-5.34,10.61-8,15.92-1.15,2.31-2,4.81-3.39,6.92a12.74,12.74,0,0,1-5.53,4.42c1.55-2.77,3-5.59,4.67-8.32q5.42-9,11-17.9c.27-.43.91-.62,1.38-.93Z"/>
    <path d="M1429.75,1026.14l-8.94,12.82c.42-6,2.78-10.69,7.78-13.77Z"/>
    <path d="M1385.6,1025.17c1.37-1.87,2.75-3.73,4.12-5.59l1.07.76-4,5.72Z"/>
    <path d="M1455.22,660.14l9.23,5.05c-.18.35-.37.7-.55,1.06l-9.42-5.09Z"/>
    <path d="M1470.79,668.73l6.81,3.71-.45.86-6.82-3.7Z"/>
    <path d="M1443,654.15a12.08,12.08,0,0,1,2.78.72c1.83,1,3.56,2.1,5.33,3.18l-.68,1.08-7.32-5.11Z"/>
    <path d="M1353.82,721.31l44.53,13.84-.43,1.44-44.68-13.67C1353.43,722.38,1353.63,721.85,1353.82,721.31Z"/>
    <path d="M1422,742.3l10.76,3.51c-5,1.12-8-1.07-11.11-2.37C1421.74,743.06,1421.85,742.68,1422,742.3Z"/>
    <path d="M916.94,921.27a10.13,10.13,0,0,0-9.3,4.19c-3.58,4.57-7.88,8.59-11.92,12.8a37.16,37.16,0,0,1-3.33,2.61c-.14-3.39,2.05-4.38,3.29-5.87,1.55-1.85,3.32-3.52,4.79-5.42,1.31-1.69,2.35-3.59,3.83-5.92-5.24,1.59-5.24,1.59-14.2,14.08-.45-5.76,4.33-8.67,4.43-13.4-2.85-1-5.77.21-8.65.09s-6,1.68-8.6-1.86a9.41,9.41,0,0,1,2.34-.79q16.86-.49,33.74-.87a27.78,27.78,0,0,1,3.6.36Z"/>
    <path d="M1598.3,988.37c-1.28,1.7-2.55,3.4-3.83,5.09C1595.75,991.77,1597,990.07,1598.3,988.37Z"/>
    <path d="M947.44,873.51l3.91-3,.66.59-3.34,3.79Z"/>
    <path d="M357.32,1146.15l3.78-6.88Z"/>
    <path d="M75.81,906.49,59.32,933.23l-1-.63C63.36,923.42,68.39,914.21,75.81,906.49Z"/>
    <path d="M1168.29,916.15l9.61-11,1,.93A54.32,54.32,0,0,1,1168.29,916.15Z"/>
    <path d="M1097.86,848.17,1089.1,857c1.05-4.27,2.42-5.85,7.88-9.84Z"/>
    <path d="M621.9,893.28c-2.34,2.91-3.91,4.88-5.66,7.07C617,896.64,617,896.64,621.9,893.28Z"/>
    <path d="M1063.88,857.85l-6.14,4.7c.72-2.82,3.11-4.1,5.09-5.72Z"/>
    <path d="M725.64,892.72l13-14.53,1.18,1c-3.72,5.4-8.64,9.77-13,14.58Z"/>
    <path d="M1134.22,861.2l-5.12,4.92-.95-1L1133,860C1133.4,860.37,1133.81,860.78,1134.22,861.2Z"/>
    <path d="M1159.19,859c-1.09,2.88-2.79,5.22-6.41,5.92l5.42-6.61Z"/>
    <path d="M429.27,878.75c4-.31,8-2.26,12.65.43C437.2,881.2,433.24,879.6,429.27,878.75Z"/>
  </g>
</svg>
