<?xml version="1.0" encoding="utf-8"?>
<!-- Generator: Adobe Illustrator 22.1.0, SVG Export Plug-In . SVG Version: 6.00 Build 0)  -->
<svg version="1.1" id="Layer_1" xmlns="http://www.w3.org/2000/svg" xmlns:xlink="http://www.w3.org/1999/xlink" x="0px" y="0px"
	 viewBox="0 0 1700.8 1700.8" style="enable-background:new 0 0 1700.8 1700.8;" xml:space="preserve">
<style type="text/css">
	.st0{display:none;}
	.st1{display:inline;}
</style>
<title>sketches frames</title>
<g class="st0">
	<path class="st1" d="M1286.6,499.6l-7.4-7.9c0.2-0.3,0.5-0.6,0.7-0.9c1.3,0.7,2.5,1.4,3.7,2.3c7.9,7.2,16.2,14.1,23.4,22
		c8.6,9.4,19.4,15.6,29.4,23c3.9,2.9,7,6.1,8.3,11.1l-9.2-0.6c19.3,6.4,28.4,22.7,37.5,38.4c7.1,12.3,12.9,25.4,18.4,38.5
		c2.5,6.3,3.9,13,4,19.7c0.8,27.9,1.2,55.8,1.1,83.7c0,8.4-2.7,16.8-3.2,25.2c-0.6,8.9-0.4,17.9-0.3,26.8c0.2,46,0.6,92,0.8,138
		c0,5.6-0.8,11.1-1,16.7c-0.6,15.5-1.1,31.1-1.7,46.6c0,1.5-0.3,3-1,4.4c-0.3-2.1-0.7-4.3-1.2-6.4c-0.5-1.1-1.2-2.1-2-3
		c-0.9,1-2.3,1.9-2.5,3c-1,5-1.8,10.1-2.4,15.2c-0.8,8-2.7,16.2-1.8,24.1c2.3,21.4-5.4,40.9-10.7,60.8c-5.3,20-12.6,39.5-21.8,58
		c-9.3,18.6-23.3,30.9-43.2,36.8c-1.1,0.3-2.2,0.8-3,1.7c-4.9,6-9.9,11.9-12.4,19.6c-6.4,19.5-14.7,38.1-26.1,55.2
		c-1.7,2.9-3.8,5.6-6.1,8c-10.6,10-10.5,22.7-9,35.6c0.4,1.5,1.3,2.8,2.7,3.6c3.8,2.4,5.6,5.8,5,10.1c-1.4,9.4-3.1,18.7-4.9,28.1
		c-1.4,7.6-2.6,15.3-4.8,22.7c-1.1,3.6-4.1,7.1-7.1,9.7c-2.6,2.2-5.7,0.1-8.1-5.2c-5.8,0.7-11.8,1.6-17.7,2.2
		c-4.5,0.4-9.1,0.7-13.6,0.6c-5.5,0-9.4-3.5-10.9-8.8c-0.3-0.8-0.7-1.6-1.2-2.3c-6.3-9.5-12.6-19-18.8-28.6c-0.6-1-0.6-2.5-0.6-3.8
		c-0.7-16.4-1.1-32.9-2-49.3c-0.2-4.1-2-8.1-3-12.2c0-0.1-0.2-0.2-0.2-0.4c-0.6-11-9.4-18.7-11.9-29.1c-0.6-1.7-1.9-3.1-3.7-3.7
		c-8-1.4-16.2-3.3-24.3-3.3c-36.6-0.3-73.2,0.2-109.8-0.1c-19.5-0.2-39-1.4-58.5-2.1c-8.5-0.3-17-0.5-25.5-0.5
		c-27-0.2-54.1-0.7-81.1-0.4c-22.9,0.2-45.8,0.9-68.7,2c-53.3,2.6-106.6,1.7-160,0.5c-16.1-0.3-32.1-3.1-48.2-4.6
		c-4.7-0.5-9.4-0.9-14-1c-1.7,0-3.3,1.1-5,1.7l0.1,1.8l9.2,3.3c-23.9-1.2-47.2,0.5-69.7-6.2c-3.9-1.2-7.1-4.6-10.3-7.9
		c22.1,7.5,44.6,3.2,67.2,3.5c-0.2-1.2-0.4-2-0.5-2.8s-0.3-1.7-0.6-2.9c-8.7-0.7-17.3-1.2-25.9-2.1c-7.7-0.8-15.4-1.9-23.1-3.2
		c-1.4-0.2-2.6-1.8-3.9-2.8c1.5-0.8,3-2.2,4.5-2.2c31.3,0.4,62.6,1.1,93.9,1.3c28.4,0.2,56.8,0.9,85.1-0.3
		c34.3-1.4,68.5-4.6,102.8-6.8c25.3-1.6,50.7-3,76.1-4.3c14.2-0.7,28.5-1.8,42.7-1c30.8,1.7,61.3-1.6,92-2.8
		c32.6-1.2,65.2-1.6,97.8-2.4c5,0,10-0.6,14.9-1.7c-1.3-0.3-2.6-0.6-3.9-1c-7.4-2.5-14.7-5.1-22.1-7.4c-1.7-0.6-3.6-0.7-5.4-0.3
		c-13,3.7-26.5,5.4-40.1,5c-13.9-0.5-27.9-0.8-41.8-1.2c-0.8,0-2-0.3-2.4-0.8c-2.5-4-6.6-3.5-10.2-3.7c-24.2-1.3-48.5-2.1-72.6-3.6
		c-92.7-5.9-185.4-2.1-278.1-2.9c-49.4-0.4-98.8-0.2-148.1-0.3c-21.9-0.1-43.8-0.3-65.7-0.5c-1,0-1.9-0.1-2.9-0.1l-0.4-1.5
		c2.2-0.8,4.4-2.2,6.7-2.2c14.8-0.2,29.7,0.7,44.5-0.2c12.1-0.6,24.2-2.5,35.9-5.6c6.6-1.8,13.3-2.7,20.1-2.6
		c149.6,0.1,299.2,0.5,448.8,0.3c63.8-0.1,127.5-1.1,191.3-2.2c14.6-0.2,29.2-2.3,43.8-3.4c29.2-2.2,58-7.5,86.3-14.9
		c2.9-0.8,5.7-2.2,8-4.1c7.7-6.5,15.1-13.4,23.5-20.9c-13.9,2.8-26.3,5.9-38.9,7.8s-25.5,2.8-38.2,4.2c-0.2-0.7-0.3-1.3-0.5-2
		c1.1-0.5,2.3-0.9,3.5-1.2c13.6-2.4,27.2-4.4,40.8-7.3c12.3-2.6,24.5-5.9,36.7-9.2c2.3-0.7,4.4-2.1,6-4
		c14.3-17.5,24.3-38.1,29.1-60.1c0.1-0.2-0.1-0.6-0.3-1.2c-3.1,4.9-5.8,9.6-9,14.1c-0.8,1.2-2.6,1.7-3.9,2.6
		c0.1-1.6-0.2-3.4,0.4-4.8c8.4-17.2,16.4-34.5,20.2-53.4c0.9-3.7,1.4-7.5,1.4-11.3c-0.3-19.2-1-38.4-1.5-57.6l-1.2-0.1
		c-0.1,1.2-0.3,2.5-0.4,3.8c-1.3,22-3.7,43.9-9.1,65.3c-1,3.7-2.4,7.3-4.1,10.6c-1,2-3.1,3.5-4.7,5.2l-1.2-0.8
		c1.1-6,2.3-11.9,3.3-17.9c3.1-16.9,4.7-34,5-51.2c0.3-33.6,2.2-67.2,2.6-100.8c0.2-25.3-1.4-50.5-1.4-75.8c0-28.5,0.9-57,1.6-85.5
		c0-2.8,0.4-5.6,1.2-8.2c0.6-1.8,2.2-3.2,3.3-4.8c0.8,1.7,2.2,3.4,2.2,5.1c0.2,10.6-0.3,21.2,0,31.7c1,41.4,2.3,82.8,3.4,124.3
		c0.2,8.4,0,16.8,0,25.1c0,1.9,0.2,3.8,0.7,5.7c0.4-5.6,1-11.2,1.2-16.8c0.8-16.4,2-32.8,2-49.2c0-33.7-0.7-67.5-1-101.2
		c-0.1-11-2.8-21.4-6-32.9l-1.6,4.2l-1.1,0.3c-1.8-30.2-12-57.2-29.1-82l4.4,3.5l0.6-0.4c-2.1-4-4-8-6.3-11.8
		c-0.6-0.9-2.1-1.5-3.3-1.8c-18.3-4.2-36.5-9.8-55-12.3c-37-5-73.3-3.8-106,18.2c-14.6,9.8-26.2,22.6-37.3,36
		c-2.9,3.5-5.9,7-8.6,10.6c-0.7,0.9-0.8,2.3-1.2,3.5c-1.1,4-1.4,8.5-3.5,12c-7,11.5-10.2,24-11.9,37c-0.1,1.6,0.6,3.2,1.8,4.3
		c29.7,25.2,59.2,50.5,89.3,75.3c27,22.2,54.5,43.8,81.8,65.7c0.9,0.5,1.7,1.2,2.3,2c0.4,0.8,0.5,1.8,0.2,2.6
		c-0.2,0.4-1.5,0.5-2.3,0.3s-1.2-0.8-1.8-1.2c-25.9-20.3-51.9-40.5-77.5-61.1c-26.3-21.2-52.3-42.8-78.4-64.2
		c-5.8-4.8-11.4-9.7-17.2-14.5c-1.1-0.7-2.2-1.4-3.3-1.9c2.8,4.2,4.8,7.3,7,10.8c-2.7,0-5.7-0.8-6.5,0.2c-2.3,2.8-3.9,6.1-5,9.5
		c-1.3,4.3-1.6,8.8-2.4,13.7l3.2-1.1c31.3,27.5,61.8,55.2,93.3,81.7s63.7,51.6,95.1,78c-33.9-22.2-65.4-47.7-97.2-72.7
		c-32.1-25.2-61.3-53.4-88.9-83c-8.3,4.7-2.5,10.6-1.8,15.8c0.6,4.2,2.2,8.2,2.8,12.4c0.3,2.1-0.4,4.3-0.7,6.5l-2.1,0.4
		c-2-4.9-4.1-9.8-6.5-15.6c-0.2,1.8-0.5,2.8-0.5,3.7c-0.3,10.9-0.7,21.7-0.9,32.6c0,1.4,0.7,2.8,1.4,5.3c-3.3,3.5-0.3,5.5,3.3,8.5
		c14.8,12.7,29.6,25.5,43.8,38.9c33.1,31.3,65.8,63,98.7,94.5c5.5,5.3,11,10.6,16.5,15.9c0.9,0.9,1.7,1.9,2.4,3l-1,1
		c-1.3-0.9-2.7-1.7-4-2.7c-34.2-28-65.1-59.4-96.9-89.9c-17.9-17.2-36.5-33.7-55-50.2c-5.4-4.8-11.7-8.7-18.6-13.6v11.9
		c-2.1-2-3.4-3.2-5.4-5.1c0,1.2,0.1,2.4,0.2,3.6c4.6,18.4,9.3,36.7,13.9,55.1c0.2,0.8,0.8,1.8,0.6,2.5c-2.3,10.5,2.6,19.7,5.9,28.9
		c10.9,30.4,22.4,60.6,33.6,90.9c0.1,0.3,0.1,0.6-0.6,1.5l-9.8-12.2v39.8l-1.1,0.2c-0.3-1-0.6-2-0.8-3c-3.1-15.6-6.1-31.1-9.3-46.7
		c-0.3-1.7-2.3-3-3.5-4.5c-1.2-1.2-2.1-2.6-2.9-4.1c-1-2.5-1.6-5.2-3-7.8c2.2,19.3-4.5,36.5-11.5,53.6h-1.8c0-1.7-0.4-3.4,0.1-5
		c4.9-18.6,4.2-37.5,3.6-56.5c0-0.5-0.1-1.1-0.1-1.5c-2.1,12.4-4.2,24.9-6.2,37.3l-1.7-0.1c-1-11.3-2.6-22.6-3-34
		c-0.4-11,0.6-22,0.8-33c0.2-9-0.4-10.9-5.8-18.7c1.2,10.1,2.5,20.3,3.7,30.5l-1.4,0.2l-2.6-13.1l-1.5-0.1c-0.5,2.7-1.4,5.4-1.4,8.1
		c0,13.8,0,27.6,0.5,41.4c0.3,7.5-3.1,13.6-6,20c-0.3,0.6-1.6,0.7-2.5,1.1c-0.3-1.2-1-2.4-0.8-3.5c1.9-9.7,5-19.2,5.8-28.9
		c1.9-24.1,3.2-48.4-8.9-70.6c-4.6-8.4-11.6-15.4-17.5-23.1c-0.8-0.9-1.3-2.1-1.3-3.3l14.7,9.9l0.8-0.8c-2.1-2.2-4-4.6-6.2-6.5
		c-3.7-3.2-7.6-6.3-11.5-9.3c-1.1-0.8-2.9-2-3.9-1.6c-21.2,6.9-43.4,8.8-65.3,12.3c-23.9,3.8-48,7-72,10.2c-6,0.8-12,0.8-17.9,0.3
		c19.7-6.6,40.4-7.9,60.4-12.7c-19.6,0.2-39,3.7-58.6,2l-0.2-1.2c4-0.7,8-1.4,12-1.9c4.4-0.5,8.8-0.9,13.2-1.3
		c4.2-0.4,8.3-0.7,12.5-1c0.1-0.5,0.1-0.9,0.2-1.4c-7.3-1.8-14.6-3.8-21.9-5.4c-10.2-2.2-20.4-4.2-30.6-6.3
		c-1.4-0.3-2.9-0.5-4.3-0.4c-6.6,0.4-13.2,1.4-19.7,1.4c-22.3,0.2-44.7,0.1-67,0.1c-1.6,0-3.3-0.3-4.9-0.5v-1.4l81.1-3l0.1-1.1
		c-0.7-0.4-1.4-0.8-2.1-1.1c-21.1-8.2-41.2-18.7-60-31.4c-3.4-2.4-7.4-3.5-11.5-3.3c-11.3,0.3-22.6,0.3-33.9,0.2
		c-2.4,0-4.8-0.8-7.2-1.2V777l39.8-1.8l0.7-1.2c-4.5-2.6-8.7-6.2-13.6-7.7c-5.7-1.7-11.9-2-17.9-2c-22.5-0.1-45,0.1-67.5,0.2
		c-2.4,0-4.9-0.3-7.3-0.4l-0.1-1.7c14.3-0.8,28.6-2,42.9-2.4s29-0.1,44.1-0.1c-5.4-4.7-10.5-9-15.4-13.5c-6.8-6.2-13.5-12.7-20.3-19
		c-1.2-1.2-2.8-1.9-4.5-2.2c-18.9-0.7-37.8-1.4-56.8-1.8c-20.1-0.5-40.3-0.7-60.4-1c-1.5,0-2.9,0-4.4,0V721h119.9
		c-1.6-2.1-2.2-3-2.8-3.8c-5.5-7.3-11.6-14.1-16.1-22c-2.1-3.6-1.1-9.1-1.4-13.7c0-1.4,0.1-2.8,0.3-4.2c-10,1.1-19.6,2.3-29.2,3.1
		c-4.4,0.3-8.8,0.2-13.1-0.3c-1.5-0.1-2.8-1.5-4.2-2.3c1.5-1,2.9-2.6,4.5-2.7c9.8-1,19.6-1.6,29.4-2.3c1.7-0.1,3.4,0,5.1,0
		c-0.3-7.1-2.4-8.7-8.6-7.2c-20.2,4.8-40.4,9.2-61.3,9.5c-3.5,0.1-7-0.7-10.5-1.1l-0.1-2c2.6-0.8,5.3-1.5,8-2.1
		c14.5-2.2,29.1-4.3,43.6-6.5c1.9-0.4,3.7-1,5.5-1.7c-0.1-0.6-0.3-1.2-0.4-1.8h-4.5c-30.6,0-61.1,0-91.7,0.1
		c-4.2,0-8.4,1.5-12.6,1.6c-9.3,0.1-18.7-0.2-28-0.4c-2.8-0.1-4.8,0.5-6.7,3c-2.6,3.7-7.2,3.7-10.7,0c-2.1-2.2-4.3-2.6-7-2.5
		c-7.8,0.3-15.6,0.3-23.4,0.5c-2.5,0.1-4.9,0.3-7.7,0.5c1,2.1,1.9,4.2,2.6,6.4c0.1,1.2-0.4,2.4-1.3,3.2c-0.4,0.3-2-0.5-2.9-1.1
		c-0.5-0.3-0.8-0.8-1-1.4c-2.2-6.8-7.2-7.7-13.5-7.1c-6.5,0.7-13.2,0.7-20.3,1l4.3,7.8l-1.1,0.9c-1-0.9-2-1.9-2.9-2.9
		c-2.5-3.7-5.1-5.8-10.3-5.7c-40.4,1-80.8,2-121-3.1c-2.2-0.2-4.4-0.6-6.5-1.2c-1.2-0.4-2.2-1.6-3.3-2.4c1.1-0.7,2.2-1.8,3.4-2
		c2-0.4,4.1-0.5,6.1-0.5c16.6-0.5,33.2-1.1,49.8-1.6c1,0,1.9-0.2,3.2-0.3l-31.6-49.3l2-1.6c0.3,0.9,0.7,1.8,1.2,2.6
		c9.8,14.5,19.7,28.9,29.3,43.5c2.4,3.7,5,5.5,9.6,5.1c6.4-0.5,12.8-0.1,20.1-0.1c-11.5-19.3-22.4-37.7-33.3-56l0.5-0.7l2,2.8
		c7.3,10.5,14.7,20.9,21.9,31.4c4.2,6.2,8,12.7,12.4,18.7c1.6,1.8,3.8,2.9,6.1,3c8.3,0.3,16.6,0.1,25.8,0.1
		c-11.9-24.7-23.2-48.1-34.4-71.4l0.6-0.7c1.1,1.3,2.6,2.5,3.3,4c8,15.9,15.8,31.9,23.7,47.8c2.8,5.5,5.5,11,8.8,16.3
		c1.3,1.6,3.1,2.7,5.2,2.8c7,0.1,14.1-0.4,21.1-0.7c4-0.2,4.8-1.7,3.2-5.3c-6.9-15.9-13.9-31.8-20.8-47.7c-0.1-0.4-0.2-0.9-0.2-1.3
		c3.4-1,4.7,1.1,5.9,3.7c6.2,13.8,12.5,27.6,18.9,41.3c0.7,1.6,1.6,3.1,2.6,5c8.5-4,16.4-9.4,23.2-15.9c0.6-0.5,0.3-2.4-0.1-3.5
		c-2.3-6.2-4.7-12.2-7.4-19c4.7,0.8,7.7,2.3,9.2,6.7s3.9,8.7,5.9,13l1.6,0c1.1-7,3.1-14,3.3-21c0.8-32.6,1-65.2,1.7-97.9
		c0.4-17.6,1.7-35.2,4.1-52.6c3.8-27.9-2.2-54-19.3-77.1c-0.3-0.4-0.6-0.7-0.8-1c-4.7-6.7-10.6-9.8-19.3-9.4
		c-25.8,1.2-51.7,0.8-77.5,2.6c-19.3,1.4-38,7-56.4,16.4h32.7l0.6,0.9c-1.7,0.9-3.4,2.6-5.1,2.6c-16.5,0-32.9-0.4-49.4-0.6
		c-0.2,0-0.5-0.3-0.9-1.4l17.3-1.1l-0.9-1c1.4-2,2.5-4.3,4.3-5.9c3.4-3,7.2-5.5,11.4-8.7c-9.3-1.2-18.1,0.4-26.6-1.5L308,369
		c1.4-0.5,2.9-0.9,4.4-1.1c9.4-0.3,18.8-0.5,28.2-0.8c2-0.1,4.4-0.1,5.9-1.2c9-5.9,19.3-7.5,29.6-9.3c14.7-2.5,28.7-7.7,41.4-15.5
		c7.2-4.4,15.4-7.2,23.2-10.4c2.2-0.9,4.9-0.4,7.3-0.6l0.6,1.1c-1.3,1.1-2.5,2.5-4,3.2c-11.7,5.1-23.5,10-35.2,15
		c-1.6,0.7-3.2,1.3-6,2.4c10.6-0.6,19.8-1.1,29-1.8c21.7-1.8,42.3,1.9,62.6,9.7c5.4,2.1,12.1,0.9,18.2,1.2c0.3,0,0.6-0.1,0.9-0.1
		c9.5,0.9,17.6-2.6,25.6-7.3c8.6-4.9,18.2-7.8,28-8.6c5.8-0.5,11.4-4.1,17.2-5.4c39.3-8.9,78.2-7.5,116.2,6.6
		c2.4,1.1,4.6,2.3,6.8,3.7l-0.5,1.6c-3.3-0.5-6.7-0.8-10-1.5c-14.4-3.1-28.6-7.1-43.1-9.2c-24.5-3.5-48.9-1.3-73.2,3.4
		c-0.7,0.1-1.3,0.5-1.5,1.2h5.8c25.3,0,50.5-0.1,75.8,0c7.2,0,13.9,1,20.5,5c4.4,2.7,10.8,2.3,16.3,3.1c3.9,0.6,7.9,0.9,11.8,1.4
		c7.8,0.9,13.6,6,19.9,9.9c3.6,2.3,7,4.9,10.1,7.7c3,2.7,5.4,2.3,8.6,0.4c12.5-7.4,25-14.8,37.9-21.5c13.3-6.9,27.5-11.2,42.8-10.1
		c5.1,0.4,10.2,1.2,15.2,2.5c8,2,15.8,4.5,23.7,6.9c2.2,0.7,4.3,1.9,5.9,3.5c-2.3,0-4.7,0.4-6.8-0.1c-12.2-2.6-24.3-5.4-36.5-8.2
		c-1.3-0.3-2.6-0.6-3.9-0.8c-3.3-0.5-5.7,0.1-5,4.6c-17.3-0.3-32.6,5.6-47.1,14.3c4.9-1.3,9.8-2.5,14.6-4
		c18.8-6.2,37.5-7.2,56.7-1.4c15.5,4.7,31.3,7.8,46.8,12.5c8.8,2.7,17.6,2.7,26.5,2.3c13.4-0.6,27,0.8,40.2-3.8
		c2.7-0.9,6.6,0.8,9.7,2c8,3.4,15.6,7.5,23.6,10.8c6,2.5,11.7,5,15.3,10.9c0.9,1.4,3.2,2,4.8,3c3.3,2.1,6.5,4.5,10,6.1
		c2.8,1.3,6,1.6,9,2.4l0.8-1.4l-20.3-17.1c0.3-0.5,0.6-0.9,0.8-1.4c3.1,1.2,6.5,1.8,9.1,3.6c5.4,3.8,10.2,8.4,15.3,12.5
		c1,0.8,2.4,1.6,3.5,1.5c15.8-1.8,31.6-2.8,47.1,2.6c3.5,1.2,7,2.3,10.3,3.8c10.1,4.5,19.8,9.9,30.8,12.6s19.6,10.3,27.5,18.5l1-0.7
		l-14.7-22.3l0.9-1c1.3,0.7,2.6,1.5,3.8,2.5c7.8,6.6,13.5,15,18.8,23.8c2.4,4,5,8,7.3,12c1.3,2.3,2.9,3.3,5.7,2.9
		c15.9-2.2,30.8,3.5,46,6.4c1.9,0.4,3.7,1.7,5.5,2.8c18.4,11.2,36.8,22.5,55.2,33.8L1286.6,499.6z M1073.7,669
		c4.5-6.5,8.5-14.2,14.2-20c8.5-8.5,11.8-19.1,15.7-29.8c7.1-19.2,18.3-35.8,34.6-48.5c1-0.8,2.1-1.5,3.2-2.3
		c-3.8,5.3-8.1,9.9-12.1,14.8c-1.6,2-2.9,4.4-3.6,6.9c-1.3,4.5-0.2,5.7,4.2,3.7c4-1.8,7.7-4.2,11-7.1c16.7-13.9,32.9-28.3,52-39.2
		c9.6-5.5,18.9-9.2,30.1-8.5c14.9,0.9,29.9,0.6,44.9,1.1c4.7,0.2,9.4,1.4,14.1,2.1l0.3-1.2c-7-5.5-15.9-5.8-24.2-8h18
		c-1-6.6-5.6-9.7-10-13.1c-16.9-13.1-34.5-25.2-53.9-34c-9.3-4.2-19.4-6.8-29.3-9.4c-7.6-2-15.2,3.8-23.6,0c-3.8-1.8-9.5,0.2-14.3,1
		c-24.3,3.7-46.5,13.3-67.8,25.1c-1.3,0.6-2.4,1.6-3.3,2.7c-4.9,7.1-9.7,14.3-14.5,21.5c-6.3,9.6-11.4,19.5-6.5,32.5
		c-33.6-19-64.3-40.6-94.5-63.1c-1,1.1-1.5,1.6-2,2.1c-3.4,3.4-5.3,2.9-6.5-1.8c-0.3-1.3-0.2-2.6-0.6-3.9c-0.3-1.2-0.9-2.3-1.8-3.2
		c-3.7-2.7-7.5-5-12.5-4.3c-3.6,0.5-7.4,0.3-10.9,1c-2.1,0.4-4,1.9-6,3c0.2,0.6,0.3,1.2,0.5,1.8c-9.2-6.1-18,1.6-27.4-0.4l14.9-6.4
		c0.1-0.5,0.2-1,0.2-1.5c-3.8-0.9-7.7-2.6-11.5-2.6c-13,0-25.6,3-37.8,7.5c-6.5,2.4-13,4.5-19.7,6.2c-4.5,1.1-9.3,1.2-14,1.7
		l-0.4-1.9c21.7-6.9,41.2-19.9,64.9-21.4c-0.7-0.6-1.6-1-2.6-1.1c-9.4-0.3-18.8-0.5-28.2-0.9s-17.7,2.1-24.2,8.6
		c-10.9,11.1-21.2,22.7-31.8,34.1c-1.3,1.4-2.3,3-3.4,4.5l-0.7-0.6l2.6-5.8c-32.3,38.1-59.8,79.3-81.3,124.3
		c8.7-6.1,9.3-17.5,16.5-25.8c-0.8,7-6.5,11.4-5.4,18.4l6.5-3c-0.8,1.5-2,2.8-3.4,3.8c-5.7,4.4-10,9.6-11.9,16.9
		c-2.8,10.7-6.1,21.2-9.8,31.5c-2.2,5.4-2,11.5,0.6,16.8c2.5,5.7,3.4,12.1,5,18.2l-1.7,0.4c-1.6-6.2-3.2-12.4-5.1-19.4
		c-1.8,11.4,4.6,26.2,11,29c0.6,2.2,0.5,4.1,1.4,5c8,7.5,15.8,15.2,24.3,22.2c5.1,4.2,11.2,7.2,16.9,10.7l0.9-1.2
		c-1.3-1.4-2.7-2.6-4.2-3.8c-5.8-4-12-7.4-17.5-11.8c-9.7-7.7-17.6-16.5-18.7-30.1c-0.9-10.7,2.1-20.3,5.5-30c0.3-0.8,1.2-1.4,2.7-3
		c0.3,1.5,0.5,3.1,0.5,4.6c-0.3,2.8-0.7,5.5-1.1,8.3c-1.6,9-1.4,18.1,1.8,26.5c4,10.7,13.7,16.8,22.8,24.3
		c-0.9-5.5-1.6-10.1-2.3-14.6l1.9-0.5c1.2,2.5,2.2,5.1,3.1,7.8c3,11.1,10.5,19.6,17.3,28.4c1.5,1.6,3.3,2.9,5.4,3.6
		c12.5,5.1,25.1,9.9,37.5,15.2c7.6,3.2,14.6,7.7,22.2,10.7c12.8,5,25.8,9.7,39.1,13.5c11,3.2,22.3,4.9,33.5,7.2
		c1.8,0.3,3.9,0.6,5.5-0.1c6.8-2.9,14-5,20-9.8c2.2-1.8,6.3-2.1,9.4-1.6c2.6,0.4,3.5-0.1,4.9-2c5-6.9,10.2-13.7,15.5-20.3
		c1.1-1.4,3.3-1.9,5-2.8c2.7-1.5,6.1-2.3,7.9-4.6c4.2-5.5,8-11.2,11.5-17.2c7.4-12.3,14.3-24.9,21.8-37.2c18.8-30.4,35.1-62.1,49-95
		c2.4-5.8,3.7-12,5.5-18.1c0.3-1.1,0.6-2.5,0.2-3.4c-3.9-7.7-0.6-15.7-1.4-23.7c2.4,1.6,4.1,3.7,6.3,5c10.8,6.8,13.8,16.5,10.7,28.5
		c-2.1,8.3-4.2,16.6-6.2,24.8l-1.6-0.3c0-1.2,0-2.5,0-3.7c0-6.9,0-13.8,0-20.7c0-2,0.6-4.3-2.8-4.3c-3.1,0-2.4,2.2-2.7,4
		c-0.5,3.6-0.5,7.4-1.8,10.8c-15.9,43.7-36.6,85-63.4,123c-13,18.5-27.5,35.9-41.4,53.8c-0.8,1-1.7,2.1-2.4,3.2
		c-0.6,0.9-1.2,1.9-1.8,2.9l0.9,0.7c8.8-7,17.7-14,26.5-21c2.1-1.6,4.2-3.2,6.5-4.5c13.7-8.3,23.8-19.9,31.2-33.8
		c5.4-10,9.8-20.6,14.5-31c9.1-20.5,18.2-41.1,27-61.7c2-4.7,2.9-9.9,4.5-14.8c0.3-1,1.7-1.7,2.6-2.5c0.7,1,1.3,2.1,1.8,3.2
		c0.1,0.9,0.1,1.8-0.2,2.6C1075.5,652.2,1074.6,660.7,1073.7,669z M719.5,478.7c-4.2-2.5-6.2-5.2-6-8.8c0.6-14.1,0.5-28.3,2.2-42.2
		c1.8-15,0.4-28.9-8.3-41.6c-1.8-2.6-2.5-5.9-4.2-8.6c-2.5-4.3-5.5-8.3-8.8-12c-1.4-1.4-4.6-1-7-1.4l-0.2,0.7l4.2,2.4
		c-11.3,0-22.4,1.3-33.6-1.6c-13.3-3.4-26.6-7.3-40.7-6.8c-24.1,1-48,4.7-71.3,10.9c-6.5,1.7-13,3.5-19.4,5.3l0.9,0.9
		c-0.8,2.1-1.8,4.2-2.9,6.1c-3,4.7-9.5,8.3-4.2,15.3c0.2,0.2,0.4,0.3-0.2-0.1c6.5-6.8,12.4-14.1,19.5-20.1
		c7.9-6.7,20.4-9.8,26.2-7.7c-5.5,3.1-10.9,5.8-16,9c-16.4,10-24.7,26.7-33,42.6c-9.3,17.7-12.8,37.6-13.6,57.5
		c-1.3,30.5-1.7,61.1-2,91.7c-0.3,14.7,2.5,29.4,8,43c2.3,5.5,4.6,11,7.3,17.4l-6.4-2.6c0,5-0.1,9.8,0,14.6c0.1,3.7-0.2,8.1,5.9,7.2
		c0.7-0.1,1.5,0.9,2.3,1.1c6.3,1.9,12.6,3.7,19.4,5.7c-2.7-9.9-5.1-18.3-7.4-26.8c-1-3.8-3.6-7-4.9-10.3c-3.2-7.7-4.2-16.4-6-24.7
		c-0.2-0.9-0.1-1.8,0.2-2.6c2.6-5.9,1.6-11.8-0.1-17.7c-0.1-0.8-0.2-1.7-0.2-2.6l1.1-0.3c3.2,16,13.7,28.8,18.2,44.4
		c1.5,4.6,3.8,8.9,6.9,12.6c6.2,8,15.6,10,24.9,11.6c2.2,0.4,4.3,1.1,6.4,1.6l-0.2,1.4c-3.8,2.2-8,1.8-12.1,0.8
		c-18.1-4-26.6-16.6-29.6-34c-1.1,3.4-2.3,6.4-3.1,9.4c-0.3,1.2-0.1,2.5,0.4,3.7c3.6,8.3,7.6,16.5,11,25c2.1,5.3,5.9,6.8,11,6.8
		c7.5-0.1,15,0.2,22.5-0.4c13.3-0.9,26.6-2.4,39.8-3.6c14.1-1.3,28.3-2.6,42.4-3.6c4.1-0.3,6.7-1.7,8.1-5.4
		c3.2-8.2,6.9-16.3,9.5-24.7c6.6-21,16.4-40.9,20.4-62.7c1.2-6.6,2.7-13.2,4.1-19.8c3.8,32.9-10.3,62-19,92.5
		c4.4-4.7,8.3-9.7,11.7-15.1c12.3-19.9,17.1-42.1,18.7-65c1.2-17.1,0.8-34.4,1.4-51.5c0.1-4.3,1-8.7,1.5-13h2
		c0.9,6.3,2.2,12.6,2.7,19c0.6,10.4,0.6,20.8,1,31.3c0.1,2.1,1,4.2,1.8,7c6-9,2.1-102.9-4.8-110.6
		C718.5,445.6,719,461.6,719.5,478.7z M823.2,482.9c11.5-8.6,22.8-16.5,36.1-20.9c1.1-0.4,1.9-1.2,2.4-2.2
		c5.5-12.3,12.9-23.3,21.5-33.7c2.4-2.9,5.5-6.2,2.4-10.7c-0.6-0.9-0.2-2.6-0.3-3.9c-0.5-4.9-1.1-9.9-1.6-14.8
		c-0.5-4.5-1-9.1-1.6-14.2c-4.2-1.1-9.3-2.5-14.4-3.8c-11-2.9-21.9-5.6-33.4-4.9c-10.2,0.6-20.5,0.8-30.8,1.1
		c-8.9,0.1-17.5,2.6-25.1,7.1c-2,1.2-3.7,3-5.8,3.9c-10.4,4.5-18,12-23.6,21.6c-1.6,2.8-3.1,4.7-7.5,2c3.2,6.6,0.6,11.5-0.8,16.8
		c-2.5,9.4-5.2,18.8-6.3,28.3c-2.4,20.8-3.6,41.8-5.6,62.7c-1.9,19.3-2.9,38.6,1,57.8c0.3,1.7,0.1,4.6-0.9,5.2
		c-4.4,2.5-2.5,6-2.2,9.2c1.1-1.1,2-2.3,2.7-3.6c6.7-10.5,13-21.3,22.7-29.6c7.4-6.3,14.6-12.8,21.3-19.8c4.5-4.7,9-9.8,12.1-15.4
		c8.2-14.9,19.4-27.2,31.5-38.9C819.1,480,821.3,478.7,823.2,482.9z M1048.8,515.2l0.3,0.1c4.2-3.9,7.9-8.5,12.6-11.6
		c12.1-8.1,24.3-16,36.9-23.1c10.7-6,22.1-11.2,35.1-9.8c0.3,0,0.7-0.4,0.6-0.3c0.5-2.7,1.2-5.4,2.1-8c2.4-6.5,1.2-10.4-4.5-14
		c-0.9-0.5-1.7-1.1-2.5-1.8c-13-12.8-27.3-22.7-46.6-22.2c-0.4,0-0.9-0.2-1.3-0.2l-34.7-1.5c-4.4-0.2-8.8-0.1-13.1-0.6
		c-1.6-0.2-3.1-1.8-4.6-2.7c0-0.5,0.1-1,0.1-1.5c-3.1,1.5-6.2,3.1-9.3,4.6s-6.5,4.6-9.8,4.6c-8.4,0.1-15.1,3.4-21.3,8.3
		c-7.9,6.3-15.4,13.4-17.2,23.7c-1.2,6.7-3.7,12.5-6.5,18.4c-1.5,3-2.5,6.2-3.9,9.3c-1.1,2.5-0.5,3.6,2,5.1
		c8.3,4.9,16.9,9.7,24.3,15.8c12.6,10.3,26.6,18,40.7,25.4c8.7-9.1,13.1-22.1,27.3-26.7C1052.8,510,1050.8,512.6,1048.8,515.2z
		 M952.7,478.1c0.6-1.5,1.3-3.1,2-4.5c3.7-6.3,6.2-13.9,11.3-18.7c10.6-9.8,19.7-20.3,26.1-33.3c3.3-6.7,1.8-13,0.5-19.5
		c-0.3-0.8-1-1.5-1.8-1.8c-3.2-1.4-6.3-3.4-9.7-3.9c-6.6-1-13.4-1.2-20.4-1.8c0.5-4.3-2.4-4.2-5.6-4.4c-14.8-1.1-28.1,3.4-40.7,10.6
		c-3.8,2.2-7,5.3-9.4,9c-2.7,4-6.1,7.5-10,10.3c-4.3,3.2-6.2,7.1-6.8,12.2c-0.3,2.2-1.1,4.4-2.3,6.3c-4.5,7.5-9.3,14.8-13.9,22.1
		l36.9,13c0.3,1.9,0.2,3,0.6,3.5c3.3,3.3,6.8,5.2,12,3.9c4.2-1.1,8.8-0.5,13.1-1c1.9-0.2,3.7-1.1,5-2.5
		C943.4,472.9,949.7,472.9,952.7,478.1L952.7,478.1z M1200.1,1225.4c0.6,15.4,1.1,30.2,1.6,45c0.9,23.3,1.8,46.7,2.6,70
		c0.1,4.2-0.8,8.4-0.9,12.7c0,2.6,0.7,5.7,4.1,5.7c7,0.1,14.1-0.2,21.1-0.6c1.4-0.2,2.7-1,3.5-2.2c3.2-7.6,6.2-15.4,9.2-23.1
		c1.2-3,2.2-6.1,2.7-9.3c0.8-5.8,1.3-11.6,1.6-17.4c-0.2-1.4-1-2.7-2.2-3.4c-5.8-2.9-8.5-8.1-10.2-13.7c-0.5-2.3-0.2-4.8,0.9-6.9
		c9.2-16.4,18.8-32.5,27.8-49c5.6-10.3,10.5-21.1,9.1-33.5c-0.2-1.4-0.3-3.2-1.2-3.9c-3.3-2.5-11.6,0.3-13.7,3.8
		c-1.3,2.2-3.3,4.6-5.5,5.6c-11.9,5.3-24.1,10.1-36.1,15.2c-1.9,0.9-3.8,1.9-5.7,3.1c-1.2,0.7-2.3,1.8-3.6,2.1
		C1203.5,1225.6,1201.8,1225.6,1200.1,1225.4z M1027.4,1203.3v0.5c15.8,0.7,31.7,1,47.5,2.3c15.5,1.2,31,2.9,46.3,5.4
		c15.4,2.6,31.1,2.8,46.6,0.6c0.9-0.1,1.7,0.1,2.5,0.5c4.1,1.8,8,1.2,11.8-0.8c5.5-2.8,10.9-6,16.6-8.2c6.2-2.4,9.3-7.6,13.1-12.6
		c-3.5,0.2-7,1-10.4,2.2c-4.9,2-9.5,6.1-14.5,6.5c-16.1,1.4-32.2,1.7-48.4,2c-18.7,0.3-37.3-0.1-56,0.1
		C1064.2,1202.1,1045.8,1202.8,1027.4,1203.3L1027.4,1203.3z M1175.4,1155.9c3.7,4.1,6.2,7.3,9.2,10.1c1.2,1.2,3.5,2.3,5,2.1
		c22.7-4,45.3-8.2,67.9-12.4c8.2-1.5,13.6-7,18.9-13C1243.3,1150.8,1209.9,1154.3,1175.4,1155.9L1175.4,1155.9z M1067.9,783.3
		c0.3,0-0.1-0.1-0.2,0c-0.5,0.3-0.9,0.7-1.4,1.1c-8.2,6.5-15.4,14.4-25.4,18.7c-1.4,0.6-1.8,5-1.6,7.5c0.2,1.7,2.1,3.4,3.4,4.9
		c4.8,5.5,9.6,11,14.8,16.2c1.3,1.3,4.2,1.5,6.3,1.4c0.7,0,1.8-2.4,1.9-3.8C1066.6,814,1067.2,798.6,1067.9,783.3z M1387,714.9h0.4
		c-0.8,3.1-1,6.5-2.5,9.2c-2.6,4.5-2.2,9.3-2.3,14.1c-0.8,42.2,1.3,84.3,3.3,126.4c0.3,5.9,0.8,11.7,1.2,17.7L1387,714.9z
		 M1028,773.3c4.5-3.8,9.2-7.2,13.4-11.3c11.1-10.8,21.8-21.8,32.9-32.6c4.3-4.2,3.2-9.3,3-14.4l-21.1,23.2l-0.8-0.6l6.7-10.4
		c-0.9,0-1.8,0.3-2.3,1c-6,5.6-11.9,11.1-17.8,16.8c-0.9,0.9-1.3,2.3-2.1,3.9h6.1C1037.3,755.7,1030.7,763,1028,773.3z M872.5,815.5
		l0.5-2.1c-2.4-1.1-4.8-2.5-7.3-3.2c-15.2-3.9-30-9.5-44-16.6c-9.2-4.8-18.8-9.1-28.2-13.5c-1.4-0.5-2.8-0.8-4.3-1
		c0.1,1.7,0.5,2.3,1.1,2.7c11.6,6.8,23.2,13.9,35,20.4c11.2,6.2,23.4,10.4,36.1,12.5C865.1,815.3,868.8,815.3,872.5,815.5z
		 M1088.7,662.3l-1.4-0.4c-15.9,20.4-29.4,42.1-37.8,68.2c11.7-16.2,23.3-31,33.4-46.8C1086.6,677.6,1086.8,669.4,1088.7,662.3z
		 M1183.3,1168.2c-3.4-3.7-6.4-7.3-9.7-10.5c-1.2-0.9-2.6-1.3-4-1.2c-21.2,0.2-42.5,0.4-63.8,0.8c-1.6,0-3.2,0.2-4.8,0.3
		c7.5,0.8,14.9,1.7,22.3,1.7c9.2-0.2,18.4,1.8,26.7,5.8C1160.3,1170.1,1171.1,1172.3,1183.3,1168.2L1183.3,1168.2z M983,1166.8
		c2.1,1.4,4.5,2.2,5.3,3.8c2.2,4.3,5.9,3.7,9.5,3.6c14.1-0.4,28.2-0.6,42.2-1.4c9.2-0.6,18.3-2.3,27.4-3.6c1-0.3,1.9-0.6,2.8-1.1
		c-6.5-1.3-12.8-1.4-19.1-1.9c-12-1-23.9-1.7-35.8,1.8c-4.7,1.3-9.5,1.8-14.4,1.5C995.2,1169.2,989.5,1167.8,983,1166.8z
		 M1071.8,764.6c-16.2,8.8-28.3,23.2-45.8,29.1c-0.3,0.1-0.4,1.2-0.6,1.8c0.7,0.2,1.4,0.4,2.1,0.5c0.8,0.1,2.2-0.3,2.5,0.1
		c2.4,3.4,5.3,2.4,8.1,1.1c2.4-1.1,4.7-2.4,6.7-4.1c7.7-6.4,15-13.2,22.8-19.4C1071,771.3,1072.2,768.7,1071.8,764.6L1071.8,764.6z
		 M1074.9,747.7c-14.6,10-28.8,20-43.3,29.6c-4,2.6-4.6,5.8-4.6,10.6c2.1-1.3,3.8-2.1,5.2-3.2c11.9-8.3,23.4-17.2,35.8-24.6
		C1073.8,756.7,1074.5,752.7,1074.9,747.7L1074.9,747.7z M498.4,592.9c2.6,20.9-2.6,40.4-10.3,60l9.3-1.4
		c1.2-10.7,2.1-21.2,3.5-31.6C502.2,610.8,503.4,601.7,498.4,592.9z M1189.8,1270.9l0.9-0.3c-0.1-1-0.1-1.9,0-2.9
		c1.6-7.5-0.5-13.4-7-18c-3.5-2.4-6.3-5.8-9.4-8.7l-1.3,0.7c0.6,3.7,0,8,1.9,10.8C1179.2,1259.1,1184.7,1264.8,1189.8,1270.9
		L1189.8,1270.9z M1035.4,539l8.1,7.5c1.2-13.3,8.4-22.5,16.3-32.1C1047.8,519.3,1039.1,526.2,1035.4,539z M1191.1,1249.9
		c0.5-7.7,1-14.8,1.6-23.1l-14.4,3.8L1191.1,1249.9z M1317.3,550.6c-7.7-9.3-16-16.2-27.2-18.8
		C1296.7,541.2,1304.1,549.3,1317.3,550.6L1317.3,550.6z M485.3,643.8c-6.4-2.1-5.7-6.6-3.6-11.9c-2.7,9.3-10.1,13.9-17.7,19
		C475.2,655.1,479.7,652.2,485.3,643.8L485.3,643.8z M1191.1,1329.8c0.2-6.1,2.2-12.1-4.3-16.5c-3.9-2.6-6.5-7.2-9.6-10.9l-1.2,0.4
		c0.6,2.8,0.6,6,1.9,8.3c2.4,4.1,5.8,7.6,8.6,11.5C1188.1,1324.9,1189.6,1327.4,1191.1,1329.8L1191.1,1329.8z M1097.6,418.2
		c-9.2-6-30.2-11.2-36-8.9C1073.4,413,1083.7,420.4,1097.6,418.2L1097.6,418.2z M929.2,817.3c0.2,0.6,0.4,1.3,0.5,1.9
		c3.1,0,6.2,0.2,9.3,0c8.1-0.5,10.1-3.2,8.8-12C940,807.8,937.1,816.8,929.2,817.3z M1355.3,588.1l-1,0.6l16.1,38.7l1.1-0.5
		C1370.4,612.2,1361.8,600.6,1355.3,588.1z M685.7,648.3c4.2,0,7.6,0.1,11-0.1c1-0.1,1.8-0.7,2.3-1.5c1.9-5,3.6-10,5.6-15.6
		L685.7,648.3z M710.8,670.4l8.6-27.2C710.4,650.3,709.5,660,710.8,670.4L710.8,670.4z M710.6,366.9c4,6,8.6,10.3,17.2,7.1
		c-3.4-2.6-6.6-4.7-9.5-7.3C715.6,364.4,713.3,364.1,710.6,366.9L710.6,366.9z M1190.1,1282.8l-15.6-14.6l-1.1,0.9
		c3.1,7.8,10.8,12,16.6,17.9L1190.1,1282.8z M939.2,378.1v-2c-6.8,0-13.6-0.1-20.4,0.1c-1.1,0-2.2,0.8-3.3,1.3
		c1.1,0.7,2.2,2.1,3.2,2C925.6,379.2,932.4,378.6,939.2,378.1z M1175.6,1286l-0.7-0.1l15.4,18.2l1.2-0.4c-0.8-2.5-0.8-5.8-2.5-7.4
		C1184.9,1292.4,1180.1,1289.3,1175.6,1286z M917.7,386.2c5.2,5.9,10.1,5.5,17.9-1.3L917.7,386.2z M505.3,399.5
		c2.5-4.4,2.4-8.2-0.6-11.2c-0.7-0.7-2.2-0.5-4-0.9C502.5,392,503.9,395.7,505.3,399.5L505.3,399.5z M1376.2,648.3l2-0.4
		c-0.8-5.5-1.6-11.1-2.3-16.6l-2,0.3C1374.6,637.2,1375.4,642.7,1376.2,648.3L1376.2,648.3z M1302.5,529.3l-0.9,1.8
		c4.9,2.1,8.8,6.2,14.2,7.3l0.8-1.5L1302.5,529.3z M1297.8,1147c0.2,0.3,0.3,0.6,0.4,0.9c2.7-0.8,5.5-1.4,8-2.6
		c0.8-0.4,0.8-2.5,1.2-3.9c-1.1,0.1-2.5-0.1-3.3,0.5C1302,1143.5,1299.9,1145.3,1297.8,1147L1297.8,1147z M671.5,647.4
		c5.9,1.7,7.2-2.3,10-5.3C675.9,640.3,675.1,645.1,671.5,647.4z M691.3,671.3l1,0.2c0.8-3.4,1.6-6.8,2.5-10.2l-1.5-0.8
		c-0.7,1-1.8,1.9-1.9,3C691.2,666.2,691.2,668.8,691.3,671.3L691.3,671.3z M718.6,582.9c3.9-4.8,4.3-7,2.1-11.4
		C719.9,575.7,719.2,579.3,718.6,582.9L718.6,582.9z"/>
	<path class="st1" d="M596.9,1137.3c1.2,0.1,2.5,0.2,3.7,0.2c31.9,0.1,63.8,0.1,95.7,0.2c3.2,0,6.5,0.2,9.7,0.4
		c8,0.4,15.8,0.2,23.2-3.5c2-1,4.2-1.5,6.4-1.5l-8.7,4.8l24.4,1.9v1.4c-10.3,1.8-20.7,1.3-31.1,2.1c-10.2,0.8-20.3,2.7-30.5,4.2
		l-0.3-1.3l4.3-2.6c-0.6-0.2-1.3-0.3-1.9-0.3c-40,0.1-80-0.6-119.9,0.6c-14.2,0.4-28.1-2.2-42.2-1.5c-1.3,0.1-2.8-1.2-4.2-1.9
		c1.3-0.6,2.7-1.6,4.1-1.7c11.7-0.5,23.6,0,35.2-1.3c10-1.2,19.7-4.2,29.5-6.7c37.4-9.5,74.8-19.5,113.1-25.1
		c0.6-0.2,1.2-0.2,1.7-0.2c1.3,0.3,2.5,0.9,3.8,1.3c-1.1,0.9-2,2.5-3.3,2.8c-13.4,3.2-27,6-40.4,9.2c-23.6,5.6-47.1,11.4-70.6,17.2
		c-0.6,0.2-1.3,0.5-1.9,0.7L596.9,1137.3z"/>
	<path class="st1" d="M1109.5,653.8c0.7,0.3,1.4,0.6,2.1,1.1c51.4,41.3,103.5,81.8,151.8,126.9c16.8,15.7,32.4,32.8,48.4,49.4
		c1.6,1.7,2.8,3.7,3.6,5.9c0.3,1-0.6,2.7-1.4,3.7c-0.3,0.3-2.4-0.4-3.1-1.2c-20.7-22.9-42.7-44.6-66-64.8
		c-33.9-29.3-67.9-58.4-101.7-87.9c-11.8-10.3-22.9-21.4-34.4-32.1L1109.5,653.8z"/>
	<path class="st1" d="M606.5,763.4c-3.6,0.2-7.2,0.6-10.9,0.8c-34.2,1.5-68.4,2.9-102.5,4.5c-27,1.2-54,2.9-81,3.8
		c-8.9,0.3-17.8-1-26.7-2.2C459.2,767.5,532.6,757.3,606.5,763.4z"/>
	<path class="st1" d="M1199,955.9c-1.3-0.6-2.5-1.4-3.6-2.3c-21.5-20-43-40-64.5-60c-6.9-6.4-14.1-12.5-20.6-19.3
		c-3.3-3.5-5.7-7.5-10.5-9.7c-4.4-2-1.9-6.7-1.8-10.7c34.3,33.3,70.4,64.7,102.1,100.6L1199,955.9z"/>
	<path class="st1" d="M1207.3,868.2c-40.7-33.9-76.1-73-112.4-111.2c1.1,0.8,2.2,1.6,3.3,2.4c21,15.6,38.4,35,57.3,52.8
		c15.6,14.7,31.2,29.4,47,43.9C1206.2,859.5,1208.3,862.9,1207.3,868.2z"/>
	<path class="st1" d="M710.1,749.3l-149.2,3.3l-0.3-2.1c1.3-0.5,2.5-1.3,3.8-1.4c25.1-1.1,50.1-2.7,75.2-2.9
		c22.7-0.2,45.5,1.2,68.2,1.9c0.9,0.1,1.7,0.2,2.6,0.3L710.1,749.3z"/>
	<path class="st1" d="M614.2,995.7c0-7,0.3-13-0.1-19c-1.1-17.7-2.6-35.4-3.6-53.2c-0.4-6.6,0.1-13.2,0.3-19.8
		c0-0.7,0.8-1.4,1.4-2.6c0.6,1.2,1.3,1.8,1.3,2.6c1.7,14.4,3.7,28.8,4.9,43.3c1.1,12.9,1.3,25.8,1.7,38.7
		C620.3,989.7,619.2,993.4,614.2,995.7z"/>
	<path class="st1" d="M990.1,868c0.5,1.7,1.2,3.4,1.6,5.1c4.6,18.4,6.7,37.3,6.3,56.3c-0.1,4.1,0.4,8.3-0.3,12.3
		c-0.4,2.2-2.4,4.3-4.1,6c-0.5,0.5-2.5-0.2-3.5-0.8c-0.4-0.2-0.1-1.8,0-2.7c0.3-1.3,0.4-2.6,0.5-3.9c-0.6-22.5-1.3-44.9-2-67.3
		c0-1.6,0.1-3.2,0.2-4.9L990.1,868z"/>
	<path class="st1" d="M557.1,910.2c0.3,0.8,0.5,1.5,0.6,2.3c0.6,25.6,1.2,51.3,1.7,77c0,2.8,0.6,7.1-3.2,7c-4,0-3-4.5-3-7.1
		c0.6-25.3,1.3-50.7,2-76c0.1-1.1,0.4-2.2,0.7-3.2L557.1,910.2z"/>
	<path class="st1" d="M751,923.2v-8.4h1c0.3,1.7,0.4,3.3,0.5,5c-0.7,17.7-1.2,35.5-2.2,53.2c-0.1,2.4-2,4.8-3.9,6.9
		c3.4-29.2-3.6-57.9-3.3-86.8l1.8-0.2l5.5,30.5L751,923.2z"/>
	<path class="st1" d="M585.7,918.5c2.4,18.1,5,36.2,7.1,54.4c0.6,4.9-0.3,10-0.9,14.9c-0.2,1.3-1.8,2.4-2.7,3.5
		c-0.8-1.2-2.2-2.4-2.4-3.8c-0.8-6.3-0.8-12.6-1.8-18.8c-2.8-16.8-2.3-33.5-0.5-50.3L585.7,918.5z"/>
	<path class="st1" d="M1387.9,585.1c2.8,2.1,5.1,3.6,7.1,5.4c0.8,0.8,1.4,1.8,1.6,2.9c4.6,20,9.4,40,13.7,60c1,4.6,0.5,9.6,0.5,14.5
		c-0.2,1.2-0.5,2.5-1,3.6l-1.4,0.3c-0.8-2.2-1.9-4.2-2.3-6.5c-1.5-9.5-2.9-19.1-4.2-28.7c-2.3-16.8-6.1-33.2-13.1-48.7
		C1388.4,587,1388.2,586.1,1387.9,585.1z"/>
	<path class="st1" d="M504.2,992.1c0-1.4,0.1-2.8,0.3-4.2c3.8-19.8,2-39.8,1.2-59.7c-0.2-5-0.4-10-0.2-15c0-1.1,1.4-2.2,2.1-3.3
		c0.7,1.1,2,2.2,2,3.3c1,20.2,2,40.4,2.4,60.7c0.1,4.5-1.6,9.2-2.9,13.6c-0.6,1.9-2.4,3.4-3.6,5.1L504.2,992.1z"/>
	<path class="st1" d="M1088,816.2c38.3,40.9,76.7,81.7,115,122.5c-42.8-36.6-77.4-81-116-121.6L1088,816.2z"/>
	<path class="st1" d="M1244,894.3c5.3,3.8,11,7.1,15.8,11.4c10.2,9.1,20.1,18.4,29.8,28.1c3.2,3.2,5.6,7.5,7.9,11.5
		c1,1.7,0.9,4,1.4,6l-1.1,0.5l-54.4-56.5L1244,894.3z"/>
	<path class="st1" d="M760.7,945.5c2.3-9.7,3.7-19.7,7.3-28.8c3.3-8.6,3.2-16.8,2-25.4c-0.2-1.2-0.2-2.3-0.3-3.5
		c0-0.2,0.3-0.4,1.1-1.3c0.6,1.7,1.2,3.1,1.5,4.5c5,22,8.3,44.1,7.5,66.7c-0.2,5.1-2.2,9.1-6.7,11.8c5.1-20,1.4-39.6-1.7-59.4
		c-3,12-5.9,23.9-8.8,35.9L760.7,945.5z"/>
	<path class="st1" d="M647.5,912.5c0.4,2.1,0.7,4.2,0.9,6.3c0.7,19.2,1.4,38.4,2,57.6c0,2.2-0.4,4.4-1.2,6.4c-0.4,1-2.3,1.4-3.5,2
		c-0.4-1.1-1.2-2.2-1.2-3.2c-0.2-16.7-0.4-33.4-0.5-50.2c0-5.3,0.4-10.6,0.7-15.8c0.2-1.2,0.6-2.3,1.2-3.3L647.5,912.5z"/>
	<path class="st1" d="M467.4,915.7c0.3,1,0.6,2,0.7,3.1c0.6,18,1.3,36.1,1.5,54.2c0,3.9-1.5,8-2.9,11.8c-0.4,1.1-2.5,1.7-3.8,2.5
		c-0.3-1.4-1-2.9-0.8-4.3c0.4-5.2,1.4-10.5,1.6-15.7c0.6-15.5,0.8-31.1,1.3-46.7c0.2-1.7,0.5-3.3,0.9-4.9L467.4,915.7z"/>
	<path class="st1" d="M1002.3,965.1c1.6-3,3.1-6.2,4.9-9.1c6.3-10.1,9.5-21,9-33c-0.3-6.4,0-12.9,0.4-19.4c0.1-1.1,1.5-2.2,2.4-3.2
		c0.9,1,2.5,2,2.5,3c0,11.3,0.7,22.7-0.7,33.8c-1.4,11.7-8.4,21-17.3,28.6L1002.3,965.1z"/>
	<path class="st1" d="M900.4,887c4.1,0,5.5,2.3,6,4.9c3.1,15.8,4.7,31.6,2.3,47.6c0,0.1,0,0.3-0.1,0.4c-1.4,2-3.2,5.8-4.3,5.6
		c-3.9-0.7-1.9-4.2-1.6-6.5c1.8-15.9,0.9-31.6-1.5-47.3C900.9,890.3,900.7,888.9,900.4,887z"/>
	<path class="st1" d="M393.7,1153.6c8.1,0.1,8.2,0.1,9.3,7.7c0.3,2.1-0.1,4.2-3.2,4c-2.5-0.1-5,0-7.5,0h-8c0,2.2,0.4,4.5-0.1,6.5
		c-0.4,1.5-2,2.8-3.1,4.1c-1.2-1.2-3.2-2.4-3.4-3.8c-0.3-4.1-0.3-8.2,0.1-12.2"/>
	<path class="st1" d="M895,949.4c-2.1,1.4-4.1,3.7-6.3,3.9c-2.5,0.1-5-0.8-6.8-2.6c-1.6-1.7-2.3-4.8-2.3-7.2
		c0-17.6,0.4-35.2,0.6-52.8c0-0.6,0.3-1.2,0.8-1.6c1.1,8.6,2.4,17.1,3.2,25.7c0.7,7.8,1,15.8,1.2,23.7
		C885.5,946.8,886.4,948,895,949.4z"/>
	<path class="st1" d="M947.1,966.8c2-22.9-0.6-44.5-3.9-66.4C953.5,909.6,956.8,956.9,947.1,966.8z"/>
	<path class="st1" d="M820.3,966.4c0.4-24.6,0.8-48.2,1.1-71.7l2-0.1c0.9,7.8,2.3,15.7,2.7,23.6c0.5,10.8,0.4,21.7,0,32.6
		c-0.2,4-1.8,8-3,11.9C822.8,963.8,821.6,964.8,820.3,966.4z"/>
	<path class="st1" d="M792,878c1.4,0.9,2,1,2,1.3c2.1,9.2,4.6,18.4,6.2,27.8c1.3,7.8,0.1,16.1,2.3,23.5c2.2,7.2,1.7,14.1,1.5,21.2
		c0.1,4-2.2,7.7-5.9,9.3C802.7,932.9,795.9,906,792,878z"/>
	<path class="st1" d="M1218.8,692l99.9,69C1281.9,742.5,1249.5,717.5,1218.8,692z"/>
	<path class="st1" d="M429.4,922.5c-0.1,1.1-0.1,2.3-0.2,3.4c-2.2,21-4.5,41.9-6.8,62.9c-0.2,1.6-1.4,3.1-2.1,4.7
		c-1-1.6-3-3.2-2.9-4.7c0.7-8.3,1.6-16.6,2.9-24.8c2-12.3,4.5-24.5,6.8-36.7c0.4-1.7,0.9-3.3,1.5-4.9L429.4,922.5z"/>
	<path class="st1" d="M320.2,671l105.1,5.5l-0.1,1.1c-35.1-0.2-70.1-1.3-105.1-4.8L320.2,671z"/>
	<path class="st1" d="M694.4,978c-2.4-20.7-2.2-41.4-0.7-62.1h2.3c1.1,20.7,2.3,41.4,0.6,62.1H694.4z"/>
	<path class="st1" d="M1038.3,882.7c7.2,13.9,4.9,52-3.5,56.8C1036,920.5,1037.2,901.6,1038.3,882.7z"/>
	<path class="st1" d="M848.9,882.6c0.5,5,1,10,1.3,15.1c0.8,11.5,1.7,23.1,2.1,34.6c0.1,3.5-1.2,7.1-1.8,10.7l-2.1-0.2v-60.1
		L848.9,882.6z"/>
	<path class="st1" d="M1376.5,563.6c-9.7-11.8-20.2-24.8-30.9-37.8C1363.5,532.8,1370.3,548.8,1376.5,563.6z"/>
	<path class="st1" d="M715.6,953.4c0-16.7-4.6-33.2-2.1-51C717.7,908.1,719.3,947.7,715.6,953.4z"/>
	<path class="st1" d="M383.6,922.9c3.8,14.4-0.5,28.9-0.1,43.3C382.7,951.8,378.4,937.4,383.6,922.9z"/>
	<path class="st1" d="M925.6,941.7c-2.1-18.1-4.1-36.2-6.2-54.3l1.1-0.1c2.2,18.1,9,35.7,6.3,54.4H925.6z"/>
	<path class="st1" d="M785.6,958.8l-1.5-51.8c4.1,17.1,4.3,34.4,3.5,51.8L785.6,958.8z"/>
	<path class="st1" d="M627,681.9h-69v-0.5h69.1L627,681.9z"/>
	<path class="st1" d="M514.8,703l66.7-1.8v1.5l-66.7,1.6C514.8,703.9,514.8,703.5,514.8,703z"/>
	<path class="st1" d="M451.5,969.7v-33.3c2.3,10.9,3,22.1,1.9,33.3L451.5,969.7z"/>
	<path class="st1" d="M1136,966.9l8,14.6l-2,1.1l-7.3-15L1136,966.9z"/>
	<path class="st1" d="M979.6,1149.9l-11.2,2.6C971.3,1148.1,974.3,1147.3,979.6,1149.9z"/>
	<path class="st1" d="M436.7,708H419v-0.4l17.7-0.8V708z"/>
	<path class="st1" d="M492.3,960.4v-12.6h0.8v12.6L492.3,960.4z"/>
	<path class="st1" d="M813.2,529.9c-0.5,8.6-0.4,17.2-1.8,25.7s-4.4,16.3-6.7,24.7c3.9-1.9,7-4.6,10-4.5c4.6,0.1,4,4.9,4.6,9.3
		c10.3-7.9,22-11.3,34.1-12.2c11.7-0.8,23.8-2.6,34.5,4.2c0,0.4-0.1,0.9-0.2,1.3c-3-0.3-6-0.6-9-0.9c-19.5-2-38.4,0.5-56.3,8.5
		c-2.2,1-4,3.1-5.6,5.1c-2.6,3.2-4.5,7-7.3,9.8c-1.4,1.5-5,2.7-6.3,1.9c-1.7-1-2.8-4.1-3.1-6.4s0.7-4.8,1.2-8l-35.8,17
		c6-8.6,14.5-14.1,24.6-17.4c4.3-1.4,8.1-3.3,9.8-7.8c0.5-1.2,0.8-2.4,1-3.7c0.5-5,0.1-10.3,1.3-15.1c2.7-10.8,6.3-21.3,9.5-32
		L813.2,529.9z"/>
	<path class="st1" d="M892,698.9c-12.2,9.8-22.5,21.7-30.5,35.1c-6.5,11-12.3,22.3-17.3,34c-2.4,5.6-2.4,12.2-3.6,18.4
		c-0.4,1.1-0.8,2.2-1.5,3.2c-1-0.9-2.5-1.6-2.8-2.7c-1.5-5.9-2.2-11.6,0-17.7c6.7-18.5,15.3-36,28.1-51
		C870.3,711.3,884.8,701.5,892,698.9z"/>
	<path class="st1" d="M938.8,678c-2.4,0-4-0.4-5.3,0.1c-6.7,2.5-13.3,5.2-20.1,7.5c8.2-3.6,14-11.7,24.2-13c0.2-1.4,0.4-3.2,0.6-5.5
		c-4.8,1.7-5.1-0.8-4.9-4.3c0.2-3.8,1.2-7.2,4.3-9.7c3.2-2.4,5.6-5.6,6.9-9.3c1.5-4.4,4.7,0.1,6-0.5c1.4,2.2,2.1,4,3.3,5.3
		c5.5,5.7,2.2,17.8-6.4,20.5c-4.8,1.5-6.4,4.4-8.1,8C939.2,677.4,939,677.7,938.8,678z"/>
	<path class="st1" d="M857.5,536.8c-1.2,1-2.3,2.1-3.5,3c-12.7,10.3-25.5,20.7-38.2,31c-0.7,0.7-1.5,1.4-2.4,2
		c-0.8,0.4-2.4,0.8-2.7,0.4c-0.6-0.9-0.9-1.9-0.7-3c0.5-1.4,1.3-2.7,2.3-3.7c10.8-11.5,22.3-22.1,37.2-28.2c1.9-0.8,3.9-1.4,5.8-2
		c0.5-0.1,1.1-0.2,1.7-0.2L857.5,536.8z"/>
	<path class="st1" d="M938.5,600.6c-2.2,3.7-4.2,6.4-5.6,9.3c-1.2,2.6-2.6,5.5-2.5,8.3c0.4,10.7,1.4,21.3,2.1,32
		c0.1,1.5-0.7,3.1-1,4.7c-1.3-1.1-3.4-2.1-3.7-3.4c-1.5-6.5-2.7-13.2-3.5-19.8c-0.5-4.2,0.3-8.5,0.3-12.8c0-8,5-12.8,10.6-17.3
		C935.8,601.2,936.7,601.1,938.5,600.6z"/>
	<path class="st1" d="M1020,576.4c-19.8,12.4-41.1,22.8-55,42.6l-1.3-1.2c3.7-4.9,7-10.1,11-14.6c9.6-10.8,21.4-18.7,34.1-25.4
		c3.2-1.7,7-2.1,10.5-3.1L1020,576.4z"/>
	<path class="st1" d="M954.6,680.1c10.4-11,22.2-19.1,38.2-18.3c5.2,0.3,7.4,2.9,6.2,7.2C982.2,665.2,968.9,674.3,954.6,680.1z"/>
	<path class="st1" d="M743.8,679.4c3.1-33.6,24.6-55.2,48.6-75.1C768.9,624.5,750.6,648.2,743.8,679.4z"/>
	<path class="st1" d="M801.6,609.1c-1.5,13.1-3.2,27.3-4.8,41.6C792.6,642.5,796.5,614.7,801.6,609.1z"/>
	<path class="st1" d="M954.5,636.5v-10.9h5.5l-4.5,11.1L954.5,636.5z"/>
	<path class="st1" d="M798.2,386.8c8.6-10,20.6-11.1,32.7-11c3.3,0,4.5,3.5,3.3,7.6c-3.3-4.2-7.7-2.9-11.7-2.1
		c-6.5,1.4-13,3.6-19.4,5.4c-1.5,0.4-3,1-4.4,1.4L798.2,386.8z"/>
	<path class="st1" d="M748.3,474.2c-2.2,20-4.5,40-10.5,59.2l-1.5-0.2c1.8-9.9,3.7-19.7,5.4-29.6s3.2-19.7,4.8-29.6L748.3,474.2z"/>
</g>
<g>
	<path d="M668.1,776.6l-18.4,7.7c0.1,0.4,0.2,0.7,0.3,1.1c1-0.2,2-0.4,3-0.5c3.4-0.4,6.6-1.1,10.3,0c3.2,1,7.1-0.4,10.6,0
		c6.2,0.7,10.4-2.5,14.4-6.4c3.1-3,6.4-5.8,9.5-8.8c2.8-2.8,1.6-10.9-1.9-13.4c-2.5-1.8-5.2-3.2-8.5-2.8c-6,0.6-12.2,2.2-17.9,1.2
		c-5.8-1-8.9,1.7-12.7,4.4c-7.6,5.5-15.5,10.7-22.7,16.7c-3.2,2.6-5.8,5.9-9.7,7.6c-0.9,0.4-1.9,1.1-2.8,1.2c-1.5,0-2.9-0.1-4.4-0.3
		c0.6-1.4,0.9-3.3,2-4.1c7.3-5.3,14.8-10.4,22.3-15.6c0.7-0.5,1.4-1.1,2.6-2.1h-5.8c0.8,3.4,0.2,4.1-3.1,3.5
		c-1.9-0.2-3.9-0.6-5.7-1.1c-1-0.3-1.8-1.3-2.7-2c0.9-0.6,1.7-1.4,2.7-1.6c5.7-1.2,11.4-2.4,17.2-3.2c5.4-0.7,9.6-3.7,13.7-6.7
		c2.8-2.3,6.4-3.5,10-3.2c8.5,0.5,17,0.2,25.5,0.1c0.9,0,1.8-1.3,3-2.2c-22.5-1.8-43.8-0.6-64.2,7.9c-1.6,0.7-3.2,1.3-4.9,1.6
		c-6.7,1-10,5.8-13.9,10.7c-5.1,6.5-3.7,13.6-4,20.6c-0.3,8-0.4,16.1-0.6,24.1c0,0.4-0.3,0.7-1.2,1.1c-0.2-1.3-0.5-2.7-0.6-4
		c-0.5-7.3-0.4-14.7-1.6-21.9c-1-6.4-3.1-12.8-5.3-18.9c-1.7-4.7-5.3-7.9-10.1-9.9c-32.7-13.3-67.1-16.6-101.9-16.7
		c-13-0.2-25.9,2.4-37.9,7.6c-5.8,2.5-11.6,4.9-14.5,11.3c-2.8-3.1-2.7-5.3-0.1-8.4c5.3-6.2,12.2-10.1,19.5-13.2
		c10.9-4.5,22.5-6.9,34.2-7.1c12.3-0.3,24.5,0.4,36.8,0.5c2.2,0,4.5-0.9,6.7-0.9c5.9,0,11.9,0.3,17.9,0.3c1.9,0,4.1,0,5.5-1
		c5.5-3.8,10.6-7.9,15.9-11.9c1.6-1.3,1.5-2.6,0.9-4.5c-7.3-21-14.6-42.1-21.8-63.2c-0.5-1.4-0.8-2.9-0.9-4.4c0-1.5,0.6-4.1,1.1-4.2
		c1.6-0.2,4,0.1,5,1.1c3.5,3.6,7.1,7.3,9.8,11.5c7.1,10.9,13.7,22,20.6,33c0.5,0.8,1.1,1.6,2.2,3.4c2.4-21.4-0.8-41.4-4-61.4
		l-13.4,1.4l-0.5-1.6c2.4-1.2,4.9-2.6,7.3-3.7c5.8-2.6,6.1-3.2,3.4-9.4l-2.3,1.8l-0.7-0.4c1-2.5,1.6-5.4,3.2-7.4
		c8.8-10.9,17.6-21.8,28.9-30.2c0.7-0.5,1.2-1.3,1.4-2.2c0.4-7.1,0.9-14.1,1.1-21.2c0.1-6.1-3-11.3-5.8-16.3
		c-1.1-1.9-3.4-3.1-5.4-4.9l9.7-8l-0.5-1.3c1.1,1.4,2.1,3.1,3.4,4.3c9.9,8.1,20.6,15.3,33.4,17.9c10.3,2,20.8,0.9,30.9-2.4
		c1.7-0.7,3.5-1.2,5.3-1.6c1.4-0.1,2.8,0.4,3.9,1.4l35.6-5.8l-15.9-19.5l0.3-0.2c3.7,2.5,7.3,5.1,11,7.6c0.9,0.7,2,1.1,3.1,1.4
		c3.7,0.7,7.4,1.6,9.1,5.7c0.9-2.4,1.6-4.4,2.4-6.7l7.6,8.6l1.1-0.6c-0.6-2.6-1.2-5.2-1.9-7.7c-1.5-5.3-1.5-5.3,3.2-8.3
		c-0.9-2.1-1.8-4.4-2.8-6.5c-6.6-13.3-6.3-27.6-3.7-41.5c2.1-11.3,3.4-22.4,2.2-33.8c0-1.1,0.2-2.3,0.4-3.4l1.5-0.1l2.4,19
		c2.8-4.2,6.5-6.9,5.8-12.5c-0.8-6.2-0.4-12.5-1.2-18.7c-0.3-2.3-1.9-4.7-3.4-6.5c-3.5-4.3-7.4-8.4-11-12.5c1,7.4,1.9,14.8,2.9,22.3
		l-1,0.5c-0.9-1.2-1.8-2.5-2.5-3.8c-4.2-9.6-8.3-19.2-12.5-28.7c-2.2-5-5.5-8.9-10.5-11.4c-2.8-1.4-5.3-3.5-8-5.4
		c-10.3-7-22.3-9.3-34.2-11.7c-23.1-4.5-46.4-6.3-69.8-6.5c-31.1-0.2-62.2-0.5-93.3-0.8v-0.9c14.9,0,29.8,0.3,44.6-0.1
		c17.9-0.4,35.7-1.3,53.6-2.2c2.6-0.1,5.1-1.4,7.5-2.7c-3.5-3-7.6-2.4-11.4-2.4c-25.2,0.2-50.5,0.4-75.7,1.1
		c-18.4,0.6-36.8,2-55.2,3.1c-4.3,0.3-8.6,1-12.9,1.6c-1.2,0.2-2.2,1.2-3.4,1.8l0.3,0.8c-10.9,0.6-21.7,1.4-32.6,1.7
		c-3.2,0.1-6.6-1.2-9.9-1.9l-0.3-1.6c3.5-1.6,6.9-4.1,10.6-4.9c7.3-1.5,14.7-2.5,22.1-3.1c40.9-3.5,81.8-3.3,122.8-3.7
		c14.7-0.1,29.4-0.6,44.1-0.3c39.9,0.6,79,5.8,116.3,20.6c14.2,5.7,27.7,13.2,41.4,20.2c3.1,1.6,5.7,4.3,8.4,6.6
		c0.7,0.6,1.2,1.4,1.2,2.3c-0.5,4.1,1.8,5.8,5.2,6.7c0.2,5.5,0.1,5.8,5.4,6.3c13,1.2,26,2.2,39.1,3.2c6.7,0.6,13.5,1.1,20.2,1.8
		c1.3,0.1,2.6,0.7,3.6,1.5l-6.3,0.5l-0.1,0.8c4.5,0.8,9,1.7,13.6,2.3c13.1,1.9,24.6,7.6,35.6,14.6c3.2,2,5,4.8,7,7.7
		c4.1,6.1,8.1,12.2,12.7,18c2.9,3.7,6.8,6.6,10.4,9.7L913,448.5l0.9-0.7c5.2,4.9,10.4,9.8,15.8,14.5c4.6,4.1,9.6,7.9,14.2,12
		c2,1.8,4.1,3.8,5.1,6.2c4.2,9.2,8.4,18.4,8.5,28.8c0,2.4,1.2,3.6,3.7,3.4c1,0,2.1,0,3.1,0.1c7.7,0.4,7.7,0.4,9.6,8
		c9.8-3.3,20-2.9,30.2-3c13.4-0.1,25.7,3.2,36.5,11.1c6.1,4.5,13,7.1,19.5,10.6c4.9,2.6,9.4,6.1,13.9,9.4c3.5,2.4,6.7,5.1,9.8,8
		c2.4,2.3,4.5,5.1,6,8.1c2.7,5.5,3.2,12,8.6,17.2c-1-7.5-1.9-14.3-2.9-21.1l1-0.3c2.7,7.5,6,14.8,8,22.5c2,7.7,2.9,15.7,4.3,23.8
		c7.2-0.9,13.9-1.3,20.5-2.7c10.7-2.2,21.2-5,31.8-7.3c2.2-0.4,4.5-0.2,6.7,0.4c16.5,5,31.6,12.9,45.6,23c0.5,0.2,1,0.4,1.5,0.5
		l-19.5-26.6l1.1-1c2.6,2.5,5.4,4.8,7.6,7.5c6,7,11.7,14.2,17.3,21.4c7.4,9.4,14.8,18.7,21.8,28.3c2.6,3.5,3.9,8,5.9,11.9
		c0.7,1.4,1.6,2.7,2.7,3.9c6.5,7.3,13.8,13.9,19.3,21.9c4.7,6.8,7.4,14.9,10.9,22.5c2.3,5.1,4.2,10.5,6.6,15.5
		c3.3,6.7,4.8,14.1,4.5,21.6c-0.6,17.6-2,35-7.8,51.9c-0.9,2.7-1.7,5.5-2.6,8.2c-3.1,9.3-8.1,17.8-14.6,25.1
		c-5.3,6.1-9.9,12.9-14.8,19.4c-0.4,0.5-1,0.9-1.6,1.2c-0.6,0.3-1.3,0.4-1.9,0.7c-5.9,2.4-6.9,5.3-3.1,10.4
		c3.6,4.9,7.2,9.9,11.7,13.9c6.9,6.2,10.6,13.8,12.5,22.7c1.1,5.1,1.9,10.2,3.4,15.1c1.5,4.9,3.7,9.5,5.5,14.3
		c1,2.8,1.9,5.6,2.9,8.4l1-0.2c-3.1-14.3-6.3-28.6-9.4-42.9c3.6,5.8,10.9,30.2,13.2,46.5c2.3,16,5.7,32.1,5.3,48.1
		s0.6,32.3-3.8,48.1h-1.1c-0.2-1.1-0.3-2.2-0.3-3.4c0.2-13.1,1.1-26.2,0.4-39.2c-0.6-10.1-3.2-20.1-4.9-30.1
		c-0.2-1.6-0.8-3.2-1.7-4.5c0,2.1-0.1,4.2,0,6.3c0.5,12.5,1,25,1.5,37.5c1.1,28-8.3,52.9-22.7,76.4c-6.7,10.9-13.7,21.8-19.4,33.3
		c-3.2,6.6-8.3,10.9-12.5,14.9c0,2,0.1,4,0.3,6c0.7,4.1-1.2,6.1-5,7.1c-1.7,0.3-3.2,1.1-4.5,2.3c-2.3,2.4-4.2,5-8.1,3.6
		c-1-0.2-2,0.1-2.7,0.8c-1.7,2.7-3.2,5.6-4.4,8.6c-1.4,4.1-2.5,8.3-3.4,12.5c-0.6,2.5-0.6,5.1-1.1,7.7c-2.1,11.9-7.4,22.3-14.6,32
		c-3.4,4.5-6.5,9.2-9.5,13.9c-0.7,1.2-1,2.5-0.9,3.9c0.5,9.6,1.1,19.2,1.9,28.8c0.5,6.5,1.5,13,2.1,19.5c0.2,2.4,1.3,3.7,3.5,4.9
		c4.3,2.4,8.4,5.1,12.3,8c1,0.9,1.5,2.2,1.5,3.5c0.2,12.1,0.8,24.2,0,36.2c-0.5,7.5-2.9,15-5.1,22.3c-1.5,4.8-4,9.2-6.3,13.7
		c-0.8,1.3-2.1,2.3-3.5,2.9c-7.3,3.5-14.3,3.2-21.9-0.3c-3.2-1.5-4.8-3.2-5.9-5.8c-0.5-1.2-0.1-2.9-0.1-4.3c0-3.5,0.2-7,0-10.5
		c-0.3-1.8-0.9-3.6-2-5.1c-6.1-9.5-8.8-20.4-12.4-30.9c-0.2-0.5-0.5-1-0.8-1.9c-2.3,2.6-4.3,1.3-6.3-0.3c-0.9-0.7-1.6-1.6-2.4-2.4
		c-3.9-3.6-7.8-6.7-13.3-7.9c-8.2-1.8-14.8-7.1-21.4-12.2c-1.1-1-2.4-1.7-3.8-2.2c-5-1.2-9.4-4.1-12.5-8.1
		c-5.1-6.4-9.9-13.1-14.9-19.7v5.6l-1.1,0.3c-1.4-2.9-3.1-5.7-4.2-8.7c-7.4-20.5-13.2-41.6-17.5-63c-1.5-7.2-1.5-7.2-9-7.3
		c-17.2-0.1-34.4,0-51.6-0.3c-28.3-0.5-56.1-0.1-84.5-0.4c-21.8-0.2-45.1,0.3-66.8,1.4c-44.8,2.3-88.8-0.1-133.6-0.8
		c-12.6-0.2-25.2-1.9-37.7-3c-7.1-0.6-14.1-1.3-21.2-1.7c-1.1-0.1-2.3,0.9-3.5,1.5l0.1,1.3l6.7,2.5c-18.6-0.7-36.7,0.4-54.3-4.8
		c-3-0.9-5.5-3.7-8-6.2c17.4,5.8,35,2.6,52.6,2.7c-0.9-5.3,0.2-6.3,5.3-6.4c15-0.3,30-0.8,45-1.3c19.6-0.7,39.2-1.9,58.8-2.1
		c53.2-0.6,106.5-0.9,159.7-1.1c12.7-0.1,25.4,0.6,38.1,0.9c2.7,0.1,5.3-0.1,8-0.5l-11.7-2.6l0.1-0.6l73.6-1.6c0-0.4,0-0.9,0-1.3
		c-5.8-0.4-11.5-0.9-17.3-1.1c-42.4-1.8-84.8-3.9-127.2-5.4c-31.9-1.1-63.8-1.6-95.7-2.2c-1.3,0-2.5,1.2-3.9,1.6
		c-1.5,0.6-3,1-4.6,1.2c-10.2,0.8-20.4,1.5-30.6,2.2c-22.4,1.4-44.9,2.8-67.4,4.1c-1.6,0.1-3.2,0.2-5,0.3c3-2.4,13.6-4.6,27.1-5.6
		c9.4-0.7,18.7-1.6,28-3.1c-7.2,0-14.4-0.1-21.6,0c-22.1,0.3-44.3,0.7-66.4,0.7c-4.9,0-9.9-1.8-14.8-2.9c-0.8-0.2-1.3-1.3-2-1.9
		c0.8-0.6,1.5-1.5,2.3-1.6c3.1-0.4,6.2-0.6,9.3-0.7c22.1-1.1,44.2-2.1,66.3-3.2c6.4-0.3,12.8-0.9,16.3-1.2l-177.5-4.6
		c0.9-1.9,2.9-2.2,5.2-2.2c10.7,0.1,21.3,0.1,32,0.1h4c-2.7-26.7-8.3-52.5-13-78.5c6.9,25.7,14.1,51.3,16.9,78.9l21.2-4.2
		c3.7-5.6,9.4-2,14.9-3.3c-4.6-24.2-9.2-48.3-13.9-72.4l1.2-0.3c0.5,1.2,0.9,2.4,1.2,3.6c4.7,20.8,9.3,41.6,13.9,62.5
		c0,0.1,0,0.2,0.1,0.3c1.1,6.8,1.1,6.7,7.9,6.7h67.8h3.7c-1.4-7.2-1.5-7.3-7.8-7.3c-9,0-18.1-0.2-27.1,0c-3.7,0.1-7.5,0.9-11.2,1.1
		c-1.4,0.1-2.8-0.6-4.2-1c-1-0.2-2-0.4-3-0.4c-5.7-0.2-11.5-0.3-17.2-0.6c-0.9,0-1.7-1-2.6-1.5c0.8-0.4,1.6-1.2,2.5-1.3
		c2.5-0.2,5-0.1,7.9-0.1c-1.9-8.6-3.6-16.6-5.4-24.5l1.2-0.3c1.2,3.9,2.6,7.8,3.6,11.8c0.9,3.5,1.1,7.3,1.9,10.8c0.2,0.8,1.3,2,2,2
		c7-0.1,13.9-0.4,21.1-0.6c-3.5-16.5-6.9-32.6-10.4-48.7c6.6,15.3,11.9,30.9,12.6,48.3l13.9-4.2c-3.9-15.3-7.8-30.2-11.6-45.1
		l1.6-0.4l11.9,44.9l13.3-3.4l-8.4-28.1l1.5-0.4c3,9.2,6,18.5,9.1,27.9l22.8-5.7c-3.8-14.6-7.5-28.8-11.2-43l1-0.3
		c1,3.1,2,6.2,2.9,9.4c2.8,10.1,5.6,20.1,8.3,30.2c0.7,2.6,1.6,3.2,4.3,2.6c10.9-2.4,21.8-4.6,32.7-6.9c0.8-0.2,1.5-0.4,2.4-0.7
		l-8.4-12.9l0.7-0.5c1.7,2.5,3.7,4.9,5,7.6c2.8,6,7.3,6.3,13.4,3.9l-25.8-55.8l1.2-0.7c0.8,1.4,1.6,2.7,2.3,4.1
		c8.2,16.4,16.3,32.9,24.5,49.3c1.1,2.2,2.8,4.2,4.1,6.4c0.3,0.8,0.5,1.7,0.6,2.6c-0.8-0.2-2-0.1-2.4-0.6c-1.6-2.1-3.3-1.8-5.5-1.3
		c-14.3,3.3-28.6,6.5-42.9,9.7c-1.1,0.2-2.2,0.6-3.7,1c1,3.1,1.6,6.1,2.9,8.9c0.4,0.9,2.3,1.6,3.5,1.6c8.7,0.2,17.4,0.1,26.2,0.1
		c4.8,0,9.6,0.1,14.4,0.3c6,0.3,11.9-0.1,17.5-2.8c1.5-0.7,3.1-1,4.8-0.8l-6.9,3.4l19.4,1.5c0,0.3,0.1,0.6,0.1,1
		c-1,0.3-1.9,0.5-2.9,0.6c-4.9,0.3-9.9,1-14.8,0.9c-9.2-0.2-18.3,0.9-27.2,3.4c-1.2,0.3-2.4,0-3.7,0l-0.1-1.2l3.8-1.8h-31.9l2.2,5.5
		l-1.1,0.6c-0.8-1.3-1.6-2.7-2.6-3.9c-0.7-0.9-1.7-2.2-2.6-2.2c-7.5-0.2-15.1-0.1-22.7-0.1c0.3,5.4,2.3,7.3,7.1,7.3l268.2,0.5
		c6.6,0,13.3,0.3,19.9-0.1c6.5-0.4,12.9-1.7,19.3-2.5c2.8-0.3,5.7-0.2,8.5-0.5c1.7-0.2,3.7-0.3,5-1.2c4.4-3.1,8.5-6.6,12.8-9.9
		c0.9-0.7,1.9-1.4,2.9-2.1l0.9,1.1l-13.5,12.7c4.6-0.7,7.6-3.2,10.2-6.2c2.7-3,5.1-6.2,7.2-9.6c2.1-3.5,3.4-7.4,5.4-11.6
		c3.4,3.9,6.2,7.8,9.7,11.1c4,3.7,8.1,7.5,12.9,10c10.4,5.5,21.3,10.1,31.9,15.4c5.8,2.9,11.7,4.4,18.2,3.6c3.6-0.4,7.3-0.6,11.9-1
		c-7.8-7.4-15.2-14-22.1-21.1s-12.9-14.6-19.3-21.9l1.1-1c0.8,0.8,1.7,1.6,2.4,2.4c5.6,6.4,11,12.9,16.9,19.1
		c5.2,5.5,11.3,10.1,16.2,15.8c4.8,5.4,9.8,6.7,16.8,5.5c15.9-2.8,31.8-5.9,47.1-11.1c10.2-3.5,12.8-4.9,17.3-9.8l-5.8-2.9l0.1-0.9
		c1.5-0.4,3-0.8,4.4-1.3c15-5,26-14.6,33.3-28.6c2.3-4.4,5.4-8.5,8.3-12.6c4.5-6.5,9-12.9,14-19.2c-3,7.6-6,15.2-8.9,22.7l0.7,0.5
		c2.1-2.7,4.9-5.1,6-8.2c5.5-14.7,10.7-29.6,15.5-44.5c1.3-4,1-8.5,1.4-12.8l-1.4-0.4c-2.2,7.3-4.3,14.7-6.3,21.4
		c0.3-12.7,0.6-26,0.8-39.2c0.3-14.3-0.8-28.5-4.4-42.4c-1.6-6.1-4.8-11.8-7.3-17.7c-0.6-1.4-1.2-2.8-1.8-4.2l1-0.6l4,5.6
		c0.1-0.6,0.1-1.2,0.1-1.8c-3.2-14.9-9.2-29.1-17.6-41.9c-0.5-0.8-1.4-1.3-2.3-1.5c-5.9,0.2-11.9,0.6-17.8,1c-0.6,0-1.3,0.2-2.7,0.4
		c1,1.1,2.1,2.1,3.2,3c3.2,2.1,6.6,4,9.8,6.1c1.4,0.9,3,2,3.8,3.3c3.2,5.2,6.2,10.6,9.3,16l-0.6,0.6c-0.5-0.3-1-0.6-1.4-1
		c-7-5.7-14-11.5-21.1-17.1c-1-0.6-2.3-0.8-3.4-0.4c-0.6,0.3-1,2-0.9,2.9c0.5,2.8,1.4,5.5,1.5,8.6c-1.5-1.3-3.2-2.4-4.6-3.9
		c-10.1-10.3-22.8-16-36.2-20.4c-1.8-0.4-3.7-0.2-5.4,0.7c-5,2.7-8.3,2.5-12.8-1.6c-4.1,2.7-8.2,5.6-12.4,8.3
		c-3.1,2-6.1,4.2-9.5,5.6c-16.7,7.1-30.2,18.4-42.7,31.3c-4.1,4.1-9.7,6.6-14.5,9.7c-2.8-2-2.6-3.5-0.8-5.1
		c9.2-8.5,18.4-16.9,27.6-25.4c0.8-0.8,1.7-1.5,2.9-2.5c-8.3,0.8-16,1.4-23.7,2.2c-6.2,0.6-12.5,1.5-18.7,2.2c-1.7,0.2-3.4,0-5.5,0
		c6,18.9,14.3,36.5,22.5,54.1c-17.9-21.6-31.4-46.5-39.8-73.3l-1,0.4c0.2,1.4,0.4,2.8,0.7,4.2c3.4,10.7,6.9,21.4,10.1,32.2
		c0.7,2.3,0.1,5.1,0.1,7.6c0,0.8-0.2,1.6-0.2,2.4c0,1,0.1,2.1,0,3.1c-2.1,21.1,3.9,40.6,10.6,60.2c2.9,8.7,4.9,17.6,7.1,26.5
		c0.5,2.1,0.1,4.5-0.6,6.8c-9.7-26.6-19.8-53-23.5-81.5c0,1.7,0,3.4,0,5.1s-0.1,3.4,0,5.2c0.6,12.2-2.3,23.7-6.4,35
		c-1.8,4.9-4.9,9.3-7.6,13.9c-0.5,0.8-1.7,1.1-2.5,1.7c-0.2-1-0.8-2.1-0.5-3c1.8-6.8,3.8-13.5,5.5-20.3c1.4-5.4,3.7-11.1-3.2-15
		c-4.2,7.4-9.8,14.2-17.6,18.7l-0.9-0.7c2-2.9,3.9-6,6-8.8c3.2-4.3,7-8.3,9.7-12.8c1.8-2.9,2.2-6.6,3.2-10c0.3-0.9,0-1.9,0.4-2.7
		c6.2-12,3.8-24.3,1-36.4c-2.5-10.9-5.9-21.7-8.9-32.5c-0.5-1.9-1.3-3.7-2.4-5.3c-0.7-1-2-1.6-3-2.4c-0.5,1.3-0.9,2.6-1.2,3.9
		c0,1.1,0.2,2.3,0.6,3.4c1.9,9.2,3.7,18.4,5.6,27.7c0.1,0.5,0.1,1,0,1.5c-5-4.5-10.2-9-15.3-13.7c-0.5-0.5-0.9-1-1.1-1.7
		c-1.7-4.3-5.1-6.7-9-8.5c-8.1-3.7-16.7-5.7-25.6-6.1c12.1-1.5,23.8-0.5,35.6,5.8c-3.2-3.9-6.3-6.7-8.3-10.2
		c-1.8-3.4-6.2-5.6-5.4-11c-4.9-1.1-10.2-2.3-15.4-3.5c-2.5-0.6-4.1,0.4-4.9,3c-0.9,2.6-2.1,5.2-3.1,7.7l-1.1-0.1
		c-0.7-1.7-1.5-3.4-2.3-5.2c-6.2,3.2-12.4,6.5-18.6,9.5c-5.4,2.6-10.7,5.4-16.3,7.3c-11.7,3.9-20.3,12.2-29.9,19.3
		c-1,0.8-1.6,1.9-2,3.1c-3.5,12.2-7.2,24.4-10.1,36.8c-1.1,4.8-0.6,10.1-0.3,15.1c0.2,3.7-0.9,6.2-4.8,7.8c1-4.9,2-9.5,3-14.1
		l-0.4-0.1c-2.7,5.6-5.3,11.1-8.1,16.9l2.1,0.7c-0.2,0.4-0.3,0.8-0.5,0.9c-1.9,1.2-3.7,2.7-5.8,3.6c-6.5,2.8-13.2,5.2-19.7,7.9
		c-2.7,1.1-5.3,2.2-8.2,0.8c-0.7-0.4-2,0.1-2.9,0.4c-3.3,1.3-6.6,2.7-9.9,3.9c-1.2,0.4-2.6,0.2-3.9,0.3l-0.2-1l11.4-11.7
		c-6.9,3.2-12,9.3-19.9,11.5c2.3-5.5,4.2-10.4,6.5-15.2c3.5-7.6,1.2-15.1-0.3-22.5c-0.8-3.7-0.8-6.6,1.6-9.6
		c5.3-6.3,10.6-12.7,15.6-19.2c1.6-2.2,3.4-4.9,3.5-7.5c0.2-6.2-0.1-12.4-0.8-18.5c-0.1-1.4-1.8-3.1-3.2-3.8
		c-3.2-1.5-6.6-2.4-10.6-3.7c1.3,6.8,3.2,13.2,1,19.6l-1.2,0.2c-0.4-1.9-0.8-3.9-1.3-5.8c-1.2-4.9-2.2-9.9-3.9-14.6
		c-2-5.5-13.3-8.5-17.9-4.9c-1.9-6.5-7.8-6-12.8-7.1l0.1-0.9l7.5-0.7c-3.8-12.9-29.8-26.9-47.7-25.3c0.1,0.3,0,0.8,0.2,0.9
		c6.5,3.6,10.6,9.3,14.8,15.1c0.7,1,1.6,1.9,2.7,2.5c4.9,2,9.9,3.8,14.9,5.8c0.6,0.2,1.1,0.6,1.4,1.2l-15.6-4.1
		c4.4,8.8,7.3,18.3,8.4,28l-0.8,0.3c-0.5-1.1-0.9-2.1-1.4-3.2c-3.2-7.7-6.5-15.4-9.7-23.2c-1-2.4-2.8-3.7-5.4-4.2
		c-5-1.1-10-2.3-15.2-3.5c3.5,6.6,6.8,12.9,10.2,19.2l-0.9,0.5c-2-3.4-3.8-6.9-6-10.2c-2.6-4.1-5.6-7.8-8.3-11.8
		c-4.2-6-10.6-8.8-16.9-11.1c-2.1-0.8-5,0-7.4,0.4c-14.8,2.7-27.5,9.2-37.4,20.8c-7.6,8.9-9.9,18.9-6.8,30.2
		c0.6,2.3,1.9,4.4,2.9,6.6c5.6,12.6,7.8,25.7,7.4,39.5c-0.3,8.5-1.9,16.9-4.7,24.9c-0.6,1.9-0.6,4.1-0.7,6.1
		c-0.6,12.7,1.6,25.1,4.5,37.5c1.4,6.2,2.9,12.3,6.7,17.5c0.8,1.3,1.5,2.8,2.1,4.2l-1,0.7c-1.6-2.3-3.5-4.4-4.7-6.9
		c-4.6-9.5-7.5-19.8-8.8-30.3c-0.6-5.2-0.2-10.6-0.8-15.8c-1.1-9,1.1-17.8,1.6-26.7c0.3-4.3,0-8.7,0-13.1c0-2.3-0.2-4.3,1.5-6.6
		c1.3-1.7,0.8-5.1,0.3-7.6c-0.7-4.2-1.8-8.3-3.4-12.2c-4-8.9-8.3-17.6-12.9-26.2c-1.7-3.2-4.8-5.7-7.2-8.4l-0.8,0.5
		c0.2,0.9,0.4,1.7,0.8,3.4c-6.3-5.7-8.2-14.1-15.1-18.4v16.2l-0.9,0.1c-0.2-1.3-0.3-2.5-0.5-3.8c-0.5-3.9-0.5-7.9-1.6-11.5
		c-1.3-4.4-3.1-8.7-5.4-12.7c-1.3-2-3.1-3.6-5.3-4.5c-3.6-1.5-7.4-2.3-11.2-3.4c-3.4-1-6.8-1.8-10.1-3.1
		c-21.8-8.6-45.2-12.1-68.5-10.4c-8.4,0.6-16.8,4.5-24.6,8.4c-11.6,5.8-22.5,12.7-33.6,19.6c0.3-0.4,0.6-0.7,0.9-1.1
		c11.8-9.5,24.8-17.5,38.6-23.7c4.8-2.2,9-5.5,13.2-8.8c-9.1,0-16.7,4.4-24.2,8.4c-7.5,4-14.8,8.7-22.7,12.6
		c3.4-3.3,6.4-7.3,10.4-9.8c8.2-5.2,16.3-10.9,26-13.1c4.5-1,9.2-2.1,13.8-2.2c11.2-0.1,22.5,0,33.7,0.8c6.9,0.5,13.8,2.2,20.6,3.6
		c2,0.4,2.9,0.1,4.1-1.7c3.8-6.1,7-12.3,6.9-19.8c0.1-2,0.8-3.9,2-5.4v12.5l0.6,0.3l2-3.8c3.2-1.2,4.1,0.7,5.2,3.5
		c4.1,11.1,8.6,22,19,29.2c4.4,3.1,8.7,6.4,11.6,11.2c2,3.2,5.4,2.4,8.4,2.2c0.6-0.2,1.1-0.8,1.2-1.4c0.3-2.2,1.2-3.4,3.6-3.1
		c0.3,0,1-0.6,1.1-1.1c2-5.3,6.1-7.4,11.5-7.8c3-0.4,6-0.4,8.9-0.1c-1.5,1-2.9,2.2-4.4,3.1c-2.1,1.2-4.3,2.1-6.4,3.4
		c-2.6,1.6-4.6,3.3-3,7.2c1.5,3.6-0.9,6.8-3.5,9.1c-1.9,1.7-4.5,2.7-6.8,4.1c3.4,5.6,7.8,5.8,11.7,0.2c2.6-3.7,5-7.4,7.3-10.8h8.4
		c-5,4.3-6.9,9.4-7.2,15.6c3.2-4.5,5.9-8.9,9.3-12.6c3.4-3.7,7.5-6.7,11.9-10.6c-3.2,1.2-5.7,2.1-8.1,3c-2.4,0.9-4.7,1.8-7.2,2.5
		c-0.7,0.2-1.6-0.4-2.4-0.6c0.3-0.8,0.4-1.7,0.9-2.2c1.1-0.8,2.3-1.6,3.5-2.2c10.6-5.9,21-12.3,33.9-15.5c-3.6-2.7-6.9-4.5-9.4-7.1
		c-5-5.1-10-4.7-15.5-1.2c-3.9,2.5-7.9,4.7-12.1,6.6c-3,1.3-6.1,2.2-9.3,2.6c6.1-7.9,13.6-14,23.5-19.1c-0.9-0.3-1.7-0.7-2.5-1.1
		c-10.7-9.2-21.4-18.4-32.2-27.5c-1-0.9-3-0.6-5.2-1c0.3-5.1,6.5-6.1,9.4-11.1l-21.1,1.6c0.2-0.9,0.3-1.6,0.5-2.4
		c-0.4-0.1-0.7-0.1-1.1-0.1c-3.7,1.2-7.4,2.4-11.2,3.5c-1.4,0.4-3,0-4.4-0.1c0.7-1.3,1.1-2.8,2.1-3.7c2.7-2.4,5.9-4.4,8.5-7
		c5.9-5.9,13.8-4.5,20.9-5.7c3.1-0.5,6.5-0.1,9.7-0.1c0,0.4,0.1,0.8,0.1,1.2c-0.8,0.2-1.6,0.4-2.3,0.5c-5.9,0.9-11.8,1.8-17.7,2.5
		c-5,0.6-8.5,3.6-11.6,6.7c3.7,0,7.5,0.1,11.2-0.1c1.2-0.1,2.3-1,3.4-1.4c5.3-2.2,10.7-4.3,16-6.5
		C667.7,775.7,667.9,776.2,668.1,776.6z M797,854.4c-1.1-1.1-2.1-2.3-3.2-3.4c-4.2-3.7-8.9-6.9-12.7-11c-5.6-6.1-13.2-5.8-20-8
		l-0.6,1.1L797,854.4c0.3,0.3,0.5,0.7,0.8,1.1c2.3,2.9,1.9,4.3-1.8,5.1c-0.5,0.1-1,0.2-1.6,0.4c1.7,1.9,4.4,3.5,4.5,5.2
		c0.1,2.9,1.7,4.3,3.4,5.9c2.4,2.3,5.4,4.2,7.2,6.8c3.8,5.3,10.2,4,14.9,6.9c-3.8-8.9-7.5-17.7-16.1-23.1
		C804.3,860.1,800.8,857.1,797,854.4z M899.3,586.7c1.8-0.7,4.1-0.9,5.2-2.1c6.3-7.4,12.4-15,18.6-22.5c-3.5-3.2-0.3-5.1,1.3-6.5
		c3.4-2.8,5.8-5.7,6-10.5c0.5-8.8,3-17.3-1.4-26.1c-5.5-11-9.4-22.9-14.5-34.2c-3.5-7.7-7.7-15.1-11.7-22.6
		c-4.1-7.6-9.6-14.3-17.1-18.4c-13-7.1-26.1-13.8-41.5-14.9c-12.8-0.8-25.7-0.4-38.5,1.1c0.4,1.3,0.8,2.3,0.9,2.5l-23.2,9.3
		l-0.5-0.3l8-8.7l-0.3-1c-4.2,1.1-9.2,1-12.5,3.4c-8.2,6-15.1,13.5-20.3,22.3c-3.5,5.9-6.4,12.1-9.3,18.3c-0.4,1,0.4,2.5,0.6,3.8
		c6.8-12.3,14.6-22.6,26.9-28.7c-0.5,1.1-1.3,2.2-2.2,3c-8.4,8.7-16.5,17.5-21.2,28.9c-2.1,5.1-2.7,9.9,0.1,14.8
		c1.9,3.2,3.9,6.5,5.7,9.7c0.7,1.3,1.6,2.7,1.6,4c0,7.4-0.4,14.9-0.5,22.3c-0.1,3.5,0.9,6.4,4.8,7.7c2.7,0.9,5,2.8,7.5,4.2
		c0.7,0.3,1.5,0.6,2.2,0.7c-6.9-23.7-10.9-47.3-9.7-71.7c-0.3,9.5,2.3,18.5,4.8,27.6c2.1,7.7,4.6,15.3,6.8,23
		c1.2,4.4,2.2,8.8,3.4,13.8c8.5-10.7,18.2-18.7,30.5-23.4c-0.7,0.6-1.4,1.1-2.2,1.5c-6.1,4.7-12.5,8.9-18,14.2
		c-4.7,4.5-8.9,9.9-6.2,17.5c0.3,0.9-0.8,2.3-1.2,3.2l31.2,24.9c0.6-0.5,1.5-1.1,2.2-1.8c4.5-3.9,9.6-6.3,15.7-5.5
		c8.6,1.2,17.3,2.2,25.8,3.9c2.4,0.5,4.9,2.7,6.4,4.8c4.5,6.3,7.9,8.1,15.5,5.5c5.5-1.9,10-1.1,14.7,1.8c2.1,1.3,4.4,2.4,6.6,3.6
		c0.6,0.2,1.2,0.4,1.8,0.4l0.4-0.6L899.3,586.7L899.3,586.7z M1033.6,821.5c-0.1,1.4-0.4,2.8-0.2,4.1c1.1,5.6,2.2,11.3,3.6,16.8
		c1.7,6.9,5.2,13.7,5.3,20.5c0.1,8.1,2.6,13.5,8.8,18.3c5.9,4.7,10.4,10.9,18.1,13.6c8.5,3.1,17,2,25.7,2c-0.6-0.7-1.2-1.4-2-1.9
		c-10.6-8.6-21.7-16.6-31.5-26C1047.7,856,1037.8,840.3,1033.6,821.5l0.7-12.7h0.9c0.3,1,0.4,1.9,0.8,2.9c2.8,7.4,5,15.1,8.7,21.9
		c3.6,6.7,8.6,12.7,13.3,18.8c3.1,4.1,6.7,7.9,10.1,11.8l0.6-0.5c-4.2-6.7-8.4-13.4-12.7-20.1l0.9-1c1.2,0.7,2.8,1.1,3.5,2.1
		c2.1,2.7,3.7,5.8,5.7,8.6c7.8,11.2,14.4,23.2,25.2,32.1c3.7,3,7.2,6.5,8,11.6c14.3,0.1,25.3-6.7,35.5-15.7
		c-11.9-0.3-22.2-5.4-32.3-10.3c-10.2-5-19.7-11.4-28-19.2c1.2-0.2,2.5-0.1,3.6,0.5c5.6,2.6,11.2,5.3,16.8,7.8
		c16.2,7.1,32.1,14.8,50.2,15.8c6.1,0.4,9.6,0.2,8.3-7.4c-0.2-1,0.5-2.9,1.1-3c6.8-1.8,13.6-3.3,20.9-5.1v14
		c4.1,0.2,7.9,0.5,11.8,0.6c0.4,0,0.9-0.2,1.2-0.5c2-1.4,4.1-2.7,6.3-3.9c10.3-4.9,20.6-9.6,29.7-16.6c2.4-1.9,5.4-3.5,7-6
		c5.9-8.9,11.4-18,17-27.1c0.3-0.7,0.5-1.4,0.6-2.1c-12.7,12.7-21.9,19-27.1,18.7c3.9-2.8,7.7-5.5,11.5-8.2
		c7.8-5.5,13.6-13.3,16.6-22.3c1.6-4.5,3.7-8.9,5.4-13.3c0.6-1.6,1.4-3.5,1.2-5.2c-1-9.5-2-18.9-3.6-28.3
		c-1.5-9.2-3.8-18.2-5.7-27.3c-0.1-1.2-0.1-2.3,0-3.5l1.3-0.1c5.7,16.8,9.3,34.1,12.2,51.7c1-1.7,1.6-3.5,2-5.5
		c2.9-23.2,2-46.1-6-68.3c-0.5-1.7-1.5-3.3-2.8-4.6c-4.1-3.2-8.3-6.1-12.6-9c-1.6-1-3.2-1.8-4.8-2.6l5.4-4l-7.4-5.7l0.6-0.8l9.5,3.9
		l0.7-1.1c-5.7-9-11.5-17.9-16.9-27.1c-4.6-7.6-10.5-14.3-17.5-19.9c-1.6-1.2-3.3-2.3-5.1-3.2l-0.5,0.8l14.3,15
		c-6.9-3.1-13.7-6.5-20.2-10.3c-1.6-0.7-3-1.7-4.4-2.7c-5.5-5.1-11.3-9.3-19.2-9.4c-1.3-0.1-2.5-0.3-3.7-0.7
		c-25.8-6.1-51.8-8.4-78.2-4.8c-1,0-2-0.2-2.9-0.4c-0.1-0.4-0.2-0.8-0.3-1.3l10.3-5.3c-2.2-0.6-4.3-2-5.8-1.5
		c-8.2,2.9-16.7,5.4-24.2,9.7c-9.3,5.3-18,11.8-26.6,18.3c-17.1,12.9-27.1,30.5-31.8,51.2c-0.4,1.1-1.4,1.9-2.5,2.2
		c-3,0.3-6,0.1-8.9,0.2c-7.9,0.2-7.2-1.7-10.3,7.3c-0.3-0.2-0.5-0.4-0.7-0.6c-0.3-0.4-0.7-0.8-0.7-1.2c-0.1-4.7-3.9-7-6.2-10.3
		c-1.7-2.3-3.3-4.7-4.9-7.1c-8.9-14-18.5-27.4-30.3-39.2c-1-0.9-2.1-1.8-3.2-2.6l-0.8,0.8c6.7,9,13.4,18,20.1,27l-0.6,0.4
		l-23.2-22.6l-0.7,0.7c0.8,1,1.6,1.9,2.3,2.8c9.9,12.7,20,25.1,29.5,38.1c4.1,5.6,6.8,12.2,9.9,18.4c0.4,0.9-0.4,2.4-0.7,3.7
		c-1-0.6-2.4-1.1-3.1-2c-2.7-3.9-4.8-8.2-7.7-11.8c-20.2-25-40.5-49.9-60.7-74.9c-1.1-1.4-1.4-3.5-2-5.2l1.1-0.8
		c-14.8-6.7-26.8-19-44.3-21.3c0.3-1.5,0.6-2.9,1-4.5c-1.6-1.5-4.1-2.8-5.1-4.8c-3.4-7.1-9.4-7.3-15.8-6.7c-0.5,0-0.9,0-1.4,0
		c-2.9,1-6.2,1.6-8.7,3.2c-7.6,5.2-15,10.8-22.5,16.4c-0.1-0.4-0.2-0.8-0.2-1.3c1-4-0.5-7-2.8-10.2c-3-4-6.5-3.9-10.6-2.7
		c-1.7,0.4-3.4,0.7-5.1,0.8c-17.9,2.2-31.1,12.4-43.5,25.2c7.3,1.1,13-3,19.5-4.1v5.9c-9.4,4.7-19.4,5.4-29.7,3.9
		c6.1-6.9,11.9-13.5,17.7-20.1c1.9-2.1,3.4-4.8,5.7-6.4c9.9-7,20.8-11.1,33.3-9.8c1.6,0.2,3.2,0.2,4.9,0.3l0.3-0.9
		c-4.2-3.5-8.1-7.4-12.5-10.6c-6.3-4.5-11.2-11.6-19-12.1c-1-1.8-1.3-3.4-2.3-3.9c-1.3-0.4-2.6-0.3-3.8,0.3
		c-7.3,3.4-14.4,7-20.7,10.1l4.1-4.8c-3.9-4-7.6-7.8-11.4-11.6c-2.5-2.5-5.2-4.3-9.2-2.7c-6.5,2.5-13.1,4.6-19.7,6.9
		c8.3-0.5,16.7-0.9,24.9,1c-1.1,0.5-2.3,0.8-3.5,0.9c-9.4,1.3-19,2-28.2,4.1c-22.8,5.2-43.2,15.8-62.3,29.1
		c-1.9,1.3-3.8,2.6-5.7,3.8c-0.5,0.3-1.4,0-2.2-0.1c0.1-0.7,0.1-1.6,0.5-2c2.2-2.2,4.3-4.6,6.8-6.3c17.7-12.2,36.5-22.1,57.4-27.5
		c0.5-0.2,0.9-0.4,1.3-0.7c-2-0.5-4.2-0.5-6.2,0.1c-10.9,3.5-21.8,7.2-32.6,10.9c-0.7,0.2-2,0.9-1.9,1.1c0.6,2.8-1.8,2.1-3,2.5
		c-1.5,0.6-3.2,0.5-4.7,0.9c-2.8,0.7-6.2,0.7-8.1,2.4c-5.4,4.9-12,7.2-18.1,10.8c-1.7,1-3.1,2.5-4.1,4.2c-2,4.1-3.4,8.5-5.1,12.8
		c-4.4,11.1-11.2,20.5-19,28.6c1.9,13.4,4.1,26.8,5.5,40.4c1,9.6,1.1,19.3-1.8,28.7c-0.9,3-0.2,4.7,2.5,7c0.2-2,0.4-3.4,0.5-4.8
		c1-15.2,2-30.5,3.2-45.7c0.2-2.2,1-4.3,1.5-6.5c-1.9,24.2-2.9,48.1,8.3,70.7c0.3-2.2-0.1-4.3,0-6.4c0.1-5.1,1.8-10.3-2.1-14.8
		c-0.6-0.7-0.3-2-0.4-3c-1.1-9.8,7.3-20.6,14-24.8c-2.7,4-6.2,8.5-9.2,13.4c-2.9,4.7-2.7,9.9-1.5,15c0.2,0.9,1.1,1.6,1.9,2.3
		c1.5,1.3,3.1,2.4,5,4c-3.7,1.2-3.9,1.2-4.1,4.4c-0.2,5.7-1.7,11.4,1.7,17c2,3.2,2.5,7.4,4.1,11c1.3,3.1,4.1,4.3,7.2,4.4
		c7.1,0.1,14.2-0.2,21.1-2.4c4.8-1.5,9.7-2.8,14.6-3.8c6.3-1.3,12.6-2.2,18.9-3.3c2.2-11.2,3.1-13.5,7.9-19.8
		c6.8-8.9,12.8-13.5,17.1-12.7c-10.7,7.7-18.5,17.2-22.5,30.5l17.4-16l0.6,0.6l-16,17.3l6.2,0.4l-0.1,0.5l-31.7,6.3l0.2,1
		c0.9,0,1.7,0,2.6,0c14.1,0.2,28.2-1.1,42.1-3.8c1.9-0.2,3.7,0.3,5.3,1.4c2.9,1.9,5.1,1.5,6.2-1.8c1.9-6.3,5.3-12,10-16.7
		c5.8-5.8,11.7-11.3,17.3-17.2c9.9-10.5,20.8-19.7,33.9-26.2c4.6-2.3,8-5.7,9.3-11.5c2.3-9.9,5.2-19.7,8.7-29.3
		c2.9-8.1,6.8-15.9,10.4-24.4c-2,1.3-3.7,2.4-5.5,3.4c-1.5,0.9-3,2.2-4.6,2.3c-5.3,0.2-8.6,3.5-12,6.7c-3.6,3.4-6.9,7-10.6,10.4
		c-1.9,1.7-4.3,3-6.9,1.4c-2.5-1.7-2.2-4.5-1.3-6.8c1.4-3.3,3.6-6.4,5.3-9.6c2.1-4,5.5-3.6,9.6-2.9c-1.8,2.7-3.3,5.1-4.9,7.5
		l0.8,0.7c1.7-1.9,3.4-4,5.3-5.8c1.1-1.2,2.4-2.1,3.9-2.6c3.7-1.1,7.8-1.2,11.3-2.7c4.5-1.9,11.2-0.7,12.7-7.7
		c0-0.1,0.2-0.2,0.3-0.2l14.3-8.2c-0.1,2.8,0.7,4.2,3.2,2.8c1.6-1.1,3.1-2.2,4.6-3.4c0,3.6-0.7,7,0.1,9.9c1.9,6.5-1.4,10.6-5.5,14.6
		c-2.5,2.4-4.7,5.2-7,7.8l-1.3-0.6c-1.4-6.4,3.9-11.5,4.5-18.1c-3.6,5.2-7.3,9.6-9.9,14.6c-5.4,10.4-10.4,20.9-15.2,31.7
		c-2.2,5.1-4.5,10.4-3.6,16.2c0,0.5-0.1,1.1-0.5,1.5c-3.8,2.7-7.3,6.3-11.5,7.9c-12.7,5-23.2,13-33.1,21.9c-1.6,1.4-2.1,3.9-3.1,5.9
		l0.9,0.6c6.2-8.1,15.3-11.9,23.6-17c8.4-5.2,17.2-9.7,26.7-12.9c-0.4,1.2-1.2,2.3-2.3,3.1c-3.8,2.1-7.7,4-11.8,5.6
		c-9.5,3.4-18.2,8-25.5,15.2c-5.7,5.6-12,10.7-17.7,16.3c-7.1,6.9-13.6,14.5-15.1,24.7c-0.9,6.1-0.9,12.3-1.3,18.5
		c-0.2,3.1-0.2,5.7,1.9,8.6c6.7,9.2,12.7,18.8,19.3,28c3.3,4.5,7.3,8.6,12.5,11.2c-3.4-4.3-7.1-8.4-10.6-12.6
		c-7.2-8.7-12.9-18.5-16.9-29c-0.6-2-1.1-4.1-1.4-6.2l1.1-0.3c1.5,3.3,2.9,6.7,4.4,10c6.8,14.7,17.4,26.6,28.3,38.3
		c3.2,3.5,6.6,5.8,11.5,5.5c1,0,2,0.3,2.8,1c2.3,2.3,4.4,4.9,7.3,8.1l-13.7,1.3c16,11.7,31.6,22.8,50.4,28.3
		c-0.2,0.4-0.3,0.7-0.5,1.1l-9.3-2c4.1,4.5,8.9,7.9,14.5,8.9c6.1,1.1,10.6,4.1,14.3,8.6c2.2,2.5,4.8,4.7,6.8,7.3
		c2.2,2.9,4.9,4.4,8.5,4.1c2.1-0.2,3.2,0.7,4.1,2.9c2.6,7.1,5.4,14.1,8.1,21.2c0.8,2,1.8,3.7,0.4,6.1c-0.7,1.2,0.1,3.5,0.3,5.2
		c1.5-0.6,2.9-1.3,4.3-2.1c2.6-2,5-4.3,7.7-6.3c3.5-2.6,7.1-5,10.7-7.4c3-2,5.9-4.3,9.2-5.7c6.2-2.6,7.2-3.5,7.1-10.3
		c0-2.4,0.8-3.7,3-4.7c3.8-1.8,7.4-4.2,11.2-6c8.9-4.2,17.9-8.3,26.9-12.5l0.4,0.6l-9.3,6.6c8.7-2.3,15.2-6.7,21.4-12
		c10.4-8.9,19.7-18.5,23.2-32.3c0.4-1,0.9-1.9,1.5-2.7c1-1.7,2.2-3.2,3.1-5c8.3-17.2,10.9-35.6,11.7-54.4c0.2-5.1,0.4-10.3,0.6-15.4
		c1.8,5.1,2.8,10.3,4,15.4c1,4.2,3.9,5.2,7.6,2.9c0.9-0.5,2.4-1.2,3.1-0.8c3.3,1.7,8,2.2,8.1,7.4c0,0.9,0.8,1.6,1.1,2.5
		c0.5,1.8,2.2,3.1,4.1,2.9c2,0.1,3.8-1.3,4.2-3.3c0.9-3.3,1.6-6.7,2.1-10.1c0.4-3.1,1.1-5.4,5-3.2c1.3-10.3-1-19.5-4.9-28.2l7.2-1.9
		c0.3,0.7,1.1,2.2,1.6,3.5l4.6,0.9l2.5-2.9c-2.1-1.9-4.2-3.7-6-5.7c-4.9-5.5-9.6-11-14.3-16.7c-0.9-1.1-1.4-2.4-1.4-3.8
		c0-1,0.8-2.6,1.6-2.9s2.5,0.5,3,1.3c4.7,7.8,11.2,13.9,18.1,19.7c2.1,1.8,3.8,3.9,5.2,6.3c1.4,2.5,1.6,5.3-1.2,7.4
		c-5.3,3.9-5.8,5.6-3.2,12.2c0.1-2.5-0.1-4.6,0.5-6.5c0.3-1.2,1.8-2.1,2.7-3.1c0.9,1,2.2,1.9,2.6,3.1c0.5,1.3,0.2,2.9,0.3,4.4
		c0.5,11.7,1,23.4,1.4,35c-0.1,1.4-0.3,2.8-0.7,4.1l-3.8-0.8c0,1.1-0.2,2.1-0.3,3.1c-0.5,2-2.8,2.8-3.9,1.3
		c-0.6-1.1-0.9-2.3-0.9-3.5c-0.1-6.8,0.1-13.6,0-20.3c-0.1-3-0.5-6.1-0.8-9.1c-0.6,0.7-0.9,1.5-0.8,2.4c-0.4,5.9-0.7,11.9-1.1,17.9
		c-0.2,2.9-1.3,5.3-4.5,5.6c-3.3,0.3-4.5-2.2-5.3-4.9c-0.3-0.9-0.5-1.8-0.9-3.3c-2.8,3.8-5.9,5.7-10,5.8c-4.5,0.1-6.7-2.7-8.4-6.6
		c-3.5,22.6,5.5,42.5,10.4,63.2c0.8-3.4,1.1-7,0.7-10.5c-1-7.6-2.6-15.2-3.5-22.8c-0.8-6-1-12.1-1.3-18.2c0-1,0.4-1.9,1.1-2.6
		c0.7-0.3,1.5-0.2,2.2,0.3c1.8,2.6,3.4,5.4,5,8.1l-1.5,1l-4.4-7.5c-0.6,0.9-0.8,2-0.7,3c1.4,10.7,2.8,21.4,4.2,32.1
		C1032.8,820.4,1033.2,821,1033.6,821.5z M1000.2,665.1l-1.4-0.7c1.8-3.6,3.4-7.4,5.3-10.9c11.9-22.2,30.3-35.4,55.4-39.1
		c4.5-0.7,9.7-6,10.2-10.5c1.1-9.2-3.9-17.1-5.9-25.5c-0.1-0.6-0.8-1.1-1.3-1.6c-18.7-19.4-40.2-33.9-66.3-41.4
		c-6.7-2-13-2.2-19.5-0.1c-3.1,1-6.2,1.7-9.1,3.1c-4.7,2.3-10.2,3.4-13.6,8.1c-0.7,0.9-2.1,1.4-3.2,1.9c-2.2,1.1-4.7,1.8-6.5,3.2
		c-4.6,3.7-8.9,7.8-13.4,11.7c-2.8,2.5-5.7,4.9-8.5,7.5c-0.8,0.8-1.3,1.8-1.5,2.9c-0.5,8.8-0.9,17.6-1.2,26.5
		c-0.2,5.3,2,8.4,7.4,10.7c-0.6-7.1-1.9-14.1,0.3-21.1c0.8,1.1,1.3,2.4,1.5,3.7c1.3,6.8,2.3,13.6,3.8,20.3c0.5,2.2,1.7,4.2,3.3,5.7
		c5.3,4.7,10.8,9.1,16.4,13.5c19.4,15.6,37.7,32.2,52.9,52c0.2,0.2,0.6,0.3,1.1,0.5c3.8-29.4,19.3-50.5,45.2-64.6
		c-6,1.9-12,3.7-17.2,6.7c-11.5,6.6-19.7,16.7-27.2,27.4C1004.8,658.5,1002.5,661.8,1000.2,665.1L1000.2,665.1z M1081.1,1254.4
		c0.2-1.4,0.4-3.2,0.6-5l1.3-0.5c2.3,3.8,4.7,7.6,7.1,11.4c0.4,0.7,0.7,1.6,1.3,2c3.2,2,2.8,4-0.2,5.8c0.8,0.9,1.4,1.6,2,2.2
		s1.5,1.3,2.3,2c2.1-3.2,2.9-3.3,5.6-0.8c4.4,4.1,9,8.2,13.3,12.5c3.3,3.4,7.8,5.4,12.5,5.9c0.8,0.1,1.6-0.3,2.4-0.4
		c1.2-0.1,2.7-0.5,3.4,0.1c6.4,4.6,11.7,10.2,14.3,18c1.4,3.7,2.9,7.2,4.7,10.7c5.2,11.1,8.9,22.6,8.9,35.1c0,0.6,0.1,1.2,0.2,1.8
		c4.2-1.3,8.1-3,12.2-3.6c4.1-0.7,6.1-2.6,7-6.4c1.2-4.7,3.1-9.3,3.5-14c0.6-7.5,1.9-15.6-0.2-22.5c-3.7-12.8-7.6-25.8-14.7-37.4
		c-0.6-1.1-1-2.3-1.2-3.6c-0.7-2.5-1.1-5.1-1.9-7.6c-1.6-4.8-3.7-9.4-5.3-14.2c-1.8-5.5-2.5-10.9,1.5-16c1.5-2,2.9-4.2,3.9-6.5
		c3.6-7.3,9-13.7,8.1-22.9c-0.8-8.2-0.2-7.9-8.5-8.6c-7.9-0.6-15.9-1.2-21.8-7.9c-0.7-0.8-3.9-0.8-4.5,0c-2.3,3-4.8,6.2-5.7,9.7
		c-4.3,17.9-3.8,35.2,5.9,51.6c2.4,4.1,3.5,8.9,5.3,13.5l-1.1,0.8c-1.4-0.7-2.8-1.3-4.1-2.1c-2.2-1.4-4.4-2.9-6.6-4.4
		c-6.2-4.2-12.2-8.5-16.6-15c-3.4-5.1-8.6-8.9-12.5-13.7c-3.4-4.2-7.8-8.7-8.9-13.6c-1.6-8-0.8-16.5-1.1-24.9
		c-7.8-3.6-15.9-2.2-23.5-2.4c-0.8,1.9-1.4,3.3-1.8,4.6c3,3.7,0.9,7.7,0.9,11.5c-0.9-1.8-1.8-3.7-2.7-5.5l-1.2,0.1
		c-0.4,1.4-1,2.9-1,4.4c-0.3,8.7-0.6,17.4-0.6,26.2c0,5.2,0.6,10.5,3.8,14.8C1071.6,1244.9,1074.2,1251.7,1081.1,1254.4
		L1081.1,1254.4z M836.3,987.9l0.3,0.5c5.1-1.9,10.4-3.6,15.3-5.9c3.4-1.6,6.4-4.2,9.6-6.3c2.4-1.6,4.7-3.7,7.4-4.8
		c2.9-1.1,5.1-3.5,6.1-6.4c5-13.1,5.7-26.8,7-40.5c0.2-2.5-1.1-3.6-3.4-3.8c-3.5-0.3-7.1-0.4-10.6-0.2c-2.4,0.2-4.9,1.3-7.3,2
		c-2.8,0.8-5.7,1.6-8.4,2.5c-1.2,0.4-2.3,1.1-3.1,2.1c-5.6,7.2-11.2,14.5-16.6,21.9c-0.7,1-0.6,2.7-0.9,4.1l0.8,0.1l7.9-10.1
		c-3.5,13.7-7,27.2-10.3,40.2c5.1-3.1,10.5-6.5,16.1-9.6c0.9-0.5,2.4,0.2,3.6,0.3c-0.5,1-0.8,2.3-1.6,3.1
		C844.2,980.6,840.3,984.2,836.3,987.9z M1130.5,1179c2.1,0.6,4.1,1.5,6.2,1.8c5.7,0.9,11.5,1.9,17.2,2.2c8.6,0.4,17.3,0.1,26.4,0.1
		c-0.4-6-0.9-12.3-1.3-18.6l1.1-0.1l1.6,5.5c0-1.8-0.1-2.7,0-3.6c0.3-3-0.8-4.9-4.1-5.6c-6.6-1.3-13.1-3.1-19.7-4.2
		c-2.7-0.5-6.4-0.7-8.2,0.7c-3.1,2.4-6.2,3.1-9.8,3.2s-7.3,0.3-11,0.6c-0.8,0.1-2.2,0.5-2.3,0.9c-0.4,2.3-2.1,2.2-3.7,2.2
		c-12.5,0.3-25,0.6-37.5,0.7c-20.6,0.3-41.1,0.5-61.6,0.6c-6.6,0.1-13.3,0-19.9,0v1c7.6,0.3,15.1,0.4,22.7,1
		c15,1.1,30.1,1.5,44.8,4.2c12,2.1,23.9,2.4,35.9,2.4c2,0,4-0.6,6-0.9c0.4-0.1,1-0.3,1.3-0.2 M555.8,642.4l-1.5,0.9
		c0.5,2.9,0.7,5.9,1.5,8.7c5.9,20.7,15.1,40,24.4,59.4c1.2,2.3,1.9,4.9,2.2,7.5c0.3,3.1,0.8,5.8,4,7.4c3.1-6,6.2-12.2,9.5-18.2
		c1.6-2.9,0.8-4.9-1.5-7l-4.6,7.2c-0.6-4.5-0.3-8.7-0.2-12.9c0-1.3,0.2-2.7-0.4-3.8c-3.1-5.5-6.2-11-9.6-16.3
		c-6.2-9.5-12.5-19-18.9-28.3C559.5,645.2,557.5,643.9,555.8,642.4z M725.9,822l0.1-0.7c-0.4-0.3-0.9-0.7-1.3-1
		c-15.3-10.1-30.6-20.2-45.9-30.3c-3.1-2-6.3-2.4-9.4-0.7c-3.3,1.8-6.4,4.1-9.8,6.4c0.8,0.8,1.1,1.1,1.5,1.4
		c11.9,9.2,23.7,18.5,35.6,27.6c1.2,0.7,2.7,0.8,4,0.4c5.7-1.8,11.4-3.4,17.5-2.9C720.7,822.1,723.3,822,725.9,822z M1129.3,1185.5
		c-6.7,1.9-12.6,3.7-18.6,5.4c-2.5,0.7-5.2,0.9-7.7,1.5c-1,0.2-1.8,0.7-2.4,1.5c-5.4,9.6-2.5,21.7,6.7,27.8c2.3-2.6,4.1-1.2,5.7,1
		c1.7,2.4,3.6,4.7,5.6,7c3.2,3.4,6.7,6.5,10.1,9.7l0.8-0.7c-2.2-8.7-7.4-16.5-6.7-26C1123.5,1203.5,1124.1,1194.3,1129.3,1185.5z
		 M768.1,842.6c-6.7-4.1-12.9-7.9-19.2-11.6c-1.1-0.6-2.4-0.8-3.6-0.8c-10.8-0.1-21.5-0.1-32.3,0c-1.9,0-3.9,0.8-6.7,1.4
		c4.6,3.3,8.4,6,12.1,8.9c3.2,2.4,6.5,3.7,10.6,2.6c2-0.4,4.1-0.6,6.1-0.5C745.8,842.6,756.6,842.6,768.1,842.6z M584.9,738.3
		c1.4,1.6,2.6,1.7,4.4,0.4c2.4-1.8,5.2-3.1,7.8-4.7c0.2,0.3,0.4,0.7,0.6,1l-8.5,5.8c3.8,2.6,7.1,5,10.6,7.2c0.6,0.4,2.2,0.4,2.7,0
		c3.5-3.6,6.9-7.3,10.3-11l-4.4-7.5l-4.4,1l3-4.2c-2.3-5.7-4.5-11.4-6.8-17.2l-1,0.3L584.9,738.3z M941.8,513.3l1.2-0.4
		c-1.8-7.1-3.4-14.3-5.6-21.4c-1.7-5.7-3.7-11.4-8.3-15.6c-5.2-4.7-10.3-9.4-15.6-14c-1.9-1.7-4.1-3.1-6.2-4.6
		c2,3.7,4.4,6.9,6.7,10.3c1,1.7,1.7,3.4,2.3,5.3c0.6,1.5,0.5,3.3,1.4,4.6c5.1,7.9,10.3,15.7,15.6,23.5
		C936,505.2,938.9,509.2,941.8,513.3L941.8,513.3z M1191.9,1134c6.7-0.5,13.2-1.1,19.6-1.4c2,0.1,3.7-1.1,4.5-2.9
		c3.4-6.5,6.9-12.9,10.6-19.3c1.9-3.2,2.2-3.1,5.8-1.3c3.2-5.7,6.4-11.4,9.6-17.1c-0.3-0.2-0.5-0.5-0.8-0.7L1191.9,1134z
		 M747.1,823.7l0.3-1.2c-0.1-0.2-0.2-0.4-0.3-0.6c-15.9-13-33.4-23.8-51.2-34.1c-0.7-0.4-1.5-0.5-2.2-0.2c-2.4,0.9-4.9,2.1-7.4,3.2
		c2.8,1.5,5.6,2.8,8.2,4.3c14.1,8.2,28.1,16.5,42.2,24.5C739.9,821.5,743.6,822.5,747.1,823.7L747.1,823.7z M768.7,827.9
		c-0.7-0.5-1.3-1.1-2-1.6c-7.6-5.4-15.3-10.6-22.6-16.2c-10.9-8.4-21.5-17.2-32.2-25.8c-1-0.8-2.4-1.8-3.5-1.7
		c-3.2,0.3-6.4,1.1-10.6,1.9l3.9,2.1c17.9,9.4,35.1,20.1,49.7,34.2C756.6,825.6,762.4,826.6,768.7,827.9L768.7,827.9z M718.3,741.5
		l-1.1-0.7c-1.3,3.8-3.8,4.2-7.2,4.3c-2.4,0.1-6.3,1.8-7,3.7c-1.4,3.7-1.2,8-1.2,12c0,3,3.1,1.5,4.6,2.4c0.1,0,0.2,0.1,0.3,0.2
		c6.1,4.2,10.6,1.3,14.2-3.2c-1-3.3-2.2-6.3-2.6-9.4C718,747.8,718.3,744.7,718.3,741.5z M826.9,1172.2c0-0.4,0-0.9-0.1-1.3
		c-2.4-0.3-4.9-0.7-7.3-0.9c-12.6-0.6-25.2,0.5-37.7,2.4c-10.4,1.6-20.8,3.3-31.2,5.2c-1,0.2-1.9,1.4-2.9,2.2
		c1.2,0.4,2.4,1.2,3.5,1.1c4.7-0.3,9.3-0.9,14-1.5c15.7-2,31.3-4.1,47-6C817.2,1172.8,822,1172.6,826.9,1172.2L826.9,1172.2z
		 M614,587.4l-1.1-1c-8.6,8.6-17.2,17.1-25.7,25.7c-0.5,0.7-0.6,1.6-0.4,2.4c0.7,2,1.7,3.9,2.8,6.2C601.6,611.9,610,601.2,614,587.4
		L614,587.4z M660.7,554.7v-0.9c-17.8,0.1-31.9-8.4-45.1-19.5c1.2,6.5,1.6,8.2,6.2,11.2c7.6,5,15.6,9.5,23.4,14.2
		c0.7,0.4,1.5,0.6,2.2,0.4C651.9,558.3,656.3,556.5,660.7,554.7z M766.3,869.6l0.8-1c-3.9-4.1-7.6-8.3-11.7-12.2
		c-1.7-1.6-4.1-3.2-6.3-3.5c-4.1-0.7-8.4-0.5-12.7-0.5c-1.1,0-2.2,0.7-3.3,1.1c3.8,2.9,7.3,5.1,10.2,8c3,3,5.8,5.6,10.5,5.2
		c1.9-0.2,4,0.9,6,1.4C761.9,868.7,764.1,869.1,766.3,869.6z M1037.6,1138.9v-0.8c-0.7-0.2-1.4-0.4-2.1-0.5
		c-5.6-0.4-11.2-0.9-16.8-1c-7.6-0.1-15.3-0.8-22.8,1.5c-7.8,2.5-16.3,2.3-24-0.6c-0.7-0.1-1.3-0.1-2,0c1.8,1.6,3.3,3,5,4.3
		c0.7,0.5,1.5,0.9,2.4,0.9c3.3,0.1,6.7,0.1,10-0.1c4.9-0.3,9.8-1.1,14.7-1.3c7.8-0.3,15.6,0,23.4-0.4
		C1029.4,1140.8,1033.5,1139.6,1037.6,1138.9L1037.6,1138.9z M1237.7,852.9c-12.1,11.5-26.7,18.1-42.6,22.2
		C1214.6,880.8,1232.4,868.2,1237.7,852.9L1237.7,852.9z M1002.3,835.8c-3,6-3.7,6.7-0.1,12c4.5,6.7,10.2,12.5,15.3,18.7
		c0.4-0.7,0.4-1.5,0.2-2.2c-2.6-8.1-5.3-16.1-8-24.2c-0.3-0.7-0.8-1.2-1.5-1.5C1006.3,837.6,1004.4,836.8,1002.3,835.8L1002.3,835.8
		z M1273.5,764.5l1-0.1c0.2-1.3,0.7-2.5,0.6-3.7c-1.4-13.3-3-26.6-4.4-39.9c-0.8-7.8-4.4-14.4-7.7-21.1c-0.4-0.7-0.9-1.3-1.5-1.9
		c-0.1,1.2,0.1,2.3,0.7,3.3c1.4,3.9,3.4,7.7,4,11.7c2.3,15.7,4.1,31.4,6.1,47C1272.6,761.4,1273,763,1273.5,764.5z M754.3,416.5
		c0-4.9,0.3-8.7-1.7-12.5c-4.6-8.8-13.3-11.1-21.3-14.6l-0.9,0.9C738.2,398.8,745.9,407.3,754.3,416.5z M1185.7,1127.2
		c-0.1-0.3-0.3-0.5-0.4-0.8c-18.3,7-37.6,10-56.8,13.4c1.2,0.5,2.5,0.7,3.8,0.5c13.7-1.4,27.3-2.9,41-4.3c1-0.1,2-0.4,2.9-1
		C1179.3,1132.5,1182.5,1129.9,1185.7,1127.2L1185.7,1127.2z M1011.3,782l-1.2-0.2c-0.9,2.9-1.9,5.8-2.6,8.8
		c-2.4,10.2-5.8,20-11.4,29c-3.4,5.3-6.5,10.8-9.6,16.2c-0.5,1.1-0.9,2.3-1.2,3.4l1.4,0.8c3.9-5.1,8.1-10,11.7-15.4
		c2.4-3.4,4.2-7.1,5.5-11c1.7-5.8,2.6-11.9,3.9-17.8C1008.9,791.3,1010.1,786.6,1011.3,782z M707.9,1114.6c-1-3.1-1.8-5.4-2.4-7.7
		c-0.5-1.9-1.3-2.5-3.4-1.9c-5.7,1.6-11.5,2.9-17.2,4.5c-1,0.3-2.5,1.4-2.5,2.2c-0.1,1.9,1,3,3.2,3c4-0.1,8,0,12,0L707.9,1114.6z
		 M938.3,538.5c1.5-3.2,3.4-6.4,4.5-9.9c0.6-2.1,0.7-5.1-0.3-6.8c-6.1-10.1-12.7-20-19.1-30c0.3,2.2,1.2,3.9,2,5.8
		C930.9,510.8,939.2,523,938.3,538.5z M1033.1,538.5c-8.2-10.6-26.7-17.3-36.8-11.1L1033.1,538.5z M597.5,837.7l19.9,7
		c-3-6.4-6-12.9-8.9-19.1L597.5,837.7z M620.9,555.4c0.3,6.1,0.6,11.9,0.9,18.4l15.7-8.8L620.9,555.4z M565.4,732.3
		c2.9,0.8,5.2,1.4,7.5,2c2.6,0.7,5.7,2.5,7.6,1.6c2-0.9,2.9-4.4,4.2-6.8c0.1-0.2,0-0.4,0-0.6l-5.6-6.6L565.4,732.3z M824.1,874.7
		c2.4,5.1,4.6,9.8,6.9,14.4c0.6,1,1.6,1.8,2.8,2.2c3.5,1.1,7.2,2,11.2,3.1c-0.8-2.4-0.9-5.8-2.6-7.1
		C836.8,882.8,830.6,879.1,824.1,874.7z M732.8,373.1l0.4-2c-13-3.5-25.6-8.6-39.4-7.7l-0.2,1.2L732.8,373.1z M1072.3,904.8
		c-7.6-4.8-15-9.4-22.3-14c2,4.1,4,8.5,6.1,12.7c0.3,0.5,1,1.2,1.5,1.2C1062.4,904.8,1067.4,904.8,1072.3,904.8z M614.3,738.9
		l-8.6,11.4l2.6,2.9l14.1-7.5L614.3,738.9z M771.8,409.4c0.8,5.1,1.7,10.3,2.6,15.7l11.9-7.6L771.8,409.4z M1183.7,1178.6
		c4.2,0.5,3.6,1.7,3.9,0c0.9-5,0.7-10.1,0.9-15.5c-3.1,0.7-5.2,1.6-4.7,5.2c0.2,2.5,0.3,5,0.1,7.5c-0.1,1-0.4,1.9-0.8,2.8
		C1182.7,1180,1184.3,1176.9,1183.7,1178.6L1183.7,1178.6z M914.4,600.1c0.6-6.4,1.1-11.9,1.6-17.3l-0.6-0.3
		c-2.8,3.5-5.6,6.9-7.9,9.7L914.4,600.1z M1258.1,913.6l9,36.5l0.9-0.3C1265.4,937.6,1266,924.5,1258.1,913.6L1258.1,913.6z
		 M746,480c-0.4,1-1.1,2-1.2,3.1c-0.6,6.3-1,12.7-1.4,19.1c0,0.7,0.4,1.3,0.9,1.7c2.8,2.3,5.6,4.5,8.5,6.7
		C743.7,501.8,745,491,746,480z M1032.1,862.9l1.6-0.3c-3.4-15-6.7-30-10.1-45l-1,0.2C1025.8,832.8,1029,847.8,1032.1,862.9
		L1032.1,862.9z M1002.6,862.8l0.5-0.5l-10.3-9.7l-5.2,4.7L1002.6,862.8z M1041.6,1184l7.4,24.9c-0.9-7.9-2.3-15.6-3.6-23.3
		C1045.1,1183.3,1043.9,1183.1,1041.6,1184L1041.6,1184z M1075,607.3c3-0.1,4.3-1.3,3.9-3.9c-0.6-3.8-1.4-7.6-2.2-11.4
		c-0.2-0.9-1-1.7-1.6-2.7L1075,607.3z M852.3,895.1l-0.9,0.3c3,8.4,3.9,17.3,2.5,26.1c1-0.8,2.4-1.8,2.3-2.7
		c-0.4-6.5-0.9-13-1.7-19.5C854.4,897.9,853.1,896.5,852.3,895.1z M1166.7,1247.1c0.9-6.6,1.7-12.8,2.4-18.8
		C1164.3,1233.7,1163,1240,1166.7,1247.1L1166.7,1247.1z M636.6,352c0,0.3,0,0.6-0.1,1c4.9,2.8,14.1,3.6,19.6,0.8L636.6,352z
		 M680.7,1114.5l0.6-0.9c-0.8-0.9-1.8-2.6-2.4-2.4c-3.8,0.7-7.5,1.7-11.3,2.7l0.1,0.7H680.7z M1087.7,602.6c-1.1-1.5-2-2.9-3.3-4.7
		c0.3,4.1,0.5,7.3,0.8,10.6h0.8C1086.5,606.3,1087.2,604.2,1087.7,602.6L1087.7,602.6z M1145,611.9l-0.1,0.6l10.3,1.2
		c0-0.4,0.1-0.9,0.1-1.3L1145,611.9z M1181.1,1284.1l-1.1,0.4c1.1,3.2,2.1,6.4,3.2,9.6l1.2-0.4
		C1183.4,1290.4,1182.3,1287.2,1181.1,1284.1L1181.1,1284.1z M613.7,831c-0.9-3.8-1.7-7-2.5-10.2C609.8,823.3,610.4,826,613.7,831z
		 M813.5,605.3l-1-0.6L808,615l0.6,0.3C810.3,612,811.9,608.6,813.5,605.3z"/>
	<path d="M481.8,884.2c6.3-4.3,12.2-9.4,19-12.6c10.7-5.1,22-9,33.1-13.4c0.4-0.2,0.9-0.3,1.3-0.3c16.4-0.1,32.7-1.4,48.8,3.4
		c13.8,4.1,25,12.2,35.7,21.3c0.6,0.5,0.7,1.5,1,2.3c-0.9,0.1-2,0.4-2.8,0.1c-5-2.1-9.8-4.5-14.7-6.6c-15.9-7-33-10.8-50.3-11.1
		c-11.7-0.3-23.3,1.6-34.3,5.5c-10.9,3.9-21.9,7.4-32.9,11.1c-1.2,0.4-2.3,0.7-3.5,1.1L481.8,884.2z"/>
	<path d="M556.3,522.3c-13.6-6.8-19.8-19.5-26.5-31.8l0.8-0.7c2.9,3.1,5.9,6.1,8.7,9.3c4.6,5.1,9.2,10.2,15.5,13.4
		c9.1,4.6,10.9,4.2,18.1-3c5.8-5.9,12.1-11.2,18.2-16.7c0.9-0.8,2.1-1.2,3.2-1.2c-6.8,11.2-17.1,19.5-25.5,29.9
		c0.8,0.7,1.5,1.6,2.4,2c3.1,1.2,4.1,2.7,2.4,5.3c-1.4,2.1-0.7,3.2,0.4,5c6.5,10.3,12.8,20.6,19.1,31.1c1.1,1.9,1.8,4,2.3,6.1
		c0.2,0.9-0.5,1.9-0.8,2.9c-1-0.3-2.4-0.4-2.9-1.1c-2.4-3.2-4.6-6.6-6.7-10c-5.8-9.9-11.5-19.8-17.4-29.7c-0.9-1.5-2.8-2.2-4.1-3.5
		c-1.6-1.6-3.1-3.3-4.9-5.1c-2.2,3.2-4.3,6.4-6.7,9.5c-1.8,2.2-3.7,4.4-5.8,6.3c-0.6,0.6-1.7,0.6-2.6,0.9c0-1-0.5-2.4,0-3
		c3.7-4.9,7.6-9.7,11.5-14.5C555.4,523.3,555.8,522.9,556.3,522.3z"/>
	<path d="M422.1,344.4c1.3-0.6,2.6-1,4-1.3c21.3-3.2,42.5-7,63.9-9.3c27.6-3,55.4-4.1,83.1-3.4c5,0.1,10,0.8,15.1,1.3
		c0.9,0.2,1.9,0.5,2.8,0.9l0.2,1.2c-1.2,0.4-2.4,1.1-3.6,1.2c-7.2,0.5-14.4,0.9-21.6,1.2c-19.7,0.6-39.5,0.5-59.1,1.9
		c-26.8,1.9-53.6,5-80.4,7.6c-1.3,0.1-2.6,0.2-3.9,0.3L422.1,344.4z"/>
	<path d="M1053.4,934.3c1.8,5.4,3.8,10.7,5.2,16.2c3.2,12.6,8.1,24.3,16,34.7c1.3,1.7,2.3,3.7,3,5.7c0.7,2-0.4,3-2.4,1.9
		c-1.7-0.9-3.2-2.1-4.5-3.5c-9.1-9.9-14-22-16.8-34.9c-1.2-5.5-1.4-11.1-2-16.7c0-1.1,0.1-2.2,0.2-3.2L1053.4,934.3z"/>
	<path d="M1012,973.4c5.2-13.5,1.7-27.2,1.8-40.8c0.1-4.7,0.5-9.3,1.2-13.9c0.1-0.9,1.5-1.7,2.3-2.6c0.7,0.8,1.8,1.5,2.1,2.4
		c0.9,3.5,2,7.1,2.1,10.7c0.5,10.1,0.5,20.2-2.3,30.1c-1.5,5-4.1,9.6-6.1,14.4L1012,973.4z"/>
	<path d="M671.2,1192.5l145.4-8.3c0,0.2,0,0.3,0,0.5c-24.2,2.2-48.4,4.8-72.7,6.3s-48.3,4.1-72.6,3.3
		C671.3,1193.8,671.3,1193.1,671.2,1192.5z"/>
	<path d="M512.1,641.9c17.3,26.3,30.7,54.5,43,83.3c-3.1,1.2-4.4-0.3-5.5-2.9c-8.2-18.2-16.5-36.4-24.9-54.5
		c-3.5-7.6-7.5-15-11.3-22.5C512.9,644.3,512.5,643.1,512.1,641.9z"/>
	<path d="M1282.5,827.9c2.1-3.7,4-6.7,5.6-10c5.4-10.9,10-22.1,11.7-34.3c0.1-0.8,0.3-1.6,0.6-2.3c4.3-10.8,3.2-22,2.3-33.2
		c-0.1-1,0.1-2,0.7-2.8c0.6,4.9,1.1,9.8,1.8,14.7c3.1,23.2-6.2,42.8-17.7,61.8c-1.2,2-2.5,3.8-3.8,5.7
		C1283.6,827.5,1283.5,827.6,1282.5,827.9z"/>
	<path d="M1190.8,926.5c-1.3-2.1-2.6-4.3-3.8-6.4c-5-8.8-10.1-17.7-15-26.6c-0.5-0.9,0-2.4,0-3.6c1,0.3,2.4,0.2,2.9,0.9
		c6.3,9.2,14.2,17.5,16.6,28.9c0.3,2.2,0.6,4.3,0.7,6.5L1190.8,926.5z"/>
	<path d="M752.2,1038.4c5.2,5.8,25.7,57.3,24.5,62.2c-1-1.8-2.1-3.5-2.9-5.3c-2.6-6.1-5.3-12.2-7.6-18.4
		C761.5,1064,756.9,1051.2,752.2,1038.4z"/>
	<path d="M525,725.9c-1-1-2.3-1.9-2.9-3.1c-3.7-7.9-7-15.9-11-23.7c-5.5-10.9-11.5-21.6-17.2-32.5c-2.9-5.6-5.5-11.3-8.2-16.9
		l1.2-0.6l39.6,75.7L525,725.9z"/>
	<path d="M679.5,948.5c-3.1,20.1-5.2,40.3-15.4,59c-0.2-0.6-0.4-0.9-0.3-1.1c6.5-16.8,9.2-34.5,11.9-52.2c0.3-2.1,1.6-4.1,2.5-6.2
		L679.5,948.5z"/>
	<path d="M1033.5,1083c-1,5.1-3.1,9.9-6.1,14.1c-5.5,7.6-12.8,13.1-20.9,17.6c-5.4,3-11.1,5.5-16.6,8.2c-1,0.5-2.1,0.6-3.1,0.2
		c5.6-3.2,11.5-6.1,16.8-9.7c6.5-4.4,13-9,18.7-14.3c3.4-3.2,5.3-7.9,7.8-12c0.9-1.5,1.6-3,2.4-4.6L1033.5,1083z"/>
	<path d="M1131.4,1110.7c-14.8-12.1-26.1-27.7-40.1-40.6l0.6-0.9c0.9,0.3,1.8,0.8,2.5,1.4c7.6,7.4,15.4,14.7,22.7,22.4
		c5.2,5.4,9.9,11.4,14.8,17.2L1131.4,1110.7z"/>
	<path d="M710.5,1054c-13.2-13.1-16.8-30.3-20.5-47.4l1.5-0.6c0.6,1.5,1.4,3,1.6,4.6c1.7,10.7,5.2,21,10.4,30.4
		C705.9,1045.3,708.2,1049.7,710.5,1054z"/>
	<path d="M584.8,1125.7c-0.6-1.4-1.5-2.7-1.7-4.1c-1.7-9.2-3.4-18.5-4.9-27.7c-1.1-6.7-2-13.5-2.9-20.3l1.1-0.2l9.7,51.8
		L584.8,1125.7z"/>
	<path d="M983.8,1004.2c4.3-5.1,7.9-9.9,13.5-13.1c4.4-2.6,7.9-6.8,10.5-9.1C1005.3,990.9,994.3,1002,983.8,1004.2z"/>
	<path d="M516.7,1136.1h-14.8c0,2,0.3,3.9-0.1,5.5c-0.3,1.1-1.7,2-2.7,2.9c-0.8-1-2.1-1.9-2.3-2.9c-1-5.2-0.3-6.1,4.6-7.5
		c4.4-1.3,8.8-2.5,13.8-3.9L516.7,1136.1z"/>
	<path d="M990.5,1112.6c0.7,1.7,0,3.4-2.2,4.2c-6,2.2-12,4.3-18,6.3c-2.8,0.9-5.7,1.7-8.6,2.4c-1,0.2-2,0.3-3,0.3l-0.3-1.2
		L990.5,1112.6z"/>
	<path d="M497.4,726.8c-1.2-0.7-2.8-1.2-3.4-2.3c-6.6-10.6-13-21.4-19.4-32.1c-0.1-0.1,0-0.4,0.1-0.8c9.6,10.3,16.9,22,23.5,34.2
		C497.8,726.2,497.6,726.5,497.4,726.8z"/>
	<path d="M706,1027.6l22.9,47l-0.2,0.2c-0.8-1.1-1.8-2.2-2.5-3.4c-2.2-3.3-3.9-6.9-7.8-8.8c-0.9-0.4-1.3-2.3-1.9-3.5l1-0.5l2.7,2.5
		l-14.9-33.2L706,1027.6z"/>
	<path d="M473.4,727.3c-0.9-0.4-2.2-0.5-2.7-1.2c-6-9.4-11.8-18.8-17.7-28.2c-0.1-0.2,0-0.6,0-2c7.3,10.7,14,20.7,20.7,30.6
		L473.4,727.3z"/>
	<path d="M528.9,1124.5c-2.6,0.5-3.5-1.2-3.8-3.2c-1.7-9.8-3.3-19.7-4.4-29.6L528.9,1124.5z"/>
	<path d="M441.5,737.2v5.9c-4.1-0.7-7.9-1.2-11.6-2c-0.7-0.1-1.2-1.2-1.7-1.8c0.7-0.5,1.3-1.3,2.1-1.4
		C433.9,737.5,437.5,737.4,441.5,737.2z"/>
	<path d="M814.5,913.8c-1-7.4-1.9-14.7-2.9-21.8C815.8,896.2,817.9,907.8,814.5,913.8z"/>
	<path d="M539.5,1101.9l6,28.3C542.8,1127.5,539.3,1110.8,539.5,1101.9z"/>
	<path d="M678.2,940.6l-4.3-19.6C676.4,927.3,678.7,933.6,678.2,940.6z"/>
	<path d="M519.5,1044.8v16.7h-0.8v-16.6L519.5,1044.8z"/>
	<path d="M926.6,758.6l-2-0.2c0.9,3.8,1.6,7.4,2.8,10.8c0.3,0.8,2,1.5,3.1,1.5c6.3-0.2,12.4,0.3,18.1,3.3c1.2,0.7,2.4,1.5,3.6,2.3
		l-0.3,1.1c-1.7-0.2-3.4-0.5-5.1-0.7c-6.3-0.7-12.7-1.5-19-2c-1.2-0.1-2.9,1.1-3.7,2.1c-1.7,2.1-3,4.6-4.5,6.9
		c-1.5,2.3-3.5,4-6.6,3.4c-3-0.6-4.5-2.6-4.9-5.5c-0.1-0.4-0.3-0.8-0.5-1.1c-15.2,7.1-29.2,16.2-43.1,25.3
		c14.1-13.6,27-28.8,47.4-33.5c1.5-2.9,0.5-5.1-1.7-7.4c-6.7-6.8-9.6-15-8-24.5c1-5.9,5.4-9.5,9.8-13.2c-2.3,6.1-7.1,11.3-5.9,18.6
		c1.1,7,4.5,12.6,9.7,18.5c2.4-5.5,4.7-10.4,6.8-15.4c1-2.5,1.8-5,2.4-7.5c3.8-14.3,14.7-21.8,26.9-28.1c0.2-0.1,0.4,0.1,1.6,0.3
		c-12.9,9.3-22.4,20.4-26.3,36.7c3-3.7,5.4-6.7,7.9-9.7c7.2-8.7,15.1-16.7,24.2-23.3c3.9-2.8,8.2-4.9,12.5-7.1
		c1.3-0.7,3.1-0.6,4.7-0.9l0.5,1.2c-1,1.1-2.2,2-3.4,2.8c-17.6,9.6-30.8,24-43.3,39.2C928.6,754.1,927.8,756.2,926.6,758.6z"/>
	<path d="M817.3,705.2c-8.1-4.8-14.9-9.7-11.6-20.1c2.5,6.6,5.8,12.5,12.8,15.6c1.9-2.5,3.5-5.9,7.7-5.5c0.4,0,1.1-1.4,1.2-2.2
		c3.5-17.9,14-29.8,30.6-36.6c2.4-1,4.7-2.1,7-3.2c0.2,0.3,0.3,0.6,0.5,0.8c-2.5,2.1-4.9,4.3-7.6,6.2c-10.5,7.6-19.6,16.4-24.3,28.7
		c-1.6,4.1-1.9,8.8-2.9,13.5c6.5-1.9,12.2-4.2,18.1-5c6.7-0.9,13.6-0.7,20.5-0.6c1.8,0,3.6,1.6,5.4,2.4c-0.1,0.5-0.3,1-0.4,1.5
		c-1.5,0-3.1,0.1-4.6,0c-12.3-0.7-24.6,1.3-36,5.9c-3.6,1.4-5.2,3.6-5.1,7.5c0.2,12,1.5,23.8,7.2,34.7c0.3,0.6,0.5,1.3,0.7,1.9
		c0,0.2-0.1,0.4-0.4,1.1c-3.7-1-5.9-3.5-7.2-6.9c-3.2-8.2-4.4-16.8-4.8-25.6c0-0.9,0-1.8,0-2.9h-5l-2.5-6
		c-12.1,1.9-21.3,7.7-28,17.4c-6.5,9.4-10.3,19.7-8.3,31.4C773.7,740.8,785.5,711.6,817.3,705.2z"/>
	<path d="M1008.8,704.5c-2.1-0.1-4.1,0-5.9-0.5c-1.4-0.4-2.6-1.6-3.9-2.5c1.1-1.3,1.9-3.2,3.2-3.7c6.5-2.5,13.6-3.5,20.6-2.7
		c0.9,0.1,1.8,0.2,2.7,0.2c0.1-15.2,10.2-24.2,20.7-32.3c8-6.2,17-11.1,25.7-16.5c1.1-0.7,2.4-0.8,3.6-1.2l0.6,0.9
		c-0.8,1-1.6,1.9-2.5,2.7c-8.9,6.9-17.9,13.6-26.7,20.6c-6.5,5.1-11.7,11.8-15.1,19.3c-1.8,3.9-1.7,8.7-2.6,13c-0.2,1-0.5,2-0.9,3
		h-0.9c-0.3-0.8-0.8-1.6-0.7-2.3c0.4-4.2-1.8-5.1-5.4-4.7c-1.8,0.2-3.7-0.1-5.5,0C1010.3,698.3,1010,698.6,1008.8,704.5z"/>
	<path d="M1001.8,742.8c-2.4-0.5-5-0.5-7.1-1.7c-6.8-4-11.2-9.8-11.4-18c-0.1-3.7,0.2-7.3,0.8-11c0.9-6.1,4.6-8.7,10.6-8.1
		c1.9,0.1,3.9,0.4,5.8,0.8c2,0.5,4,1.4,5.7,2.6c-2.6,0.9-5.9,0-6.4,4c0,0.4-2.1,0.6-3.2,0.7c-2,0.1-2.7,1-2.8,3
		c-0.3,6.8,1,12.7,6.7,17.5c2,1.6,1.7,6,2.4,9L1001.8,742.8z"/>
	<path d="M937.8,850.9c3.8-4.2,7-9.3,11.6-12.4c11.6-7.7,19-18.7,25.8-30.3c4.9-8.4,8.8-17.3,13.2-26c0.6-1.2,1-2.6,1.9-3.7
		s2.2-1.5,3.2-2.2c0.1,1.2,0.1,2.4,0,3.7c-0.3,1.1-0.8,2.2-1.4,3.1c-8.8,18.3-18.6,36.1-32.9,50.9c-5.5,5.7-12,10.6-18.1,15.8
		c-1,0.6-2,1.2-3.1,1.6L937.8,850.9z"/>
	<path d="M1138.6,858.5c-15.9,3.8-28.5-2.4-40.2-11.8c-2-1.5-3.9-3.2-5.7-5c-0.6-0.6-0.7-1.7-1-2.6c1-0.1,2.2-0.6,3-0.2
		c7.4,3.6,14.6,7.6,22.1,11c6.5,2.9,13.2,5.1,19.8,7.6C1137.4,857.8,1138,858.1,1138.6,858.5z"/>
	<path d="M619.4,650.7c0.6,1.5,0.8,2.1,1.2,3.2c2.5-2.1,4.7-3.9,7-5.8l0.5,0.4l-9.9,11.8l0.4,0.6c1.4-0.8,2.7-1.7,4.1-2.4
		c2.9-1.5,6-2.9,9-4.1c1.4-0.4,2.9-0.3,4.3,0.1c0.5,0.1,0.8,1.4,0.9,2.2c0,0.3-1.2,1.1-1.4,1c-3.5-2-6.2,0.6-8.6,2.1
		c-5.3,3.2-10.2,7.4-15.3,11c-1.1,0.8-2.7,1-4,1.5c-0.1-1.6-0.9-3.6-0.2-4.6C611.1,662.1,615.1,656.7,619.4,650.7z"/>
	<path d="M672.1,685.6c-17.5,12.6-34.9,25-34.4,50.2c-2.1-2.8-2.4-9.5-1.1-14.4c1.6-6.2,4.9-11.6,8.9-16.5
		c6.3-7.6,13.3-14.3,22.5-18.2c0.8-0.4,1.7-0.7,2.6-0.9C671.2,685.7,671.6,685.6,672.1,685.6z"/>
	<path d="M640.1,699.3c-2.4,2.8-5.1,5.4-6.9,8.5c-1.6,2.6-2.6,5.5-3,8.5c-0.5,4.8-0.2,9.6-0.2,14.4c0.1,0.7,0,1.4-0.1,2
		c-0.5,0.9-1.1,1.8-1.7,2.6c-0.6-0.8-1.7-1.6-1.8-2.5c-0.5-4.2-0.6-8.5-1.1-12.7c-0.7-5.9,0-10.9,6-14.2c3.2-1.8,5.7-4.8,8.6-7.2
		L640.1,699.3z"/>
	<path d="M671.2,700.5c-4.3,4.8-8.6,9.2-12.6,13.9c-4,4.7-6.7,10.2-7.3,16.6l-1.1-0.2c0-2.4-0.5-4.9,0.1-7.1
		c2.2-7.6,6.8-13.7,12.4-19C664.9,702.7,668.3,701.9,671.2,700.5z"/>
	<path d="M692.9,697.4c-4.9,3.9-10.1,7.4-14.6,11.7c-4.5,4.3-7.9,9.4-12.3,14.9c0.1-1.7-0.2-3.1,0.3-4.1c3.2-6.8,7.8-12.5,14.1-16.4
		c3.9-2.4,8.2-4.4,12.2-6.5L692.9,697.4z"/>
	<path d="M786.3,824.3c15.8,13.4,35.1,20,53.8,27.9C830.3,850.5,791.9,833.9,786.3,824.3z"/>
	<path d="M1196.9,646.2c9.2,4.4,18.5,8.5,26.7,14.8l-0.5,1l-26.8-14.6L1196.9,646.2z"/>
	<path d="M708.4,707.6c5.1-5.2,10-10.5,16.7-13.6l0.8,1.1L708.4,707.6z"/>
	<path d="M720.5,707.3c-3.1,6.2-6.2,12.4-9.3,18.5C710.6,722.3,714,714.9,720.5,707.3z"/>
	<path d="M1154.6,626.4l13.2,8.1l-0.7,1.1l-13.3-8.2L1154.6,626.4z"/>
	<path d="M899.4,586.6c0-2-0.7-4.6,0.3-6.1c7.3-11.4,16.1-21.7,26.1-30.8c-7.3,9.4-15.8,20.5-24.3,31.6
		C900.3,582.8,900,584.9,899.4,586.6L899.4,586.6z"/>
	<path d="M953.6,623.5c-3.1-12.6,8.7-32.8,21.1-37c-2.2,2.1-4.1,3.6-5.6,5.3c-3.1,3.4-6.3,6.7-9.1,10.3c-3.2,4.2-5.5,8.9-5.2,14.6
		C954.9,618.9,954,621.2,953.6,623.5z"/>
	<path d="M962.8,576.6c-7.6,8.5-17,15.5-21.1,26.7C944.3,590.9,952.4,582.8,962.8,576.6z"/>
	<path d="M942.9,610.3c1.3,2.4,2.6,4.8,4.3,8c-1.4,0.3-3.1,1.2-3.6,0.7c-2.6-2.1-2.3-5.2-2-8.1L942.9,610.3z"/>
	<path d="M1094.7,1252.1c-3.9-2.9-6.4-6.7-8.5-11.2c-5.4-11.7-7.8-24.1-9.1-36.9l18.8,47.6L1094.7,1252.1z"/>
</g>
</svg>
