<svg id="Layer_1" data-name="Layer 1" xmlns="http://www.w3.org/2000/svg" width="600mm" height="600mm" viewBox="0 0 1700.79 1700.79">
  <title>sketches frames</title>
  <g>
    <path d="M390.86,451.24c-1.56.85-3,2.16-4.68,2.45-8.3,1.47-16.66,2.67-24.85,5.23,13.86-.69,27.72-1.34,41.59-2.06,34.05-1.77,68.09-4.21,102.17-5.14,25-.69,50,.44,75,1.07a18,18,0,0,0,11.78-3.71c3.54-2.58,7.55-4.51,12.69-7.51,1.11,5.93,1.9,10.22,2.78,14.91,7.37-2.58,9.59-10.32,15.5-14.72,6.2,2.45,12.5,1.19,18.92-.33a91.62,91.62,0,0,1,16-2.38c58.52-3.25,117.06-4.48,175.59-.17,10.64.78,21.22,2.3,31.77,4.07l-124.4-2.67c20.63,4.76,41.67,2.6,62.86,4-.66,1.76-1.09,2.9-1.7,4.5L905.36,460c-1.63-8.72,1.44-17.44-1.41-26.85,7.8,1.95,6,10.25,11.79,13.42,1.16-1.89,2.69-3.59,3.33-5.58,1.5-4.66,4.91-6.16,9.21-5.86s8.77.28,12.48,2c15.1,6.84,30.94,7.3,46.85,5.72,34.91-3.46,69.81-2.93,104.79-1.54,17.58.7,35.23-.1,52.84-.58,5.16-.13,9.62-.37,11.52,5.77,1.22,4,4.32,5.76,8.47,5.88,8.22.24,16.43.58,24.66.8,2.27.06,4.54-.17,6.82-.2,10.49-.14,12.57,2.1,11.09,12.43a28.7,28.7,0,0,1-2.54,9c-9.17,17.64-10.62,36.17-7.81,55.56,2.19,15.14,3.33,30.44,4.91,45.47l274.37,143.92c-.65,8.57-1.43,17.28-1.94,26-1.53,26.38-2.78,52.78-4.55,79.14-.56,8.37,2.35,13.11,9.8,17.43C1519,864.42,1559.79,883,1601,900.91q39.07,17,78.13,34c2.54,1.11,5,2.46,8.38,4.17l-5.65,4.07c3.49,29.25-5.31,57.08-12.85,85.84l8,1a6.5,6.5,0,0,1-.17,2.25c-2.11,4.65-4.62,9.13-6.41,13.89-1.91,5.06-2.1,10.11,4,13.86-2.41,1.07-4.78,1.44-5.93,2.82s-1.15,3.7-1.35,5.65q-3.87,36.87-7.64,73.75c-1,10.17-2.09,20.33-3.3,32.09-2.23-2.64-3.67-4.36-5.33-6.31-.49.08-1.29.24-2.1.32-6.76.7-13.55,2.1-20.29,1.93a113.41,113.41,0,0,0-56.42,12.94c4.71,1.6,9.12,1.66,17.41.31,11.21-1.82,22.4-3.87,33.67-5.26,5.22-.64,10.62,0,16.58.14-1.36,6.42-5.54,8.54-9.83,9.13a52.47,52.47,0,0,1-16-.12c-17.65-3.08-35.18-1.72-52.59,1.11-28.6,4.65-57.08,10-85.63,15-18.23,3.17-36.57,5.27-55.12,4.62-3.81-.14-6.89,1-10.37,2.59-5,2.33-10.79,3.25-16.35,4.13-6.65,1.06-13.42,1.46-20.07,3.28,3.89,0,7.81.32,11.66,0q54.74-5.26,109.44-10.76c35.9-3.62,71.79-7.39,107.69-11a31.86,31.86,0,0,1,12,1.1c-14,1.85-27.87,3.94-41.85,5.5-50.83,5.67-101.68,11.15-152.52,16.73-47.17,5.17-94.3,10.52-141.76,12.69-14.67.68-29.26,3.83-43.78,6.43-4.25.76-8.08,3.69-12.23,5.3-2.16.84-4.6,1-8,1.67-.54,1.1-1.59,3.28-2.58,5.34-13.12-.74-14.42-2.25-14.42-17.14-5.34-3.85-11-8-16.83-12.08-1.07-.75-3-1.7-3.75-1.24-4.84,3-8.14-.47-11.63-2.58-5.59-3.38-11.1-6.91-16.45-10.65q-54.59-38-109.05-76.23c-9-6.36-17.53-13.48-26.44-20a11.42,11.42,0,0,0-6.23-1.75c-13.65-.2-27.3-.23-40.95-.19a30.24,30.24,0,0,0-7.58.91c-18.75,4.9-38,6.66-57.12,9-23.37,2.91-46.68,6.36-70,9.58-14.89,2.06-30,3.17-44.63,6.42-18.18,4-36.54,5.13-54.95,6.37-41.4,2.8-82.84,5.11-124.19,8.58-14.35,1.2-28.46,5.26-42.7,7.92-6.14,1.15-12.37,1.78-17.55,5.91-1.2,1-3.2,1-4.86,1.25-28.65,4.34-57.29,8.77-86,12.9-12.08,1.73-24.26,2.8-36.4,4.18-2.23.25-4.46.53-6.44.77l-4.72,9.71c-1.39-.14-2.13,0-2.49-.27-7.86-6.54-17-5.17-26-4.14-31.05,3.53-62,8.11-93.18,10.27-19.39,1.34-38.76,3.64-58.23,3.81h-2.56c-8.31,0-8.31,0-11.59,8.38-.33-2.15-.55-3.49-.72-4.84s-.29-2.73-.41-3.84l-34-7.72-.55,1.36c-1.6-2-3.26-3.87-4.78-5.88-37.47-49.39-74.24-99.27-106.95-152-1.89-3.06-4.8-5.55-7.48-8-4.38-4-9.1-7.73-13.43-11.83a26.42,26.42,0,0,1-7.74-13.51l8,6.37,1.41-1.15c-2-2.86-4.23-5.63-6.1-8.6-2.71-4.29-5.22-8.71-7.75-13.11-.56-.95-.6-2.68-1.32-3-5.6-2.38-4.48-7.07-4.56-13.54L32,978.84c.8-.59,1.48-.84,1.5-1.13.21-3.66.85-7.31-4.07-9-1.07-.38-1.53-4-1.4-6,.89-13.61,2-27.2,3.06-40.8.95-12.18,2.14-24.35,2.76-36.55A101.14,101.14,0,0,0,31,856.59c-1.84-7.83-1.42-16.33-1.18-24.51.44-15.32,1.67-30.63,2.17-46,.19-5.6-.15-11.42-4.63-15.75l5.88-13.25c-.66-5-7.77-5.58-11-10.65,9.9-4.6,20.14-6.25,30.36-7.69,26-3.64,52.18-3.06,78.34-3,18.76,0,37.53-.27,56.29-.58,4.21-.07,8.4-.8,13.52-1.32.72-13.82,1.94-27.09,2-40.37.17-35-.36-70-.2-104.93.08-17,1-34.09,1.72-51.12.49-10.57.72-10.57,11.13-8.5,14.28-26.18,39.42-29.74,66.22-31,1-2.3,1.95-4.87,3.11-7.36,2.18-4.66,6.21-7.23,10.71-9.28,9-4.08,9.17-4.61,5.82-14a6.09,6.09,0,0,1-.15-1.53c5.23-7.93,12.6-10.07,21.81-10.39,22.71-.81,45.37-2.71,68-4.17ZM285.22,515.45c4.2-4,4.34-4.54,1.94-10.93-.77,4.4-1.34,7.68-1.86,11v11.63l1.16-.07Q285.83,521.29,285.22,515.45ZM711.76,1098.7l-5.71,2.82.36,1.25,10.83-2.26-.19-1.62h-5.53l7.57-2.55c-.13-.41-.25-.81-.38-1.21l-11.78,1.32c0,.57.07,1.14.1,1.72Zm714.4,13.93v-7.11c-2.12.45-4.55.31-5,1.17-2.1,4.16-5.77,3.94-9.43,4.28a42.94,42.94,0,0,0-7.48,1.33c-3,.82-5,2.6-4.24,6.55,9.52.62,18.18-2.12,26.45-6.54.61.58,1.17,1.61,1.82,1.67,9.16.79,18.12-.23,26.52-4.12,3.25-1.5,6.08-3.82,6.81-8.25-5.25.47-10,1.05-14.79,1.3C1438.59,1103.34,1431.51,1106.1,1426.16,1112.63ZM67.81,933.41c-.56-3.6-2.9-5.54-6.44-7.25v8.39L68,933.26c-.38,13.46-4.2,26.87-1.08,40.39,2.14-5.22-.21-11.35,4.21-16,0,4.81-.79,9.5-1.18,14.22s-1.52,9.42,3.13,14.42c1.54-14.83,3-28.57,4.31-42.31a5.14,5.14,0,0,0-1.24-3.77C73.51,937.78,70.6,935.66,67.81,933.41Zm899.24,22.07c-.4,2.42-.8,4.84-1.3,7.83h10.73c-1.83-5.46,2.91-11.09-.7-16.4l-9,8.85c1.27-2.49,2.63-4.94,3.78-7.49,1.75-3.86,3.77-7.67,4.93-11.72s-.55-8.1-1.68-12.25c-1-3.52,4.18-7.7.91-13.24-14.78,15.4-28.09,31.3-35.16,50.45,2.87,1.35,4.62,2.94,6.25,2.82,7.43-.53,15.73.66,19.82-8.15C965.76,955.8,966.54,955.71,967.05,955.48Zm-301.76,99.8,8.39-16.7-23.42,3c-2.4,3.08-4.72,6-6.92,8.91s-5,5.59-5.13,11.16l10.56-12.24,1.53,1.24c-9.24,16.27-25.2,27.79-34.49,46,6.21-.52,10.91-1.2,15.62-1.22,3.92,0,6-1.86,8.2-4.88,6.83-9.4,14-18.53,21.11-27.76l-15.93,30.65c13.15,1.88,23.88-2.1,32-12.81,2.87-3.76,5.93-7.37,8.91-11.06L674.17,1091l27.65-2.56a64.23,64.23,0,0,1,4-6.52c7-8.69,14-17.29,21.09-25.92-2.1,3.29-4.1,6.64-6.32,9.84-4.79,6.92-10,13.55-13,21.53,6.38,0,12.28-.2,18.16.07a10,10,0,0,0,8.84-4c6.22-7.71,12.38-15.46,18.61-23.16,2.65-3.28,5.43-6.45,8.15-9.67-6.45,11.46-12.9,22.92-19.9,35.33,8.55,0,16.18.21,23.77-.15a8.43,8.43,0,0,0,5.5-3.16c11.25-15,22.31-30.06,33.36-45.17a31.36,31.36,0,0,0,2.43-4.89,10,10,0,0,0-2-1.16,15.28,15.28,0,0,0-2.53-.26c-15.59-.9-28.14,5.17-38.3,16.71,2.59-4,5.17-8.11,8.62-13.52l-29.11,2c-1.54,2.07-3.42,4.9-5.6,7.48-3.58,4.23-7.36,8.3-11.06,12.44,1.62-3.17,3.27-6.33,4.86-9.52,1.42-2.85,2.77-5.73,4.45-9.22-7.36,0-13.27.24-19.16-.08-4.16-.22-6.6,1.46-9,4.7-6.12,8-12.72,15.73-19.12,23.56,3-4.76,6-9.5,8.9-14.31,2.42-4,5.12-8,3.87-13.49-10.94-1.16-19.71,2.53-27.33,9.61C671.2,1050.16,668.22,1052.69,665.29,1055.28ZM1421,1159.53c7.35-10.39,14.73-20.76,22-31.18,2-2.89,4.93-5.59,3.18-9.92-7.19,1-14.17,1.64-21,3-1.87.36-3.82,2.33-5,4.07q-21.06,31.38-41.84,62.94c-1.14,1.72-1.69,3.83-2.6,5.95,13.82,1.66,20.33-.81,28.46-10.38,1.09-1.29,2.28-2.49,3.42-3.74l-3.76,10.25c4.92-.68,8.78-1.25,12.65-1.74,4.83-.61,8-3,10.36-7.47,3-5.77,6.83-11.09,10.31-16.61,8.46-13.42,17-26.82,25.34-40.29,1.71-2.76,2.94-5.82,4.94-9.86-8,1.11-13.38,2.42-17.53,8.81-7.09,10.91-15.38,21-23.33,31.38C1425.16,1156.61,1422.9,1157.93,1421,1159.53Zm119.35,2.78a7.89,7.89,0,0,1,.57-2.4c8.92-14.45,17.93-28.84,26.82-43.3,2.66-4.34,5.13-8.81,7.45-13.34.79-1.54.85-3.46,1.24-5.2l-1.58-1.11a56.05,56.05,0,0,0-5.75,5.21c-6.76,8-13.32,16.17-20,24.19a62.09,62.09,0,0,1-5.32,5.06c2.62-4,5.26-8,7.83-12,3.79-5.9,8.1-11.55,9.55-19.58-8.92,1.44-17.22,3-25.58,4.05-4.71.6-7.36,2.94-9.84,6.91-9.91,15.88-20.24,31.51-30.47,47.2a29.34,29.34,0,0,1-3.44,3.72c9.11-19.37,23.06-35.61,32-55.86-6.59.87-12.16,1.72-17.75,2.29-3.3.33-4.73,2.42-6.31,4.93-5.89,9.36-12,18.56-18,27.86-6.15,9.53-12.36,19-18.25,28.72-2.11,3.46-3.35,7.45-5.24,11.78,16.92-2.74,32.56-5.12,48.1-8,2.42-.44,4.87-2.64,6.56-4.65,5.84-6.95,11.26-14.27,17-21.27,2.81-3.41,6.07-6.45,9.12-9.65-5.66,8.61-11.34,17.21-17,25.85-1.14,1.76-2,3.71-3.28,6.14a19.64,19.64,0,0,0,15.81-3.88c2-1.44,4.06-2.71,6.09-4-.78,3.88,1.11,5.28,4.69,4.86,4.21-.51,8.43-1.81,12.6-1.6,4.75.23,7.17-2,9.56-5.5,14-20.28,28.12-40.48,42.16-60.74,1.21-1.75,2-3.76,3.64-6.75-4.24.29-7.3.31-10.29.75-4.48.66-8.89,2.12-13.36,2.31s-6.31,2.29-8.41,5.72q-14,22.8-28.6,45.21C1549,1151.89,1544.47,1157,1540.35,1162.31Zm-1348.54-396,13.38-1.84c5.95-.81,12.08-.81,18.63-3.87-10.91-5.32-21.35-4.88-31.85-4.28-19.27,1.11-38.54,2.14-57.81,3.22-9.92.56-19.85,1-29.76,1.75-3.44.25-6.83,1.12-11.19,1.86,4.53,5.51,9.49,6.51,14.64,6.29,6.51-.28,13-1.43,19.49-1.64,21.57-.69,43.15-1.12,64.72-1.65a54.7,54.7,0,0,1-6.63,1.31c-19.22,1.43-38.45,2.75-57.68,4.16-8.08.59-16.15,1.3-25.11,2,3.61,6.52,8.92,8.9,14.86,9.5a104.63,104.63,0,0,0,17,.06c8.2-.5,16.35-1.87,24.55-2.13,21-.68,42-.84,62.94-1.46,7.82-.23,15.61-1.16,23.1-1.75.6-2.36,1-3.72,1.4-5.5,5.68,6.44,5.68,6.44,12.31,4.25-4.83-8.1-10.61-13.31-21.13-12.4C222.42,765.49,207.08,765.63,191.81,766.27Zm1241.5,51.86a54.37,54.37,0,0,1,19.12,8.71c2.49,1.76,6,2.17,10.16,3.59.68-35.95,5.92-70.12,6.3-104.64-13.58-3.85-26.05,1-39.47-.18,0,3.81-.52,6.7.11,9.31,1.08,4.44.24,8.72.11,13.1-.53,18.24-3.82,36.05-7.79,53.77-.59,2.66-.76,5.4-1.12,8.11a100.48,100.48,0,0,1,9.2,4.34c1.46.88,2.4,2.6,3.64,4-2.56-.52-5.1-1.16-7.69-1.51a30.38,30.38,0,0,0-5,.23c9.33,8.77,31.8,19.18,40.74,18.38-4.85-2.48-8.69-4.14-12.2-6.33C1443.91,825.56,1438.66,821.76,1433.31,818.13ZM1325.56,650a67.59,67.59,0,0,1-7.69-3q-53.26-28.59-106.48-57.28c-3.37-1.81-6.87-3.36-10.47-5.11-.71,1.94-1.08,2.71-1.26,3.51-2.71,12.14-3.9,10.07,7.23,16.19,25.63,14.08,51.54,27.66,76.81,42.35,40.49,23.53,80.55,47.82,120.84,71.7,2.57,1.52,5.87,3.67,8.35,3.16,10.27-2.11,20.38-.55,30.56,0,7.12.38,14.09-.14,21.91-3.93-61.84-31.21-120.81-65.53-182.33-95,11.74,8,23.92,15.27,36,22.64a63.34,63.34,0,0,1,6.36,5Zm-42.41,490.35c-3.6-1.86-6.43-1.12-8.68,2.34-3,4.63-6.21,9.17-9.33,13.75l-1.46-.83c4.55-7.9,9.11-15.79,14.66-25.42-6.48.92-11.17,1.45-15.8,2.29-11,2-22.08,5.34-33.54-3.57-.58,26.24-1.12,50.77-1.67,75.47,7.16,1.82,15.46-.77,20.43,6.55l3.66-2,1.82,4.95,22.84-9.26c-.34.89-1,2.59-1.74,4.61,9.46,1.74,15.39-3.31,21.41-9.24-.24,2.42-.4,4-.66,6.54,3.51-.51,6.48-1,9.47-1.35,3.36-.42,6.73-.74,10.34-1.13,12.59-24.85,32.78-44.92,45.14-71.72-4.93.59-8.55,1.6-12.07,1.32-6.16-.47-9.34,2.88-12.08,7.55-3.45,5.88-7,11.73-10.68,17.45-2,3.13-4.41,6.07-8.25,7.2a159.11,159.11,0,0,0,18.06-29.93l-17.17,2.07-10.78,15.79-.64-.57c1.93-4,3.85-8,5.47-11.42-2.13-2.77-3.91-5.1-5.73-7.48,4.67-1.44,8.81-2.26,12.51-4,3.48-1.64,3.48-3.5,1-8l5.37-1.81c-1.84-1.71-4-2.57-5.53-2-3.39,1.31-7.14,2.74-9.56,5.25-6.42,6.67-12.22,13.93-18.24,21-1.92,2.25-3.75,4.57-5.63,6.86l.19.15q1.61-4.5,3.22-9l-6.62-2.66c2.6-5.44,7.64-5.73,12.79-5.55l3.44-8.28-1.43-1.1c-4.81,4.69-12.76,1.62-16.88,7C1281.71,1135.29,1282.43,1137.82,1283.15,1140.35ZM312.62,824c-9.82-7.47-20.43-10-32.81-7.29-9.65,2.13-19.68,2.57-29.56,3.57-1.61.16-3.32-.73-5-1.13l.15-1.73,51.16-3.94a16.83,16.83,0,0,0-9.45-10.74,17.55,17.55,0,0,1-7.88-7.34c-4.94-8.52-12.82-12.65-22.32-13.85A71.85,71.85,0,0,0,245,781c-34.93,1.4-69.86,2.8-104.77,4.49-9.72.47-19.39,1.91-29.78,3,1.73,3.65,2.93,6.15,4.32,9.09l137.17,3c-43.53,2.62-87.11.23-131.67,1.8a218.47,218.47,0,0,0,18.8,33.75c15,22.31,33.55,41.48,51.78,61,8.71,9.35,17.26,12.49,30.31,11.38,52.66-4.48,105.44-7.42,158.18-11a36.53,36.53,0,0,0,5.22-1.2c-8.05-12.33-18.11-21.15-29.74-29.75.61,4.52,1.07,7.89,1.52,11.27l-2.06.83c-1.59-2.44-3.59-4.71-4.65-7.36-1.14-2.85-1.21-6.11-2.09-9.09-.6-2-1.29-4.61-2.82-5.72-9.86-7.08-17-16.69-24.71-25.78l8.34,3.33c-5.4-6.71-9.52-11.72-16.24-15.31Zm574.92-73c2.75,4.08,4.21,6.8,6.2,9.06,5.44,6.17,11.07,12.18,16.69,18.2,5.05,5.4,10.24,10.66,15.22,16.11,1.11,1.21,1.59,3,2.37,4.5l-.91.54-10.42-7.25-1.33,1.55,6.58,6.52c5.08,5,10.25,10,15.23,15.1,4,4.07,7.52,8.55,11.59,12.51,9.94,9.67,20.07,19.15,30.69,29.24l14.19-9.63c-17.92-15.58-38.54-25.35-54.21-41.52A193,193,0,0,1,961,820.84c8.22,6.31,16.92,11.88,27.4,12.95,5.21.54,8.32,3.19,11.21,6.73,3.41,4.18,6.42,8.7,10,12.75,1.3,1.48,4.13,3.24,5.47,2.74,3.87-1.44,5.86,1.14,8.39,2.68,18.69,11.36,37.1,23.23,56.11,34,31.36,17.84,63.12,35,94.7,52.46,3.17,1.76,6.23,3.73,9.34,5.6-17.54-4.52-31.72-16.34-50.28-22.41,1.76,1.88,2.22,2.66,2.91,3.08,19.72,11.9,39,24.45,57.08,38.74,8.32,6.56,18.1,7.22,28.41,5.46,11.47-2,23-3.3,34.62-4.58,6-.67,12.11-.65,18.17-.93-6.65,3.48-14.53,2.13-22.59,7.17,3.12,0,4.25.09,5.36,0,35-3.57,70.11-7.07,105.15-10.76,27.4-2.89,54.74-6.64,82.2-8.87s55-3.3,82.57-4.37c15-.58,30-.1,45-.1l.18,1.77c-2.95.66-5.87,1.54-8.85,2-37.14,5.15-74.22,10.89-111.46,15.2-60.11,7-120.34,12.92-180.52,19.42-13.23,1.43-26.42,3.34-39.7,5-.25,6.6,2.88,11,6.85,14.7,5.21,4.79,11,9,16.46,13.5,2.87,2.37,5.63,4.89,8.45,7.35l-1.14,1.57c-5-2.55-9.88-5.2-14.9-7.63-5.35-2.6-10.8-5-18.21-3.44-.82,24-1.64,48-2.48,72.57,2.73-.2,4.92-.23,7.07-.53,21.66-3.09,43.27-6.49,65-9.29,42.55-5.5,85.17-10.47,127.71-16,49.3-6.44,98.59-13,147.81-20,24.46-3.48,48.75-8.13,73.13-12.11,4.22-.69,6.43-2.58,7.23-6.91,1.19-6.42,2.94-12.73,4.5-19.07,4.62-18.79,8.37-37.73,9.43-57.1a40.73,40.73,0,0,0-.46-10.18c-.59-2.92-2.16-5.74-6.51-4.7l2.76,7c-1,.38-1.63.81-2.09.71-2.2-.48-4.4-1-6.55-1.68a151.18,151.18,0,0,0-52.22-6.32c-17.31.83-34.58,2.47-51.89,3.59-8.48.54-16.92.84-24.87,4.51a25.64,25.64,0,0,1-8.3,1.77c-23.47,2.22-46.94,4.61-70.45,6.4-38.82,3-77.66,5.53-116.51,8.2-3.9.27-7.84,0-11.76,0,101.42-15.38,203.83-20.54,307.6-31.53-3.69-3.13-5.63-5.12-7.89-6.64-6.37-4.28-12.54-9-19.35-12.42-26.89-13.55-54-26.68-81-39.95-.76-.37-2.17-1-2.29-.81-3.67,5.32-6.37.11-8.83-1.15-15.36-7.89-30.51-16.17-45.93-24.43l-1.47,3.73c-9-3.8-19-6-26.42-11.66-9.85-7.52-21-10.88-32.15-14.3-22.52-6.89-45.35-12.77-68.07-19-9-2.48-18-4.8-27.08-7.19,24.66,3.75,48.85,9.54,73.54,13.47-3.82-3.29-8-5.46-12.06-8-13.55-8.5-29.46-11.59-42.89-21.22-16.74-12-35.74-20.91-54-30.68-14.51-7.75-29.36-14.87-44.15-22.08-5.47-2.66-12.07-3-15.65-9.25-1.06-1.85-4.28-2.58-6.62-3.56-3.91-1.63-7.91-3-11.61-4.45l-9.65,7.36c4.55,3,9,6.55,13.95,9.09s10.54,4.14,15.84,6.17q7.38,2.84,14.75,5.7l-1,2.31-58-22.58c-5.06,3.78-11.49,2.55-17.66,2.91-4.46.26-9.14-.08-12.3,4.45l28,9.25-.6,2.07c-4-1-8.1-2-12.11-3.15-7.64-2.18-15.17-4.77-22.89-6.6-6.12-1.46-12.3-1.35-18.3,4.16,73.78,22.76,147.81,41.92,220.27,66.29-80.61-20.65-158.87-50.17-241.53-63.13a151.29,151.29,0,0,0,22.8,9.05c24.87,7,49.85,13.66,74.78,20.44l26.36,7.17c-.11.44-.23.87-.34,1.3l-120.3-29.28-.42,1.64c49.39,15.73,99.22,30,149.32,43.32q74.82,19.95,149.74,39.6a43.83,43.83,0,0,1-11.77-1.28c-60.19-13.36-119.7-29.32-178.94-46.31-41.49-11.91-82.93-24-124.49-35.62-17-4.77-34.59-7.47-52.29-5.62-35.85,3.74-71.84,6.62-107.11,14.72-1.83.42-4.61.92-5.65,0C906.72,749.11,898,751.4,887.54,751Zm-549-18.86c4.49.36,8.68.86,12.87,1,14.48.51,29,.86,43.46,1.33,57.11,1.89,114.2,2.17,171.2-2.78,13-1.12,25.84-3.13,39.21-4.79-1.83-7.42-3.43-13.9-5.23-21.22,5-8.41,6.69-18.72,7.07-29.31.72-19.88,1.62-39.75,1.91-59.63.73-49.53-1.22-98.86-12-147.45-.84-3.77-.89-6.9,2.5-9.94s3.11-3.59-2.32-7.23c.23,4.44-2.39,5.3-5.91,5.15-10.79-.45-21.57-1.2-32.36-1.17-38.64.11-77.28.27-115.92.85-35.86.55-71.43,3.82-106.21,13.63l-4.2-6.55c-4.46,8.46-1.75,16.61-4.57,24.51l4.95-1c-1.53,10.66-3.88,21-4.27,31.33-.47,12.45.49,25,1.27,37.45,1.15,18.13,3.22,36.22,4,54.37,1.53,37.76,2.43,75.53,3.64,113.3C337.63,726.53,338.13,729,338.52,732.18ZM882,702.66c6.26-1.95,10.64-6.34,11.56-12.51,1-6.38,0-13,0-19.57,0-3.88.12-7.76.43-11.63.27-3.35,1.34-6.69,1.26-10-.41-17.88-1.15-35.75-1.63-53.63-.3-11.08-.42-22.17-.51-33.25-.08-9.75,0-19.51,0-28.52.6,2.79,1.34,6.31,2.09,9.83,2.37-18.78,4-37.23-2.32-55.23a27.49,27.49,0,0,1-1.1-9.25c.06-5.94,1.25-7.1,7.11-8.69,2.26-.62,4.42-1.61,6.92-2.54-1-1.4-1.19-2.06-1.61-2.22a18.94,18.94,0,0,0-4-1.16,1408.8,1408.8,0,0,0-182.52-15.49c-13.87-.25-27.78.86-41.65,1.66-9.89.58-19.74,1.65-29.6,2.59-4.51.43-9.15.54-13.46,1.76-6.28,1.77-7.6,5.14-5.94,12.35,4.55,2.76,9.27-5.31,13.32-.72-.75,3.88-2,7-1.86,10.1,1.18,26.39,3.35,52.77,3.81,79.17.78,44.63.47,89.27.75,133.91,0,7,.79,14,1.25,21.61,5.69-.57,9.79.53,10.16,6.73,11.9.45,23.24,1.14,34.59,1.27,47.85.55,95.3-5.64,143-8.53,13.2-.8,26.5-.12,39.75-.12-40.14,6.67-81.16,6-121.25,13.26l.16,1.64L866.93,717c-58.91,10-118.57,9.84-177.81,12.87-.26,2.73-.44,4.61-.68,7,55.25,1.41,110.08-1.89,166.68-8.84l-9.26,5c7,1.78,12.11.61,17.17-.85C879.26,727.58,884.67,719.09,882,702.66Zm286.49-27.44-1.92.08c-.6-8.75-1.18-17.5-1.8-26.25-1.35-19.2.29-38.76-7.32-57.35,2.09-2.53,5.27-4.19,4.09-8.52-3.45-12.64-.47-24.77,3.9-36.66,3.33-9.06,7.43-17.9,9.95-27.17,2.21-8.14,1.58-17.11,4.25-25,2.76-8.2,8.24-15.45,12-23.37,1.7-3.6,2.08-7.83,3.27-12.61-4.83.55-8.17,1.09-11.52,1.26-5.94.31-11.95,1-17.83.42-8.29-.77-16.16-2.91-21.45-10.52-1.15-1.66-4.24-2.75-6.45-2.79-36.66-.64-73.32-1.77-110-1.29-19.23.26-38.47,3-57.61,5.48-5.95.77-10.37,1.4-15.1-3.54-5.12-5.36-12.49-6.7-19.81-5.62-3.06.45-5.92,2.29-9.71,3.83,2.32,2.11,3.74,3.08,4.75,4.37,2.27,2.87,2.73,8.53,0,10-5.67,3.12-4.69,7.85-4.42,12.58.4,7.1.72,14.2,1.48,21.26,3.33,31.06,6.85,62.11,10.17,93.17.52,4.79.47,9.65.52,14.48s-.11,9.47-.18,14.21l-1.75,0c-1-15.27-1.59-30.58-3.13-45.8-1.78-17.5-4.39-34.92-6.75-52.36-.17-1.3-1.24-2.47-2.65-5.13-.35,5.17-.7,8.56-.79,12-.29,11.33-.55,22.67-.7,34-.23,17-.93,34.09-.34,51.09.47,13.64.91,27.16-1,40.73-1.12,7.84-1.42,15.81-1.9,23.72-.53,8.74-1,17.49-1.2,26.24-.21,10.48,0,21,0,32.61,13.6.07,26.37,2.08,38.39-4.75a19.75,19.75,0,0,1,7.92-2.63c23.79-1.88,47.56-4.12,71.38-5.12,39.46-1.65,79-2.39,118.43-3.69,6.72-.22,13.41-1.3,19.87-2,2-13.28,1.93-13.38-8.49-18.77a56.6,56.6,0,0,1-5.59-3.92c5.9-.67,8.81,6.24,14.85,2.95-6.24-7.1-14.69-10-22.8-15.73,8.83-.67,12.47,7.63,20.1,8,.51-12.62,1.61-24.67-2.34-38.21C1167.42,658.7,1172.32,667.17,1168.46,675.22ZM323,816c6.21,6.72,11,12,15.86,17.11q21.54,22.46,43.24,44.76c4.76,4.87,9.71,9.58,14.84,14.06q7.23,6.31,16.71,3.32c2.9-.93,6.11-.93,9.19-1.24.42,0,.9.5,1.36.77-.77,1.49-1.55,3-2.5,4.84a21.41,21.41,0,0,0,3.26.46c30.94-1.57,61.94-2.4,92.8-4.91,49.84-4.06,99.58-9.34,149.39-13.84,9.74-.88,19.72-2.8,28.68,1.48,2-1.29,3.41-2.9,5.05-3.16,4.11-.65,8.38-.33,12.48-1,37.94-6.37,76.31-7.65,114.59-10,23.25-1.45,46.49-3.17,69.73-4.9,6.5-.48,13.23-2.94,19.39-1.84,10.4,1.87,20.14-1.45,30.21-1.62,3.6-.06,7-1.61,5.69-6.75,10.09,5.68,11.06,5.84,18.53,3-26.44-28-52-56.75-85.43-77.17l1.51-3.53,7.92,2.86c-8.5-17-27-26.31-37.32-19.54-5.74-5.67-12.77-6.71-20.46-5.14-4.73,1-9.44,2.09-14.21,2.74-4,.54-8,.49-12,.71l-.17-2c6.71-3.88,15-.85,21.91-4.22a43.57,43.57,0,0,0-9.3-.55c-34.08,1.23-68.17,2.31-102.24,3.85-7.85.35-15.65,2.21-23.45,3.56-5,.86-10,2.5-15,3-13.56,1.34-27.18,2.19-40.77,3.35-5.45.47-11.1.44-15.77,5.49l10.74.84c-38.45,3.33-76.68,9.71-115.42,8.42,31.36-4.22,63.56-.9,94.31-10.8a68,68,0,0,0-13.63-.74c-35.79,1.26-71.59,2.14-107.35,4-36.05,1.85-72.05,4.45-108,7.16-20.1,1.51-40.12,4-60.19,5.85a112,112,0,0,1-16.18.17c-3.19-.17-6.33-1.27-9.5-2,10-7,21.15-3.58,31.45-5.86-16.68.35-33.76-3.55-50,4.74,5.42,7.14,11.64,10.51,21,9.92,33.18-2.08,66.42-3.17,99.63-4.92,24.4-1.29,48.78-3.18,73.18-4.49,9-.48,18-.07,27-.07-67.69,7.22-135.74,9-204.56,12.5a43.09,43.09,0,0,0,2.28,5c5.7,8.62,14.5,11.88,24.11,12.39a330.89,330.89,0,0,0,34.93-.05c34-1.87,68-4.17,102-6.32,21-1.33,42-2.76,63-4.05Q580,798.22,634.47,795c13-.74,26-1,38.94-1.55l.06,1.39ZM400.37,922.2c-10.3,0-19.42-.72-28.38.14-27.14,2.6-54.18,6.26-81.34,8.57-10.48.89-21.06,5.13-31.91-.31-4-2-9.53-1-14.34-.87-2.72.1-7,.58-7.78,2.23-2.34,4.85-7.11,5.93-10.68,8.79a23.36,23.36,0,0,0-8.87,14.13c-1.37,7.22,1.51,13.18,9.43,18.17V951.49c4.76,9.31,6,164.07,2.32,191.74-.7-9.33-1.49-18.67-1.48-28,0-25.59.58-51.17.57-76.75,0-16.2-.41-32.4-1.13-48.58-.19-4.39-1.83-8.84-3.45-13-1.07-2.78-3.26-5.14-6.45-4.47.58,67.5,1.17,134.44,1.75,201.29l163.5-14.1C384.41,1080.57,397.47,1002.74,400.37,922.2ZM291.28,751.43c-4-82.06-13.27-163.63-7.81-245.45-13.67-2.6-23-.5-28.65,6.14l10.68,7.66c-5.05,24.5-2.88,48.31-.63,72.05,2.77,29.14,4.63,58.27,4.27,87.58-.24,19.55.72,39.15,1.95,58.68.58,9.34,2.9,18.6,9,26.82V750.65Zm41.2,2.43,12.51,4c.88-2,1.59-3.69,2.44-5.66,75.66,1.6,150.92-.39,226-8.11l.15,1.93-69.33,6.75a87.4,87.4,0,0,0,19.58,1c15-.85,30-2,45-3.09,7.07-.52,14.18-.9,21.18-2,5.64-.86,11.46-1.81,16.89-6.06l-11-.49c3.63-5.7,10.56-1,13.25-7.26a45.53,45.53,0,0,0-6.08-.54c-11.34.64-22.66,1.88-34,2q-81.79,1.14-163.6,1.76c-19.3.12-38.61-.73-57.93-1-2.48,0-6.77-.12-7.16.94-1.75,4.71-5.23,2.57-7.93,2.39C329.41,745.56,331.83,749.75,332.48,753.86ZM435,934.79l-1-.61c.79-2.7,1.57-5.41,2.69-9.24L423,926.86c-.63,25.15-.67,49.71.26,74.31l16,2.36c16.87-28.29,39.52-51.79,55.69-81.07-3,.21-4.76.6-6.39.39-6.11-.78-9.93,1.89-13.21,7-5.09,7.86-10.86,15.29-16.4,22.86-1.7,2.33-3.61,4.52-5.42,6.77,5.41-11.91,14.2-21.51,20.64-33.87l-33.88,2.27Zm11.14,174.06c6.67,0,11.78-.28,16.84.09,3.92.29,6.26-1.17,8.37-4.34,11.32-17,22.83-33.85,34.22-50.79,1.53-2.27,2.74-4.75,4.4-7.69-3.66-.39-6.44-.64-9.21-1-13.72-1.78-13.7-1.78-22,9.59-4,5.42-8.05,10.78-12.08,16.17-.54-.36-1.07-.73-1.6-1.1l13.8-23.85c-12.77-4.09-21.43-1.65-28.49,8.18-6.61,9.21-13.07,18.53-19.47,27.89a27,27,0,0,0-3.9,7.5c-1.42,4.87-2.11,9.9,1.43,14.25,10.07-1.14,17.32-6.87,25.11-12.57C451.19,1096.78,448.85,1102.37,446.15,1108.85Zm-42.48-145-1.39-.16a49.45,49.45,0,0,0-1.28,5.55c-1.22,10.44-2.57,20.86-3.44,31.32-3.55,43-6.91,86-10.45,129-.56,6.78-2,13.49-2.4,20.26-.41,6.37,2.6,10,7.53,10.41,4.77.36,7.37-2.19,8.5-8.59,3.91-22.14,6.55-44.47,6.19-66.93C406.28,1044.4,404.8,1004.1,403.67,963.8Zm223.06-46.54c-7.25.42-13.39,1.2-19.5,1-5.15-.17-8.33,1.65-11.11,5.9-15,23.06-30.31,46-45.46,69-.87,1.31-1.31,2.91-2.46,5.56,8.92-.44,16.8-.94,24.68-1.17,4.74-.13,7.75-2.33,10.16-6.33,13.31-22.13,26.81-44.15,40.18-66.25A79.87,79.87,0,0,0,626.73,917.26Zm-9.4,77.09c19.13,3.12,32.82-2.26,41.82-18.19,9.63-17,19.48-34,29.13-51,1.6-2.83,2.61-6,4.41-10.24-7.33.36-13.21,1-19.07.84-4.15-.09-7,1.23-9.27,4.61-8.79,12.9-18.05,25.5-26.46,38.64C630.73,970.17,624.49,981.94,617.33,994.35Zm-101,3.8,1,2.17c6.41-.53,12.81-1.38,19.23-1.49,4.86-.08,7.55-2.28,10.1-6.2,14.88-22.86,30-45.55,45.07-68.32,1-1.53,1.72-3.27,3.1-5.92-8.17,0-15.21.23-22.23-.08-4.3-.2-6.69,1.66-8.9,5.08-10.82,16.69-22,33.17-32.72,49.9C525.7,981.37,521.14,989.85,516.29,998.15Zm137.77-6.38c15.93,2.5,28.07-2.27,37.21-16.11,12.19-18.47,23.43-37.56,35-56.42.83-1.35,1.19-3,2.26-5.73-9.2.49-17.36.7-25.46,1.54-1.81.19-3.91,2.25-5,4q-20.33,32.48-40.35,65.15C656.32,986.51,655.35,989.1,654.06,991.77Zm96.1-12c.33.69.67,1.38,1,2.06,8.69-1,17.41-1.86,26.05-3.17,1.63-.25,3.31-2.1,4.4-3.62q19.74-27.79,39.26-55.75a92.93,92.93,0,0,0,4.57-8.1c-8-2.55-15-.22-22-.43-4.88-.15-7.93,1.76-10.53,5.58-10.54,15.51-21.25,30.9-31.79,46.4C757.3,968.32,753.8,974.09,750.16,979.77Zm893.71,107.88c-4.35.4-7.81.31-11,1.14-2.22.56-4.93,1.89-6,3.72-12.29,20.43-24.33,41-36.37,61.61a44,44,0,0,0-2.3,5.87,32.35,32.35,0,0,0,4.79,0c10.63-1.79,21.24-3.74,31.89-5.46a7.28,7.28,0,0,0,6.06-5.26c3.51-10.17,7.49-20.24,10.07-30.65A98.19,98.19,0,0,0,1643.87,1087.65ZM645.13,932.94c3.6-5.47,10.63-8.06,11.54-16.16-3.69,0-6.81.39-9.79-.07-7.75-1.22-12.42,2.33-16.89,8.38-16.09,21.75-29.27,45.28-42.77,68.61-.35.61-.05,1.59-.05,2.51,6.36,0,12.58-.13,18.79,0,4.58.13,7.08-2.06,9.33-5.91,8.3-14.22,17-28.21,25.47-42.31,3-5.06,6-10.17,9.33-15.8Zm-84.4-14.52c-5.71.3-9.86.5-14,.75-1.7.1-3.56-.07-5,.58a12.19,12.19,0,0,0-4.51,3.51c-18.08,23.1-34.61,47.22-48,73.4a22.4,22.4,0,0,0-1.21,4.66h21.44C525.45,973.62,545,948.08,560.73,918.42Zm224.81,59.74,29-2.48,13-18.86,1.44-2.11c8.9-12.83,17.85-25.62,26.63-38.52,1.61-2.37,4.12-4.62,3.29-8.81-7,.53-13.74,1.16-20.51,1.5a9.32,9.32,0,0,0-7.68,4.4c-12.37,17.32-25,34.49-37.32,51.81C790.78,968.72,788.76,972.75,785.54,978.16ZM477.12,1104.41c1.92,1.35,2.39,2,2.84,1.95,8.16-.2,16.34-.23,24.47-.93,1.63-.15,3.29-2.74,4.51-4.5,4.36-6.28,8.53-12.69,12.78-19,6.45-9.64,13-19.23,19.32-28.94,1.6-2.46,2.6-5.31,4.36-9-8.49,0-15.54,0-22.59,0a9.27,9.27,0,0,0-7.91,4.12c-8.54,11.63-17.53,23-25.73,34.84C484.56,1089.59,481.16,1097.11,477.12,1104.41ZM820.46,975c9.87-1.17,18.26-1.84,26.48-3.36,2.27-.42,4.5-3.1,6-5.25,5.53-7.89,10.77-16,16.08-24,6.42-9.7,12.86-19.37,19.15-29.15,1.56-2.42,2.57-5.2,4.47-9.14-6.82.79-11.88,2-16.86,1.78-6-.3-9.42,2.48-12.53,6.91-13.2,18.79-26.51,37.51-39.74,56.28A60.7,60.7,0,0,0,820.46,975ZM717.9,983.29l1.22,2.06c6.44-.74,12.86-1.58,19.31-2.2,4-.39,6.61-2.42,8.8-5.79,12.24-18.81,24.67-37.49,37-56.26,1.5-2.28,2.66-4.79,4.79-8.66-6.29,0-11.28.29-16.23-.08-4.52-.35-7.56,1.44-10,4.94-10.67,15.06-21.54,30-32,45.16C726.07,969.15,722.15,976.33,717.9,983.29Zm41-68.81c-6.26-2.09-11.61-.48-16.84-.71-4-.17-6.77,1.5-9,5-13.87,21.08-27.94,42-41.88,63-1.33,2-2.23,4.31-3.85,7.48,8.12-1,15.13-1.74,22-3a8.85,8.85,0,0,0,5-3.74c12.5-18.91,24.83-37.93,37.22-56.92C753.77,922.11,756.11,918.66,758.9,914.48ZM1415,1124.29c-6.8.7-11.84,1.52-16.9,1.61a8.42,8.42,0,0,0-7.65,4.15c-14.48,21.39-29.13,42.66-43.66,64-1,1.49-1.51,3.34-2.77,6.22,7-.84,12.9-2,18.77-2.09,4.24-.08,6.65-1.64,8.84-5.1,12.89-20.39,26-40.66,39-61C1411.88,1130,1413,1127.79,1415,1124.29Zm13,62.08c14-.94,25.52-1.49,30.46-15.26,1.22-3.4,3.78-6.32,5.78-9.42,8.31-12.9,16.71-25.73,24.89-38.7,2.22-3.5,3.8-7.41,6.18-12.13-4,.21-6.76.56-9.5.47-9.46-.3-16.17,3.2-19.19,12.74-.84,2.64-2.76,5-4.33,7.32-7.24,10.87-14.74,21.58-21.75,32.6C1436.23,1170.63,1432.72,1177.72,1427.91,1186.37ZM547,1100.8l1,2.13c7-.62,14-1.5,21-1.76,4.08-.15,6.81-1.5,9.08-4.92,10.51-15.83,21.23-31.52,31.79-47.31,1.18-1.76,1.86-3.84,3.19-6.63-6.1,0-11.18.13-16.26,0-3.19-.11-5.15,1.29-7.06,3.73-11.4,14.48-23,28.82-34.44,43.28C552.39,1093,549.76,1097,547,1100.8ZM854.62,971.24c6.89-.67,11.67-1.69,16.37-1.43,5.41.3,8-2.38,10.68-6.45,12.41-18.6,25.14-37,37.75-55.44.9-1.32,1.69-2.72,3.36-5.42-6.36.41-11.32,1.13-16.24.92-4-.16-6.4,1.45-8.52,4.37-8.82,12.12-17.9,24.08-26.45,36.39C866,952.26,861.09,960.85,854.62,971.24Zm91.83-70.53c-9.68.25-18,3.84-24.25,10.58a182.92,182.92,0,0,0-18.11,23.5c-6,9-11,18.54-16.41,27.88-.9,1.55-1.57,3.22-2.91,6,6.33-.59,11.44-.71,16.37-1.67a10,10,0,0,0,6-4,493.11,493.11,0,0,1,35.77-50.82C945.28,909.29,947.55,905.81,946.45,900.71Zm10-1.23c-8.24,11.11-16.22,21.8-24.12,32.55S916.45,953.12,910,966.16c4.91,0,8.32-.18,11.7,0,5.61.38,9.47-1.33,12.43-6.66,4-7.17,9.05-13.75,13.74-20.52,7.6-11,15.32-21.85,22.89-32.85,1.7-2.46,3-5.21,5.1-9Zm382.26,301.23c14.92-23.9,32.43-45.84,46.46-71.58-7.94.39-14.88-1.64-19.38,4.89q-21.74,31.56-43.17,63.34c-1,1.45-1.35,3.33-2.39,6ZM515.35,921c-11-1.66-16.64,3.27-21.28,10.77-3.41,5.52-7.93,10.35-11.71,15.65q-16.53,23.18-32.83,46.52c-1.72,2.47-2.92,5.3-4.75,8.67,2.25.22,3.57.3,4.89.48,6.47.87,10.82-1.27,14.66-7.11,10.29-15.62,21.57-30.57,32.19-46C502.93,940.72,508.84,931.08,515.35,921Zm21.59,182.73C551,1084,567.2,1065.51,578.4,1043c-15.36-1.59-15.35-1.59-23.77,9.29-2.08,2.68-4.25,5.3-6.35,8-8.56,10.92-17.21,21.77-25.59,32.82-2.49,3.28-4.21,7.14-6.76,11.55Zm106.64-61.92c-13.09-1.73-14.9-1.5-21.77,6.91-12.2,15-24,30.23-35.89,45.43-1.09,1.39-1.62,3.23-2.68,5.41,3.13,0,5.37,0,7.6,0,10.75.27,18.28-3.71,23.93-13.67,6.7-11.79,15.56-22.34,23.28-33.56C640.22,1049.18,641.66,1045.52,643.58,1041.81Zm-329.2-385h1c.17-2.77.51-5.53.48-8.3-.23-21-.71-42-.76-63-.08-27.5-.08-55,.4-82.51.16-9.29,1.88-18.55,2.84-27.43l8.9-5.18c-5.55-1.91-7.25-8.2-14.24-5.39,3.64,6.85.37,12.42-2.46,18.21a25.62,25.62,0,0,0-2,8.23c-.73,6.19-1.35,12.41-1.65,18.64-1.71,35.8.54,71.46,3.89,107.08C312,630.36,313.17,643.57,314.38,656.78Zm756.67,255.91a37.71,37.71,0,0,0-.86,5.71c-.06,23.53-.18,47.08,0,70.61.08,9,3,11.61,12.91,13.08.37-7.66.85-15.3,1.07-22.94.16-5.67,0-11.35,0-17,0-11.33-.1-22.67.18-34C1084.56,919.22,1081.31,915.05,1071.05,912.69ZM859.29,1075.08c8.19-2.65,14.44-5.42,21-6.62,8.43-1.53,13.9-5.39,17.91-13.22,4.23-8.24,10.38-15.49,15.46-23.32,1.72-2.65,4.11-5.29,3.35-9.32-13.49-.25-24.2,5.1-31.93,15.22C876.24,1049.36,868.47,1061.7,859.29,1075.08Zm-327.83-154c-5.11-5.14-7.48-2-9.83,1-18.85,23.8-36.95,48.13-52.85,74a47.5,47.5,0,0,0-2.49,5.94c4-.24,7.07-.64,10.11-.53,3.34.13,5-1.63,6.63-4.22,10.63-16.41,21.56-32.64,32.13-49.1C520.81,939.41,526,930.28,531.46,921.08ZM896.3,1076.37c7.55-.55,13.65-.86,19.71-1.53,1.15-.13,2.38-1.48,3.18-2.55q16.81-22.53,33.46-45.18c1.72-2.34,2.85-5.12,4.72-8.56-4.32,0-7.15.07-10,0a10.09,10.09,0,0,0-8.78,4.17c-11.72,14.63-23.62,29.12-35.37,43.73C901,1069.23,899.1,1072.33,896.3,1076.37Zm66.76-52.17c-6.63,8.06-13.25,15.82-19.53,23.85s-12.11,16-18.61,25.79c7.25,0,12.59.23,17.89-.13a7.17,7.17,0,0,0,4.7-2.88q15.81-23.17,31.26-46.6c1.65-2.49,2.72-5.37,5-10l-23.84,3.89Zm-133.54,57.06a45.05,45.05,0,0,0,4.54,0c12.1-1.49,21.06-8.14,27.73-17.81,5.62-8.15,10.46-16.83,15.7-25.24,2.47-4,5.06-7.83,7.85-12.14-7.47-.33-14.33.48-17.25,3.23-5.08,4.78-12.8,7.14-13.7,16-.34,3.27-3.39,6.44-5.66,9.28-3,3.76-6.52,7.09-9.69,10.71C835.16,1069.72,831.32,1074.23,829.52,1081.26Zm200.33-116.07c.8-.72,1.16-.88,1.2-1.1,4-25.35,2.8-50.91,2.79-76.41,0-5-3.67-7.09-10.38-6.75-.38,3-1,6-1.12,9.12-.8,19-1.2,38-2.39,57C1019.42,955.49,1022.66,961,1029.85,965.19Zm-219.47,75.5,1.34,1.19c-9.27,15.19-24.74,25.78-33.85,43.13,5.1-.51,8.67-1.12,12.24-1.15,5,0,8.23-2.27,10.91-6.52,3.63-5.74,8.09-10.95,12-16.49,5.92-8.31,11.79-16.66,17.51-25.11,1.14-1.68,1.49-3.88,2.26-6-15.4-2.38-26.16,4.61-28.84,19.58ZM211.6,1009.84c-.09,1.67-.19,3.35-.27,5-1.44,33.46-3,66.92-4.29,100.38-.66,16.73-.94,33.48-1.32,50.22-.09,3.88-.24,7.92,5.24,10.5C216.06,1120.11,215.46,1065,211.6,1009.84Zm1230.49,63.32c-.12-.51-.23-1-.35-1.52-2.18.1-4.39,0-6.55.31-36.38,4.42-72.79,8.59-109.11,13.4-27.3,3.61-54.5,8-81.73,12.17a66.31,66.31,0,0,0-8.17,2.31,32,32,0,0,0,14.32,1.49c20.53-2.88,41-6.3,61.51-9.17,41.07-5.75,82.18-11.25,123.26-16.93C1437.59,1074.9,1439.81,1073.86,1442.09,1073.16ZM1126.67,1032c.63-9.45.84-17.88,1.83-26.23,1.65-13.76,3.87-27.45,5.73-41.19,1-7.82-3.38-13.6-11.7-15.29a31.27,31.27,0,0,0-1.09,4.91c-1.24,18.63-2.5,37.27-3.5,55.91a42.77,42.77,0,0,0,1.21,10.95C1120,1025.18,1121.37,1029.24,1126.67,1032Zm-267.82-2.78-1.09-1.82c-4.46.3-9.1-2.05-13,3-11.62,15-23.65,29.79-35.45,44.69-1.67,2.1-3,4.46-5.07,7.61,3.23.2,5.14.18,7,.45,5.92.86,10.23-1,13.61-6.25,3.54-5.45,8-10.28,11.81-15.6C844.17,1050.68,851.47,1039.92,858.85,1029.21ZM624.73,544.29c-.28,6.37-.5,12.75-.84,19.12-2.47,46.51-3.78,93-1.18,139.59.14,2.55.32,5.1.59,7.64s.67,4.93,1,7.4C629.93,660,627,602.16,624.73,544.29Zm-365.54,15.6-2.62.31c-.12,2.73-.39,5.47-.34,8.2.16,8.8.57,17.59.66,26.39.4,40.64,1.95,81.2,7.2,121.54.44,3.37,1.33,6.68,2,10C266.62,670.61,262.86,615.25,259.19,559.89Zm793.62,419.63,1.76-.1q2.68-38.08,5.37-76.24c-5.52-2.42-7.44-8.87-14.15-8.54-.12,1.9-.28,3.57-.33,5.23q-.57,17.83-1.11,35.67c-.3,9.91-.74,19.82-.8,29.73,0,2.88,1,5.76,1.6,8.64l2-.21c.16-4.07.43-8.14.44-12.21,0-10.22-.37-20.45.05-30.64.29-7.07.32-14.39,4.36-22.4,1.56,14.17-.65,26.49-2.17,38.84C1048.49,958.32,1048.17,969.17,1052.81,979.52ZM153.2,1101.1l2.49-.21c1.67-22.89,3.43-45.77,4.94-68.66.29-4.38-2.76-7-7.54-8.14-1.92,14.23-4,28.5-5.69,42.82a149.61,149.61,0,0,0-.94,19.51C146.55,1092.2,148.48,1097.44,153.2,1101.1Zm1049.57-15c5.28-26.59,3.62-53.23,6.19-80l-8.8-4.26c-.23,2-.43,3.1-.48,4.2-.6,12.42-1.08,24.85-1.8,37.26-.6,10.47-1.6,20.91-2.18,31.38C1195.44,1079.42,1196.46,1083.77,1202.77,1086.11Zm-1085.62-23c2.36-18.68,4.88-36.25,6.63-53.89.55-5.48-.6-11.25-1.73-16.72-.61-3-2.07-6.35-5.79-7.16-1.74,13-3.7,25.53-5,38.17a176.15,176.15,0,0,0-.66,22.86A26.59,26.59,0,0,0,117.15,1063.14Zm870.11.07c-.4-5.91-.86-10.91-1-15.92s0-9.77,0-14.78c-10.16,9.23-28.43,32.77-30.28,38.94,21.8,2.47,26.06,1.61,29.81-6.66h-15c0-.53,0-1.06,0-1.58Zm-884.6-93.4c-1,8.9-1.86,16.79-2.7,24.67-1,9-2.22,18-2.71,27.11a26.81,26.81,0,0,0,4.89,17.76c.76,1,2.22,1.53,3.65,2.46,1.66-20.44,3.13-40,4.91-59.5C111.24,976.29,108.55,972.86,102.66,969.81Zm26.87,27.83c-.93,2.8-1.6,4.05-1.74,5.36-1.22,11.81-2.37,23.64-3.52,35.46-.92,9.57-2.81,19.16-.15,28.71a80.5,80.5,0,0,0,3.53,8.73,90.77,90.77,0,0,0,4.52-19.73m1072.42,138.42c0-13.06,0-25.17,0-37.28,0-5.8-1.15-11.28-4.85-15.89-1-1.3-2.76-2.05-5.12-3.73-1.37,13.63-2.76,25.94-3.81,38.28C1189.92,1186.48,1192.46,1190,1204.59,1194.59Zm-27.06-126.26c4.91-25.09,2-50.78,10.61-74.65-3.33-2.6-5.72-5.63-10.39-4-.81,7.39-1.68,14.68-2.39,22-1.65,16.89.91,34-2.85,50.79C1171.92,1065.06,1172.87,1067.53,1177.53,1068.33ZM303.8,610.54l-1.38.12c.39,18.7.47,37.41,1.26,56.09.82,19.3,2.83,38.5,8.24,57.17.6,2.1,1.57,4.09,2.37,6.13l1.6-.55ZM141.39,1011.63c-1.63,13.76-3.31,26.94-4.73,40.15-1,9.27-3.26,18.52-.87,27.9.82,3.22,1.27,6.61,5.29,8.6,1.82-16.27,4-32,5.16-47.78.59-8.11-.64-16.37-1.2-24.55C144.88,1013.72,144.4,1011.29,141.39,1011.63Zm1441.17,149.89,39.55-69.11c-3.79-1.52-4.47,1.08-5.69,2.83-8.29,11.84-16.67,23.61-24.85,35.52-5.94,8.64-11.67,17.42-17.36,26.23-.92,1.43-1.16,3.32-1.94,5.68Zm-443.07-63.2c-1.24,11.84-2.61,22.17-3.26,32.55a28.17,28.17,0,0,0,2.07,11.53c1.37,3.55,3.81,7,9.1,5.41.89-14.26,1.77-28.33,2.63-42.06ZM256.16,916.22c10.44,3.19,20.83,2,31.26,1.12,10.14-.86,20.33-1.14,30.5-1.72,1.68-.09,3.33-.51,5-.62,7-.45,14.07-.89,21.11-1.23,5.36-.25,10.75-.12,16.09-.58,2.94-.25,5.66-.86,7.57,2.12,1.62,2.53,3.85,2.73,6.68,2.27,4.18-.68,8.48-.65,12.7-1.22,2.85-.38,5.63-1.28,8.85-2.05-1-1.39-1.24-2.08-1.65-2.21a26.35,26.35,0,0,0-4.12-.91c-18.4-2.68-36.85-2.2-55.31-.82-19.54,1.47-39.08,3.06-58.62,4.54C269.54,915.42,262.85,915.79,256.16,916.22ZM906.8,669V527.87C904.21,536.52,903.26,655.43,906.8,669ZM417.45,1071.6c6.49-15.1,6.61-29.7.19-36.94-.61,5.54-1.47,10.57-1.65,15.62-.62,17.26-1.05,34.53-1.43,51.8a24.69,24.69,0,0,0,.93,7.51c.39,1.31,2,2.26,4,4.32,6.81-13.92,1-27.6,3.67-40.54ZM1148,979.7c-1.83,12.86-4,25.7-5.37,38.61-.7,6.41-.33,13,.09,19.46.3,4.54,2.56,8.34,7.78,12.17C1148.51,1025.52,1154.84,1002.58,1148,979.7ZM90.11,1018.5c3.9-4,4.83-8.84,5.18-13.81.87-12.13,1.51-24.28,2.55-36.4.57-6.63.41-7.32-7.16-11.29-1.43,12.65-2.88,25.19-4.24,37.73a11.49,11.49,0,0,0,.33,4c6.12.31,2.79,5,3.17,7.44C90.56,1010.19,90.11,1014.38,90.11,1018.5Zm989.71,75.16c.41-9.4.75-18.14,1.17-26.89.39-8-2.11-11.07-11.3-13.09-.66,10.15-1.53,20.22-1.87,30.31C1067.67,1088.48,1072.49,1092.19,1079.82,1093.66ZM448.41,1046c-6.36-2.19-11.53-.68-16,3.22-7.19,6.24-9.2,22.17-3.76,31.5C435.11,1069,445.46,1059.88,448.41,1046Zm725.43,74.32-1.95.47c-.39,3.29-.85,6.57-1.15,9.87-.83,9.28-2,18.56-2.26,27.86-.19,5.79,1.69,11.13,8.5,13.9.54-2.15,1.43-4,1.4-5.76-.23-13.56-.5-27.13-1.14-40.68C1177.15,1124,1175,1122.16,1173.84,1120.28ZM260.57,748.54c0-8,.13-14.08,0-20.17s-.57-11.9-1-17.85c-.39-6.22-.55-12.49-1.41-18.65-.8-5.74-.42-11.77-3.42-17.19-1.14,18.84-1.06,37.56-1.21,56.27,0,3-1.08,6-1.88,10.23Zm759.79,269.93-3,6.49c-.74-3.83.86-7.4-2.93-10.61-.89,6.31-1.69,11.54-2.36,16.79a30.75,30.75,0,0,0-.17,5.08c.28,7.41,7.55,16,15.61,17.68,0-8.61.16-17.06-.06-25.5C1027.38,1024.11,1026.69,1019.79,1020.36,1018.47Zm-127.8,55.26c14.18-19.07,31.08-33.49,42.15-53.88-5.87.2-9.92.95-13.12,5.63-9.55,14-19.6,27.64-29.28,41.55C891.61,1068,892.37,1070.05,892.56,1073.73Zm512-307c1-12.12,1.92-23.22,2.85-34.55l-9.56-2.88c-1.39,7.77-3,14.85-3.84,22C1392.86,760.54,1393.35,761,1404.51,766.77Zm223.74,396.78c-4.93-4.66-9.32-5.25-13.89-4.11-8.25,2-16.45,4.38-24.63,6.7-3.82,1.09-7.3,2.2-11.4,0s-8.39-1-12.1,1.56c-2,1.4-2.89,3.42-.56,6.57C1585.35,1167.76,1606.94,1170.89,1628.25,1163.55Zm-590.33-130.91c-.54,7-.89,14.06-1.65,21-1,9.28.31,11.45,10.21,14.49.34-6.31.72-12.5,1-18.69a40.88,40.88,0,0,0-.13-6C1046.64,1036.36,1044.66,1034.07,1037.92,1032.64Zm86.34,97.45c0-11.88,0-22.31,0-32.74,0-4.12-.51-8.15-5.59-11.94-1.45,11-3.18,20.67-3.85,30.46C1114.42,1121.45,1116,1127,1124.26,1130.09Zm32-81.86c1.25-11.86,2.5-21.83,3.32-31.83,1-11.82,1.59-23.67,2.25-35.51.14-2.42.4-5.23-3.28-5.55C1155.25,984.76,1153.4,1034.44,1156.22,1048.23Zm37.47-477.69c4.25-14.11,2.49-39.07-2.76-48.51C1188.46,538.92,1183.94,555.19,1193.69,570.54ZM67.22,857.77c-.13-13.34,1.55-25.89-8.91-35.87a98.85,98.85,0,0,0-1.8,22.7C56.83,850.21,58.52,855.93,67.22,857.77Zm12.65,20.7c5.12-14.76,1.91-30.1-7.4-35.43C69.06,858.36,72.09,872.84,79.87,878.47Zm70.31,100.22c1-9.76,2.25-18.08,2.68-26.44.28-5.21-1.75-9.72-7.75-12.1-.74,8.85-1.56,16.9-2.05,25C142.75,970,143.77,974.6,150.18,978.69Zm1440.43,73.39c16.26.6,32.59-.15,48.67-3.53,3.9-.82,8.27-1.37,11.53-6.13C1629.81,1043.57,1610.09,1046.32,1590.61,1052.08ZM428.16,1125.4c4.37-.74,8-1.52,11.62-1.92,3.93-.42,7.91-.37,11.85-.73,4.78-.44,9.32-1.43,11.68-6.71-7.86-1.81-25.54-1.36-35.15.82ZM137.69,962.25c2-12,4.34-22,1.81-32.37-.56-2.32-2.67-4.25-4.07-6.36l-2,.82C133.1,936.42,126.4,949,137.69,962.25Zm1453,124.93c13.32,7.36,29.53,2.36,31.3-9.66C1611.25,1079.82,1599.26,1077,1590.67,1087.18ZM123.28,907.54h-2.92c-.5,8.39-1.2,16.77-1.4,25.17-.11,4.77,1.36,9.1,7.32,11.72C126.8,931.27,131.58,918.76,123.28,907.54Zm-16-15.14c-3.34,20.64-1.51,29.38,7.16,33.38.5-9.34,1-18.37,1.49-27.55ZM845,1088.66c0-.83,0-1.66,0-2.48-8-3.27-16.41-1.45-24.61-.87-12.93.9-19.15,3.8-22.67,10Zm260.27-153.8-2.15.4q-1.4,36.74-2.78,73.47c6-23.5,3.72-47.73,7-71.46C1107.51,936.58,1106.05,935.67,1105.31,934.86Zm537.81,139.73-9.65,10.22h13c1.09-5.35,2.14-10.31,3-15.29a28.5,28.5,0,0,0,0-4.6c-7.2-.26-13.7.43-20.71,4ZM1281.15,670c-6.5,16.3-4.84,25.55,4.76,27.76,2.53-8.36,2.91-16.72-.33-24.93C1285.08,671.56,1282.77,671,1281.15,670Zm259,426.71c7.55-.67,15.14-1,22.63-2.13,5-.72,9.86-2.44,11.19-9.61C1561.05,1085.43,1549.34,1087.27,1540.14,1096.72ZM408.53,988.15c.94-2.8,1.89-4.39,2-6q1-27.61,1.75-55.26c0-1.08-1.55-2.21-2.39-3.32l-1.31.48ZM390.32,903c-9.17-5.85-31.74-4.64-65.41,3.48Zm981.17-154c4.68-.57,6.41-2.84,7.34-6,2.33-7.88.49-15.6-1.14-23.28-.17-.81-2.1-1.26-4.13-2.38A134.2,134.2,0,0,0,1371.49,749ZM982.24,929.14c4.71-5.41,4.68-10.87,5.28-16,.12-1-1.74-2.17-2.77-3.34,3.09-4,4.74-8.43,2.15-14-3.47,1.62-7.42,2.7-7.47,6.46C979.33,910.74,979,919.45,982.24,929.14Zm-881.1-20.76c2.62-23,2-26.78-5.23-30.7C91.91,893.49,93.28,902.66,101.14,908.38ZM1316.38,689.3c-.83,5.36-2,10-2.13,14.71a40.23,40.23,0,0,0,1.67,11.6c.62,2.26,2.68,3.67,6,1.82.21-3,.51-6.34.65-9.69.16-3.68-.45-7.5.36-11C1324,691.91,1321.36,690.75,1316.38,689.3Zm-246.67,341.16c.37,4.4.61,8,1,11.53.85,8.16,1.16,8.46,9.85,10.41C1083.39,1039.63,1080.53,1033,1069.71,1030.46ZM318.1,755c-2.72-7.08-2.17-16.18-12-19.27-2,6.2-2,10.35,0,15.84C308.84,758.89,310.49,759.41,318.1,755ZM237,517c-5.16-.09-5.83,3-4.31,6.64,3.18,7.63,2.66,15.56,2.66,23.47,0,4.54-.32,9.07-.33,13.61,0,15.25,0,30.51,0,45.77h2ZM1386,757.17l2.17-1.44c1.12-7.41,2.37-14.81,3.3-22.24a14.92,14.92,0,0,0-.64-6.64c-.47-1.3-2.3-2.13-3.51-3.17l-2,.81c-.49,9.42-1.08,18.83-1.37,28.26C1384,754.2,1385.31,755.69,1386,757.17ZM417.35,1008.78C421.84,990,419.77,971,419,951,415.13,961.75,414.12,994.19,417.35,1008.78ZM79.46,994.28l2.11-.18c3.36-14.49,6.29-29,1.85-43.69l-2.14-.07Q80.37,972.32,79.46,994.28Zm948.33,22c3.43-13.35,1.52-19-7-21.83C1017.26,1008.47,1018.31,1012,1027.79,1016.32ZM1294.1,677.86c-3.48,16.26-2.63,22.64,4.19,28.34.85-7.66,1.83-14.81,2.39-22C1301,680.26,1298.78,678,1294.1,677.86Zm-992,132.41c-8.12-11.5-16.45-22.7-30-28.15C280.65,793.09,289.75,803.47,302.14,810.27Zm1049.76-74.2c2.86-10,3.43-21.14,1.51-27.33-4.49,3.78-7.29,14.48-6.6,25.86ZM1149,1100.58c2.2-14.93.25-19-8.77-20.51-.45,4.19-.9,8.37-1.39,13Zm-39.75,53.2c8.35,11.61,21.11,17.54,32.59,25.18C1134.08,1166.63,1121.06,1161,1109.23,1153.78ZM257,1174.88c15.32,1.27,50.34-1.67,58.31-4.82C294.88,1170.44,275.79,1170.68,257,1174.88Zm1088.88-52.77c-15.88-.1-16.11,0-20.3,6.43,1.26,1.33,2.35,3.43,3.94,3.93,2.44.76,6.17,1.55,7.69.3C1340.57,1130.06,1342.84,1126.06,1345.92,1122.11ZM44.78,921.6c-.21,16.09-2.85,32.2,1.84,47.92C47.84,953.42,49.08,937.32,44.78,921.6Zm1203-246.35c2.94-17.09,2.32-19.84-4.36-22.67-2.7,5.25-4.36,13.24-2.5,16.88C1242,671.54,1244.69,672.77,1247.75,675.25ZM197.3,916.12c-4.44-12.13-15-24.32-22.69-26.66C188.09,911.25,188.09,911.25,197.3,916.12Zm843,93.77c-.41,3-.89,6-1.22,9-.82,7.42-.21,8.23,8.26,11.12,0-5.14.28-10.2-.09-15.22C1047,1011.1,1045.25,1008.23,1040.28,1009.89ZM429.8,1148.14c-.55,4.49-1,7.95-1.45,11.83,7,.23,13.51,1.67,18.53-5.34Zm720.78,1.48,2.46.23a69.13,69.13,0,0,0,1.7-37l-2-.11Q1151.64,1131.17,1150.58,1149.62Zm330.19-43.08c6.35-.91,12.47-1.5,18.44-2.74,3.61-.75,5.13-3.22,2.92-6.72-5.09.51-9.83,1.17-14.6,1.41C1482,1098.77,1482,1098.61,1480.77,1106.54ZM904.41,780.25l1.48-1.39c-4.13-6.54-9.69-11.9-15.09-17.44-2.55-2.6-4.62-5.65-7.54-9.28l-6.17,2.15ZM791.05,1090c-14.63-2.13-19.27-.52-19.72,6.5C783.36,1098.56,786.88,1097.49,791.05,1090Zm580.7,28.47c-16.27-1.37-20.23.12-23,8.19C1356.67,1125.88,1365.11,1127.45,1371.75,1118.45Zm-35-419.32c-6.14,22.41-6.11,24.23.73,29.12C1336.88,718.72,1341.79,709.75,1336.78,699.13Zm172.8,401.79c8-.49,16.76,1.34,22.27-6.75C1524.19,1095.81,1514.45,1090.23,1509.58,1100.92Zm-134.84,21.16c10.92,2.28,17.28-.46,18.11-7.42-3.08,0-6.2.36-9.21-.08C1378.09,1113.77,1376,1116.7,1374.74,1122.08Zm183.71,47.37c-10.59-1.25-16.57.9-22.38,8.69,7.59-1.51,14.17-2.66,20.64-4.29C1557.58,1173.63,1557.86,1171,1558.45,1169.45Zm-800.76-73c-6.44-.84-11.85-1.64-17.28-2.23-4.87-.54-6.66.77-9,6.45C740.1,1100,748.82,1100.85,757.69,1096.42Zm438.15,21.44c-2.58,12.63.29,18.23,8.8,17.27C1201.32,1129.72,1204.28,1121.66,1195.84,1117.86Zm-122.58,6.07-1.44,1.42c9.32,11.15,19.17,18.48,28.22,19.94ZM679.76,731.26l-.19-2.14c-10.07-.07-20.32-2.13-29.75,4.89Zm415.39,342.5c-1.23,10.69-6.11,21.2-.8,31.52,1.08-9.54,1.48-19.06,1.75-28.6A9.32,9.32,0,0,0,1095.15,1073.76Zm76.58,27.66c.14,7-3.13,13.9,5.33,17.34C1182.38,1110.81,1181.45,1107.16,1171.73,1101.42ZM189.75,990c4.44-13.67,3.63-17.67-4.09-20.29C184.67,976.85,185.41,983.55,189.75,990Zm-31.83-1.4c2.8-15.55,2.65-22.26-.67-27.31C156.47,970.18,152.36,978.5,157.92,988.55Zm516.6-266.61H644.89l-.75,1.48c1.3.91,2.57,2.57,3.89,2.61,5.93.15,11.87,0,17.79-.38C668.7,725.46,672.09,725.9,674.52,721.94ZM418.85,1156.58c1.89-6.83,4-13.28.69-20.58C413.12,1142.86,413,1150,418.85,1156.58Zm-264.71-37.3c.82-9-1.1-12.18-8.47-14.81C144.46,1113.37,146,1116.32,154.14,1119.28Zm966.06-56.08c-4.94,9.72-3.85,15.56,3.54,18.11C1123.69,1075,1126.42,1068.45,1120.2,1063.2ZM88.15,887.92c.2-6.72,6.5-13.62-.8-21.17C83.93,874.61,84.82,881.3,88.15,887.92ZM911.87,708.5c-4.8,6.64-6.44,17.94-4,25.32C912.1,725.64,912,717.85,911.87,708.5ZM544.43,1107.16c14.17,4.93,19.26,4.49,24.84-1.57ZM321.48,516.59c1.66-9.82,3.07-18.17.09-26.51C320.51,498.43,316.57,506.78,321.48,516.59Zm254.43,591.64c9.11.39,16.45,2.33,22.6-3.41C591.53,1105.18,583.84,1101,575.91,1108.23ZM1222,640.18c-3.41,12.58-2.87,16.07,2.46,19.61C1223.92,653,1227.22,646.06,1222,640.18ZM218.45,688v34.33C218.42,710.87,223.33,699.45,218.45,688Zm414.29,423.45c7,1.21,14.1,2.79,20.89-3C639.29,1107.51,638.89,1107.55,632.74,1111.44ZM416,1133.05c7-6.33,9.31-11.27,7-14.77l-7-.56ZM215.6,933.75c8.21,4.16,10.71,3.37,12.38-3.9C218.69,927.86,217.81,928.14,215.6,933.75ZM1590.54,1059c-8.3-2.18-15.93-.19-23.33,3.18C1575.26,1062.87,1583.19,1062.78,1590.54,1059Zm-388.16,159.25V1208c-4.11-1.42-7.85-3.53-12,.86Zm163.29-501.21c-1.5,8.2-4.78,16.4-.05,24.57C1365.29,733.46,1369.38,725.26,1365.67,717.08ZM866,1077.46c11.89,2.44,17.63.44,18.75-6.6C879.32,1075.2,871.72,1071.3,866,1077.46ZM254.5,765.3c4.17,5.84,6.1,12,14.34,12.16C266.63,770.31,263,766.2,254.5,765.3Zm504.83,366,.19-1.91c-15.36-.84-20.77-.13-28.68,4.58ZM1189.05,580c-.17,2-.58,3.46-.34,4.8a55.24,55.24,0,0,0,2.08,7.66c.09.26,2.13.26,2.17.09.74-2.81,1.77-5.67,1.77-8.52S1193.66,578.29,1189.05,580Zm274,528c9.88,1.2,13.47-1.67,10.89-8.67C1469.82,1101.28,1464.63,1101.4,1463,1108Zm178.91-45.48c1.47-4.49,0-6.5-3.4-7-3.69-.55-6.32,1.91-7.61,7ZM983.35,952.21c1.75-5.71,3.75-11.48-.09-17.86C979.62,940.74,979.91,946.44,983.35,952.21ZM607.59,467.68c-1.75,9.84-.8,16.81,3.2,23.31C610.33,482.92,612.54,475.44,607.59,467.68Zm-68,595.53c5.68-4.66,10.85-9.71,13.42-16.76C546.4,1050.35,542.36,1056.27,539.64,1063.21Zm512.82-17.91c-3.87,11.07-3.64,18.74,0,24.06ZM37.62,923.65c3.59-7.09,3.11-14.31,0-21.53ZM1081.36,1029c-2.38-4.8-5.42-8.61-11.92-9.07C1071.46,1026.5,1075.35,1029.18,1081.36,1029Zm-891.17-13.83c-.58-6.59,4.64-13.93-2.79-21.22C187.51,1002.27,186.71,1009,190.19,1015.16ZM1650.33,1158c3.51-4.45,4.18-12.73,1.71-23.09C1650.73,1143.12,1647.92,1150.26,1650.33,1158ZM820.46,979.2c0,.64.11,1.28.16,1.91,7.92,1.25,15.88.09,19.67-4.08ZM116.83,968.52c-2.26,7.7,2,10.59,7,14C125.73,975.66,122.7,972.07,116.83,968.52Zm45,52.87c-3.41-10.11-3.82-10.55-9.15-10.37C153.08,1016.26,155.08,1020,161.83,1021.39Zm890.07,11.92c2.4-6.89,2.38-7.77-.53-16.43C1049.39,1023,1047.5,1028,1051.9,1033.31ZM142.31,995.45c-1.3,8.92-.93,9.64,5.33,11.07C148.86,998.78,148.86,998.78,142.31,995.45ZM104,956.33c-.51,7.16-.51,7.16,6.31,11.67C112.08,961.83,111.32,960.44,104,956.33ZM1326.45,719.89c4.7-9.36,5-13.47,1.47-20.84C1327.41,706.32,1327,712.3,1326.45,719.89ZM682.13,1138.45c-.09-.92-.17-1.85-.26-2.77l-22.77,2.92.24,2.18Zm-55.52-35c-6.28-.54-13-3.15-20.28,2.82C614.22,1105.58,620.62,1107.37,626.61,1103.48Zm11.42-.33c6.18.29,12.63,2.55,19.86-2.33C650.13,1101,643.85,1099.46,638,1103.15ZM77.34,931c-.28-7.58-1.1-8.69-8.23-11.28C69.73,925.13,71.71,929.19,77.34,931ZM1169.22,572.59c2.63,3.8-5.21,11.06,0,18.06ZM136.32,994.9c.66-6-.62-9.58-6.11-10.86C129.41,990.8,129.41,990.8,136.32,994.9Zm850.25,28.35-2.42-1.38-8.68,14.63,1.69,1C980.58,1033,987,1030.37,986.57,1023.25Zm167.76,66.83c-.8,4.5-1.77,9.09,1.61,13.7C1160,1098.22,1158.27,1094,1154.33,1090.08Zm111.54-426v18.11C1270.31,671,1270.24,667.59,1265.87,664.06ZM243.49,719l1.14-.27V689.88h-1.14Zm-83.34,398c-3,7.9-2.76,8.79,3.07,13.08C164.12,1125.21,164.81,1120.75,160.15,1117Zm856.09-180.54c-1,5.24-2.51,10.53-.21,15.8A18,18,0,0,0,1016.24,936.41ZM424.9,1052.79c6.49-7.34,6.36-9.22,0-12.45Zm468.74-76c-5.14-.43-10.32-2-15.33.67C883.48,978.47,888.69,980.54,893.64,976.76Zm120.58,30.13c4.25-7.71,4-11.55,0-15.47ZM192.51,944c-4.8,8-4.51,9.55,2.31,14.1C194,953.23,193.38,949.32,192.51,944ZM91.91,942.2c-1.09,5.78.58,9.51,6.22,11.66C99.84,947.83,96.89,944.78,91.91,942.2ZM910,792.22c-3.19-6.91-6.46-10.73-12.93-12.4C900.49,786.69,900.77,787,910,792.22Zm343.2-115.14c5.63-8,5.76-11.39.93-18.11C1253.8,665.21,1253.54,670.28,1253.19,677.08ZM239.29,1183.61c-.09-.77-.18-1.53-.28-2.29-5.79,1.5-12.2-.66-17.4,4.49Zm-76.43-74.38v-14.47C160.35,1099.54,158.23,1104.28,162.86,1109.23Zm1388.86-43.81-.11-2.38c-5.43,1.17-11.34-.74-16.27,3.92ZM1234,649.67l-1.86-.11c-2,9.15-1.83,10.53,2.65,15C1234.55,659.23,1234.3,654.45,1234,649.67Zm242.33,423.65.24,1.81c5.41-.27,11.05,1.12,15.83-3.92Zm-247.32,144c5.59,1.38,9.55,1.72,13.62-2C1238,1214.25,1233.83,1211.77,1229.05,1217.32Zm167.29-435.71,6.13,8.68C1404.85,782.44,1404.85,782.44,1396.34,781.61ZM78.38,918.89c0-5.77-2.17-8.74-7.63-10.44C71.19,913.87,73.24,917,78.38,918.89ZM586,1045.78l-1.78-1.42c-3.94,2.87-6.65,6.53-6.08,12.38Zm772.24,67.77c-.09.59-.19,1.17-.28,1.75,8.93.94,8.93.94,14.14-2.89Zm-466.55-33c0,.81-.07,1.63-.1,2.44l15.19-1.23-.09-1.21Zm-586.41-363-1.66,0c-.14,4.55-.91,9.24,4.05,12.75Zm1199.13,352.32c-.1.64-.21,1.28-.31,1.92l16.15-1.94C1514.63,1066.87,1509.44,1067.68,1504.36,1069.84ZM423.15,1008.22c6.48,3.15,6.7,3.13,11.44-1.52C430.38,1006.73,426.52,1003.47,423.15,1008.22Zm1153.32,80.56.93,1.69c6.14-.32,6.14-.32,8.54-7.74Zm46.82-2.65c7.82-2.81,8-3,8.6-11.28ZM664,1107.63l.3,2.49c4.15.14,8.45,1.23,11.88-3.59ZM159.84,905.87c1.4,8.48,2.19,9.54,9.91,13.82ZM32.52,940.12q-1,7.93-2,15.86l1.85.19C35,951.05,34.06,945.61,32.52,940.12Zm102.42,152.09c-.46,4.82,1.14,7.81,6,9.68C141.25,1096.93,140.06,1093.69,134.94,1092.21ZM59.66,895.67c.28,4.72.64,7.81,5.46,8.49C65.91,899.82,64.69,897.29,59.66,895.67ZM60.12,908c-1.39,4.86.59,7.25,4.15,9.67C64.79,912.32,64.79,912.32,60.12,908Zm791,177.46c.1.59.19,1.19.29,1.79l11.07-1.71C857,1079.87,854.22,1083.85,851.09,1085.48ZM1639,926.6l-10.23-5.12C1630.56,926.29,1633.56,928.75,1639,926.6Zm-346.48,192.46c0,.66,0,1.31,0,2,3.84-.16,8,1.53,12.82-3.47ZM216.8,946.79l6-7.47C215.6,938.26,215,939,216.8,946.79Zm59-177.61L274,770.57c-.52,5,2.62,5.81,8.11,5.7Zm876.72,415.46c2.33,6.47,2.4,6.52,11,8.42Zm-737-285.08c-.16-.8-.33-1.59-.49-2.39-3.45.82-7.47-1.82-10.23,3.52Zm992.93-107.34,1,.08v-8.61l-1-.08ZM237.2,755.78l-4.63,5.37,10.59,2.35Zm675.31-78.31c-.19,3.91-4.11,7.92,0,12Zm284-42.51-1.84-.13c-2,7.24-2,7.24,1.33,11.07C1196.21,641.88,1196.37,638.42,1196.53,635ZM98.29,943.28c.73-.65,1.47-1.29,2.21-1.93l-6-7.24-1.9,1.49Zm1183.62,180.41.15-2.28c-3.44-.4-7-1.53-10.59,3ZM1169.52,621l-.72-.1v13.93h.72ZM602.8,1110.93c6.06,4.89,6.41,4.88,10.68,0ZM362.06,775.73l-.09-1.52-11.32,1,.06.49ZM713.78,1133.5c2.91,2.82,5.57,3.49,8.88-.74Zm-90.22-21c-3.69-3.91-3.69-3.91-8.16,0ZM851.19,977.79c0,.49.09,1,.13,1.48h15.4c0-.5,0-1,0-1.48Zm-741.14-22.1,1.54-1.39c-1.13-3.27-2.84-5.85-9-6Zm937.05,49.12c-2.65-4.41-2.65-4.41-6.63-4.27C1041.5,1003.35,1042.5,1005.76,1047.1,1004.81ZM331.19,698.57h.58V685.43h-.58Zm355.88,401.49a16,16,0,0,0-14.73,0Zm648.39,17.69.15,2.1,9.75-2c-.11-.55-.22-1.11-.32-1.66ZM86.22,941.55c.67-3.46,1.23-6.39-3.22-8.17C82.19,937.09,82.61,939.65,86.22,941.55Zm94.91-4.44,1.45-1c-1.12-4.48-1.12-4.48-6.64-5.69C178.12,933.22,179.63,935.16,181.13,937.11Zm392.15,177.42c3.08,1.39,6.16,2.76,8.47-1.29ZM1449.86,1077l.06,1.66,11.67-.57,0-1.09Zm-189.51,49.14,8.07-.77C1265.51,1121.87,1263.18,1122.31,1260.35,1126.15ZM1023.86,986.07l-1.57,1.54c2.55,1.39,3.2,5.31,8,3.79ZM490.67,1113.82c.77,5.64,3.29,4.3,6.15,1.67Zm610.92-61.72c-2.36,5.37-2.36,5.37,0,8.21ZM1018,890.79l-.71-.37V900h.71Zm.58,24.87-1.57-.09c-.39,3-.77,6-1.16,8.95l2.12.21Q1018.24,920.2,1018.53,915.66ZM417.2,1019c-1.85,3.8-2.7,6.16.69,8.4C421.05,1024.65,420.4,1022.37,417.2,1019Zm679.1,36.33c-2.68,3.66-3.41,6,0,9.66Zm79,125.47c-.29-3.93-2.28-5.86-6.09-5.23ZM469,1120.06c5,.7,6.63-.18,6.55-2.94,0-.44-1.43-1.34-1.64-1.19A59.27,59.27,0,0,0,469,1120.06ZM1411.8,752l-2.07,8.37,1.78.4C1413,758.53,1415.16,756.44,1411.8,752ZM518.06,1115.68l.18-1.77-8.23.56.07,1.21ZM39.56,962l1.55-.22-1-6.46-1.28.18Zm1384,119.71c.13.54.25,1.09.38,1.63l7.47-1.79c-.11-.51-.23-1-.34-1.52Zm-627.79-99.8v.78h7.75c0-.26,0-.52,0-.78Zm347.3,89.69-1.32,1.78,5.28,3.92,1.35-1.83ZM516.33,1109.3l-.05,1c1,.14,2,.34,3.07.4a11.31,11.31,0,0,0,2.46-.16,18.6,18.6,0,0,0,2.29-.65l-.22-.64ZM913.68,975.53v-.75h-7.74l0,.75Zm-587,194.8.17-1.23-5.38.27v.69Zm1061.16-60.81c.14.44.28.88.43,1.32l5.16-.59c0-.34-.07-.67-.11-1ZM908.8,782.41l-1.07.82,3.09,2.8.49-.52Zm692.64,274.21c2.45,1.8,2.45,1.8,5.77-.32Z"/>
    <path d="M1387.3,1245.66c-21.62,2.83-43.25,5.6-64.86,8.5-20.81,2.8-41.62,5.62-62.38,8.71-5,.75-9.86,2.64-14.79,3.94-5.38,1.42-10.52,1.41-15.16-2.32.91-3.81,3.36-5.57,6.3-4.7,10.59,3.14,20.95.23,31.26-1,25.91-3.14,51.7-7.22,77.59-10.55,13.77-1.78,27.63-2.79,41.45-4.14C1386.91,1244.61,1387.1,1245.14,1387.3,1245.66Z"/>
    <path d="M129.18,732.09,13.5,729.42l-.19-1a37.33,37.33,0,0,1,6.22-1c22.41.31,44.82.53,67.22,1.19,14.16.42,28.31,1.55,42.46,2.36Z"/>
    <path d="M881.1,448.3c2.44-7.45,7.38-11.26,14.35-10.54,2.57.26,5.92,1.55,7.13,3.49.94,1.52-.85,4.76-1.39,7.05Z"/>
    <path d="M434.86,448.64c17-2.64,34.2-5.82,48.54-1.53-5.87,0-14.59-.2-23.29.06C451.68,447.41,443.27,448.13,434.86,448.64Z"/>
    <path d="M391,451.26l14.11-.71v1.39l-14.19-.68S391,451.26,391,451.26Z"/>
    <path d="M517.32,446.58h-8.83v-.75h8.83C517.33,446.08,517.33,446.33,517.32,446.58Z"/>
    <path d="M414,449.41h7.22v.26h-7.22Z"/>
    <path d="M1268.31,769.69l.75-1.47c-20.69-7.43-41.5-14.42-62.9-19.48-.17.54-.34,1.08-.5,1.62Zm46.63,14.15c.18-.62.37-1.24.55-1.86l-13.58-4.21-.56,1.87Zm161.65,76.65,1.17-1.28c-6.14-5.22-6.14-5.22-11.45-5.18C1470.2,856.48,1473.39,858.49,1476.59,860.49Zm8.11.85-1.41,1.68,9.19,5.16.75-1.26Z" style="fill: #fff"/>
    <path d="M1354.58,667.15c-3.66-3.62-7.47-7.11-12.95-7.07Zm15.7,8.24.6-1.18-6.63-3.44-.61,1.2Z" style="fill: #fff"/>
    <path d="M956.22,945.92l-1.74-1.4-4.54,5.73,1.26,1Z" style="fill: #fff"/>
    <path d="M1017,1041.65c2.73-7.09,2.73-7.09,0-10.42Z" style="fill: #fff"/>
    <path d="M1268.31,769.69l-62.65-19.33c.16-.54.33-1.08.5-1.62,21.4,5.06,42.21,12,62.9,19.48Z"/>
    <path d="M1314.94,783.84l-13.59-4.2.56-1.87,13.58,4.21C1315.31,782.6,1315.12,783.22,1314.94,783.84Z"/>
    <path d="M1476.59,860.49c-3.2-2-6.39-4-10.28-6.46,5.31,0,5.31,0,11.45,5.18Z"/>
    <path d="M1484.7,861.34l8.53,5.58-.75,1.26-9.19-5.16Z"/>
    <path d="M845.61,698.78C809.28,703.2,773,704.21,736.7,704c-28.08-.21-56.14-1.78-84.21-2.74-2.48-.09-5.32.26-4.55-4.65C713.92,702.26,779.86,700.18,845.61,698.78Z"/>
    <path d="M883.19,697.46l-14.25,1.8c-.08-.76-.15-1.51-.23-2.27l14.34-1Z"/>
    <path d="M936.44,664.38H924.63c4.06-3.16,7.93-2,11.68-1.75Z"/>
    <path d="M886.18,787.24c-13.55-3.42-18.13-14.79-23.87-25.07Z"/>
    <path d="M743,789.18c.75-.71,1.46-2,2.25-2,15.42-1,30.84-1.85,46.26-2.74l.09,1.65-48.73,3.06Z"/>
    <path d="M694.82,766.55h26.54v1H694.82Z"/>
    <path d="M925.71,827.09,913.8,814.15C916.31,814.74,920.61,818.73,925.71,827.09Z"/>
    <path d="M801.8,783.77h16.56v.47H801.81Z"/>
    <path d="M945.86,847.94l-8.64-9.07,1.35-1.29,8.67,9.18Z"/>
    <path d="M701.4,790.2h15.92c0,.24,0,.48.07.73H701.44C701.42,790.68,701.41,790.44,701.4,790.2Z"/>
    <path d="M671.41,770.62h-13v-.78H671.3C671.34,770.1,671.38,770.36,671.41,770.62Z"/>
    <path d="M447.43,893.35l7.67-.76.14.78-7.41,1.46C447.69,894.33,447.56,893.84,447.43,893.35Z"/>
    <ellipse cx="436.58" cy="895.02" rx="6.19" ry="0.55"/>
    <path d="M741.61,764.66H748c0,.26,0,.53.05.79h-6.82C741.38,765.19,741.49,764.92,741.61,764.66Z"/>
    <path d="M742.87,789.1l-9.69.63v-1.28c3.25.23,6.5.45,9.79.71Z"/>
    <path d="M1258.33,1137.57l9,5.47c-7.49-.59-13.8-.08-16.56,7.91,0-1.12.07-2.25,0-3.37-.39-5.2-2-6.14-7-4.48a19.17,19.17,0,0,1-8.47,1C1241.54,1135,1252.32,1142.14,1258.33,1137.57Z"/>
    <path d="M1286.13,1151.63c0,.83.3,1.84-.06,2.47q-9.39,16.19-19,32.26a32.51,32.51,0,0,1-3.75,4.34c-.37-.55-.72-.91-.66-1q11.79-19,23.63-37.91Z"/>
    <path d="M1307.07,1153.75q-10.27,16.86-20.53,33.72l-1.81-1.12c5.67-12,13.28-22.84,21.7-33.17Z"/>
    <path d="M1312,1177.26l-10.94,15.9C1301.4,1185.4,1304.58,1180.26,1312,1177.26Z"/>
    <path d="M1257.24,1169.17l-6.32,9.06c-.45-5.6,3.1-7.32,4.72-10.09Z"/>
    <path d="M1354.58,667.15l-12.95-7.07C1347.11,660,1350.92,663.53,1354.58,667.15Z"/>
    <path d="M1325.41,650.18l11.85,4.89c-4.84.2-8.92-1.19-11.7-5.07Z"/>
    <path d="M1370.28,675.39l-6.64-3.42.61-1.2,6.63,3.44Z"/>
    <path d="M587.44,737.65l7.39,3.92c-6.18,1.55-6.18,1.55-8.45-2.21Z"/>
    <path d="M1544.07,1131.11l-5.38,7.16Z"/>
    <path d="M956.22,945.92l-5,5.36-1.26-1,4.54-5.73Z"/>
    <path d="M1017,1041.65v-10.42C1019.7,1034.56,1019.7,1034.56,1017,1041.65Z"/>
  </g>
</svg>
