<svg id="Layer_1" data-name="Layer 1" xmlns="http://www.w3.org/2000/svg" width="600mm" height="600mm" viewBox="0 0 1700.79 1700.79">
  <title>sketches frames</title>
  <g>
    <path d="M1286.64,499.64l-7.41-7.86c.23-.32.46-.63.7-.94a24.18,24.18,0,0,1,3.71,2.33c7.88,7.25,16.22,14.09,23.38,22,8.55,9.44,19.41,15.62,29.39,23.05,3.92,2.91,7,6.08,8.29,11.11l-9.2-.6c19.29,6.42,28.41,22.69,37.5,38.39,7.11,12.28,12.92,25.38,18.37,38.51a56.34,56.34,0,0,1,4,19.71c.75,27.9,1.17,55.81,1.06,83.72,0,8.4-2.65,16.77-3.25,25.2-.63,8.91-.36,17.89-.31,26.83.25,46,.59,92,.78,138,0,5.57-.76,11.14-1,16.72-.61,15.54-1.12,31.09-1.68,46.63a9,9,0,0,1-1,4.39,58.46,58.46,0,0,0-1.24-6.38,11.76,11.76,0,0,0-2-3c-.86,1-2.28,1.89-2.5,3-1,5-1.84,10.12-2.38,15.22-.85,8-2.71,16.23-1.85,24.11,2.32,21.44-5.42,40.89-10.72,60.77a305.56,305.56,0,0,1-21.85,58c-9.32,18.63-23.35,30.93-43.24,36.77a6.09,6.09,0,0,0-3,1.68c-4.89,6-9.88,11.88-12.41,19.57-6.39,19.47-14.71,38.09-26.09,55.22a45.12,45.12,0,0,1-6.13,8c-10.62,10-10.5,22.66-9,35.62a6,6,0,0,0,2.66,3.64c3.75,2.43,5.61,5.8,5,10.07-1.43,9.39-3.12,18.73-4.86,28.07-1.42,7.61-2.55,15.34-4.84,22.7-1.13,3.64-4.14,7.07-7.12,9.66-2.57,2.24-5.65.06-8.13-5.16-5.83.72-11.75,1.59-17.7,2.15-4.52.42-9.07.66-13.61.63-5.48,0-9.42-3.48-10.86-8.83a8.52,8.52,0,0,0-1.25-2.31c-6.29-9.52-12.62-19-18.82-28.58-.63-1-.57-2.5-.62-3.77-.67-16.43-1.11-32.88-2-49.3-.23-4.11-2-8.14-3-12.21,0-.13-.18-.25-.18-.39-.62-11-9.42-18.74-11.9-29.06a5.84,5.84,0,0,0-3.65-3.73c-8-1.42-16.17-3.28-24.28-3.35-36.59-.29-73.19.23-109.78-.07-19.52-.16-39-1.43-58.55-2.11q-12.76-.43-25.55-.53c-27-.22-54.07-.67-81.1-.43q-34.37.32-68.71,2c-53.32,2.61-106.64,1.66-160,.49-16.08-.35-32.11-3.06-48.16-4.64-4.67-.46-9.36-.9-14-1-1.65,0-3.31,1.1-5,1.7l.1,1.79,9.23,3.31c-23.94-1.23-47.22.52-69.71-6.18-3.9-1.16-7.11-4.63-10.29-7.89,22.15,7.49,44.57,3.24,67.15,3.48-.21-1.17-.36-2-.51-2.75s-.33-1.7-.56-2.89c-8.66-.68-17.3-1.18-25.9-2.07-7.73-.81-15.44-1.94-23.11-3.21-1.42-.23-2.62-1.83-3.92-2.8,1.5-.76,3-2.2,4.51-2.19,31.29.37,62.59,1.08,93.88,1.33,28.36.23,56.75.87,85.06-.28,34.31-1.38,68.55-4.56,102.83-6.75q38-2.43,76.07-4.27c14.23-.69,28.55-1.77,42.73-1,30.78,1.74,61.31-1.6,92-2.77,32.59-1.25,65.21-1.64,97.82-2.45a68.76,68.76,0,0,0,14.88-1.66c-1.31-.35-2.64-.62-3.92-1-7.36-2.46-14.68-5.05-22.07-7.39a10.14,10.14,0,0,0-5.4-.27,135,135,0,0,1-40.07,5c-13.94-.48-27.88-.78-41.82-1.21-.82,0-2-.26-2.37-.81-2.46-4-6.59-3.54-10.25-3.73-24.21-1.28-48.45-2.07-72.64-3.6-92.66-5.86-185.41-2.08-278.11-2.91-49.38-.44-98.77-.18-148.15-.33-21.89-.06-43.79-.33-65.68-.52-1,0-1.92-.08-2.88-.13l-.42-1.52c2.22-.76,4.44-2.16,6.67-2.18,14.84-.17,29.73.66,44.52-.23a176.94,176.94,0,0,0,35.94-5.57,74.59,74.59,0,0,1,20.11-2.64c149.61.12,299.22.5,448.83.32,63.76-.08,127.53-1.12,191.28-2.15,14.62-.23,29.21-2.34,43.83-3.41,29.25-2.15,58-7.46,86.28-14.91a21.14,21.14,0,0,0,8-4.1c7.7-6.51,15.11-13.37,23.49-20.86-13.86,2.84-26.3,5.88-38.9,7.83s-25.48,2.84-38.24,4.19c-.15-.67-.3-1.35-.46-2a23.26,23.26,0,0,1,3.54-1.24c13.58-2.43,27.25-4.45,40.76-7.28,12.34-2.58,24.53-5.91,36.71-9.2a12.49,12.49,0,0,0,6-4,142.93,142.93,0,0,0,29.08-60.13c.06-.25-.11-.55-.26-1.22-3.06,4.88-5.85,9.59-9,14.09-.81,1.19-2.59,1.72-3.92,2.55.11-1.61-.23-3.43.42-4.77,8.39-17.2,16.37-34.54,20.23-53.43a53.09,53.09,0,0,0,1.44-11.31c-.35-19.21-1-38.41-1.48-57.62l-1.21-.12c-.13,1.25-.3,2.5-.37,3.75-1.35,22-3.71,43.87-9.11,65.3a50.15,50.15,0,0,1-4.13,10.63c-1,2-3.12,3.45-4.73,5.15l-1.24-.79c1.12-6,2.32-11.9,3.35-17.87a316.45,316.45,0,0,0,5-51.2c.28-33.62,2.22-67.22,2.56-100.84.25-25.26-1.39-50.54-1.36-75.8,0-28.49.94-57,1.56-85.47a29.72,29.72,0,0,1,1.21-8.25c.55-1.78,2.17-3.22,3.31-4.81.78,1.7,2.21,3.39,2.24,5.1.15,10.58-.29,21.17,0,31.74,1,41.43,2.3,82.85,3.38,124.27.22,8.37,0,16.75,0,25.12a21.36,21.36,0,0,0,.72,5.65c.42-5.62,1-11.22,1.23-16.84.78-16.4,2-32.81,2-49.22,0-33.74-.74-67.47-1-101.21-.07-11-2.77-21.43-6-32.9l-1.62,4.16-1.11.33c-1.83-30.15-12-57.17-29.08-82l4.44,3.48.56-.38c-2.08-4-4-8-6.33-11.78-.56-.93-2.1-1.53-3.29-1.8-18.32-4.24-36.47-9.77-55-12.28-37-5-73.34-3.76-106,18.19-14.62,9.82-26.2,22.59-37.26,36-2.9,3.51-5.86,7-8.63,10.56-.71.92-.83,2.32-1.16,3.51-1.14,4-1.45,8.52-3.53,11.95-7,11.46-10.18,24-11.91,37a5.73,5.73,0,0,0,1.75,4.35c29.69,25.19,59.25,50.53,89.3,75.29,27,22.24,54.49,43.82,81.78,65.68a9.67,9.67,0,0,1,2.34,2,3.3,3.3,0,0,1,.17,2.63c-.16.38-1.53.48-2.27.33s-1.2-.79-1.78-1.25c-25.86-20.35-51.88-40.5-77.53-61.12-26.33-21.18-52.31-42.8-78.42-64.25-5.79-4.76-11.45-9.67-17.2-14.48a30,30,0,0,0-3.29-1.94c2.75,4.2,4.81,7.35,7,10.79-2.67,0-5.7-.82-6.48.16a28.66,28.66,0,0,0-5,9.51c-1.26,4.28-1.59,8.85-2.39,13.73l3.21-1.13c31.31,27.5,61.81,55.18,93.29,81.71s63.67,51.64,95.11,78c-33.93-22.18-65.39-47.68-97.22-72.65-32.06-25.15-61.3-53.44-88.86-83-8.31,4.71-2.53,10.56-1.81,15.84.56,4.19,2.17,8.24,2.83,12.43.32,2.08-.45,4.32-.73,6.48l-2.06.4c-2-4.91-4.07-9.81-6.49-15.62-.25,1.85-.46,2.77-.49,3.69-.34,10.87-.7,21.74-.91,32.61,0,1.4.74,2.83,1.44,5.31-3.33,3.48-.3,5.5,3.27,8.55,14.83,12.69,29.59,25.49,43.76,38.9,33.07,31.32,65.8,63,98.66,94.55q8.26,7.94,16.47,15.94a30.06,30.06,0,0,1,2.44,3l-1,1c-1.32-.89-2.73-1.69-4-2.7-34.17-28-65.13-59.37-96.94-89.89-17.9-17.18-36.48-33.66-55-50.16-5.42-4.83-11.74-8.65-18.55-13.58V795.4c-2.07-2-3.38-3.2-5.41-5.12a24.45,24.45,0,0,0,.21,3.57q6.93,27.55,13.92,55.1c.21.85.78,1.77.62,2.54-2.29,10.49,2.6,19.65,5.89,28.86,10.88,30.43,22.36,60.64,33.6,90.94.1.27.09.57-.57,1.48l-9.78-12.2v39.75l-1.12.15c-.26-1-.57-2-.77-3-3.09-15.56-6.08-31.14-9.35-46.66-.35-1.66-2.3-3-3.47-4.49a19.88,19.88,0,0,1-2.94-4.13c-1-2.51-1.58-5.19-3-7.81,2.15,19.34-4.48,36.5-11.49,53.58l-1.78,0c0-1.66-.36-3.42.06-5,4.94-18.6,4.15-37.55,3.64-56.49,0-.53-.08-1.07-.11-1.52q-3.12,18.63-6.24,37.35l-1.67-.14c-1-11.32-2.62-22.63-3-34-.37-11,.55-22,.81-33,.21-9-.45-10.91-5.77-18.7,1.24,10.1,2.49,20.31,3.74,30.51l-1.37.18-2.55-13.09-1.47-.08c-.49,2.7-1.4,5.4-1.39,8.1,0,13.8,0,27.61.53,41.4.27,7.48-3.08,13.6-6,20-.28.62-1.64.74-2.49,1.09-.29-1.17-1-2.44-.8-3.51,1.9-9.65,5-19.19,5.79-28.92,1.9-24.06,3.19-48.44-8.92-70.61-4.58-8.38-11.57-15.44-17.46-23.11a5,5,0,0,1-1.34-3.35L1050,845l.82-.75c-2.06-2.19-4-4.57-6.23-6.55-3.71-3.24-7.61-6.28-11.54-9.26-1.12-.84-2.87-2-3.9-1.63-21.24,6.94-43.43,8.85-65.3,12.33-23.93,3.82-48,7-72,10.18a82,82,0,0,1-17.94.29c19.65-6.63,40.37-7.9,60.4-12.73-19.56.21-39,3.71-58.64,2l-.19-1.25c4-.66,8-1.42,12-1.93,4.37-.55,8.77-.9,13.16-1.28,4.16-.36,8.34-.66,12.5-1,.06-.46.11-.93.16-1.39-7.31-1.83-14.59-3.82-21.94-5.44-10.16-2.24-20.38-4.23-30.58-6.28a16.94,16.94,0,0,0-4.3-.44c-6.58.43-13.15,1.36-19.73,1.41-22.34.2-44.68.11-67,.09-1.63,0-3.26-.32-4.89-.48l0-1.42,81.1-3,.11-1.12c-.71-.37-1.4-.81-2.14-1.11a303,303,0,0,1-60-31.42,18.38,18.38,0,0,0-11.53-3.31c-11.3.3-22.62.27-33.92.19-2.39,0-4.78-.8-7.17-1.23l0-1.44,39.85-1.84.68-1.23c-4.5-2.64-8.72-6.23-13.58-7.67-5.67-1.68-11.88-2-17.87-2-22.48-.12-45,.12-67.45.18-2.44,0-4.88-.29-7.32-.44l-.06-1.7c14.31-.82,28.6-2,42.92-2.37s29-.09,44.07-.09c-5.37-4.67-10.49-8.95-15.41-13.45-6.83-6.24-13.46-12.71-20.29-19a7.8,7.8,0,0,0-4.45-2.15c-18.92-.72-37.85-1.37-56.78-1.81-20.13-.46-40.26-.66-60.39-1-1.46,0-2.92,0-4.38,0v-1.41H710.74c-1.56-2.09-2.2-3-2.84-3.83-5.45-7.26-11.57-14.14-16.06-22-2.09-3.63-1.09-9.07-1.37-13.7a29,29,0,0,1,.32-4.16c-10,1.11-19.59,2.33-29.2,3.14a78,78,0,0,1-13.14-.3c-1.46-.13-2.8-1.5-4.2-2.29,1.48-1,2.89-2.58,4.45-2.73,9.79-1,19.6-1.6,29.41-2.3,1.7-.13,3.41,0,5.11,0-.29-7.07-2.39-8.7-8.64-7.21-20.18,4.81-40.42,9.18-61.28,9.49-3.48.06-7-.74-10.46-1.14l-.1-2a81.91,81.91,0,0,1,8-2.06c14.52-2.24,29.06-4.3,43.58-6.53a35.26,35.26,0,0,0,5.52-1.74c-.13-.59-.27-1.17-.41-1.76H654.9c-30.57,0-61.14-.05-91.7.1-4.21,0-8.4,1.5-12.61,1.56-9.34.12-18.7-.2-28.05-.42-2.78-.07-4.83.46-6.66,3-2.63,3.7-7.16,3.68-10.69,0-2.12-2.22-4.26-2.59-7-2.5-7.78.27-15.57.3-23.36.47-2.45.06-4.9.29-7.66.46a42.11,42.11,0,0,1,2.58,6.44,4.15,4.15,0,0,1-1.3,3.25c-.36.33-2-.55-2.94-1.06a2.55,2.55,0,0,1-1-1.4c-2.22-6.75-7.22-7.71-13.5-7.07-6.54.68-13.16.67-20.29,1l4.33,7.84-1.13.91a21.73,21.73,0,0,1-2.85-2.91c-2.48-3.69-5.12-5.8-10.32-5.67-40.39,1-80.81,2-121-3.09a36,36,0,0,1-6.49-1.18c-1.23-.39-2.2-1.58-3.29-2.4,1.12-.71,2.17-1.77,3.39-2a32.87,32.87,0,0,1,6.13-.5q24.9-.82,49.78-1.61c1,0,1.92-.19,3.21-.32l-31.63-49.28,2-1.64a15.63,15.63,0,0,0,1.17,2.6c9.78,14.49,19.68,28.9,29.33,43.48,2.42,3.65,5,5.49,9.64,5.11,6.38-.53,12.84-.14,20.07-.14-11.5-19.33-22.39-37.66-33.29-56l.5-.71,2,2.83c7.31,10.46,14.69,20.87,21.89,31.4,4.22,6.18,7.95,12.7,12.36,18.74a8.92,8.92,0,0,0,6.15,3c8.3.35,16.61.14,25.84.14-11.93-24.74-23.18-48.08-34.44-71.42l.64-.73c1.12,1.33,2.56,2.51,3.32,4,7.95,15.9,15.75,31.86,23.69,47.76,2.75,5.52,5.55,11,8.78,16.28a7.17,7.17,0,0,0,5.2,2.8c7,.06,14.09-.38,21.13-.73,4-.19,4.81-1.72,3.24-5.33q-10.42-23.83-20.78-47.67a4.87,4.87,0,0,1-.16-1.34c3.44-1,4.74,1.06,5.92,3.66q9.36,20.69,18.86,41.29c.73,1.59,1.58,3.11,2.56,5a89.71,89.71,0,0,0,23.23-15.88c.58-.55.3-2.4-.09-3.46-2.29-6.16-4.74-12.25-7.36-18.95,4.7.84,7.72,2.34,9.24,6.7s3.9,8.71,5.91,13.05l1.59-.05c1.13-7,3.09-14,3.26-21,.81-32.61,1-65.24,1.68-97.85a467.47,467.47,0,0,1,4.1-52.64c3.75-27.87-2.19-54-19.26-77.06-.26-.35-.56-.68-.81-1-4.72-6.67-10.6-9.81-19.32-9.39-25.82,1.24-51.74.78-77.5,2.64-19.3,1.39-38,6.95-56.44,16.36H357.4l.56.94c-1.7.9-3.39,2.58-5.09,2.57-16.45,0-32.9-.37-49.35-.63-.25,0-.5-.26-.87-1.4l17.27-1.09-.87-1c1.42-2,2.55-4.28,4.34-5.85,3.39-3,7.16-5.51,11.36-8.68-9.26-1.21-18.11.39-26.6-1.46l-.17-1.84a21.81,21.81,0,0,1,4.39-1.08c9.4-.32,18.8-.46,28.2-.79,2-.07,4.37-.14,5.94-1.17,9-5.91,19.29-7.52,29.59-9.29a115.5,115.5,0,0,0,41.4-15.52c7.18-4.41,15.37-7.24,23.25-10.42,2.16-.87,4.85-.42,7.3-.58l.59,1.1c-1.33,1.09-2.49,2.55-4,3.21-11.7,5.07-23.47,10-35.22,15-1.59.67-3.2,1.29-6,2.4,10.58-.65,19.83-1.06,29-1.82,21.66-1.8,42.31,1.87,62.57,9.67,5.44,2.09,12.13.91,18.24,1.22.29,0,.59-.12.88-.09,9.51.94,17.57-2.63,25.64-7.27a67.63,67.63,0,0,1,28-8.59c5.85-.53,11.37-4.06,17.24-5.38,39.34-8.85,78.16-7.53,116.2,6.64A57.66,57.66,0,0,1,708,349.9l-.46,1.59c-3.32-.48-6.69-.77-10-1.47-14.36-3.07-28.56-7.12-43.06-9.2-24.49-3.52-48.94-1.27-73.18,3.36a2,2,0,0,0-1.55,1.18h5.84c25.27,0,50.55-.11,75.82,0,7.16,0,13.86,1,20.46,5,4.41,2.7,10.77,2.26,16.27,3.08,3.92.58,7.88.9,11.81,1.37,7.81.94,13.62,6,19.91,9.94A74,74,0,0,1,740,372.49c3,2.7,5.41,2.26,8.64.37,12.54-7.35,25.05-14.8,37.94-21.49,13.32-6.9,27.53-11.2,42.8-10.14a86.59,86.59,0,0,1,15.16,2.51c8,2,15.83,4.47,23.7,6.85a13.63,13.63,0,0,1,5.89,3.55c-2.29,0-4.66.4-6.84-.07-12.19-2.61-24.34-5.43-36.5-8.17-1.28-.29-2.57-.59-3.87-.79-3.28-.48-5.73.12-5,4.56-17.33-.26-32.64,5.63-47.13,14.34,4.86-1.34,9.78-2.48,14.56-4.05,18.77-6.19,37.48-7.21,56.66-1.43,15.45,4.66,31.35,7.8,46.79,12.49,8.84,2.69,17.61,2.71,26.51,2.32,13.43-.61,27,.75,40.2-3.8,2.69-.92,6.64.76,9.66,2,7.95,3.4,15.59,7.51,23.57,10.83,6,2.51,11.73,5,15.35,10.94.88,1.43,3.17,1.95,4.78,2.95,3.32,2.06,6.46,4.49,10,6.13,2.77,1.29,6,1.63,9,2.39l.77-1.42-20.32-17.1c.28-.46.56-.93.85-1.39,3.06,1.17,6.52,1.8,9.1,3.64,5.35,3.83,10.19,8.35,15.32,12.48,1,.78,2.38,1.62,3.48,1.5,15.84-1.75,31.61-2.82,47.05,2.57,3.46,1.21,7,2.27,10.34,3.76,10.12,4.53,19.78,9.87,30.8,12.59s19.62,10.33,27.47,18.49l1-.74L1143,416.86l.91-1a33.07,33.07,0,0,1,3.85,2.45c7.84,6.65,13.49,15.05,18.76,23.75,2.43,4,5,8,7.35,12,1.33,2.31,2.92,3.32,5.68,2.94,15.92-2.22,30.78,3.47,46,6.43,1.93.37,3.72,1.7,5.46,2.76q27.63,16.86,55.22,33.79ZM1073.71,669.05c4.53-6.51,8.46-14.15,14.22-20,8.46-8.55,11.8-19.14,15.74-29.85,7.08-19.24,18.31-35.75,34.6-48.53,1-.8,2.1-1.52,3.15-2.28-3.83,5.31-8.12,9.94-12.08,14.84a20.37,20.37,0,0,0-3.63,6.89c-1.32,4.52-.18,5.68,4.25,3.73a47,47,0,0,0,11-7.07c16.69-13.92,32.89-28.33,52-39.17,9.62-5.45,18.87-9.16,30.11-8.51,14.93.86,29.93.59,44.89,1.12,4.71.17,9.38,1.36,14.07,2.08l.33-1.17c-7-5.53-15.86-5.84-24.23-8h18c-1-6.58-5.61-9.66-10-13.06-16.88-13.08-34.46-25.16-53.93-34-9.28-4.19-19.36-6.77-29.27-9.37-7.63-2-15.25,3.79-23.55,0-3.85-1.75-9.53.22-14.31.95-24.31,3.7-46.46,13.33-67.82,25.07a9.79,9.79,0,0,0-3.34,2.72q-7.35,10.68-14.46,21.54c-6.26,9.6-11.38,19.51-6.48,32.49-33.56-19-64.32-40.61-94.5-63.15-1,1.06-1.5,1.59-2,2.09-3.41,3.44-5.26,2.94-6.53-1.83-.34-1.26-.19-2.65-.58-3.88a6.34,6.34,0,0,0-1.79-3.17c-3.69-2.73-7.55-5-12.53-4.32-3.63.51-7.36.33-10.94,1-2.11.41-4,1.94-6,3,.17.6.33,1.21.5,1.81-9.23-6.14-18,1.65-27.37-.37l14.92-6.36c.08-.49.17-1,.25-1.46-3.84-.9-7.67-2.58-11.5-2.56-13,.05-25.61,3-37.85,7.49A187.32,187.32,0,0,1,837.31,494c-4.53,1.11-9.31,1.2-14,1.74l-.42-1.94c21.69-6.91,41.21-19.93,64.86-21.44a4.46,4.46,0,0,0-2.6-1.12c-9.38-.33-18.77-.47-28.15-.92s-17.73,2.07-24.19,8.63c-10.89,11.07-21.22,22.7-31.75,34.12-1.26,1.38-2.28,3-3.42,4.47l-.74-.56,2.64-5.78c-32.27,38.13-59.75,79.31-81.29,124.33,8.7-6.09,9.29-17.47,16.49-25.81-.77,7-6.5,11.43-5.37,18.37l6.46-3a10.78,10.78,0,0,1-3.38,3.75c-5.74,4.38-10,9.56-11.89,16.86-2.8,10.65-6.1,21.19-9.84,31.54a20.76,20.76,0,0,0,.57,16.8c2.53,5.69,3.38,12.12,5,18.22l-1.72.44c-1.62-6.21-3.25-12.41-5.07-19.4-1.82,11.36,4.56,26.15,11,29,.6,2.22.53,4.12,1.44,5,8,7.54,15.85,15.23,24.33,22.18,5.11,4.2,11.24,7.17,16.91,10.69l.93-1.22a42.77,42.77,0,0,0-4.2-3.79c-5.81-4-12-7.44-17.5-11.83-9.66-7.74-17.58-16.51-18.69-30.06-.88-10.7,2.06-20.31,5.45-30,.28-.81,1.21-1.4,2.65-3a27.14,27.14,0,0,1,.51,4.61c-.26,2.78-.65,5.55-1.14,8.29-1.61,9-1.4,18.13,1.77,26.5,4,10.66,13.65,16.78,22.84,24.27-.86-5.52-1.57-10.06-2.28-14.59l1.94-.49a74.37,74.37,0,0,1,3.06,7.76c3.05,11.13,10.49,19.59,17.27,28.41a13.09,13.09,0,0,0,5.41,3.57c12.48,5.13,25.11,9.9,37.52,15.2,7.56,3.22,14.6,7.7,22.24,10.65,12.85,5,25.85,9.69,39.07,13.51,11,3.16,22.33,4.92,33.54,7.17,1.76.35,3.9.57,5.46-.11,6.81-2.94,14-5,20.05-9.78,2.22-1.76,6.33-2.06,9.37-1.61,2.56.37,3.48-.07,4.87-2,5-6.89,10.16-13.68,15.52-20.3,1.12-1.39,3.32-1.9,5-2.83,2.68-1.48,6.14-2.35,7.89-4.56a159.76,159.76,0,0,0,11.45-17.18c7.39-12.34,14.33-24.94,21.83-37.2A693.6,693.6,0,0,0,1064,624.52c2.42-5.79,3.74-12,5.48-18.1.31-1.08.62-2.53.17-3.43-3.89-7.7-.61-15.71-1.45-23.67,2.43,1.56,4.12,3.66,6.28,5,10.81,6.85,13.75,16.53,10.74,28.52q-3.12,12.42-6.22,24.85l-1.6-.3c0-1.24,0-2.48,0-3.72,0-6.91,0-13.82,0-20.72,0-2,.58-4.33-2.78-4.32-3.06,0-2.44,2.19-2.7,4-.51,3.62-.54,7.44-1.77,10.81-15.88,43.71-36.6,85-63.4,123-13,18.47-27.53,35.89-41.36,53.79-.81,1.05-1.66,2.07-2.42,3.15-.64.93-1.18,1.93-1.76,2.9l.91.73c8.83-7,17.65-14,26.51-21a66.14,66.14,0,0,1,6.48-4.55c13.65-8.27,23.8-19.9,31.22-33.78,5.37-10,9.85-20.59,14.49-31,9.11-20.53,18.17-41.08,27-61.72,2-4.7,2.88-9.87,4.49-14.75.34-1,1.68-1.68,2.56-2.51a18.16,18.16,0,0,1,1.76,3.23,6.72,6.72,0,0,1-.17,2.61C1075.51,652.17,1074.59,660.71,1073.71,669.05ZM719.49,478.74c-4.23-2.51-6.19-5.16-6-8.8.56-14.09.5-28.26,2.17-42.23,1.81-15,.43-28.91-8.35-41.65-1.8-2.6-2.5-5.94-4.2-8.61a74.92,74.92,0,0,0-8.85-12c-1.37-1.42-4.61-1-7-1.44l-.22.68,4.22,2.35c-11.3,0-22.41,1.31-33.62-1.56-13.3-3.41-26.64-7.27-40.69-6.75a327,327,0,0,0-71.26,10.93c-6.49,1.71-13,3.52-19.44,5.29l.93.94a49.43,49.43,0,0,1-2.92,6.14c-3,4.69-9.47,8.34-4.18,15.27.15.19.37.32-.18-.14,6.5-6.8,12.43-14.1,19.47-20.1,7.91-6.74,20.38-9.83,26.21-7.66-5.55,3.1-10.89,5.84-16,9-16.36,10-24.7,26.71-33,42.62-9.26,17.69-12.77,37.62-13.59,57.54-1.27,30.53-1.73,61.1-2,91.66A109.57,109.57,0,0,0,509,613.26c2.27,5.48,4.58,11,7.29,17.44l-6.35-2.59c0,5-.14,9.85,0,14.63.14,3.71-.21,8.08,5.86,7.19.7-.11,1.51.87,2.33,1.12,6.27,1.87,12.56,3.69,19.44,5.7-2.74-9.87-5.13-18.31-7.42-26.78-1-3.79-3.57-7-4.94-10.26C522,612,521,603.3,519.18,595a4.47,4.47,0,0,1,.16-2.59c2.6-5.92,1.58-11.78-.06-17.67a11.5,11.5,0,0,1-.16-2.57l1.06-.28c3.24,16,13.74,28.84,18.18,44.36a38.53,38.53,0,0,0,6.9,12.61c6.22,8,15.57,10,24.94,11.61,2.17.38,4.29,1.06,6.44,1.6l-.18,1.38c-3.8,2.19-8,1.75-12.06.85-18.11-4-26.63-16.6-29.61-34-1.14,3.4-2.28,6.37-3.08,9.43a6.17,6.17,0,0,0,.38,3.71c3.63,8.35,7.62,16.55,11,25,2.12,5.31,5.94,6.84,11,6.77,7.51-.1,15.05.16,22.53-.37,13.3-.94,26.57-2.39,39.85-3.57,14.14-1.26,28.28-2.63,42.44-3.58,4.09-.27,6.65-1.68,8.1-5.41,3.18-8.22,6.88-16.27,9.52-24.66,6.62-21,16.44-40.89,20.44-62.71,1.22-6.64,2.71-13.23,4.07-19.84,3.85,32.93-10.27,62-19,92.46a104.4,104.4,0,0,0,11.7-15.11c12.26-19.88,17.09-42.1,18.68-65,1.2-17.13.84-34.36,1.37-51.54.13-4.34,1-8.66,1.53-13h2c.91,6.32,2.25,12.61,2.65,19,.64,10.4.6,20.84,1,31.26.09,2.11,1,4.18,1.78,7.05,6-9,2.1-102.94-4.83-110.59C718.47,445.61,719,461.62,719.49,478.74Zm103.69,4.17C834.67,474.3,846,466.38,859.3,462a4.57,4.57,0,0,0,2.44-2.24c5.51-12.3,12.93-23.34,21.45-33.74,2.4-2.91,5.45-6.17,2.38-10.69-.64-.94-.21-2.58-.35-3.9-.52-4.93-1.08-9.86-1.64-14.79-.51-4.54-1-9.08-1.64-14.25-4.2-1.12-9.28-2.49-14.36-3.82-11-2.88-21.89-5.58-33.4-4.89-10.25.62-20.53.81-30.79,1.09a50.39,50.39,0,0,0-25.14,7.09c-2,1.2-3.68,3-5.78,3.94-10.41,4.47-18,12-23.61,21.62-1.62,2.79-3.09,4.72-7.46,2,3.15,6.6.57,11.54-.82,16.78-2.48,9.35-5.21,18.76-6.29,28.31-2.36,20.84-3.59,41.8-5.6,62.68-1.86,19.33-2.91,38.59.95,57.82.34,1.66.09,4.61-.9,5.17-4.42,2.51-2.5,6-2.25,9.25a16.06,16.06,0,0,0,2.67-3.57c6.68-10.53,13-21.28,22.71-29.57,7.36-6.3,14.56-12.84,21.32-19.78,4.55-4.67,9-9.76,12.12-15.44,8.17-14.93,19.41-27.2,31.5-38.86C819.07,480.05,821.33,478.69,823.18,482.91Zm225.64,32.28.28.06c4.16-3.91,7.88-8.47,12.56-11.6,12.06-8.08,24.26-16,36.93-23.08,10.74-6,22.09-11.17,35.07-9.81.34,0,.74-.37.63-.31a76.9,76.9,0,0,1,2.07-8c2.42-6.49,1.25-10.35-4.54-14a13.94,13.94,0,0,1-2.49-1.79c-13-12.8-27.33-22.7-46.64-22.17-.44,0-.87-.16-1.31-.18l-34.68-1.49c-4.37-.18-8.78-.09-13.11-.61-1.61-.19-3.06-1.76-4.59-2.71,0-.5.09-1,.14-1.51-3.12,1.54-6.24,3.06-9.35,4.62s-6.49,4.62-9.75,4.65c-8.38.08-15.13,3.38-21.3,8.33-7.88,6.31-15.44,13.42-17.21,23.73-1.15,6.7-3.67,12.5-6.49,18.41-1.45,3-2.54,6.25-3.92,9.32-1.1,2.47-.52,3.61,2,5.1,8.3,4.94,16.87,9.68,24.29,15.78,12.58,10.33,26.62,18,40.7,25.42,8.67-9.09,13.07-22.07,27.33-26.74C1052.79,510.05,1050.81,512.62,1048.82,515.19Zm-96.11-37.1a47.12,47.12,0,0,1,2-4.54c3.65-6.34,6.2-13.89,11.33-18.67,10.56-9.83,19.67-20.32,26.13-33.31,3.34-6.71,1.79-13,.53-19.49a3.26,3.26,0,0,0-1.81-1.78c-3.19-1.43-6.35-3.37-9.71-3.89-6.62-1-13.36-1.23-20.38-1.8.55-4.33-2.43-4.17-5.57-4.4-14.8-1.09-28.12,3.38-40.74,10.56a26.18,26.18,0,0,0-9.36,9,40.3,40.3,0,0,1-10,10.31c-4.29,3.19-6.19,7.09-6.81,12.16A16.63,16.63,0,0,1,886,438.5c-4.53,7.45-9.26,14.77-13.91,22.13l36.88,13c.32,1.91.16,3,.63,3.49,3.31,3.3,6.83,5.22,12,3.86,4.17-1.09,8.76-.47,13.11-1a8.22,8.22,0,0,0,5-2.5C943.44,472.86,949.71,472.88,952.71,478.09Zm247.42,747.36c.55,15.43,1.07,30.23,1.63,45,.87,23.34,1.83,46.67,2.58,70,.13,4.2-.84,8.43-.86,12.66,0,2.59.68,5.65,4.09,5.68,7,.05,14.06-.21,21.07-.61a4.69,4.69,0,0,0,3.47-2.25c3.23-7.64,6.24-15.37,9.16-23.13a44.42,44.42,0,0,0,2.73-9.28c.83-5.77,1.29-11.61,1.57-17.43a4.61,4.61,0,0,0-2.2-3.44c-5.81-2.86-8.49-8.06-10.2-13.73a9.87,9.87,0,0,1,.95-6.9c9.15-16.41,18.83-32.53,27.77-49,5.59-10.33,10.51-21.13,9.13-33.48-.15-1.36-.35-3.22-1.25-3.9-3.27-2.47-11.61.32-13.68,3.82-1.32,2.21-3.28,4.62-5.54,5.62-11.94,5.27-24.08,10.1-36.13,15.16a58.75,58.75,0,0,0-5.68,3.06c-1.2.68-2.29,1.77-3.57,2.08A23.17,23.17,0,0,1,1200.13,1225.45Zm-172.77-22.17v.54c15.83.73,31.7,1,47.5,2.3,15.48,1.25,31,2.9,46.29,5.43a150.58,150.58,0,0,0,46.61.59,4.93,4.93,0,0,1,2.51.46c4.1,1.75,8,1.15,11.84-.79,5.51-2.78,10.86-6,16.59-8.17,6.2-2.37,9.27-7.61,13.13-12.61a35.6,35.6,0,0,0-10.37,2.25c-4.92,2-9.5,6.09-14.47,6.52-16.06,1.36-32.23,1.71-48.37,2-18.65.29-37.3-.11-56,.13C1064.23,1202.14,1045.8,1202.81,1027.36,1203.28Zm148-47.37c3.66,4.13,6.21,7.34,9.15,10.14,1.24,1.18,3.46,2.35,5,2.08,22.65-4,45.26-8.24,67.88-12.44,8.15-1.51,13.58-7,18.87-13C1243.33,1150.76,1209.93,1154.35,1175.35,1155.91ZM1067.9,783.3c.29,0-.05-.1-.25,0a14.17,14.17,0,0,0-1.39,1.06c-8.24,6.51-15.4,14.41-25.38,18.71-1.41.61-1.81,5-1.58,7.51.16,1.74,2.1,3.41,3.45,4.93,4.85,5.47,9.62,11.05,14.82,16.18,1.34,1.32,4.18,1.48,6.3,1.42.68,0,1.79-2.43,1.86-3.79C1066.55,814,1067.21,798.63,1067.9,783.3ZM1387,714.93h.39c-.79,3.1-1,6.55-2.5,9.22-2.62,4.54-2.23,9.26-2.32,14.06-.81,42.18,1.34,84.27,3.28,126.38.27,5.86.75,11.72,1.15,17.72Zm-359,58.38c4.49-3.75,9.22-7.25,13.4-11.31,11.07-10.75,21.81-21.82,32.86-32.59,4.33-4.22,3.23-9.28,3-14.37l-21.12,23.18-.83-.63,6.68-10.36a3,3,0,0,0-2.35,1c-6,5.59-11.94,11.14-17.81,16.81-.9.86-1.26,2.28-2.13,3.93h6.13C1037.27,755.66,1030.73,763,1028,773.31ZM872.51,815.52l.54-2.06c-2.43-1.07-4.78-2.5-7.32-3.16a209.47,209.47,0,0,1-44-16.64c-9.25-4.8-18.76-9.11-28.2-13.55a19.75,19.75,0,0,0-4.28-1c.14,1.68.53,2.33,1.1,2.67,11.64,6.85,23.17,13.9,35,20.43a110.89,110.89,0,0,0,36.08,12.45C865.06,815.29,868.81,815.26,872.51,815.52Zm216.15-153.19-1.37-.36c-15.86,20.41-29.42,42.12-37.82,68.24,11.74-16.21,23.34-31,33.42-46.77C1086.64,677.57,1086.84,669.43,1088.66,662.33Zm94.67,505.89c-3.37-3.72-6.38-7.26-9.66-10.51a6.14,6.14,0,0,0-4-1.21q-31.87.29-63.77.75c-1.6,0-3.21.19-4.82.3,7.49.81,14.93,1.72,22.35,1.65a57.35,57.35,0,0,1,26.67,5.82C1160.32,1170.09,1171.05,1172.31,1183.33,1168.22ZM983,1166.84c2.09,1.43,4.46,2.19,5.26,3.75,2.22,4.29,5.86,3.71,9.47,3.6,14.08-.42,28.18-.55,42.23-1.45,9.18-.6,18.29-2.32,27.42-3.6a13.09,13.09,0,0,0,2.76-1.09c-6.51-1.26-12.8-1.37-19.06-1.87-12-1-23.91-1.68-35.76,1.81a44.41,44.41,0,0,1-14.36,1.46C995.19,1169.18,989.47,1167.83,983,1166.84Zm88.85-402.26c-16.23,8.76-28.29,23.17-45.78,29.09-.35.12-.38,1.19-.55,1.82a14,14,0,0,0,2.09.55c.85.09,2.23-.34,2.51.06,2.36,3.39,5.33,2.43,8.14,1.14a29.74,29.74,0,0,0,6.73-4.09c7.65-6.4,15-13.21,22.8-19.38C1071,771.26,1072.25,768.66,1071.85,764.58Zm3.09-16.84c-14.56,10-28.79,20-43.31,29.56-4,2.61-4.6,5.76-4.55,10.56,2.11-1.26,3.75-2.11,5.25-3.15,11.9-8.29,23.4-17.22,35.81-24.64C1073.8,756.69,1074.53,752.65,1074.94,747.74ZM498.36,592.92c2.61,20.91-2.59,40.44-10.3,60l9.34-1.38c1.18-10.74,2.12-21.22,3.55-31.63C502.2,610.76,503.39,601.69,498.36,592.92Zm691.39,678,.92-.28a15,15,0,0,1,0-2.92c1.56-7.54-.49-13.45-7-18-3.47-2.42-6.31-5.77-9.43-8.69l-1.32.71c.56,3.66,0,8,1.9,10.83C1179.18,1259.09,1184.7,1264.85,1189.75,1270.91ZM1035.4,539l8.09,7.5c1.21-13.26,8.41-22.53,16.34-32.1C1047.82,519.26,1039.08,526.24,1035.4,539Zm155.67,710.88c.52-7.74,1-14.84,1.56-23.07l-14.43,3.85Zm126.26-699.24c-7.65-9.31-16-16.2-27.24-18.82C1296.65,541.22,1304.13,549.32,1317.33,550.61Zm-832,93.17c-6.39-2.11-5.66-6.58-3.61-11.86-2.7,9.26-10.1,13.93-17.67,19C475.24,655.09,479.71,652.21,485.3,643.78Zm705.77,686c.16-6.08,2.23-12.13-4.29-16.54-3.9-2.63-6.47-7.21-9.64-10.92l-1.25.45c.6,2.81.57,6,1.95,8.34,2.43,4.1,5.8,7.63,8.63,11.5C1188.14,1324.88,1189.55,1327.37,1191.07,1329.76Zm-93.49-911.63c-9.2-6-30.24-11.23-36-8.94C1073.36,413,1083.73,420.35,1097.58,418.13ZM929.23,817.27c.19.64.37,1.28.55,1.92,3.11,0,6.22.15,9.32,0,8.08-.49,10.14-3.22,8.84-12C940,807.77,937.09,816.79,929.23,817.27Zm426.09-229.19-1,.64,16.07,38.69,1.1-.47C1370.37,612.22,1361.75,600.61,1355.32,588.08Zm-669.65,60.2c4.15,0,7.58.1,11-.07A3.12,3.12,0,0,0,699,646.7c1.91-5,3.62-10.05,5.58-15.6Zm25.16,22.14,8.58-27.25C710.43,650.32,709.47,660.05,710.83,670.42Zm-.24-303.48c4,6,8.59,10.32,17.19,7.12-3.4-2.58-6.64-4.73-9.52-7.29C715.61,364.42,713.29,364.14,710.59,366.94Zm479.49,915.86-15.57-14.63-1.07.92c3.14,7.85,10.79,12,16.64,17.9ZM939.23,378.1l0-2c-6.8,0-13.61-.06-20.41.06-1.12,0-2.22.83-3.34,1.28,1.07.72,2.17,2.08,3.21,2C925.56,379.2,932.39,378.6,939.23,378.1ZM1175.57,1286l-.7-.09,15.37,18.19,1.2-.44c-.77-2.53-.8-5.85-2.47-7.43C1184.91,1292.38,1180.08,1289.35,1175.57,1286ZM917.66,386.18c5.16,5.9,10.06,5.51,17.87-1.33Zm-412.33,13.3c2.52-4.4,2.36-8.22-.65-11.2-.68-.68-2.2-.52-4-.88C502.46,392.05,503.86,395.68,505.33,399.48Zm870.85,248.81,2-.38q-1.17-8.31-2.35-16.6l-2,.3Q1375,639.95,1376.18,648.29Zm-73.65-119-.86,1.81c4.88,2.13,8.84,6.16,14.19,7.32l.76-1.52Zm-4.71,617.7c.15.31.3.62.44.93,2.7-.82,5.53-1.37,8-2.59.84-.41.84-2.54,1.23-3.88-1.12.13-2.48-.1-3.31.46C1302,1143.47,1299.93,1145.32,1297.82,1147ZM671.53,647.41c5.91,1.66,7.21-2.28,10-5.29C675.93,640.26,675.1,645.12,671.53,647.41Zm19.76,23.94,1.05.24q1.23-5.1,2.47-10.22l-1.55-.79c-.66,1-1.77,1.94-1.88,3A72,72,0,0,0,691.29,671.35Zm27.28-88.48c3.92-4.8,4.29-7,2.13-11.39C719.92,575.66,719.24,579.26,718.57,582.87Z"/>
    <path d="M596.92,1137.29c1.23.08,2.45.23,3.67.23q47.83.09,95.67.17c3.23,0,6.46.19,9.69.36,8,.39,15.84.2,23.24-3.48a15.07,15.07,0,0,1,6.44-1.5l-8.66,4.77,24.39,1.91v1.4c-10.28,1.8-20.74,1.31-31.1,2.1-10.2.77-20.3,2.74-30.45,4.18l-.33-1.31,4.26-2.56a12.23,12.23,0,0,0-1.92-.34c-40,.07-80-.59-119.91.63-14.21.44-28.1-2.25-42.2-1.48-1.35.08-2.79-1.25-4.18-1.93,1.35-.59,2.69-1.63,4.07-1.69,11.74-.46,23.58,0,35.21-1.32,10-1.17,19.72-4.24,29.5-6.73,37.44-9.53,74.78-19.46,113.07-25.13a4.62,4.62,0,0,1,1.74-.18c1.3.34,2.55.86,3.82,1.31-1.08.94-2,2.46-3.26,2.75-13.43,3.16-26.95,6-40.37,9.19-23.57,5.62-47.09,11.43-70.63,17.18a15.09,15.09,0,0,0-1.89.74Z"/>
    <path d="M1109.49,653.84a11.55,11.55,0,0,1,2.1,1.08c51.41,41.34,103.54,81.85,151.83,126.88,16.85,15.7,32.36,32.84,48.39,49.41a16.93,16.93,0,0,1,3.58,5.94c.35,1-.57,2.7-1.4,3.68-.27.31-2.44-.38-3.14-1.15a755.89,755.89,0,0,0-66-64.79c-33.86-29.34-67.95-58.43-101.71-87.89-11.81-10.31-22.94-21.39-34.38-32.13Z"/>
    <path d="M606.55,763.38c-3.63.25-7.25.59-10.88.75-34.18,1.51-68.37,2.93-102.55,4.49-27,1.24-53.95,2.88-80.95,3.83-8.86.32-17.79-1-26.66-2.16C459.18,767.49,532.57,757.33,606.55,763.38Z"/>
    <path d="M1199,955.87a22.41,22.41,0,0,1-3.6-2.28q-32.3-30-64.53-60.05c-6.88-6.4-14.1-12.48-20.56-19.28-3.32-3.49-5.69-7.54-10.49-9.73-4.42-2-1.93-6.68-1.78-10.65,34.35,33.27,70.4,64.73,102.08,100.6Z"/>
    <path d="M1207.34,868.19c-40.74-33.89-76.12-73-112.43-111.2,1.11.8,2.24,1.59,3.34,2.41,21,15.58,38.43,35,57.29,52.82,15.57,14.74,31.19,29.44,47,43.89C1206.24,859.47,1208.28,862.86,1207.34,868.19Z"/>
    <path d="M710.11,749.34l-149.23,3.3-.35-2.11c1.26-.47,2.5-1.31,3.78-1.37,25.06-1.08,50.11-2.68,75.18-2.88,22.72-.18,45.46,1.19,68.19,1.9a25.31,25.31,0,0,1,2.56.34Z"/>
    <path d="M614.18,995.68c0-7,.3-13-.06-18.95-1.08-17.73-2.57-35.44-3.58-53.17-.37-6.58.11-13.2.3-19.8,0-.72.75-1.41,1.42-2.61.64,1.17,1.27,1.83,1.35,2.56,1.7,14.42,3.68,28.81,4.86,43.27,1.06,12.86,1.3,25.8,1.71,38.71C620.31,989.71,619.23,993.41,614.18,995.68Z"/>
    <path d="M990.14,868c.54,1.7,1.17,3.39,1.61,5.12a211.72,211.72,0,0,1,6.3,56.28c-.08,4.11.4,8.3-.28,12.3-.37,2.2-2.44,4.26-4.14,6-.49.49-2.49-.16-3.53-.75-.39-.21-.08-1.77,0-2.71a30.25,30.25,0,0,0,.51-3.86c-.64-22.45-1.35-44.89-2-67.33,0-1.62.14-3.25.22-4.88Z"/>
    <path d="M557.12,910.15a10,10,0,0,1,.6,2.35q.91,38.47,1.72,77c0,2.77.57,7.06-3.22,7-4,0-3-4.45-3-7.11.56-25.35,1.3-50.7,2-76a17.47,17.47,0,0,1,.7-3.2Z"/>
    <path d="M751,923.23v-8.42h1a38.23,38.23,0,0,1,.45,5c-.65,17.73-1.25,35.46-2.18,53.17-.13,2.43-2,4.77-3.88,6.94,3.43-29.19-3.62-57.9-3.28-86.78l1.78-.15,5.46,30.48Z"/>
    <path d="M585.69,918.5c2.4,18.14,5,36.25,7.07,54.43.56,4.87-.29,10-.88,14.88-.15,1.27-1.75,2.36-2.68,3.54-.82-1.25-2.21-2.43-2.37-3.76-.75-6.26-.75-12.62-1.78-18.82-2.78-16.77-2.32-33.52-.51-50.31Z"/>
    <path d="M1387.88,585.07c2.8,2.09,5.08,3.62,7.14,5.4a5.74,5.74,0,0,1,1.64,2.93c4.64,20,9.37,40,13.66,60,1,4.64.47,9.63.47,14.46a14,14,0,0,1-1,3.63l-1.4.26c-.78-2.15-1.94-4.24-2.3-6.47-1.52-9.54-2.87-19.12-4.18-28.7-2.31-16.78-6.1-33.15-13.08-48.67C1388.45,587.05,1388.23,586.11,1387.88,585.07Z"/>
    <path d="M504.25,992.13a36.93,36.93,0,0,1,.32-4.21c3.76-19.82,2-39.75,1.24-59.66-.18-5-.37-10-.24-15,0-1.11,1.37-2.18,2.1-3.27.71,1.1,2,2.17,2,3.3,1,20.22,2,40.44,2.44,60.68.11,4.52-1.56,9.17-2.88,13.62-.57,1.89-2.35,3.43-3.58,5.13Z"/>
    <path d="M1088,816.23q57.48,61.28,115,122.53c-42.78-36.64-77.38-81-116-121.57Z"/>
    <path d="M1244,894.31c5.3,3.78,11,7.13,15.81,11.43q15.27,13.62,29.76,28.11c3.24,3.25,5.55,7.52,7.89,11.55,1,1.71.95,4,1.39,6l-1.13.49-54.38-56.55Z"/>
    <path d="M760.72,945.54c2.35-9.65,3.74-19.67,7.32-28.85,3.35-8.58,3.23-16.78,2-25.39-.16-1.16-.22-2.33-.27-3.49,0-.2.33-.42,1.06-1.27.59,1.74,1.18,3.08,1.5,4.48,5,22,8.3,44.11,7.46,66.73-.19,5.12-2.17,9.07-6.65,11.82,5.08-20,1.39-39.63-1.66-59.4q-4.43,17.94-8.84,35.9Z"/>
    <path d="M647.49,912.46a59.19,59.19,0,0,1,.91,6.31q1.1,28.79,2,57.59a15.5,15.5,0,0,1-1.22,6.38c-.42,1-2.26,1.38-3.46,2-.42-1.08-1.2-2.16-1.22-3.25-.23-16.72-.42-33.44-.47-50.16,0-5.28.36-10.56.71-15.82a12.74,12.74,0,0,1,1.19-3.34Z"/>
    <path d="M467.38,915.7a15.61,15.61,0,0,1,.72,3.08c.57,18.05,1.27,36.1,1.47,54.15,0,3.93-1.55,8-2.88,11.76-.39,1.12-2.47,1.65-3.77,2.45-.3-1.42-.95-2.87-.84-4.26.43-5.24,1.42-10.45,1.61-15.69.57-15.55.82-31.12,1.28-46.68a31.46,31.46,0,0,1,.94-4.91Z"/>
    <path d="M1002.33,965.06c1.62-3,3.06-6.19,4.88-9.11,6.3-10.13,9.55-21,9-33-.28-6.44,0-12.92.39-19.37.06-1.12,1.55-2.16,2.39-3.24.88,1,2.52,2,2.52,3,0,11.28.65,22.68-.71,33.82-1.42,11.73-8.36,21-17.28,28.57Z"/>
    <path d="M900.38,887c4.07,0,5.45,2.3,6,4.9,3.14,15.75,4.65,31.61,2.31,47.63a1,1,0,0,1-.1.43c-1.44,2-3.23,5.83-4.28,5.64-3.87-.7-1.89-4.16-1.63-6.51,1.8-15.87.94-31.63-1.55-47.34C900.88,890.34,900.67,888.93,900.38,887Z"/>
    <path d="M393.66,1153.55c8.13.12,8.22.11,9.32,7.68.3,2.06-.11,4.18-3.19,4-2.48-.13-5,0-7.46,0h-8c0,2.18.4,4.46-.13,6.49-.41,1.54-2,2.77-3.06,4.14-1.18-1.25-3.24-2.41-3.38-3.77a71.61,71.61,0,0,1,.08-12.25"/>
    <path d="M895,949.43c-2.11,1.39-4.12,3.66-6.35,3.91a9.13,9.13,0,0,1-6.83-2.59c-1.57-1.74-2.34-4.78-2.33-7.25,0-17.59.38-35.17.64-52.76a2.06,2.06,0,0,1,.84-1.61c1.09,8.57,2.41,17.12,3.18,25.72.71,7.85,1,15.76,1.18,23.65C885.51,946.79,886.43,948,895,949.43Z"/>
    <path d="M947.11,966.82c2-22.93-.62-44.5-3.9-66.43C953.54,909.63,956.77,956.87,947.11,966.82Z"/>
    <path d="M820.35,966.36c.38-24.63.75-48.17,1.12-71.71l2-.09c.92,7.85,2.32,15.68,2.66,23.56.47,10.84.41,21.72,0,32.56-.15,4-1.76,8-3,11.86C822.78,963.77,821.57,964.75,820.35,966.36Z"/>
    <path d="M792,878c1.38.89,2,1,2,1.33,2.12,9.25,4.63,18.43,6.15,27.78,1.26,7.77.09,16.12,2.3,23.52,2.17,7.22,1.7,14.1,1.5,21.18a10.18,10.18,0,0,1-5.86,9.35C802.68,932.88,795.87,906,792,878Z"/>
    <path d="M1218.77,692l99.94,69C1281.88,742.55,1249.54,717.54,1218.77,692Z"/>
    <path d="M429.44,922.46c-.07,1.13-.1,2.27-.22,3.4-2.25,21-4.47,41.93-6.83,62.88-.18,1.62-1.41,3.13-2.15,4.69-1-1.58-3-3.23-2.91-4.72.67-8.29,1.58-16.59,2.93-24.8,2-12.28,4.45-24.5,6.76-36.74a43.5,43.5,0,0,1,1.53-4.91Z"/>
    <path d="M320.17,671l105.06,5.49-.06,1.12c-35.1-.23-70.15-1.3-105.09-4.78Z"/>
    <path d="M694.42,978c-2.36-20.7-2.23-41.42-.69-62.14l2.3,0c1.1,20.71,2.35,41.41.56,62.14Z"/>
    <path d="M1038.34,882.73c7.15,13.87,4.9,52-3.5,56.78Q1036.6,911,1038.34,882.73Z"/>
    <path d="M848.94,882.58c.46,5,1,10,1.34,15.09.78,11.54,1.66,23.07,2.06,34.63.12,3.54-1.19,7.12-1.85,10.69l-2.14-.25V882.65Z"/>
    <path d="M1376.46,563.56c-9.66-11.82-20.25-24.76-30.92-37.8C1363.46,532.82,1370.29,548.82,1376.46,563.56Z"/>
    <path d="M715.61,953.42c0-16.7-4.56-33.22-2.1-51C717.73,908.06,719.28,947.65,715.61,953.42Z"/>
    <path d="M383.59,922.92c3.84,14.42-.51,28.88-.08,43.32C382.71,951.8,378.41,937.39,383.59,922.92Z"/>
    <path d="M925.64,941.67q-3.09-27.13-6.2-54.27l1.13-.13c2.17,18.12,9,35.71,6.27,54.4Z"/>
    <path d="M785.59,958.83,784.11,907c4.1,17.13,4.32,34.44,3.46,51.8Z"/>
    <path d="M627.05,681.88H558l0-.52h69.09Z"/>
    <path d="M514.75,703l66.67-1.78,0,1.53-66.67,1.57C514.77,703.91,514.76,703.47,514.75,703Z"/>
    <path d="M451.52,969.74V936.43a109.69,109.69,0,0,1,1.9,33.26Z"/>
    <path d="M1136,966.86l8,14.61-2,1.08-7.26-15Z"/>
    <path d="M979.59,1149.87l-11.22,2.58C971.34,1148.05,974.32,1147.35,979.59,1149.87Z"/>
    <path d="M436.69,708H419l0-.36,17.69-.78Z"/>
    <path d="M492.32,960.42V947.86l.82,0v12.59Z"/>
    <path d="M813.16,529.86c-.53,8.56-.38,17.24-1.79,25.65s-4.37,16.29-6.73,24.7c3.93-1.9,7-4.61,10-4.55,4.63.08,4,4.87,4.64,9.35,10.35-7.9,22-11.34,34.14-12.16,11.68-.78,23.81-2.62,34.5,4.2,0,.43-.11.87-.16,1.3-3-.3-6-.59-9-.9-19.5-2-38.37.48-56.32,8.52-2.2,1-4,3.14-5.6,5.1-2.57,3.18-4.47,7-7.3,9.85-1.44,1.47-5,2.73-6.35,1.94-1.73-1-2.77-4.08-3.06-6.4s.68-4.8,1.23-8l-35.83,17c6-8.63,14.48-14.14,24.56-17.37,4.3-1.38,8.1-3.26,9.78-7.81a14.31,14.31,0,0,0,1-3.65c.47-5,.1-10.28,1.34-15.12,2.74-10.77,6.27-21.35,9.47-32Z"/>
    <path d="M892,698.86a131.28,131.28,0,0,0-30.5,35.1A293.25,293.25,0,0,0,844.18,768c-2.42,5.6-2.41,12.23-3.61,18.37a14.94,14.94,0,0,1-1.46,3.22c-1-.89-2.49-1.64-2.75-2.7-1.47-5.86-2.19-11.64,0-17.7,6.72-18.5,15.27-36,28.1-51C870.35,711.31,884.83,701.45,892,698.86Z"/>
    <path d="M938.8,678c-2.43,0-4-.41-5.32.07-6.68,2.5-13.27,5.23-20.08,7.53,8.24-3.61,14-11.69,24.15-13,.16-1.42.38-3.25.63-5.48-4.79,1.68-5.13-.78-4.93-4.27.22-3.85,1.24-7.18,4.3-9.7a20.35,20.35,0,0,0,6.91-9.3c1.5-4.37,4.67.12,6-.53,1.37,2.21,2.11,4,3.35,5.3,5.46,5.72,2.23,17.84-6.41,20.49-4.75,1.46-6.38,4.36-8.09,8A5.29,5.29,0,0,1,938.8,678Z"/>
    <path d="M857.45,536.82c-1.17,1-2.33,2.06-3.53,3q-19.09,15.5-38.21,31a13.43,13.43,0,0,1-2.36,1.95c-.81.39-2.37.75-2.66.38a3.77,3.77,0,0,1-.7-3,10.11,10.11,0,0,1,2.29-3.71c10.77-11.52,22.31-22.08,37.17-28.22,1.89-.78,3.86-1.38,5.82-2a9,9,0,0,1,1.66-.2Z"/>
    <path d="M938.48,600.6c-2.23,3.68-4.19,6.38-5.56,9.35-1.21,2.6-2.57,5.54-2.46,8.27.41,10.68,1.44,21.33,2.08,32,.1,1.54-.66,3.13-1,4.7-1.28-1.13-3.39-2.08-3.69-3.43a182.8,182.8,0,0,1-3.54-19.82c-.46-4.18.29-8.5.3-12.75,0-8,5-12.85,10.63-17.29C935.8,601.19,936.71,601.14,938.48,600.6Z"/>
    <path d="M1020,576.37c-19.76,12.39-41.08,22.78-55,42.62l-1.32-1.18c3.65-4.9,7-10.1,11-14.64,9.59-10.75,21.4-18.72,34.06-25.37,3.17-1.67,7-2.13,10.49-3.14Z"/>
    <path d="M954.57,680.08c10.43-11,22.21-19.11,38.19-18.3,5.24.27,7.43,2.89,6.15,7.24C982.25,665.16,968.86,674.27,954.57,680.08Z"/>
    <path d="M743.8,679.4c3.13-33.59,24.57-55.22,48.63-75.14C768.89,624.51,750.58,648.17,743.8,679.4Z"/>
    <path d="M801.64,609.09c-1.52,13.07-3.17,27.26-4.85,41.6C792.6,642.48,796.46,614.69,801.64,609.09Z"/>
    <path d="M954.53,636.49V625.63H960l-4.51,11.06Z"/>
    <path d="M798.21,386.75c8.62-10,20.56-11.08,32.71-11,3.26,0,4.54,3.49,3.27,7.62-3.31-4.18-7.72-2.94-11.65-2.09-6.55,1.43-12.95,3.56-19.41,5.42-1.49.43-3,1-4.42,1.44Z"/>
    <path d="M748.35,474.18c-2.25,20-4.47,40-10.55,59.23l-1.52-.25c1.81-9.86,3.71-19.7,5.41-29.58s3.17-19.74,4.75-29.62Z"/>
  </g>
</svg>
