<svg id="Layer_1" data-name="Layer 1" xmlns="http://www.w3.org/2000/svg" width="600mm" height="600mm" viewBox="0 0 1700.79 1700.79">
  <title>sketches frames</title>
  <g>
    <path d="M1470.83,1158.73c-2.33-1.24-3.92-2.8-4.86-2.48-13.22,4.5-24.14-2.11-34.89-7.68a24.16,24.16,0,0,0-16.41-2.73c-34.29,5.6-68.59,11.27-103.05,15.69-47.87,6.15-96,7.7-144.3,6.79h-3.64v11.11c-1.15-.36-2.31-.4-2.47-.82-1.69-4.53-5.26-4.59-9.27-4.46a191,191,0,0,1-19.44-.06c-21-1.5-41.29,1.9-61.61,6.61-8.65,2-17.77,1.84-26.63,3-20.33,2.7-40.61,5.74-60.94,8.43-18.33,2.42-36.73,4.39-55.06,6.87-9.6,1.3-19.08,3.47-28.67,4.92-12.26,1.85-24.52,3.94-36.87,4.92-28.5,2.26-57,3.91-85.57,5.81-9.45.64-18.9,1.42-28.36,1.82-2.06.09-4.16-1.29-6.28-1.8-2.89-.69-5.83-1.68-8.75-1.7-26.56-.13-53.15-.71-79.69.16-16.81.55-33.57,3.12-50.3,5.18-19.39,2.39-38.72,5.26-58.09,7.81-4.84.64-9,1.84-13.23,5-7.33,5.45-16.17,5.47-25,3.57a23.94,23.94,0,0,0-8.16-.77c-6.09.85-12.08,2.45-18.15,3.41-2.8.44-4.48,1.18-5.16,4.29-.63,2.86-2.25,5.5-3.65,8.76,2,0,3.73-.5,4.87.11,1.91,1,4.44,2.51,4.85,4.24s-1.37,4.07-2.29,6.09c-.15.34-.78.52-1.23.66-10.86,3.29-20.71,9.6-32.46,10.39-5.1.35-10.11,2-15.39,3.15-.4-2.35-.61-3.56-.82-4.77l-14.42-1-1.47,9.35c-2-1.5-3-2.15-3.91-2.91-4.81-4.1-9.33-8.61-14.45-12.26-8.07-5.75-12.95-14.15-19.28-21.36-8.73-10-17.29-20.25-27.24-28.87-4.6-4-7.7-8.87-11.91-12.92-4.45-4.28-8.78-8.67-13.27-12.89-19.14-18-38.35-35.83-57.44-53.83a106.1,106.1,0,0,1-10-10.77c-14.3-17.85-30.88-33.4-48.17-48.27a32.45,32.45,0,0,1-6.31-7c-6.87-11-13.52-22.12-20.13-33.27a10.94,10.94,0,0,1-1.41-4.91q-2-41.44-3.91-82.89c-1.05-23.22-1.66-46.45-3.14-69.64-.65-10.2-3.39-20.24-4.45-30.43-1.56-15.08-3.22-30.21-3.5-45.34-.55-29.7-.19-59.43-.13-89.14,0-3.94.44-7.89.82-11.82a3.87,3.87,0,0,1,1.89-2.64c2.79,27.41,1.86,54.88,4.14,82.43.62-3.61,1.54-7.2,1.81-10.83,1.6-21.41,3-42.84,4.58-64.25a30.74,30.74,0,0,1,2.69-10.14v11.79l1.08.14c1.67-7.24,3.4-14.46,5-21.71,2.28-10.61,7.31-14.52,18.23-16.14,10.12-1.49,20.68-2.8,29.88-6.85,6.43-2.84,12.64,0,18.67-2.73,2.91-1.31,4.22-1.92,4.16-5.27q-.54-34.61-.62-69.22a23.67,23.67,0,0,1,2.26-10c8.67-17.83,15.13-36.45,20.92-55.37A17.69,17.69,0,0,1,286.4,511c15.62-12.27,34.06-16,53.36-16.23,4.48-.06,7.05-.51,8.16-5.69,1.33-6.17,6-10.17,11.79-12.76,7.59-3.39,15.11-6.93,22.9-10.52l1.46,2.25c2.43-3.25,7.4-4,7.16-9.2,0-.54,1.35-1.22,2.14-1.72,7.34-4.59,13.35-10.94,23.15-11.79,7.13-.61,13.9-4.93,20.93-7.31,4.78-1.62,9.69-2.87,14.61-4,2.05-.48,4.26-.27,6.4-.38l.51,1.23-13.59,8.4c5.36-.41,11,1.95,15.61-2.56,1.28-1.24,3.9-1.05,5.88-1.61,31.76-9,64.21-13.95,97.06-16.42,6.77-.51,13.6-.26,20.39-.11,2.07.05,4.12.93,6.17,1.43l.12,1.81L569,430.66c10,.66,19.77,1.58,29.53,1.89,25.75.83,51.5,1.67,77.25,2,12,.13,24-1.45,36-1.46a184.08,184.08,0,0,1,27.75,2.08c7,1.06,7.41,2.38,8,9.47,6.84,2.42,15.78-2.11,21.1,6.75-.09-1.86-.16-3.25-.23-4.63,6.85-1.05,8.35-.18,10.35,5.63,1.35,3.93,2,8.18,6.91,9.91,1.55.55,2.4,3.07,3.86,5.1l4.75-3.81c-1.83-7-1.46-8.16,4.46-11.74q16.85-10.17,33.8-20.14c3.91-2.3,8-3.9,12.55-1.54.74.39,1.85.12,2.78.08,9-.38,18.06-.2,27-1.31,17.28-2.15,34.66-1.79,52-2.88,33.74-2.14,67.46-4.75,101.29-3.51,24.47.9,48.93,2.27,73.38,3.52,11,.56,22.07,1.37,33.11,2,5,.3,9.76.81,14.19,4.21,2.15,1.65,6.5,1.39,9.55.7,6.68-1.52,9.41,1.82,12.11,7.14,4.81,9.47,10.72,18.38,15.48,27.87a41.83,41.83,0,0,1,4.13,14.78c1.68,19.35,2.8,38.75,4.14,58.13.22,3.31.68,6.62.71,9.93a22.3,22.3,0,0,1-2,9.5c-2.06,4.81-.73,11.1-.62,16.76,0,.44,1.71,1.14,2.67,1.22,2,.19,4.14-.19,6.16.08,3.68.5,7.24-.4,11.18,1.82,2.55,1.44,7.63-1.43,11.51-2.61,1.59-.48,3-1.62,4.61-2.54.35.57.81,1,.76,1.27-1,5.35,1.89,7.49,6.34,9.74,41.27,20.9,82.5,41.86,123.51,63.25q64.26,33.5,128,67.85c12.89,7,25.13,15.14,37.53,23,4.48,2.83,5.19,6.78,3.38,11.9a16.36,16.36,0,0,0-.52,5.57c.84,71.47,2.32,142.93,2.28,214.39,0,30.6-3.18,61.21-5,91.81-1.1,18.61-2.17,37.22-3.69,55.8-.57,6.87-2.41,13.64-3.65,20.46-.5,2.78-1,5.57-1.42,8.36-.57,3.77-2.6,5.42-6.49,5.23a149.1,149.1,0,0,0-15.39-.13,118.16,118.16,0,0,0-16.46,2C1474.81,1156.08,1472.29,1158,1470.83,1158.73Zm-446.59-33.34V1134c16-19.91,35.54-36.64,47.44-59.92-4.36.92-9.9,1.42-12.06,4.39-10.6,14.52-20.34,29.66-30.25,44.68-1.4,2.13-2.69,3.42-5.29,2.44a12.06,12.06,0,0,0,1.61-1.67c6.77-10.43,13.59-20.84,20.22-31.37,2.89-4.57,5.4-9.37,8.48-14.78-8.94-.34-16.24,1.08-23.06,4.74-9.15,4.91-15.81,12.47-21.47,20.93-7.45,11.15-14.65,22.48-21.05,32.33Zm-483,21.1a14.35,14.35,0,0,1,.87-2.54q11.63-20.49,23.27-40.88c-9.42-3.8-22.68-2-28.51,5.6-9.84,12.89-18.75,26.48-28,39.79a11.89,11.89,0,0,0-1.39,3c-1.9,5.72-2.07,11.33.91,16.82A44.24,44.24,0,0,0,537.1,1151a63.35,63.35,0,0,1,4.31-4.68c-4.4,9.06-8.79,18.12-13.27,27.36,8.11,0,15,.2,21.89-.14a7.78,7.78,0,0,0,5.25-2.88q16.15-23.07,31.88-46.43c4.55-6.72,8.76-13.66,13.17-20.56l-21.65-2.52c-3-.35-5.3.26-7.21,3.17-3.71,5.67-8,11-12,16.46C553.38,1129.33,547.34,1137.92,541.25,1146.49Zm814-39.71c1.09.52,2.26,1.61,3.26,1.47,13.43-1.82,26.84-3.82,40.26-5.74,2.49-.35,3.46-1.64,4.37-4.06a228.07,228.07,0,0,1,9.74-23c4.26-8.45,9.36-16.46,14-24.74,2.7-4.87,5.14-9.9,7.89-15.21-7.16,0-13.62.15-20.08-.06-2.94-.1-4.26,1-5.78,3.54-5.82,9.53-11.56,19.18-18.3,28s-14.47,16.68-21.82,24.92c-4.5,5-9.1,10-13.66,15,3.83-6.16,7.36-12.53,11.55-18.43,9.61-13.51,19.61-26.75,29.31-40.2,2.63-3.64,4.76-7.64,7.58-12.25-2.67,0-4.36,0-6,0-9.49.15-19,.46-28.46.38-3.43,0-5.5,1-7.08,4.09-3.27,6.43-6.35,13.07-10.53,18.9-6.32,8.81-13.82,16.79-20.26,25.54-5.36,7.29-9.92,15.17-15.5,23.83,5.33,1.3,9.4,3,13.52,3.12,4.67.16,9.43-.85,14.06-1.77C1347.26,1109.34,1351.2,1107.93,1355.21,1106.78ZM1469.9,720.69a40,40,0,0,1-4.82-1.85q-53.17-28.43-106.33-56.94c-3-1.58-5.88-3.2-9.72-5.29,3.56,4.32,7.22,7.37,9,11.27,2.26,5-1.11,8.58-5.79,11,.85.62,1.33,1,1.85,1.35q52.79,32,105.62,63.95a8.83,8.83,0,0,0,4.74.77c6.11-.29,12.2-1.06,18.3-1.1,6.4,0,12.79.55,20.42.93-1.54-2.25-2.2-4.09-3.51-5-7.59-5.34-15.33-10.45-23-15.65,5.17,2.44,2.43-4.6,6.72-4.14L1342.09,644.3,1341,646c3.31,2.78,6.29,6.17,10,8.25,33.88,19,67.89,37.7,101.84,56.54C1458.54,714,1464.2,717.4,1469.9,720.69Zm-168.47,366.84c-5,8-10,16.09-15.23,24.43,8-1.2,15.47-2.6,23-3.33a7.41,7.41,0,0,0,6.28-4c6.68-10.71,13.49-21.35,20.29-32,2.32-3.64,4.75-7.21,7.86-11.93-7.66,0-14-.22-20.24.15a7.87,7.87,0,0,0-5,3.09c-5.39,7.15-10.5,14.52-15.7,21.81,3.55-8.15,7.09-16.31,10.83-24.89-8.25,0-16-.12-23.72.11a6.87,6.87,0,0,0-4.19,2.33c-4.23,4.69-8.28,9.55-12.35,14.38-7.73,9.17-16.13,17.8-20.4,29.46-1.24,3.4-4.17,6.18-6.33,9.25l-1.29-.93c9.33-19.63,23.59-36.1,36.54-54.58-11.23,0-21.31.14-31.37-.09-3.25-.07-4.62,1.22-6,4-5,9.84-9.89,19.84-15.84,29.11-5.45,8.5-8.3,17.57-9.81,27.4a4.3,4.3,0,0,0,1.32.29c19.09-2.49,38.2-4.92,57.26-7.65,2-.29,4.22-2,5.63-3.7C1289.24,1102.77,1295.29,1095.11,1301.43,1087.53ZM934.49,654.24a28.55,28.55,0,0,0,2.22-4.42c3.7-11.76,6.89-23.7,11.11-35.26,2.11-5.79,4.66-12,12-14,2.29-.62,6-3,5.9-4.15-.53-4.69,2.78-3.94,5.07-4.4,27.21-5.53,54.88-6.18,82.48-7.22a225,225,0,0,1,27.48.56c21,1.79,42.12,3.66,63.07,6.39,10.89,1.41,22.38,1.79,32.89,9.62,1-2.67,2.61-5.09,2.68-7.54.32-12.17.56-24.35.23-36.51-.68-24.49-1.78-49-2.64-73.45-.19-5.41-.82-10.07-5.73-14-8-6.41-14.78-14.28-22.76-20.7a24.5,24.5,0,0,0-13-4.87c-24.89-1.67-49.81-2.94-74.73-4-23-.94-45.94-5.33-68.93,0-5.5,1.28-11.17,1.81-16.76,2.68l.06,1.62,16.16,1.75.85,1.17c-1,1-2.12,3-3.08,3-7.7-.48-15.49-.74-23-2.2-17.08-3.32-34-7.13-51.61-6q-16.54,1.08-33.08,2.54c-8.15.71-15.92,0-23.38-3.82-1.64-.84-4.57-.5-6.28.43-5.74,3.13-11.55,6.33-16.68,10.34a66.62,66.62,0,0,0-16.45,18.35c-3.85,6.42-3.3,11.25-1.76,17.54,5.2-4.73,9.8-9.28,14.79-13.34s10.32-7.61,15.5-11.39l1,1.31c-1.52,1.34-3.09,2.62-4.56,4-7,6.63-13.7,13.54-20.94,19.87-6.49,5.68-4.91,12.18-3.29,19.15l17.57-16.26,1,1.07c-4.71,5.67-9.14,11.62-14.23,16.93-4.46,4.66-3.8,9.49-2,16.4L834,511.79c-2.89,5.45-6.75,10-9.87,15.06-3.35,5.42-1.73,11.33-.59,17.67,8-7.3,14-15.94,23.79-20.18a9.66,9.66,0,0,1-2.53,4.15c-6.07,6.22-12.22,12.37-18.23,18.65-1.13,1.18-2.44,2.86-2.43,4.31,0,4.18.65,8.35,1.1,13.15l19.52-20.48,1,1c-5.79,6.66-11.75,13.18-17.27,20a11.62,11.62,0,0,0-2.38,7.17c.39,8.84,1.33,17.65,2,26.47,3.13,38.74,6.3,77.47,9.29,116.22.25,3.31,1.24,4.32,4.48,4.27,10-.14,19.92-.07,29.87.11,1.13,0,2.24,1.25,3.36,1.92-1.15.66-2.28,1.83-3.46,1.89-4.77.21-9.55.09-15.61.09a31.16,31.16,0,0,0,2.65,1.83c17.18,8.23,35.16,11.77,54.14,8.93,1.14-.17,2.69-2,2.91-3.26,2.69-15.88,4.9-31.85,7.77-47.69,2.76-15.22,6.07-30.34,9.34-45.46.32-1.5,2.1-2.68,3.2-4,.49,1.79,1.57,3.66,1.34,5.36-.69,5.14-1.89,10.21-2.86,15.36-1.27,7.92-2.55,15.85-3.88,24.09l3.8.56ZM799.11,719.12c-6.6.78-8.78-.84-8.51-7.26.24-5.65,1.79-11.27,1.8-16.91.08-43.27,1.86-86.6-4.39-129.69-4.12-28.4-7.7-56.88-11.7-85.31-1.25-8.89-1.54-8.66-10.29-10.15-15.27-2.61-30.72-4.78-43-15.76-5.31-4.77-11.26-7.45-18.56-4.57a5.23,5.23,0,0,1-2.62-.23c-1.58-.29-3.15-1-4.71-1-5.2.12-10.39.79-15.59.72-28.92-.41-57.85-1.53-86.76-1.34-33.49.21-67,1.19-100.45,2.47A369.24,369.24,0,0,0,425,459.3c-6.43,1.49-12.76,3.59-19.27,4.55-3.91.58-5.89,1.8-6.28,5.76s-1.15,7.78-1.68,11.68a12.44,12.44,0,0,0,.15,2.5,8.18,8.18,0,0,0,2.56-.31,51,51,0,0,0,4.61-3c-1.74,5.55-3.27,9.66-4.3,13.89-4.8,19.82-3.2,39.87-1.77,59.89,1.77,24.56,4.13,49.09,5.21,73.68,1.48,33.92,2,67.89,3,101.84.25,8.31.95,16.6,1.45,25.17l5.25.25c0-29.77,0-59,0-88.22s.15-58.27,2.21-87.34l1.93,0q1.63,87.74,3.26,175.41a12.91,12.91,0,0,0,1.9.5c21.78.83,43.56,2,65.35,2.37,29.71.49,59.44.82,89.14.32,24.47-.41,48.93-1.86,73.36-3.36,14.17-.87,28.24-3.28,42.41-4,26.16-1.41,52.37-2,78.54-3.23,4.09-.18,8.12-1.7,12.18-2.6l-.31-1.57L778,743c0-.45,0-.91,0-1.37h22.65C800.11,733.55,799.62,726.49,799.11,719.12ZM468,852.31c.51,3.27,1.92,5.88,6.46,5.88,1.15,0,3.29,2.53,3.2,3.76a6,6,0,0,1-3.24,4.34c-6.73,2.31-6.62,2.1-5.73,9.18,2.11,16.6,4.29,33.19,5.94,49.84,1,10.13,3.11,12.4,13.5,11.28,3.58-.39,7.06-1.7,10.64-2,2.59-.25,5.27.41,7.69.65l-6.34,5.66c10.51,0,19.49.4,28.42-.08,28.54-1.52,57.09-3,85.58-5.18,26.29-2,52.51-4.85,78.75-7.34,26.72-2.54,53.41-5.53,80.18-7.45,11.37-.82,23.22-4.36,34.5,2.39,1.12-4.09,2.88-6.66,7.18-3.67.4.28,1.23,0,1.85-.09,18.74-2.55,37.42-5.9,56.24-7.48,32-2.68,64-4,96-6.35,26.9-2,53.75-4.75,80.62-7.1a24.05,24.05,0,0,1,4.52.41c5,.52,10,1.44,14.93,1.41,2.62,0,5.15-2.13,7.84-2.56,5.62-.9,11.3-1.31,17-1.92l.74-1.76q-10.68-11.43-21.34-22.88l2.36-2.25a99.11,99.11,0,0,0,6.29,8.32A170.56,170.56,0,0,0,1095.36,891c5.22,4.49,11.49,5,18.69,3-30.45-32-59.26-64.86-98-88,6.53-.13,1.2-4.16,3.22-6,2.11,3.1,3.5,7.58,9.6,5-4.76-5.7-6.57-14.15-17.55-11.52l3.47-3.95c-8-5.41-16-9.34-26.21-7.26,13.1,20.69,33.35,34,47.69,52.65-11.75-9.54-20.12-23.46-37.63-27l4.31-1.14c-8.86-10.17-12.48-24.88-27.73-28.32-5.4,9.3-13.7,11.86-19.86,6-2.57-2.46-4.82-2.53-7.94-2.25-4.63.42-9.33.11-14,.11l-.19-1.45,9.35-3.32c-3.38-1-5.56-2.18-7.74-2.18-9.79,0-19.59.17-29.37.58-19.89.84-39.77,1.66-59.63,2.88-13.63.84-27.49.35-40.52,5.75A28.79,28.79,0,0,1,797,786.2c-18.07,1.66-36.16,3.1-54.22,4.82-4.62.43-9.16,1.62-13.92,2.5,1.09,5.41,4.71,3.52,7.3,3.7,2.83.2,5.68,0,8.53,0l0,1.61c-45.27,2.4-90.22,9.72-135.75,7.92,19-1.6,38-2.35,57.06-3.5s37.79-2.56,55.87-8.92c-103.14-.58-205.75,9-309,15.55a47.68,47.68,0,0,1,.05-6.36c.58-4-1.13-6.33-4.63-8.22-6.53-3.53-12.89-7.41-19.13-11.43-1.33-.85-2.11-2.85-2.74-4.48-1.94-5-3.3-10.24-5.69-15-1.14-2.26-4-3.78-6.27-5.29-.56-.37-2.54.28-2.94,1-1.84,3.26-.26,11.83,2.64,14.57,14.83,14,29.67,28,44.66,41.83a9,9,0,0,0,5.86,1.91c7.58-.17,15.15-.73,22.72-1.17,30-1.74,59.91-3.53,89.88-5.19,17.34-1,34.7-1.74,52.06-2.51a59.31,59.31,0,0,1,7.14.54l0,1.59-171,10.22a4.69,4.69,0,0,0,.82,1.2q18.39,13.82,36.84,27.53C464.26,851.49,465.91,851.62,468,852.31ZM1166,666.75c-5.89,14.09-11.09,27.31-16.9,40.26-8.46,18.83-13.21,38.21-10.06,58.92a41.44,41.44,0,0,0,4.16,13.4c.9,1.66,5,1.62,7.63,2.27,3.65.91,5,2.43,0,6.08l53.8,23.2c-18.74-16.28-43.58-23.75-59.62-43.67a5.94,5.94,0,0,1,3.54.59c19,10.89,38.48,21.21,57,33,14.68,9.32,29.8,17.11,46.51,21.86,5.36,1.52,10.66,3.27,16,4.91,0,.37-.07.74-.1,1.11l-7.48,1.72c6,1.81,11.13,3.31,16.24,4.91,6.74,2.1,10.42.48,13.64-6.2l-4.9-1.8-.38-1.19c7.71.84,12.68-3,16.88-8.43,1.06-1.39,3.35-1.76,4.82-2.93,2.93-2.34,6.26-4.49,8.39-7.46,11.58-16.19,19-34.46,26.22-52.87,6.66-16.93,10.38-34.1,8.39-52.27a12,12,0,0,0-2.15-6c-3.8-4.7-6.69-9.42-4.87-15.84.88-3.14-.88-4.71-3.8-6-11.24-5-22.52-9.89-33.43-15.52-12.34-6.35-23.93-14.23-36.52-20a193.68,193.68,0,0,1-32.69-19,81.08,81.08,0,0,0-11.16-6.16,6.76,6.76,0,0,0-3.54-.32c-3.25.34-6.78,1.91-9.65,1.08-7.22-2.09-14.36-1.5-21.56-1a8.46,8.46,0,0,0-4.59,2c-17.72,15.43-34.76,31.38-39.81,56.11l3.28-5,1.59.87a38,38,0,0,1-1.3,4.79c-4.61,11.07-9.53,22-13.84,33.18-2,5.29-3,11-4.42,16.55,7.42-15.3,14.28-30.73,21.15-46.15,1.66-3.72,2.94-7.83,8.57-6.86C1162.19,669.18,1163.58,667.91,1166,666.75ZM969.29,755.29c4.39.52,8.38,1.21,12.4,1.38,2.29.1,4.62-1,6.94-1,15.64.11,31.29.37,46.93.56,2.76,0,5.51,0,8.26-.06,6,0,12-.3,18,0,2,.09,4,2.12,6.07,2.14,5,.05,10-.67,15-.86,17.5-.67,21.25-6.25,24.1-19.82a316.49,316.49,0,0,1,35.88-93.7c3.79-6.57,7.84-13,11.82-19.43,2.74-4.45,2.1-7.58-2.21-10.46-.36-.24-.82-.63-.86-1-.44-4.25-3.69-3.52-6.44-3.72a40.68,40.68,0,0,1-6.93-.63c-3-.75-5.86-2.58-8.89-2.91-8-.86-16.26-.18-24-1.87-32.48-7.1-65.26-6.48-98.15-5.22-10.37.4-20.78-.35-31.17-.34a6.39,6.39,0,0,0-4.09,2.18c-2,2.19-3.18,5.15-5.36,7-5.47,4.78-11.39,9-16.92,13.73a7.06,7.06,0,0,0-2.31,4.7c-.09,21.33-.11,42.67.18,64,.07,5.62,1.25,11.23,2,17.66a11.39,11.39,0,0,0,.72-2.06c1-17.35,1.68-34.72,3-52.05.51-6.66,2.25-13.26,3.88-19.78.32-1.29,2.7-2.77,4.18-2.82,1.17,0,2.73,1.79,3.51,3.14.64,1.12.5,2.75.54,4.16.62,24.65,1.11,49.3,1.87,73.94C967.7,726.36,968.58,740.54,969.29,755.29ZM458.63,868.66c-25.91.17-51.09,2-75.61,8.91,2,11.29,3.9,22.1,5.8,32.91l1.28.34c1.56-10,2.4-20.24,6.55-29.49l1.83.09V904.1l1.21,0q1.49-5.82,3-11.65l1.2.2c-.24,4.82-.49,9.63-.72,14.45-.72,15-2.06,30-2,45,.07,12.13,2.12,24.24,2.81,36.38,1.91,33.76,3.94,67.52,5.19,101.31.8,21.48.26,43,.38,64.52.12,20.55.33,41.09.46,61.64.08,12.65,0,25.31.23,37.95,0,1.27,1.43,3.54,2.29,3.59,5.78.32,11.58.16,17.78.16v-14.07c1.19,1.74,1.82,2.59,2.37,3.5,7.47,12.24,8.18,12.54,22.43,9.38a17.6,17.6,0,0,1,2.3-.58c3.42-.25,4.17-2.07,4.22-5.36q.66-40.74,1.72-81.48c.74-28.92,1.74-57.83,2.44-86.76.35-14.23.31-28.46.39-42.7s-.89-28.86.35-43.15-4.38-27.62-5.09-41.58c-.32-6.46-1.58-12.88-1.74-19.33-.52-20.54-.73-41.08-1.05-61.63C458.6,872.15,458.63,870.46,458.63,868.66Zm1058.53,159.08c.7-12.78,1.93-25.55,2-38.34q.63-115.5.81-231c0-6.53-.28-6.83-6.83-5.34-11.22,2.55-22.36,5.4-33.53,8.16-.71.17-1.34.67-2,.91-1.53.53-3.16,1.57-4.62,1.37-3.44-.46-5.16.72-5.28,4.12-.27,7.56-.9,15.14-.63,22.68.87,24,2.08,48,3.13,72a14.79,14.79,0,0,1-.29,2.37l-4.37-.67c0,19,.37,37.68-.09,56.32-.58,23.19-1.92,46.35-2.79,69.53-.78,20.38-1.23,40.76-2.12,61.13-.4,9-.34,18.22-2.59,26.79-5.28,20.14-10,40.09-6,61.11.9,4.68,1.2,5.42,5.88,4.48,10.68-2.14,21.36-4.25,32.26-6.41v6.92l3.45-.61c-.51-2.48-.92-4.54-1.34-6.59l1-.85,9.84,6c.45-2.42,1-4.36,1.15-6.33,2.2-21.84,5.12-43.65,6.27-65.55,1-19.53.69-39.2-.14-58.76-1-22.72-3.13-45.39-4.72-68.08a23.13,23.13,0,0,1,.37-3.86l1.61,0C1512.78,968.37,1514.5,998,1517.16,1027.74Zm-379-234.84c-2.89-3.33-5.9-4.31-9.84-4.27-23.67.18-47.34.09-71,.09,21.41-6.5,43.66-4.27,65.5-7.06-6.37-2.55-12.43-5.92-19.68-4.75-16.84,2.7-33.7,5.25-50.53,8-7.55,1.24-15,2.82-23.14,4.35,11.62,15,27.16,25.15,36.11,41.21-5.11-3.19-10.12-6.56-14.07-10.9-7.76-8.51-15-17.54-22.33-26.4-2.24-2.7-4.58-3.46-7.77-.95,12.24,12.2,26.8,22.15,33.92,38.91l3-1.74,2,6.3c3.34-3.26,4.78-.36,6.36,1.65,15.5,19.72,33.65,36.84,52.4,53.37.93.83,2.68,1.69,3.65,1.36,5.58-1.86,10.7-4.54,14.18-9.9-20.13-17.18-44.41-28.54-63-47.52a10.74,10.74,0,0,1,4.2,1.71c7.16,5.17,14.33,10.34,21.37,15.67,8.88,6.69,17.88,13.86,29.13,15,8.68.86,13.67,5.36,18.27,11.53,2,2.66,3.7,5.59,6,7.89a9.33,9.33,0,0,0,5.83,2.72c13.74,0,27.49-.55,41.23-.51,32.88.08,65.77.42,98.65.54a22.37,22.37,0,0,0,7.82-1.34c20-7.52,40.69-12.71,61.66-16.77,16.07-3.1,32.11-6.32,49-9.65a17.33,17.33,0,0,0-2.38-1.16c-35.79-8.94-71.56-17.91-107.4-26.65-1.81-.44-4.44.62-6.12,1.79-5.54,3.85-10.46,8.76-16.31,12-7.18,4-11.86.45-11.11-7.54-7.33-1.12-14.66-2.27-22-3.35-.72-.11-2.05-.07-2.16.24-1.24,3.51-4.08,2.23-6.37,2.12-10.71-.52-21.41-1.21-32.12-1.72-4.89-.24-9.8-.11-14.69-.39-.91-.06-1.75-1.31-2.62-2a10,10,0,0,1,2.57-1.55,16.4,16.4,0,0,1,3.78-.17H1230a67,67,0,0,0-12.35-4.34,17.44,17.44,0,0,0-4.56-.78c-3.64,0-7.31.63-10.93.41-6.92-.42-13.81-1.3-20.71-1.88-4.57-.38-9.16-.4-13.71-.89a63.12,63.12,0,0,1-7.81-1.83c.07-.8.14-1.59.2-2.39,10.52-1.15,21.18-.19,32.27-.58a11.89,11.89,0,0,0-1.49-1.15q-23-11.22-46-22.39a5.32,5.32,0,0,0-2.63-.51c-19.33,1.68-38.65,3.55-58,5-4.68.36-9.45-.5-14.17-.8,0-.69,0-1.38,0-2.07C1092.43,795.41,1115,794.68,1138.17,792.9ZM395.29,866.81c-2.54-.77-4.13-1.29-5.73-1.74-2.84-.79-5.16-2.25-4.73-5.52s3.09-4.19,6-4.13c9.8.19,19.61.28,29.39.81,4,.22,8,1.38,12,2.28,2.48.55,4.88,1.42,7.31,2.15l.69-1.59-9.67-8.75.52-1h12.47c-1.51-1.29-2.15-1.93-2.87-2.45-23.73-17.25-44.81-37.51-65.81-57.87-25.21-24.45-49.4-50-77.22-71.66-13.18-10.28-25.3-21.91-37.85-33-.76-.67-.85-2.15-1.64-2.71-2.51-1.79-5.66-5.16-7.76-4.64-13.42,3.31-27,2.84-40.57,2.87-11,0-10.84.07-15.22,10-1.47,3.3-1.19,5.13,1.71,7.5,13.6,11.08,27,22.44,40.44,33.68,1,.84,2.1,1.56,3.15,2.33l-1.11,1.17-46.42-38c-2.79,4.72-1.57,11.83,2.51,15,1.62,1.25,3.24,2.54,4.74,3.94,22,20.47,44.07,40.79,65.82,61.49q42.6,40.53,84.7,81.57c6.68,6.47,12.87,13.44,18.76,19.63,6.26-2.29,8.76-6.85,9.68-12.71.9,2.14,1.81,4.27,2.83,6.7Zm790.14,142.74a17.19,17.19,0,0,0,2.23.22c17-.68,34.09-1.42,51.13-2,4.34-.15,7.55-1.42,8.91-6,.49-1.61,1.71-3,2.67-4.46,7-10.61,14.53-20.94,21.06-31.86,8.58-14.35,15.81-29.52,27.09-42.14,2.46-2.75,4.69-5.7,7.53-9.16-9.61,1-18.47,1-26.77,3.17-4.89,1.26-10.14,3.37-13.5,8.91-9.89,16.34-20.68,32.14-31,48.2-2.81,4.36-5.4,8.88-8,13.39-2.26,4-4.34,8-6.5,12,9-29,26.52-53,44.1-78.15-13.32,1.7-25.53,3.19-37.7,4.92a5.14,5.14,0,0,0-3.1,2.78c-7,15.7-13.74,31.49-20.76,47.17-1.27,2.84-3.41,5.28-5.14,7.9l-1.16-.63c7.81-18.55,15.61-37.11,23.76-56.48-10.67,1.53-20.63,2.85-30.53,4.51-1.29.22-2.52,2.07-3.4,3.41-5.45,8.29-9.81,17.53-16.38,24.79-12.81,14.18-16.81,31.82-22.29,49.88,3.84,0,7.44-.07,11,0,6,.14,11.91.58,17.85.45a6.65,6.65,0,0,0,4.4-2.77c3.22-4.56,6.09-9.37,9.5-14.73C1192.56,1000.15,1187.4,1004,1185.43,1009.55Zm136.65-12.4a25.57,25.57,0,0,0,3.24.2c20.62-3,41.22-6.14,61.87-8.89,15.47-2.05,31-3.71,46.51-5.19,4.12-.39,8.37.52,13.2.88,1.16-24,2.29-47.41,3.44-71.24-5.08.46-9.46.78-13.81,1.34A4,4,0,0,0,1434,916c-8.79,15.13-17.36,30.39-26.28,45.44-5,8.43-10.58,16.53-15.89,24.78l-2.12-1.26c1.42-2.51,2.48-5.33,4.32-7.49,6.73-7.92,12.27-16.24,14.18-26.85,1-5.46,3.49-10.78,6-15.79,3.39-6.68,7.5-13,11.44-19.69-4.69,0-9.26.36-13.75-.09-6.13-.62-10.23,1.21-12.22,7.38-.77,2.35-2.38,4.44-3.69,6.6-10,16.31-19.87,32.65-29.94,48.88-2.64,4.26-5.79,8.2-8.7,12.29l-1.79-1.17,43.29-73.48c-9.68.49-17.66,1.09-25.65,1.2-3.64.05-5.74,1.3-7.42,4.51q-10.11,19.29-20.65,38.37c-2.43,4.4-5.4,8.5-8,12.79C1332.2,980.45,1327.34,988.49,1322.08,997.15ZM355.46,756.24c-5-85.55-13.36-169.65-7.56-254.54-12,0-23.53-.85-33.56,7.79,3.92,2.37,7.43,4.14,10.48,6.5,1.32,1,2.64,3.42,2.37,4.9-4.75,26.3-2.17,52.57,0,78.84,1.43,17.46,3.58,34.91,4.07,52.4.71,25.74.19,51.52.35,77.28,0,2,.6,4.58,1.92,5.9C340.28,742.12,347.39,748.61,355.46,756.24Zm935.24,245.5c1.67,1,2.86,2.3,4,2.25a42.44,42.44,0,0,0,8.81-1.39c3.91-1,7.75-2.32,11.57-3.65,1.39-.49,3.35-1.12,3.81-2.21,5.1-12,12.65-22.45,19.54-33.4,6.31-10,9.92-21.77,14.77-32.73,1.87-4.23,3.9-8.4,6.06-13-7.71.38-14.81.56-21.88,1.22-1.38.13-3.1,1.87-3.78,3.28-2.8,5.84-5.17,11.88-7.88,17.76a48.26,48.26,0,0,1-3.59,5.64l-1.25-.64c3-8.37,6-16.75,9.15-25.75h-16.11l-.16-1.25,18.68-4.31-.25-1.25c-7.61.5-15.22.9-22.81,1.63-1,.1-2.08,1.73-2.77,2.87-2.95,4.86-5.56,9.94-8.68,14.69-8.6,13.11-13.72,28.65-26.78,38.69a9.72,9.72,0,0,0-1.87,2.72c-4.62,7.51-9.2,15-13.84,22.54-2.25,3.63-4.6,7.19-7.67,12,12-1.23,22.32-2.2,32.63-3.49,1.33-.17,2.72-1.85,3.63-3.14,9.08-12.92,18-25.92,27.1-38.86a29.35,29.35,0,0,1,3-3.21l1.53,1.14-29.75,43.72Zm-1053-22.28,1.09-1.59c0,2.18-.08,4.37,0,6.54.58,13.56,1.28,27.12,1.76,40.69.41,11.36.23,22.76,1,34.09.38,5.4,1.14,11.5,3.94,15.85,5,7.77,11.4,14.73,17.75,21.52,8.52,9.1,17.56,17.73,26.37,26.56.95.94,1.94,1.84,3.37,3.2,0-1.35,0-2,0-2.56-1.94-28.36-4.17-56.7-5.66-85.09-.46-8.83-2-16.36-9.59-21.76a34.77,34.77,0,0,1-5.35-5.36c-2.45-2.72-4.79-5.55-7.17-8.34l-1.5,1.11c.11,29.47,8.93,58.34,6.4,89.13-.77-4.93-1.57-8.77-1.95-12.65-2.2-22.39-9-44.4-5.31-67.28.49-3.06,0-6.32-.38-9.45-.17-1.5-.61-3.38-1.63-4.3C253.24,992.89,245.45,986.21,237.71,979.46ZM421.88,777.25c29,0,57.26.39,85.51-.11s56.2-1.47,84.25-3,55.9-4.11,83.85-6.22c-27.59,7.3-56.38,5.47-84.33,10.73a10.61,10.61,0,0,0,4.83.84c14.32-1,28.62-2.1,42.94-3,16.37-1.08,32.77-1.75,49.1-3.16,6.91-.59,13.73-2.49,19.61-6.92a18.7,18.7,0,0,0-6.69.28c-2.78.58-5,.46-5.63-3.64,3-.34,5.75-.7,8.52-1,3-.25,6.07-.2,6.18-4-48.14,1.29-96.08,3.2-144,3.67s-96.19-.49-144.11-.82Zm81,276.57c3.22.53,5.7.85,8.15,1.35,9.46,1.94,9.45,2,14.73-6.23.42-.66.84-1.34,1.31-2,12.7-17.52,25.53-35,38.06-52.59,6.44-9.07,12.34-18.54,18.88-28.43-5.09.37-9,.93-12.85.82a7.09,7.09,0,0,0-6.66,3.42q-10,14.15-20.21,28.08c-3.73,5-7.81,9.84-11.73,14.75l-1-.78L560.68,970c-13.36-1.26-25.42,5-37.32.34-6.74,9.69-6.74,9.69-9.51,10.38l5.23-11.44-16.2,1.34Zm573.5-41.24c3.32.19,6,.58,8.72.45a64.57,64.57,0,0,0,10.77-1.21c2.23-.48,5.09-1.35,6.21-3,5-7.42,9.42-15.22,14.15-22.83,8.66-13.92,17.4-27.8,26.08-41.71,1.62-2.61,3.11-5.31,5.32-9.09-6.35,0-11.57.33-16.72-.11a9,9,0,0,0-8.82,3.9c-1.12,1.49-3.1,2.33-5.51,4,.33-2.49.48-3.6.67-5-2.26.29-4.11.55-6,.77-5,.59-10.83-.26-14.72,2.11-4.08,2.48-6.27,8-9.32,12.24-11.5,15.83-23.1,31.59-34.47,47.5-3.12,4.38-5.58,9.22-8.73,14.5,6.09,0,11.1-.06,16.11,0,4.41.07,7.83-1.11,9.93-5.52,1.67-3.53,4.12-6.69,6.23-10l.78.49C1076.85,1004.3,1076.61,1008.54,1076.38,1012.58Zm-434.53,37.08.6,1.76c11-.78,21.93-1.48,32.87-2.48,1.2-.11,2.55-1.75,3.31-3q24.9-40.83,49.64-81.75a34.62,34.62,0,0,0,1.71-3.88c-9.17.59-17.66,1.29-26.16,1.58a6.83,6.83,0,0,0-6.17,3.31c-10.59,15.71-21.46,31.22-31.94,47C657.53,1024.54,649.79,1037.17,641.85,1049.66Zm76.82-2.16c4.79,0,8.7.12,12.6,0,13.09-.46,23.92-5.28,31.1-16.71,6.63-10.55,13.46-21,19.62-31.8,7.4-13,14.19-26.31,22-40.89-4.18,0-6.77-.07-9.36,0-5,.16-10.09.63-15.12.54a7.07,7.07,0,0,0-6.29,3.08C752,987.94,735.3,1017.06,718.67,1047.5ZM694.47,962c-10,0-19.58-.1-29.18.12a5.94,5.94,0,0,0-4,2.54q-23.43,35.9-46.61,72c-3.11,4.85-5.68,10-8.85,15.7a39.54,39.54,0,0,0,5,.34c7.39-.53,14.8-1,22.15-1.86a8.08,8.08,0,0,0,5.1-3.2C656.82,1019.32,675.43,991,694.47,962ZM843.2,957.6l-.85-1.4c-9.44.57-18.88,1-28.3,1.82a6.19,6.19,0,0,0-4,2.71q-22.54,35.87-44.84,71.91c-2.17,3.51-3.84,7.33-5.83,11.19,19.07,2.49,33.16-4.38,43.12-19.73q14.06-21.64,27.63-43.6C834.74,973,838.85,965.24,843.2,957.6Zm-604.55-119,2-.07c.19,3.37.43,6.73.57,10.1.54,13.42.54,26.88,1.69,40.23,1.53,17.6,4.17,35.11,5.87,52.69.63,6.44,4.59,9.79,9.1,13.68a12.12,12.12,0,0,0,.4-1.89q-.78-61.84-1.64-123.71a10.51,10.51,0,0,0-1.25-4.44c-3.71-7.29-7.53-14.52-11.32-21.76-1.18-2.27-2.37-4.53-4.2-8-2.82,6.86-7,12.29-7,17.73-.12,38.84-.26,77.71,3.55,116.45.5,5.07,3.51,7.42,7.18,10.73-1.73-17.7-4-34.46-4.83-51.3S238.65,855.37,238.65,838.56ZM951.81,953.43a55.92,55.92,0,0,0-7.08-.82c-7.42.2-14.85.4-22.25,1a8,8,0,0,0-5.37,2.71q-18.36,25.88-36.31,52.05c-5.21,7.61-10,15.49-15.85,24.57,11.26-1.44,21.08-2.58,30.86-4a8.79,8.79,0,0,0,5.19-3c9-12,17.91-24.08,26.52-36.36C935.64,977.91,943.35,966,951.81,953.43Zm-642.26,52.2c0-3,.07-4.55,0-6.07-1.44-25.23-2.74-50.46-4.39-75.67-1.15-17.61-3-35.18-4.1-52.8-.61-9.8-4.83-17.14-13.12-22.91,0,1.93,0,3.62,0,5.3-.28,27.8-.51,55.6-.86,83.39-.18,14.36-.62,28.72-.78,43.08,0,1.75.48,4,1.63,5.16C294.63,991.77,301.6,998.16,309.55,1005.63Zm-27.74-24.92,2.14-1.05c0-6.9.08-13.8,0-20.7q-.76-57.81-1.63-115.62a5.07,5.07,0,0,0-.77-3.07c-3.63-4.07-7.43-8-11.18-11.95l-1.62.16c-1.25,5.43-3.46,10.85-3.58,16.3-.84,37.91-1.25,75.83-1.72,113.75a6,6,0,0,0,1.28,3.86C270.32,968.58,276.09,974.62,281.81,980.71Zm58.65,55.6,1.89-.64c-1-8.52-2-17-2.87-25.55-.83-8.08-3.28-16.21,1-24.14.68-1.23.47-3.12.26-4.65-1.84-13.44-3.66-26.88-5.75-40.28-.72-4.63-2.21-9.14-3.34-13.71l-1.25.27c-2.38,21.89,1.86,43.57,1.74,65.5-6.72-35.16-9.42-71.2-22-106.32-.72,2-1.35,2.92-1.34,3.85,0,7.43,0,14.86.36,22.28.64,15.46,1.68,30.91,2.13,46.37.43,14.54.26,29.09.49,43.63,0,2,.21,4.53,1.4,5.76,6.92,7.12,14.15,13.93,21.52,21.07l.63-1.92Zm424.06-74.47-1.09-1.65c-4.87,0-9.81.49-14.61-.11-6.52-.83-10.62,1.81-14,7.08-14.18,22.37-28.54,44.63-42.74,67-2.92,4.59-5.47,9.4-8,13.78,9,0,17.7.14,26.35-.13a6.42,6.42,0,0,0,4.34-2.84c11.28-18.44,22.4-37,33.54-55.49,2.46-4.09,4.81-8.24,7.21-12.35l-1-.89-4.68,3.55-.84-.72Zm-107.47-.14c-8.34.5-15.21.8-22,1.43a6.27,6.27,0,0,0-3.75,2.37c-21,26.72-40.12,54.69-55.63,85-.54,1-.85,2.21-1.46,3.8,7.83,0,15.07.17,22.3-.13,1.46-.07,3.32-1.58,4.19-2.93q15.92-24.66,31.54-49.49C640.31,988.85,648.28,975.84,657.05,961.7Zm248.35,66.45c9.31-.59,17-1.43,24.69-1.46,6.87,0,11.47-2.45,14.22-9,1.45-3.43,4-6.42,6.12-9.55q18.8-27.57,37.63-55.12a25.4,25.4,0,0,0,1.58-3.62c-9.62.67-18.42,1.12-27.18,2-1.71.17-3.69,1.68-4.8,3.14-9.19,12-18.43,24-27.2,36.4C922,1002.92,914.08,1015.23,905.4,1028.15Zm-341.95,142.5c3.67.32,6.74.9,9.79.8,6.31-.21,12.64-.53,18.89-1.35a8.93,8.93,0,0,0,5.33-3.57c3.85-5.39,7.2-11.13,10.88-16.65,9.08-13.67,18.28-27.26,27.33-41,1.42-2.15,2.3-4.67,3.71-7.63-9.45,0-18.09-.26-26.7.17a10.48,10.48,0,0,0-6.7,3.68c-7,8.72-13.79,17.68-20.47,26.68C576.85,1143.49,568.47,1155.35,563.45,1170.65ZM1105.9,1011l1,1.18c4.34-1,9,2,13.22-1.84.59-.54,2.56-.09,3.6.46,4.72,2.52,13.69.35,16.28-4.29,7.8-13.92,15.43-27.94,23.26-41.84,5.94-10.55,12.09-21,18.17-31.51-9.14.82-18.53,1.61-27.9,2.57a4.16,4.16,0,0,0-2.38,1.87q-13.31,19.62-26.5,39.29c-1.67,2.49-3.63,4.82-5.08,7.43-3.42,6.19-6.64,12.5-9.89,18.79C1108.38,1005.73,1107.17,1008.4,1105.9,1011ZM830,1035.52a75.73,75.73,0,0,0,28.65-2.94c1.32-.37,2.55-1.81,3.37-3q19.31-28.93,38.45-58c3.42-5.19,6.54-10.58,10.25-16.62-6.52,0-12,.41-17.48-.11-5.67-.54-9.43,1.38-12.65,6-12,17.2-24.39,34.11-36.32,51.36C839.2,1019.53,834.93,1027.4,830,1035.52Zm114.84-12.91,1,2.2c10.36-1.36,20.73-2.66,31.07-4.18,1-.14,2-1.47,2.62-2.45,10-14.93,20.11-29.82,30-44.86,5.56-8.49,10.71-17.25,16-25.88l-1-1.25c-8.57.78-17.64.11-25.51,2.87-4.83,1.7-7.8,8.67-11.6,13.28-.4.49-.81,1-1.17,1.49ZM341.77,1179.75c0-1.39.07-3,0-4.71-1.51-29.19-3.43-58.37-4.32-87.58-.29-9.44-2.65-16.64-10.4-22.17-3.44-2.46-6.2-5.85-9.31-8.77-.82-.77-1.79-1.38-3.11-2.39,0,1.34,0,2,0,2.59,1.57,30.45,3.46,60.88,4.59,91.35.58,15.49,12.62,22.52,21.45,32.06C340.7,1180.18,340.94,1180,341.77,1179.75ZM1106,1133.3c10.74-.8,21.23,3.23,28.89-6.82.9-1.17,3.55-1.07,5.42-1.41,1.57-.3,4.08.19,4.64-.66,3.58-5.53,7.39-11.07,9.92-17.11,5.46-13.08,10.19-26.48,15.24-39.74.53-1.38,1.16-2.73,1.5-3.51-9.48,0-18.63-.12-27.77.14-1.24,0-2.88,1.69-3.57,3-10.47,20-20.8,40.09-31.17,60.15ZM877.22,956.79c-8.16,0-15.22-.15-22.26.12a6.94,6.94,0,0,0-4.91,2.43q-26.34,39.27-52.36,78.75a10.75,10.75,0,0,0-.73,2.5c9.28-1.14,18-2.13,26.72-3.4,1-.16,2-1.79,2.7-2.91,8.54-13.62,16.78-27.42,25.58-40.87C859.88,981.3,868.37,969.56,877.22,956.79Zm226.31,122q-21.32,27.43-42.66,54.9l.91,1.24c1.52,0,3,.08,4.57,0,10.08-.6,20.15-1.45,30.25-1.76,3.73-.12,5.63-1.6,7.21-4.75,5.49-11,11.22-21.9,16.82-32.85,4.57-8.92,9.09-17.87,13.64-26.8l-.74-1.48c-9.23,1.48-18.47,2.86-27.67,4.52-1.79.32-3.39,1.69-5.08,2.57ZM931.43,1088c-20.79-2.59-37.57,2.14-49,18.56-9.33,13.36-17.42,27.59-26.24,41.71,9.81,0,19.41.11,29-.12,1.35,0,3-1.46,3.94-2.67,6.91-8.83,13.82-17.67,20.45-26.7C916.8,1108.89,923.76,1098.81,931.43,1088Zm-638.9-57.16-1.28.92a7.23,7.23,0,0,0-.17,1.37q3.27,46,6.59,92.07c.19,2.65-.06,5.93,1.37,7.78,4.85,6.26,10.36,12,16.12,18.53,0-5.82.12-10.66,0-15.5q-1.15-40.23-2.46-80.47c-.06-1.79-.47-4-1.59-5.24C305.06,1043.65,298.75,1037.28,292.53,1030.82ZM222.88,1054l-.8.06c-.4-1.61-.79-3.22-1.19-4.83-3.59-14.46-3.28-29.08-2.27-43.8a176.25,176.25,0,0,0,0-20.3c-.47-10.07-1.32-20.12-2-30.18-.07-.92,0-2.09-.52-2.71-5.7-6.8-11.5-13.5-17.27-20.23l-1.49.61c1.43,10.43,3.64,20.82,4.15,31.3,1.34,27.86,1.93,55.77,2.89,83.65a5.3,5.3,0,0,0,1.19,3.35c7.57,7.45,15.26,14.79,22.92,22.17l1.5-1.16c-1.21-2.8-2.48-5.58-3.6-8.42a14.43,14.43,0,0,1-1.36-4.79c-.06-3.31.31-6.62.5-9.94h-1.06Zm492.94,45.54c-8.44,0-15.64-.11-22.83.11-1.1,0-2.34,1.43-3.18,2.46-9.66,11.89-19.35,23.75-28.83,35.78-7.22,9.16-14.13,18.55-21.61,28.4a28.18,28.18,0,0,0,4.56.6c8.8-.54,17.61-1.08,26.4-1.88,1.07-.1,2.18-1.61,3-2.69,6-8.34,12.06-16.63,17.79-25.14C699.25,1125,707.16,1112.71,715.82,1099.51Zm267.21-79c6.94-.59,12.72-1.67,18.43-1.39,5.34.27,8-1.82,10.83-6.11,14.73-22.06,29.91-43.82,44.92-65.69a30,30,0,0,0,1.49-2.8c-3.55,0-6.48-.1-9.41,0s-6,1-9,.59c-4.07-.52-6.43,1.23-8.62,4.26-10.19,14.07-20.72,27.88-30.63,42.14C994.82,1000.57,989.42,1010.2,983,1020.53ZM817.72,1149.71l1.44.91c4.22-.28,8.61-1.46,12.63-.68,11.4,2.19,18.48-3.49,24.45-11.92l.28-.38c10.87-13.91,21.78-27.79,32.53-41.8.8-1,1.05-3.46.38-4.39s-3-1.43-4.29-1.07c-7.55,2.14-15.06,3.29-22.89,1.56-1.12-.25-3,1-3.93,2.14-5.67,7.18-11.3,14.39-16.67,21.8C833.55,1127.07,825.69,1138.43,817.72,1149.71Zm33.45-55.37c-8.65,0-17-.07-25.31.07a5,5,0,0,0-3.57,1.54c-9.06,11.71-18.22,23.37-26.86,35.39-4.78,6.66-8.63,14-13.32,21.66,2.69.33,3.94.7,5.14.6,8.16-.7,16.32-1.44,24.45-2.36,1-.11,2-1.29,2.64-2.21,6.06-8.43,11.84-17.07,18.11-25.35C839.58,1114.26,847,1105.07,851.17,1094.34Zm-510.36-16.69-1.54.66c.41,4.55.86,9.09,1.22,13.64q3.64,47.21,7.3,94.42c.1,1.36.19,3.13,1,4,5.44,5.36,11.09,10.51,17.38,16.39,0-2.88.14-4.57,0-6.24-3.25-34.28-6.61-68.56-9.71-102.86-.43-4.75-2.52-7.52-6.66-9.32a9.44,9.44,0,0,1-3.74-2.61C344.12,1083.15,342.54,1080.34,340.81,1077.65Zm745.84-135-1.17-1.11c-2.84.54-5.73.89-8.52,1.64-15.7,4.25-25.68,15.51-33.88,28.54-7.8,12.4-14.95,25.21-22.43,37.81-1.48,2.48-3.14,4.85-5.37,8.27,6.68-.62,12.14-1.41,17.61-1.55,4.9-.12,7.37-2.74,9.85-6.58,8.46-13.11,17.18-26,26-38.87,4.39-6.33,9.59-12.11,13.94-18.47C1084.65,949.58,1085.38,946,1086.65,942.7ZM814.27,1094.62c-16.91-1.39-28.82,5-37.53,16.81-6.59,9-11.89,18.92-17.83,28.39-3.45,5.52-7,11-10.74,16.68,13.2,1.48,25.42-.14,33.84-10.79,10-12.7,19.15-26.18,28.27-39.58C812.35,1103.1,812.82,1099,814.27,1094.62Zm364.29,27.21c10.43,0,20.32,0,30.21-.07a3.51,3.51,0,0,0,2.62-1.53c3.66-7.33,7.49-14.61,10.63-22.17,3.74-9,6.81-18.28,10.28-27.4,1.16-3,2.68-6,4.31-9.52-7.2,0-13.62-.1-20,.11a4.72,4.72,0,0,0-3.15,2.19q-12.53,20.34-24.81,40.81C1185.08,1110.14,1181.78,1116.17,1178.56,1121.83ZM1396.71,837c-.19.45-.38.9-.58,1.34q-37.23-10.61-74.46-21.25c-3.19-.92-5.83-1.39-6.89,3.79l116.37,26.22c.13-.48.27-1,.41-1.45-20.9-13.83-44.48-22-67.4-31.65l7.82,1.76.25-1.2-40.44-21-12.3,19.3ZM606.31,963.61c-5.91.67-10.26,1-14.56,1.75a5.37,5.37,0,0,0-2.8,2.18c-13.48,17.88-27.14,35.63-40.26,53.77-7.81,10.8-14.74,22.23-22.87,34.59,5.76,0,10,.29,14.13-.14a8.11,8.11,0,0,0,5.24-2.87c13.51-18.83,27-37.69,40.14-56.77C592.46,985.78,599,975,606.31,963.61ZM1149,1125.71c7.12-.67,14.63-1.3,22.12-2.18.93-.12,2-1.44,2.52-2.45q15.16-27.55,30.21-55.19c.62-1.13,1-2.37,1.84-4.29-9.52.42-18.18.67-26.81,1.32a5.82,5.82,0,0,0-3.87,3.1C1166.34,1085.72,1157.81,1105.51,1149,1125.71Zm-542.79,43.54c7-.36,13.47-.56,19.87-1.08,1.64-.14,3.8-.85,4.7-2.06,11.56-15.6,23.07-31.25,34.29-47.11,4.13-5.86,7.44-12.3,11.74-19.48-5.14,0-9.06.14-13,0-4.32-.2-7.23,1.42-9.94,5-8.23,10.8-16.91,21.25-25.41,31.84C620.26,1146.62,612.07,1157,606.25,1169.25Zm74-6.85.85,1.55c8.13-.82,16.25-1.58,24.36-2.52a4.23,4.23,0,0,0,2.52-1.78c10.53-14.75,21.13-29.46,31.4-44.39,3.59-5.22,6.32-11,10-17.54-6.22.46-11.09.63-15.9,1.27a8.32,8.32,0,0,0-4.78,2.53c-10,11.61-20,23.19-29.52,35.12C692.57,1145,686.58,1153.79,680.3,1162.4Zm36.88-2.27c8.1-.74,15.29-1.29,22.45-2.18,1-.13,2-1.74,2.84-2.83,4-5.49,8-11,11.81-16.56,7.84-11.43,15.65-22.89,23.3-34.46,1.49-2.25,2.18-5,3.31-7.71a9,9,0,0,0-2-.47c-7.5.75-15,1.5-22.47,2.35-.62.07-1.27.81-1.71,1.39-3.08,4-6.23,8-9.1,12.1-1.8,2.62-3.17,5.55-4.73,8.34l1.48,1c2.15-2.55,4.44-5,6.41-7.69s3.8-5.83,8.09-5.92c-6.29,8.93-13.06,17.4-20,25.7S722.51,1149.43,717.18,1160.13ZM550.26,1053.26l.81,2c5.32-.54,10.63-1,15.93-1.69.54-.06,1-1.15,1.42-1.81,12.87-19.66,25.88-39.23,38.54-59,6-9.38,11.36-19.17,17-28.76-6.13-3.65-7-3.68-10.45.93-12.3,16.2-24.76,32.29-36.63,48.8C567.6,1026.57,559.1,1040,550.26,1053.26Zm547.92,20.82-1.29-1c-3.6,0-7.19,0-10.78,0a11.43,11.43,0,0,0-9.7,4.64c-8.08,10.29-16.7,20.15-24.88,30.35-7.66,9.54-15,19.32-23.15,29.8,7.68-.66,14.08-1,20.42-1.86a9.58,9.58,0,0,0,5.71-2.78c5.83-7,11.5-14.21,16.89-21.59C1080.46,1099.21,1089.27,1086.61,1098.18,1074.08ZM382.63,677.34c3.28-65.59-4.84-131.14,2.36-197.61-9.79,8.82-9.89,8.81-10.72,20.2C371.92,532,373.18,564,375.47,596c1.47,20.61,3.59,41.18,5.42,61.78Q381.75,667.56,382.63,677.34Zm-170.09,89.8a10.17,10.17,0,0,0-.56,2q.5,42.2,1.05,84.39a11.05,11.05,0,0,0,.77,4.16c5,11.74,10.19,23.44,15.33,35.14.05.12.51,0,1.22.11-.63-7-1.11-13.91-1.89-20.79-3.33-29.56-6.08-59.13-4.31-88.93.08-1.35.14-3.13-.6-4C220.16,775.18,216.47,771.39,212.54,767.14Zm804.71,314c-6.86-.59-13.66.45-19.74,4.09a99,99,0,0,0-11.3,8.56c-.84.7-1.19,2-1.67,3.14-2,4.56-3.36,9.52-6.07,13.59-3.12,4.68-7.42,8.57-11.2,12.8-5.1,5.7-10.16,11.42-12.71,20.58,6.24-1.48,11.56-2.15,16.43-4,11.16-4.28,18.23-13.3,24.37-23C1002.78,1105.24,1009.83,1093.32,1017.25,1081.17ZM912.65,747.34c-1.1-.06-2-.2-3-.16-15.6.77-31.23,1.28-46.81,2.45-12.17.92-24.58-1.09-36.5,3-.86.3-2.08-.73-3.11-.68-3.58.19-7.44-.15-10.63,1.12s-5.8,2.06-8.82,0a7.07,7.07,0,0,0-3.45-1.24c-10.41-.36-20.83-.9-31.25-.76-5.94.08-11.92,1.15-17.91,5.87,5.53-.42,9.76-.73,14-1.08,9.75-.79,19.5-1.66,29.26-2.36,1.45-.1,2.95.58,4.42.9-.52,1.33-1.08,2.65-1.55,4a4.45,4.45,0,0,0,0,1.37,5.37,5.37,0,0,0,1.42.41c35.52-.82,71-1.56,106.56-2.61,8-.24,8-.76,7.79-8.88A6.89,6.89,0,0,0,912.65,747.34ZM897.18,1145l1.24,2c5.76-.61,11.55-1,17.25-1.94a9,9,0,0,0,5.16-3.16c5.5-7.12,10.78-14.41,16-21.72,7.87-11,15.64-22.08,24.26-34.26-3.85-.82-6.1-1.82-8.25-1.66-13,1-16,2.76-23.7,13.86-2.16,3.1-4.07,6.38-6.09,9.58l.93.63,12.26-12.57,1.48,1.44Zm410.38-315.68c.9.31,1.76.68,2.65.91,35.22,9.19,70.53,18.09,105.63,27.74,9.93,2.73,18.89,0,28.27-1.4a10.11,10.11,0,0,0-3.09-1.36q-60.55-16-121.11-31.88C1312.11,821.29,1311.74,821.55,1307.56,829.33Zm-831,395.88c1-1.55,1.33-1.9,1.4-2.31.32-1.86.48-3.75.81-5.61a410.2,410.2,0,0,0,6.28-83c-.93-36.93-2.45-73.84-3.66-110.77-.17-5.25,0-10.51,0-15.76h-2.12C478.36,1079.82,477.47,1151.88,476.56,1225.21Zm449.07-80.39c6.15,0,10.74.3,15.26-.14a9,9,0,0,0,5.79-3c10-13,19.88-26.06,29.46-39.35,4.35-6,7.94-12.63,12.26-19.6-3.4,0-5.8.28-8.11-.07-4.13-.61-6.48,1.22-8.89,4.43-7.2,9.57-14.8,18.84-22.26,28.22S934.07,1134.25,925.63,1144.82Zm518.25-110.26c-1.13.27-2.76.22-3,.77-9.53,22.21-24.53,41.69-33.62,65.46,9.6-2.39,17.77-4.86,26.11-6.35,5.32-.94,6.21-3.66,6.5-8.35C1441,1069,1442.48,1052,1443.88,1034.56Zm-1116.42-304,1.45-.47a33.69,33.69,0,0,0,.25-3.62c-.65-19.07-1.17-38.16-2-57.22-.91-19.86-2.13-39.7-3.28-59.55q-1.29-22-2.81-43.91c-.09-1.36-1.16-2.65-1.78-4l-1.78.63c0,1.67,0,3.35,0,5,.82,32.35,1.3,64.71,2.61,97,.8,19.68,2.8,39.32,4.5,59C324.79,725.87,326.46,728.18,327.46,730.54Zm50.38,351.75a16.93,16.93,0,0,0,.38-2.61q-1.29-19.38-2.66-38.77a12.43,12.43,0,0,0-1-3.59c-1.68-4.22-3.8-8.29-5.09-12.62-2.44-8.16-4.36-16.47-6.64-24.68-.26-.92-1.44-1.57-2.2-2.35a14.88,14.88,0,0,0-1.27,2.72,11.11,11.11,0,0,0-.07,2.83c.52,20.58,1,41.15,1.64,61.72a6,6,0,0,0,2,3.51C367.61,1072.92,372.41,1077.27,377.84,1082.29Zm426.52-481,.26-.17c-.42-17.43-.48-34.89-1.42-52.29-.51-9.59-2.62-19.08-3.82-28.64-1.45-11.59-2.73-23.2-4-34.81a24.67,24.67,0,0,1,.51-5.16l1.61-.26c1,2.42,1.9,4.84,2.92,7.42,2-3.46,3.45-7.12,5.9-9.86,4.28-4.78,3.1-9.63,1.73-15.36-4.47,3.12-8.51,5.85-12.46,8.7-2.75,2-5.4,3.76-8.79-.33-.74,2.4-1.19,4.2-.91,5.89,3.53,21.32,7.52,42.58,10.7,64C799.63,560.61,801.81,581,804.36,601.28Zm-434.56,12c0,19.28-.25,37.27.06,55.24.42,24.16,2.14,48.22,8.17,71.74,1.52,5.92,3.48,11.73,5.23,17.59l1.18-.35C379.59,709.72,374.75,662,369.8,613.25ZM575.2,442.79c-8.71-1.47-17.23-3-25.79-4.3a44.82,44.82,0,0,0-10.34-.48c-26.54,2.36-53.08,4.74-79.58,7.44-9.48,1-18.86,2.85-28.29,4.31.06.43.11.87.16,1.3Zm-212.84,670-1.25.14c.46,4.35.91,8.71,1.39,13.06q4.54,41.13,9.17,82.24c.18,1.57,1.16,3.06,1.77,4.58l1.32-.37v-4.67l8.76,7.16C380,1179.62,370.73,1146.32,362.36,1112.83Zm136.39-23.32h-1.47c-.76,6-2,12-2.2,18-.7,20-1.07,40.11-1.45,60.17a21.41,21.41,0,0,0,1.06,7.43,5.74,5.74,0,0,0,3.64,3c.74.17,2.6-1.73,2.89-2.95a51.83,51.83,0,0,0,1.67-11.17c.09-7.57-.6-15.15-.42-22.72.17-7.37.47-7.37-4.93-8.53,1.56-7.13,3.74-14.17,4.5-21.36A44.56,44.56,0,0,0,498.75,1089.51Zm835.41-421.25c-5.48-11.52-9.61-14.92-21.07-19.93-14.46-6.32-28.83-12.86-43-19.75-13.49-6.55-26.69-13.68-40-20.53-1.41-.72-2.91-1.28-4.36-1.92-.37.73-.73,1.46-1.09,2.18C1261,628.46,1297.73,648,1334.16,668.26ZM531.56,1103c-8.91-1.25-16.45.08-21.22,7.82-6.41,10.38-5.13,21.45-2.28,32.62C515.64,1129.87,528.14,1119.3,531.56,1103ZM1455.19,794.5c1.06-12.84,2.08-25.33,3.12-37.91l-10.92-3.66c-1.55,9.74-3.12,18.86-4.42,28C1442.08,787.25,1447.57,793.56,1455.19,794.5ZM206.18,824l1.93-.31c0-17.67-.87-35.4.34-53,.69-10.1-6.09-13.68-11.62-19.07Q201.51,787.84,206.18,824Zm768.17,326.88c-8.93-9.08-50.47-3-56.07,7.94ZM215,885c0,7.43,0,13.67,0,19.92,0,2-.66,4.73.37,5.93,5,5.88,10.54,11.35,16.7,17.84-.16-9,.12-16.31-4.86-23C222.7,899.54,219.4,892.54,215,885ZM548.17,1180.6c-10.22,0-20.16-.67-30,.18-11.37,1-10.52-1.9-9.83,11.37,5-.78,10.09-1.7,15.19-2.29,4.2-.49,8.5-.28,12.67-.91C541.32,1188.18,546.46,1187,548.17,1180.6Zm778.77-132.39,22.12,3.77c2.71-4.52,5.56-9.29,8.61-14.37-6.39,0-12-.14-17.62,0C1330.94,1037.91,1329.77,1039,1326.94,1048.21ZM294.86,619.87l1.81-.14V515.53c-5.21-1.13-7.78,1.5-5.43,7.13,3.77,9,3.15,18.25,3.06,27.53-.2,18.47-.6,36.93-.69,55.4C293.59,610.35,294.42,615.11,294.86,619.87Zm203,375.33c-4,11.33-4.64,61.17-1.06,70.27C501.88,1041.71,499.45,1018.43,497.87,995.2ZM1417.71,775c5.29.15,8.49-1.54,8.68-6.14.36-8.73-.41-17.51-1-26.25,0-.76-2-2-3-1.92a3.61,3.61,0,0,0-2.51,2.38,75.42,75.42,0,0,0-1,9.4C1418.51,760,1418.13,767.46,1417.71,775ZM486.57,1041h1.22c.69-5.54,1.79-11.08,2-16.64.61-17.65.77-35.32,1.38-53,.12-3.58-1.73-3.69-4.59-4.15ZM408,766.82l-5.46-3.25c-.64,2.28-1.79,4.56-1.82,6.85,0,3.08.81,6.18,1.17,8.58l14,4.22c-.34-7.85-.66-15.17-1-22.44C410.59,760.37,410.59,760.37,408,766.82Zm514-32.54c2.44-1.11,4.36-1.45,4.48-2.12.61-3.46.78-7,1.07-10.52a13.93,13.93,0,0,1,.13-3c.45-1.38,1.58-2.58,1.88-4,1.67-7.72,3.28-15.45,4.68-23.21.55-3,.52-6.19.78-9.54h-5C927.41,699,924.82,716,922,734.28ZM1434.47,748c-.57,4.6-1.15,8.8-1.6,13-.56,5.14-1.27,10.28-1.4,15.44-.1,3.62,1.61,6.49,5.44,7.43,1-6,2.06-11.68,2.73-17.43a112.36,112.36,0,0,0,.82-14.55C1440.4,748.29,1438.48,746.33,1434.47,748Zm-621-281.07c10.73-8.4,21.57-16.88,32.22-25.23-3.54-1.94-6.79-.69-10.1,1.68-6.29,4.5-12.73,8.79-19.15,13.1C810.77,460.25,810.69,460.44,813.49,466.88Zm6.66,169.8,1.55.47c.53-1.21,1.59-2.46,1.52-3.63-.83-12.61-1.84-25.21-2.78-37.81q-.69-9.29-1.35-18.58l-2.06-.2c-.4,2.32-1.25,4.66-1.12,7,.36,6.77,1.14,13.52,1.69,20.29C818.47,615,819.3,625.85,820.15,636.68Zm577.54,124.64q1.35-15.27,2.71-30.63l-1.14-1.21c-1.47,1-3.93,1.72-4.25,3-1.78,7-3,14.16-4.49,21.24C1389.43,758.82,1391.83,761,1397.69,761.32Zm-1026.3,345.9c3.77,12.53,7.4,24.61,11,36.69l1.53-.24c-.53-6.64-1.57-13.29-1.47-19.93C382.62,1115.55,378.8,1110.52,371.39,1107.22Zm28.29-7-3.36-84.89-1.69.08C393.7,1043.79,397.6,1071.94,399.68,1100.24Zm980.76-348c.75-7.11,1.59-14,2.16-20.88.34-4.15.23-8.31-3.7-11-1.48,7.39-2.94,14.32-4.24,21.28C1373.58,747.43,1375.34,750.57,1380.44,752.25ZM912.1,1152.11c-5.32,0-10.54-.5-15.59.21-2.53.35-4.85,2.79-7,4.59-.27.22,1.1,3.47,1.69,3.46,5.28,0,10.65,0,15.79-1C910.14,1158.71,912.83,1156.25,912.1,1152.11Zm-677.91-133.7c0-15.24-.09-29.28.05-43.32,0-5.07-3.64-7.21-6.88-10.43Zm610,145.95c19.65.4,29.94-1.77,32.91-7.13-6.45,2.88-12.71,2-19.06.52C851.3,1156.2,848.21,1157.74,844.2,1164.36Zm408.24-117.69c0,.58.07,1.17.1,1.75,1.15.11,2.3.3,3.45.3,9.92,0,19.85-.22,29.77,0,4.09.11,5.89-1.78,7.29-5.78Zm-67.43-5-.13-1.34c-17.74,1.85-36,.16-53.7,7.48,1,.79,1.26,1.14,1.45,1.11Q1158.82,1045.29,1185,1041.64Zm111.42,7c7.06,0,13.83-.21,20.57.07,3.88.17,5.19-1.84,6.26-5.66-6.85,0-13.25.25-19.62-.09C1299.66,1042.79,1297.38,1044.1,1296.43,1048.68ZM497.9,1203.85c-5.43,5.07-5.82,17.47-.72,22.61C502.24,1220.39,502.65,1207.6,497.9,1203.85ZM321.09,723.1c-1.41-12.65-2.71-24.38-4-36.11,0-.36-.37-.69-.56-1l-1.24.07c0,9.48.19,19-.09,28.46C315,718.6,316.86,720.85,321.09,723.1Zm483.21-217c7.42-8.68,8.77-14.27,5.38-24C805.16,489.74,799.5,496.42,804.3,506.1ZM635.17,1174.42c3.53.22,7.06.55,10.6.64a111.32,111.32,0,0,0,14.15,0c2.23-.23,4.29-2.09,6.44-3.2l-.69-1.43C655.41,1170.81,645,1169.41,635.17,1174.42Zm-140.24,8.65c.54,5.46-2.43,11.25,1,17,4.61-2.88,10.06-11.11,8.32-13.77-1.35-2.09-5.43-2.4-8.31-3.48C495.79,1182.75,495.61,1182.87,494.93,1183.07Zm912.61-276.54.83,1.21c6.29-.29,12.57-.76,18.86-.8,4.6,0,6.8-2.33,7.73-6.67-8,1.14-16,2.14-23.85,3.47C1409.8,904,1408.72,905.56,1407.54,906.53ZM879.48,1196.37c-12.76-1.73-32.51,1.1-37.39,5.27C854.94,1200.23,867.65,1201.52,879.48,1196.37Zm-205.93-23.46c17.53,1.89,23.6.63,25.94-5.25-4.82,0-9.62,0-14.42,0C680.66,1167.68,676.3,1167.84,673.55,1172.91Zm518.58-251.25c-10.66,0-21-.15-31.25.16-1.57,0-3.09,2.17-4.63,3.34l1,2Zm-801-439.79c-4.24,6.92-4.73,28.44,0,33.18ZM846.64,739.1l.2-1.2c-3.88-1.5-7-5-12.25-2.82-1.18.5-3.91-1.17-5.12-2.55-1.9-2.18-3.12-5-4.63-7.48a50.18,50.18,0,0,0,2.29,12.31c.32,1,1.78,2.44,2.71,2.44C835.44,739.76,841,739.37,846.64,739.1Zm148.24,400.34c7.9,1.38,14.77,1.33,20.86-3,1.33-1,1.62-3.36,2.4-5.1l-1.23-.93C1011.42,1137.37,1000.82,1131,994.88,1139.44ZM539.19,435.8l-.18-2.12c-17.76.4-35.18,4.25-52.7,7ZM808.26,525c6.14-6.21,6.12-13.55,4.1-21.49C806,509.67,804.71,516.76,808.26,525Zm603.55,212.46c-1.1,10.34-5.49,20.84.2,31.09C1411.25,758.24,1416.27,747.84,1411.81,737.49ZM759.93,1172.33c-8.19,2.3-17.43-2.1-25.67,3.69C741.7,1179.8,755.54,1177.83,759.93,1172.33ZM1215,587a100.23,100.23,0,0,0,.13,10.93c.15,1.37,1.87,2.57,2.87,3.84,1.23-1,3.22-1.75,3.52-2.95a25.92,25.92,0,0,0,.4-7.83C1221.63,587.07,1219.58,585.37,1215,587Zm-60.87,334.67c-7.08.55-14.73-2.44-19.5,5.7,4.73,0,9.13-.2,13.5.05C1151.83,927.68,1153.62,926.1,1154.08,921.71ZM971,1030.3c-7.15-4.73-22.41-3.38-28.85,2.74ZM761.63,1207c0,.75,0,1.5,0,2.24l32.82-2.67C783.3,1200.74,772.6,1207.36,761.63,1207ZM914.69,740.91l-1.29-1.73c-7.16,2.68-15.83-1-22.06,5.83a168.36,168.36,0,0,0,20.13-1C912.65,743.88,913.62,742,914.69,740.91ZM649.82,1103.73l-1.68-1.4a57.62,57.62,0,0,0-17.64,23.46l1,.74ZM196.79,972c0,24.32,0,48.64.11,73,0,1.36,1.51,2.7,2.31,4C195.13,1023,199,997.38,196.79,972ZM731,1167.15c-8,.44-16.62-3.48-23.45,3.51C715.37,1169,724,1172.93,731,1167.15ZM1450.11,905c.29-2.15.57-4,.78-5.86a19.68,19.68,0,0,0,0-2.31c-11.11,1.47-11.17,1.74-11.27,9Zm-45.12.71c-.17-.37-.34-.74-.52-1.11l-31.27,4.06.21,1.65c9.23-.69,18.46-1.3,27.67-2.18C1402.45,908,1403.69,906.52,1405,905.68ZM764.57,1164.43c-8.07,1.42-16.82-1.85-24.34,3.28C748.45,1167.35,757.18,1170.49,764.57,1164.43Zm280-341.32c.42-.42.84-.84,1.25-1.27-4.3-5.88-7.3-13.25-16-14.17l-1.3,1.47Zm327-105.06-1.32-.13-2.56,25.92,1.24.12C1373.21,735.63,1373.35,726.93,1371.65,718.05ZM816.36,538.52c-7.21,5.81-4.54,11.8-3.61,18.1C820,551.64,815.61,545.32,816.36,538.52ZM194.69,928.85c-.52-6.88-5.82-10.46-8-15.82l-1.51.63c1,4.79,2.08,9.59,3.12,14.34Zm803.77,98.56c-7,1.57-14.84-3-21.31,2.51C984.21,1028.51,992,1033.35,998.46,1027.41ZM815.7,576c5.68-5.44,1.24-11.61,2.29-18.53C810.32,563.8,815.8,570.16,815.7,576ZM505.12,1096.71c.47,4.78-2.64,9.67,1,14.42C512.59,1104.57,512.2,1098.91,505.12,1096.71ZM353.94,502l-2.91-.2-1.65,28.52,1.32.08ZM814.17,523.1c-5.83,5.54-6.53,8.53-3.64,15.1C815.63,534.13,816.15,529,814.17,523.1ZM1452.46,822c4.75-8.78,3.47-11-7.49-12.17ZM672.11,1116.29l1.61,1.39,11.42-15.54-1.66-1.24C677.3,1104.2,675.13,1110.57,672.11,1116.29ZM1227.56,591.7v7.12l14.16,1,.17-1ZM938.2,745.92c-7.5-.67-8.58.79-7.35,9.46C936.33,755.57,936.48,755.38,938.2,745.92ZM940,731.69c-.55-3.27-.85-5.93-1.51-8.49a3.15,3.15,0,0,0-2.09-2,2.77,2.77,0,0,0-2.18,1.66c-.56,3-.78,6.13-1.18,9.72Zm87.8,294.75c-6.68.55-13.9-3.53-20,1.83C1014.42,1027.7,1021.47,1031.21,1027.78,1026.44ZM777.89,1164.37c7.51-.66,15.29,1.44,22.51-2.1C792.83,1162.25,785,1160,777.89,1164.37ZM516.47,1059.58c-3.76-.19-7.27-.5-10.79-.47a3.54,3.54,0,0,0-2.4,1.79c-.28.49.23,1.81.78,2.31C507,1065.91,514.35,1064,516.47,1059.58Zm474.76,88.47c-2.84-5.83-8.23-5-16.08,2.33ZM373.77,754.4l1.49-.34q-2.06-9.52-4.1-19l-1.55.36C370.9,741.73,368.06,749,373.77,754.4Zm341.42,421.45-11.34-.92c-.28.59-.57,1.18-.86,1.77,1.31,1.11,2.46,2.62,4,3.24C710.16,1181.23,713,1180.39,715.19,1175.85ZM1043.8,1141c-6.68,3.39-14.71-2.8-21,3C1029.92,1144.09,1037.34,1146,1043.8,1141Zm-257,29.73c-15.23,1.35-15.23,1.35-17.27,4.4C775.46,1174.33,781.52,1177.32,786.79,1170.76ZM481.44,940.37l.51,2.23,14.37-2.27-.27-1.72C491.07,938.44,485.8,936.31,481.44,940.37ZM918.13,756.29c5.94,0,7.25-3,5.53-10C917.05,747.19,920.71,752.84,918.13,756.29Zm-408,466.41,12.23.71c.1-.43.2-.87.29-1.31L510.13,1217Zm567.05-449.44c5.46,3.67,10.21,0,15-.23C1087.42,771.4,1082.66,768.68,1077.18,773.26Zm278.92-59.07,7.8,2.44c.41-1.18.85-2.47,1.46-4.22l-8.21-4C1356.67,711,1356.37,712.68,1356.1,714.19ZM816.33,1160.06l.22,1.66c6.16-.22,12.47.57,18.22-2.4-.06-.44-.11-.89-.17-1.34Zm521-248.11c0,.53.05,1,.08,1.57l27-2.69c-.05-.46-.1-.93-.14-1.39ZM499.43,1074.83c-5.51-1.74-4.7,2-5,4.53-.22,2.16.54,4.13,3.06,3.34C502.33,1081.19,498.7,1077.54,499.43,1074.83ZM727,1177.92c-1.2-4.42-4.19-5.46-8.34-3.3-.72.38-1.19,1.26-1.78,1.91.75.67,1.49,1.9,2.25,1.91A78.74,78.74,0,0,0,727,1177.92Zm732.63-351.53,1.2.06V810.51C1457.72,816.39,1458.45,821.38,1459.63,826.39Zm-518.87-89-8.44.67c-.11,1.22-.24,2.28-.28,3.34,0,.24.28.49.43.73C939.22,742.94,939.8,742.65,940.76,737.43Zm-540.18-17h.88V699h-.88Zm430.93,444c-.13-.76-.25-1.52-.38-2.28l-16.38,3.15.36,2Zm-219.14,16.37c-.07-.77-.13-1.54-.2-2.31l-15.39,1.5c.07.68.14,1.36.22,2Zm745.91-439.5c1.64.14,3.65.48,3.7.28,1-3.58,1.74-7.23,2.54-10.86l-1.35-.31Zm-781,437.52c.32,6.2,1,6.49,8.42,3.93C584.29,1178.56,580.64,1179.59,577.27,1178.84ZM1013,781.2c2.59,7.24,4.37,8.06,9.75,4.88ZM619.54,1174.88c-7.06-2.55-11.64-2.13-15.13,1.17Zm61.5,5-.3-1.66-12.15,2c.08.51.17,1,.25,1.54C672.94,1181.29,677.46,1183.81,681,1179.84Zm-126.31,5.07c.35.53.7,1.07,1.06,1.6,2.77.8,5.22.47,6.07-2.8.2-.77-1-1.9-1.55-2.86ZM1444,1142.77l-.36-2.1-8.69.84c0,.45.07.9.1,1.35C1438.06,1143.15,1441.18,1147.76,1444,1142.77Zm16.46-353.7,1.6.73a47.8,47.8,0,0,0,3.26-7.25c.28-1-1.06-2.39-2.23-4.73C1462,782.67,1461.23,785.87,1460.48,789.07ZM836.24,1202.64l-.29-2.31c-3.55.77-7.72-1.69-10.51,3.46Zm-400.71-402-11.68,2.17c0,.39.09.78.14,1.17l13.22-.65C436.11,801.6,435.55,800.7,435.53,800.66Zm589.52-18.36c3.42,5.21,7,.35,10.58,0ZM729.8,448l-.62,1.82,13.06,4.84.46-1.22Zm88.92,238.16-1.37.17,2.13,15.87.77-.09Zm109.59,347.37c-.09-.65-.18-1.31-.28-2l-12.42,1c0,.59.1,1.18.16,1.77Zm122.16-8c0-.28,0-.57,0-.85h-13l.12.85ZM941.25,753.89l1.6,1a62.87,62.87,0,0,0,2.72-6.74c.25-.85-.57-2-.9-3l-1,.23Q942.46,749.63,941.25,753.89Zm225.23-309.3c-1.6-5-3.86-6.86-8.58-5.18Z"/>
    <path d="M1532.22,753c1,1.87,2.71,3.69,2.84,5.62a290.58,290.58,0,0,1-4.12,68.9V753.76Z"/>
    <path d="M1108.24,954.91l-20.4,28.46C1097.58,976.17,1105.62,967.77,1108.24,954.91Z" style="fill: #fff"/>
    <path d="M1358.18,812.35l-20.93-6.21c-.13.42-.25.85-.38,1.28C1343.6,810.37,1350,814.47,1358.18,812.35Z" style="fill: #fff"/>
    <path d="M791,823.67,474.61,843.25V836.1l.9-.22,1.84,4.83c104.42-5.76,208.81-15.4,313.58-18.18Z"/>
    <path d="M948.13,812.27l-105.19,6.88C848.07,816.32,941.08,809.57,948.13,812.27Z"/>
    <path d="M795.91,793.87l45.91-2.44c-14.91,5.21-30.46,2.34-45.65,4.08Z"/>
    <path d="M1042.94,840.51c4.18,3.59,8.5,7,12.49,10.81s7.63,7.92,11.5,12c-4.09-.65-18.3-13.18-24.82-21.79Z"/>
    <path d="M785.78,796.82H761.4l0-.68H785.6Z"/>
    <path d="M809.94,819.38l23.76-1.23.09,1.68-23.71,1.46C810,820.65,810,820,809.94,819.38Z"/>
    <path d="M525.19,936.28H511.4l0-.77h13.91Z"/>
    <path d="M541.56,934.46l-12.79,1.67C532.55,931.84,537.14,933.81,541.56,934.46Z"/>
    <path d="M1156.36,808.66l-40.59,1.59c7.48-5,32.14-6.21,40.62-3Z"/>
    <path d="M1447.4,939.66c1.84,8-5.5,24.68-11.64,27.27C1433.81,963.36,1440.59,947.21,1447.4,939.66Z"/>
    <path d="M684.67,764.76c0-1.46-.38-2.93.06-3.24,2.42-1.72,6.17.5,8.43,5.1l-12.58,1.14Z"/>
    <path d="M1108.24,954.91c-2.62,12.86-10.66,21.26-20.4,28.46Z"/>
    <path d="M680.44,1019.43l8.76-9.66C690.55,1012.44,688,1015.88,680.44,1019.43Z"/>
    <path d="M1358.18,812.35c-8.19,2.12-14.58-2-21.31-4.93.13-.43.25-.86.38-1.28Z"/>
  </g>
</svg>
