<svg id="Layer_1" data-name="Layer 1" xmlns="http://www.w3.org/2000/svg" viewBox="0 0 160 112" width="160mm" height="112mm" ><title>sketch</title><path d="M132.59,39.47a.37.37,0,0,1-.15,0,3.11,3.11,0,0,1-.38-.25l.38-.17.15,0Z"/><path d="M28.44,14.9c16.73-1.22,33.36-1.46,50-1.38a93.46,93.46,0,0,1-11.71-.61v-.17c.28,0,.56-.06.85-.06,2.11,0,4.22,0,6.33,0,.67,0,1.34.19,2,.21,1.23,0,2.46,0,3.69,0,1.44,0,2.88.13,4.32.18.94,0,1.87,0,2.8,0a4,4,0,0,1,.66.16l1.13.19a.41.41,0,0,1,.26.1H87.36v.07a6.32,6.32,0,0,0,.86.11,17.26,17.26,0,0,1,5.05.7c.87.26,1.8.31,2.66.59,1.27.42,2.51,1,3.75,1.46a29.93,29.93,0,0,1,4.74,2.69,1,1,0,0,1-.23,0,.33.33,0,0,0-.21,0l4.09,2.66,0-.07-3-2.12,0-.07.89.53a47.2,47.2,0,0,0,6.33,3.44,10.79,10.79,0,0,1,1.82,1.13c.93.63,1.84,1.3,2.78,1.93a8.86,8.86,0,0,0,1.1.58,7.83,7.83,0,0,1,3,2.82A13,13,0,0,1,123.22,35a19.85,19.85,0,0,1,.15,2.44c0,.46,0,.92,0,1.38a1.92,1.92,0,0,1-.18,1.37c0,.06,0,.17,0,.26.08,2.46.18,4.91.23,7.37.06,3.67.12,7.34.11,11,0,1.76-.17,3.53-.24,5.29,0,1.05,0,2.1,0,3.14v.4l-.08.07c-.64.07-.64.07-.64.72a8.73,8.73,0,0,0,.09,1.53,3.55,3.55,0,0,1,.06-.47c0-.07.11-.12.16-.19s.16.12.17.19a5.78,5.78,0,0,1,0,.72c-.2,1.27-.41,2.54-.61,3.81-.23,1.48-.47,3-.7,4.45l0,.26-.1,0a3.9,3.9,0,0,1-.13-.57c0-.93,0-1.86,0-2.8a.38.38,0,0,0-.09-.29c-.14.49-.29,1-.43,1.48a16.85,16.85,0,0,1-2,4.44,5.3,5.3,0,0,1-3.45,2.29.76.76,0,0,0-.67.56c-.61,2.08-1.25,4.16-1.87,6.24-.55,1.87-1.1,3.74-1.63,5.61-.32,1.14-.61,2.29-.91,3.44l.13,0,1.36-4.34.15,0a29.75,29.75,0,0,1-1.53,5.09h-3c-.54,0-1.12.13-1.59-.25a1.48,1.48,0,0,1-.27-.44,2.21,2.21,0,0,0-.16-.35c-.47-.56-.95-1.11-1.42-1.66a1.14,1.14,0,0,1-.25-.76q0-2.49-.21-5a4.76,4.76,0,0,0-.32-1.39c-.16-.4-.5-.75-.63-1.16-.23-.72-.59-1.21-1.42-1.21-.32,0-.65-.13-1-.13-3.27,0-6.55,0-9.83,0-1.73,0-3.47-.13-5.21-.2l-2.22,0c-2.36,0-4.71-.06-7.06,0-2,0-4,.14-6,.17-4.1,0-8.21.12-12.31.08-2,0-3.9-.28-5.85-.43-.4,0-.81-.08-1.22-.08-.12,0-.24.11-.37.18a1.73,1.73,0,0,0,.28.26.88.88,0,0,0,.31.08c-.64,0-1.34,0-2,0a13,13,0,0,1-3.68-.43A6.08,6.08,0,0,1,44,86.57l.07-.18c1.91.72,3.87.38,5.82.37,0-.63,0-.68.67-.69,1.7,0,3.4-.11,5.1-.17,1,0,2.07-.11,3.11-.12l16.5-.19c2.46,0,4.91,0,7.37,0,.65,0,1.3.07,2,.11A.94.94,0,0,0,85,85.6l-1.31-.26V85.2a1.24,1.24,0,0,1,.33,0,73.62,73.62,0,0,0,8.4-.19c1.52-.08,3-.15,4.56-.2l6.52-.17a11.76,11.76,0,0,0,1.45-.09,1.58,1.58,0,0,0,.7-.34c-.76,0-1.52,0-2.28,0a19.78,19.78,0,0,1-5.94-.54c-.49-.14-1-.35-1.44-.52a.66.66,0,0,0-.39,0,11.75,11.75,0,0,1-3.91.46l-3.29-.09c-.06,0-.15,0-.18-.06-.25-.39-.67-.33-1-.35-3.95-.21-7.9-.45-11.85-.58-2.52-.09-5,0-7.56,0H44.26c-1.93,0-3.86,0-5.79-.05-.18,0-.35,0-.53-.06l0-.13a2.4,2.4,0,0,1,.57-.15c1.25,0,2.51.06,3.76,0a13.07,13.07,0,0,0,3.06-.44,7.88,7.88,0,0,1,2.35-.28l39.09,0c.89,0,1.79,0,2.68,0a5.56,5.56,0,0,0,3.27-1.23s.08-.09.11-.12a5.52,5.52,0,0,1-.91,0,.61.61,0,0,1-.41-.32.57.57,0,0,1,.23-.45,6.37,6.37,0,0,1,.86-.44l-.45-.34a9,9,0,0,1-5.52,2.77l-.07-.12c.12-.06.24-.14.37-.19.52-.18,1-.36,1.56-.52a8.86,8.86,0,0,0,3.91-2.74,1.35,1.35,0,0,0,.24-.48q.48-1.87.93-3.75a.7.7,0,0,0-.11-.4,12.52,12.52,0,0,0,0-4.36,17.12,17.12,0,0,0-2.25-6A23,23,0,0,0,88,58.29a.72.72,0,0,0-.47-.18L75.77,58a10.75,10.75,0,0,1-2-.15,7.44,7.44,0,0,0-2.21,0,36.26,36.26,0,0,1-4.78-.2c-1.24,0-2.48-.12-3.72-.15-4.09-.11-8.19-.22-12.28-.3-1.4,0-2.81,0-4.22,0a5.79,5.79,0,0,0-2.24.39,3.1,3.1,0,0,1-1.39,0l-4.93-.45-.36,0V57a6.76,6.76,0,0,1,.89-.11c3.77,0,7.55-.06,11.32-.06,7.39,0,14.77,0,22.15,0a1,1,0,0,0,.35,0c-5-.28-10.07-.51-15.08-1.14v-.13c.27,0,.54,0,.81,0,2.2.15,4.41.32,6.62.46q3.89.24,7.77.45c2.23.12,4.45.28,6.67.32,3.42.07,6.84.05,10.25.08.59,0,1.18,0,1.77.07a.54.54,0,0,0,.56-.29,3.69,3.69,0,0,0,.34-2.72,5.66,5.66,0,0,0-2.37-3.71,20.28,20.28,0,0,1-4-3.91,2.3,2.3,0,0,0-.4-.26,3.09,3.09,0,0,1-.43-.37c-.16-.19-.27-.44-.44-.62a14.11,14.11,0,0,0-1.07-1c-.06-.06-.19,0-.41-.06L83.61,46l-.07,0c-.18-.31-.37-.62-.55-.94a4,4,0,0,1-.33-.65,5.26,5.26,0,0,0-1.37-1.9,12.94,12.94,0,0,0-4.51-2.85,9.24,9.24,0,0,0-1.91-.34A22.16,22.16,0,0,0,72.42,39a4,4,0,0,0-.69,0c-.27,0-.48,0-.49-.39-9.45-.25-18.89-.36-28.37,0a3.78,3.78,0,0,1,.23.52c0,.09-.05.21-.08.31l-.3-.1a.13.13,0,0,1-.07-.09c-.21-.62-.67-.68-1.24-.63s-1.14,0-1.8,0l.46.71-.07.09c-.08-.06-.2-.09-.24-.17a1.07,1.07,0,0,0-1.07-.54,72.6,72.6,0,0,1-9.21-.15c-.57,0-1.14-.13-1.71-.22-.13,0-.24-.14-.36-.22a1.15,1.15,0,0,1,.37-.18c1-.05,1.94-.08,2.91-.11l2.19-.09-2.76-4.3.12-.08c.06.08.13.14.18.22.86,1.26,1.72,2.52,2.56,3.79a.77.77,0,0,0,.76.38c.57,0,1.14,0,1.79,0L32.62,32.9l0,0c.48.62,1,1.21,1.42,1.86s.85,1.4,1.28,2.09a5.68,5.68,0,0,0,.55.74.46.46,0,0,0,.31.18c.76,0,1.53,0,2.29,0l.09-.14-4.76-9.45.07,0c.05.08.1.15.14.23q1.76,3.3,3.49,6.61c.39.75.76,1.51,1.13,2.27a.65.65,0,0,0,.71.43c.71-.07,1.42-.07,2.18-.1-.78-1.77-1.51-3.5-2.31-5.19s-1.67-3.36-2.51-5l.12-.07.21.37a80.86,80.86,0,0,1,4.68,9.24,4.23,4.23,0,0,0,.25.47.54.54,0,0,0,.19.18,7.08,7.08,0,0,0,3.54.14,6.27,6.27,0,0,1,1.06-.13,1.83,1.83,0,0,1,.64.16,7.82,7.82,0,0,0,3.39.39l2.82-.21c1.22-.12,2.44-.27,3.66-.37,1-.08,2.06-.17,3.09-.15,2.61,0,5.22.16,7.83.15A16,16,0,0,0,71,37a1.86,1.86,0,0,0,.52-.17l-.56-.1.38-.11a24.2,24.2,0,0,0,2.4-.64,4,4,0,0,0,2-1.83A15.62,15.62,0,0,0,77.58,29c.09-.51.09-1,.2-1.52s.33-1.24.5-1.85a15.35,15.35,0,0,1,1.93-4.5l.24-.34a.56.56,0,0,1,.18-.16c-.27.52-.58,1-.82,1.55a19.52,19.52,0,0,0-1.71,6.22c0,.42,0,.47.39.35a17,17,0,0,1-.55,4.2c-.14.61-.14,1.25-.3,1.86a4.79,4.79,0,0,1-1,2.15.74.74,0,0,0-.08.13c.82,0,1.13-.25,1.27-1,.17-1,.35-2,.53-3a.78.78,0,0,1,.13-.28,17.71,17.71,0,0,0,1.18,4.78.66.66,0,0,0,.38-.68c-.07-1.19-.12-2.38-.18-3.56a.24.24,0,0,1,.09-.2c.27,1,.56,1.89.79,2.84a14.43,14.43,0,0,0,1.52,4,.47.47,0,0,0,.25.23c-.11-.38-.25-.75-.33-1.13a5.7,5.7,0,0,1,0-.72,1,1,0,0,0-.05-.34c-.09-.31-.22-.62-.31-.94-.3-1.08-.57-2.16-.88-3.23s-.65-2-1-3a6.21,6.21,0,0,1-.14-.88L80,30c.27.75.55,1.5.81,2.25q1.49,4.32,3,8.63c.31.88.68,1.74,1,2.6a.65.65,0,0,0,.17.26l1.25,1-.12.15c-.07-.17-.12-.34-.2-.5a31.52,31.52,0,0,1-2.24-6c-.64-2.59-1.32-5.18-2-7.77,0,0,0-.05,0-.07s0-.29.07-.44a1.56,1.56,0,0,1,.24.35c.35,1.37.7,2.75,1,4.13a48.35,48.35,0,0,0,2.3,7.64c.48,1.18.93,2.38,1.48,3.53A5.44,5.44,0,0,0,87.87,47c-1.32-5.16-3.05-10.19-4.08-15.41,1.1,2.83,1.65,5.82,2.71,8.67l-.06-.58.1,0a1.77,1.77,0,0,1,.15.31A17.55,17.55,0,0,0,88.56,44c.56,1,.75,2,1.28,3a.8.8,0,0,0,.22.29l-.57-3.26.1,0c.18.7.39,1.39.53,2.09a19.07,19.07,0,0,0,1.37,4.3,1.09,1.09,0,0,0,.14.23l1.62,1.73c-.17-.55-.29-1-.47-1.47a13.66,13.66,0,0,1-.75-3.2,26.52,26.52,0,0,0-.7-3.3c-.52-1.82-1.15-3.6-1.7-5.41-.41-1.35-.76-2.71-1.14-4.06l.11-.06a3.27,3.27,0,0,1,.52.79c.7,2.15,1.34,4.32,2,6.47.33,1,.8,2,1.07,3s.46,2.3.72,3.45c.23,1,.53,1.89.79,2.84l.48,1.73a.4.4,0,0,0,.21.27,1.07,1.07,0,0,0,.06-.29,17.11,17.11,0,0,0-.23-1.89c-.43-2-.91-4-1.37-6s-.95-4.06-1.42-6.1a5.92,5.92,0,0,1-.16-1.34,86.68,86.68,0,0,1,3.34,11.44l.27-2.34c0-.38,0-.77.09-1.15a6,6,0,0,0-.3-2.26c-.4-1.6-.8-3.2-1.18-4.81,0-.1,0-.22,0-.33.08.08.22.15.25.26.37,1.09.71,2.19,1.06,3.28l.13.37a4.42,4.42,0,0,0,.43-2A.9.9,0,0,1,95.5,40a1.58,1.58,0,0,1,.12-.21c.09.23.18.34.18.47.06,1.14.13,2.29.12,3.44a7.32,7.32,0,0,0,.37,2.9c.12.27.21.55-.21.66l-.06,0c0,.31,0,.61,0,.92a.66.66,0,0,0,.37.71,21.77,21.77,0,0,1,2.85,2.19c2.78,2.63,5.5,5.32,8.25,8,1.16,1.11,2.34,2.19,3.5,3.28.11.11.2.24.3.36l-.09.09a2.4,2.4,0,0,1-.31-.21c-2.3-1.9-4.47-3.95-6.6-6-1.89-1.84-3.8-3.66-5.74-5.44-.76-.69-1.63-1.27-2.44-1.9l-.1.06c0,.52,0,1,0,1.55,0,.07.08.16.14.22L104.42,60c.65.69,1.3,1.38,1.94,2.08a7.18,7.18,0,0,1,.54.67c-4-3.54-7.26-7.72-10.92-11.6a2.06,2.06,0,0,0,0,.26c0,.88,0,1.76,0,2.65,0,.52.24.83.77.78a1.29,1.29,0,0,1,1.15.49c.92.9,1.88,1.74,2.78,2.65a11.31,11.31,0,0,1,.87,1.16c.51.62,1,1.22,1.52,1.86L99.42,57.6c-.63-.59-1.25-1.18-1.89-1.75a.69.69,0,0,0-.4-.14c-.23,0-.46,0-.66,0l2.73,3.71,0,0-3-2.83c0,.13,0,.26,0,.39A1.76,1.76,0,0,1,96,58.09a2.39,2.39,0,0,0-.1,1.23c0,.13.23.27.38.39L99,61.82a1.21,1.21,0,0,0,.2.09l-.09.1-3.25-2.34c0,.38,0,.65,0,.92a4.26,4.26,0,0,0,.92,2.92c.62.78,1.12,1.65,1.67,2.48a.67.67,0,0,1,.06.12l-.11.09-2.25-2.66c0,.4,0,.79,0,1.18C96.1,68.13,96,71.55,95.93,75a1.55,1.55,0,0,0,.44,1.2c.68.72,1.31,1.48,1.95,2.23a.4.4,0,0,1,.12.27l-2.37-2.45-.13.06a3.39,3.39,0,0,0,.09.78c.23.73.5,1.45.75,2.17a1.69,1.69,0,0,0,1,1c1.88.87,3.76,1.74,5.67,2.52a6.26,6.26,0,0,0,1.8.18l.06-.14a4.42,4.42,0,0,0-.69-.84,31.39,31.39,0,0,1-4-4.09C99.8,77,98.89,76.21,98,75.41c-.57-.52-1.17-1-1.71-1.59a3,3,0,0,1,.29.2c1.36,1.19,2.77,2.35,4.08,3.6.85.81,1.56,1.77,2.36,2.62.49.52,1.06,1,1.57,1.46.31.3.57.66.87,1a.58.58,0,0,0,.4.17c1.08-.09,2.14-.2,3.21-.3l5.84-.59.12,0c-.31-.35-.63-.69-.94-1a1.77,1.77,0,0,1-.59-1.19l2.09,2,.57-.47c0-.47-.29-.73-.56-1-.66-.76-1.32-1.53-2-2.3l.08-.08,2.64,2.47a5.07,5.07,0,0,0,.63-.17.89.89,0,0,0,.35-.21c.4-.47.8-.93,1.18-1.41a10.47,10.47,0,0,0,2.11-4.79c.15-.87.44-1.71.59-2.57s.17-1.47.24-2.21c0,0,0-.09,0-.11-.51-.51-.3-1.14-.28-1.74a.75.75,0,0,0,0-.29,15.45,15.45,0,0,1-.9,4.42c.12-.73.24-1.45.35-2.18a3,3,0,0,0,.05-.42c.09-2.74.17-5.47.26-8.21,0-1.06.05-2.12.11-3.18.09-1.45.23-2.89.32-4.34.07-1.09.09-2.17.11-3.26,0-.11-.13-.22-.2-.33-.1.1-.29.19-.3.31a15.11,15.11,0,0,0-.2,1.9c-.07,2.78-.08,5.57-.19,8.36,0,1.47-.29,2.93-.43,4.39-.06.66-.07,1.33-.15,2a6.71,6.71,0,0,1-.25,1l-.19,0c0-.55,0-1.11,0-1.66.09-1.25.21-2.5.33-3.74.34-3.43.44-6.87.49-10.31,0-2.78.15-5.55.23-8.33,0-1.71.09-3.42.14-5.14a.77.77,0,0,1,0-.34c.53-.93,0-1.89.07-2.83a.84.84,0,0,0-.27-.49q-2.22-2.32-4.44-4.62a.75.75,0,0,0-.42-.14,7.3,7.3,0,0,0-.81,0,19,19,0,0,1-3.37-.29,13.39,13.39,0,0,0-2.9,0,35.78,35.78,0,0,1-5,.39,17.92,17.92,0,0,0-2.07.09,1.21,1.21,0,0,0-.64.26c-.58.51-1.11,1.07-1.68,1.59s-1.07.93-1.6,1.42a1.24,1.24,0,0,0-.39.5,9,9,0,0,0-.53,3.54.9.9,0,0,1-.17.53.6.6,0,0,0,0,.63,2.48,2.48,0,0,0,1,1.07c1.36,1,2.67,2.11,4,3.19,3.08,2.54,6.14,5.09,9.22,7.64.8.65,1.62,1.28,2.44,1.92a3.14,3.14,0,0,0,.44.25l-.17.23a1.64,1.64,0,0,1-.4-.19c-1.84-1.43-3.69-2.84-5.5-4.3-2.88-2.34-5.74-4.71-8.61-7.06a8,8,0,0,0-1.22-.9c.11.15.22.28.32.43s.19.32.34.57a2.47,2.47,0,0,1-1.36-1,14.08,14.08,0,0,1-.88-1.34l-.31.44h-.12c0-.28,0-.56-.07-.84s-.09-.78-.11-1.16a1,1,0,0,1,.06-.59,1.29,1.29,0,0,0,.23-.86,3.07,3.07,0,0,1,.67-2,42.35,42.35,0,0,1,3.41-4,9.44,9.44,0,0,1,2.17-1.55,3,3,0,0,1,1.9-.32,1.64,1.64,0,0,1,.27.09,12.85,12.85,0,0,0-2.79,1.14l0,.12a1,1,0,0,0,.24,0,5.85,5.85,0,0,0,.84-.26,13.32,13.32,0,0,1,4.24-.7,23.25,23.25,0,0,1,4.79-.08,4,4,0,0,1,.57.14v.15H110v.15h5.86c.13-.27,0-.41-.29-.55a21.85,21.85,0,0,1-2.19-1.17c-.78-.51-1.47-1.16-2.24-1.67-1.11-.75-2.26-1.44-3.4-2.15-1.73-1.09-3.45-2.2-5.22-3.24-1-.57-2-1-3.06-1.48a4.77,4.77,0,0,0-.75-.16,3.89,3.89,0,0,1-.54-.27l.26-.51.14-.18c-.48.06-.87.1-1.26.18-.07,0-.12.18-.12.2l-1.37-.36a12,12,0,0,1-1.91-.56,5.54,5.54,0,0,0-3.45-.29c-1.11.18-2.2.45-3.3.68-.36.07-.72.1-1.17.16a6.33,6.33,0,0,1,2.68-1.06c.92-.2,1.85-.34,2.77-.51,0,0,0,0-.06,0a5.08,5.08,0,0,0-2.54,0q-1.52.71-3,1.38a1,1,0,0,1-.4.11,4.42,4.42,0,0,0-3.38,1.63c-.15.16-.29.32-.43.49l-.08-.07c.35-.47.68-.95,1-1.4a16.88,16.88,0,0,1,1.2-1.34,9.51,9.51,0,0,1,1.36-1.18c.49-.33,1.07-.54,1.6-.84-.46,0-1-.21-1.38.08A13,13,0,0,0,83.48,16a23.92,23.92,0,0,0-1.78,2.11,3.09,3.09,0,0,1-.44.45,1.21,1.21,0,0,1,.09-.2c.45-.76,1-1.5,1.34-2.28A4,4,0,0,1,84,14.66l.36-.27h-.44c-.6,0-1.2.13-1.8.13a1.21,1.21,0,0,0-1.21.81c-.15.34-.31.68-.46,1-.06.11-.12.21-.17.32l-.12,0,.63-2H54.68c7.57.57,15.18.31,22.75,1v.13a1.88,1.88,0,0,1-.33.05c-1.45,0-2.91.09-4.37.06-4-.07-8-.14-11.94-.29-2.36-.09-4.72-.34-7.08-.48-2.81-.18-5.62-.43-8.43-.44-3.54,0-7.08.2-10.62.27-1.92.05-3.84,0-5.76,0ZM107.08,99h2.24a.3.3,0,0,0,.2-.13,7.36,7.36,0,0,0,.51-1.06c.2-.61.33-1.25.51-1.87,1-3.54,1.69-7.14,2.32-10.75,0,0,0-.07,0-.12-.31,0-.33.27-.37.49-.19,1.1-.37,2.2-.58,3.29a30.37,30.37,0,0,1-1.57,5.69c-.07.17-.17.34-.26.52l-.15-.06c.83-3.15,1.89-6.25,2.09-9.54l-.14,0-4.21,1.77c-.08,0-.2.08-.21.14,0,.25-.22.21-.38.21h-.37C106.82,91.42,107,95.17,107.08,99ZM89.87,58.87A25.85,25.85,0,0,1,94.13,65a.24.24,0,0,0,0-.16,19.67,19.67,0,0,0-2.81-6.35.49.49,0,0,0-.34-.19c-.64,0-1.28-.08-1.92-.11-.32,0-.64,0-1,0,.44.44.86.79,1.21,1.21a25.28,25.28,0,0,1,3.21,5.26A13.32,13.32,0,0,1,94,70.54a.68.68,0,0,0,.1.27,4.35,4.35,0,0,1,.32.7,13,13,0,0,0,.28,2.57c.08.21.2.41.3.61l.13,0c0-.11,0-.22,0-.33,0-1.78.09-3.55.1-5.33,0-1.07,0-2.15-.11-3.22a14.52,14.52,0,0,0-.27-2.55c-.3-1.23-.74-2.44-1.16-3.64a2,2,0,0,0-1.9-1.19l.13.19a18.31,18.31,0,0,1,2.35,5.1,33.48,33.48,0,0,1,.67,3.73,20.81,20.81,0,0,1,.16,2.37.61.61,0,0,1-.33.67c0-.7-.1-1.4-.13-2.09a9.89,9.89,0,0,0-.9-3.51,17.35,17.35,0,0,0-2.16-3.61C91,60.45,90.43,59.66,89.87,58.87Zm17.92,25.67c-.11,0-.24-.07-.32,0-.47.21-.92.44-1.38.66a1.71,1.71,0,0,1-.61.26c-1.53.06-3.07.12-4.6.14-2.36,0-4.71.05-7.06.07-.78,0-1.56,0-2.34,0v.21c.91,0,1.82-.06,2.72,0,1.84.14,3.67.34,5.5.53.47,0,.93.16,1.4.19,1.13,0,2.26,0,3.4,0a2.05,2.05,0,0,0,.9-.28A4.41,4.41,0,0,0,107.79,84.54Zm15.15-26.81H123v-.95c0-4.48,0-9,0-13.43,0-1.09.11-2.17.15-3.25,0-.47,0-.93,0-1.42l-.62.64c0,.2.14.48.2.76a1.31,1.31,0,0,1,0,.44,2.19,2.19,0,0,0-.17.59c.07,4.51-.05,9,.24,13.54C122.85,55.67,122.89,56.7,122.94,57.73ZM70.59,37.58c1,.07,2,.19,3.07.17a3.64,3.64,0,0,0,2.9-1.33c.17-.21.23-.38,0-.58A27.78,27.78,0,0,1,70.59,37.58ZM87.75,82.49c.23.17.45.24.52.39s.37.3.64.3c1.48-.06,3-.08,4.43-.16.69,0,1.36-.22,2-.33v-.12a1.29,1.29,0,0,0-.19,0c-.64,0-1.28-.11-1.91-.11a7.8,7.8,0,0,0-2.36.13,4.34,4.34,0,0,1-2.89,0A1.38,1.38,0,0,0,87.75,82.49Zm32.84-49a3.15,3.15,0,0,0-.31-1,8.55,8.55,0,0,0-2.75-2.67,2.13,2.13,0,0,0-.79-.14ZM89.83,14.93s-.06-.06-.09-.07c-.75-.14-1.51-.27-2.26-.39a.35.35,0,0,0-.27.1c-.49.38-1,.75-1.46,1.18s-.86.91-1.23,1.3C87.77,15.36,87.77,15.36,89.83,14.93Zm16,76.72c0-.75.19-1.41-.53-1.86a5.67,5.67,0,0,1-.88-.82l-.11,0c0,.32,0,.71.15,1A21.15,21.15,0,0,0,105.84,91.65ZM92.28,52.77a5.76,5.76,0,0,1,.37,3.75c.22-.13.46-.24.53-.42A3.32,3.32,0,0,0,93.39,55a2.09,2.09,0,0,0-.19-1A9.37,9.37,0,0,0,92.28,52.77Zm13.76,35-1.27.33,1.13,1.65Zm-1.47,6.72v-.1a2.51,2.51,0,0,0,.17.73c.2.33.49.61.72.93s.29.46.44.69a2.79,2.79,0,0,0,0-.81c0-.12,0-.28-.1-.35C105.43,95.18,105,94.83,104.57,94.47Zm10.18-10.9c-.43,0-.64.15-.69.54s-.13.73-.19,1.09a4.17,4.17,0,0,0,0,.5h.1ZM76.4,35.44l.06.08c.16-.12.41-.21.47-.36.21-.58.35-1.18.52-1.78l-.11,0ZM105.74,93l.13-.06c0-.17,0-.4-.12-.51-.31-.31-.67-.57-1-.86-.1-.09-.18-.2-.28-.31l-.12.11C104.62,92.12,105.3,92.48,105.74,93Zm-2.56-63.92c.32.2,2.66,0,4.54-.43ZM76.35,34.49,74.94,36C75.93,36,76.11,35.21,76.35,34.49Zm43.27-3.8c-.43-1.09-.47-1.17-1.25-1Zm-13.77,63.8c.08-.42,0-.72-.41-.88a1.3,1.3,0,0,1-.47-.38,3.91,3.91,0,0,1-.37-.44l-.12.11ZM94.06,77.87h.06V76.33l-.11,0-.45,1.49.5-.39.08,0Zm28.06-43.63H122l.22,2.07.18,0ZM115.5,27l-.08.15c.48.15.82.6,1.34.66l.06-.13ZM78.83,37.77l-.27-1.28A1.08,1.08,0,0,0,78.83,37.77Zm4,3.46c-.29.39-.23.57.28.87ZM95.74,80.5c0,.46.16.75.52.79ZM78.5,36.15c.28-.17.27-.6.06-1Zm43.26-2.6.09,0-.42-1.12-.11,0Zm-4.85,48.12-.06-.11L116,82l.06.12Z"/><path d="M63.24,12.34c-.55.08-1.1.21-1.65.24-1.78.1-3.55.18-5.33.22-3.72.08-7.44.12-11.16.21-4.3.1-8.59.23-12.89.33-1,0-1.92,0-2.88-.06a1,1,0,0,1-.32-.1v-.11a1.08,1.08,0,0,1,.35-.1c3.44-.14,6.87-.28,10.31-.39q5.89-.2,11.78-.35c3-.09,5.95-.17,8.93-.22.84,0,1.68.08,2.53.13.11,0,.21,0,.32.06Z"/><path d="M54.14,80l.25,0h8.52c.31,0,.61,0,.92,0a5.7,5.7,0,0,0,2.37-.41l-.29.16-.45.23,2.18.16v.1a2,2,0,0,1-.26.07,15.22,15.22,0,0,1-1.65.1,10.6,10.6,0,0,0-3.07.39,1.17,1.17,0,0,1-.41,0l.29-.3-.28,0-10.17,0a7.79,7.79,0,0,0-1.07.12c-.2,0-.41.15-.57-.11,0-.06-.19,0-.29,0-.63,0-1.26,0-1.88-.06-.12,0-.22-.11-.33-.17a1,1,0,0,1,.34-.14c1.05,0,2.1,0,3.15-.1a4.71,4.71,0,0,0,1.05-.18A100.89,100.89,0,0,1,63.2,77.28a4.45,4.45,0,0,1,.72-.1c.11,0,.23.09.34.14-.09.07-.17.18-.27.21-.78.19-1.57.35-2.36.53L54.4,79.81c-.09,0-.18.06-.27.09Z"/><path d="M98.81,37.86a1.94,1.94,0,0,1,.24.15c1.86,1.5,3.75,3,5.58,4.51,2.6,2.18,5.16,4.4,7.73,6.61a32.26,32.26,0,0,1,3.79,4,8.66,8.66,0,0,1,.61,1l-.14.09a1.94,1.94,0,0,1-.27-.23c-1.36-1.36-2.73-2.7-4-4.09a23.65,23.65,0,0,0-2-1.73c-2.31-1.94-4.57-4-6.84-5.94-1.54-1.36-3.07-2.74-4.6-4.11a.94.94,0,0,1-.09-.12Z"/><path d="M107.31,56.52a113.35,113.35,0,0,1-9.78-9.7c.12.1.24.2.37.29a62.45,62.45,0,0,1,5.19,4.83c1.24,1.19,2.5,2.35,3.77,3.5A1.08,1.08,0,0,1,107.31,56.52Z"/><path d="M41.53,27.45A4.8,4.8,0,0,0,42,29.56c.78,1.9,1.62,3.78,2.43,5.67.23.53.41,1.08.61,1.63l-.18.09a5.33,5.33,0,0,1-.74-1.06c-.57-1.4-1.09-2.82-1.59-4.24-.42-1.17-.78-2.35-1.16-3.53a1.08,1.08,0,0,1-.08-.38,3.25,3.25,0,0,1,.12-.52c.2.05.47,0,.59.17a9.3,9.3,0,0,1,1.17,1.42c1.12,1.78,2.19,3.58,3.27,5.37.36.59.72,1.18,1.07,1.78a2.07,2.07,0,0,1,.15.46l-.08,0a2.83,2.83,0,0,1-.2-.28c-1.43-2.37-2.85-4.76-4.3-7.12a13.84,13.84,0,0,0-1-1.38,2,2,0,0,0-.43-.32Z"/><path d="M113.75,57c-5.7-4.21-11.44-8.38-16.2-13.72l.07-.09c.34.28.7.55,1,.84.73.67,1.46,1.33,2.15,2,.51.52.94,1.12,1.46,1.63A36.55,36.55,0,0,0,107.67,52c1.43,1,2.75,2.12,4.12,3.2l1.79,1.39a3.57,3.57,0,0,1,.28.27Z"/><path d="M86.46,75.93a1.51,1.51,0,0,1,.36-.06,2.83,2.83,0,0,0,1.81-.65,6.05,6.05,0,0,0,1.66-1.83,1.78,1.78,0,0,0,.27-.79,16.83,16.83,0,0,0-.33-4.8,7.59,7.59,0,0,0-1.38-3l.1-.06a13.48,13.48,0,0,1,.86,1.27,10,10,0,0,1,1.07,4.59c0,.43,0,.87,0,1.3a3.28,3.28,0,0,1-.84,2.4A4.55,4.55,0,0,1,87.64,76a7.36,7.36,0,0,1-1.16.09Z"/><path d="M89.76,76.27l.85-.79a9.54,9.54,0,0,0,.84-.73,2.75,2.75,0,0,0,.62-.94,11.52,11.52,0,0,0,.41-2.32,7.1,7.1,0,0,0-.29-3.3c-.33-.79-.74-1.54-1.12-2.31s-.66-1.29-.94-1.95c.82,1.67,2.19,3.07,2.51,5A20.35,20.35,0,0,1,92.75,71a7.94,7.94,0,0,1-.32,2.65,2.44,2.44,0,0,1-.83,1.3c-.48.38-.94.78-1.42,1.17l-.35.26Z"/><path d="M97.53,46.44a3.27,3.27,0,0,1-.26-.43c-.31-.87-.66-1.73-.89-2.62a10.37,10.37,0,0,1-.17-1.94c0-.1.13-.21.2-.32.09.09.23.17.26.27a3.09,3.09,0,0,1,.11.8,16.67,16.67,0,0,0,.82,3.1C97.68,45.64,97.86,46,97.53,46.44Z"/><path d="M110.37,58.81c1.87.94,5,4.21,4.83,5Z"/><path d="M108.41,41.25l8.52,5.89C115.52,46.67,109.85,42.73,108.41,41.25Z"/><path d="M105.87,79.49a47.53,47.53,0,0,1-4.73-4.88A26.35,26.35,0,0,1,105.87,79.49Z"/><path d="M124.5,43.27a37.74,37.74,0,0,1,0,8.76Z"/><path d="M121.16,69.83a11.06,11.06,0,0,1-1.85,4.77Z"/><path d="M37.06,81.39a3,3,0,0,1,.18.57c0,.09-.12.26-.18.26-.65,0-1.3-.11-2-.17l0-.12Z"/><path d="M117.29,79.6a.88.88,0,0,1,.06-.29c.75-1.27,1.5-2.55,2.26-3.82a.7.7,0,0,1,.15-.2,16.58,16.58,0,0,1-2.35,4.34Z"/><path d="M100.73,71.66l2.7,2.64A18.91,18.91,0,0,1,100.73,71.66Z"/><path d="M90,13.33a7.14,7.14,0,0,1,3,.57Z"/><path d="M79.62,24.66l-.9,3.63-.11,0,.89-3.63Z"/><ellipse cx="79.22" cy="31.03" rx="0.05" ry="1.68"/><path d="M52.34,16.76l.8-.13C53,16.91,52.79,17,52.34,16.76Z"/><path d="M108.64,57.59l.75.49C109,58.15,108.83,57.83,108.64,57.59Z"/></svg>