<svg id="Layer_1" data-name="Layer 1" xmlns="http://www.w3.org/2000/svg" viewBox="0 0 160 112" width="160mm" height="112mm" ><title>sketch</title><path d="M62.75,48.76l-1.66.69,0,.1.27,0a2,2,0,0,1,.93,0,5.16,5.16,0,0,0,1,0,1.58,1.58,0,0,0,1.3-.57c.28-.27.58-.52.86-.8a1,1,0,0,0-.18-1.21,1,1,0,0,0-.77-.25,6.87,6.87,0,0,1-1.62.11,1.38,1.38,0,0,0-1.15.4c-.69.49-1.39,1-2,1.5a3.45,3.45,0,0,1-.88.68.8.8,0,0,1-.25.11,2.56,2.56,0,0,1-.39,0c.05-.13.08-.3.17-.37.67-.48,1.34-.94,2-1.41l.23-.19h-.52c.06.31,0,.37-.29.32a4.18,4.18,0,0,1-.51-.1.88.88,0,0,1-.25-.18.69.69,0,0,1,.24-.15c.52-.11,1-.22,1.55-.29A2.68,2.68,0,0,0,62,46.46a1.28,1.28,0,0,1,.91-.29c.76,0,1.53,0,2.3,0,.08,0,.16-.12.27-.2a12.21,12.21,0,0,0-5.8.72,1.91,1.91,0,0,1-.44.15,2,2,0,0,0-1.26,1,2.86,2.86,0,0,0-.35,1.86c0,.73,0,1.45-.06,2.18,0,0,0,.06-.11.1,0-.12,0-.24-.05-.36,0-.66,0-1.33-.14-2a10.36,10.36,0,0,0-.48-1.71,1.55,1.55,0,0,0-.91-.9,24.32,24.32,0,0,0-9.21-1.51,8.59,8.59,0,0,0-3.42.68,2.23,2.23,0,0,0-1.31,1,.47.47,0,0,1,0-.75,4.44,4.44,0,0,1,1.76-1.19,8.58,8.58,0,0,1,3.09-.64c1.1,0,2.21,0,3.32,0,.2,0,.4-.09.6-.09l1.62,0a1,1,0,0,0,.5-.09c.49-.34,1-.72,1.43-1.08.15-.11.14-.23.08-.4q-1-2.85-2-5.7a1.42,1.42,0,0,1-.08-.4c0-.13.05-.37.1-.37a.57.57,0,0,1,.45.1,6.79,6.79,0,0,1,.89,1c.64,1,1.24,2,1.86,3l.19.3a20,20,0,0,0-.36-5.54l-1.21.13,0-.15.66-.34c.53-.23.55-.28.31-.84L55,34.4l-.06,0a3.11,3.11,0,0,1,.3-.67A15.33,15.33,0,0,1,57.81,31a.26.26,0,0,0,.12-.19c0-.64.08-1.28.1-1.91a2.92,2.92,0,0,0-.53-1.48A2.38,2.38,0,0,0,57,27l.88-.72,0-.12a2.38,2.38,0,0,0,.32.38,6.91,6.91,0,0,0,3,1.62A5.53,5.53,0,0,0,64,27.88a2.79,2.79,0,0,1,.47-.14.5.5,0,0,1,.35.13L68,27.34l-1.44-1.76,0,0c.33.23.66.46,1,.68a.72.72,0,0,0,.28.13c.33.07.66.14.82.51l.22-.6.69.77.09-.05c0-.23-.11-.46-.17-.69-.13-.48-.13-.48.29-.76-.08-.19-.16-.39-.25-.58a5.84,5.84,0,0,1-.34-3.75,10.35,10.35,0,0,0,.2-3,1.65,1.65,0,0,1,0-.31h.14l.22,1.71c.25-.38.59-.63.52-1.13s0-1.13-.1-1.7a1.41,1.41,0,0,0-.31-.59c-.32-.39-.67-.75-1-1.12l.26,2-.09.05a2.12,2.12,0,0,1-.23-.35c-.38-.86-.75-1.73-1.13-2.59a2,2,0,0,0-.94-1,6.93,6.93,0,0,1-.72-.48A7.9,7.9,0,0,0,63,11.59,34.21,34.21,0,0,0,56.68,11l-8.42-.07v-.08c1.34,0,2.69,0,4,0,1.62,0,3.23-.12,4.84-.2a1.79,1.79,0,0,0,.68-.24,1.43,1.43,0,0,0-1-.22c-2.28,0-4.56,0-6.83.1-1.67.05-3.33.18-5,.28-.39,0-.78.09-1.17.15a1.46,1.46,0,0,0-.3.16l0,.07c-1,.06-2,.13-2.94.16a3.89,3.89,0,0,1-.89-.17l0-.15a5.09,5.09,0,0,1,1-.44,19.24,19.24,0,0,1,2-.28C46.3,9.76,50,9.78,53.7,9.74c1.32,0,2.65-.05,4,0a29.17,29.17,0,0,1,10.5,1.86c1.28.51,2.5,1.19,3.73,1.82a4,4,0,0,1,.76.6.26.26,0,0,1,.11.2c0,.37.17.53.47.61,0,.49,0,.52.49.56,1.18.12,2.35.2,3.53.3l1.82.16a.59.59,0,0,1,.33.14l-.57,0v.08c.41.07.82.15,1.23.21a8.06,8.06,0,0,1,3.22,1.32,2.18,2.18,0,0,1,.63.69c.37.55.73,1.11,1.15,1.62a6.57,6.57,0,0,0,.94.88l-1.14-1.65.08-.06c.47.44.94.88,1.42,1.31s.87.71,1.29,1.08a1.89,1.89,0,0,1,.46.56,6.42,6.42,0,0,1,.77,2.61c0,.21.1.32.33.3a2.72,2.72,0,0,1,.28,0c.69,0,.69,0,.86.72a9,9,0,0,1,2.73-.27,5.33,5.33,0,0,1,3.3,1,13.6,13.6,0,0,0,1.76.95,9.59,9.59,0,0,1,1.26.85,7.67,7.67,0,0,1,.88.72,2.6,2.6,0,0,1,.55.73,4.45,4.45,0,0,0,.77,1.56l-.26-1.91.1,0c.25.68.54,1.34.72,2s.26,1.42.39,2.15c.65-.08,1.26-.12,1.85-.24,1-.2,1.92-.45,2.88-.66a1.23,1.23,0,0,1,.6,0A13.82,13.82,0,0,1,112,34.68s0,0,.14,0l-1.76-2.4.11-.09c.23.22.48.43.69.67.53.64,1,1.28,1.56,1.93.67.85,1.34,1.69,2,2.56a9.07,9.07,0,0,1,.54,1.08,1.56,1.56,0,0,0,.24.35,21.79,21.79,0,0,1,1.75,2,12.79,12.79,0,0,1,1,2c.21.46.38.94.59,1.4a4,4,0,0,1,.41,1.95,15.8,15.8,0,0,1-.7,4.68c-.08.24-.15.49-.23.74A6.69,6.69,0,0,1,117,53.87c-.48.55-.89,1.17-1.33,1.75a.33.33,0,0,1-.15.11.85.85,0,0,1-.17.06c-.54.22-.63.48-.28.94a8.46,8.46,0,0,0,1,1.26,3.68,3.68,0,0,1,1.13,2,13.31,13.31,0,0,0,.31,1.36c.13.44.33.86.49,1.29.1.25.18.5.26.75l.09,0c-.28-1.29-.56-2.58-.85-3.87a16.78,16.78,0,0,1,1.19,4.2,25.62,25.62,0,0,1,.48,4.34,17.59,17.59,0,0,1-.34,4.34h-.1c0-.1,0-.2,0-.3,0-1.19.11-2.37,0-3.55a23.32,23.32,0,0,0-.44-2.72.94.94,0,0,0-.15-.4c0,.18,0,.37,0,.56,0,1.13.09,2.26.13,3.38a12.11,12.11,0,0,1-2,6.9,34.5,34.5,0,0,0-1.75,3,5.1,5.1,0,0,1-1.13,1.34c0,.23,0,.39,0,.55.07.37-.11.55-.45.64a.84.84,0,0,0-.4.2c-.21.22-.38.45-.74.33a.23.23,0,0,0-.24.07,4.79,4.79,0,0,0-.4.78,11.11,11.11,0,0,0-.31,1.13c0,.22-.06.46-.1.69a6.71,6.71,0,0,1-1.32,2.88c-.3.41-.58.83-.86,1.26a.72.72,0,0,0-.08.35c.05.87.1,1.74.17,2.6,0,.59.14,1.18.19,1.76a.5.5,0,0,0,.32.44,11.71,11.71,0,0,1,1.11.72.5.5,0,0,1,.14.32c0,1.09.07,2.18,0,3.27a9.46,9.46,0,0,1-.47,2,7.3,7.3,0,0,1-.57,1.24.69.69,0,0,1-.31.27,2.19,2.19,0,0,1-2,0,.94.94,0,0,1-.54-.53,1,1,0,0,1,0-.38c0-.32,0-.64,0-.95a1.14,1.14,0,0,0-.18-.46A12.72,12.72,0,0,1,105.24,97l-.08-.17c-.2.23-.39.12-.56,0l-.23-.22a2.51,2.51,0,0,0-1.2-.72,4.9,4.9,0,0,1-1.93-1.1,1,1,0,0,0-.34-.2,2,2,0,0,1-1.13-.73c-.46-.58-.9-1.18-1.34-1.78v.5l-.11,0c-.12-.26-.27-.51-.37-.79a39.84,39.84,0,0,1-1.58-5.68c-.13-.65-.14-.65-.82-.66-1.55,0-3.11,0-4.66,0-2.56,0-5.12-.14-7.67-.17-2,0-3.94,0-5.91,0-4,.21-8.1.2-12.15.13-1.13,0-2.27-.18-3.4-.27-.64,0-1.28-.11-1.92-.15-.1,0-.21.08-.31.13v.11l.61.23a20.37,20.37,0,0,1-4.9-.43,1.91,1.91,0,0,1-.73-.56c1.58.52,3.17.24,4.76.25-.09-.48,0-.57.48-.58l4.06-.11c1.77-.07,3.54-.17,5.31-.19,4.81-.06,9.62-.08,14.43-.1,1.15,0,2.3,0,3.44.08a3.64,3.64,0,0,0,.73-.05l-1.06-.23v-.06l6.64-.14v-.12l-1.56-.11c-3.83-.16-7.66-.35-11.49-.48-2.88-.1-5.76-.14-8.64-.2-.12,0-.23.11-.35.15a2,2,0,0,1-.41.1l-2.76.2L62,83.29l-.45,0A6.3,6.3,0,0,1,64,82.81c.84-.06,1.69-.14,2.53-.28h-2c-2,0-4,.07-6,.07a6.22,6.22,0,0,1-1.34-.26c-.07,0-.12-.12-.18-.18s.14-.13.21-.14c.28,0,.56,0,.84-.07l6-.29c.58,0,1.15-.08,1.47-.11l-16-.41c.09-.17.26-.2.47-.2h3.25c-.24-2.41-.75-4.74-1.18-7.09A44.55,44.55,0,0,1,53.64,81l1.92-.38c.33-.5.85-.18,1.35-.3l-1.25-6.53.11,0c0,.11.08.22.11.33.42,1.88.83,3.75,1.25,5.63v0c.1.61.1.61.71.61h6.46c-.13-.65-.14-.66-.71-.66-.82,0-1.63,0-2.45,0-.34,0-.68.08-1,.1a1.25,1.25,0,0,1-.37-.09l-.27,0c-.52,0-1,0-1.55-.05a.62.62,0,0,1-.23-.14c.07,0,.14-.11.22-.11s.45,0,.71,0l-.49-2.21.11,0c.11.35.24.7.33,1.06s.1.65.17,1c0,.07.12.18.18.18l1.91-.06-.94-4.39a12,12,0,0,1,1.14,4.36l1.26-.37-1.05-4.07.14,0,1.07,4,1.2-.31L62.91,76l.14,0,.82,2.52,2.06-.51-1-3.89L65,74c.09.29.18.57.26.85q.39,1.36.75,2.73c.06.23.15.29.39.23,1-.22,2-.42,3-.62l.22-.06L68.82,76l.07,0a7.26,7.26,0,0,1,.45.68c.25.54.66.57,1.2.36l-2.32-5,.1-.06c.08.12.15.24.22.36.73,1.49,1.47,3,2.21,4.46.1.2.26.37.37.57a.59.59,0,0,1,0,.23c-.07,0-.18,0-.21,0s-.3-.16-.5-.11l-3.88.88-.33.09a8.34,8.34,0,0,0,.26.8.43.43,0,0,0,.32.15H69.2c.43,0,.87,0,1.3,0a3.27,3.27,0,0,0,1.58-.25.77.77,0,0,1,.43-.07l-.62.31,1.75.13,0,.09-.27,0c-.44,0-.89.09-1.33.08a8.08,8.08,0,0,0-2.45.31,1.29,1.29,0,0,1-.34,0v-.1l.35-.16h-2.9l.2.49-.09.06c-.08-.12-.15-.25-.23-.35s-.16-.2-.24-.2c-.68,0-1.36,0-2,0,0,.48.2.66.64.66l24.22,0c.6,0,1.2,0,1.8,0s1.17-.16,1.75-.23c.25,0,.51,0,.77-.05a1,1,0,0,0,.45-.11c.4-.28.77-.59,1.16-.89a2.48,2.48,0,0,1,.26-.19l.08.1-1.22,1.15a1.51,1.51,0,0,0,.92-.56,6.87,6.87,0,0,0,.66-.87,10.48,10.48,0,0,0,.48-1,12.79,12.79,0,0,0,.88,1,5.56,5.56,0,0,0,1.16.9c.94.5,1.93.92,2.89,1.39a2.93,2.93,0,0,0,1.64.33c.33,0,.66-.06,1.08-.09-.71-.67-1.38-1.26-2-1.9s-1.16-1.32-1.74-2l.1-.09.22.22c.51.57,1,1.16,1.52,1.72s1,.91,1.47,1.42a1.45,1.45,0,0,0,1.53.49,28.5,28.5,0,0,0,4.25-1,2.84,2.84,0,0,0,1.56-.89l-.52-.26,0-.08.4-.11a5.09,5.09,0,0,0,3-2.59,11.77,11.77,0,0,1,.75-1.14c.4-.58.81-1.16,1.26-1.73l-.81,2,.06,0a3.19,3.19,0,0,0,.54-.74c.5-1.33,1-2.67,1.41-4a5.5,5.5,0,0,0,.12-1.16l-.13,0-.56,1.93c0-1.15.05-2.34.07-3.54a14,14,0,0,0-.4-3.82,11.71,11.71,0,0,0-.66-1.6c0-.13-.11-.25-.16-.38l.09,0,.36.5a.53.53,0,0,0,0-.17,10.88,10.88,0,0,0-1.59-3.78.3.3,0,0,0-.21-.14c-.54,0-1.07.06-1.61.09l-.24,0a2.2,2.2,0,0,0,.29.27l.89.56a1,1,0,0,1,.35.3c.29.47.56,1,.84,1.44l-.06,0a1,1,0,0,1-.13-.09l-1.9-1.54a.37.37,0,0,0-.31,0c-.06,0-.09.18-.08.26a4.69,4.69,0,0,1,.14.78c-.14-.12-.29-.22-.42-.35a7.71,7.71,0,0,0-3.27-1.84.66.66,0,0,0-.49.07.85.85,0,0,1-1.15-.15c-.37.24-.74.5-1.12.74a6.27,6.27,0,0,1-.86.51,11.76,11.76,0,0,0-3.85,2.82,7.78,7.78,0,0,1-1.32.88c-.25-.18-.23-.32-.07-.47l2.5-2.29.26-.22-2.14.19-1.69.2a4.16,4.16,0,0,1-.5,0,41.23,41.23,0,0,0,2,4.89,19.94,19.94,0,0,1-3.6-6.62l-.09,0a2.32,2.32,0,0,0,.07.38c.3,1,.62,1.93.91,2.91a2.57,2.57,0,0,1,0,.68c0,.07,0,.15,0,.22s0,.18,0,.28a12.8,12.8,0,0,0,.95,5.43c.27.78.45,1.59.64,2.39a1.21,1.21,0,0,1,0,.62,34.59,34.59,0,0,1-2.13-7.35v.46c0,.16,0,.31,0,.47a8,8,0,0,1-.58,3.15,8.55,8.55,0,0,1-.69,1.26c0,.07-.15.1-.23.15s-.06-.19,0-.27c.16-.61.34-1.22.49-1.83s.33-1-.29-1.35a4.44,4.44,0,0,1-1.59,1.69l-.08-.06c.18-.27.36-.54.55-.8a14.14,14.14,0,0,0,.88-1.16,3.65,3.65,0,0,0,.29-.9,2,2,0,0,1,0-.24,4.58,4.58,0,0,0,.1-3.28c-.23-1-.53-2-.81-2.94a1.88,1.88,0,0,0-.22-.48c0-.09-.17-.14-.26-.22a1.65,1.65,0,0,0-.11.36,1,1,0,0,0,0,.3c.17.84.34,1.67.5,2.5a.52.52,0,0,1,0,.13c-.45-.4-.92-.81-1.38-1.23a.36.36,0,0,1-.1-.15,1.41,1.41,0,0,0-.82-.77,6.31,6.31,0,0,0-2.31-.55,5.24,5.24,0,0,1,3.22.52,6.33,6.33,0,0,1-.75-.92c-.16-.31-.55-.51-.49-1L90.65,57a.35.35,0,0,0-.45.27c-.07.24-.19.47-.28.7h-.1l-.21-.48c-.56.29-1.11.59-1.68.86a11.38,11.38,0,0,1-1.47.66,10.23,10.23,0,0,0-2.7,1.74.53.53,0,0,0-.18.28c-.31,1.11-.65,2.21-.91,3.33a5.14,5.14,0,0,0,0,1.36.62.62,0,0,1-.43.7l.27-1.27h0l-.73,1.52.19.06a.36.36,0,0,1-.05.09,4,4,0,0,1-.52.32c-.59.25-1.19.47-1.78.72a.86.86,0,0,1-.75.07.4.4,0,0,0-.26,0c-.3.12-.6.25-.9.36a1.35,1.35,0,0,1-.35,0l0-.09,1-1c-.63.29-1.08.84-1.8,1,.21-.49.38-.93.59-1.36a3.17,3.17,0,0,0,0-2A.91.91,0,0,1,77.2,64c.48-.57,1-1.14,1.42-1.73a1.36,1.36,0,0,0,.31-.68,10.42,10.42,0,0,0-.07-1.67.53.53,0,0,0-.29-.34c-.29-.13-.6-.21-.95-.33A3.25,3.25,0,0,1,77.7,61h-.1l-.12-.52c-.11-.44-.2-.89-.35-1.31a1.26,1.26,0,0,0-1.61-.45c-.18-.58-.71-.54-1.16-.64V58l.68-.06c-.35-1.16-2.69-2.42-4.3-2.28a.17.17,0,0,0,0,.08,4.24,4.24,0,0,1,1.34,1.36.59.59,0,0,0,.24.23l1.34.52a.2.2,0,0,1,.13.1l-1.41-.36a7.51,7.51,0,0,1,.76,2.53l-.08,0L73,59.86l-.87-2.1a.62.62,0,0,0-.49-.38c-.45-.09-.9-.21-1.37-.32l.92,1.74-.09,0c-.17-.3-.34-.62-.53-.91s-.51-.71-.76-1.07a2.92,2.92,0,0,0-1.53-1,1.29,1.29,0,0,0-.67,0,5.62,5.62,0,0,0-3.38,1.87,2.84,2.84,0,0,0-.61,2.73,3.79,3.79,0,0,0,.26.59,8.08,8.08,0,0,1,.67,3.57,7.73,7.73,0,0,1-.43,2.24,2.51,2.51,0,0,0-.06.55,12.82,12.82,0,0,0,.4,3.38A4.28,4.28,0,0,0,65,72.42a3.36,3.36,0,0,1,.19.38l-.09.06a4.38,4.38,0,0,1-.43-.63,8.4,8.4,0,0,1-.79-2.73c-.06-.47,0-1-.08-1.42A13.06,13.06,0,0,1,64,65.66c0-.39,0-.78,0-1.18a.83.83,0,0,1,.14-.59,1.06,1.06,0,0,0,0-.69,5,5,0,0,0-.31-1.1q-.54-1.22-1.17-2.37A4.67,4.67,0,0,0,62,59l-.07.05.07.31c-.57-.52-.74-1.28-1.36-1.67v1.46h-.08c0-.11,0-.23,0-.34a5.92,5.92,0,0,0-.14-1,5.31,5.31,0,0,0-.49-1.15,1,1,0,0,0-.48-.4,8.88,8.88,0,0,0-1-.31c-.31-.09-.62-.16-.92-.28a14.08,14.08,0,0,0-6.19-.93,6.44,6.44,0,0,0-2.21.75,34.44,34.44,0,0,0-3,1.78l.08-.1A16.43,16.43,0,0,1,49.62,55a5.77,5.77,0,0,0,1.19-.8,4.67,4.67,0,0,0-2.19.76c-.68.36-1.33.78-2,1.14a6.57,6.57,0,0,1,.94-.89A8,8,0,0,1,49.85,54a5.91,5.91,0,0,1,1.25-.19c1,0,2,0,3,.07a14.91,14.91,0,0,1,1.87.32.27.27,0,0,0,.36-.16A3.28,3.28,0,0,0,57,52.25a.87.87,0,0,1,.18-.49v1.13l.06,0,.18-.35c.3-.11.37.06.47.32a5,5,0,0,0,1.71,2.64,3.49,3.49,0,0,1,1,1c.18.3.49.22.76.2,0,0,.11-.08.11-.12,0-.2.12-.31.33-.28,0,0,.09-.06.1-.1a1.09,1.09,0,0,1,1-.7,3.62,3.62,0,0,1,.81,0c-.13.1-.26.2-.4.29s-.39.19-.57.3-.42.3-.27.65-.08.61-.31.82a4.08,4.08,0,0,1-.61.36c.3.51.7.52,1.06,0,.23-.33.45-.67.65-1h.77a1.84,1.84,0,0,0-.66,1.41,12.07,12.07,0,0,1,.85-1.14,11.6,11.6,0,0,1,1.07-1l-.73.27c-.21.08-.43.17-.65.23-.06,0-.14,0-.21-.06a.5.5,0,0,1,.08-.2,1.69,1.69,0,0,1,.32-.19A12,12,0,0,1,67.25,55a6.28,6.28,0,0,1-.85-.65A1,1,0,0,0,65,54.2a11.4,11.4,0,0,1-1.08.6,3.37,3.37,0,0,1-.84.23,6,6,0,0,1,2.12-1.73,1.38,1.38,0,0,1-.23-.1c-1-.83-1.93-1.66-2.91-2.48-.09-.08-.27-.06-.47-.09,0-.45.59-.55.85-1l-1.9.15,0-.22a.33.33,0,0,0-.1,0c-.33.1-.67.22-1,.31a1.36,1.36,0,0,1-.4,0,1,1,0,0,1,.2-.33c.24-.22.53-.4.76-.63.54-.53,1.25-.41,1.89-.52a5,5,0,0,1,.87,0v.11l-.21,0-1.6.23a1.78,1.78,0,0,0-1,.61c.34,0,.68,0,1,0,.1,0,.2-.09.31-.13l1.44-.59Zm11.65,7c-.1-.1-.19-.21-.3-.31a13.48,13.48,0,0,1-1.14-1c-.5-.55-1.19-.52-1.8-.72l0,.1,3.29,1.91.07.11c.21.26.16.38-.16.45l-.15,0c.15.17.39.31.4.46a.75.75,0,0,0,.31.54,4.79,4.79,0,0,1,.65.62c.34.48.92.35,1.35.62a4.13,4.13,0,0,0-1.45-2.09C75.06,56.29,74.74,56,74.4,55.78Zm9.24-24.16c.16-.06.37-.08.47-.19.57-.67,1.12-1.35,1.67-2-.32-.3,0-.47.12-.59a1.24,1.24,0,0,0,.55-.95,4.23,4.23,0,0,0-.13-2.36c-.5-1-.85-2.06-1.31-3.08-.31-.7-.69-1.37-1.05-2a4,4,0,0,0-1.55-1.66,8.9,8.9,0,0,0-3.75-1.34,19.29,19.29,0,0,0-3.48.1l.08.22-2.1.84,0,0,.73-.79,0-.09a3.37,3.37,0,0,0-1.13.31,6.9,6.9,0,0,0-1.83,2c-.31.53-.57,1.09-.84,1.65,0,.09,0,.23.06.34a5.76,5.76,0,0,1,2.43-2.59.9.9,0,0,1-.2.27,8.7,8.7,0,0,0-1.92,2.62,1.39,1.39,0,0,0,0,1.33l.52.89a.85.85,0,0,1,.14.36c0,.67,0,1.34,0,2a.63.63,0,0,0,.44.7,5.51,5.51,0,0,1,.67.38l.21.07a19.57,19.57,0,0,1-.88-6.47A8.45,8.45,0,0,0,71.87,24c.18.7.41,1.38.61,2.08.11.39.2.79.31,1.24a6.34,6.34,0,0,1,2.75-2.11,1.37,1.37,0,0,1-.2.13,20.36,20.36,0,0,0-1.62,1.29,1.42,1.42,0,0,0-.57,1.57c0,.08-.07.21-.11.29l2.82,2.25c0-.05.13-.1.2-.16a1.78,1.78,0,0,1,1.42-.5c.78.11,1.56.2,2.33.36a1.1,1.1,0,0,1,.58.43c.41.57.71.73,1.4.49a1.44,1.44,0,0,1,1.32.17c.19.12.4.22.6.32a.47.47,0,0,0,.16,0l0-.06-.27-.23ZM95.76,52.81a1.54,1.54,0,0,0,0,.37c.09.51.19,1,.32,1.52a9,9,0,0,1,.48,1.85,1.88,1.88,0,0,0,.79,1.65A5.87,5.87,0,0,0,99,59.44a6.74,6.74,0,0,0,2.32.18.94.94,0,0,0-.18-.17c-1-.78-2-1.5-2.84-2.35a8.54,8.54,0,0,1-2.51-4.28l.06-1.16h.09a2,2,0,0,0,.07.26,16.29,16.29,0,0,0,.78,2A13.37,13.37,0,0,0,98,55.6c.29.37.61.71.92,1.07l.06-.05L97.79,54.8l.08-.09a1,1,0,0,1,.32.19c.18.25.33.53.51.78a13.28,13.28,0,0,0,2.27,2.9,1.74,1.74,0,0,1,.72,1.05,4.73,4.73,0,0,0,3.21-1.42,6.87,6.87,0,0,1-2.92-.93,10.33,10.33,0,0,1-2.53-1.73.51.51,0,0,1,.33,0l1.52.71a13.38,13.38,0,0,0,4.54,1.43c.55,0,.86,0,.75-.67a.33.33,0,0,1,.09-.27c.61-.16,1.23-.3,1.89-.46v1.26l1.06.06a.21.21,0,0,0,.11,0c.19-.12.37-.25.57-.35a14.12,14.12,0,0,0,2.68-1.5,2.76,2.76,0,0,0,.63-.54c.54-.8,1-1.63,1.54-2.45a.8.8,0,0,0,0-.19c-1.15,1.15-2,1.72-2.45,1.69l1-.74a4.07,4.07,0,0,0,1.5-2c.14-.41.33-.8.49-1.2a1,1,0,0,0,.11-.48c-.09-.85-.18-1.71-.32-2.55s-.35-1.65-.52-2.47a1.61,1.61,0,0,1,0-.31h.12a28.21,28.21,0,0,1,1.1,4.66,1.33,1.33,0,0,0,.18-.49,13.06,13.06,0,0,0-.54-6.17.91.91,0,0,0-.25-.41c-.37-.29-.76-.55-1.14-.81a3.31,3.31,0,0,0-.43-.24l.48-.36-.67-.52.06-.08.86.36.06-.1c-.51-.81-1-1.61-1.53-2.44a6.73,6.73,0,0,0-1.57-1.79,5.16,5.16,0,0,0-.46-.29l0,.07,1.29,1.35a18.46,18.46,0,0,1-1.83-.93,1.62,1.62,0,0,1-.39-.25,2.58,2.58,0,0,0-1.74-.84,1.91,1.91,0,0,1-.33-.06,19.13,19.13,0,0,0-7.07-.44.82.82,0,0,1-.26,0l0-.11.93-.48c-.2-.06-.39-.18-.52-.13a13,13,0,0,0-2.19.87,21.3,21.3,0,0,0-2.4,1.65,7.71,7.71,0,0,0-2.87,4.62.33.33,0,0,1-.23.2c-.27,0-.54,0-.81,0-.71,0-.65-.16-.93.66l-.06-.06a.18.18,0,0,1-.06-.1c0-.42-.35-.64-.56-.93s-.3-.42-.44-.64a20,20,0,0,0-2.73-3.54l-.29-.23-.08.07L89.51,39l-.05,0-2.09-2-.07.06.21.26c.89,1.14,1.81,2.27,2.67,3.44a11.86,11.86,0,0,1,.89,1.65c0,.08,0,.23-.06.34a1,1,0,0,1-.28-.18c-.24-.35-.43-.74-.7-1.07l-5.48-6.75a1.91,1.91,0,0,1-.18-.47l.1-.08c-1.34-.6-2.42-1.71-4-1.92l.09-.4c-.15-.14-.37-.25-.46-.44-.31-.63-.85-.65-1.43-.6,0,0-.09,0-.12,0a3.38,3.38,0,0,0-.79.29c-.69.47-1.35,1-2,1.48,0,0,0-.08,0-.11a1,1,0,0,0-.26-.92.75.75,0,0,0-1-.24,3.65,3.65,0,0,1-.46.07,6.6,6.6,0,0,0-3.93,2.27c.65.1,1.17-.27,1.76-.36v.53a4.41,4.41,0,0,1-2.68.36l1.6-1.81a3.59,3.59,0,0,1,.51-.58,4.32,4.32,0,0,1,3-.88l.44,0,0-.08c-.38-.32-.73-.67-1.13-.95-.58-.41-1-1.05-1.72-1.09-.08-.16-.12-.31-.2-.35a.43.43,0,0,0-.35,0l-1.87.91.37-.43-1-1a.74.74,0,0,0-.83-.25c-.59.23-1.19.42-1.78.63a7.73,7.73,0,0,1,2.25.09.87.87,0,0,1-.31.07c-.85.13-1.72.19-2.55.38A16,16,0,0,0,60,31.49l-.51.34c-.05,0-.13,0-.2,0s0-.15,0-.18a4.15,4.15,0,0,1,.62-.57,16.12,16.12,0,0,1,5.18-2.49.45.45,0,0,0,.12-.06,1.18,1.18,0,0,0-.56,0l-2.94,1c-.07,0-.18.09-.18.11.06.25-.16.18-.27.22a2.84,2.84,0,0,1-.42.08,1.79,1.79,0,0,0-.73.22,9.34,9.34,0,0,1-1.63,1,.93.93,0,0,0-.37.39c-.18.37-.31.76-.46,1.15A7.94,7.94,0,0,1,56,35.22c.17,1.21.37,2.42.49,3.65a6.42,6.42,0,0,1-.16,2.58.51.51,0,0,0,.22.63c0-.18,0-.3,0-.43.09-1.37.18-2.75.28-4.12A3.77,3.77,0,0,1,57,37c-.17,2.18-.26,4.34.75,6.37,0-.19,0-.38,0-.57,0-.46.16-.93-.19-1.34,0-.06,0-.18,0-.27a2.69,2.69,0,0,1,1.27-2.24c-.25.36-.56.77-.83,1.21a1.72,1.72,0,0,0-.14,1.35.48.48,0,0,0,.17.21l.46.35c-.33.11-.36.11-.37.4A2.56,2.56,0,0,0,58.23,44a6.11,6.11,0,0,1,.36,1,.67.67,0,0,0,.66.39,5.82,5.82,0,0,0,1.9-.22,11.61,11.61,0,0,1,1.32-.34c.56-.12,1.14-.21,1.7-.3a3.24,3.24,0,0,1,.72-1.79c.62-.8,1.15-1.22,1.55-1.14a5.09,5.09,0,0,0-2,2.75L66,42.86l0,0-1.44,1.56.56,0v0l-2.86.57v.09h.24a18.66,18.66,0,0,0,3.8-.34.72.72,0,0,1,.48.13c.26.17.46.13.55-.17a3.76,3.76,0,0,1,.9-1.51c.52-.52,1.06-1,1.57-1.55a10.85,10.85,0,0,1,3-2.37,1.43,1.43,0,0,0,.84-1,22.38,22.38,0,0,1,.79-2.65c.26-.73.61-1.43.94-2.19l-.5.3a.92.92,0,0,1-.41.2,1.69,1.69,0,0,0-1.08.61c-.32.31-.62.64-.95.94a.48.48,0,0,1-.62.12.46.46,0,0,1-.12-.62c.13-.3.32-.57.48-.86s.5-.33.86-.27l-.44.68.08.06c.16-.17.31-.36.47-.52a1,1,0,0,1,.36-.24,6.75,6.75,0,0,0,1-.24c.41-.18,1-.06,1.16-.69l0,0,1.29-.74c0,.25.06.38.29.25a2.94,2.94,0,0,0,.41-.31,3.32,3.32,0,0,0,0,.9,1.23,1.23,0,0,1-.5,1.31c-.23.22-.43.47-.64.7l-.12,0c-.12-.58.35-1,.41-1.64A15.32,15.32,0,0,0,76,34.71c-.49.94-.94,1.89-1.37,2.86A2.62,2.62,0,0,0,74.35,39a.22.22,0,0,1,0,.14,5.81,5.81,0,0,1-1,.71,9.74,9.74,0,0,0-3,2,2.07,2.07,0,0,0-.29.53l.09,0a6.73,6.73,0,0,1,2.13-1.53,11.67,11.67,0,0,1,2.41-1.17.44.44,0,0,1-.2.27,7.91,7.91,0,0,1-1.06.51A6.17,6.17,0,0,0,71,41.89c-.51.51-1.08,1-1.6,1.47a4,4,0,0,0-1.36,2.23c-.08.56-.09,1.12-.12,1.68a1,1,0,0,0,.17.77c.6.83,1.14,1.7,1.75,2.53a3.34,3.34,0,0,0,1.13,1c-.31-.39-.64-.76-1-1.14a8.93,8.93,0,0,1-1.52-2.62,3.5,3.5,0,0,1-.13-.56l.1,0,.39.9a13.57,13.57,0,0,0,2.56,3.46,1.23,1.23,0,0,0,1,.5.34.34,0,0,1,.25.09c.2.21.39.44.65.73L72.15,53a15,15,0,0,0,4.56,2.55l0,.1-.83-.18a2.3,2.3,0,0,0,1.31.8,2.1,2.1,0,0,1,1.29.78c.2.22.43.42.62.65a.82.82,0,0,0,.77.37c.19,0,.29.06.36.26.23.64.48,1.27.73,1.91.07.18.16.34,0,.55s0,.32,0,.48a2.87,2.87,0,0,0,.39-.2c.23-.18.45-.39.69-.57s.64-.45,1-.66a4.75,4.75,0,0,1,.83-.51c.56-.24.65-.32.64-.93a.41.41,0,0,1,.27-.43c.35-.16.67-.37,1-.54l2.43-1.12,0,0-.84.6a4.7,4.7,0,0,0,1.93-1.08A5.7,5.7,0,0,0,91.41,53a1.41,1.41,0,0,1,.13-.24,4.34,4.34,0,0,0,.28-.46,12.38,12.38,0,0,0,1.06-4.91L92.94,46c.15.46.25.92.36,1.38s.35.47.69.26c.08,0,.21-.1.27-.07.3.16.72.2.74.68,0,.07.07.15.1.22a.34.34,0,0,0,.37.26.36.36,0,0,0,.38-.3,9.18,9.18,0,0,0,.19-.91c0-.28.1-.48.46-.29a4.77,4.77,0,0,0-.44-2.55l.64-.17.15.32.42.09.23-.27a6.76,6.76,0,0,1-.55-.52q-.65-.74-1.29-1.5a.58.58,0,0,1-.12-.34.31.31,0,0,1,.14-.26.33.33,0,0,1,.27.12,7.31,7.31,0,0,0,1.64,1.78,2,2,0,0,1,.46.57.45.45,0,0,1-.11.66c-.48.35-.52.5-.28,1.1a2.6,2.6,0,0,1,0-.58c0-.11.16-.19.25-.28a1.14,1.14,0,0,1,.23.27,1.39,1.39,0,0,1,0,.41c0,1.05.09,2.1.12,3.16a1.59,1.59,0,0,1-.06.37l-.35-.07c0,.09,0,.19,0,.29s-.25.25-.35.11a.57.57,0,0,1-.08-.32c0-.61,0-1.22,0-1.83,0-.27,0-.55-.08-.82a.29.29,0,0,0-.07.22c0,.54-.07,1.07-.1,1.61,0,.26-.12.48-.41.5s-.4-.2-.47-.44c0-.08,0-.16-.09-.3a1.09,1.09,0,0,1-.9.53c-.41,0-.61-.24-.76-.6-.32,2,.5,3.84.94,5.71a2.56,2.56,0,0,0,.07-1c-.09-.69-.23-1.37-.32-2.06-.07-.54-.09-1.09-.12-1.64a.33.33,0,0,1,.1-.24s.16,0,.19,0c.16.23.3.48.45.72l-.13.09-.4-.68a.38.38,0,0,0-.07.27c.13,1,.25,1.93.38,2.9A.7.7,0,0,0,95.76,52.81Zm-3-14.11-.13-.07c.16-.32.31-.66.48-1a6.49,6.49,0,0,1,5-3.53,1.25,1.25,0,0,0,.93-.94,6.5,6.5,0,0,0-.54-2.3c0-.06-.08-.1-.12-.14a13.46,13.46,0,0,0-6-3.75,2.9,2.9,0,0,0-1.75,0,5.78,5.78,0,0,0-.83.28c-.42.21-.92.3-1.22.73a.69.69,0,0,1-.3.18,3.49,3.49,0,0,0-.58.29c-.42.34-.81.7-1.21,1.06s-.52.44-.77.67a.38.38,0,0,0-.13.26c0,.8-.08,1.59-.11,2.39a.91.91,0,0,0,.67,1,5.11,5.11,0,0,1,0-1.91.91.91,0,0,1,.14.34c.11.61.21,1.23.34,1.83a1,1,0,0,0,.3.51c.48.43,1,.82,1.48,1.22a28.67,28.67,0,0,1,4.78,4.69s.05,0,.1,0a7.39,7.39,0,0,1,4.08-5.82,7.55,7.55,0,0,0-1.56.61,7.91,7.91,0,0,0-2.45,2.47C93.16,38.1,93,38.4,92.75,38.7Zm7.3,53.18,0-.46.12,0,.63,1c0,.06.07.15.12.18.29.19.26.36,0,.53l.18.2.21.18c.19-.29.26-.3.5-.07.4.37.82.73,1.2,1.12a1.91,1.91,0,0,0,1.13.54c.07,0,.15,0,.22,0s.24,0,.31,0a3.35,3.35,0,0,1,1.3,1.62,9.16,9.16,0,0,0,.42,1,7.55,7.55,0,0,1,.81,3.16.57.57,0,0,0,0,.16,7.94,7.94,0,0,1,1.09-.33.71.71,0,0,0,.64-.57,8.39,8.39,0,0,0,.31-1.27,5.76,5.76,0,0,0,0-2A13.92,13.92,0,0,0,108,93.39a1.1,1.1,0,0,1-.11-.32,5.35,5.35,0,0,0-.17-.69c-.15-.43-.33-.85-.47-1.28a1.41,1.41,0,0,1,.13-1.44,3.21,3.21,0,0,0,.36-.59,3.75,3.75,0,0,0,.73-2.06c-.06-.74,0-.72-.77-.77a2.65,2.65,0,0,1-2-.71.43.43,0,0,0-.41,0,2.7,2.7,0,0,0-.51.88,5.92,5.92,0,0,0,.54,4.65,9.35,9.35,0,0,1,.47,1.22l-.1.07a3.24,3.24,0,0,1-.37-.19c-.2-.12-.39-.26-.59-.39a5.39,5.39,0,0,1-1.5-1.36c-.31-.45-.77-.8-1.13-1.23a3.26,3.26,0,0,1-.8-1.23,13.93,13.93,0,0,1-.09-2.25,5,5,0,0,0-2.13-.21l-.17.41c.28.33.08.7.08,1l-.24-.5h-.1a2.79,2.79,0,0,0-.1.39c0,.79-.05,1.58-.05,2.36a2.17,2.17,0,0,0,.34,1.34C99.2,91,99.43,91.63,100.05,91.88ZM78,67.83l0,0c.46-.18.93-.33,1.38-.54a7.12,7.12,0,0,0,.86-.57,4.83,4.83,0,0,1,.67-.44.93.93,0,0,0,.55-.58,13.77,13.77,0,0,0,.63-3.65c0-.23-.11-.33-.31-.34a6.16,6.16,0,0,0-1,0,3.24,3.24,0,0,0-.66.18c-.25.07-.51.14-.76.23a.64.64,0,0,0-.28.18c-.5.66-1,1.31-1.5,2-.07.09,0,.24-.08.36l.07,0,.72-.92-.94,3.63c.46-.28.95-.59,1.45-.87.08,0,.22,0,.33,0a.87.87,0,0,1-.14.27Zm31.2,16.42c0-.17,0-.25,0-.33a.42.42,0,0,0-.37-.51c-.59-.12-1.18-.27-1.78-.37a1,1,0,0,0-.74.06,1.4,1.4,0,0,1-.89.29q-.5,0-1,.06c-.07,0-.2,0-.21.08,0,.2-.19.2-.33.2l-3.39.06c-1.85,0-3.71,0-5.56.06-.6,0-1.2,0-1.8,0v.09c.69,0,1.37,0,2,.09a39.06,39.06,0,0,1,4,.37,18.65,18.65,0,0,0,3.24.22,3.35,3.35,0,0,0,.54-.08.27.27,0,0,1,.12,0,1.15,1.15,0,0,0,1,0c-.13.41.1.52.38.6a4,4,0,0,0,.56.17,13.83,13.83,0,0,0,1.56.19c.78,0,1.56,0,2.38,0l-.12-1.68h.1ZM52.61,36.65l-.13.08a7,7,0,0,0,.13.78,36.15,36.15,0,0,0,2.2,5.36,1.79,1.79,0,0,1,.2.67.7.7,0,0,0,.36.67c.28-.54.56-1.1.86-1.64a.45.45,0,0,0-.14-.63l-.41.65a6.45,6.45,0,0,1,0-1.16.74.74,0,0,0,0-.34c-.27-.5-.55-1-.86-1.47q-.84-1.29-1.71-2.55A2.24,2.24,0,0,0,52.61,36.65ZM68,52.85v-.06l-.12-.1L63.72,50a.8.8,0,0,0-.85-.07c-.3.17-.58.38-.89.58l.14.12c1.07.83,2.14,1.67,3.22,2.49a.42.42,0,0,0,.35,0,4.28,4.28,0,0,1,1.59-.26C67.51,52.87,67.74,52.85,68,52.85ZM104.4,85.66c-.6.18-1.13.34-1.67.48-.23.06-.47.09-.7.14a.41.41,0,0,0-.22.13,1.9,1.9,0,0,0,.61,2.51c.21-.23.37-.1.52.09a5.2,5.2,0,0,0,.51.63c.29.31.6.59.91.88l.07-.06a7.28,7.28,0,0,1-.61-2.35A5.54,5.54,0,0,1,104.4,85.66ZM71.79,54.72l-1.73-1a.75.75,0,0,0-.33-.07H66.81a3,3,0,0,0-.6.13c.41.3.75.54,1.09.8a1,1,0,0,0,1,.23,2.5,2.5,0,0,1,.55,0ZM55.24,45.3a.25.25,0,0,0,.4,0,7.2,7.2,0,0,1,.7-.42l.06.09-.77.52c.35.23.65.45,1,.64a.25.25,0,0,0,.24,0c.32-.32.62-.66.93-1l-.4-.68-.4.09.27-.38-.61-1.55-.1,0ZM87.47,25l.11,0c-.17-.65-.31-1.3-.5-1.93a3,3,0,0,0-.75-1.41c-.47-.43-.93-.85-1.41-1.26a5.84,5.84,0,0,0-.56-.42c.18.34.4.63.6.94a2.49,2.49,0,0,1,.21.47,2.58,2.58,0,0,0,.12.42c.46.71.93,1.41,1.41,2.12Zm22.59,56c.61-.05,1.19-.1,1.77-.13a.44.44,0,0,0,.41-.26c.3-.59.62-1.17,1-1.74.17-.29.2-.28.52-.12l.87-1.55-.07-.06ZM69.89,53l0-.1,0,0a34.15,34.15,0,0,0-4.63-3.08.25.25,0,0,0-.19,0c-.22.08-.44.18-.67.29l.74.38L69,52.65A7.6,7.6,0,0,0,69.89,53Zm2,.37-.18-.14c-.68-.48-1.38-1-2-1.46-1-.76-1.94-1.55-2.91-2.33a.56.56,0,0,0-.32-.15,8.8,8.8,0,0,0-1,.17l.35.19a19.25,19.25,0,0,1,4.49,3.08A2.82,2.82,0,0,0,71.84,53.38Zm-4.55-7.79-.09-.06c-.12.35-.35.38-.65.39a.81.81,0,0,0-.63.34,3.23,3.23,0,0,0-.11,1.08c0,.27.28.14.42.22h0c.55.39,1,.12,1.29-.29a6,6,0,0,1-.24-.84A6,6,0,0,1,67.29,45.59ZM77.1,84.46v-.12c-.22,0-.44-.07-.66-.08a16.11,16.11,0,0,0-3.4.22c-.94.15-1.88.3-2.82.47-.09,0-.17.12-.26.19a.84.84,0,0,0,.32.1c.42,0,.84-.08,1.26-.13,1.42-.18,2.83-.37,4.25-.54C76.22,84.51,76.66,84.49,77.1,84.46ZM57.87,31.68l-.1-.09-2.32,2.32a.24.24,0,0,0,0,.22c.07.18.16.35.26.56A5.63,5.63,0,0,0,57.87,31.68Zm4.21-2.95v-.08A6.34,6.34,0,0,1,58,26.89c.11.59.15.73.56,1,.69.45,1.41.86,2.12,1.28.06,0,.15.06.2,0C61.29,29.06,61.69,28.89,62.08,28.73Zm9.55,28.42.07-.08c-.35-.37-.69-.76-1.06-1.11a1.19,1.19,0,0,0-.57-.31,7.2,7.2,0,0,0-1.14,0,1.39,1.39,0,0,0-.31.1,8.45,8.45,0,0,1,.92.73,1.16,1.16,0,0,0,.95.46A1.77,1.77,0,0,1,71,57Zm24.5,24.3v-.07l-.19,0c-.51,0-1-.08-1.52-.09a6.8,6.8,0,0,0-2.06.14,3.3,3.3,0,0,1-2.17,0,.54.54,0,0,0-.18,0l.45.39a.35.35,0,0,0,.22.08c.3,0,.6,0,.9,0s.88-.1,1.32-.11c.71,0,1.41,0,2.11,0A8.45,8.45,0,0,0,96.13,81.45ZM114.2,55.64a8.66,8.66,0,0,1-3.85,2A3.19,3.19,0,0,0,114.2,55.64ZM92.94,54.1c-.27.54-.33.61,0,1.08a20.45,20.45,0,0,0,1.39,1.69.24.24,0,0,0,0-.2l-.72-2.18a.27.27,0,0,0-.14-.14Zm24.49-6.43h.09a1.26,1.26,0,0,0,0-.33c-.13-1.21-.28-2.41-.4-3.61a5.41,5.41,0,0,0-.69-1.91,1.92,1.92,0,0,0-.13-.17.49.49,0,0,0,.06.3,5.88,5.88,0,0,1,.35,1.05c.21,1.42.37,2.83.56,4.25A3,3,0,0,0,117.43,47.67ZM70.54,16.26a2.25,2.25,0,0,0-.15-1.12c-.41-.8-1.2-1-1.92-1.33l-.08.09Zm39,64.14,0-.07a27.15,27.15,0,0,1-5.13,1.21.69.69,0,0,0,.34,0l3.71-.39a.58.58,0,0,0,.26-.09ZM93.75,49.25l-.11,0c-.08.26-.17.52-.23.79a8.58,8.58,0,0,1-1,2.62c-.31.48-.59,1-.87,1.47a2.24,2.24,0,0,0-.11.31l.13.07c.35-.46.73-.91,1-1.39a3.9,3.9,0,0,0,.5-1c.16-.52.23-1.07.35-1.6S93.64,49.66,93.75,49.25Zm-27.4,30c-.08-.28-.16-.48-.21-.69s-.12-.23-.31-.18c-.52.15-1,.27-1.56.41-.09,0-.22.13-.23.2s.1.27.3.27c.36,0,.72,0,1.08,0Zm20.81-52a7.17,7.17,0,0,0,.41-.89.9.9,0,0,0,0-.61c-.56-.92-1.15-1.81-1.73-2.71a2.13,2.13,0,0,0,.18.52C86.49,24.77,87.24,25.87,87.16,27.27Zm8.56,0c-.74-1-2.41-1.56-3.32-1Zm-39.34,27,1.8.63-.8-1.72Zm2.11-25.48.08,1.66L60,29.66Zm-5,16,.68.18c.24.06.52.23.69.15s.26-.4.38-.62c0,0,0,0,0-.06l-.5-.59ZM76.85,57.61c.22.47.41.89.63,1.3a.42.42,0,0,0,.25.2c.32.1.64.18,1,.28-.07-.23-.08-.53-.23-.65C78,58.34,77.43,58,76.85,57.61ZM68.6,12.35l0-.18a10.83,10.83,0,0,0-3.56-.7l0,.11Zm30.66,48-2-1.27c.17.38.35.77.54,1.15,0,0,.09.11.14.11Zm-41.36-15-.78,1,.23.26L58.63,46ZM72.12,15.62,72.35,17l1.07-.68Zm37,69.82a.47.47,0,0,0,.54-.4,12.67,12.67,0,0,0,.09-1.4c-.28.06-.47.14-.43.47a3.75,3.75,0,0,1,0,.67.77.77,0,0,1-.07.26ZM85,32.83l.15-1.56-.05,0-.72.89Zm31,28.29.82,3.3.08,0C116.7,63.29,116.75,62.11,116,61.12ZM69.79,22a1.36,1.36,0,0,0-.11.28c-.05.57-.09,1.14-.13,1.72a.22.22,0,0,0,.08.15l.77.61C69.58,24,69.7,23,69.79,22ZM95.63,56.54l.15,0-.91-4.06-.1,0Zm-2.66,0,0,0-.92-.87-.47.43Zm3.52,29,.67,2.25c-.08-.71-.21-1.41-.32-2.11C96.8,85.46,96.69,85.44,96.49,85.52Zm3-52c.26,0,.39-.12.35-.36s-.13-.68-.2-1a.83.83,0,0,0-.15-.25Zm-20.12,26-.08,0a4.8,4.8,0,0,1,.23,2.35c.1-.07.22-.16.21-.25,0-.58-.08-1.17-.15-1.75A1.19,1.19,0,0,0,79.39,59.46Zm28.39,31.75.23-1.69A1.39,1.39,0,0,0,107.78,91.21ZM59.91,10.43v.09a2.08,2.08,0,0,0,1.76.07Zm4,68.82.06-.08c-.08-.08-.16-.23-.22-.22-.35.06-.68.15-1,.24v.06Zm36.76-46.2-.3-.42.07.95h.07Zm5.17.84V34l.92.1v-.11Zm3.27,60.67-.1,0,.29.86.11,0ZM57.85,53.67c-.09-.35-.16-.64-.23-.93C57.49,53,57.54,53.22,57.85,53.67Zm18-20.38-.09,0-.41.94.06,0Z"/><path d="M45.93,58.47a13.38,13.38,0,0,1,1.71-1.14c1-.47,2-.82,3-1.21l.12,0a14.85,14.85,0,0,1,4.41.31,9.28,9.28,0,0,1,3.23,1.92.68.68,0,0,1,.1.21c-.09,0-.19,0-.26,0l-1.33-.6a11.81,11.81,0,0,0-4.54-1,8.55,8.55,0,0,0-3.1.5c-1,.35-2,.67-3,1l-.32.1Z"/><path d="M52.66,25.81a6.05,6.05,0,0,1-2.4-2.87l.08-.06.78.84a4.94,4.94,0,0,0,1.41,1.2c.82.42,1,.38,1.63-.27s1.09-1,1.64-1.51a.45.45,0,0,1,.29-.11,25.28,25.28,0,0,1-2.3,2.7,1.86,1.86,0,0,0,.22.19c.28.1.37.24.22.47s-.07.3,0,.46c.59.92,1.16,1.86,1.73,2.8a2.58,2.58,0,0,1,.2.55c0,.08,0,.18-.07.26s-.22,0-.27-.09c-.21-.3-.41-.6-.6-.91-.53-.89-1-1.79-1.57-2.68-.08-.13-.25-.2-.37-.31s-.28-.3-.44-.46c-.2.29-.39.58-.6.85a5.68,5.68,0,0,1-.52.57c-.06.06-.16.06-.24.09s0-.22,0-.27c.33-.45.69-.88,1-1.31Z"/><path d="M40.54,9.75a2.06,2.06,0,0,1,.35-.12c1.93-.29,3.84-.63,5.78-.84a56.88,56.88,0,0,1,7.5-.31c.46,0,.91.07,1.36.11a1.83,1.83,0,0,1,.25.08l0,.11a1.42,1.42,0,0,1-.33.11c-.65,0-1.3.08-1.95.1-1.78.06-3.57,0-5.34.18-2.43.17-4.84.45-7.26.68l-.35,0Z"/><path d="M97.56,63c.16.49.34,1,.47,1.46a8.45,8.45,0,0,0,1.45,3.13,2.11,2.11,0,0,1,.26.52c.06.18,0,.28-.21.18a2.15,2.15,0,0,1-.41-.32,6.61,6.61,0,0,1-1.51-3.15c-.11-.5-.13-1-.19-1.51a1.36,1.36,0,0,1,0-.29Z"/><path d="M93.82,66.52c.46-1.22.15-2.46.15-3.69a10.37,10.37,0,0,1,.11-1.25c0-.09.14-.16.21-.23s.16.14.18.22a4.62,4.62,0,0,1,.19,1,8,8,0,0,1-.21,2.71,11.24,11.24,0,0,1-.55,1.3Z"/><path d="M63,86.29l13.13-.75v0c-2.19.19-4.37.43-6.56.57s-4.37.37-6.56.3Z"/><path d="M48.67,36.6a47.76,47.76,0,0,1,3.88,7.52c-.28.11-.39,0-.5-.26-.74-1.64-1.48-3.28-2.25-4.92-.31-.68-.68-1.35-1-2A3,3,0,0,1,48.67,36.6Z"/><path d="M118.25,53.39c.18-.34.36-.61.5-.9a10.35,10.35,0,0,0,1.06-3.1,1.6,1.6,0,0,1,0-.21,6.48,6.48,0,0,0,.21-3,.35.35,0,0,1,.06-.25c.05.44.1.89.16,1.33a8.41,8.41,0,0,1-1.6,5.57c-.1.18-.23.35-.34.52Z"/><path d="M110,62.29l-.34-.58c-.45-.8-.91-1.59-1.36-2.4,0-.08,0-.21,0-.32s.22,0,.26.08a7.57,7.57,0,0,1,1.5,2.61,3.81,3.81,0,0,1,.07.59Z"/><path d="M70.35,72.38A24.55,24.55,0,0,1,72.57,78c-.09-.16-.2-.32-.27-.48-.23-.56-.47-1.11-.68-1.67C71.19,74.7,70.77,73.54,70.35,72.38Z"/><path d="M49.83,44.18a1.14,1.14,0,0,1-.26-.28c-.34-.71-.64-1.44-1-2.14-.5-1-1-1.95-1.56-2.93-.26-.5-.49-1-.74-1.53l.11,0L50,44.08Z"/><path d="M63.79,64.27A15.92,15.92,0,0,1,62.4,69.6l0-.09a22.44,22.44,0,0,0,1.08-4.72,2.38,2.38,0,0,1,.23-.55Z"/><path d="M95.76,76.41a3.28,3.28,0,0,1-.55,1.27,5.75,5.75,0,0,1-1.88,1.59c-.49.27-1,.5-1.5.74a.35.35,0,0,1-.29,0c.51-.29,1-.55,1.52-.88a13.46,13.46,0,0,0,1.69-1.29,5,5,0,0,0,.71-1.08c.08-.13.15-.27.22-.41Z"/><path d="M104.59,78.91c-1.33-1.09-2.36-2.49-3.61-3.67l0-.08a1.24,1.24,0,0,1,.23.12c.69.67,1.39,1.33,2,2,.47.49.89,1,1.34,1.55Z"/><path d="M66.58,73.79a7.92,7.92,0,0,1-1.85-4.27l.14-.06a2.07,2.07,0,0,1,.14.42A8.57,8.57,0,0,0,66,72.62C66.17,73,66.37,73.4,66.58,73.79Z"/><path d="M55.24,80.26a1.34,1.34,0,0,1-.16-.37c-.16-.83-.3-1.66-.44-2.5-.1-.6-.18-1.22-.27-1.83h.1l.87,4.67Z"/><path d="M91.27,69.3a4.56,4.56,0,0,1,1.22-1.18,5.85,5.85,0,0,0,1-.82A3.32,3.32,0,0,1,91.27,69.3Z"/><path d="M49.08,81.2H47.74a2.06,2.06,0,0,1,0,.5c0,.1-.15.18-.24.26-.07-.08-.19-.16-.21-.26-.09-.47,0-.55.42-.68L49,80.67Z"/><path d="M91.87,79.08a.28.28,0,0,1-.2.38c-.54.19-1.08.39-1.63.57-.25.09-.51.15-.77.22a2.4,2.4,0,0,1-.28,0l0-.11Z"/><path d="M47.34,44.27c-.11-.07-.26-.11-.32-.21-.59-1-1.17-1.93-1.75-2.89a.54.54,0,0,0,0-.08,14.74,14.74,0,0,1,2.12,3.09Z"/><path d="M66.18,71.41l2.07,4.24,0,0-.23-.3a1.83,1.83,0,0,0-.71-.8c-.08,0-.11-.2-.16-.31l.08-.05.24.23-1.34-3Z"/><path d="M45.17,44.31c-.08,0-.2-.05-.24-.11-.54-.85-1.07-1.7-1.6-2.55a.86.86,0,0,1,0-.18l1.87,2.76Z"/><path d="M50.18,80.15c-.23,0-.31-.11-.34-.29-.16-.89-.31-1.78-.4-2.67Z"/><path d="M42.3,45.2v.53c-.37-.06-.72-.11-1.06-.18-.06,0-.1-.1-.15-.16s.12-.12.19-.13C41.6,45.23,41.93,45.22,42.3,45.2Z"/><path d="M76,61.14l-.26-2A2,2,0,0,1,76,61.14Z"/><path d="M51.15,78.11l.54,2.56A5.78,5.78,0,0,1,51.15,78.11Z"/><path d="M63.67,63.56l-.39-1.77A4.15,4.15,0,0,1,63.67,63.56Z"/><path d="M49.33,73v1.51h-.07V73Z"/><path d="M86.1,47.13l-.18,0c.08.35.15.67.25,1a.38.38,0,0,0,.28.14,3.14,3.14,0,0,1,1.63.29,3.53,3.53,0,0,1,.32.21l0,.1-.46-.07c-.57-.06-1.14-.14-1.72-.18a.49.49,0,0,0-.33.2,5.11,5.11,0,0,0-.41.62.57.57,0,0,1-.6.31.51.51,0,0,1-.43-.5s0-.05,0-.1a31.54,31.54,0,0,0-3.9,2.28c1.27-1.23,2.44-2.6,4.28-3a.52.52,0,0,0-.16-.67,2.46,2.46,0,0,1-.72-2.21,2,2,0,0,1,.89-1.19c-.21.55-.64,1-.54,1.68a3.21,3.21,0,0,0,.88,1.67c.22-.5.43-.95.61-1.4a5.39,5.39,0,0,0,.22-.68A4.18,4.18,0,0,1,88.36,43l.14,0a5.54,5.54,0,0,0-2.37,3.31l.71-.87A11.83,11.83,0,0,1,89,43.39a8.9,8.9,0,0,1,1.13-.64,1.84,1.84,0,0,1,.42-.08l0,.11a2.38,2.38,0,0,1-.31.26,13.53,13.53,0,0,0-3.92,3.54A3.48,3.48,0,0,0,86.1,47.13Z"/><path d="M76.23,42.32c-.73-.44-1.34-.88-1-1.81a2.24,2.24,0,0,0,1.16,1.4c.17-.22.32-.53.7-.49,0,0,.1-.13.11-.2a4.29,4.29,0,0,1,2.77-3.3c.21-.08.42-.19.63-.28l0,.07c-.23.19-.44.39-.68.56a5.86,5.86,0,0,0-2.2,2.6,8.6,8.6,0,0,0-.26,1.21,15.58,15.58,0,0,1,1.63-.45,12.71,12.71,0,0,1,1.85-.05,1.46,1.46,0,0,1,.49.23l0,.13c-.14,0-.28,0-.42,0a7.67,7.67,0,0,0-3.25.53.64.64,0,0,0-.46.68,6.75,6.75,0,0,0,.65,3.13.55.55,0,0,1,.06.18s0,0,0,.09a.94.94,0,0,1-.65-.62,7,7,0,0,1-.43-2.31,2.08,2.08,0,0,1,0-.25h-.45l-.23-.55a3.62,3.62,0,0,0-2.53,1.58,3.72,3.72,0,0,0-.74,2.83A3.94,3.94,0,0,1,76.23,42.32Z"/><path d="M93.52,42.25a2.24,2.24,0,0,1-.53,0,1.56,1.56,0,0,1-.36-.23c.1-.11.17-.28.3-.33a3.91,3.91,0,0,1,1.86-.24l.24,0a3.74,3.74,0,0,1,1.86-2.91c.73-.56,1.54-1,2.32-1.49a1.83,1.83,0,0,1,.33-.11l0,.08a1.26,1.26,0,0,1-.22.24c-.8.62-1.62,1.23-2.41,1.86a4.57,4.57,0,0,0-1.36,1.75A5.52,5.52,0,0,0,95.36,42a1.29,1.29,0,0,1-.08.28H95.2c0-.07-.07-.14-.06-.21,0-.37-.17-.46-.49-.42s-.34,0-.5,0C93.66,41.69,93.64,41.72,93.52,42.25Z"/><path d="M92.89,45.7a1.93,1.93,0,0,1-.64-.15,1.85,1.85,0,0,1-1-1.62,5.43,5.43,0,0,1,.07-1,.77.77,0,0,1,1-.73,4.51,4.51,0,0,1,.53.07,1.68,1.68,0,0,1,.51.24c-.23.08-.53,0-.58.35,0,0-.18.06-.28.06s-.25.09-.25.27a1.75,1.75,0,0,0,.6,1.58c.18.15.15.54.22.82Z"/><path d="M87.12,55.46a6.55,6.55,0,0,1,1-1.12,7.75,7.75,0,0,0,2.33-2.73c.44-.76.79-1.57,1.19-2.35a1.68,1.68,0,0,1,.16-.33,1.21,1.21,0,0,1,.3-.2,1.22,1.22,0,0,1,0,.33,1.39,1.39,0,0,1-.12.28,17,17,0,0,1-3,4.59c-.5.52-1.09,1-1.64,1.43a.82.82,0,0,1-.28.14Z"/><path d="M105.25,56.15a4,4,0,0,1-3.63-1.06,5.47,5.47,0,0,1-.51-.45c-.06,0-.06-.16-.09-.24s.2,0,.27,0c.67.33,1.32.69,2,1s1.19.46,1.79.69Z"/><path d="M58.36,37.4l.11.29.63-.53,0,0-.9,1.07,0,0a3.6,3.6,0,0,1,.37-.22,8.58,8.58,0,0,1,.82-.37.74.74,0,0,1,.39,0s.08.13.08.2-.11.1-.13.09c-.32-.18-.56,0-.78.19-.48.29-.92.66-1.38,1a1.92,1.92,0,0,1-.36.14c0-.14-.08-.32,0-.42C57.61,38.42,58,37.94,58.36,37.4Z"/><path d="M63.12,40.55C61.54,41.69,60,42.81,60,45.08a1.74,1.74,0,0,1-.11-1.3,3.91,3.91,0,0,1,.81-1.5,5.44,5.44,0,0,1,2-1.64l.23-.08Z"/><path d="M60.23,41.79a6.51,6.51,0,0,0-.63.76,1.92,1.92,0,0,0-.27.77c0,.43,0,.87,0,1.3a.61.61,0,0,1,0,.19,1.67,1.67,0,0,1-.16.24c0-.08-.15-.15-.16-.23,0-.38,0-.77-.1-1.15a1.13,1.13,0,0,1,.55-1.28,5.2,5.2,0,0,0,.77-.65Z"/><path d="M63,41.89c-.39.43-.78.83-1.14,1.26a2.73,2.73,0,0,0-.66,1.5l-.1,0a2.28,2.28,0,0,1,0-.64,4,4,0,0,1,1.12-1.72A3.25,3.25,0,0,1,63,41.89Z"/><path d="M65,41.61a15.3,15.3,0,0,0-1.32,1.06c-.39.38-.71.85-1.12,1.34a1,1,0,0,1,0-.37,3.43,3.43,0,0,1,1.28-1.49c.35-.22.73-.39,1.1-.58Z"/><path d="M73.43,53.06a17.92,17.92,0,0,0,4.85,2.52C77.4,55.43,73.93,53.93,73.43,53.06Z"/><path d="M110.51,37a13.79,13.79,0,0,1,2.41,1.33l0,.09-2.42-1.31Z"/><path d="M66.39,42.53a5.2,5.2,0,0,1,1.51-1.22l.08.1Z"/><path d="M67.49,42.5l-.84,1.67A2.81,2.81,0,0,1,67.49,42.5Z"/><path d="M106.69,35.2l1.19.74-.06.1-1.2-.74Z"/><path d="M83.64,31.61c0-.18-.06-.41,0-.55A13.55,13.55,0,0,1,86,28.29c-.66.85-1.43,1.84-2.19,2.85a1.85,1.85,0,0,0-.19.48Z"/><path d="M88.54,34.94a3.39,3.39,0,0,1,1.9-3.34c-.2.19-.36.33-.5.48a12.11,12.11,0,0,0-.82.93,1.89,1.89,0,0,0-.47,1.31A2.69,2.69,0,0,1,88.54,34.94Z"/><path d="M89.37,30.71a8,8,0,0,0-1.91,2.4A3.69,3.69,0,0,1,89.37,30.71Z"/><path d="M87.57,33.75l.39.72c-.13,0-.28.11-.33.06-.23-.19-.2-.47-.18-.73Z"/><path d="M101.28,91.67a2.61,2.61,0,0,1-.77-1,10.5,10.5,0,0,1-.82-3.33q.86,2.15,1.7,4.3Z"/></svg>