<svg id="Layer_1" data-name="Layer 1" xmlns="http://www.w3.org/2000/svg" viewBox="0 0 160 112" width="160mm" height="112mm" ><defs><style>.cls-1{fill:#fff;}</style></defs><title>sketch</title><path d="M104.63,27l-.16-.85c.46.12.38.6.69.81a1.22,1.22,0,0,0,.2-.28.56.56,0,0,1,.67-.42,1.52,1.52,0,0,1,.6.11,5.6,5.6,0,0,0,2.86.37c1.12-.05,2.25-.14,3.37-.2,1.36-.07,2.73-.12,4.09-.16a7.48,7.48,0,0,1,1.06.12,10.4,10.4,0,0,0,1.11.1c.24,0,.42,0,.49.27a.64.64,0,0,0,.66.46l1.44,0h.86a.94.94,0,0,1,.13.85,3.81,3.81,0,0,1-.24.67,4.82,4.82,0,0,0-.4,2.8c.12,1,.23,2,.34,3l16.43,8.61c0,.17,0,.36,0,.54-.1,1.34-.22,2.69-.31,4,0,.63,0,1.27-.05,1.9a.86.86,0,0,0,.49.85,60.76,60.76,0,0,0,6.36,3.17L151,56.3l.46.22c-.08.2-.21.36-.2.51a12.16,12.16,0,0,1-.55,4c-.09.31-.17.62-.25,1l.48.09c-.14.33-.28.63-.4.95a.62.62,0,0,0,.29.85c-.37,0-.47.18-.5.48-.13,1.47-.29,2.92-.44,4.38-.07.63-.13,1.25-.2,2l-.32-.35a.27.27,0,0,0-.09,0,11.07,11.07,0,0,1-1.27.11,6.48,6.48,0,0,0-3.45.88,3.23,3.23,0,0,0,.44,0L147,71a4.52,4.52,0,0,1,1.6,0,.42.42,0,0,1-.35.43,1.74,1.74,0,0,1-.8.12,12.76,12.76,0,0,0-4.77.21c-1.77.3-3.53.62-5.3.89-.64.09-1.29.06-1.94.09-.12,0-.29,0-.35,0-.33.33-.69.19-1.05.13-.08,0-.17,0-.37,0l.36.23-1.38.16c1,.2,1.83-.21,2.67.15l-1.61.19c-2.19.28-4.38.43-6.58.56-.92,0-1.83.23-2.74.37a1.6,1.6,0,0,0-.84.35c-.09.08-.28.07-.46.1l-.18.34c-.66,0-.87-.1-.83-1-.15-.11-.32-.25-.5-.37l-4.08-2.84a36.39,36.39,0,0,1-4.36-3.46,4.07,4.07,0,0,0-1-.63.86.86,0,0,0-.45,0c-.75.1-1.49.22-2.23.31-1.08.13-2.16.25-3.24.34s-2.14.15-3.21.25c-2.41.22-4.82.46-7.24.67-.92.08-1.84.09-2.76.14a2,2,0,0,0-1.06.25,2.35,2.35,0,0,1-1.05.17c-1,.07-2,.09-3,.19-1.72.16-3.43.36-5.14.56-2,.22-4,.53-6.06.57-1.11,0-2.21.21-3.31.33-1.54.17-3.09.32-4.63.5-1.73.21-3.45.45-5.17.66-.9.11-1.81.16-2.71.24l-4.07.39L52.2,73c-.27,0-.54.09-.8.14-.22.45-.22.45-.72.43v.92c0,.53,0,1.06,0,1.59,0,.27.09.57-.22.78-.07,0-.06.22-.07.34-.05,1.09-.09,2.18-.13,3.27,0,.34,0,.68,0,1.09-.28,0-.51,0-.74,0a5.31,5.31,0,0,1-.7,0,1.54,1.54,0,0,0-1.32.35.73.73,0,0,1-.42.14c-.92.16-1.86.24-2.77.46a40,40,0,0,1-7.86,1l-.23,0a.79.79,0,0,1-.75.62c-.63.09-1.25.32-1.88.45s-1.24.22-1.87.28c-1.39.14-2.79.25-4.18.37a1.19,1.19,0,0,1-.58-.1c1.09-.24,2.2-.32,3.29-.45s2.24-.27,3.35-.45l-1.26.07c-2.54.14-5.07.37-7.59.72-1.23.17-2.46.43-3.68.65a3.71,3.71,0,0,1-1.52,0c-.42-.09-.84-.14-1.3-.23A4.07,4.07,0,0,0,18,83.23c-.75-2.61-1.66-5.16-2.65-7.69l-.36-1c-.18-.47-.22-.51-.7-.45l-1.72.26a3.05,3.05,0,0,1-.41,0,.94.94,0,0,1-.48-.1c-.06,0,0-.27,0-.41a8.74,8.74,0,0,0-.07-1,27.41,27.41,0,0,0-.63-3.2c-.53-1.85-.88-3.75-1.29-5.63-.16-.71-.31-1.42-.47-2.14l-.41.16c0-.21,0-.37,0-.54,0-1.14,0-2.29,0-3.43,0-3.26-.08-6.52.06-9.78,0-1,0-1.94-.09-2.91s-.07-2-.11-3c0-.12,0-.23,0-.36a13.7,13.7,0,0,1,1.51-.27c.5,0,1,0,1.54,0a5.6,5.6,0,0,0,.07-.59,17.23,17.23,0,0,1,.4-3c.07-.56.14-1.12.19-1.68a1.32,1.32,0,0,0,0-.56,4.65,4.65,0,0,1,0-1.93c.09-.73.2-1.45.29-2.18a.7.7,0,0,1,.36-.58c.56-.32,1.12-.65,1.69-.95a.72.72,0,0,1,.84.14,4.73,4.73,0,0,0,1.24.69,2.28,2.28,0,0,0,1,0c-.25-.13-.6,0-.77-.34.1-.21.3-.21.48-.23l3.82-.37a.68.68,0,0,1,.35,0,2.23,2.23,0,0,0,1.2.12l1,0,1.77-.05v-.11l-2.59.16,0-.14a1.83,1.83,0,0,1,.33-.11,39.46,39.46,0,0,1,8.05-.63c.45,0,.91.13,1.36.17a2.68,2.68,0,0,0,.75,0c.44-.08.87-.18,1.3-.28a2.68,2.68,0,0,1,1.63.1l0-.21a33.81,33.81,0,0,1,7.41-.43c-2,.28-4,.13-6.13.4a.81.81,0,0,0,.69.16,3.36,3.36,0,0,1,1.26.09,2.77,2.77,0,0,0,1.37,0c.5-.12,1-.23,1.5-.31a1.34,1.34,0,0,1,1,.13l-.5.05v.1c.25,0,.51,0,.76,0l2.61-.17.61,0c.12,0,.26,0,.35,0,.58-.32,1.21-.12,1.8-.2.35-.05.69-.17,1-.25a2.08,2.08,0,0,1,.48-.11c1.47-.06,2.94-.08,4.4-.15s2.9-.19,4.34-.29L63,27.82c1.08-.06,2.15-.08,3.22-.13a.6.6,0,0,0,.36-.14.9.9,0,0,1,1.24-.07.39.39,0,0,0,.28.05,27.27,27.27,0,0,1,4.23-.23,9,9,0,0,0,1.16-.13c.13,0,.24-.05.37.09s.29.06.44,0c1,0,2.08-.09,3.12-.11a7.22,7.22,0,0,1,1.47.1,8.84,8.84,0,0,0,2.24,0A58.88,58.88,0,0,1,88,27c.51,0,1,.11,1.52.16a2.82,2.82,0,0,0,.41,0l5.21-.31,4.35-.26c1-.05,1.94-.08,2.91-.12a2.07,2.07,0,0,1,.61.05l-5.23.37V27h1.07c1,0,2.08,0,3.12,0a7,7,0,0,0,1.37-.14.94.94,0,0,1,.77.08A1.62,1.62,0,0,0,104.63,27ZM93.73,58.9v-.35a.76.76,0,0,0-.71.64l.69-.25a1.06,1.06,0,0,0,1.22-.11,1.82,1.82,0,0,0,.14-.28A1.36,1.36,0,0,0,93.73,58.9ZM61,61.57l0-.32c-.58.16-.66.23-.78.66a1.22,1.22,0,0,0,.76-.35c0,.12,0,.27.14.26a5.49,5.49,0,0,0,1-.14.4.4,0,0,0,.31-.44C61.81,61.17,61.81,61.17,61,61.57ZM135.85,67l0-.41c-.12,0-.25,0-.27.06-.13.28-.38.25-.61.28a2.36,2.36,0,0,0-.45.08.31.31,0,0,0-.23.4,2.91,2.91,0,0,0,1.61-.43s.09.13.13.13a3.11,3.11,0,0,0,1.54-.24.61.61,0,0,0,.4-.51c-.32,0-.6.09-.89.1A1.54,1.54,0,0,0,135.85,67ZM15.72,65.84c.23,0,.2-.18.22-.33.05-.8.13-1.6.16-2.4a1.26,1.26,0,0,0-.34-.9c0,.57,0,1.15,0,1.73a5.51,5.51,0,0,0,0,1.9,3.35,3.35,0,0,0,0,1.51.47.47,0,0,0,.17-.28A2.87,2.87,0,0,0,15.72,65.84Zm50.67-20.5,0,.18h.55v-.09l-.56-.07.84-.2-.12-.5a8.47,8.47,0,0,0-2.82,1,1.06,1.06,0,0,0,.31,0ZM111.3,63h0a.73.73,0,0,0,.59.45V61.88a.49.49,0,0,0-.44-.55l-.15.37c0-.4,0-.4-.21-.57,0,.42-.1.82-.13,1.23A.62.62,0,0,0,111.3,63ZM10.92,52.33l-.05.55h.05v-.55a3.76,3.76,0,0,1,0-1.53.39.39,0,0,1,.13.22c.08.47.15.94.22,1.41,0,.12,0,.29.22.24A20.94,20.94,0,0,0,10,47.24l.61,15.49s0,0,0,0a83.2,83.2,0,0,0-.15-10.11c-.11-1,0-2.08-.05-3.12a1.87,1.87,0,0,1,.07-.4.65.65,0,0,1,.14.35l.15,2.45C10.79,52,10.71,52.23,10.92,52.33Zm132,17.36a4.9,4.9,0,0,1,.21-.46L144.49,67c.15-.26.27-.53.41-.8-.26-.12-.34,0-.44.14l-.92,1.09a2.28,2.28,0,0,1-.33.29l.49-.83c.09-.18.16-.38.26-.63-.58.09-1.06.18-1.55.24a.82.82,0,0,0-.63.45c-.63,1-1.29,2-1.94,3l-.12.17-.11.11c.57-1.26,1.51-2.29,2.07-3.6l-1.22.18c-.62.9-1.21,1.75-1.78,2.62-.29.45-.54.94-.8,1.42a1.5,1.5,0,0,0-.07.32c1-.17,1.89-.31,2.8-.48a.59.59,0,0,0,.37-.22c.54-.65,1.07-1.33,1.6-2a2.89,2.89,0,0,1,.35-.35l-.79,1.16-.78,1.15a1,1,0,0,0,1-.18l.4-.3v.34c.39,0,.74-.1,1.09-.11a.48.48,0,0,0,.45-.26q1.31-1.86,2.6-3.74a2.55,2.55,0,0,0,.18-.39c-.5.07-.92.16-1.33.19a.68.68,0,0,0-.6.39c-.65,1.06-1.32,2.11-2,3.15A1.11,1.11,0,0,1,142.89,69.69Zm-8.34,1.59v.39l.72-.11a.75.75,0,0,0,.59-.43c.19-.36.43-.69.64-1L138,67.67c.09-.16.15-.32.25-.51-.7,0-.69,0-1,.46-.48.64-1,1.26-1.47,1.89a2.31,2.31,0,0,1,.21-.45c.26-.38.54-.75.81-1.12.13-.17.31-.33.2-.61a10,10,0,0,1-1.06.15.59.59,0,0,0-.51.28l-2.53,3.83a2.16,2.16,0,0,0-.15.34A1.92,1.92,0,0,0,134.55,71.28Zm-121-1.81c-.08.14-.14.27-.22.4l-1,1.44a2.63,2.63,0,0,0-.13.32c.25-.11.3-.41.62-.35v.53a16.64,16.64,0,0,0,1.49-2.26,1.25,1.25,0,0,0,0-1.16l.3-.62.16.79a3.54,3.54,0,0,0,.11-2.14L13.73,68.1a4.73,4.73,0,0,1,.7-1.24,2.78,2.78,0,0,0,.63-2.13c0-.44,0-.9,0-1.36l-.12,0a.91.91,0,0,0-.11.16,12,12,0,0,1-1.39,2.27,4.53,4.53,0,0,0-.52.88c-.21.4-.38.83-.6,1.23A1.63,1.63,0,0,0,12.18,69c.2-.34.34-.59.49-.83s.32-.53.48-.79l.47-.73a1.65,1.65,0,0,1,.57-.63,4.12,4.12,0,0,1-.34.7l-1.57,2.63a2.12,2.12,0,0,0-.09,1.51ZM38.33,81l-.12.57a2.08,2.08,0,0,0,1.9-.83l-.31.55c1.2-.14,1.2-.14,1.59-.67v.34a4.93,4.93,0,0,1,.66,0c.93.08.92,0,1.29-.69.25-.49.54-1,.81-1.45l-.78,1.76.49.06c-.31.29-.84.27-.82.85l2.16-.38c.08-.24.13-.48.22-.69a6.33,6.33,0,0,1,.39-.61l.07,0-.15,1.13.05,0,.17-.34c.61-.08,1.09-.3,1.2-1,0,0,0-.12.05-.12.3,0,.31-.31.39-.48.38-.77.74-1.54,1.08-2.32a9.37,9.37,0,0,0,.31-.89c-1,0-1.87.08-2.77.06a.74.74,0,0,0-.83.56,5.42,5.42,0,0,1-.32.69c-.29.54-.6,1.07-.9,1.6l1.27-2.81a4.53,4.53,0,0,0-1.7.06,11.08,11.08,0,0,1-.48,1.2c-.61,1.16-1.25,2.3-1.88,3.44.16-.37.31-.75.49-1.11.45-.92.92-1.84,1.42-2.85-.49.17-1,.11-1.18.51-.12-.07-.22-.17-.31-.17-.32,0-.64.09-1,.15a.35.35,0,0,0-.31.44l.56,0c-.59-.08-.81.3-1.06.75-.39.69-.88,1.32-1.33,2,.2-.41.39-.83.6-1.23s.45-.83.72-1.33c-.43,0-.76,0-1.09,0a.51.51,0,0,0-.51.34,6.1,6.1,0,0,1-.39.71l-.1,0,.42-.91c-.49-.08-.49-.09-.69.27-.53.9-1,1.8-1.58,2.69a8.68,8.68,0,0,1-.56.79c.29-.56.57-1.12.88-1.67.47-.82,1-1.63,1.47-2.51l-2.61.29-1.57,3a22.36,22.36,0,0,1,1.35-3l-.76.11-2.94,5.17.6-.07a3.13,3.13,0,0,1,.6-.1,6.83,6.83,0,0,0,2.06-.28c.07,0,.14-.09.27-.17L34,82.43a3.16,3.16,0,0,1,.8-.24.77.77,0,0,0,.55-.34c.11.33.33.14.5.1s.21-.17.25-.14c.38.21.72-.06,1.08,0a1,1,0,0,0,1-.65C38.21,81.05,38.28,81,38.33,81Zm98-31.54a1,1,0,0,1,.85.26A1,1,0,0,0,138,50c.06-2.08.34-4.13.39-6.21a9,9,0,0,0-2.38,0,2.45,2.45,0,0,0,0,.47,2.42,2.42,0,0,1,0,.89c-.13.89-.24,1.79-.37,2.68,0,.31-.12.63-.18,1l.52.25c.17.08.34.17.34.4-.25-.08-.48-.31-.89-.16l.79.43c.27.15.53.31.8.45.43.22.45.22.78.14ZM104.61,64.8c-1,0-2,.08-3,.15s-1.77.11-2.65.16a1.09,1.09,0,0,1,.23-.09c.44,0,.89-.07,1.33-.12.61-.06,1.23-.14,1.84-.22v-.1l-1,.06-3,.25c-.18,0-.39.08-.53-.11.8-.32,1.7.06,2.52-.42-.09,0-.12-.07-.15-.07-1.41.07-2.82.12-4.23.22s-2.85.27-4.27.41A2.34,2.34,0,0,0,91,65a2.28,2.28,0,0,1-1.34.13H89.5a8.42,8.42,0,0,0-3.56.65l-.5-.39.3-.17-.4,0-7,.76c-1,.1-2,.16-2.95.25a3.33,3.33,0,0,0-.55.1.38.38,0,0,0-.3.4c.73,0,1.43,0,2.13,0,.38,0,.75-.08,1.12-.1,1.14-.09,2.28-.16,3.42-.26l5.25-.45c1.67-.15,3.33-.27,5-.45,1.85-.2,3.69-.44,5.54-.66a.92.92,0,0,1,.67.12l-2.09.3v.07L99,65.1a2.9,2.9,0,0,1-.48.14l-2.28.29-.51.11a3.24,3.24,0,0,0,.93,0l3.46-.29,1.82-.16M85.63,62h0a1.5,1.5,0,0,1,.23-.15c.33-.09.66-.16,1-.24a.64.64,0,0,0-.36,0l-1.41.2c-.11,0-.29,0-.34,0-.17-.27-.4-.18-.63-.16-.55.05-1.09.12-1.63.14a.64.64,0,0,0-.61.36,20.7,20.7,0,0,1-2.29,3.2l-.33.4,1.48-.16a.77.77,0,0,0,.62-.36c.43-.62.89-1.22,1.34-1.81.13-.16.29-.29.43-.44l.1.09-1.66,2.4,1.34-.17,3-.34a.78.78,0,0,0,.64-.25c.5-.64,1-1.27,1.52-1.92a9,9,0,0,0,.56-.94c-.07-.06-.1-.1-.12-.09-.45.1-.94.08-1.22.57a5.12,5.12,0,0,1-.53.62L85.18,64.7l-.1.06-.27-.21a17.35,17.35,0,0,0,1.75-2.67Zm-72.38-.41c-.25.44-.51.88-.75,1.33a1.73,1.73,0,0,0-.2.62c-.05,1.19-.08,2.38-.11,3.58a1.51,1.51,0,0,0,.07.36c.42-.73.78-1.37,1.16-2a14.9,14.9,0,0,1,1.49-2.31c.26-.29.15-.67.07-1.09l-.74,1.08-.13-.07c.46-.56.38-1.33.86-1.87.06-.07,0-.23,0-.34,0-.34,0-.68,0-1l0-.52-.1,0-1.16,1.53a5.07,5.07,0,0,1,1-1.7A1,1,0,0,0,15,58.4c0-1.35,0-2.69.05-4a.65.65,0,0,0,0-.19l-.51.08.46-.6H13.18a1.83,1.83,0,0,0-.4.05.53.53,0,0,0-.48.55q0,.63,0,1.26l0,6.75c0,.12,0,.25,0,.37ZM130.11,39.4c-.18-.08-.38-.14-.55-.23L123,35.62c-.22-.12-.45-.22-.7-.34-.05.18-.08.3-.11.43-.1.43-.11.44.27.64.57.32,1.14.62,1.71.93,3.53,1.93,7,3.91,10.43,6.07a.91.91,0,0,0,.51.14c.43,0,.85,0,1.28,0s.75,0,1.12,0a.71.71,0,0,0,.61-.25c-3.64-1.83-7.14-3.87-10.79-5.63a1.57,1.57,0,0,0,.38.3l2.15,1.29a1.71,1.71,0,0,1,.25.22ZM9.55,45.05a1.19,1.19,0,0,0,.61.58c.4.21.8.44,1.19.69a6.09,6.09,0,0,1,.55.46l-.06.06-2-1.15c.15.52.26.93.39,1.33a44.89,44.89,0,0,1,1.9,6.41l.08.24,2.6-.56c-.16-.54-.27-1-.43-1.49s-.13-1-.54-1.29a.31.31,0,0,1-.05-.24,6.66,6.66,0,0,0-.58-2.32.54.54,0,0,0-.4-.41,3.67,3.67,0,0,1-.6-.29l0-.09.7.11c-.26-1.11-1.14-1.6-2-2.13-.4-.25-.83-.45-1.25-.68L9.4,44c0,.06-.05.11,0,.12l1.91,1.48c-.77-.06-1.18-.64-1.78-1l.07.45-.18,0,.11.24ZM70.1,57.93c-.09.15-.17.29-.27.43l-1.32,1.82c-.06.09-.11.19-.16.28l.09.08.87-.71,0,0-.4.65h.51a.73.73,0,0,0,.76-.36c.39-.55.82-1,1.24-1.57.74-.94,1.49-1.87,2.23-2.8a4.05,4.05,0,0,0,.21-.35l-.08,0-.45.31-.07-.29a3.34,3.34,0,0,1-.45,0,1,1,0,0,0-1,.43c-.51.66-1.07,1.28-1.61,1.91a1.59,1.59,0,0,1,.4-.86c.33-.43.63-.87,1-1.38a2.33,2.33,0,0,0-.54-.05c-.44.05-.87.12-1.31.2a.47.47,0,0,0-.24.16L68.36,57l-.36.31-.06-.06,1.13-1.59c-.61.05-1.17.09-1.73.15a.63.63,0,0,0-.33.21c-.26.28-.51.59-.77.88a26.17,26.17,0,0,0-2.77,3.54,3.93,3.93,0,0,0-.21.41.93.93,0,0,0,1-.35,1.19,1.19,0,0,1,.65-.5l-.61.7c.55.08,1,.08,1.25-.42a5.85,5.85,0,0,1,.54-.69.48.48,0,0,1,.47-.22l-.92,1.34a1.21,1.21,0,0,0,.4,0,3.12,3.12,0,0,1,1.36-.1.69.69,0,0,0,.64-.31c.35-.5.72-1,1.12-1.47S69.78,58.24,70.1,57.93Zm57.34,11.38h0l.17-.53-.71-.23L126,69.79l-.07-.05L127,68l-1.23.21A1.92,1.92,0,0,1,124,68c0,1.57-.08,3-.11,4.52.41.18,1-.07,1.23.42l.23-.16.07.33,1.39-.56-.1.26a1.31,1.31,0,0,0,1.23-.46c0,.25.09.32.28.29l.9-.14.34-.46.08,0,0,.34,1.55,0,.1,0a6.25,6.25,0,0,1,.84-.17.6.6,0,0,0,.54-.31c.78-1.24,1.58-2.47,2.37-3.71.07-.12.13-.25.22-.42l-1.3.13c-.1.14-.2.27-.29.41l-2.46,3.59c-.08.11-.11.29-.38.26.87-1.39,1.87-2.64,2.64-4.07a1.2,1.2,0,0,0-1.37.54c-.68,1.06-1.42,2.08-2.14,3.12a1,1,0,0,1-.21.2l-.09-.07a35.37,35.37,0,0,0,2.32-3.64,5.38,5.38,0,0,1-.75.1.68.68,0,0,0-.69.42c-.2.35-.42.7-.64,1a1.34,1.34,0,0,1-.51.49l1.08-1.73-.07-.1a2.79,2.79,0,0,1-.63.08.55.55,0,0,0-.55.36c-.44.73-.91,1.45-1.36,2.17-.08.12-.18.23-.27.35l-.08-.06c.44-.92,1.18-1.67,1.61-2.6-.18-.12-.37-.2-.28-.45a3,3,0,0,0,.45-.09.66.66,0,0,0,.33-.23c.05-.08,0-.22,0-.35l.29-.13,0-.12a1.34,1.34,0,0,0-.35,0,3.1,3.1,0,0,0-1.4,1.23ZM28.06,79.13h0l.08-.34-.67.08a.88.88,0,0,0-.78.53c-.61,1.07-1.27,2.11-1.91,3.16-.24.39-.48.78-.73,1.17,0,.07-.1.15-.15.22l-.09,0a3.38,3.38,0,0,1,.18-.44c.17-.3.36-.58.54-.87l2-3.17c.06-.1.1-.23.17-.38h-.25l-2.08.32a.58.58,0,0,0-.43.32c-.18.31-.39.62-.58.93l-.08,0,.62-1.13c-.9.14-1.69.24-2.48.38a.94.94,0,0,0-.46.27c-.24.25-.44.52-.67.77a.64.64,0,0,1-.24.1L20,80.9l.93-1-1,.1c0,.51,0,1,0,1.45s-.28.9,0,1.33a4.34,4.34,0,0,0-.35,1.94h.72l-.08-.33,2.21-.15,2.29-3.66c-.57,1.28-1.39,2.41-2.07,3.75.83,0,1.54,0,2.25-.14s1.46-.31,2.2-.46a11,11,0,0,0,1.3-.23,6.43,6.43,0,0,1,2.16-.35.71.71,0,0,0,.7-.4l2.56-4.31c.07-.13.12-.27.21-.46-.4.05-.75.11-1.1.12a.73.73,0,0,0-.63.43c-.6,1-1.22,1.94-1.83,2.9-.08.13-.18.24-.27.36l-.08-.06,2.13-3.51c-.42,0-.73.1-1.05.12a.65.65,0,0,0-.59.39c-.41.7-.83,1.38-1.27,2.05-.25.39-.56.75-.84,1.12l-.08-.06c.66-1.14,1.5-2.16,2.16-3.41-.5.08-.91.16-1.33.2A1.45,1.45,0,0,0,28.06,79.13ZM120.28,42l.46,0a7.43,7.43,0,0,0-1.41-1c.52-.05.74.45,1.2.48a4.58,4.58,0,0,0-.15-2.09v1.41a1.07,1.07,0,0,1-.19-.52c0-.36,0-.72-.06-1.07a10.26,10.26,0,0,0-.45-3.48.43.43,0,0,0,.25-.52,3.11,3.11,0,0,1,.13-1.81c.17-.5.36-1,.55-1.48a5.28,5.28,0,0,0,.39-1.79.68.68,0,0,1,.14-.42,3.14,3.14,0,0,0,.55-1.47,4.77,4.77,0,0,1,.13-.47c-.11,0-.25,0-.38,0-.41,0-.82.06-1.22,0a1.58,1.58,0,0,1-1.09-.38.79.79,0,0,0-.63-.23c-2.07,0-4.13.08-6.2.09a3.3,3.3,0,0,1-1.41-.13,1.91,1.91,0,0,0-1.07-.11c-.66.08-1.31.2-1.95.29-.72-.72-1.48-.85-2-.36a.25.25,0,0,0,0,.09c.36.36.37.5,0,.85a.54.54,0,0,0-.12.52c.06.84.14,1.67.22,2.5.16,1.56.35,3.12.5,4.68a4.17,4.17,0,0,1-.07,1.61,33.86,33.86,0,0,0-.73-6.19,117.61,117.61,0,0,0-.38,13.17,4.73,4.73,0,0,0,2.32-.34,1,1,0,0,1,.49-.14c1.37-.11,2.75-.25,4.13-.3,2.1-.08,4.2-.1,6.29-.16.71,0,1.42-.11,2.1-.17a.87.87,0,0,0-.36-1.15Zm-16.63-1.78h0a2.94,2.94,0,0,0,.19-.62,11.32,11.32,0,0,0,.06-1.84c-.09-1.19-.25-2.37-.38-3.56-.1-.89-.19-1.79-.28-2.68l.08,0,.12.14a15,15,0,0,0-.35-2.76l-.54.08.22-.69c-.16-.05-.4-.08-.42-.15-.09-.44-.42-.35-.69-.34-.71,0-1.43.09-2.14.14-1.07.09-2.14.24-3.21.25-1.86,0-3.72-.05-5.58-.1a3.39,3.39,0,0,1-.57-.14,16.43,16.43,0,0,1-3.59.31c.25,3.58-.1,7.13,0,10.79-.16-.42.06-.81-.25-1.12-.06.83-.13,1.63-.17,2.43,0,.59,0,1.19-.06,1.78a4.08,4.08,0,0,0,.09.61,14.58,14.58,0,0,0,.39-2.86,15.53,15.53,0,0,1,0,3.34,122.88,122.88,0,0,0,17-.94c0-.67.09-1.32.13-2C103.75,40.24,103.69,40.21,103.65,40.18ZM15.8,31.29l-.61-.46c-.25-.19-.47-.21-.67,0s-.58.69-.88,1.06c.08,0,.1,0,.11,0a1,1,0,0,0,.17-.12,1.86,1.86,0,0,1,1.5-.49,1.29,1.29,0,0,0,.39,0c0,.34-.28.24-.45.24a2.32,2.32,0,0,0-1.89,1.14.64.64,0,0,0-.09.43c.12.78.25,1.56.38,2.35a10,10,0,0,1,.3-2.94,11.66,11.66,0,0,0,.4,3V34.21h.12l.24,6L15,37.08a91.37,91.37,0,0,1-.09,11.35,3.5,3.5,0,0,0,2,.3h.36a29.41,29.41,0,0,0,4.09-.19c.38-.06.76-.07,1.14-.11-1.18.22-2.37.35-3.54.56s-2.41,0-3.75.15c.28.16.33.4.61.4,1.11,0,2.22,0,3.33-.06.9,0,1.79-.18,2.69-.27.46-.05.92-.06,1.38-.14l8-1.48c.3-.06.34-.11.31-.45s-.11-.84-.15-1.22l-.4,1.15H30.5l.32-.74a2.33,2.33,0,0,0,.21-.49c.06-.39.09-.78.13-1.17.11-1.1.22-2.19.32-3.28h.05l-.15,3.67c.22.07.36,0,.42-.17a2.33,2.33,0,0,0,.06-.35c.07-1.44.21-2.87.19-4.3,0-2.32-.2-4.64-.3-7a1.88,1.88,0,0,0-.62-1.14l-.11.14-.15.08c-.05-.68-.05-.67.57-.89.09,0,.16-.13.32-.27l-.64-.1L29.59,31c-.12,0-.29,0-.27-.26a20.37,20.37,0,0,1,2.67.24l0-.34c-.6,0-1.2-.05-1.79-.05a23.7,23.7,0,0,0-2.8.06,28.7,28.7,0,0,1-3.07.16,4.23,4.23,0,0,0-.71,0,29.11,29.11,0,0,1-4.28.4,7.25,7.25,0,0,0-1.61.21,2.33,2.33,0,0,1-1.83-.11ZM138.48,51.35l0,0A.69.69,0,0,0,138,51l-.07.22-1.56-.67s-.12,0-.14-.07c-.13-.31-.45-.34-.71-.44a41.57,41.57,0,0,0-4.89-1.45L128.18,48a20,20,0,0,1,2,.38c.13,0,.3.15.38-.08a6.43,6.43,0,0,0,2.49.6,3,3,0,0,0-.36-.25l-2.28-1c-.19-.09-.44-.08-.5-.36,0-.06-.13-.09-.21-.14-1-.58-2.08-1.15-3.12-1.75a17.91,17.91,0,0,0-2.88-1.42,1.27,1.27,0,0,1-.76-.46c-.08-.13-.28-.18-.43-.25l-.69-.27-.65.47c.43.23.86.48,1.3.69a6.09,6.09,0,0,1,1.36.59,19.9,19.9,0,0,1-3.42-1.3c-.32.26-.69.18-1,.2a1,1,0,0,0-.82.28,5.23,5.23,0,0,1,1.6.62,4.5,4.5,0,0,1-.73-.15c-.48-.14-1-.29-1.43-.4a.85.85,0,0,0-.91.28l.54.18,10.2,3c.85.25,1.69.55,2.53.82a4,4,0,0,1-.6-.1c-1.59-.46-3.18-.91-4.76-1.39-2.7-.82-5.39-1.61-8.16-2.16l-.91-.16,0,.12c2.34.91,4.82,1.35,7.2,2.15l-7.23-1.76c5.88,2,11.89,3.5,17.88,5.08a.22.22,0,0,1-.15,0c-2.68-.66-5.37-1.28-8-2-3.31-.89-6.59-1.87-9.89-2.81a10.35,10.35,0,0,0-3.57-.53c-1.06.06-2.11.17-3.16.32-1.2.16-2.39.38-3.59.57a.52.52,0,0,1-.33,0c-.44-.4-1-.22-1.54-.28.63,1.18,1.73,1.83,2.38,2.86a2.78,2.78,0,0,1-1-.86c-.33-.4-.67-.78-1-1.18a.9.9,0,0,0-.9-.32A31.19,31.19,0,0,1,96.3,46a4.28,4.28,0,0,0-.62,0c-.63,0-1.26.08-1.89.09-1.1,0-2.21,0-3.32.06-.36,0-.73.05-1.09.07v.12h3.07c-1.28.09-2.56.15-3.84.17A12.36,12.36,0,0,1,86,46.37a7.92,7.92,0,0,0-1.68-.17c-1.26,0-2.52.16-3.78.22-1.07,0-2.15.1-3.22.11s-1.88-.08-2.81-.06c-1.78,0-3.55.11-5.32.17l-.26,0a1.36,1.36,0,0,0,.37,1.13c.37.39.7.81,1,1.22l-.08.09A1.12,1.12,0,0,1,70,49c-.35-.3-.69-.62-1-.89a1.38,1.38,0,0,1-.62-1.36s0,0,0,0a4.06,4.06,0,0,1-.68.18c-1.36.14-2.72.25-4.07.4-1.13.13-2.25-.07-3.37.07s-2.46.16-3.68.24c-.75.05-1.5.13-2.25.19v.13l4.37-.15a.15.15,0,0,1-.14.1c-1.72,0-3.44.17-5.15.29a11.09,11.09,0,0,1-2.76-.07A7,7,0,0,0,49,48.05c-1.34.11-2.68.3-4,.41-1.12.1-2.25.16-3.37.21s-2.28.07-3.42.14-2.11.17-3.17.25c-.43,0-.87.06-1.36.09.33.25.63.44.88.67s.51.56.75.84.48.54.69.83.54.5.63,1L35,50.93,33.4,49.39a1.25,1.25,0,0,0,.42,1c.48.54.94,1.09,1.39,1.64.09.11.22.24,0,.46a3.18,3.18,0,0,1-.37-.27c-.44-.4-.84-.85-1.3-1.23a1.87,1.87,0,0,1-.74-1.12s-.05,0,0,0c-.23,0-.36.06-.46,0-.36-.13-.7-.29-1-.42a1.21,1.21,0,0,0-.5-.06c-.78.06-1.56.16-2.34.22s-1.3.06-2,.09c.57.1,1.17-.09,1.73.15a17.43,17.43,0,0,1-2.7.3c-.92.12-1.83.21-2.75.32v-.1L24.44,50a.31.31,0,0,0-.2,0l-.36,0a27.78,27.78,0,0,1-4.06.49c-1.06,0-2.11,0-3.17,0-.34,0-.67.05-1,.08l-.08.61-.59.14c.16.48.3.94.47,1.38a.85.85,0,0,1,0,.83.54.54,0,0,0,0,.34c0,1.55.08,3.11.08,4.66a3.07,3.07,0,0,0,.47,1.59c.71,1.18,1.39,2.39,2.08,3.58.06.11.1.27.18.3.31.1.32.38.41.6s.2.51.32.75c.43.84.86,1.67,1.28,2.51a3.75,3.75,0,0,1,.17.47c-1.38-2.27-2.53-4.66-3.92-6.91a.28.28,0,0,0,0,.22A7.31,7.31,0,0,0,17,63a46.77,46.77,0,0,1,2.43,5.69c.16.43.37.83.56,1.26l.81-.09c1.86-.26,3.71-.58,5.58-.75s3.95-.22,5.93-.32c.22,0,.44,0,.66-.07,1.59-.21,3.18-.44,4.77-.61a9.74,9.74,0,0,1,2.09,0,10.91,10.91,0,0,0,2.55-.25c-.59,0-1.07,0-1.54,0a3.43,3.43,0,0,1-1.41-.23c.9-.16,1.82-.22,2.71-.37s1.79-.41,2.74-.63c-.15-.24-.29-.43-.4-.63s-.28-.35-.24-.62a.47.47,0,0,1,.18.19l.52.7c.25.33.25.33.65.18l0-.44a2,2,0,0,1,.28.21,2.38,2.38,0,0,0,1.68.79,10.05,10.05,0,0,0,2-.15c-.18-.24-.28-.38-.39-.51-.83-1-2-1.64-2.88-2.59a10.87,10.87,0,0,0-1.85-1.67,2.07,2.07,0,0,1-.38-.4c-.81-1-1.59-2-2.43-2.92a10.4,10.4,0,0,0-2.85-2.68l.37-.21-.58-.76-.6-.77c-.39-.5-.39-.5-.41-.79.53.66,1.05,1.27,1.53,1.91a.86.86,0,0,0,1,.39c.39-.07.84-.31,1.23.11.06.06.23,0,.35,0L43,56a16.78,16.78,0,0,0,2,.14c2-.09,3.92-.2,5.87-.36,2.16-.18,4.31-.45,6.47-.61s4.23-.23,6.34-.34a7.37,7.37,0,0,0,2.51-.4.67.67,0,0,1,.4-.08c.49.19.92,0,1.39-.1a13.37,13.37,0,0,1,3.52,0,2.06,2.06,0,0,0,.35,0l1.78-.15c.28,0,.57,0,1,0l-.6-.48c.12-.08.21-.19.3-.18.31,0,.63.06,1,.1.1.42.44.49.85.46a5.28,5.28,0,0,1,.56,0,17.4,17.4,0,0,0,3.88-.2c.43-.08.87-.19,1.31-.23,1.61-.16,3.23-.25,4.84-.44,3.42-.42,6.87-.5,10.31-.7a8.89,8.89,0,0,0,1.25-.24c.2,0,.42-.19.59-.14a3.31,3.31,0,0,0,1.4-.11,11.86,11.86,0,0,1,3.26,0,.5.5,0,0,0,.21,0,11.53,11.53,0,0,1,3.16-.13,14.79,14.79,0,0,0,1.63-.05,1.67,1.67,0,0,0,1.31-.67l-.78-.59-.85-.58-.8-.55a2.2,2.2,0,0,1-.7-.66,1.5,1.5,0,0,1,.48.27,12.53,12.53,0,0,0,1,.77,4.47,4.47,0,0,0,1.25.54,1.24,1.24,0,0,1,.83.52c.13.16.25.33.37.49s.3.46.66.35c.09,0,.24.11.35.18,1.07.64,2.11,1.32,3.19,1.94,1.5.85,3,1.66,4.53,2.49l2,1.15c-1.07-.27-1.94-1-3-1.32,1.18.85,2.36,1.68,3.56,2.5a1.85,1.85,0,0,0,1.42.27c.73-.13,1.48-.22,2.23-.3a10.25,10.25,0,0,1,1.12,0c-.45.2-.91.06-1.36.4.7-.05,1.3-.08,1.89-.15,2.8-.3,5.6-.6,8.4-.92a60.15,60.15,0,0,1,7.71-.38h1.27a1.7,1.7,0,0,1-.58.21c-3.4.58-6.83.94-10.25,1.31l-8.05.86c-.53.06-1.07.14-1.61.22a1,1,0,0,0,.37.84c.25.25.54.47.82.7l.74.59-.07.11c-.31-.16-.62-.33-.94-.48a1.5,1.5,0,0,0-1.08-.2l-.15,4.35c.18,0,.32,0,.45,0,3.48-.46,7-1,10.45-1.39,4-.5,8.09-1,12.11-1.66l2.57-.47a25,25,0,0,0,1-5,1.78,1.78,0,0,0,0-.46c0-.18-.12-.35-.4-.33l.17.51a3.86,3.86,0,0,1-.41-.09,6.55,6.55,0,0,0-2.1-.38c-1.26,0-2.52.1-3.78.16a5.5,5.5,0,0,0-2.2.36,1.2,1.2,0,0,1-.2,0c-1.85.16-3.7.33-5.56.48s-3.67.26-5.51.39c-.29,0-.58,0-.86,0,6.06-.91,12.19-1.22,18.33-1.87-.72-.82-3.45-2.3-6.62-3.62l-.1.17-.5-.27ZM49.76,35.89a13.31,13.31,0,0,0-.67-6.38c-2.61.11-5.16.32-7.83.38.3-.19.61,0,.82-.38-2.32.18-4.55.55-6.8.53,1.2-.46,2.5-.22,3.73-.54a1.21,1.21,0,0,0-.31-.06,22.77,22.77,0,0,0-4.73.45.53.53,0,0,0-.23.09c-.32.3-.63.61-.94.92a.53.53,0,0,0-.08.22c.58.06.6.47.63.9.08,1.36.19,2.72.25,4.08.11,2.49.19,5,.28,7.47,0,.15,0,.29.07.47,4.61-.42,9.19-.73,13.77-.82-.45.07-.91.13-1.36.16-1.72.1-3.44.22-5.16.3-2,.1-4,.25-6,.54-.42.06-.83.14-1.27.22L34,45.69l2.64-.13c-.73.13-1.45.21-2.18.32-.24,0-.47.12-.42.49.43,0,.85.07,1.28.09a61.82,61.82,0,0,0,8.37-.55l1.86-.18a.16.16,0,0,1-.12.12c-2.41.26-4.81.56-7.23.78a13.08,13.08,0,0,1-3.31.07,1.15,1.15,0,0,0-.55.08c-.11,0-.19.14-.34.27a2.17,2.17,0,0,0,.47.15c.41,0,.81,0,1.22-.06.13,0,.33-.08.38,0s.39.11.58.1c1,0,1.94-.07,2.91-.1v0l-2.32.55a2.42,2.42,0,0,0,.71,0,.5.5,0,0,1,.19,0c0,.28.2.17.32.15l3.27-.6c.15,0,.35,0,.41-.22,0-.05.13-.08.21-.09.25,0,.5-.06.76-.09a31.62,31.62,0,0,0,5.54-1l1-.32a1.79,1.79,0,0,0,0-1.21h-.3l-2.84.38a5,5,0,0,1-1.92,0,30.53,30.53,0,0,0,5.18-.69c-.18-.36.19-.82-.35-1,.24,0,.26-.19.26-.38,0-.41,0-.82,0-1.23,0-1,.14-2,.08-2.91-.13-1.94-.36-3.88-.54-5.81-.08-.78-.13-1.57-.19-2.35h.1A44.92,44.92,0,0,1,49.76,35.89Zm35.68-1.63c.42-1.48.21-5.12-.45-6.2l-7.72.09c.32-.22.63,0,.84-.29-.46,0-.88,0-1.3,0a32,32,0,0,1-5.87.09,2,2,0,0,0-1.75.68,1.31,1.31,0,0,0-.19.27c.55.34.55.34.57,1,0,1.21.09,2.42.09,3.63,0,2.41,0,4.82,0,7.22,0,.29,0,.57,0,.92,4.58-.23,9.09-.34,13.6-.25-1.29.07-2.58.11-3.88.14-2.73,0-5.46,0-8.18.3a6.25,6.25,0,0,0-1.49.23v1.19h1.84a8,8,0,0,1-1.36.2c-.25,0-.48.07-.49.39a.63.63,0,0,0,.14.09l.3,0a38.36,38.36,0,0,0,6.34,0l4.14-.24a5,5,0,0,1,.55,0,9.77,9.77,0,0,1-1.52.22c-1.14.09-2.27.21-3.42.25a34,34,0,0,1-5.62,0,1.46,1.46,0,0,0-.51,0,1.66,1.66,0,0,0-.4.2l0,.12a1.65,1.65,0,0,0,.52.16,8.7,8.7,0,0,0,1,0c.13,0,.32-.07.39,0s.44.14.67.14h2l.48,0a24,24,0,0,1-2.6.53c-.86.13-1.73.21-2.59.32a.36.36,0,0,0,.26.18,8.45,8.45,0,0,0,1.33,0c2-.27,4-.57,6-.86.12,0,.31,0,.32-.11,0-.22.21-.17.35-.18,1.31-.11,2.62-.18,3.92-.35,1-.12,1.91-.37,2.86-.57.17,0,.35-.08.38-.28a1.48,1.48,0,0,0-.07-1h-.31c-1.1.09-2.2.2-3.31.28a11.64,11.64,0,0,1-1.32,0,42.3,42.3,0,0,0,5-.53c0-.08,0-.13,0-.17-.06-.29.13-.62-.15-.88.29-.28.14-.64.17-1a32.33,32.33,0,0,0,.24-3.68c0-2.13-.21-4.25-.32-6.38,0-.46,0-.92,0-1.37A32,32,0,0,1,85.44,34.26ZM54.24,29.1c-.29.24-.72.15-1.1.24a11,11,0,0,1-1.26.2c-.41,0-.81,0-1.23.05.37,3.46.23,6.9.39,10.37-.2-.12,0-.42-.29-.45a28.64,28.64,0,0,0,.12,4.9c.33-1,.06-2,.24-3a15.4,15.4,0,0,1,.17,3.39c1.73.29,14.36-.91,15.79-1.48l.05-.69c.37,0,.45-.22.48-.51s.05-.61.08-.94a2.42,2.42,0,0,0-.37,0l-1.73.13-5.4.45c-1.75.15-3.5.29-5.24.59a4.41,4.41,0,0,1-1.62.1A135.6,135.6,0,0,1,67.67,41c0-.08,0-.11,0-.15a39.27,39.27,0,0,0,.18-8.11,1.89,1.89,0,0,1,0-.67,3,3,0,0,0-.3-2,1.83,1.83,0,0,0-.14-.28,1.91,1.91,0,0,1-.18.21l-.12.05a1.68,1.68,0,0,1,.1-1.24h-.57c-1.09.06-2.18.15-3.27.18q-4.24.11-8.5.18A3.58,3.58,0,0,1,54.24,29.1ZM20.08,76.58a1.06,1.06,0,0,0,.19,0c1.11,0,2.22,0,3.32-.07,1.91-.16,3.8-.42,5.7-.61s4-.39,6-.58c1.75-.17,3.51-.19,5.24-.51,1-.19,2.09-.34,3.12-.51l.29-.53-1,.16c-.87.15-1.74.3-2.62.43a4.14,4.14,0,0,1-.61,0l0-.13a3.88,3.88,0,0,1,.45-.14c.85-.18,1.7-.37,2.56-.5s1.89-.22,2.84-.31a1.49,1.49,0,0,1,.36,0v.11l-1.53.25c1.84.1,3.56-.56,5.39-.7-.11-1.66,0-3.3-.14-4.93-.42,0-.81.09-1.06-.3,0,0-.09,0-.14,0-.35,0-.75,0-1,.32a1.74,1.74,0,0,0-.52-.19,20.06,20.06,0,0,0-3.46.23l-8,1.42a.55.55,0,0,1-.62-.21l2.1-.46c-1.21.06-2.42.2-3.61.37-2.64.38-5.26.8-7.92,1a.73.73,0,0,0-.39.1,1.15,1.15,0,0,1-.67.2c-.4,0-.81,0-1.22.1-.79.09-1.59.19-2.38.32a.57.57,0,0,0-.52.63c0,1.09-.11,2.18-.16,3.27C20.06,75.44,20.08,76,20.08,76.58Zm57.63-19.5-.07,0a.53.53,0,0,1,0-.18c.19-.28.37-.56.57-.84s.25-.22.16-.44-.29-.19-.47-.19-.31,0-.46,0a1.67,1.67,0,0,0-1.53.68c-.4.48-.84.93-1.23,1.43-.66.84-1.3,1.7-2,2.55a4.59,4.59,0,0,0-.26.48l.58-.11c.11,0,.23-.1.34-.08a1.25,1.25,0,0,0,1.37-.66c.37-.55.75-1.1,1.14-1.64a1.73,1.73,0,0,1,.23-.24,6,6,0,0,1-.66,1.2,2.93,2.93,0,0,0-.65,1.15,1.65,1.65,0,0,0,1.64-.8A4.69,4.69,0,0,1,77,58.8l.08.07-.62,1a1.75,1.75,0,0,0,1.68-.75q.27-.35.57-.66a14.24,14.24,0,0,0,1.87-2.56c.1-.18.19-.39.31-.64-.55,0-1,.07-1.53.14a1,1,0,0,0-.77.52C78.31,56.34,78,56.7,77.71,57.08ZM67.53,63.24a3.5,3.5,0,0,1-.48,0,1.08,1.08,0,0,0-1,.45c-.3.32-.63.63-1,.92a14.83,14.83,0,0,0-2.15,2.26,3.29,3.29,0,0,1,.78-1.17c.36-.41.73-.81,1.07-1.23a1.79,1.79,0,0,0,.45-1,2.68,2.68,0,0,0-1.66.63,11.81,11.81,0,0,0-1.24,1.21c-.42.44-.8.93-1.23,1.37a2.54,2.54,0,0,1-1,.71c0-.12,0-.19.07-.24A14.48,14.48,0,0,1,61,66c.41-.52.86-1,1.28-1.52a7.35,7.35,0,0,0,.42-.62c-.32,0-.54,0-.76,0a.76.76,0,0,0-.66.3c-.73.84-1.48,1.65-2.2,2.49-.32.37-.57.79-.92,1.28,2.27-.08,4.41-.37,6.52-.6C65.37,65.73,66.73,64.74,67.53,63.24Zm19.82-19A2.06,2.06,0,0,0,88.69,44a.64.64,0,0,1,.57-.08,20.45,20.45,0,0,0,8.13.41c1.21-.15,2.41-.47,3.61-.7.41-.07.83-.12,1.25-.18a13.32,13.32,0,0,0-2.89.92,2.18,2.18,0,0,0,.57,0l1.83-.2c.11,0,.31,0,.33.05.09.32.35.2.54.19.39,0,.78-.06,1.17-.1a1.63,1.63,0,0,0,.3-.07l0-.11h-.83v-.09l.55-.08a1.94,1.94,0,0,1-.25-1.43l-16,1.07ZM67,43.68l-14.75,1.6-.16.66a1.86,1.86,0,0,0,1.34-.3.68.68,0,0,1,.61-.1,15.05,15.05,0,0,0,3,.41A25.09,25.09,0,0,0,65,45c.68-.2,1.38-.35,2.1-.52ZM92.89,64.22A2.21,2.21,0,0,1,93,64l1.19-1.59c.27-.35.56-.69.83-1a1.37,1.37,0,0,0,.15-.32,2.86,2.86,0,0,1-.35,0,1,1,0,0,0-1,.43c-.57.7-1.19,1.36-1.77,2.06-.28.35-.52.73-.8,1.12A30.6,30.6,0,0,0,97,64.22c.59-1.38,1.86-2.31,2.58-3.67a1.19,1.19,0,0,0-1.4.42,3,3,0,0,1-.24.26c-.55.64-1.09,1.27-1.65,1.9a2.66,2.66,0,0,1-.89.7,2.63,2.63,0,0,1,.42-.73c.34-.41.7-.79,1-1.19a2.69,2.69,0,0,0,.66-1.21l-.47.07A3.42,3.42,0,0,0,95.24,62c-.34.38-.66.78-1,1.17A3.65,3.65,0,0,1,92.89,64.22ZM73.54,66.15c.33,0,.53,0,.73,0a.51.51,0,0,0,.48-.23l2.5-3.17c.12-.14.19-.35.49-.42-.69,1.41-1.86,2.38-2.67,3.71a5.34,5.34,0,0,1,.57,0,.71.71,0,0,0,.71-.39c.21-.33.47-.63.71-.94.66-.83,1.32-1.65,2-2.48a3,3,0,0,0,.22-.38,24.5,24.5,0,0,0-3.69.25.67.67,0,0,0-.52.35,18.17,18.17,0,0,1-2.4,3.18c-.23.25-.43.52-.72.87a4.18,4.18,0,0,0,2.22-1.19l.08.09ZM54.25,61.47c.08.05.16.14.24.14a4.44,4.44,0,0,0,1.16-.11c.2-.06.34-.35.5-.54s.34-.47.52-.7c.69-.89,1.39-1.77,2.07-2.66.27-.36.52-.74.83-1.19-.89.09-1.68.16-2.46.27a.84.84,0,0,0-.44.32c-1.16,1.42-2.31,2.86-3.46,4.29-.1.12-.17.27-.29.44A1.88,1.88,0,0,0,54.25,61.47ZM69,63a.59.59,0,0,0-.24.18c-.78.83-1.57,1.66-2.34,2.5-.4.44-.76.91-1.21,1.46l.34,0,3-.32a.81.81,0,0,0,.55-.34c.75-.86,1.51-1.72,2.25-2.58.36-.41.68-.85,1.07-1.34-.33,0-.56.07-.79.07a.72.72,0,0,0-.62.28l-.84,1a4.31,4.31,0,0,1-.8.72,1.18,1.18,0,0,1,.25-1.14M52.57,61.8c1-1.75,2.62-3.12,3.61-4.95l-.27.21c-.15-.28-.4-.28-.66-.24s-.64.07-1,.13a.57.57,0,0,0-.32.21c-.84,1-1.69,2-2.5,3-.46.56-.86,1.17-1.34,1.84Zm29,6.63v-.09c-.28,0-.56,0-.84,0s-.64.1-1,.15c-2.33.3-4.67.56-7,.93a13.54,13.54,0,0,1-2.62.13l-.25,0c-1.55.17-3.09.32-4.63.52-1.7.21-3.41.47-5.11.69-.47.06-1,0-1.43,0a1.1,1.1,0,0,0-.75.3,4.14,4.14,0,0,0,.52,0c1.82-.16,3.63-.31,5.45-.5,3.12-.31,6.24-.64,9.37-.79.54,0,1.09-.08,1.63-.1.14,0,.27.06.4,0s.2-.14.31-.15l2.51-.34c-.21.16-.21.16-.27.46l6.29-.84,0-.14-5.57.52a.73.73,0,0,1,.23-.09l1.3-.43c.16,0,.3-.15.45-.18C80.94,68.52,81.27,68.48,81.59,68.43Zm10.9-14.51-1.92.18a.87.87,0,0,0-.68.38l-3.06,4a2.19,2.19,0,0,0-.21.34,1,1,0,0,0,.83-.07,1.23,1.23,0,0,1,.38-.08c.28,0,.56,0,.85.06a.74.74,0,0,0,.66-.4c.37-.57.78-1.12,1.18-1.67l1.63-2.23C92.25,54.32,92.34,54.16,92.49,53.92Zm6.68,9.75c.81-1.26,2-2.11,2.71-3.48a3.41,3.41,0,0,1-.62.09.82.82,0,0,0-.72.4c-.24.3-.52.58-.79.87l-1.87,2a6.81,6.81,0,0,0-.42.59h.44c.62,0,1.23-.15,1.84-.14a2,2,0,0,0,1.68-.86c.82-1,1.71-2,2.56-3,.1-.13.3-.25.19-.5a1.1,1.1,0,0,0-.86.21,9.6,9.6,0,0,0-.74.69c-.38.39-.73.81-1.14,1.18a6.84,6.84,0,0,0-1.59,1.63A.55.55,0,0,1,99.17,63.67ZM61.93,56.15a3.68,3.68,0,0,0-.39,0c-.5.08-1,.15-1.51.26-.12,0-.23.18-.32.29-.38.52-.75,1-1.15,1.57-.64.82-1.29,1.62-1.93,2.45a8.07,8.07,0,0,0-.49.78c.56.19.85-.18,1.22-.51v.4a1.05,1.05,0,0,0,1.18-.53,4.19,4.19,0,0,1,.47-.66c.75-1,1.5-1.9,2.26-2.84.16-.2.24-.39.17-.55ZM51.22,57.41c-.66.05-1.24.08-1.81.15a.63.63,0,0,0-.37.21c-.75.93-1.5,1.86-2.24,2.8-.34.44-.67.89-1,1.31a.72.72,0,0,0,.85.49,1.73,1.73,0,0,1,.51,0,.61.61,0,0,0,.6-.29c.65-.86,1.32-1.69,2-2.55C50.23,58.83,50.7,58.15,51.22,57.41Zm35,1.53c.55-.76,1.07-1.48,1.6-2.18a22.68,22.68,0,0,0,1.54-2.14c-.18-.2-.31-.39-.6-.37a1.68,1.68,0,0,0-1.69.88l-.1.11-2.55,3.45a2,2,0,0,0-.16.36Zm-19.51-3c-.59,0-1.06,0-1.54,0a.86.86,0,0,0-.67.4c-.44.61-.92,1.18-1.38,1.78-.66.84-1.32,1.69-2,2.54a1.31,1.31,0,0,0-.16.31c.47,0,.92,0,1.35,0a.54.54,0,0,0,.56-.24c.7-.92,1.42-1.82,2.14-2.73C65.58,57.31,66.12,56.65,66.72,55.91Zm39.73,7.41c.75,0,1.36.06,1.71-.64a5.5,5.5,0,0,1,.47-.61,11.8,11.8,0,0,0,.73-1.11,3.44,3.44,0,0,0,.34-2.27c-.21,0-.39,0-.57,0a.59.59,0,0,0-.53.24c-.53.62-1.1,1.21-1.63,1.83-.39.45-.76.92-1.13,1.39,0,0,0,.05,0,.08l.41-.08c-.3.52-.89.7-1.15,1.21a1.06,1.06,0,0,0,1.28-.4c.55-.72,1.14-1.41,1.71-2.1a1.52,1.52,0,0,0,.44-.73c0-.21.18-.4.52-.29C108.39,61.14,107.27,62.06,106.45,63.32Zm-35-3.27v.43a1.19,1.19,0,0,0,1.09-.58c.45-.58.9-1.16,1.36-1.73.63-.78,1.27-1.56,1.92-2.33.19-.23.23-.43,0-.63-.42.06-.83.14-1.23.17a.6.6,0,0,0-.45.28c-.46.55-.91,1.11-1.37,1.65a22.29,22.29,0,0,0-2.06,2.59l-.36.59A1.4,1.4,0,0,0,71.44,60.05Zm23.13-6.29-.06-.13c-.53.08-1.07.15-1.6.25-.08,0-.15.12-.21.2C92,55,91.3,56,90.61,56.91q-.52.73-1,1.47a2.24,2.24,0,0,0-.13.47c-.27.09-.62.18-.6.66.5,0,.76-.15.9-.52,0-.08,0-.19.07-.23.27-.23.56-.44.88-.69l-.27.51c.4,0,.73.08,1-.26.83-1.14,1.68-2.27,2.52-3.4.14-.19.36-.35.23-.63,0,0,.07-.1.11-.14ZM99.09,58a3.45,3.45,0,0,0,.56,0,.6.6,0,0,0,.38-.19c1.11-1.44,2.21-2.9,3.31-4.35a3.09,3.09,0,0,0,.2-.37,1.19,1.19,0,0,0-.21-.08c-.51.07-1,.13-1.51.21-.07,0-.14.1-.19.16L98.27,57.6a4.38,4.38,0,0,0-.3.48.9.9,0,0,0,.93-.3c.15-.17.27-.36.41-.53a.73.73,0,0,1,.52-.35C99.64,57.35,99.16,57.53,99.09,58ZM59.57,61.1a1.31,1.31,0,0,0,1.18-.42,10.89,10.89,0,0,0,.93-1.09c.49-.63,1-1.27,1.44-1.91.26-.34.54-.67.79-1,.12-.16.21-.34.34-.55-.59,0-1.11,0-1.62,0a.58.58,0,0,0-.35.25c-.25.31-.46.64-.7.95L59,60.63c-.13.17-.24.36-.37.56a.49.49,0,0,0,.63-.13l.34-.31s.09,0,.14,0Zm37.23-3a.9.9,0,0,0,1.1-.44c.24-.39.57-.72.85-1.09.44-.56.88-1.13,1.31-1.7a2.56,2.56,0,0,0,.22-.4,2.82,2.82,0,0,1,.23-.42c.2-.24.43-.45.65-.68a11.6,11.6,0,0,0-1.46,0,.58.58,0,0,0-.47.24c-.51.62-1,1.21-1.54,1.84S96.57,57,96,57.75a4.79,4.79,0,0,0-.25.45.85.85,0,0,0,1-.32s.06,0,.08,0Zm-45.24-.71c-1,1.67-2.48,3-3.41,4.82a.49.49,0,0,0,.31-.12c.1-.1.17-.22.26-.32s.09,0,.14,0l-.13.36h.45a.76.76,0,0,0,.81-.4c.32-.48.69-.93,1-1.38l2.15-2.73c.11-.14.19-.29.29-.44l-.08-.1Zm33.52-2.6c-.49,0-.93.1-1.36.11a.64.64,0,0,0-.59.32c-.38.56-.8,1.1-1.2,1.65l-1.57,2.21a2.59,2.59,0,0,0-.18.4c.51,0,.94-.12,1.38-.12a.67.67,0,0,0,.63-.34l2.62-3.77A3.74,3.74,0,0,0,85.08,54.79ZM68.48,67.24c-.1,0-.14,0-.18,0l-5,.46c-1.31.13-2.61.29-3.91.42a5.24,5.24,0,0,0-2,.37.76.76,0,0,1-.34,0c-.5,0-1,0-1.48,0a9.62,9.62,0,0,0-2.81.52,1.06,1.06,0,0,0-.68.56c.22,0,.4,0,.57,0l8.06-1.07c2.29-.29,4.57-.71,6.88-.86A1.39,1.39,0,0,0,68.48,67.24ZM108,52.81c-.58.09-1,.17-1.48.2a.73.73,0,0,0-.55.3c-.49.61-1,1.19-1.5,1.81-.65.8-1.28,1.63-1.91,2.45a1.72,1.72,0,0,0-.18.36,1.08,1.08,0,0,0,.87-.36l.12,0-.07.41a1,1,0,0,0,1-.52c.36-.45.7-.92,1.07-1.36.64-.78,1.29-1.54,1.93-2.32C107.48,53.47,107.67,53.19,108,52.81ZM99,53.45c-.51,0-.91,0-1.3,0a.9.9,0,0,0-.76.42c-.38.56-.82,1.09-1.23,1.63-.57.75-1.14,1.49-1.7,2.24a4.46,4.46,0,0,0-.31.52c.47,0,.87,0,1.27,0a.48.48,0,0,0,.47-.22l2.94-3.8Zm6.23,4.48a1.43,1.43,0,0,0,1.17-.76L108,55c.1-.14.28-.32.25-.42-.11-.28.1-.32.23-.43s.34-.28.5-.44a3.42,3.42,0,0,0,.9-1.3,1.48,1.48,0,0,0-1.19,0l.57.23a.83.83,0,0,1-.2.08,1.26,1.26,0,0,0-1.15.61,7,7,0,0,1-.66.78c-.79,1-1.59,1.91-2.37,2.88-.22.27-.39.59-.6.9.41.08.41.08.89-.22Zm-28.5,8c.7-.06,1.27-.09,1.84-.16a.68.68,0,0,0,.37-.24c.69-.87,1.37-1.75,2.05-2.62a3,3,0,0,0,.19-.3c.11-.19.23-.37.34-.55l.14-.22H80c-.22,0-.32.13-.44.28-.78,1-1.57,2.06-2.35,3.1C77.07,65.41,77,65.63,76.75,65.93Zm20-12.3h-1.3a.65.65,0,0,0-.58.34c-.39.56-.8,1.11-1.2,1.65L91.92,58c-.11.15-.19.31-.3.49.52.17.63-.38,1-.49l-.16.43.35,0a2.15,2.15,0,0,0,1.23-.94l2.22-3C96.43,54.2,96.57,54,96.78,53.63Zm5.74,2.27.08.07-.85.94c-.54.57-.61.67-.68,1h.56a.43.43,0,0,0,.39-.19l3.5-4.41a2.53,2.53,0,0,0,.18-.27l-.06-.06-.37.22c-.11-.09-.18-.19-.26-.21s-.38,0-.56,0a.52.52,0,0,0-.48.23l-3.31,4.23a3.26,3.26,0,0,0-.24.4C101.36,57.46,101.74,56.47,102.52,55.9Zm46.38,9.6c-.2,0-.34,0-.47,0a.66.66,0,0,0-.68.43,8.85,8.85,0,0,1-.51.89c-.5.85-1,1.69-1.51,2.55a3.73,3.73,0,0,0-.18.43,2.31,2.31,0,0,0,.27,0c.66-.11,1.31-.21,2-.34a.49.49,0,0,0,.29-.24A8.1,8.1,0,0,0,148.9,65.5ZM83,55.1a7,7,0,0,1-.93,0,.76.76,0,0,0-.79.34c-.62.84-1.24,1.66-1.87,2.49l-.69.95-.63.84a5.4,5.4,0,0,1,1-.1,1.42,1.42,0,0,0,1.23-.68c.14-.19.26-.4.4-.59l2.11-2.94C82.85,55.31,82.9,55.22,83,55.1Zm25.19,11.06H106a1.78,1.78,0,0,1-.5.24,11,11,0,0,1-2,.19,33.73,33.73,0,0,0-5.41.21,43.57,43.57,0,0,1-6.35.58,1.12,1.12,0,0,0-.8.29h.54l2.2-.13,6.12-.44c1.41-.1,2.83-.13,4.24-.26a6.17,6.17,0,0,1,2.77.13,1.05,1.05,0,0,1,.94-.42c.21.36.49.1.69,0a1.43,1.43,0,0,0,1-.86A1.86,1.86,0,0,0,108.17,66.16Zm-21-11.66c-.35,0-.57,0-.8.09s-.46.13-.7.15a.46.46,0,0,0-.39.26l-1.45,2.1c-.38.56-.77,1.12-1.15,1.69-.08.13-.14.28-.21.42l.11.08.48-.51,0,.39a4.73,4.73,0,0,1,.54,0A.45.45,0,0,0,84,59l2.47-3.38C86.66,55.26,86.87,54.93,87.16,54.5Zm-27,9.89H58.93a.35.35,0,0,0-.22.1,23.25,23.25,0,0,0-2.54,2.72c-.21.29-.37.61-.58,1,.63,0,1.17-.06,1.71-.11a.57.57,0,0,0,.31-.23c.63-.82,1.27-1.64,1.89-2.47C59.73,65.08,59.92,64.77,60.17,64.39ZM44.55,60.86a4.18,4.18,0,0,0,.55.46.77.77,0,0,1,.51.56,28.46,28.46,0,0,1,3.06-3.94.67.67,0,0,0,.08-.17c-.06,0-.11-.09-.15-.09-.38,0-.77,0-1.15.08a.75.75,0,0,0-.45.17A24.82,24.82,0,0,0,44.55,60.86Zm4.64,14.87c-.24.72-.41,1.36-.66,2-.36.9-.78,1.78-1.17,2.67-.08.2-.15.4-.24.66l2-.31.25-1.51-.1,0-.36.75a3.47,3.47,0,0,1,.25-.92,5.28,5.28,0,0,0,.39-2A2.25,2.25,0,0,1,50,75.6Zm22.49-9.28c.28-.35.62-.73.93-1.13l2.09-2.71a2.86,2.86,0,0,0,.19-.39c-.45.1-.86,0-1.16.33s-.66.69-1,1A17.16,17.16,0,0,1,70.21,66a.72.72,0,0,0-.38.6,1.13,1.13,0,0,0,.3,0l1.15-.21A2.67,2.67,0,0,1,71.68,66.45Zm64.27,5c.47-.09.85-.14,1.23-.24a.7.7,0,0,0,.32-.3c.43-.65.85-1.31,1.26-2s.7-1.13,1-1.7a2,2,0,0,0,.14-.38c-.38,0-.7.08-1,.09a.58.58,0,0,0-.47.33c-.37.63-.77,1.24-1.16,1.86l-1.08,1.74C136.12,71,136.06,71.22,136,71.46Zm-32.47-7.91a1,1,0,0,0,1.18-.43c.44-.56.89-1.12,1.35-1.66.69-.8,1.41-1.58,2.11-2.37a3.78,3.78,0,0,0,.25-.4c-.33,0-.59,0-.83,0a.82.82,0,0,0-.72.29A27.2,27.2,0,0,0,104,62.41l-.2.33c.86-.63,1.57-1.41,2.41-2C105.39,61.74,104.34,62.53,103.48,63.55Zm-51.95,5.3c.18-.07.25-.13.32-.13a.92.92,0,0,0,.76-.45c.29-.38.62-.73.91-1.1.5-.63,1-1.27,1.46-1.91a5.83,5.83,0,0,0,.32-.6L54,65s-.07.08-.1.12l-2.37,2.81a1.34,1.34,0,0,0-.38,1.27l.49.36C52.1,69.11,52.1,69.05,51.53,68.85ZM88.92,64.9c.55,0,1,0,1.46-.08a.55.55,0,0,0,.32-.21c.65-.87,1.3-1.75,1.94-2.63a5,5,0,0,0,.31-.5c-.68-.08-1.26-.14-1.68.48a8,8,0,0,1-.64.66c-.42.47-.83,1-1.22,1.44C89.23,64.3,89.11,64.58,88.92,64.9Zm-31.3-.25a1.07,1.07,0,0,0-1.25.2c-.2.21-.39.43-.58.65l-2.41,2.64c-.08.09-.13.21-.25.39.56-.08,1-.15,1.46-.19a.5.5,0,0,0,.42-.23c.46-.63,1-1.24,1.42-1.86ZM103.24,28.2a65.26,65.26,0,0,1,1,8.37,29.66,29.66,0,0,0-.08-7.47c.28,0,.39-.47.71-.13V28.2Zm6.42,25.2c-.1.06-.17.08-.2.13-.93,1.2-1.86,2.39-2.78,3.6a1.42,1.42,0,0,0-.31.78,1.33,1.33,0,0,0,1.25-.58q1.06-1.15,2.1-2.31a.42.42,0,0,0,.15-.25,9.58,9.58,0,0,0-.05-1.07C109.82,53.6,109.72,53.51,109.66,53.4ZM85.37,67.32l0-.16c-2.45,0-4.9,0-7.34.14-.06.12-.09.3-.16.32a4.59,4.59,0,0,1-1.09.22c-.59,0-1.19,0-1.78,0a2.9,2.9,0,0,0-1.46.38l2.06.08A1.89,1.89,0,0,1,76.73,68a10,10,0,0,0,1.73,0,29.57,29.57,0,0,1,4.69-.38c.63,0,1.26-.08,1.89-.13A1.46,1.46,0,0,0,85.37,67.32Zm29.9-6.93c0-.25,0-.46,0-.66,0-1.28,0-2.55,0-3.83,0-.53-.2-.8-.81-.9,0,.13,0,.26,0,.39v4.09C114.46,60.1,114.53,60.18,115.27,60.39Zm-70.88.18.1,0A12.47,12.47,0,0,0,46.3,58a15,15,0,0,0-1.55.12,2.26,2.26,0,0,0-.94.4,4.81,4.81,0,0,0-.69.87c.47.31.66.94,1.32,1Zm18.9,8.19v.13l2.29-.23,4.2-.48c1-.12,2-.27,2.94-.41a1.88,1.88,0,0,0,.34-.14c-2,.09-3.95.37-5.92.54v-.11l3.72-.5,0-.11a65,65,0,0,0-8,1c.43,0,.87,0,1.3-.1s.85-.09,1.27-.15c.88-.12,1-.12,1.29,0Zm27.45-7.09c-.56-.19-.87-.12-1.15.19L87.65,64l-.52.62c.21.15.49-.06.64.25l-.71.17,0,0L88.26,65Zm-76.4-13.8h.07c0-.73.09-1.45.1-2.18s0-1.22,0-1.84c0-2.13,0-4.26.07-6.38a3.83,3.83,0,0,0-.47-1.82c.06,1.1.13,2.15.19,3.21A14.18,14.18,0,0,1,14.15,42l-.06-1.09c-.05.79-.06,1.57-.05,2.35,0,.34,0,.68,0,1,.05.56.13,1.12.17,1.68S14.31,47.23,14.34,47.87Zm97.31,5.18a5,5,0,0,0-.06.54c0,1.18-.07,2.35-.14,3.53a1,1,0,0,0,.61,1,.69.69,0,0,0,.08-.21c0-1.48.11-3,.14-4.44C112.29,53.2,112.09,53.08,111.65,53.05Zm-4.07,5a1.72,1.72,0,0,0,1.93-.47,2,2,0,0,0,.24-2.15A10,10,0,0,0,107.58,58Zm16.82,8.2,0,.14c.35,0,.71,0,1.06-.07s1-.19,1.46-.26l6.79-.92,2.53-.34a5.52,5.52,0,0,0,.54-.16l0-.12c-3.9.64-7.86.8-11.75,1.57C124.81,66.1,124.61,66.16,124.4,66.22Zm-6.8-9.11c0,.19-.07.34-.08.48-.07.94-.15,1.87-.19,2.81a6.59,6.59,0,0,0,.09,1.17.59.59,0,0,0,.42.54c0-.16,0-.3,0-.43.13-1.13.25-2.27.4-3.4C118.35,57.66,118.28,57.49,117.6,57.11ZM113.52,59c.1-1.53.21-3.06.32-4.6-.33-.12-.44-.51-.84-.51,0,.1,0,.18,0,.26,0,.66,0,1.33,0,2s-.07,1.16-.09,1.74a1.1,1.1,0,0,0,.19.74c.2-1.26-.11-2.56.31-3.8a6.15,6.15,0,0,1,0,1.05c-.05.7-.13,1.39-.17,2.09A1.44,1.44,0,0,0,113.52,59ZM50.45,66a1,1,0,0,0,.17.13c.5.17.58.31.44.79a.74.74,0,0,0,.08.67l.37-.57c.35-.49.72-1,1.07-1.48a4.55,4.55,0,0,0,.28-.55l-1.51.16a.4.4,0,0,0-.21.12C50.91,65.49,50.7,65.73,50.45,66ZM14.34,70.22c-.09,0-.13,0-.15,0L12.44,72.9a.82.82,0,0,0-.09.69c.51-.33,1-.6,1.42-.92a.94.94,0,0,0,.36-.52C14.23,71.52,14.27,70.88,14.34,70.22Zm108-9.84c-.09,1.21-.19,2.39-.28,3.58a6.91,6.91,0,0,0,0,.91.46.46,0,0,0,.41.51c.31-1.61.21-3.21.36-4.8Zm-89.82-23-.13,0V39c0,1.81,0,3.61,0,5.42a2.5,2.5,0,0,0,0,.61,3,3,0,0,0,.22.53.52.52,0,0,0,.17-.35c0-.68.06-1.36,0-2a47.4,47.4,0,0,1-.24-5.46A1.18,1.18,0,0,0,32.49,37.38Zm73.63,21.86-.09-.05s-.1,0-.12.07a26.16,26.16,0,0,1-4,4c-.14.11-.29.25-.2.49a1.36,1.36,0,0,0,1.25-.49c1-1.29,2.07-2.54,3.1-3.81A.93.93,0,0,0,106.12,59.24ZM27,76.52a34.76,34.76,0,0,0,8.26-.74A70.38,70.38,0,0,0,27,76.52ZM68.34,36.18c0,.7-.06,1.39-.07,2.09A32.79,32.79,0,0,1,68.1,42a2.41,2.41,0,0,0,.06.8c0,.11.12.2.22.35A32.87,32.87,0,0,0,68.34,36.18ZM122.5,71.89c0-.43,0-.8,0-1.17s.07-.78.07-1.17a1.23,1.23,0,0,0-.6-1.09c-.08.85-.16,1.61-.22,2.38C121.65,71.43,121.82,71.66,122.5,71.89ZM76.07,60.42A1.68,1.68,0,0,0,78,60.17c.06.09.1.22.14.22.76,0,1.52,0,2.27-.06l.17-.07c-.52-.18,0-.35-.17-.56-.23,0-.47,0-.7.06a7.86,7.86,0,0,0-2.36.37c-.06,0-.13,0-.2,0a4.1,4.1,0,0,0-.7,0C76.33,60.17,76.21,60.31,76.07,60.42Zm44.83,3.93c.28-1.51.13-3.06.65-4.55l-.61-.27a22,22,0,0,0-.24,3.28,9.28,9.28,0,0,1-.09,1.06C120.59,64.07,120.57,64.25,120.9,64.35Zm24.32,5.56,2.39-4.17c-.28.08-.28.08-.35.19-.49.7-1,1.39-1.46,2.09-.36.52-.71,1-1.05,1.57a3.3,3.3,0,0,0-.19.41ZM44,81.5c.1.36-.06.51-.37.54-.1,0-.2,0-.3.07l-4,.63-.41.11,0,.1c.69-.08,1.38-.14,2.06-.27,1.6-.29,3.2-.62,4.86-1l0-.5Zm75.29-14.94-.59-.37a7.58,7.58,0,0,0-.23,2.14.74.74,0,0,0,.65.82ZM31.37,48l-6.19,1A2.77,2.77,0,0,0,26,49c.84-.06,1.67-.12,2.5-.21s1.45-.2,2.17-.32C30.94,48.45,31.25,48.41,31.37,48Zm-20,9.44a1.86,1.86,0,0,0-.21.92c0,1.64,0,3.27,0,4.9a2.07,2.07,0,0,1-.13.7,1,1,0,0,0-.12.72,3.4,3.4,0,0,0,.25.74C11.43,62.76,11.38,60.1,11.42,57.44Zm8.59,22a.49.49,0,0,0,.16,0,15.73,15.73,0,0,0,2-.34,11.63,11.63,0,0,1,1.93-.33.34.34,0,0,0,.2-.06,4.25,4.25,0,0,0,.3-.33L20,79Zm99.22-16.35c-.08-1.35.3-2.7,0-4A5.05,5.05,0,0,0,119,60c-.09.65-.19,1.31-.23,2A1.11,1.11,0,0,0,119.23,63.11ZM46.36,47a19,19,0,0,0,3.44-.19l0-.58A10,10,0,0,0,46.36,47Zm74.32,20.41-.14,0c-.07.75-.16,1.48-.19,2.23a.76.76,0,0,0,.52.83.79.79,0,0,0,.07-.22c0-.87,0-1.73,0-2.6C120.88,67.64,120.75,67.55,120.68,67.45Zm-70.75,7c0-.6-.06-.71-.55-.62-.67.12-1.34.28-2,.43l-.87.21,0,.11A26,26,0,0,0,49.93,74.45ZM115,65.82c0-.6.07-1.21.08-1.81,0-.29-.29-.5-.69-.53,0,.59-.08,1.18-.1,1.77C114.31,65.56,114.6,65.79,115,65.82ZM85,44.52a8.92,8.92,0,0,0-3.34.56A8.89,8.89,0,0,0,85,45Zm24.61,20.81c-.09-.34-.27-.41-.49-.4a2.41,2.41,0,0,0-.6.08,2.44,2.44,0,0,1-.85,0,17.92,17.92,0,0,0-1.94,0,3.48,3.48,0,0,0-.69.17,9.69,9.69,0,0,0,1.66.26.29.29,0,0,0,.1,0,2.5,2.5,0,0,1,1.74-.2ZM49.52,62.8a.9.9,0,0,0,.24,0l1.83-.07c.28,0,.48-.29.55-.74-.37.08-.71.14-1,.23a.57.57,0,0,1-.43,0C50.19,62.11,49.82,62.28,49.52,62.8ZM134.11,44c-.08.54-.17,1-.22,1.47s.09.56.63.75l.18-2Zm-82,2.65a9.17,9.17,0,0,0,3.13-.35A3.7,3.7,0,0,0,52.12,46.61Zm53.29,12.82a5.47,5.47,0,0,0-2.54,2.65A11,11,0,0,0,105.41,59.43Zm38.68,11.28c1.29-.39,2.59-.22,3.84-.66-.35-.27-.42-.32-.8-.24s-1,.26-1.48.39a.93.93,0,0,1-.73,0C144.57,70,144.23,70.22,144.09,70.71Zm-36-7.49a3,3,0,0,0,1.31-.13,3.8,3.8,0,0,0,0-1.61C109,62.11,108.41,62.55,108.06,63.22ZM71,64.85a7.44,7.44,0,0,0,2.44-2.39.88.88,0,0,0-.85.35Zm1.33,2.21,0-.41a2.67,2.67,0,0,0-.42,0,6.09,6.09,0,0,1-1.7.2,2.44,2.44,0,0,0-.66.08.47.47,0,0,0-.4.41ZM113,64.36c0-.39.08-.75.08-1.1a2.38,2.38,0,0,0-.07-.7.47.47,0,0,0-.5-.39c0,.43-.06.83-.1,1.23C112.36,64,112.37,64,113,64.36Zm6.72-5.6a15.15,15.15,0,0,0-.1,4.32c.08-.82.17-1.63.24-2.44,0-.53.07-1.06.09-1.58C120,58.9,120,58.74,119.73,58.76Zm-2.27,6.65a4.88,4.88,0,0,0-.33,1.88c0,.29.11.59.47.7C117.8,66.58,117.77,65.92,117.46,65.41Zm4.32-33.89a3.23,3.23,0,0,0,.17,3A7.41,7.41,0,0,0,121.78,31.52ZM87.37,44.88a5.75,5.75,0,0,0,3.09-.23A4.13,4.13,0,0,0,87.37,44.88Zm-70,24.73c.05-1,.12-1.83.13-2.7a1.89,1.89,0,0,0-.4-1.1A11.64,11.64,0,0,0,17.4,69.61ZM86,59.15c-.31.06-.59.09-.86.16a.72.72,0,0,1-.52,0c-.34-.15-.68.06-.91.51l.56,0,1,0C85.69,59.81,85.76,59.75,86,59.15ZM21.28,77.51l2.22-.13v-.07H20v.6l1.61-.19ZM145.65,63.35a6.44,6.44,0,0,0,3.62-.53A13.3,13.3,0,0,0,145.65,63.35Zm-129,.92h-.12a31.3,31.3,0,0,0,.14,3.62.29.29,0,0,0,.11-.21c0-.92.05-1.83,0-2.75A2.64,2.64,0,0,0,16.64,64.27ZM53.57,62.5c.88.21,1.52,0,1.73-.62C54.31,61.67,53.69,61.89,53.57,62.5Zm94.05,2.37c-.67.16-1.4,0-1.92.61A1.29,1.29,0,0,0,147.62,64.87ZM65.15,61.46l2.24-.24.07-.31H66a2.74,2.74,0,0,0-.5.08A.38.38,0,0,0,65.15,61.46Zm-55.59-16-.17,0,.28,5.36a1,1,0,0,0,.07-.45c0-1.5,0-3-.06-4.5A1.8,1.8,0,0,0,9.56,45.46ZM116.27,60.74h.09a2.33,2.33,0,0,0,.08-.38c.09-1.27.18-2.54.25-3.81,0-.07-.09-.16-.14-.24l-.12,0Zm-103.16-22a2.75,2.75,0,0,0-.44,2.39C13.26,40.39,13.05,39.56,13.11,38.71ZM87.19,59.63c.93.14,1.4-.07,1.47-.63C87.59,58.91,87.28,59,87.19,59.63Zm55.47,6.29,0,.12c.46-.05.93-.07,1.39-.14.3-.05.58-.17.61-.58A3.46,3.46,0,0,0,142.66,65.92Zm5.41-1.64,0,.12.76.31-.62.65.85,0,.19-1.24ZM127.14,40.35a2.25,2.25,0,0,0-.22,1.28c0,.28.16.48.48.47a2.58,2.58,0,0,0,0-1.46A1.78,1.78,0,0,0,127.14,40.35ZM47.54,62.9c.48,0,.92,0,1.35,0s.41-.16.43-.61l-.79.17-.85.13s-.06.07-.1.14A1.27,1.27,0,0,0,47.54,62.9ZM12.45,44.64c.6-.87.77-1.52.55-2-.22.38-.44.76-.64,1.15a1,1,0,0,0-.09.48A1.16,1.16,0,0,0,12.45,44.64Zm120.12.5a.38.38,0,0,0,.41-.34,2.57,2.57,0,0,0-.07-1.4s-.12-.08-.19-.12A4.65,4.65,0,0,0,132.57,45.14Zm-3.29-3.57c-.32,1-.25,1.57.28,1.77,0-.27,0-.52.05-.77s0-.53,0-.83ZM115.11,63.38c.11-.87-.07-1.24-.64-1.29a.89.89,0,0,0,0,.14l0,.51C114.51,63.23,114.53,63.24,115.11,63.38ZM10,60.73h.13L10,55.14H9.86Zm26,16.19V77L37,76.9l3.23-.32a.41.41,0,0,0,.41-.27Zm92-36c-.24,1-.18,1.43.25,1.67,0-.41.09-.81.13-1.22A.37.37,0,0,0,127.91,40.88ZM17.84,75.32c-.05.7-.29,1.41.16,2.06C18,76.69,18.32,76,17.84,75.32Zm23.05,6.54,1.79-.33c.22,0,.28-.2.24-.47-.64.17-1.24.33-1.84.51C41,81.58,41,81.7,40.89,81.86ZM53.56,62c-.8,0-1.07.11-1.28.67C52.92,62.83,53.21,62.69,53.56,62Zm20.73,4.45c-.82-.07-1.35.15-1.45.6C73.71,67.08,74.18,66.89,74.29,66.41Zm37.22-6.51c-.29.7-.15,1.14.41,1.26C112.1,60.4,112,60.11,111.51,59.9Zm19.84-15.45a3.53,3.53,0,0,0,.12-1.72c-.05,0-.12,0-.13.05-.11.46-.22.92-.29,1.38C131,44.23,131.23,44.33,131.35,44.45Zm2.06-.79c-.06.52-.12,1-.15,1.46,0,.19,0,.41.27.45C133.82,44.09,133.82,43.86,133.41,43.66Zm-27.66,21c1.19.1,1.56,0,1.88-.24C106.47,64.21,106.19,64.24,105.75,64.68ZM42.16,58.37l.81.74.6-.7C43.1,58.15,42.7,58.34,42.16,58.37ZM18.47,79.59c0,.26,0,.42,0,.58a7.26,7.26,0,0,1-.16,2,1.42,1.42,0,0,0,.09.59l.12,0a27.44,27.44,0,0,0,.14-2.87S18.57,79.73,18.47,79.59ZM118.68,65l-.11.82.61.44C119.34,65.46,119.25,65.24,118.68,65ZM50.34,67.85c-.29,0-.36.14-.34.34,0,.78.09,1.57.14,2.35h.06ZM119.52,67a5,5,0,0,0-.14,2.29A3.88,3.88,0,0,0,119.52,67ZM57.75,61.61c-.65-.14-1,.09-1.12.66C57.3,62.3,57.56,62.15,57.75,61.61Zm67.12-22.27a1.42,1.42,0,0,0-.14,1.17l.38.14C125.3,39.86,125.26,39.61,124.87,39.34ZM131,67.62c-.75-.12-1-.06-1.15.33a.54.54,0,0,0,.67.3l.23-.32A3.09,3.09,0,0,1,131,67.62Zm-25.17-3.94c-.91-.07-1.33.1-1.43.58C104.85,64.13,105.43,64.32,105.79,63.68ZM10.66,43.86a4.46,4.46,0,0,1,.5.62,2.3,2.3,0,0,0,1,.8C11.93,44.45,11.18,44.21,10.66,43.86ZM17,73.54a2.52,2.52,0,0,0,.14,1.83C17.19,74.76,17.51,74.13,17,73.54Zm101.65-2.6a3.63,3.63,0,0,0-1.91-1.4A9.22,9.22,0,0,0,118.69,70.94ZM58.79,62c.82.12,1.16-.06,1.21-.65C59.53,61.42,59.05,61.42,58.79,62Zm53.86-1.19c0,.19,0,.34-.05.49a.31.31,0,0,0,0,.1c0,.42,0,.44.47.61C113.2,61.16,113.11,60.86,112.65,60.82ZM17.25,70c-.21,1.07-.18,1.69.1,2A3.79,3.79,0,0,0,17.25,70ZM139,66.64c.47-.07.82-.1,1.17-.17s.36-.17.23-.41l-1.18.11Zm-114.42,12a6.92,6.92,0,0,0,2.66-.57l-2.56.4S24.63,78.55,24.58,78.64ZM17,78.28a3.16,3.16,0,0,0-.87-2.19ZM131.14,67.82c.89,0,1.1-.07,1.31-.44C131.8,67.21,131.42,67.32,131.14,67.82ZM55.49,62.38c.66,0,1-.28,1-.75C55.77,61.71,55.59,61.84,55.49,62.38Zm86.68,3.51c-.46.1-1.07-.25-1.43.46C141.3,66.29,141.81,66.35,142.17,65.89ZM86.06,59.74c.66.1.85,0,1.08-.64C86.47,59,86.22,59.18,86.06,59.74ZM68.33,63.18a2.86,2.86,0,0,0-1.42,1.65A9.18,9.18,0,0,0,68.33,63.18ZM18.15,73.74A7.89,7.89,0,0,0,18,71.49C17.78,72.68,17.83,73.36,18.15,73.74ZM130.46,43.88c.21-1,.2-1.25,0-1.59C130.1,43.15,130.11,43.64,130.46,43.88ZM90.85,58.82c-.63-.1-.94.09-1,.62C90.47,59.46,90.68,59.32,90.85,58.82ZM41.74,75.22l-2.15.31c-.05,0-.09.11-.21.26A9.38,9.38,0,0,0,41.74,75.22Zm-3,2.37a3.34,3.34,0,0,0,1.3,0c.08,0,.14-.18.27-.37A4.12,4.12,0,0,0,38.74,77.59ZM50.85,46.15c-.13.26-.19.5,0,.62a.84.84,0,0,0,.52-.08.31.31,0,0,0,.23-.42Zm36.07-1.56-.48-.12-.4,0V45C86.62,45.07,86.7,45,86.92,44.59Zm33.67,21.78c-.15.7-.13.75.32,1C121.18,66.81,121.1,66.58,120.59,66.37ZM55.82,64.85a3.69,3.69,0,0,0-1.27,1.55C55,65.91,55.63,65.55,55.82,64.85ZM17.88,79.35c.18-1,.14-1.37-.17-1.83A3.3,3.3,0,0,0,17.88,79.35Zm116-12.22h-.59c-.38,0-.4,0-.47.44C133.33,67.71,133.75,67.53,133.85,67.13ZM83.49,59.5l-1.16.09c-.18,0-.36,0-.35.29l.8,0H83C83.28,59.88,83.47,59.78,83.49,59.5Zm9.37-.81c-.61-.07-.86.05-1,.52C92.46,59.35,92.7,59.23,92.86,58.69Zm11.73-14.53.15,0c.32-.56.13-1.19.26-1.81l-.21,0C104.72,43,104.65,43.57,104.59,44.16Zm37.89,26.6,0,.12c.35,0,.7-.09,1-.15s.2-.2.23-.38A1.74,1.74,0,0,0,142.48,70.76Zm-40.22-6.71c-.46,0-1-.18-1.36.39C101.42,64.38,101.92,64.55,102.26,64.05Zm1.59-.19c-.41,0-.84-.11-1.12.39h1.12ZM26,30v.11l3.38-.16v-.07ZM128.2,67.83l-.08-.08c-.3.28-.79.08-1.05.46l.25.37c.1-.4.41-.23.66-.27Zm-5.71.56c-.16-1-.16-1-.51-1C121.87,68.07,122,68.29,122.49,68.39ZM63.6,61.49c.89,0,1,0,1.22-.42C64.39,61.12,63.92,60.92,63.6,61.49Zm54.06,3.61c0-.38.14-.76-.18-1.09C117.17,64.55,117.23,65,117.66,65.1ZM76.14,67.43v-.18H74.78c-.19,0-.35,0-.41.28ZM62.28,65a2.36,2.36,0,0,0,1-1.18A2.11,2.11,0,0,0,62.28,65Zm37.31-6.68h-.92l-.27.48c.45-.09.77-.14,1.09-.23C99.54,58.51,99.55,58.38,99.59,58.27ZM57.93,62.1c.48.09.66,0,.76-.56C58.2,61.5,58.06,61.61,57.93,62.1Zm5.6-1a.85.85,0,0,0-.78.17v.41C63.11,61.65,63.46,61.64,63.53,61.13Zm-20.85,15a2.93,2.93,0,0,0-1.7.29A3.08,3.08,0,0,0,42.68,76.13ZM88,63.29c1.06-1,1.12-1.1,1.12-1.49A3.8,3.8,0,0,0,88,63.29Zm15.19-17.67a.47.47,0,0,0-.54-.29l-.49.11c-.16,0-.35,0-.53.18Zm6.2,17.88-1.09.55h1.06ZM99.11,61.81a3.4,3.4,0,0,0,1.12-1.26A2.5,2.5,0,0,0,99.11,61.81Zm24.55-22c.17-.87.15-1-.15-1.21C123.39,39.28,123.41,39.5,123.66,39.83ZM116,64.64c-.28,1.26-.28,1.57,0,2Zm6.43,8.71v-.62c-.24-.1-.45-.23-.74,0ZM9,57.4H9V54.61H9Zm9.83,13.48c-.18.09-.28.11-.3.17a1.77,1.77,0,0,0,.22,1.12ZM18,70.7A11.48,11.48,0,0,0,18,68.16,9.48,9.48,0,0,0,18,70.7ZM144.31,64a2.88,2.88,0,0,0,1.5-.18A2.27,2.27,0,0,0,144.31,64ZM68.48,61.08c.79.09.87.07,1-.22C68.89,60.72,68.66,60.77,68.48,61.08Zm-.22-32.35v-.9l-.41-.08C67.94,28.12,67.92,28.48,68.26,28.73ZM91,59.32c.48,0,.56,0,.68-.53C91.24,58.74,91.15,58.81,91,59.32Zm5.16-.51c.34-.09.78.15,1-.31C96.56,58.34,96.37,58.39,96.16,58.81ZM18.43,70.6c.34-.1.36-.1.31-.25-.09-.31-.21-.62-.31-.93l-.1,0ZM96,58.5c-.34-.07-.54-.07-.63.07a1.12,1.12,0,0,0-.1.41C95.66,59,95.93,58.91,96,58.5Zm42,8.22c.59,0,.76-.07.71-.47C138.26,66.31,138.24,66.33,138,66.72ZM113.38,63a1.66,1.66,0,0,0,0,1.4ZM94.87,62a3.33,3.33,0,0,0,1-1.07C95.38,61.15,95.22,61.32,94.87,62Zm37.37-18.78a2.37,2.37,0,0,0-.13,1.46h.13ZM148.79,64c.06-.21,0-.35-.17-.38s-.44.07-.58.38Zm.56,5.76a2.85,2.85,0,0,0,.07-1.36C149.33,68.81,149.11,69.25,149.35,69.72ZM17.9,80.63c0-.46.08-.84-.26-1.22C17.63,79.86,17.51,80.24,17.9,80.63ZM52.65,66.07l.83-.81a1.24,1.24,0,0,0,.11-.23A1.44,1.44,0,0,0,52.65,66.07Zm69-31.1c-.16.64-.13.72.23.78C122,35.24,122,35.14,121.64,35ZM18.52,79.27h.12V77.13A10.22,10.22,0,0,0,18.52,79.27ZM73.16,68.2a1.89,1.89,0,0,0-1.41.07A2.74,2.74,0,0,0,73.16,68.2Zm8.52-8.46v-.12l-.53,0c-.17,0-.41,0-.48.24A.93.93,0,0,0,81.68,59.74Zm23,5.64a1.5,1.5,0,0,0-1.34,0Zm-6.36-7c-.64-.1-.72-.07-.87.37A.81.81,0,0,0,98.34,58.38Zm27.27-18.57h-.12l-.06.92A.68.68,0,0,0,125.61,39.81Zm-55.75,24c.79-.67.79-.67.85-1A1.59,1.59,0,0,0,69.86,63.78ZM15.44,51c0-.2,0-.35-.17-.38a2.5,2.5,0,0,0-.51,0l.18.44Zm86.12,7.25a1.43,1.43,0,0,0-1,.07s0,.11,0,.24C100.84,58.38,101.23,58.68,101.56,58.27ZM16.69,68.57h-.13a4.72,4.72,0,0,0,.13,1.63ZM82,61.45V61.3l-1.52.15v.1ZM104.8,41.92H105V40.69h0Zm9.64,19.47c.15.5.27.59.73.59A1.06,1.06,0,0,0,114.44,61.39ZM39.55,81.82v.1h.76c.23,0,.23,0,.37-.32Zm46.86-19a2.34,2.34,0,0,0,.78-.9A1.31,1.31,0,0,0,86.41,62.81Zm33.09,3.6c.33-.33.31-.46,0-.82Zm-17-6.27a1.4,1.4,0,0,0-.75.86C102.35,60.55,102.37,60.54,102.51,60.14Zm8.71-2.69c.16-.64.16-.71,0-1.13C111.18,56.72,111,57.07,111.22,57.45Zm13.07-18.28c-.27.49-.25.61,0,.9Zm5.65,3c0,.25,0,.45-.06.64s0,.37,0,.66A1.34,1.34,0,0,0,129.94,42.17ZM47.32,62.68l0-.11-.71,0,.34.38Zm63.77-3v1A.72.72,0,0,0,111.09,59.66Zm9.18-24h.13a3,3,0,0,0-.06-1.33ZM134.1,47.07c.08.36.08.36.36.46C134.53,47.13,134.53,47.13,134.1,47.07Zm-7.95-7,.08,1.1C126.47,40.42,126.46,40.28,126.15,40ZM68.59,44c-.08-.38-.08-.38-.46-.35l0,.4Zm2.09,16.76a.64.64,0,0,0-.69.1C70.35,61.09,70.42,61.08,70.68,60.74ZM18.63,72.8h-.06v1.51h.06ZM32.49,46.51l.45,0c0-.34-.12-.46-.45-.39Zm82.08,21.15a.79.79,0,0,0,.77.53ZM17.13,76.92V76.3C16.8,76.44,16.8,76.44,17.13,76.92ZM41.32,56.31v.13a1.22,1.22,0,0,0,1-.18Zm72.09,4.91c-.27.53-.26.69,0,1Zm27.12,3.27a1.62,1.62,0,0,0,1-.17C140.94,64.26,140.91,64.27,140.53,64.49Zm4.31,1.1.08.09c.39-.06.39-.06.46-.49Zm-77.3-19c-.34-.18-.57,0-.81,0A.69.69,0,0,0,67.54,46.61Zm75.82,17.55V64c-.34.1-.7,0-1,.24ZM27.52,78.06l0,.13L28.65,78l0-.09ZM148.25,64.78c-.38.26-.38.26-.46.6C148.08,65.23,148.08,65.23,148.25,64.78Zm-15.71,2.35,0-.15-.81.08v.13ZM16.45,73.51h0l.06-1h-.08ZM102,58.18c.32.33.39.32.59,0ZM50.51,65.39l-.07-.08-.49.32.29.24ZM13.09,45c.09-.37.09-.37,0-.61C12.79,44.78,12.79,44.78,13.09,45ZM27.83,84V84l-1,.15v.06Zm112-19.39v-.16l-.92.13,0,.14ZM11.34,43.83c0-.41,0-.42-.49-.31ZM12.89,38H13a.78.78,0,0,0,0-.77ZM71,61l.68-.07C71.2,60.63,71.2,60.63,71,61Zm53.8,12.21c-.23,0-.49-.19-.73.08A.6.6,0,0,0,124.76,73.16ZM103.44,58.21c-.46-.12-.46-.12-.66.16C103,58.37,103.25,58.43,103.44,58.21Zm34.63,6.67c-.3,0-.61-.16-.87.1ZM15.76,70.1V69A1.44,1.44,0,0,0,15.76,70.1Zm91.92-6.17.56-.2C107.85,63.53,107.85,63.53,107.68,63.93ZM122,38.31c-.15.22-.3.45,0,.7Zm5.76,29.07,0,.14.64-.06v-.14ZM111.37,55h-.08l-.09.69.12,0Zm36.64.53c.1.29.28.42.68.34Zm-79.88-11a.24.24,0,0,0,.4.07.17.17,0,0,0,0-.17.25.25,0,0,0-.38.05ZM116.2,63.84h.13v-.52h-.08Zm10.41,3.72,0,.13c.17-.06.4.1.59-.23ZM38.52,77.64l0-.16c-.18,0-.38-.06-.57.26ZM32.55,47c.12.16.24.24.39.1A.15.15,0,0,0,33,47C32.82,46.82,32.7,46.88,32.55,47Zm87.33,24.84.08-.12-.52-.39-.08.11Zm14.93-25.93c.26-.17.34-.31.17-.58Zm-33-1.49c-.19-.11-.37-.19-.54,0Zm14.08,19.61c.12-.15.19-.3,0-.49Zm20.2,1.08,0-.1-.45.1,0,.1Zm-68.39-4,.1.09a.43.43,0,0,0,.3-.46ZM21.9,84.74l0,0h-.43v0Zm89.39-30.49h0v-.57h0Zm19,13.06,0,.13.56-.11,0-.09ZM113,60.59l.09-.11c0-.19-.12-.29-.45-.26ZM25.58,49.78v0h.47v-.06ZM13,46l.13,0-.05-.28H13ZM115.62,68.37l-.11.11.43.35Zm3.46-3.48.09-.14-.36-.23-.07.11Zm-76,2.72v.07l.44-.05v-.09Zm82.89,0v.1c.15,0,.29.08.38-.16ZM68.86,29c-.28.21-.27.33,0,.47ZM25.69,77.64v0h.39v0Zm6.88-46.39c-.26.23-.26.23,0,.35ZM43.16,76.18c.29.11.37,0,.39-.2ZM146.65,63.71v-.09h-.19a.54.54,0,0,0-.16.1l0,.05ZM73.59,62l0,.1.25-.1,0-.08ZM67.74,29.22l.08,0L68,29,67.77,29Zm44.38,30.53-.39-.29C111.76,59.66,111.82,59.82,112.12,59.75ZM99.86,58.48l.11.1.24-.25-.08-.08Zm34.89-10.7h.06v-.49h-.06Zm-14.17,23-.08.08.27.26.07-.08ZM19.68,85.22l0,.08.4,0v0ZM129.1,68.4v-.12l-.22,0v.08ZM11.88,43.55l-.09,0,.11.24.08,0ZM35.42,77.07V77l-.32,0v0ZM74.25,62l.38-.07C74.45,61.67,74.37,61.74,74.25,62ZM24.87,49.88v.06l.3,0v0ZM41,56.17l0-.14-.32.1,0,.1Z"/><path d="M135.72,73.14c3.92-.37,7.73-1,11.58-1.17v.1l-5.74.7C137.25,73.3,136.24,73.38,135.72,73.14Z"/><path d="M36.35,83.94c2.56-.28,5.12-.55,7.67-.84.2,0,.38,0,.44.27a1.35,1.35,0,0,1-.3.14,12.53,12.53,0,0,1-1.73.18c-1.76,0-3.5.2-5.25.33l-.81,0Z"/><path d="M133.11,75l-2.42.32L126,76a8.1,8.1,0,0,0-.94.24,1,1,0,0,1-1-.12.29.29,0,0,1,.36-.28,10.44,10.44,0,0,0,2.95-.21c1.64-.19,3.28-.43,4.92-.64a7.12,7.12,0,0,1,.8,0Z"/><path d="M14.5,74.75a22,22,0,0,1,1.43,3.81A15.57,15.57,0,0,1,14.5,74.75Z"/><path d="M79.8,27.09H75A21.82,21.82,0,0,1,79.8,27.09Z"/><path class="cls-1" d="M125.27,69.28c.18-.47.56-.52,1-.52-.21-.06-.45,0-.4-.26l-1,.08c-.21,0-.43,0-.51.38l.57-.16c.24-.07.36,0,.38.24A1,1,0,0,1,125.27,69.28ZM129,70.86l-.1-.08a1.37,1.37,0,0,0-.65,1.16Zm-3.73-.08.11.07.33-.48-.09-.07Z"/><path class="cls-1" d="M106.88,61.56a4.57,4.57,0,0,0,.89-.86l-.08-.08Z"/><path class="cls-1" d="M60.68,59.63c-.41.28-.41.28-.48.59Z"/><path class="cls-1" d="M104,56.91l-.11-.1-.41.44.08.08Z"/><path d="M27.94,68.72c-.21,0-.42.06-.63.07-.89,0-1.78,0-2.66.12-1.19.11-2.37.28-3.55.44-.28,0-.56.13-.85.15a.48.48,0,0,1-.38-.16,2,2,0,0,1-.24-.53l.08-.09a1.6,1.6,0,0,1,.43.28.75.75,0,0,0,.83.23c.7-.12,1.4-.29,2.11-.36,1.43-.13,2.86-.22,4.29-.32a3.41,3.41,0,0,1,.55,0Z"/><path d="M17.18,59.38a.43.43,0,0,1,.55.26,5,5,0,0,1,.74,1.62.35.35,0,0,0,.14.25c.27.13.24.38.23.66a2.51,2.51,0,0,1-.31-.35c-.41-.63-.81-1.26-1.2-1.91A1.85,1.85,0,0,1,17.18,59.38Z"/><path d="M71.78,51.28l2.09,1.9A5.09,5.09,0,0,1,71.78,51.28Z"/><path d="M16.13,51.88l.47,1.21-.08,0-.68-1.2Z"/><path d="M139.84,52.34l-.6-.34C139.58,52,139.59,52,139.84,52.34Z"/><path d="M138.48,51.35l.42.38-.07.1-.64-.4.31-.06Z"/><path d="M93,46.4h.64v0H93Z"/><path d="M98.15,46.69l-.42,0,0-.13.41.1Z"/><path d="M44.94,65.11l-.26-.33C45,64.79,45,65,44.94,65.11Z"/><path d="M43.6,45a35,35,0,0,1-6.38.47l6.38-.59Z"/><path d="M46,45.69h.24v0H46Z"/><path d="M79.18,43a35.82,35.82,0,0,1-6.71.24l6.72-.34Z"/><path d="M103.65,40.18c-2.81.1-5.63.2-8.44.32-1.31,0-2.62.15-3.93.24-.66,0-1.32.13-2,.19a2,2,0,0,1-.79-.09c1-.1,2.06-.22,3.09-.3,3.47-.28,7-.39,10.43-.43.55,0,1.09,0,1.63.07Z"/><path d="M105.78,40h.63v.07h-.63Z"/><path d="M120.28,42a.38.38,0,0,1-.4-.18l.05-.08.35.27Z"/><path d="M43.71,69a20.66,20.66,0,0,1-3.59.39A5,5,0,0,1,43.71,69Z"/><path d="M26,70.57l.35,0v.06l-.36,0Z"/><path d="M22.41,80.24l-.94,1.39A1.78,1.78,0,0,1,22.41,80.24Z"/><path d="M28.06,79.13c0,.05,0,.11,0,.15a10.64,10.64,0,0,1-1,1.79l-.09,0,.54-.94.59-.94Z"/><path d="M21.43,83.85a1.22,1.22,0,0,1,.73-1.27Z"/><path d="M26,82.48a2.5,2.5,0,0,1-.72,1.2C25.29,83.33,25.46,83.06,26,82.48Z"/><path d="M30,82.2l-.45.71c0-.34.19-.54.34-.77Z"/><path d="M125.27,69.28a1,1,0,0,0,0-.24c0-.24-.14-.31-.38-.24l-.57.16c.08-.37.3-.36.51-.38l1-.08c-.05.23.19.2.4.26C125.83,68.76,125.45,68.81,125.27,69.28Z"/><path d="M127.44,69.31c-.22.45-.45.9-.67,1.34a5.39,5.39,0,0,1-.29.59,1,1,0,0,1-.47.37c.13-.23.26-.47.4-.7.3-.51.61-1,.93-1.51a.23.23,0,0,1,.11-.08Z"/><path d="M129,70.86l-.75,1.08a1.37,1.37,0,0,1,.65-1.16Z"/><path d="M125.25,70.78l.35-.48.09.07-.33.48Z"/><path d="M131.14,39.91l.78.43,0,.09-.8-.43Z"/><path d="M132.45,40.64,133,41l0,.08-.58-.32Z"/><path d="M130.1,39.41a.94.94,0,0,1,.24.06c.15.08.3.18.45.27l-.06.09-.62-.43Z"/><path d="M122.56,45.09l3.77,1.17,0,.12-3.78-1.16Z"/><path d="M128.33,46.86l.9.3a1.39,1.39,0,0,1-.94-.2Z"/><path d="M85.63,62a.87.87,0,0,0-.79.36c-.3.38-.67.72-1,1.08a2.1,2.1,0,0,1-.28.22c0-.29.17-.37.28-.5a6,6,0,0,0,.4-.46c.11-.14.2-.3.33-.5-.45.14-.45.14-1.2,1.19,0-.48.36-.73.37-1.13a2.55,2.55,0,0,0-.73,0c-.23,0-.5.14-.73-.16a.71.71,0,0,1,.2-.06L85.32,62l.31,0Z"/><path d="M143.23,67.67l-.32.43Z"/><path d="M88.2,58l.34-.25,0,0-.28.32Z"/><path d="M38.31,81l.32-.59Z"/><path d="M14.51,60.74,13.12,63,13,63A10.17,10.17,0,0,1,14.51,60.74Z"/><path d="M106.88,61.56l.81-.94.08.08A4.57,4.57,0,0,1,106.88,61.56Z"/><path d="M100.92,55.81l-.74.75c.09-.36.21-.49.67-.83Z"/><path d="M60.68,59.63l-.48.59C60.27,59.91,60.27,59.91,60.68,59.63Z"/><path d="M98.05,56.63l-.52.4c.06-.24.26-.35.43-.49Z"/><path d="M69.45,59.58l1.1-1.23.1.09a12.84,12.84,0,0,1-1.11,1.23Z"/><path d="M104,56.91l-.44.42-.08-.08.41-.44Z"/><path d="M106.11,56.73a.71.71,0,0,1-.54.5l.45-.56Z"/><path d="M44.4,58.4c.33,0,.67-.19,1.06,0A1.59,1.59,0,0,1,44.4,58.4Z"/></svg>