<svg id="Layer_1" data-name="Layer 1" xmlns="http://www.w3.org/2000/svg" viewBox="0 0 160 112"  width="160mm" height="112mm" ><defs><style>.cls-1{fill:#fff;}</style></defs><title>sketch</title><path d="M41,22.11a1.19,1.19,0,0,1-.4.21,17.64,17.64,0,0,0-2.11.45L42,22.59c2.89-.15,5.78-.36,8.68-.43,2.12-.06,4.24,0,6.36.09a1.54,1.54,0,0,0,1-.32c.3-.22.64-.38,1.08-.64l.24,1.27c.62-.22.81-.88,1.31-1.25a2.61,2.61,0,0,0,1.61,0,8.74,8.74,0,0,1,1.36-.2,114,114,0,0,1,14.9,0c.9.06,1.8.19,2.7.34l-10.56-.23a32.62,32.62,0,0,0,5.33.34l-.14.38,8.79,1a17.73,17.73,0,0,0-.12-2.27c.66.16.51.86,1,1.13a2.08,2.08,0,0,0,.28-.47.69.69,0,0,1,.78-.5,3.32,3.32,0,0,1,1.06.17,7.54,7.54,0,0,0,4,.48,66,66,0,0,1,8.89-.13c1.5.06,3,0,4.49,0,.44,0,.82,0,1,.48a.7.7,0,0,0,.72.5l2.09.07a5.62,5.62,0,0,0,.58,0c.89,0,1.07.18.94,1.06a2.76,2.76,0,0,1-.21.76,7.54,7.54,0,0,0-.67,4.72c.19,1.28.28,2.58.42,3.86l23.29,12.22c0,.72-.12,1.46-.16,2.2-.13,2.24-.24,4.48-.39,6.72a1.4,1.4,0,0,0,.83,1.48,98.45,98.45,0,0,0,10.27,5l6.63,2.89c.22.09.42.21.71.35l-.48.35c.3,2.48-.45,4.84-1.09,7.28l.68.09a.59.59,0,0,1,0,.19c-.18.4-.39.78-.55,1.18A.87.87,0,0,0,150,73.8c-.2.09-.4.12-.5.24a.9.9,0,0,0-.11.48q-.33,3.12-.65,6.26c-.09.86-.18,1.72-.28,2.72L148,83l-.17,0a14.47,14.47,0,0,1-1.73.17,9.49,9.49,0,0,0-4.79,1.1,2.86,2.86,0,0,0,1.48,0c.95-.15,1.9-.33,2.86-.44a9.54,9.54,0,0,1,1.41,0,.91.91,0,0,1-.84.77,4.43,4.43,0,0,1-1.36,0,13.36,13.36,0,0,0-4.46.1c-2.43.39-4.85.84-7.27,1.27a23.73,23.73,0,0,1-4.68.39,1.85,1.85,0,0,0-.88.22,5.9,5.9,0,0,1-1.39.35,14.34,14.34,0,0,0-1.7.28c.33,0,.66,0,1,0l9.29-.91c3-.31,6.09-.63,9.14-.93a2.56,2.56,0,0,1,1,.09c-1.19.16-2.37.33-3.56.47l-12.95,1.42c-4,.44-8,.89-12,1.07a29.81,29.81,0,0,0-3.72.55,5.46,5.46,0,0,0-1,.45,5.16,5.16,0,0,1-.69.14l-.22.45c-1.11-.06-1.22-.19-1.22-1.45l-1.43-1c-.09-.06-.25-.14-.32-.1-.41.25-.69,0-1-.22-.48-.29-1-.59-1.4-.9-3.09-2.16-6.18-4.31-9.26-6.48-.76-.54-1.49-1.14-2.24-1.69a.89.89,0,0,0-.53-.15c-1.16,0-2.32,0-3.48,0a2.34,2.34,0,0,0-.64.08,39.48,39.48,0,0,1-4.85.77c-2,.24-4,.54-5.94.81-1.27.17-2.55.27-3.79.54a30.67,30.67,0,0,1-4.67.55c-3.51.23-7,.43-10.54.72-1.22.11-2.42.45-3.62.68a3,3,0,0,0-1.49.5,1,1,0,0,1-.42.1c-2.43.37-4.86.75-7.3,1.1-1,.15-2.06.24-3.09.35l-.54.07-.4.82c-.12,0-.18,0-.21,0a2.7,2.7,0,0,0-2.21-.35c-2.64.3-5.27.69-7.91.87-1.65.11-3.29.31-4.95.32a1.47,1.47,0,0,1-.21,0c-.71,0-.71,0-1,.72,0-.19-.05-.3-.06-.41s0-.24,0-.33l-2.89-.66,0,.12-.4-.5c-3.18-4.19-6.31-8.43-9.08-12.9a3.48,3.48,0,0,0-.64-.69c-.37-.34-.77-.65-1.14-1a2.21,2.21,0,0,1-.65-1.15l.67.54.12-.09c-.17-.25-.36-.48-.52-.73s-.44-.74-.65-1.12c-.05-.08-.05-.22-.12-.25-.47-.2-.38-.6-.38-1.15l.31.62c.07-.05.12-.07.12-.09,0-.31.08-.62-.34-.77-.09,0-.13-.34-.12-.51.08-1.16.17-2.31.26-3.47s.18-2.06.23-3.1a8.33,8.33,0,0,0-.24-2.43,8,8,0,0,1-.1-2.08c0-1.31.14-2.6.18-3.91a1.62,1.62,0,0,0-.39-1.33l.5-1.13c-.06-.43-.66-.47-.94-.9a8.82,8.82,0,0,1,2.58-.65,46.17,46.17,0,0,1,6.65-.26c1.59,0,3.19,0,4.78-.05.36,0,.71-.07,1.15-.11.06-1.17.16-2.3.17-3.43,0-3,0-5.94,0-8.91,0-1.44.08-2.89.15-4.34,0-.89.06-.89.94-.72,1.22-2.22,3.35-2.52,5.62-2.63.09-.19.17-.41.27-.62a1.65,1.65,0,0,1,.91-.79c.76-.35.78-.39.49-1.19a.57.57,0,0,1,0-.13,2.07,2.07,0,0,1,1.85-.88c1.93-.07,3.85-.23,5.78-.35Zm-9,5.46c.36-.34.37-.39.17-.93-.07.37-.12.65-.16.94v1h.1ZM68.23,77.08l-.48.24,0,.1.92-.19,0-.13h-.47l.64-.22,0-.1-1,.11V77Zm60.65,1.18v-.6c-.18,0-.39,0-.42.1-.18.35-.49.33-.81.36a4.62,4.62,0,0,0-.63.11.44.44,0,0,0-.36.56,4.14,4.14,0,0,0,2.25-.56c.05,0,.09.14.15.15a4.44,4.44,0,0,0,2.25-.35.91.91,0,0,0,.58-.7c-.45,0-.85.09-1.26.11A2.27,2.27,0,0,0,128.88,78.26ZM13.56,63.05c0-.31-.24-.47-.54-.62v.71l.56-.11a13.15,13.15,0,0,0-.09,3.43c.18-.44,0-1,.35-1.35,0,.4-.06.8-.1,1.2A1.35,1.35,0,0,0,14,67.54c.13-1.26.25-2.43.36-3.59a.44.44,0,0,0-.1-.32C14.05,63.42,13.8,63.24,13.56,63.05ZM89.9,64.92l-.11.67h.91c-.15-.47.25-1-.06-1.4l-.76.76c.1-.22.22-.42.32-.64a7.29,7.29,0,0,0,.42-1,1.91,1.91,0,0,0-.15-1c-.08-.29.36-.65.08-1.12a12.89,12.89,0,0,0-3,4.28c.24.12.39.25.53.24.63,0,1.33.06,1.68-.69C89.79,65,89.86,64.94,89.9,64.92ZM64.29,73.39,65,72l-2,.25-.59.75a1.46,1.46,0,0,0-.43,1l.89-1L63,73c-.78,1.38-2.14,2.36-2.92,3.9.52-.05.92-.1,1.32-.1a.83.83,0,0,0,.7-.42c.58-.8,1.19-1.57,1.79-2.36l-1.35,2.61a2.71,2.71,0,0,0,2.72-1.09c.24-.32.5-.63.75-.94l-1,1.82,2.35-.22a5.07,5.07,0,0,1,.34-.55c.59-.74,1.19-1.47,1.79-2.2-.18.28-.35.56-.54.84a8.65,8.65,0,0,0-1.1,1.82c.55,0,1.05,0,1.55,0a.87.87,0,0,0,.75-.34l1.58-2c.22-.28.46-.55.69-.83l-1.69,3c.73,0,1.37,0,2,0a.69.69,0,0,0,.46-.27c1-1.27,1.9-2.55,2.84-3.83a2.3,2.3,0,0,0,.2-.42c-.09,0-.12-.09-.17-.1l-.21,0a3.87,3.87,0,0,0-3.25,1.42l.73-1.15-2.47.17c-.13.18-.29.42-.48.64s-.62.7-.93,1.06c.13-.27.27-.54.41-.81s.23-.49.38-.79c-.63,0-1.13,0-1.63,0a.82.82,0,0,0-.77.4c-.52.68-1.08,1.33-1.62,2,.25-.41.51-.81.75-1.22a1.44,1.44,0,0,0,.33-1.14,2.81,2.81,0,0,0-2.32.81C64.79,73,64.53,73.17,64.29,73.39Zm64.15,8.85,1.87-2.64c.17-.25.42-.48.27-.85-.61.09-1.2.14-1.78.25a.85.85,0,0,0-.43.35q-1.78,2.67-3.55,5.34a4.88,4.88,0,0,0-.22.51,2.29,2.29,0,0,0,2.42-.88c.09-.11.19-.21.29-.32l-.32.87,1.07-.15a1.07,1.07,0,0,0,.88-.63c.26-.49.58-.94.88-1.41.72-1.14,1.44-2.28,2.15-3.42.14-.24.25-.5.42-.84a1.79,1.79,0,0,0-1.49.75c-.6.92-1.31,1.79-2,2.66A2.67,2.67,0,0,1,128.44,82.24Zm10.13.24a1,1,0,0,1,.05-.2l2.28-3.68c.22-.37.43-.75.63-1.13a1.65,1.65,0,0,0,.1-.44l-.13-.1c-.16.15-.35.28-.49.44-.57.68-1.13,1.38-1.7,2.06a4.57,4.57,0,0,1-.45.43c.22-.34.45-.68.66-1a4.3,4.3,0,0,0,.81-1.66c-.75.12-1.46.25-2.17.34a1.06,1.06,0,0,0-.83.59c-.84,1.35-1.72,2.67-2.59,4a2.81,2.81,0,0,1-.29.31c.77-1.64,2-3,2.71-4.74-.56.07-1,.15-1.51.19a.71.71,0,0,0-.53.42c-.5.8-1,1.58-1.53,2.37s-1.05,1.61-1.55,2.44a9.54,9.54,0,0,0-.45,1c1.44-.24,2.77-.44,4.09-.68a1.17,1.17,0,0,0,.56-.39c.49-.59.95-1.21,1.44-1.81.24-.29.52-.55.77-.82-.48.73-1,1.46-1.43,2.2a5.89,5.89,0,0,0-.28.52,1.66,1.66,0,0,0,1.34-.33l.52-.35c-.07.33.09.45.39.42a5.71,5.71,0,0,1,1.07-.14.86.86,0,0,0,.82-.47c1.18-1.72,2.38-3.43,3.57-5.15a4.16,4.16,0,0,0,.31-.58c-.36,0-.62,0-.87.07a11.1,11.1,0,0,1-1.13.19.83.83,0,0,0-.72.49q-1.18,1.93-2.43,3.84C139.3,81.59,138.92,82,138.57,82.48ZM24.09,48.86l1.14-.16a5,5,0,0,0,1.58-.33A5.16,5.16,0,0,0,24.1,48l-4.9.27c-.85,0-1.69.09-2.53.15-.29,0-.58.1-1,.16a1.38,1.38,0,0,0,1.24.53c.56,0,1.11-.12,1.66-.13,1.83-.06,3.66-.1,5.49-.15a5.59,5.59,0,0,1-.56.12l-4.9.35-2.13.17a1.5,1.5,0,0,0,1.26.81,8.65,8.65,0,0,0,1.44,0c.7,0,1.39-.16,2.09-.18,1.78-.06,3.56-.07,5.34-.12.67,0,1.33-.1,2-.15l.12-.47c.48.55.48.55,1.05.36a1.77,1.77,0,0,0-1.8-1C26.69,48.79,25.39,48.8,24.09,48.86Zm105.4,4.4a4.76,4.76,0,0,1,1.62.74,4,4,0,0,0,.86.31c.06-3.06.5-6,.54-8.89-1.16-.32-2.22.08-3.36,0a4,4,0,0,0,0,.79,3.75,3.75,0,0,1,0,1.11,23.33,23.33,0,0,1-.66,4.56c0,.23-.06.46-.09.69.3.14.55.24.78.37a2.06,2.06,0,0,1,.31.34c-.22-.05-.44-.1-.66-.13a2.18,2.18,0,0,0-.42,0,6.72,6.72,0,0,0,3.46,1.56c-.42-.21-.74-.35-1-.54C130.38,53.89,129.94,53.57,129.49,53.26ZM120.34,39a6.29,6.29,0,0,1-.65-.26l-9-4.86c-.29-.16-.59-.29-.89-.44-.06.17-.09.23-.11.3-.23,1-.33.86.61,1.37,2.18,1.2,4.38,2.35,6.52,3.6,3.44,2,6.84,4.06,10.26,6.09.22.13.5.31.71.27a9.84,9.84,0,0,1,2.6,0,3.65,3.65,0,0,0,1.86-.34C127,42.07,122,39.16,116.73,36.65c1,.69,2,1.3,3.06,1.93a5.24,5.24,0,0,1,.54.42Zm-3.6,41.63a.51.51,0,0,0-.74.19c-.26.4-.53.78-.79,1.17l-.13-.07,1.25-2.16c-.55.08-1,.13-1.34.2-.94.17-1.88.45-2.85-.31L112,86.05c.61.15,1.31-.06,1.73.56l.31-.18.16.42,1.94-.78-.15.39a2,2,0,0,0,1.82-.78l-.06.55.81-.11.87-.1c1.07-2.11,2.79-3.81,3.84-6.09a5.32,5.32,0,0,1-1,.11,1,1,0,0,0-1,.65c-.3.49-.6,1-.91,1.48a1.35,1.35,0,0,1-.7.61,13.37,13.37,0,0,0,1.53-2.54l-1.46.17-.91,1.34-.06,0,.47-1-.49-.63a7.36,7.36,0,0,0,1.06-.34c.3-.14.3-.3.09-.68l.46-.15a.52.52,0,0,0-.47-.17,2.36,2.36,0,0,0-.81.45c-.55.57-1,1.18-1.55,1.78l-.48.58,0,0,.27-.77-.56-.23c.22-.46.65-.48,1.08-.47l.3-.7-.13-.09c-.4.39-1.08.13-1.43.59ZM34.35,53.76a3.24,3.24,0,0,0-2.79-.62,21,21,0,0,1-2.51.3,1.32,1.32,0,0,1-.42-.09V53.2L33,52.87a1.38,1.38,0,0,0-.8-.91,1.57,1.57,0,0,1-.67-.63,2.4,2.4,0,0,0-1.89-1.17,4.92,4.92,0,0,0-1,0c-3,.12-5.93.24-8.9.38-.82,0-1.64.16-2.52.25l.36.77,11.65.26c-3.7.22-7.4,0-11.18.15a18.6,18.6,0,0,0,1.59,2.87A42.57,42.57,0,0,0,24,60a2.8,2.8,0,0,0,2.57,1c4.47-.38,9-.63,13.43-.93a3.17,3.17,0,0,0,.45-.11,9.93,9.93,0,0,0-2.53-2.52l.13,1-.18.07a4.12,4.12,0,0,1-.39-.63c-.1-.24-.1-.52-.18-.77a1,1,0,0,0-.24-.49A12.75,12.75,0,0,1,35,54.34l.71.28a4.34,4.34,0,0,0-1.38-1.3Zm48.8-6.19c.24.34.36.57.53.76.46.53.94,1,1.42,1.55s.87.9,1.29,1.37a1.94,1.94,0,0,1,.2.38l-.08,0-.88-.62-.11.13.55.55c.44.43.87.85,1.3,1.29s.63.72,1,1.06c.84.82,1.7,1.62,2.61,2.48l1.2-.82c-1.52-1.32-3.27-2.15-4.6-3.52a16.49,16.49,0,0,1,1.83,1.26,4.59,4.59,0,0,0,2.32,1.1,1.37,1.37,0,0,1,1,.57c.29.36.54.74.84,1.08.11.13.35.28.47.24.33-.13.49.09.71.22,1.59,1,3.15,2,4.76,2.89,2.67,1.52,5.36,3,8,4.46.27.15.53.31.79.47-1.48-.38-2.69-1.38-4.26-1.9a2.5,2.5,0,0,0,.24.26,47,47,0,0,1,4.85,3.29,2.89,2.89,0,0,0,2.41.46c1-.16,2-.28,2.94-.38.51-.06,1-.06,1.54-.08-.56.29-1.23.18-1.91.6.26,0,.36,0,.45,0l8.93-.91c2.32-.25,4.64-.56,7-.75s4.68-.28,7-.37c1.28,0,2.55,0,3.83,0v.15c-.25.05-.5.13-.75.16-3.15.44-6.3.93-9.46,1.29-5.11.6-10.22,1.1-15.33,1.65-1.12.12-2.24.29-3.37.43a1.57,1.57,0,0,0,.58,1.25c.45.41.94.76,1.4,1.14l.72.63-.1.13-1.26-.65a2.27,2.27,0,0,0-1.55-.29c-.07,2-.14,4.08-.21,6.16l.6,0c1.84-.26,3.67-.55,5.52-.79,3.61-.47,7.22-.89,10.84-1.36,4.18-.55,8.37-1.11,12.54-1.7,2.08-.3,4.14-.69,6.21-1a.65.65,0,0,0,.62-.59c.1-.54.25-1.08.38-1.61a26.68,26.68,0,0,0,.8-4.85,3.61,3.61,0,0,0,0-.87c-.05-.24-.18-.48-.55-.4l.23.6c-.09,0-.14.07-.18.06l-.55-.14a12.81,12.81,0,0,0-4.43-.54c-1.47.07-2.94.21-4.41.3a5.85,5.85,0,0,0-2.11.39,2.09,2.09,0,0,1-.71.15c-2,.19-4,.39-6,.54-3.29.25-6.59.47-9.89.7-.33,0-.66,0-1,0,8.61-1.3,17.31-1.74,26.12-2.68-.32-.26-.48-.43-.67-.56a15.85,15.85,0,0,0-1.65-1c-2.28-1.15-4.58-2.27-6.87-3.4-.07,0-.19-.08-.2-.06-.31.45-.54,0-.75-.1-1.3-.67-2.59-1.37-3.89-2.08l-.13.32a10.09,10.09,0,0,1-2.24-1,8.22,8.22,0,0,0-2.73-1.21c-1.91-.59-3.85-1.09-5.78-1.62l-2.3-.61c2.09.32,4.15.81,6.24,1.15a7.24,7.24,0,0,0-1-.68c-1.15-.72-2.5-1-3.64-1.8a39.7,39.7,0,0,0-4.59-2.61c-1.23-.65-2.49-1.26-3.74-1.87-.47-.23-1-.25-1.33-.79-.09-.15-.37-.22-.57-.3s-.67-.26-1-.38l-.82.63c.39.25.76.55,1.18.77a13,13,0,0,0,1.35.52l1.25.49-.08.19L107.08,45c-.43.32-1,.21-1.5.24-.37,0-.77,0-1,.38l2.38.79,0,.17-1-.26c-.65-.19-1.29-.41-1.94-.57a1.58,1.58,0,0,0-1.56.36c6.27,1.93,12.55,3.56,18.7,5.63-6.84-1.76-13.48-4.26-20.5-5.36a13.86,13.86,0,0,0,1.93.77c2.11.59,4.23,1.15,6.35,1.73l2.24.61,0,.11-10.21-2.49,0,.14c4.19,1.34,8.43,2.55,12.68,3.68s8.47,2.24,12.71,3.36a3.34,3.34,0,0,1-1-.11C120.06,53,115,51.66,110,50.22c-3.52-1-7-2-10.57-3A11.69,11.69,0,0,0,95,46.72,75.23,75.23,0,0,0,85.88,48c-.16,0-.39.08-.48,0C84.78,47.4,84,47.6,83.15,47.57ZM36.55,46c.38,0,.73.08,1.09.09l3.69.11a121.46,121.46,0,0,0,14.53-.23c1.1-.1,2.2-.27,3.33-.41l-.44-1.8a5.36,5.36,0,0,0,.6-2.49c.06-1.69.13-3.37.16-5.06a54.22,54.22,0,0,0-1-12.52.75.75,0,0,1,.21-.84c.3-.27.26-.31-.2-.62,0,.38-.2.45-.5.44-.91,0-1.83-.1-2.74-.1-3.28,0-6.57,0-9.85.07a35.19,35.19,0,0,0-9,1.16L36,23.2c-.38.72-.15,1.41-.39,2.09l.42-.09a24.93,24.93,0,0,0-.36,2.66A30.72,30.72,0,0,0,35.82,31c.1,1.54.27,3.07.33,4.61.13,3.21.21,6.42.31,9.62A6.91,6.91,0,0,0,36.55,46Zm46.13-2.5a1.33,1.33,0,0,0,1-1.06,13.12,13.12,0,0,0,0-1.66q0-.5,0-1c0-.29.12-.57.11-.85,0-1.52-.1-3-.14-4.56,0-.94,0-1.88,0-2.82s0-1.65,0-2.42l.17.84a10.16,10.16,0,0,0-.19-4.69,2.35,2.35,0,0,1-.1-.79c0-.5.11-.6.61-.74a5.92,5.92,0,0,0,.58-.21c-.08-.12-.1-.18-.13-.19a2,2,0,0,0-.35-.1,118.13,118.13,0,0,0-15.49-1.31c-1.18,0-2.36.07-3.54.14-.83.05-1.67.14-2.51.22a5.39,5.39,0,0,0-1.14.15c-.53.15-.65.43-.51,1,.39.24.79-.45,1.14-.06a3.87,3.87,0,0,0-.16.86c.1,2.24.28,4.48.32,6.72.07,3.79,0,7.58.07,11.37,0,.6.06,1.19.1,1.83.48,0,.83,0,.86.58,1,0,2,.09,2.94.1,4.06,0,8.09-.48,12.14-.72,1.12-.07,2.25,0,3.37,0-3.41.57-6.89.51-10.29,1.12v.14l9.87-.71c-5,.85-10.06.83-15.09,1.09l-.06.6a95.31,95.31,0,0,0,14.15-.75l-.79.42A2.6,2.6,0,0,0,81.07,46,1.92,1.92,0,0,0,82.68,43.46ZM107,41.13h-.16l-.15-2.23c-.12-1.63,0-3.29-.63-4.87.18-.22.45-.36.35-.72a5.07,5.07,0,0,1,.33-3.12c.29-.77.63-1.52.85-2.3s.13-1.46.36-2.13a18.56,18.56,0,0,1,1-2,6.67,6.67,0,0,0,.27-1.07c-.41,0-.69.09-1,.1a9.68,9.68,0,0,1-1.52,0,2.32,2.32,0,0,1-1.82-.89.76.76,0,0,0-.55-.24c-3.11-.05-6.22-.15-9.33-.11a42.36,42.36,0,0,0-4.89.47,1.28,1.28,0,0,1-1.28-.3,1.88,1.88,0,0,0-1.69-.48,4.15,4.15,0,0,0-.82.32,3.18,3.18,0,0,1,.4.37c.2.25.23.73,0,.86-.48.26-.39.66-.37,1.06,0,.61.06,1.21.12,1.81.29,2.64.59,5.27.87,7.91,0,.4,0,.82,0,1.23s0,.8,0,1.2h-.15c-.09-1.3-.14-2.6-.27-3.89-.15-1.48-.37-3-.57-4.44a2.36,2.36,0,0,0-.23-.44c0,.44-.06.73-.06,1q0,1.44-.06,2.88c0,1.45-.08,2.9,0,4.34A19,19,0,0,1,86,39c-.09.66-.12,1.34-.16,2s-.09,1.49-.1,2.23,0,1.78,0,2.77a6.18,6.18,0,0,0,3.26-.4,1.72,1.72,0,0,1,.68-.23c2-.16,4-.35,6.06-.43,3.35-.14,6.7-.21,10-.32.57,0,1.14-.11,1.69-.16.17-1.13.16-1.14-.72-1.6a5.38,5.38,0,0,1-.48-.33c.5-.06.75.53,1.26.25a10,10,0,0,0-1.93-1.33c.75-.06,1.06.64,1.7.67a9.21,9.21,0,0,0-.2-3.24C106.91,39.73,107.33,40.45,107,41.13ZM35.22,53.08c.53.57.93,1,1.35,1.45q1.83,1.9,3.67,3.8.61.63,1.26,1.2a1.4,1.4,0,0,0,1.42.28,4.07,4.07,0,0,1,.78-.11s.08,0,.12.07l-.22.41.28,0c2.63-.13,5.26-.2,7.88-.42,4.23-.34,8.45-.79,12.68-1.17a4.58,4.58,0,0,1,2.44.12,1.47,1.47,0,0,1,.42-.27c.35,0,.72,0,1.06-.08a93.23,93.23,0,0,1,9.73-.85q3-.19,5.92-.42A7.21,7.21,0,0,1,85.66,57a12.82,12.82,0,0,0,2.56-.13c.31,0,.6-.14.48-.58.86.49.94.5,1.58.26C88,54.14,85.87,51.7,83,50l.12-.3.68.24c-.73-1.45-2.3-2.23-3.17-1.66a1.79,1.79,0,0,0-1.74-.43c-.4.08-.8.17-1.21.23s-.67,0-1,.06l0-.17c.57-.33,1.28-.08,1.86-.36a3.46,3.46,0,0,0-.79,0c-2.89.11-5.78.2-8.67.33a16.77,16.77,0,0,0-2,.3c-.43.07-.85.21-1.28.26-1.15.11-2.31.18-3.46.28a1.8,1.8,0,0,0-1.34.47l.91.07a82.35,82.35,0,0,1-9.8.71c2.67-.36,5.4-.07,8-.91A5.65,5.65,0,0,0,59,49c-3,.11-6.07.18-9.11.34s-6.12.38-9.17.61c-1.71.13-3.41.34-5.11.49a9,9,0,0,1-1.37,0,5.55,5.55,0,0,1-.81-.17c.85-.59,1.79-.3,2.67-.5-1.42,0-2.87-.3-4.24.41a1.9,1.9,0,0,0,1.78.84c2.82-.18,5.64-.27,8.46-.42,2.07-.11,4.14-.27,6.21-.38.76,0,1.53,0,2.3,0-5.75.62-11.53.77-17.37,1.07.1.21.13.32.19.42a2.47,2.47,0,0,0,2.05,1.05,26.75,26.75,0,0,0,3,0c2.88-.15,5.77-.35,8.66-.53l5.34-.35,9.25-.55c1.1-.06,2.2-.09,3.31-.13v.11Zm6.58,9a24,24,0,0,0-2.41,0c-2.31.22-4.6.53-6.91.72-.89.08-1.79.44-2.71,0a2.56,2.56,0,0,0-1.21-.07c-.23,0-.6,0-.67.18-.19.42-.6.51-.9.75a2,2,0,0,0-.75,1.2,1.4,1.4,0,0,0,.8,1.54V64.58c.4.79.51,13.93.19,16.28-.06-.79-.12-1.58-.12-2.38,0-2.17.05-4.34.05-6.51,0-1.38,0-2.75-.1-4.13a3.89,3.89,0,0,0-.29-1.1.49.49,0,0,0-.55-.38c.05,5.73.1,11.41.15,17.09l13.88-1.2C40.44,75.54,41.55,68.93,41.8,62.1ZM32.54,47.6c-.34-7-1.13-13.89-.67-20.84a2.4,2.4,0,0,0-2.43.52l.91.65a20.27,20.27,0,0,0-.06,6.12,68.33,68.33,0,0,1,.37,7.43c0,1.66.06,3.33.16,5a4.1,4.1,0,0,0,.77,2.27V47.53Zm3.49.2,1.06.35.21-.48A155.55,155.55,0,0,0,56.49,47v.16l-5.89.58a7.84,7.84,0,0,0,1.67.09l3.82-.27c.6,0,1.2-.07,1.79-.16a2.94,2.94,0,0,0,1.44-.52l-.94,0c.31-.48.9-.08,1.13-.62a3.46,3.46,0,0,0-.52,0c-1,.05-1.92.16-2.88.17q-6.94.11-13.89.15c-1.64,0-3.28-.06-4.92-.09-.21,0-.57,0-.61.08-.15.4-.44.22-.67.21C35.77,47.1,36,47.46,36,47.8Zm8.71,15.36-.09,0,.23-.78-1.16.16c0,2.14-.06,4.22,0,6.31l1.36.2c1.44-2.4,3.36-4.4,4.73-6.88a2.85,2.85,0,0,1-.54,0,1.06,1.06,0,0,0-1.12.59c-.44.67-.93,1.3-1.4,1.94-.14.2-.3.39-.46.58.46-1,1.21-1.83,1.76-2.88l-2.88.2Zm.94,14.78c.57,0,1,0,1.43,0a.71.71,0,0,0,.71-.37c1-1.44,1.94-2.87,2.91-4.31.13-.19.23-.41.37-.65l-.78-.09c-1.17-.15-1.16-.15-1.87.81-.34.47-.69.92-1,1.38l-.13-.1,1.17-2a1.9,1.9,0,0,0-2.42.69q-.84,1.18-1.65,2.37a2.05,2.05,0,0,0-.33.64,1.25,1.25,0,0,0,.12,1.21,4.54,4.54,0,0,0,2.13-1.07Zm-3.6-12.31-.12,0a4.15,4.15,0,0,0-.11.48c-.1.88-.22,1.77-.29,2.65-.3,3.66-.59,7.31-.89,11-.05.57-.17,1.14-.2,1.72s.22.85.64.88.62-.18.72-.73a30.09,30.09,0,0,0,.52-5.68C42.3,72.47,42.17,69.05,42.08,65.63ZM61,61.68c-.61,0-1.13.1-1.65.08a1,1,0,0,0-1,.5c-1.27,2-2.57,3.9-3.85,5.86a2.17,2.17,0,0,0-.21.47c.75,0,1.42-.08,2.09-.1A1,1,0,0,0,57.3,68c1.13-1.88,2.28-3.75,3.41-5.62A5.92,5.92,0,0,0,61,61.68Zm-.8,6.54a3.07,3.07,0,0,0,3.55-1.54c.82-1.45,1.66-2.89,2.48-4.33.13-.25.22-.51.37-.87-.62,0-1.12.08-1.62.07a.81.81,0,0,0-.78.39C63.46,63,62.67,64.1,62,65.22,61.35,66.17,60.82,67.17,60.21,68.22Zm-8.57.32.08.19c.54,0,1.09-.12,1.63-.13a1,1,0,0,0,.86-.53c1.26-1.94,2.55-3.86,3.82-5.8a5,5,0,0,0,.27-.5c-.7,0-1.29,0-1.89,0a.79.79,0,0,0-.76.43c-.91,1.41-1.86,2.81-2.77,4.23C52.44,67.12,52.05,67.84,51.64,68.54ZM63.33,68a2.9,2.9,0,0,0,3.16-1.37c1-1.56,2-3.18,3-4.79a3.17,3.17,0,0,0,.2-.48c-.78,0-1.48.06-2.17.13a.69.69,0,0,0-.42.34q-1.72,2.76-3.42,5.53A5.46,5.46,0,0,0,63.33,68Zm8.16-1,.09.18c.73-.09,1.47-.16,2.21-.27.14,0,.28-.18.37-.31q1.68-2.35,3.33-4.73a7.38,7.38,0,0,0,.39-.69,5.92,5.92,0,0,0-1.87,0,1,1,0,0,0-.89.48c-.9,1.32-1.81,2.62-2.7,3.94C72.1,66,71.8,66.5,71.49,67Zm75.87,9.16a6,6,0,0,0-.94.1.89.89,0,0,0-.51.31c-1,1.74-2.06,3.49-3.09,5.23a3.51,3.51,0,0,0-.19.5,2.64,2.64,0,0,0,.4,0c.91-.15,1.81-.32,2.71-.46a.63.63,0,0,0,.52-.45c.29-.86.63-1.72.85-2.6A8.44,8.44,0,0,0,147.36,76.14ZM62.57,63c.31-.47.91-.69,1-1.37a5.65,5.65,0,0,1-.83,0,1.4,1.4,0,0,0-1.43.71,58.44,58.44,0,0,0-3.63,5.83s0,.13,0,.21h1.6a.81.81,0,0,0,.79-.5c.71-1.21,1.44-2.39,2.16-3.59L63,63Zm-7.16-1.24-1.19.07a1.24,1.24,0,0,0-.43,0,1,1,0,0,0-.38.3,38.34,38.34,0,0,0-4.07,6.23,1.48,1.48,0,0,0-.1.39h1.82C52.41,66.46,54.07,64.29,55.41,61.77Zm19.08,5.08L77,66.64c.36-.54.73-1.07,1.1-1.61l.12-.17c.76-1.09,1.52-2.18,2.26-3.27.14-.21.35-.4.28-.75-.59,0-1.17.1-1.74.13a.77.77,0,0,0-.65.37c-1,1.47-2.12,2.93-3.17,4.4C74.94,66,74.77,66.39,74.49,66.85ZM48.31,77.56c.17.12.2.17.24.17.7,0,1.39,0,2.08-.08.14,0,.28-.23.38-.38.37-.53.73-1.08,1.09-1.62.55-.82,1.1-1.63,1.64-2.45a8.15,8.15,0,0,0,.37-.77H52.19a.8.8,0,0,0-.67.35c-.73,1-1.49,2-2.18,3A19,19,0,0,0,48.31,77.56Zm29.15-11c.84-.1,1.55-.16,2.25-.29.19,0,.38-.26.51-.44.47-.67.91-1.36,1.36-2s1.09-1.65,1.63-2.48a7.93,7.93,0,0,0,.38-.77,9.4,9.4,0,0,1-1.43.15,1.14,1.14,0,0,0-1.07.59l-3.37,4.77A3.71,3.71,0,0,0,77.46,66.58Zm-8.71.7.11.18c.54-.07,1.09-.14,1.63-.19a.94.94,0,0,0,.75-.49c1-1.6,2.1-3.18,3.14-4.78.13-.19.23-.4.41-.73-.54,0-1,0-1.38,0a.88.88,0,0,0-.85.42c-.91,1.28-1.83,2.55-2.72,3.83C69.45,66.08,69.11,66.69,68.75,67.28Zm3.48-5.84a4.38,4.38,0,0,0-1.43-.06.81.81,0,0,0-.76.42c-1.18,1.79-2.38,3.57-3.56,5.35-.11.17-.19.37-.33.64.69-.09,1.29-.15,1.87-.26a.72.72,0,0,0,.42-.31c1.07-1.61,2.11-3.22,3.16-4.84C71.8,62.09,72,61.8,72.23,61.44Zm55.7,17.81c-.58.06-1,.13-1.44.14a.7.7,0,0,0-.65.35c-1.23,1.82-2.47,3.62-3.7,5.44a3.33,3.33,0,0,0-.24.52c.6-.07,1.1-.16,1.59-.17a.8.8,0,0,0,.75-.44c1.1-1.73,2.21-3.45,3.31-5.17C127.67,79.74,127.76,79.55,127.93,79.25Zm1.1,5.27c1.19-.08,2.16-.12,2.58-1.29a4.4,4.4,0,0,1,.49-.8c.71-1.1,1.42-2.19,2.12-3.29.18-.3.32-.63.52-1-.34,0-.57,0-.81,0a1.46,1.46,0,0,0-1.62,1.08,3,3,0,0,1-.37.62c-.62.93-1.25,1.84-1.85,2.77C129.73,83.19,129.44,83.79,129,84.52ZM54.24,77.26l.09.18c.6,0,1.19-.13,1.78-.15a.86.86,0,0,0,.77-.42c.9-1.34,1.81-2.67,2.7-4a4.46,4.46,0,0,0,.27-.57H58.47a.68.68,0,0,0-.6.32c-1,1.23-1.95,2.44-2.92,3.67C54.7,76.59,54.48,76.93,54.24,77.26Zm26.12-11a10,10,0,0,1,1.39-.12.93.93,0,0,0,.9-.55c1.06-1.58,2.14-3.14,3.21-4.71.08-.11.14-.23.29-.46a12.11,12.11,0,0,1-1.38.08.81.81,0,0,0-.73.37c-.75,1-1.52,2.05-2.24,3.09C81.32,64.65,80.91,65.38,80.36,66.26Zm7.79-6a2.81,2.81,0,0,0-2.05.9,15.55,15.55,0,0,0-1.54,2c-.51.77-.94,1.58-1.4,2.37-.07.13-.13.27-.24.51.54-.05,1-.06,1.39-.14a.83.83,0,0,0,.5-.34,44.6,44.6,0,0,1,3-4.31A1.09,1.09,0,0,0,88.15,60.27Zm.85-.1-2,2.76a18.63,18.63,0,0,0-1.9,2.9c.42,0,.71,0,1,0a1,1,0,0,0,1.06-.56c.34-.61.77-1.17,1.17-1.75.64-.93,1.3-1.85,1.94-2.78.14-.21.25-.45.43-.77Zm32.45,25.57c1.27-2,2.76-3.89,4-6.08-.68,0-1.26-.14-1.65.42-1.23,1.78-2.45,3.58-3.66,5.37a2.26,2.26,0,0,0-.2.52ZM51.56,62a1.63,1.63,0,0,0-1.81.92c-.29.47-.67.88-1,1.33q-1.41,2-2.79,4a6.85,6.85,0,0,0-.4.73L46,69a1.17,1.17,0,0,0,1.25-.6c.87-1.33,1.83-2.6,2.73-3.9C50.5,63.67,51,62.85,51.56,62Zm1.83,15.52a39.73,39.73,0,0,0,3.52-5.16c-1.3-.13-1.3-.13-2,.79l-.54.68c-.72.93-1.46,1.85-2.17,2.79a7.73,7.73,0,0,0-.57,1Zm9-5.26c-1.11-.15-1.26-.13-1.84.59-1,1.27-2,2.56-3.05,3.85a3.27,3.27,0,0,0-.23.46H58A2,2,0,0,0,60,76c.57-1,1.32-1.89,2-2.85A6.2,6.2,0,0,0,62.44,72.25ZM34.5,39.56h.08c0-.23,0-.47,0-.7,0-1.78-.06-3.57-.06-5.35,0-2.33,0-4.67,0-7,0-.79.16-1.58.24-2.33l.76-.44c-.47-.16-.62-.7-1.21-.46.31.58,0,1.06-.21,1.55a2.32,2.32,0,0,0-.17.7c-.06.52-.12,1-.14,1.58a62.7,62.7,0,0,0,.33,9.09C34.29,37.32,34.39,38.44,34.5,39.56ZM98.73,61.29a4,4,0,0,0-.07.48c0,2,0,4,0,6,0,.76.26,1,1.1,1.11,0-.65.07-1.3.09-1.95,0-.48,0-1,0-1.44,0-1,0-1.93,0-2.89C99.88,61.84,99.6,61.49,98.73,61.29Zm-18,13.78a16.06,16.06,0,0,1,1.79-.56,2,2,0,0,0,1.52-1.12,23.37,23.37,0,0,1,1.31-2,1,1,0,0,0,.28-.79,3.19,3.19,0,0,0-2.71,1.29C82.19,72.89,81.53,73.94,80.75,75.07ZM52.92,62c-.43-.44-.63-.17-.83.09a64.55,64.55,0,0,0-4.49,6.28,4.46,4.46,0,0,0-.21.5c.34,0,.6-.05.86,0a.6.6,0,0,0,.56-.36c.91-1.39,1.83-2.77,2.73-4.17C52,63.56,52.46,62.78,52.92,62Zm31,13.18c.64,0,1.16-.07,1.67-.13.1,0,.2-.12.27-.21,1-1.28,1.9-2.55,2.84-3.84a5.85,5.85,0,0,0,.4-.73c-.36,0-.61,0-.84,0a.86.86,0,0,0-.75.36c-1,1.24-2,2.47-3,3.71C84.3,74.58,84.14,74.84,83.9,75.18Zm5.66-4.43c-.56.69-1.12,1.35-1.65,2s-1,1.36-1.58,2.19c.61,0,1.07,0,1.52,0a.6.6,0,0,0,.39-.25c.9-1.31,1.78-2.63,2.66-3.95a8.41,8.41,0,0,0,.42-.85l-2,.33ZM78.23,75.6c.2,0,.29,0,.38,0A3.31,3.31,0,0,0,81,74.09c.47-.7.89-1.43,1.33-2.15l.67-1a2.21,2.21,0,0,0-1.47.28c-.43.4-1.08.6-1.16,1.35a1.84,1.84,0,0,1-.48.79c-.26.32-.55.6-.82.91A3.17,3.17,0,0,0,78.23,75.6Zm17-9.85c.07-.07.1-.08.11-.1a42.51,42.51,0,0,0,.23-6.48c0-.43-.31-.61-.88-.58,0,.26-.08.52-.09.78-.07,1.61-.1,3.22-.21,4.83A1.53,1.53,0,0,0,95.23,65.75ZM76.6,72.15l.12.11c-.79,1.29-2.1,2.18-2.88,3.66a9.9,9.9,0,0,1,1-.1,1,1,0,0,0,.93-.55c.31-.49.69-.93,1-1.4.5-.71,1-1.42,1.49-2.14a3,3,0,0,0,.19-.51,1.94,1.94,0,0,0-2.45,1.67ZM25.77,69.54c0,.14,0,.28,0,.42-.12,2.84-.25,5.68-.37,8.52-.05,1.42-.08,2.85-.11,4.27a.78.78,0,0,0,.45.89A87.36,87.36,0,0,0,25.77,69.54Zm104.46,5.37,0-.13-.56,0c-3.08.37-6.17.73-9.26,1.14-2.32.3-4.62.68-6.94,1-.23,0-.46.13-.69.19a2.6,2.6,0,0,0,1.22.13c1.74-.24,3.47-.53,5.22-.78l10.46-1.43A3.89,3.89,0,0,0,130.23,74.91Zm-26.78-3.49c.06-.81.07-1.52.16-2.23.14-1.17.33-2.33.49-3.5a1.11,1.11,0,0,0-1-1.29,2.71,2.71,0,0,0-.09.41c-.11,1.58-.21,3.17-.3,4.75a3.69,3.69,0,0,0,.11.93A1.18,1.18,0,0,0,103.45,71.42Zm-22.73-.24-.1-.15c-.37,0-.77-.18-1.1.25-1,1.28-2,2.53-3,3.8-.14.17-.25.37-.43.64l.6,0a1.07,1.07,0,0,0,1.15-.53c.3-.46.68-.87,1-1.33C79.47,73,80.09,72.09,80.72,71.18ZM60.84,30c0,.55,0,1.09-.07,1.63a109,109,0,0,0-.1,11.85c0,.21,0,.43,0,.65s.06.41.09.62A108.37,108.37,0,0,0,60.84,30Zm-31,1.33-.22,0c0,.24,0,.47,0,.7,0,.75.05,1.49.06,2.24a84.81,84.81,0,0,0,.61,10.32,8,8,0,0,0,.17.85C30.44,40.74,30.12,36,29.81,31.34ZM97.18,67h.15c.15-2.15.31-4.31.46-6.47-.47-.2-.63-.75-1.2-.72,0,.16,0,.3,0,.44l-.09,3c0,.84-.07,1.68-.07,2.52a4.78,4.78,0,0,0,.13.74l.18,0c0-.35,0-.69,0-1,0-.87,0-1.73,0-2.6a4.09,4.09,0,0,1,.37-1.9,13.62,13.62,0,0,1-.19,3.3A5.08,5.08,0,0,0,97.18,67ZM20.81,77.28l.21,0c.15-1.94.3-3.88.42-5.82,0-.37-.23-.6-.64-.69-.16,1.2-.34,2.42-.48,3.63A13.18,13.18,0,0,0,20.24,76,1.53,1.53,0,0,0,20.81,77.28ZM109.91,76a67.24,67.24,0,0,0,.53-6.79l-.75-.36c0,.17,0,.26,0,.36-.05,1-.09,2.11-.15,3.16,0,.89-.14,1.78-.19,2.66A.86.86,0,0,0,109.91,76Zm-92.16-2c.2-1.59.42-3.08.57-4.57a4.87,4.87,0,0,0-.15-1.42.69.69,0,0,0-.49-.61c-.15,1.1-.32,2.17-.43,3.24a15.66,15.66,0,0,0-.05,1.94A2.25,2.25,0,0,0,17.75,74.06Zm73.87,0c0-.5-.07-.93-.09-1.35s0-.83,0-1.26A14.54,14.54,0,0,0,89,74.77c1.85.21,2.21.13,2.53-.57H90.22v-.13Zm-75.1-7.93c-.08.75-.16,1.42-.23,2.09s-.18,1.53-.23,2.3A2.28,2.28,0,0,0,16.48,72c.06.09.19.13.31.21.14-1.74.26-3.39.42-5A1,1,0,0,0,16.52,66.14ZM18.8,68.5a3.77,3.77,0,0,0-.14.45c-.11,1-.21,2-.3,3a6.41,6.41,0,0,0,0,2.43,6,6,0,0,0,.29.74A7.59,7.59,0,0,0,19,73.47m91,11.75V82.05a2.07,2.07,0,0,0-.41-1.34,2.4,2.4,0,0,0-.44-.32c-.11,1.16-.23,2.2-.32,3.25C108.82,84.53,109,84.83,110.07,85.22Zm-2.3-10.72c.42-2.13.17-4.31.9-6.34-.28-.22-.48-.47-.88-.34-.07.63-.14,1.25-.2,1.87a36.51,36.51,0,0,1-.24,4.31C107.3,74.22,107.38,74.43,107.77,74.5ZM33.6,35.64h-.12c0,1.59,0,3.17.11,4.76a20.36,20.36,0,0,0,.7,4.85,4.65,4.65,0,0,0,.2.52l.13,0ZM19.81,69.69c-.14,1.17-.28,2.29-.4,3.41a6.29,6.29,0,0,0-.07,2.37c.07.27.1.56.44.72.16-1.38.35-2.71.44-4a14.7,14.7,0,0,0-.1-2.09C20.11,69.87,20.07,69.66,19.81,69.69ZM142.16,82.41l3.35-5.86c-.32-.13-.38.09-.48.24-.7,1-1.42,2-2.11,3-.5.73-1,1.48-1.47,2.23a2.37,2.37,0,0,0-.17.48Zm-37.62-5.36c-.1,1-.22,1.88-.27,2.76a2.39,2.39,0,0,0,.17,1c.12.3.32.59.77.46l.23-3.57Zm-75-15.46a6.82,6.82,0,0,0,2.66.09c.86-.07,1.72-.09,2.59-.14.14,0,.28,0,.42-.06l1.79-.1c.46,0,.92,0,1.37-.05.25,0,.48-.07.64.18s.33.23.57.19.72-.05,1.08-.1.48-.11.75-.17c-.09-.12-.11-.18-.14-.19a2,2,0,0,0-.35-.08,21.1,21.1,0,0,0-4.7-.07l-5,.39Zm55.24-21v-12A92,92,0,0,0,84.79,40.6ZM43.25,74.78c.55-1.28.56-2.52,0-3.14,0,.47-.12.9-.14,1.33,0,1.46-.09,2.93-.12,4.4a2.22,2.22,0,0,0,.08.63c0,.11.17.2.34.37.57-1.18.08-2.34.31-3.44Zm62-7.8c-.16,1.09-.34,2.18-.46,3.27a9.2,9.2,0,0,0,0,1.66,1.37,1.37,0,0,0,.66,1C105.31,70.87,105.85,68.92,105.27,67ZM15.46,70.27a1.74,1.74,0,0,0,.44-1.17c.07-1,.13-2.06.21-3.09.05-.56,0-.62-.6-1-.13,1.07-.25,2.14-.36,3.2a1,1,0,0,0,0,.34c.52,0,.24.42.27.63A6.14,6.14,0,0,1,15.46,70.27Zm84,6.38c0-.8.06-1.54.1-2.28s-.18-.94-1-1.11c-.06.86-.13,1.71-.16,2.57C98.45,76.21,98.85,76.53,99.48,76.65ZM45.87,72.6a1.29,1.29,0,0,0-1.36.28,2.39,2.39,0,0,0-.31,2.67C44.75,74.55,45.62,73.78,45.87,72.6Zm61.59,6.31-.17,0c0,.28-.07.56-.09.84-.08.79-.17,1.57-.2,2.36a1.12,1.12,0,0,0,.72,1.18,1.6,1.6,0,0,0,.12-.48c0-1.16,0-2.31-.09-3.46C107.74,79.23,107.56,79.07,107.46,78.91ZM29.93,47.35c0-.67,0-1.19,0-1.71s-.05-1-.08-1.51-.05-1.06-.12-1.59a3.93,3.93,0,0,0-.3-1.46c-.09,1.6-.08,3.19-.1,4.78a5.1,5.1,0,0,1-.16.87Zm64.5,22.92-.25.55c-.06-.33.07-.63-.25-.9-.08.53-.14,1-.2,1.42a3.17,3.17,0,0,0,0,.43A1.83,1.83,0,0,0,95,73.28c0-.73,0-1.45,0-2.17C95,70.75,95,70.38,94.43,70.27ZM83.58,75c1.2-1.62,2.64-2.84,3.58-4.57a1.21,1.21,0,0,0-1.12.47c-.81,1.19-1.66,2.35-2.48,3.53C83.5,74.48,83.56,74.65,83.58,75ZM127,48.9l.24-2.93-.81-.25c-.12.66-.25,1.26-.32,1.87C126.05,48.37,126.09,48.41,127,48.9Zm19,33.68a1.15,1.15,0,0,0-1.17-.34c-.71.17-1.4.37-2.1.56a1.15,1.15,0,0,1-1,0,1,1,0,0,0-1,.13c-.17.12-.25.29-.05.56C142.39,82.94,144.23,83.21,146,82.58ZM95.92,71.47c0,.6-.08,1.19-.14,1.79-.09.78,0,1,.87,1.23,0-.54.06-1.06.08-1.59a2.9,2.9,0,0,0,0-.51C96.66,71.79,96.49,71.59,95.92,71.47Zm7.33,8.27V77a1.14,1.14,0,0,0-.48-1c-.12.93-.27,1.76-.32,2.59A1.06,1.06,0,0,0,103.25,79.74ZM106,72.79c.11-1,.21-1.85.28-2.7.09-1,.14-2,.2-3,0-.21,0-.45-.28-.47A24,24,0,0,0,106,72.79Zm3.18-40.55a7,7,0,0,0-.23-4.12C108.7,29.56,108.32,30.94,109.14,32.24ZM13.51,56.63c0-1.14.14-2.2-.75-3.05a7.9,7.9,0,0,0-.15,1.93A1.05,1.05,0,0,0,13.51,56.63Zm1.08,1.75c.43-1.25.16-2.55-.63-3A3,3,0,0,0,14.59,58.38Zm6,8.51c.08-.83.19-1.53.23-2.24a1,1,0,0,0-.66-1c-.07.75-.14,1.43-.18,2.12A1.14,1.14,0,0,0,20.56,66.89Zm122.28,6.23a16.85,16.85,0,0,0,4.13-.3,1.32,1.32,0,0,0,1-.52A22.08,22.08,0,0,0,142.84,73.12ZM44.16,79.35c.37-.07.67-.13,1-.17l1-.06a1,1,0,0,0,1-.57,9.12,9.12,0,0,0-3,.07ZM19.5,65.5a6.87,6.87,0,0,0,.15-2.75,2,2,0,0,0-.35-.54l-.17.07C19.11,63.3,18.54,64.37,19.5,65.5ZM142.84,76.1c1.13.63,2.51.2,2.66-.82C144.59,75.48,143.57,75.23,142.84,76.1ZM18.27,60.85H18c-.05.71-.11,1.42-.12,2.14a.94.94,0,0,0,.62,1C18.57,62.87,19,61.8,18.27,60.85Zm-1.35-1.28c-.29,1.75-.13,2.49.6,2.83l.13-2.34ZM79.55,76.23V76a4.43,4.43,0,0,0-2.08-.08c-1.1.08-1.63.32-1.93.86Zm22.09-13.06-.18,0-.24,6.24c.51-2,.32-4,.6-6.06C101.83,63.32,101.7,63.24,101.64,63.17ZM147.3,75l-.82.87h1.1c.09-.45.18-.88.26-1.3a2.52,2.52,0,0,0,0-.39,3.45,3.45,0,0,0-1.76.34ZM116.57,40.69c-.55,1.38-.41,2.17.4,2.35a3.06,3.06,0,0,0,0-2.11C116.9,40.82,116.71,40.77,116.57,40.69Zm22,36.22c.64-.06,1.29-.09,1.93-.18a1,1,0,0,0,1-.82A3.93,3.93,0,0,0,138.55,76.91ZM42.49,67.69a1.89,1.89,0,0,0,.16-.51c.06-1.56.12-3.12.15-4.69,0-.09-.13-.18-.2-.28l-.11,0Zm-1.55-7.23c-.78-.49-2.69-.39-5.55.3Zm83.3-13.07a.64.64,0,0,0,.62-.5,3.91,3.91,0,0,0-.1-2c0-.07-.17-.11-.35-.2A11.44,11.44,0,0,0,124.24,47.39Zm-33,15.29a2.13,2.13,0,0,0,.45-1.36c0-.08-.15-.18-.23-.28a1.07,1.07,0,0,0,.18-1.19c-.3.13-.63.23-.64.55A6.83,6.83,0,0,0,91.19,62.68Zm-74.8-1.76c.23-2,.17-2.27-.44-2.6C15.61,59.66,15.73,60.44,16.39,60.92Zm103.17-18.6a10.45,10.45,0,0,0-.18,1.25,3.34,3.34,0,0,0,.14,1c0,.19.23.31.51.15,0-.25,0-.54,0-.82a4.77,4.77,0,0,1,0-.93C120.21,42.55,120,42.45,119.56,42.32Zm-20.94,29c0,.37,0,.67.08,1,.07.69.1.71.84.88C99.78,72.06,99.54,71.5,98.62,71.29ZM34.81,47.9c-.23-.6-.18-1.37-1-1.63a1.77,1.77,0,0,0,0,1.34C34,48.23,34.17,48.28,34.81,47.9ZM27.93,27.7c-.44,0-.5.25-.37.56a5,5,0,0,1,.23,2c0,.39,0,.77,0,1.16,0,1.29,0,2.59,0,3.88h.17Zm97.54,20.39.18-.13c.1-.63.21-1.25.29-1.88a1.37,1.37,0,0,0-.06-.57c0-.11-.19-.18-.3-.27l-.16.07c0,.8-.1,1.6-.12,2.4C125.3,47.83,125.41,48,125.47,48.09ZM43.24,69.45a17.86,17.86,0,0,0,.13-4.91A13.3,13.3,0,0,0,43.24,69.45ZM14.55,68.22l.18,0a7,7,0,0,0,.16-3.71h-.18Zm80.51,1.87c.29-1.14.13-1.62-.59-1.86C94.17,69.42,94.25,69.72,95.06,70.09Zm22.61-28.74c-.3,1.38-.23,1.93.35,2.41.08-.65.16-1.26.21-1.87C118.25,41.56,118.06,41.37,117.67,41.35ZM33.46,52.59a6.12,6.12,0,0,0-2.55-2.39A8.31,8.31,0,0,0,33.46,52.59Zm89.11-6.3A4.5,4.5,0,0,0,122.7,44a3,3,0,0,0-.56,2.2ZM105.35,77.24c.18-1.27,0-1.61-.75-1.74l-.12,1.1ZM102,81.76a9.77,9.77,0,0,0,2.77,2.13A7.45,7.45,0,0,0,102,81.76ZM29.63,83.55a19.51,19.51,0,0,0,4.95-.41A24.15,24.15,0,0,0,29.63,83.55Zm92.44-4.48c-1.35,0-1.37,0-1.73.54.11.12.2.29.34.34s.52.13.65,0A5.74,5.74,0,0,0,122.07,79.07ZM11.61,62a13.21,13.21,0,0,0,.16,4.07A12.1,12.1,0,0,0,11.61,62ZM113.73,41.13c.25-1.45.2-1.68-.37-1.92a2,2,0,0,0-.21,1.43C113.24,40.82,113.47,40.92,113.73,41.13ZM24.56,61.58a4,4,0,0,0-1.93-2.26C23.78,61.17,23.78,61.17,24.56,61.58Zm71.56,8c0,.25-.08.51-.1.77-.07.63,0,.7.7.94,0-.44,0-.87,0-1.29S96.54,69.4,96.12,69.54ZM44.3,81.28l-.13,1c.59,0,1.15.14,1.57-.45Zm61.18.12.21,0a5.88,5.88,0,0,0,.15-3.14h-.18Zm28-3.66c.54-.07,1.06-.12,1.57-.23.31-.06.44-.27.25-.57-.43,0-.84.1-1.24.12S133.62,77.07,133.51,77.74ZM84.59,50.05l.12-.12a9,9,0,0,0-1.28-1.48c-.22-.22-.39-.48-.64-.79l-.52.18ZM75,76.34c-1.24-.18-1.63,0-1.67.55C74.31,77.07,74.61,77,75,76.34Zm49.3,2.42c-1.38-.12-1.72,0-2,.69C123,79.39,123.7,79.52,124.26,78.76Zm-3-35.6c-.52,1.9-.52,2.06.06,2.47C121.3,44.82,121.72,44.06,121.29,43.16ZM136,77.27c.68,0,1.42.11,1.89-.58C137.2,76.83,136.37,76.36,136,77.27Zm-11.45,1.79c.93.2,1.47,0,1.54-.63a5.08,5.08,0,0,1-.78,0C124.8,78.36,124.62,78.61,124.51,79.06Zm15.6,4a1.76,1.76,0,0,0-1.9.73c.64-.12,1.2-.22,1.75-.36C140,83.44,140.06,83.22,140.11,83.09Zm-68-6.2-1.47-.19c-.41,0-.56.06-.76.54A5.46,5.46,0,0,0,72.13,76.89Zm37.2,1.82c-.22,1.07,0,1.54.74,1.46C109.79,79.71,110,79,109.33,78.71Zm-10.41.51-.12.12A4.35,4.35,0,0,0,101.19,81ZM65.51,45.89V45.7a3.76,3.76,0,0,0-2.53.42ZM100.78,75c-.11.91-.52,1.8-.07,2.68.09-.81.13-1.62.15-2.43A.81.81,0,0,0,100.78,75Zm6.5,2.35c0,.59-.27,1.18.45,1.47C108.18,78.11,108.1,77.8,107.28,77.31ZM23.92,67.85c.37-1.16.3-1.5-.35-1.72A2.35,2.35,0,0,0,23.92,67.85Zm-2.71-.12c.24-1.32.23-1.89-.05-2.32C21.09,66.17,20.74,66.88,21.21,67.73ZM65.07,45.1H62.55l-.06.12c.11.08.22.22.33.22.5,0,1,0,1.51,0C64.58,45.39,64.86,45.43,65.07,45.1ZM43.36,82a2.28,2.28,0,0,0,.06-1.74A1.17,1.17,0,0,0,43.36,82ZM20.89,78.83c.07-.77-.09-1-.72-1.26C20.07,78.32,20.21,78.58,20.89,78.83Zm82-4.76c-.41.82-.32,1.32.3,1.53C103.2,75.07,103.43,74.51,102.9,74.07ZM15.29,59.19c0-.57.55-1.16-.07-1.8A2,2,0,0,0,15.29,59.19ZM85.22,44a2.66,2.66,0,0,0-.34,2.15A4.2,4.2,0,0,0,85.22,44ZM54,77.8c1.2.42,1.63.38,2.1-.14ZM35.1,27.66a4.4,4.4,0,0,0,0-2.25A3.4,3.4,0,0,0,35.1,27.66ZM56.7,77.89c.77,0,1.39.2,1.92-.29C58,77.63,57.37,77.27,56.7,77.89Zm54.85-39.74c-.29,1.07-.25,1.37.21,1.67C111.71,39.24,112,38.65,111.55,38.15Zm-85.2,4.06v2.92C26.35,44.16,26.77,43.19,26.35,42.21ZM61.52,78.16a1.94,1.94,0,0,0,1.78-.25C62.08,77.83,62.05,77.83,61.52,78.16ZM43.12,80c.6-.54.79-1,.6-1.26l-.6,0Zm-17-16.92c.7.35.91.28,1.05-.34C26.37,62.58,26.3,62.6,26.11,63.08ZM142.83,73.71a3,3,0,0,0-2,.27A3.52,3.52,0,0,0,142.83,73.71Zm-33,13.52v-.87c-.35-.12-.67-.3-1,.07Zm13.86-42.55a2.9,2.9,0,0,0,0,2.09C123.71,46.07,124.06,45.38,123.74,44.68ZM81.33,75.28c1,.2,1.49,0,1.59-.56C82.46,75.08,81.81,74.75,81.33,75.28ZM29.41,48.78c.36.49.52,1,1.22,1A1.27,1.27,0,0,0,29.41,48.78ZM72.27,79.85l0-.17a3.61,3.61,0,0,0-2.44.39ZM108.75,33a1.57,1.57,0,0,0,0,.41,4.81,4.81,0,0,0,.18.65s.18,0,.18,0a3.06,3.06,0,0,0,.15-.73C109.23,33.14,109.14,32.9,108.75,33ZM132,77.87c.83.1,1.14-.14.92-.74C132.58,77.3,132.14,77.31,132,77.87ZM147.19,74c.13-.38,0-.56-.28-.6s-.54.16-.65.6Zm-55.9-9.37a1.67,1.67,0,0,0,0-1.51A1.38,1.38,0,0,0,91.29,64.64ZM59.39,23.51a2.62,2.62,0,0,0,.27,2C59.62,24.8,59.81,24.17,59.39,23.51ZM53.62,74.07a3.46,3.46,0,0,0,1.14-1.43A2.69,2.69,0,0,0,53.62,74.07Zm43.53-1.52a2.26,2.26,0,0,0,0,2ZM11,62.22a2,2,0,0,0,0-1.83Zm88.61,8.94a1.16,1.16,0,0,0-1-.77A.93.93,0,0,0,99.61,71.16ZM24,70c-.05-.56.4-1.18-.23-1.8A3.71,3.71,0,0,0,24,70Zm124,12.12a2.39,2.39,0,0,0,.14-2A4.13,4.13,0,0,0,147.91,82.11ZM77.46,66.93v.17a2,2,0,0,0,1.67-.35ZM17.73,66c-.2.65.17.9.59,1.19C18.48,66.63,18.22,66.33,17.73,66Zm3.82,4.49c-.29-.86-.33-.9-.78-.88A.85.85,0,0,0,21.55,70.52Zm75.56,1a1.55,1.55,0,0,0,0-1.4C96.89,70.65,96.73,71.08,97.11,71.53ZM19.89,68.31c-.11.76-.08.82.45.94C20.45,68.6,20.45,68.6,19.89,68.31ZM16.64,65c0,.61,0,.61.54,1C17.32,65.46,17.26,65.34,16.64,65ZM120.41,44.92a1.65,1.65,0,0,0,.13-1.77ZM65.72,80.45l0-.23-1.93.25,0,.18Zm-4.72-3c-.53,0-1.1-.27-1.72.23C60,77.66,60.49,77.82,61,77.49Zm1,0a2.39,2.39,0,0,0,1.69-.2C63,77.27,62.47,77.14,62,77.46ZM14.37,62.84c0-.64-.09-.73-.7-1A1,1,0,0,0,14.37,62.84Zm92.7-30.42c.22.32-.45.94,0,1.53ZM19.38,68.27c.06-.51-.05-.82-.52-.92C18.79,67.92,18.79,67.92,19.38,68.27Zm72.18,2.4-.2-.11-.74,1.24.14.09C91.05,71.5,91.6,71.28,91.56,70.67Zm14.24,5.68a1.34,1.34,0,0,0,.14,1.16A.79.79,0,0,0,105.8,76.35Zm9.47-36.17v1.54C115.65,40.77,115.64,40.48,115.27,40.18ZM28.48,44.84l.1,0V42.37h-.1ZM21.4,78.63c-.25.67-.23.74.26,1.11C21.74,79.33,21.8,79,21.4,78.63ZM94.08,63.3a2.19,2.19,0,0,0,0,1.34A1.5,1.5,0,0,0,94.08,63.3Zm-50.2,9.88c.55-.62.54-.78,0-1.05Zm39.79-6.45a2.22,2.22,0,0,0-1.3,0C82.81,66.87,83.25,67.05,83.67,66.73Zm10.24,2.56c.36-.66.34-1,0-1.32ZM24.15,63.94c-.41.68-.38.81.2,1.2Zm-8.54-.15a.77.77,0,0,0,.53,1C16.28,64.27,16,64,15.61,63.79ZM85.06,51.06A1.6,1.6,0,0,0,84,50C84.25,50.59,84.28,50.62,85.06,51.06Zm29.13-9.77c.48-.68.49-1,.08-1.54Zm-86.07,43,0-.2c-.49.13-1,0-1.48.38ZM21.63,78V76.74C21.42,77.15,21.24,77.55,21.63,78Zm117.91-3.72v-.2c-.46.1-1-.06-1.38.33ZM112.57,39h-.16c-.17.78-.15.89.23,1.27Zm20.57,36,0,.15c.46,0,.94.09,1.34-.33Zm-21,12.22A1.08,1.08,0,0,0,113.3,87C112.9,86.89,112.55,86.68,112.15,87.15Zm14.2-37,.52.74C127.07,50.23,127.07,50.23,126.35,50.16ZM14.46,61.81a.78.78,0,0,0-.65-.88A.9.9,0,0,0,14.46,61.81ZM57.55,72.59l-.15-.12a1.09,1.09,0,0,0-.52,1Zm65.56,5.75,0,.15c.76.08.76.08,1.2-.25ZM83.5,75.54v.21l1.29-.11v-.1ZM33.72,44.72h-.14c0,.38-.08.78.34,1.08Zm101.8,29.91,0,.16,1.37-.16A1.47,1.47,0,0,0,135.52,74.63ZM43.73,69.4c.55.27.57.26,1-.13C44.34,69.27,44,69,43.73,69.4Zm97.91,6.84.08.14c.52,0,.52,0,.72-.66Zm4-.23c.67-.24.68-.25.73-1ZM64.18,77.84l0,.21c.36,0,.72.1,1-.31ZM21.38,60.71c.12.72.18.81.84,1.17ZM10.57,63.62,10.4,65l.16,0A1.88,1.88,0,0,0,10.57,63.62Zm8.69,12.91a.7.7,0,0,0,.51.82C19.8,76.93,19.7,76.65,19.26,76.53ZM12.87,59.84c0,.4.06.67.47.72C13.4,60.2,13.3,60,12.87,59.84Zm0,1a.65.65,0,0,0,.35.82C13.31,61.26,13.31,61.26,12.91,60.89ZM80.06,76l0,.15L81,76C80.56,75.48,80.32,75.82,80.06,76Zm66.88-13.49-.86-.44C146.23,62.44,146.49,62.65,146.94,62.47ZM117.53,78.81V79c.32,0,.68.13,1.09-.29ZM26.21,64.18l.51-.63C26.11,63.46,26.06,63.52,26.21,64.18Zm5-15.07-.15.11c-.05.43.22.5.69.49Zm74.43,35.27c.2.54.2.55.93.71ZM43.08,60.17l0-.2c-.29.07-.63-.15-.87.3Zm84.29-9.11h.09v-.73h-.09ZM27.94,48l-.39.45.9.2Zm57.33-6.65c0,.33-.35.67,0,1Zm24.11-3.61h-.15c-.17.61-.17.61.11.94ZM16.15,63.89l.19-.17-.51-.61-.16.12ZM116.63,79.2V79c-.29,0-.59-.13-.89.25Zm-9.54-42.67H107V37.7h.06ZM59,78.12c.52.41.55.41.91,0ZM38.54,49.66v-.13l-1,.09v0ZM68.4,80c.25.24.48.3.76-.06Zm-7.66-1.78c-.31-.33-.31-.33-.69,0ZM80.07,66.81v.13h1.31v-.13ZM17.15,64.94l.13-.12c-.1-.28-.24-.5-.77-.51ZM96.7,69.11c-.23-.38-.23-.38-.56-.36C96.22,69,96.31,69.19,96.7,69.11Zm-60.78-26h0V42h0ZM66.14,77.2a1.34,1.34,0,0,0-1.26,0Zm55,1.5v.17l.83-.17,0-.14Zm-106-15c0-.3.1-.54-.28-.69C14.79,63.36,14.82,63.58,15.13,63.74Zm8-.38.13-.08c-.1-.39-.1-.39-.57-.49Zm33.3,15.06c.26.12.52.24.71-.11Zm74.41-3.18v.14l1,0v-.09ZM114.8,79.41l.69-.07C115.24,79.05,115,79.08,114.8,79.41ZM94.73,67.52l-.14.13c.22.12.27.45.68.32ZM49.46,78.36c.07.48.28.37.52.14Zm51.86-5.24c-.2.46-.2.46,0,.7Zm-7.1-13.69-.06,0v.81h.06Zm0,2.11h-.13l-.1.76.18,0Zm-51,8.77c-.16.32-.23.52.05.71C43.55,70.79,43.5,70.6,43.23,70.31Zm57.65,3.08c-.23.32-.29.51,0,.83Zm6.7,10.66c0-.34-.19-.5-.52-.45Zm-60-5.16c.43.06.57,0,.56-.25,0,0-.12-.11-.14-.1S47.83,78.71,47.62,78.89Zm80-31.24-.18.71.15,0C127.76,48.2,127.94,48,127.66,47.65ZM51.79,78.52v-.15l-.7,0v.1Zm-40.62-13,.13,0-.09-.54H11.1ZM128.66,75.63l0,.14.63-.15,0-.13Zm-53.3-8.47v.07H76v-.07Zm29.48,7.62-.11.15.45.33.11-.16ZM51.64,78v.09a2.06,2.06,0,0,0,.26,0,.74.74,0,0,0,.21,0L52.3,78l0,0ZM85.37,66.62v-.06h-.66v.06ZM35.54,83.16l0-.1-.46,0v.06ZM125.63,78l0,.11.44,0V78ZM85,50.23l-.09.07.26.24,0,0Zm58.8,23.28c.21.15.21.15.49,0Z"/><path d="M125.58,89.56l-5.51.72c-1.76.23-3.53.47-5.29.74a11.12,11.12,0,0,0-1.26.33,1.37,1.37,0,0,1-1.29-.2c.08-.32.29-.47.54-.39a6.56,6.56,0,0,0,2.65-.09c2.2-.27,4.39-.61,6.59-.9,1.17-.15,2.35-.23,3.52-.35Z"/><path d="M18.77,46,9,45.73v-.08a3.09,3.09,0,0,1,.53-.09c1.9,0,3.8,0,5.7.11,1.2,0,2.41.13,3.61.2Z"/><path d="M82.61,21.86A1.11,1.11,0,0,1,83.83,21a.85.85,0,0,1,.6.3c.08.13-.07.4-.12.59Z"/><path d="M44.72,21.89a10,10,0,0,1,4.13-.13c-.5,0-1.24,0-2,0S45.44,21.85,44.72,21.89Z"/><path d="M41,22.12l1.2-.06v.11L41,22.12Z"/><path d="M51.72,21.72H51v-.06h.75Z"/><path d="M43,22h.61v0H43Z"/><path class="cls-1" d="M115.48,49.15l.06-.13a49.21,49.21,0,0,0-5.34-1.65l0,.14Zm4,1.2,0-.16-1.15-.36,0,.16Zm13.72,6.51.1-.11c-.52-.44-.52-.44-1-.44Zm.69.07-.12.14.78.44.06-.11Z"/><path class="cls-1" d="M122.8,40.44a1.6,1.6,0,0,0-1.1-.6Zm1.33.7.06-.1-.57-.29-.05.1Z"/><path class="cls-1" d="M89,64.11,88.84,64l-.39.49.11.08Z"/><path class="cls-1" d="M94.14,72.24c.23-.61.23-.61,0-.89Z"/><path d="M115.48,49.15l-5.32-1.64,0-.14A49.21,49.21,0,0,1,115.54,49Z"/><path d="M119.44,50.35,118.28,50l0-.16,1.15.36Z"/><path d="M133.16,56.86l-.87-.55c.45,0,.45,0,1,.44Z"/><path d="M133.85,56.93l.72.47-.06.11-.78-.44Z"/><path d="M79.59,43.13a73.29,73.29,0,0,1-9.24.44c-2.39,0-4.77-.15-7.15-.23-.21,0-.45,0-.39-.4A156.63,156.63,0,0,0,79.59,43.13Z"/><path d="M82.78,43l-1.21.15V43l1.21-.09Z"/><path d="M87.3,40.21h-1a1.24,1.24,0,0,1,1-.15Z"/><path d="M83,50.64c-1.15-.29-1.54-1.26-2-2.13Z"/><path d="M70.88,50.8c.07-.06.13-.17.19-.17,1.31-.09,2.62-.16,3.93-.23v.14l-4.14.26Z"/><path d="M66.79,48.88h2.26V49H66.79Z"/><path d="M86.39,54l-1-1.1C85.6,53,86,53.31,86.39,54Z"/><path d="M75.87,50.34h1.41v0h-1.4Z"/><path d="M88.1,55.79,87.37,55l.12-.11.73.78Z"/><path d="M67.35,50.89H68.7V51H67.35Z"/><path d="M64.81,49.23H63.7v-.07h1.1Z"/><path d="M45.79,59.65l.65-.07v.07l-.63.12Z"/><ellipse cx="44.87" cy="59.79" rx="0.53" ry="0.05"/><path d="M70.77,48.72h.54v.07h-.57Z"/><path d="M70.87,50.8l-.82.05v-.11l.83.06Z"/><path d="M114.63,80.38l.77.46c-.64,0-1.18,0-1.41.67a2.62,2.62,0,0,0,0-.28c0-.44-.17-.52-.59-.38a1.74,1.74,0,0,1-.72.08C113.21,80.16,114.12,80.77,114.63,80.38Z"/><path d="M117,81.57c0,.07,0,.16,0,.21l-1.61,2.74a3.68,3.68,0,0,1-.32.37s-.06-.08-.06-.09l2-3.21Z"/><path d="M118.77,81.75,117,84.62l-.16-.1a14.09,14.09,0,0,1,1.84-2.82Z"/><path d="M119.19,83.75l-.93,1.35A1.37,1.37,0,0,1,119.19,83.75Z"/><path d="M114.54,83.06l-.54.77c0-.47.26-.62.4-.86Z"/><path d="M122.8,40.44l-1.1-.6A1.6,1.6,0,0,1,122.8,40.44Z"/><path d="M120.33,39l1,.42a1.06,1.06,0,0,1-1-.43Z"/><path d="M124.13,41.14l-.56-.29.05-.1.57.29Z"/><path d="M57.68,46.43l.62.33c-.52.13-.52.13-.71-.19Z"/><path d="M138.89,79.83l-.46.61Z"/><path d="M89,64.11l-.42.45-.11-.08.39-.49Z"/><path d="M94.14,72.24v-.89C94.37,71.63,94.37,71.63,94.14,72.24Z"/></svg>