<svg id="Layer_1" data-name="Layer 1" xmlns="http://www.w3.org/2000/svg" viewBox="0 0 160 112" width="160mm" height="112mm" ><title>sketch</title><path d="M116.57,26.6l-.62-.66,0-.08a2.49,2.49,0,0,1,.32.2c.66.6,1.35,1.18,2,1.84a15.8,15.8,0,0,0,2.47,1.93,1.62,1.62,0,0,1,.69.93l-.77-.05c1.62.54,2.38,1.91,3.15,3.22a29,29,0,0,1,1.54,3.23,4.9,4.9,0,0,1,.33,1.65q.09,3.51.08,7c0,.7-.22,1.4-.27,2.11s0,1.5,0,2.25c0,3.86,0,7.71.06,11.57,0,.46-.06.93-.08,1.4,0,1.3-.09,2.6-.14,3.91a.8.8,0,0,1-.09.36,4.94,4.94,0,0,0-.1-.53,1,1,0,0,0-.17-.25c-.07.08-.19.16-.21.25-.08.42-.15.85-.2,1.28a9.87,9.87,0,0,0-.15,2c.19,1.8-.46,3.43-.9,5.09a26,26,0,0,1-1.83,4.87A5.69,5.69,0,0,1,118,83.24a.48.48,0,0,0-.25.14,5.38,5.38,0,0,0-1,1.64,19,19,0,0,1-2.18,4.63,3.76,3.76,0,0,1-.52.67,3.24,3.24,0,0,0-.76,3,.52.52,0,0,0,.23.3.82.82,0,0,1,.41.85c-.12.78-.26,1.57-.4,2.35a16.86,16.86,0,0,1-.41,1.9,1.84,1.84,0,0,1-.6.81c-.21.19-.47,0-.68-.43-.49.06-1,.13-1.48.18a8.7,8.7,0,0,1-1.14,0,.92.92,0,0,1-.91-.74.72.72,0,0,0-.11-.19c-.52-.8-1.06-1.59-1.58-2.4a.78.78,0,0,1,0-.31c0-1.38-.09-2.76-.17-4.13a6.18,6.18,0,0,0-.25-1s0,0,0,0c-.05-.93-.79-1.57-1-2.44a.49.49,0,0,0-.3-.31,13,13,0,0,0-2-.28c-3.07,0-6.13,0-9.2,0-1.64,0-3.27-.12-4.91-.17-.71,0-1.43,0-2.14,0-2.27,0-4.53,0-6.8,0-1.92,0-3.84.07-5.76.16-4.47.22-8.94.14-13.4,0-1.35,0-2.7-.26-4-.39a11.69,11.69,0,0,0-1.18-.08,1.05,1.05,0,0,0-.41.14v.15l.78.28A25,25,0,0,1,49.88,87a2.34,2.34,0,0,1-.87-.66c1.86.62,3.74.27,5.63.29,0-.1,0-.17,0-.23s0-.14-.05-.24c-.72-.06-1.45-.1-2.17-.18s-1.29-.16-1.94-.27c-.12,0-.22-.15-.32-.23.12-.07.25-.19.37-.18,2.63,0,5.25.09,7.87.11,2.38,0,4.76.07,7.13,0,2.88-.11,5.75-.38,8.62-.56,2.13-.14,4.25-.26,6.38-.36a32.91,32.91,0,0,1,3.58-.08c2.58.14,5.14-.14,7.71-.23,2.73-.11,5.46-.14,8.2-.21a5.89,5.89,0,0,0,1.24-.14,3,3,0,0,1-.32-.09l-1.85-.62a.9.9,0,0,0-.46,0,11.19,11.19,0,0,1-3.36.42l-3.5-.1c-.07,0-.17,0-.2-.07C91.32,83,91,83,90.67,83c-2-.1-4.06-.17-6.09-.3-7.76-.49-15.54-.17-23.31-.24-4.14,0-8.28,0-12.42,0l-5.5,0-.24,0,0-.12a2.06,2.06,0,0,1,.56-.19c1.24,0,2.49.06,3.73,0a15.22,15.22,0,0,0,3-.47,6.13,6.13,0,0,1,1.69-.22c12.54,0,25.08,0,37.62,0,5.35,0,10.69-.09,16-.18,1.23,0,2.45-.19,3.68-.28a40.21,40.21,0,0,0,7.23-1.25,1.76,1.76,0,0,0,.68-.35c.64-.54,1.26-1.12,2-1.74-1.16.23-2.2.49-3.26.65s-2.13.24-3.2.35l0-.17a2.64,2.64,0,0,1,.3-.1c1.13-.2,2.28-.37,3.41-.61s2.06-.49,3.08-.77a1.1,1.1,0,0,0,.51-.34,12.07,12.07,0,0,0,2.43-5s0,0,0-.1c-.25.41-.49.8-.75,1.18-.07.1-.22.14-.33.21a1,1,0,0,1,0-.4A18.79,18.79,0,0,0,123.12,68a3.79,3.79,0,0,0,.12-.94c0-1.61-.08-3.22-.12-4.83H123c0,.1,0,.21,0,.31a29.66,29.66,0,0,1-.77,5.47,4,4,0,0,1-.34.89,2.34,2.34,0,0,1-.4.44l-.1-.07c.09-.5.19-1,.28-1.5a26.75,26.75,0,0,0,.41-4.29c0-2.82.19-5.63.22-8.45,0-2.12-.12-4.24-.12-6.36,0-2.38.08-4.77.13-7.16a2.69,2.69,0,0,1,.11-.69,1.48,1.48,0,0,1,.27-.4c.07.14.19.28.19.42,0,.89,0,1.78,0,2.66.09,3.48.19,6.95.28,10.42,0,.7,0,1.4,0,2.11a1.56,1.56,0,0,0,.06.47c0-.47.08-.94.1-1.41.07-1.38.17-2.75.17-4.13,0-2.83-.06-5.65-.08-8.48a10.51,10.51,0,0,0-.5-2.76l-.14.35-.09,0a13.37,13.37,0,0,0-2.44-6.87l.37.29,0,0c-.18-.33-.34-.67-.53-1a.45.45,0,0,0-.28-.15c-1.53-.36-3-.82-4.61-1-3.1-.42-6.15-.32-8.89,1.52a15.4,15.4,0,0,0-3.12,3c-.24.29-.49.58-.72.88a1,1,0,0,0-.1.3,4,4,0,0,1-.3,1,8,8,0,0,0-1,3.1.51.51,0,0,0,.15.37c2.49,2.11,5,4.23,7.49,6.31,2.26,1.86,4.56,3.67,6.85,5.51.07,0,.16.09.2.16a.28.28,0,0,1,0,.22s-.13,0-.19,0-.1-.07-.15-.11c-2.17-1.7-4.35-3.39-6.5-5.12s-4.38-3.59-6.57-5.39c-.49-.4-1-.81-1.44-1.21a2.86,2.86,0,0,0-.28-.16l.59.9c-.22,0-.47-.07-.54,0a2.79,2.79,0,0,0-.42.8c-.1.36-.13.74-.2,1.15l.27-.09c2.63,2.3,5.18,4.62,7.82,6.85s5.34,4.33,8,6.53c-2.84-1.85-5.48-4-8.14-6.08a65.5,65.5,0,0,1-7.45-7c-.7.4-.22.89-.16,1.33s.19.69.24,1a2,2,0,0,1-.06.54l-.17,0-.55-1.31,0,.31c0,.91-.06,1.82-.07,2.73a1.59,1.59,0,0,0,.12.45c-.28.29,0,.46.27.71,1.25,1.07,2.48,2.14,3.67,3.26q4.15,3.95,8.27,7.93l1.38,1.33a1.64,1.64,0,0,1,.2.26l-.08.09a3.88,3.88,0,0,1-.33-.23c-2.86-2.34-5.46-5-8.12-7.53-1.51-1.44-3.06-2.83-4.62-4.21-.45-.4-1-.72-1.55-1.14v1L98.53,51a2.28,2.28,0,0,0,0,.3l1.17,4.62c0,.07.07.15.05.21a4.31,4.31,0,0,0,.5,2.42c.91,2.55,1.87,5.08,2.81,7.62,0,0,0,.05,0,.13l-.82-1v3.34h-.09a1.83,1.83,0,0,1-.06-.25c-.26-1.3-.51-2.61-.79-3.91,0-.14-.19-.25-.29-.38a1.66,1.66,0,0,1-.25-.34,4.91,4.91,0,0,0-.25-.66,9.12,9.12,0,0,1-1,4.49h-.15a2,2,0,0,1,0-.42,16.33,16.33,0,0,0,.31-4.73c0-.05,0-.09,0-.13l-.53,3.13H99c-.09-1-.22-1.9-.26-2.85s.05-1.84.07-2.77a2,2,0,0,0-.48-1.57l.31,2.56-.11,0-.22-1.1h-.12a4.23,4.23,0,0,0-.12.68c0,1.16,0,2.32.05,3.47a3.78,3.78,0,0,1-.5,1.68s-.14.06-.21.09a.69.69,0,0,1-.07-.3,22.55,22.55,0,0,0,.49-2.42c.16-2,.26-4.06-.75-5.92A16.68,16.68,0,0,0,95.62,55a.39.39,0,0,1-.12-.28l1.23.84.07-.06a5.44,5.44,0,0,0-.52-.55c-.31-.27-.64-.53-1-.78-.09-.07-.24-.16-.33-.13a35.15,35.15,0,0,1-5.47,1c-2,.32-4,.58-6,.85a6.92,6.92,0,0,1-1.51,0c1.65-.56,3.39-.66,5.07-1.07-1.64,0-3.28.31-4.92.17v-.11l1-.16,1.1-.1,1.05-.09v-.11c-.61-.16-1.22-.32-1.84-.46-.85-.19-1.7-.35-2.56-.53a1.46,1.46,0,0,0-.36,0c-.55,0-1.1.11-1.65.12H73.24a2.85,2.85,0,0,1-.41,0v-.12l6.8-.25v-.09l-.18-.1a25.09,25.09,0,0,1-5-2.63,1.58,1.58,0,0,0-1-.28c-.94,0-1.89,0-2.84,0A4.17,4.17,0,0,1,70,50v-.12l3.34-.16.06-.1A5.61,5.61,0,0,0,72.28,49a5,5,0,0,0-1.5-.17c-1.88,0-3.76,0-5.65,0l-.61,0v-.15c1.2-.07,2.4-.16,3.6-.2s2.43,0,3.69,0c-.45-.39-.88-.75-1.29-1.13-.57-.52-1.13-1.07-1.7-1.59a.68.68,0,0,0-.37-.18c-1.59-.06-3.17-.11-4.76-.15s-3.38-.06-5.06-.08h-.37v-.12h10l-.23-.32A19.71,19.71,0,0,1,66.71,43a2.85,2.85,0,0,1-.12-1.15c0-.12,0-.24,0-.35-.84.09-1.64.2-2.45.26a6.76,6.76,0,0,1-1.1,0c-.12,0-.23-.13-.35-.19.12-.08.24-.22.37-.23.82-.08,1.65-.14,2.47-.2.14,0,.28,0,.43,0,0-.59-.2-.73-.73-.6a23.51,23.51,0,0,1-5.13.79,6.56,6.56,0,0,1-.88-.09v-.17a5.63,5.63,0,0,1,.68-.17l3.65-.55A2.44,2.44,0,0,0,64,40.2l0-.15h-.39c-2.56,0-5.12,0-7.68,0-.36,0-.71.12-1.06.13-.78,0-1.57,0-2.35,0a.59.59,0,0,0-.56.26.55.55,0,0,1-.9,0,.65.65,0,0,0-.58-.21l-2,0-.64,0a4.89,4.89,0,0,1,.21.54.35.35,0,0,1-.11.28s-.16-.05-.24-.09a.22.22,0,0,1-.09-.12c-.19-.57-.61-.65-1.13-.59s-1.1.05-1.7.08l.36.66-.09.07a1.81,1.81,0,0,1-.24-.24.91.91,0,0,0-.87-.48,66.2,66.2,0,0,1-10.15-.25,5.12,5.12,0,0,1-.54-.1,1.31,1.31,0,0,1-.27-.21,1.61,1.61,0,0,1,.28-.17,4.38,4.38,0,0,1,.51,0L38,39.48l.26,0L35.6,35.32l.17-.14a1.07,1.07,0,0,0,.1.22c.82,1.21,1.65,2.42,2.45,3.64a.8.8,0,0,0,.81.43c.54,0,1.08,0,1.68,0L38,34.77l0-.06.16.24c.62.87,1.23,1.74,1.84,2.63.35.52.66,1.06,1,1.57a.76.76,0,0,0,.52.25c.69,0,1.39,0,2.16,0l-2.88-6,.05-.06a1.69,1.69,0,0,1,.28.33c.67,1.33,1.32,2.67,2,4,.23.46.46.92.73,1.36a.62.62,0,0,0,.44.23c.59,0,1.18,0,1.77-.06.33,0,.4-.14.27-.44l-1.74-4s0-.07,0-.11c.28-.09.39.09.49.31.52,1.15,1,2.3,1.58,3.46.06.13.13.26.22.42a7.51,7.51,0,0,0,1.94-1.33c.05,0,0-.21,0-.29l-.62-1.59c.39.07.65.19.77.56a10.73,10.73,0,0,0,.5,1.09h.13A13.41,13.41,0,0,0,50,35.56c.06-2.74.08-5.47.14-8.2a38.5,38.5,0,0,1,.34-4.42,8.61,8.61,0,0,0-1.61-6.46.27.27,0,0,1-.07-.08,1.73,1.73,0,0,0-1.62-.79c-2.17.1-4.34.07-6.5.22a12.31,12.31,0,0,0-4.73,1.37h2.76l0,.08c-.14.08-.28.22-.42.22l-4.14-.06s0,0-.07-.11l1.45-.09-.08-.09a3.5,3.5,0,0,1,.37-.49c.28-.24.6-.46,1-.72-.78-.1-1.52,0-2.23-.13l0-.15a1.81,1.81,0,0,1,.37-.09l2.37-.07a.9.9,0,0,0,.49-.1,6.41,6.41,0,0,1,2.48-.77,9.86,9.86,0,0,0,3.47-1.3,13.68,13.68,0,0,1,1.95-.88,2.43,2.43,0,0,1,.61,0l0,.1a1.35,1.35,0,0,1-.33.26c-1,.43-2,.84-3,1.26l-.51.2c.89-.05,1.67-.09,2.44-.15a11.6,11.6,0,0,1,5.24.81,5.51,5.51,0,0,0,1.53.1h.08A3.49,3.49,0,0,0,54,14.36a5.76,5.76,0,0,1,2.35-.72,11.37,11.37,0,0,0,1.44-.45,16.77,16.77,0,0,1,9.74.56,4.44,4.44,0,0,1,.57.3l0,.13c-.28,0-.56-.06-.83-.12-1.21-.26-2.4-.6-3.61-.77a18.39,18.39,0,0,0-6.14.28.18.18,0,0,0-.13.1h6.85a3.24,3.24,0,0,1,1.72.43,3.87,3.87,0,0,0,1.36.25c.33.05.66.08,1,.12a4.23,4.23,0,0,1,1.67.83,6.6,6.6,0,0,1,.85.65.52.52,0,0,0,.72,0c1-.61,2.1-1.24,3.18-1.8a6.72,6.72,0,0,1,3.59-.85,7.83,7.83,0,0,1,1.27.21c.67.17,1.33.38,2,.58a1.2,1.2,0,0,1,.49.29,2.71,2.71,0,0,1-.57,0l-3.06-.69L78,13.65c-.27,0-.48,0-.41.38a7.34,7.34,0,0,0-4,1.2c.4-.11.82-.21,1.22-.34a7.71,7.71,0,0,1,4.75-.12c1.29.39,2.62.66,3.92,1.05a6.42,6.42,0,0,0,2.22.19,11.26,11.26,0,0,0,3.37-.32,1.38,1.38,0,0,1,.81.18c.67.28,1.31.63,2,.9a2.47,2.47,0,0,1,1.28.92c.08.12.27.16.4.25a8.94,8.94,0,0,0,.84.51,3.77,3.77,0,0,0,.75.2l.07-.12L93.57,17.1l.08-.12a3.37,3.37,0,0,1,.76.31c.45.32.85.7,1.28,1a.45.45,0,0,0,.29.13,8.66,8.66,0,0,1,4,.22c.29.1.58.19.86.31a15.47,15.47,0,0,0,2.59,1.06,4.89,4.89,0,0,1,2.3,1.55l.08-.07-1.23-1.87.07-.09a3.7,3.7,0,0,1,.33.21,8,8,0,0,1,1.57,2c.2.34.42.67.61,1a.44.44,0,0,0,.48.25,11.52,11.52,0,0,1,3.86.54,1.37,1.37,0,0,1,.45.23l4.63,2.83ZM98.72,40.8a11.51,11.51,0,0,1,1.19-1.67,6.46,6.46,0,0,0,1.32-2.51,8.93,8.93,0,0,1,2.9-4.06l.26-.2c-.32.45-.68.84-1,1.25a1.78,1.78,0,0,0-.3.58c-.11.38,0,.47.35.31a4.3,4.3,0,0,0,.93-.59,29.31,29.31,0,0,1,4.36-3.29,4.42,4.42,0,0,1,2.52-.71c1.25.07,2.51.05,3.76.09a11.58,11.58,0,0,1,1.18.18l0-.1a5.13,5.13,0,0,0-2-.67h1.5a1.67,1.67,0,0,0-.84-1.09,22.36,22.36,0,0,0-4.52-2.85,15.57,15.57,0,0,0-2.45-.79c-.64-.16-1.28.32-2,0a2.28,2.28,0,0,0-1.2.08A17.06,17.06,0,0,0,99,26.87a.85.85,0,0,0-.28.22c-.41.6-.81,1.2-1.21,1.81A2.84,2.84,0,0,0,97,31.62a73.73,73.73,0,0,1-7.92-5.29l-.17.18c-.29.28-.44.24-.55-.16,0-.1,0-.22,0-.32a.52.52,0,0,0-.15-.27,1.38,1.38,0,0,0-1-.36c-.3,0-.61,0-.91.09a2.15,2.15,0,0,0-.51.24l0,.16c-.77-.52-1.5.13-2.29,0l1.25-.53,0-.12a4.16,4.16,0,0,0-1-.22,9.27,9.27,0,0,0-3.17.63,16.75,16.75,0,0,1-1.66.52,11.33,11.33,0,0,1-1.17.15l0-.17c1.81-.58,3.45-1.67,5.43-1.79a.31.31,0,0,0-.21-.1c-.79,0-1.58,0-2.36-.08a2.59,2.59,0,0,0-2,.73c-.91.93-1.78,1.9-2.66,2.86-.11.11-.19.25-.29.37l-.06,0,.22-.49A48.69,48.69,0,0,0,68.93,38c.73-.51.78-1.46,1.38-2.16-.07.59-.55,1-.45,1.54l.54-.25a1,1,0,0,1-.28.31,2.59,2.59,0,0,0-1,1.42c-.24.89-.51,1.77-.83,2.64a1.77,1.77,0,0,0,0,1.41,9.58,9.58,0,0,1,.42,1.53l-.15,0-.42-1.62a2.65,2.65,0,0,0,.92,2.43c0,.19,0,.35.12.42.67.63,1.33,1.28,2,1.86a14.81,14.81,0,0,0,1.42.9l.08-.11a3.38,3.38,0,0,0-.35-.31c-.49-.34-1-.63-1.47-1a3.55,3.55,0,0,1-1.57-2.52A6.12,6.12,0,0,1,69.84,42c0-.07.1-.12.22-.25a2.73,2.73,0,0,1,0,.39c0,.23-.06.46-.1.69a4.08,4.08,0,0,0,.15,2.22,5.31,5.31,0,0,0,1.91,2l-.19-1.23.16,0a5.87,5.87,0,0,1,.26.65,7.09,7.09,0,0,0,1.45,2.38,1,1,0,0,0,.45.3c1,.43,2.11.83,3.15,1.28.63.27,1.22.64,1.86.89,1.08.42,2.17.81,3.28,1.13.91.27,1.87.41,2.81.6a.77.77,0,0,0,.45,0,6.44,6.44,0,0,0,1.69-.82,1.14,1.14,0,0,1,.78-.13.35.35,0,0,0,.41-.17c.42-.57.85-1.14,1.3-1.7.09-.12.28-.16.42-.24s.52-.19.66-.38a11.63,11.63,0,0,0,1-1.44c.62-1,1.2-2.09,1.83-3.12a57.12,57.12,0,0,0,4.1-8,13.31,13.31,0,0,0,.46-1.52.42.42,0,0,0,0-.29c-.32-.64-.05-1.31-.12-2,.21.13.35.31.53.42a2,2,0,0,1,.9,2.39c-.17.69-.35,1.39-.52,2.08l-.14,0v-.31c0-.58,0-1.16,0-1.74,0-.17,0-.36-.23-.36s-.2.18-.22.33a5.57,5.57,0,0,1-.15.91A43.62,43.62,0,0,1,93.1,47.29c-1.09,1.55-2.3,3-3.46,4.51l-.21.26-.14.25.07.06,2.22-1.76a4.91,4.91,0,0,1,.55-.38,7.18,7.18,0,0,0,2.61-2.83c.45-.84.83-1.73,1.22-2.6.76-1.72,1.52-3.44,2.26-5.18.17-.39.24-.82.38-1.23,0-.09.14-.14.21-.21a1.43,1.43,0,0,1,.15.27.85.85,0,0,1,0,.22C98.87,39.38,98.79,40.1,98.72,40.8ZM69,24.85a.82.82,0,0,1-.51-.74c0-1.18,0-2.37.18-3.54a4.81,4.81,0,0,0-.7-3.49c-.15-.22-.21-.5-.35-.72a6.09,6.09,0,0,0-.74-1c-.12-.12-.39-.08-.59-.12l0,.06.36.2a11.1,11.1,0,0,1-2.82-.13,11.94,11.94,0,0,0-3.41-.57,26.7,26.7,0,0,0-6,.92l-1.63.44.07.08a4,4,0,0,1-.24.51c-.25.4-.79.7-.35,1.28,0,0,0,0,0,0,.55-.57,1.05-1.18,1.64-1.68a2.68,2.68,0,0,1,2.19-.65c-.46.26-.91.49-1.34.76A8.24,8.24,0,0,0,52,20a11.42,11.42,0,0,0-1.14,4.82c-.1,2.56-.14,5.12-.16,7.68a9.29,9.29,0,0,0,.67,3.61c.19.46.39.92.61,1.47l-.53-.22c0,.42,0,.82,0,1.22s0,.68.49.61c.06,0,.12.07.19.09l1.63.48c-.23-.83-.43-1.54-.62-2.25a7.62,7.62,0,0,0-.42-.86,11.59,11.59,0,0,1-.5-2.07.33.33,0,0,1,0-.22,2.15,2.15,0,0,0,0-1.48,1.36,1.36,0,0,1,0-.21l.09,0c.27,1.34,1.15,2.42,1.52,3.72a3.32,3.32,0,0,0,.58,1.06,3.11,3.11,0,0,0,2.09,1,4.75,4.75,0,0,1,.54.14v.11a1.31,1.31,0,0,1-1,.07,3.12,3.12,0,0,1-2.48-2.85,8.19,8.19,0,0,0-.26.8.48.48,0,0,0,0,.31c.3.7.64,1.38.92,2.09a.86.86,0,0,0,.93.57c.63,0,1.26,0,1.89,0,1.11-.08,2.22-.2,3.34-.3s2.37-.22,3.55-.3a.67.67,0,0,0,.68-.45c.27-.69.58-1.37.8-2.07a42.47,42.47,0,0,0,1.71-5.26c.11-.55.23-1.11.35-1.66.32,2.76-.87,5.2-1.6,7.75a8.6,8.6,0,0,0,1-1.27,11.73,11.73,0,0,0,1.57-5.44c.1-1.44.07-2.88.11-4.32,0-.37.09-.73.13-1.09h.17c.07.53.19,1.05.22,1.59.05.87.05,1.74.09,2.62a2.88,2.88,0,0,0,.14.59c.51-.75.18-8.63-.4-9.27Zm8.69.35a10.49,10.49,0,0,1,3-1.75.37.37,0,0,0,.2-.19,12.34,12.34,0,0,1,1.8-2.83c.2-.24.46-.52.2-.9-.06-.07,0-.21,0-.32,0-.42-.09-.83-.14-1.24s-.09-.76-.14-1.2l-1.2-.32a9.13,9.13,0,0,0-2.8-.41c-.86.06-1.72.07-2.58.09a4.26,4.26,0,0,0-2.11.6,5.11,5.11,0,0,1-.48.33,4.15,4.15,0,0,0-2,1.81c-.14.24-.26.4-.63.17a1.8,1.8,0,0,1-.06,1.41,16.21,16.21,0,0,0-.53,2.37c-.2,1.75-.3,3.5-.47,5.25a16.43,16.43,0,0,0,.08,4.85c0,.14,0,.39-.08.43-.37.21-.21.5-.19.78a1.6,1.6,0,0,0,.23-.3,10.42,10.42,0,0,1,1.9-2.48c.62-.53,1.22-1.08,1.79-1.66a6.25,6.25,0,0,0,1-1.29,14.09,14.09,0,0,1,2.64-3.26C77.37,25,77.56,24.84,77.72,25.2Zm18.91,2.7h0a8,8,0,0,1,1-1c1-.68,2-1.35,3.09-1.94a5,5,0,0,1,2.94-.82s.07,0,.06,0a6,6,0,0,1,.17-.67.84.84,0,0,0-.38-1.17,1,1,0,0,1-.21-.15,5.31,5.31,0,0,0-3.91-1.86h-.11l-2.91-.13c-.36,0-.73,0-1.09-.05-.14,0-.26-.15-.39-.23v-.12l-.78.38c-.27.14-.54.39-.82.39a2.84,2.84,0,0,0-1.78.7,3.45,3.45,0,0,0-1.45,2,5.42,5.42,0,0,1-.54,1.54c-.12.26-.21.53-.33.79s0,.3.17.42a16.11,16.11,0,0,1,2,1.33,20.22,20.22,0,0,0,3.41,2.13c.73-.76,1.1-1.85,2.3-2.24Zm-8-3.11c.06-.13.1-.26.16-.38a6.57,6.57,0,0,1,1-1.56,10.06,10.06,0,0,0,2.2-2.79,2.5,2.5,0,0,0,0-1.64c0-.06-.09-.12-.15-.15A3.17,3.17,0,0,0,91,18c-.55-.09-1.12-.11-1.7-.15,0-.37-.21-.35-.47-.37a6,6,0,0,0-3.42.88,2.33,2.33,0,0,0-.78.75,3.31,3.31,0,0,1-.84.87,1.37,1.37,0,0,0-.57,1,1.23,1.23,0,0,1-.2.52c-.38.63-.77,1.24-1.16,1.86l3.09,1.09c0,.16,0,.25,0,.29A1,1,0,0,0,86,25a9.79,9.79,0,0,1,1.1-.09.7.7,0,0,0,.42-.21A.64.64,0,0,1,88.58,24.79Zm20.73,62.65c0,1.29.1,2.53.14,3.77.07,2,.16,3.91.22,5.87,0,.35-.07.71-.07,1.06s.05.48.34.48c.59,0,1.18,0,1.77-.05a.42.42,0,0,0,.29-.19c.27-.64.52-1.29.76-1.94a3.5,3.5,0,0,0,.23-.78,14.14,14.14,0,0,0,.13-1.46.37.37,0,0,0-.18-.29,1.73,1.73,0,0,1-.86-1.15.84.84,0,0,1,.08-.58c.77-1.37,1.58-2.72,2.33-4.11a4.76,4.76,0,0,0,.77-2.8c0-.12,0-.28-.11-.33-.27-.21-1,0-1.14.32a1.18,1.18,0,0,1-.47.47c-1,.44-2,.85-3,1.27a4.31,4.31,0,0,0-.47.26,1.78,1.78,0,0,1-.3.17A2,2,0,0,1,109.31,87.44ZM94.83,85.58v0c1.33.07,2.66.09,4,.2s2.59.24,3.88.45a12.45,12.45,0,0,0,3.9,0,.38.38,0,0,1,.21,0,1.1,1.1,0,0,0,1-.07,14.87,14.87,0,0,1,1.39-.68c.52-.2.77-.64,1.1-1.06a3.06,3.06,0,0,0-.87.19,4.89,4.89,0,0,1-1.22.55c-1.34.11-2.7.14-4,.16-1.56,0-3.13,0-4.69,0S96.38,85.54,94.83,85.58Zm12.41-4c.31.34.52.61.77.85a.54.54,0,0,0,.41.17c1.9-.33,3.8-.69,5.69-1a2.83,2.83,0,0,0,1.58-1.09A43,43,0,0,1,107.24,81.61Zm-9-31.23s0,0,0,0l-.12.09A10.59,10.59,0,0,1,96,52c-.12.05-.15.41-.14.62s.18.29.29.42c.41.46.81.92,1.25,1.35a.75.75,0,0,0,.52.12c.06,0,.15-.2.16-.31C98.12,53,98.17,51.66,98.23,50.38ZM125,44.64h0a3.24,3.24,0,0,1-.21.77,2.19,2.19,0,0,0-.19,1.18c-.07,3.53.11,7.06.27,10.59,0,.49.06,1,.1,1.48Zm-30.1,4.9c.38-.32.78-.61,1.13-.95.92-.9,1.82-1.83,2.75-2.73.36-.35.27-.78.26-1.21l-1.77,2-.07-.06.56-.86a.25.25,0,0,0-.2.08c-.5.47-1,.93-1.49,1.41a1.11,1.11,0,0,0-.18.33h.51A3.89,3.89,0,0,0,94.88,49.54Zm-13,3.54.05-.18a3.61,3.61,0,0,0-.61-.26,16.8,16.8,0,0,1-3.69-1.4c-.78-.4-1.57-.76-2.37-1.13a1.28,1.28,0,0,0-.35-.08c0,.14,0,.19.09.22,1,.58,1.94,1.17,2.93,1.72a9.26,9.26,0,0,0,3,1C81.23,53.06,81.54,53.06,81.85,53.08ZM100,40.24l-.11,0a18.33,18.33,0,0,0-3.17,5.72c1-1.36,2-2.6,2.8-3.92A6.33,6.33,0,0,0,100,40.24Zm7.94,42.4c-.29-.31-.54-.61-.81-.88a.55.55,0,0,0-.34-.1l-5.34.06c-.14,0-.27,0-.41,0a17,17,0,0,0,1.88.13,4.91,4.91,0,0,1,2.23.49A3.49,3.49,0,0,0,107.91,82.64Zm-16.79-.12c.17.12.37.19.44.32.18.36.49.31.79.3,1.18,0,2.36,0,3.54-.12.77,0,1.53-.2,2.3-.3a1.09,1.09,0,0,0,.23-.09,12.75,12.75,0,0,0-1.6-.16,8.21,8.21,0,0,0-3,.15,3.72,3.72,0,0,1-1.2.12A12.65,12.65,0,0,1,91.12,82.52Zm7.44-33.71c-1.36.73-2.37,1.94-3.83,2.44,0,0,0,.1,0,.15a1,1,0,0,0,.17,0c.08,0,.19,0,.21,0,.2.28.45.2.69.09a2.46,2.46,0,0,0,.56-.34c.64-.53,1.26-1.11,1.91-1.62A.77.77,0,0,0,98.56,48.81Zm.26-1.41c-1.22.83-2.41,1.67-3.63,2.47a.9.9,0,0,0-.38.89c.18-.11.31-.18.44-.27,1-.69,2-1.44,3-2.06A1.09,1.09,0,0,0,98.82,47.4Zm-48.33-13a10.07,10.07,0,0,1-.86,5l.78-.11c.1-.9.18-1.78.3-2.66A3.39,3.39,0,0,0,50.49,34.42Zm58,56.83.07,0a1.92,1.92,0,0,1,0-.24,1.33,1.33,0,0,0-.59-1.51,7.68,7.68,0,0,1-.79-.73l-.11.06a2.55,2.55,0,0,0,.16.91A18.4,18.4,0,0,0,108.45,91.25ZM95.51,29.9l.68.62a4.84,4.84,0,0,1,1.37-2.69A3.12,3.12,0,0,0,95.51,29.9Zm13,59.58.13-1.93-1.21.32Zm10.58-58.61a4.18,4.18,0,0,0-2.28-1.58A3.06,3.06,0,0,0,119.14,30.87ZM49.4,38.68c-.54-.18-.48-.55-.31-1a3,3,0,0,1-1.48,1.59A1.24,1.24,0,0,0,49.4,38.68Zm59.16,57.5c0-.51.18-1-.36-1.39a4.43,4.43,0,0,1-.81-.91l-.11,0a2.32,2.32,0,0,0,.17.7,10.92,10.92,0,0,0,.72,1C108.31,95.77,108.43,96,108.56,96.18Zm-7.84-76.41a5.35,5.35,0,0,0-3-.75C98.69,19.34,99.56,20,100.72,19.77ZM86.61,53.22l0,.16c.26,0,.53,0,.79,0,.67,0,.85-.27.74-1C87.51,52.43,87.27,53.18,86.61,53.22ZM122.32,34l-.08.06,1.35,3.24.09,0A8.84,8.84,0,0,0,122.32,34ZM66.19,39.06c.35,0,.64,0,.92,0a.25.25,0,0,0,.2-.12c.16-.42.3-.85.47-1.31Zm2.11,1.85L69,38.63A2.28,2.28,0,0,0,68.3,40.91Zm0-25.43c.33.5.72.86,1.44.59-.28-.21-.55-.39-.8-.61A.39.39,0,0,0,68.28,15.48Zm40.19,76.76L107.17,91l-.09.08c.26.65.9,1,1.39,1.5Zm-21-75.83v-.16c-.57,0-1.14,0-1.71,0a.75.75,0,0,0-.28.11c.09.06.18.17.27.17Zm19.81,76.1h-.06L108.49,94l.1,0c-.07-.21-.07-.49-.21-.62A11.86,11.86,0,0,0,107.26,92.51ZM85.64,17.09c.43.49.84.46,1.5-.11ZM51.08,18.2a.71.71,0,0,0-.06-.93c-.06-.06-.18-.05-.34-.08Zm73,20.86.17,0-.2-1.39-.16,0Zm-6.17-10-.07.15a6.08,6.08,0,0,0,1.19.61l.06-.12Zm-.4,51.77,0,.08a4.75,4.75,0,0,0,.67-.21c.07,0,.07-.22.11-.33s-.21,0-.28,0S117.68,80.72,117.5,80.86ZM65,39c.49.13.6-.2.83-.45C65.38,38.39,65.31,38.79,65,39Zm1.65,2,.09,0,.21-.85-.13-.07c-.06.08-.15.16-.16.25S66.66,40.77,66.66,41ZM69,33.58c.33-.41.36-.59.18-1Z"/><path d="M58.75,80.05l.31,0h8c.27,0,.54,0,.81,0a3.83,3.83,0,0,0,2-.29,1.34,1.34,0,0,1,.54-.13l-.73.4,2,.16v.12c-.86.15-1.74.11-2.61.18s-1.7.23-2.55.35l0-.11.36-.22-.16,0c-3.35,0-6.71,0-10,.06-1.19,0-2.36-.19-3.54-.13-.11,0-.23-.1-.35-.16a1.11,1.11,0,0,1,.34-.14c1,0,2,0,3-.11a21,21,0,0,0,2.47-.56A93.27,93.27,0,0,1,68,77.39a.39.39,0,0,1,.15,0l.32.11c-.09.08-.17.21-.28.23-1.12.27-2.25.51-3.38.77L58.9,79.92l-.16.07Z"/><path d="M101.72,39.52a.59.59,0,0,1,.17.1c4.31,3.46,8.68,6.86,12.73,10.63,1.41,1.32,2.71,2.75,4.06,4.14a1.59,1.59,0,0,1,.3.5c0,.08,0,.23-.12.31a.36.36,0,0,1-.26-.1,64.53,64.53,0,0,0-5.54-5.43c-2.84-2.46-5.69-4.9-8.52-7.37-1-.86-1.93-1.79-2.88-2.69Z"/><path d="M59.56,48.71l-.91.06c-2.87.13-5.73.24-8.6.38-2.26.1-4.52.24-6.78.32A14.1,14.1,0,0,1,41,49.29C47.21,49.05,53.36,48.2,59.56,48.71Z"/><path d="M109.22,64.84a1.89,1.89,0,0,1-.3-.19q-2.7-2.52-5.41-5c-.57-.54-1.18-1-1.72-1.62a3,3,0,0,0-.88-.81c-.37-.17-.16-.56-.15-.9,2.88,2.79,5.9,5.43,8.56,8.43Z"/><path d="M109.92,57.49a110.48,110.48,0,0,1-9.42-9.32l.28.2a55.84,55.84,0,0,1,4.8,4.43q2,1.86,3.94,3.68A1,1,0,0,1,109.92,57.49Z"/><path d="M68.24,47.53l-12.51.28,0-.18a1.39,1.39,0,0,1,.32-.12c2.1-.09,4.2-.22,6.3-.24,1.91,0,3.81.1,5.72.16l.21,0Z"/><path d="M60.2,68.18c0-.59,0-1.09,0-1.59-.1-1.49-.22-3-.3-4.46a15.35,15.35,0,0,1,0-1.66c0-.06.06-.12.12-.22.05.1.11.16.11.22.14,1.21.31,2.41.41,3.63s.11,2.16.14,3.24A.79.79,0,0,1,60.2,68.18Z"/><path d="M91.71,57.48c.05.14.1.28.14.43a17.86,17.86,0,0,1,.53,4.72,7.09,7.09,0,0,1,0,1,1.15,1.15,0,0,1-.34.5s-.21,0-.3-.06,0-.15,0-.23.05-.22.05-.32c-.06-1.89-.12-3.77-.17-5.65,0-.13,0-.27,0-.41Z"/><path d="M55.42,61a1.17,1.17,0,0,1,0,.2q.08,3.23.14,6.45c0,.23,0,.59-.27.59s-.25-.38-.25-.6c0-2.12.11-4.25.17-6.37a2.61,2.61,0,0,1,.06-.27Z"/><path d="M71.67,62.1v-.7h.08a2,2,0,0,1,0,.42c-.05,1.48-.1,3-.18,4.45a1.11,1.11,0,0,1-.33.59c.29-2.45-.3-4.86-.27-7.28h.15l.45,2.55Z"/><path d="M57.81,61.71c.2,1.52.42,3,.6,4.56a5.88,5.88,0,0,1-.08,1.25c0,.1-.15.2-.22.29-.07-.1-.19-.2-.2-.31-.06-.52-.06-1.06-.15-1.58a15.22,15.22,0,0,1,0-4.21Z"/><path d="M125.05,33.76c.24.18.43.3.6.45a.48.48,0,0,1,.14.25c.39,1.67.78,3.35,1.14,5a5.43,5.43,0,0,1,0,1.21,1.29,1.29,0,0,1-.08.31l-.12,0a3.58,3.58,0,0,1-.19-.55c-.13-.8-.24-1.6-.35-2.4a14.43,14.43,0,0,0-1.1-4.08C125.1,33.93,125.08,33.85,125.05,33.76Z"/><path d="M51,67.88a2,2,0,0,1,0-.35,22,22,0,0,0,.11-5c0-.42,0-.84,0-1.26,0-.09.11-.18.17-.27.06.09.17.18.17.28.08,1.69.17,3.39.21,5.08a3.81,3.81,0,0,1-.24,1.14,1.76,1.76,0,0,1-.3.43Z"/><path d="M99.91,53.14q4.83,5.13,9.64,10.27c-3.58-3.07-6.48-6.79-9.72-10.19Z"/><path d="M113,59.68a15.9,15.9,0,0,1,1.32,1c.86.76,1.69,1.55,2.5,2.36a5,5,0,0,1,.66,1,2.11,2.11,0,0,1,.12.51l-.1,0-4.56-4.74Z"/><path d="M72.48,64a19.5,19.5,0,0,1,.62-2.42,4,4,0,0,0,.16-2.13c0-.1,0-.2,0-.29s0,0,.09-.11a2.69,2.69,0,0,1,.12.38A21.46,21.46,0,0,1,74.08,65a1.12,1.12,0,0,1-.56,1,12.11,12.11,0,0,0-.14-5l-.74,3Z"/><path d="M63,61.2a4.85,4.85,0,0,1,.08.53c.06,1.61.12,3.22.17,4.83a1.36,1.36,0,0,1-.11.53c0,.09-.19.12-.29.17a1,1,0,0,1-.1-.27c0-1.4,0-2.8,0-4.2,0-.44,0-.89.06-1.33a1.57,1.57,0,0,1,.1-.28Z"/><path d="M47.9,61.47c0,.09.05.18.06.26,0,1.52.1,3,.12,4.54a3.19,3.19,0,0,1-.24,1c0,.09-.21.14-.32.2a1.53,1.53,0,0,1-.07-.36c0-.43.12-.87.14-1.31,0-1.3.07-2.61.1-3.91,0-.14.06-.28.08-.41Z"/><path d="M92.74,65.61c.13-.25.25-.52.4-.76a4.68,4.68,0,0,0,.76-2.77c0-.54,0-1.08,0-1.62,0-.1.13-.19.2-.28.08.09.22.17.22.26a24.26,24.26,0,0,1-.06,2.83,3.77,3.77,0,0,1-1.45,2.4Z"/><path d="M84.19,59.07a.45.45,0,0,1,.5.41,11.64,11.64,0,0,1,.19,4v0c-.13.16-.27.49-.36.47-.33-.06-.16-.35-.14-.55a14.58,14.58,0,0,0-.13-4C84.23,59.35,84.21,59.23,84.19,59.07Z"/><path d="M40.94,82.39a2.43,2.43,0,0,1,0,.54,1.23,1.23,0,0,1-.26.35c-.1-.1-.27-.2-.28-.31a5.91,5.91,0,0,1,0-1c0-.22.5-.51.85-.53h.48c.68,0,.69,0,.78.64,0,.18,0,.35-.27.34s-.42,0-.63,0Z"/><path d="M83.73,64.3c-.17.12-.34.31-.53.33a.78.78,0,0,1-.57-.22,1,1,0,0,1-.2-.61c0-1.47,0-2.94.06-4.42a.17.17,0,0,1,.07-.13c.09.72.2,1.43.27,2.15s.08,1.32.09,2S83,64.18,83.73,64.3Z"/><path d="M88.11,65.76a23.46,23.46,0,0,0-.33-5.57C88.65,61,88.92,64.92,88.11,65.76Z"/><path d="M77.48,65.72l.1-6h.16c.08.66.19,1.32.22,2Q78,63,78,64.41a4,4,0,0,1-.24,1A1.39,1.39,0,0,1,77.48,65.72Z"/><path d="M75.1,58.32c.12.07.17.08.17.11.18.77.39,1.54.52,2.32a15.82,15.82,0,0,0,.19,2,5.6,5.6,0,0,1,.13,1.77.87.87,0,0,1-.49.79C76,62.91,75.43,60.66,75.1,58.32Z"/><path d="M110.88,42.73l8.37,5.78A45.44,45.44,0,0,1,110.88,42.73Z"/><path d="M44.72,62c0,.1,0,.19,0,.29-.19,1.75-.38,3.51-.58,5.27a1.14,1.14,0,0,1-.18.39c-.08-.13-.25-.27-.24-.4.06-.69.13-1.39.25-2.07.16-1,.37-2.06.56-3.08,0-.14.09-.28.13-.42Z"/><path d="M35.56,41l8.8.46v.1c-2.94,0-5.88-.11-8.81-.4Z"/><path d="M66.93,66.7a27.5,27.5,0,0,1-.06-5.21h.19a37.61,37.61,0,0,1,0,5.2Z"/><path d="M95.75,58.71c.6,1.16.41,4.36-.29,4.76Z"/><path d="M79.88,58.7c0,.42.08.84.11,1.26.07,1,.14,1.94.17,2.91a4.73,4.73,0,0,1-.15.89l-.18,0v-5Z"/><path d="M124.1,32l-2.6-3.17C123,29.38,123.58,30.72,124.1,32Z"/><path d="M68.7,64.64a30.1,30.1,0,0,1-.17-4.28A9.39,9.39,0,0,1,68.7,64.64Z"/><path d="M40.87,62.08c.32,1.21,0,2.42,0,3.63C40.8,64.5,40.44,63.29,40.87,62.08Z"/><path d="M86.31,63.65l-.52-4.55h.09c.18,1.52.76,3,.53,4.56Z"/><path d="M74.57,65.09l-.13-4.34a14.71,14.71,0,0,1,.29,4.34Z"/><path d="M61.28,41.88H55.49v-.05h5.79Z"/><path d="M51.87,43.65l5.58-.15v.13l-5.59.13Z"/><path d="M46.57,66V63.21A9,9,0,0,1,46.72,66Z"/><path d="M103.94,65.76,104.6,67l-.17.09-.6-1.26Z"/><path d="M90.83,81.1l-.94.22C90.14,81,90.39,80.89,90.83,81.1Z"/><path d="M45.32,44.07H43.84v0L45.32,44Z"/><path d="M50,65.22v-1h.06v1Z"/><path d="M76.88,29.13c0,.72,0,1.45-.15,2.15a19.94,19.94,0,0,1-.57,2.07c.33-.16.59-.38.84-.38s.34.41.39.79a5,5,0,0,1,2.86-1,4.49,4.49,0,0,1,2.89.35v.11l-.75-.08a9,9,0,0,0-4.72.72,1.35,1.35,0,0,0-.47.42c-.22.27-.38.59-.62.83s-.41.23-.53.16a.82.82,0,0,1-.26-.54,2.58,2.58,0,0,1,.11-.66l-3,1.42A3.9,3.9,0,0,1,74.94,34a1.13,1.13,0,0,0,.82-.66,1.14,1.14,0,0,0,.09-.3A6.74,6.74,0,0,1,76,31.79c.23-.9.52-1.79.79-2.68Z"/><path d="M83.49,43.3a11.05,11.05,0,0,0-2.56,2.94,24,24,0,0,0-1.45,2.86,7.64,7.64,0,0,0-.3,1.54,1.11,1.11,0,0,1-.13.27c-.08-.08-.2-.14-.23-.23a2.41,2.41,0,0,1,0-1.48,13.66,13.66,0,0,1,2.35-4.28A7.47,7.47,0,0,1,83.49,43.3Z"/><path d="M87.41,41.55a1.58,1.58,0,0,0-.45,0c-.56.21-1.11.44-1.68.63.69-.3,1.18-1,2-1.09l0-.46c-.4.14-.43-.06-.41-.36a1,1,0,0,1,.36-.81,1.67,1.67,0,0,0,.57-.78c.13-.37.4,0,.5,0a3,3,0,0,0,.29.44,1.13,1.13,0,0,1-.54,1.72,1,1,0,0,0-.68.67Z"/><path d="M80.59,29.72,80.3,30l-3.21,2.6a1.08,1.08,0,0,1-.2.16c-.06,0-.19.06-.22,0a.33.33,0,0,1-.06-.25.79.79,0,0,1,.2-.31,9,9,0,0,1,3.11-2.37l.49-.17h.14Z"/><path d="M87.38,35.06c-.18.31-.35.54-.46.79a1.58,1.58,0,0,0-.21.69c0,.89.12,1.79.18,2.68a2.07,2.07,0,0,1-.09.4c-.11-.1-.28-.18-.31-.29-.12-.55-.23-1.1-.3-1.66a9.63,9.63,0,0,1,0-1.07,1.81,1.81,0,0,1,.89-1.45A1.14,1.14,0,0,1,87.38,35.06Z"/><path d="M94.22,33c-1.66,1-3.45,1.91-4.62,3.57l-.11-.1c.31-.41.59-.84.93-1.22a9.94,9.94,0,0,1,2.85-2.13,4.45,4.45,0,0,1,.88-.26Z"/><path d="M88.73,41.72a4,4,0,0,1,3.2-1.53c.44,0,.63.24.52.61C91.05,40.47,89.93,41.24,88.73,41.72Z"/><path d="M71.07,41.67c.26-2.82,2.05-4.63,4.07-6.3A11.45,11.45,0,0,0,71.07,41.67Z"/><path d="M75.91,35.77l-.4,3.49A5.29,5.29,0,0,1,75.91,35.77Z"/><path d="M88.73,38.07v-.91h.45l-.37.93Z"/><path d="M75.63,17.14a3.27,3.27,0,0,1,2.74-.93c.27,0,.38.3.27.64-.28-.35-.65-.24-1-.17-.55.12-1.09.3-1.63.45l-.37.12Z"/><path d="M71.45,24.47a26.2,26.2,0,0,1-.89,5l-.12,0c.15-.83.31-1.65.45-2.48s.26-1.66.4-2.48Z"/></svg>