<svg id="Layer_1" data-name="Layer 1" xmlns="http://www.w3.org/2000/svg" viewBox="0 0 160 112" width="160mm" height="112mm" ><defs><style>.cls-1{fill:#fff;}</style></defs><title>sketch</title><path d="M138,84.81c-.21-.12-.36-.26-.45-.23-1.24.42-2.26-.2-3.26-.72a2.22,2.22,0,0,0-1.53-.25c-3.21.52-6.41,1-9.63,1.46a92.15,92.15,0,0,1-13.49.64h-.34v1c-.1,0-.21,0-.23-.08-.16-.42-.49-.43-.86-.42-.61,0-1.22,0-1.82,0a19.29,19.29,0,0,0-5.76.61c-.8.19-1.66.18-2.49.29-1.89.25-3.79.53-5.69.78-1.71.23-3.43.41-5.14.65-.9.12-1.79.32-2.68.46-1.15.17-2.29.36-3.45.46-2.66.21-5.33.36-8,.54-.89.06-1.77.13-2.65.17a2.19,2.19,0,0,1-.59-.17,4,4,0,0,0-.82-.16c-2.48,0-5-.07-7.44,0-1.58,0-3.14.29-4.7.48-1.82.22-3.62.49-5.43.73a2.51,2.51,0,0,0-1.24.46,2.76,2.76,0,0,1-2.33.34,2,2,0,0,0-.77-.07c-.56.08-1.12.22-1.69.31-.26,0-.42.11-.48.41a5.24,5.24,0,0,1-.34.81,1.3,1.3,0,0,1,.45,0c.18.1.42.24.45.4s-.12.38-.21.57c0,0-.07.05-.11.06a13.47,13.47,0,0,1-3,1,10,10,0,0,0-1.44.3l-.07-.45-1.35-.09-.14.87c-.19-.14-.28-.2-.36-.27-.45-.38-.87-.81-1.35-1.15a11,11,0,0,1-1.8-2,28.35,28.35,0,0,0-2.55-2.7c-.43-.37-.72-.83-1.11-1.21s-.82-.81-1.24-1.2c-1.79-1.68-3.59-3.35-5.37-5a9.85,9.85,0,0,1-.93-1A34.32,34.32,0,0,0,20,76.94a3,3,0,0,1-.58-.65c-.65-1-1.27-2.07-1.89-3.11a1,1,0,0,1-.13-.46Q17.2,68.85,17,65c-.1-2.17-.16-4.35-.3-6.51-.06-.95-.31-1.89-.41-2.85-.15-1.4-.3-2.82-.33-4.23-.05-2.78,0-5.55,0-8.33,0-.37,0-.74.07-1.11a.38.38,0,0,1,.18-.24c.26,2.56.18,5.13.39,7.7.06-.34.14-.67.17-1,.15-2,.28-4,.43-6a2.73,2.73,0,0,1,.25-.95v1.1h.1c.15-.67.32-1.35.46-2A1.71,1.71,0,0,1,19.75,39a10.91,10.91,0,0,0,2.79-.65c.6-.26,1.18,0,1.74-.25.27-.12.4-.18.39-.49,0-2.16-.06-4.31-.06-6.47a2.3,2.3,0,0,1,.21-.93,35.57,35.57,0,0,0,2-5.18,1.71,1.71,0,0,1,.52-.77,8,8,0,0,1,5-1.52c.42,0,.66-.05.76-.53a1.72,1.72,0,0,1,1.1-1.19l2.14-1,.14.21c.22-.3.69-.37.67-.86,0-.05.12-.11.2-.16a4.73,4.73,0,0,1,2.16-1.1,9.24,9.24,0,0,0,1.95-.68c.45-.15.91-.27,1.37-.38a4,4,0,0,1,.6,0l0,.11L42.16,18c.5,0,1,.18,1.45-.24.12-.12.37-.1.55-.15A45.76,45.76,0,0,1,53.23,16c.63,0,1.27,0,1.91,0a3,3,0,0,1,.57.14l0,.16-2,.46c.94.06,1.85.15,2.76.18,2.41.07,4.81.15,7.22.18,1.12,0,2.24-.14,3.36-.14a17.41,17.41,0,0,1,2.6.2c.65.1.69.22.74.88.64.23,1.48-.19,2,.63l0-.43c.64-.1.78,0,1,.53.12.36.19.76.64.92.15.05.23.29.36.48l.45-.36c-.17-.65-.14-.76.42-1.09,1-.64,2.1-1.26,3.15-1.89a1.17,1.17,0,0,1,1.18-.14c.07,0,.17,0,.26,0,.84,0,1.68,0,2.51-.12,1.62-.21,3.24-.17,4.86-.27A93.44,93.44,0,0,1,96.6,16c2.28.08,4.57.21,6.85.33,1,0,2.06.13,3.1.19a2.19,2.19,0,0,1,1.32.39,1.27,1.27,0,0,0,.89.07c.63-.15.88.17,1.14.66.45.89,1,1.72,1.44,2.61a3.9,3.9,0,0,1,.39,1.38c.16,1.81.26,3.62.38,5.43,0,.31.07.62.07.93a2.25,2.25,0,0,1-.18.89,4,4,0,0,0-.06,1.56s.16.11.25.12.39,0,.58,0a2.61,2.61,0,0,1,1,.17c.24.14.71-.13,1.08-.24a2.32,2.32,0,0,0,.43-.24c0,.06.07.09.07.12-.1.5.18.7.59.91,3.86,1.95,7.71,3.91,11.54,5.91q6,3.13,12,6.34c1.2.65,2.34,1.42,3.5,2.15a.83.83,0,0,1,.32,1.11,1.51,1.51,0,0,0-.05.52c.08,6.68.22,13.36.21,20,0,2.86-.29,5.72-.46,8.58-.11,1.74-.21,3.48-.35,5.22a18.22,18.22,0,0,1-.34,1.91c0,.26-.09.52-.13.78a.52.52,0,0,1-.61.49,11.53,11.53,0,0,0-1.44,0,9.83,9.83,0,0,0-1.53.18A2.4,2.4,0,0,0,138,84.81ZM96.24,81.7v.8c1.5-1.86,3.32-3.43,4.44-5.6-.41.08-.93.13-1.13.41-1,1.35-1.9,2.77-2.83,4.17-.13.2-.25.32-.49.23a1.14,1.14,0,0,0,.15-.16c.63-1,1.27-1.94,1.89-2.93.27-.42.5-.87.79-1.38a4.06,4.06,0,0,0-2.15.44,5.72,5.72,0,0,0-2,2c-.7,1-1.37,2.1-2,3Zm-45.13,2a1.69,1.69,0,0,1,.08-.24l2.18-3.82a2.42,2.42,0,0,0-2.66.52c-.92,1.21-1.76,2.48-2.62,3.72a.9.9,0,0,0-.13.28A1.87,1.87,0,0,0,48,85.7a4.13,4.13,0,0,0,2.69-1.61,5.48,5.48,0,0,1,.4-.44l-1.24,2.56c.76,0,1.4,0,2,0a.71.71,0,0,0,.49-.27q1.52-2.16,3-4.34c.43-.63.82-1.28,1.23-1.92l-2-.24a.63.63,0,0,0-.67.3c-.35.53-.75,1-1.12,1.54ZM127.17,80c.1,0,.21.15.3.13l3.77-.53c.23,0,.32-.16.4-.38a22.78,22.78,0,0,1,.92-2.15c.39-.79.87-1.54,1.3-2.31.25-.46.48-.93.74-1.42-.67,0-1.28,0-1.88,0a.54.54,0,0,0-.54.33,30.19,30.19,0,0,1-1.71,2.62c-.62.82-1.35,1.56-2,2.33L127.16,80c.35-.57.68-1.17,1.07-1.72.9-1.26,1.84-2.5,2.74-3.76.25-.34.45-.71.71-1.14h-.56c-.89,0-1.78,0-2.66,0a.63.63,0,0,0-.66.39,13.73,13.73,0,0,1-1,1.76c-.59.83-1.29,1.57-1.89,2.39s-.93,1.42-1.45,2.23a7.86,7.86,0,0,0,1.26.29,5.9,5.9,0,0,0,1.32-.17C126.43,80.2,126.8,80.06,127.17,80Zm10.72-36.08c-.15-.06-.31-.1-.45-.17l-9.94-5.32-.91-.5a5.23,5.23,0,0,1,.84,1.06c.21.46-.1.8-.54,1l.18.13c3.28,2,6.57,4,9.86,6a.84.84,0,0,0,.45.07c.57,0,1.14-.09,1.71-.1s1.19.05,1.91.09a2.43,2.43,0,0,0-.33-.47c-.71-.5-1.44-1-2.15-1.46.48.23.22-.43.62-.39l-13.2-7.07-.1.16a7.54,7.54,0,0,0,.93.78c3.17,1.77,6.35,3.52,9.52,5.28C136.83,43.26,137.35,43.57,137.89,43.88ZM122.14,78.16l-1.42,2.28c.75-.11,1.45-.24,2.15-.31a.71.71,0,0,0,.59-.37c.62-1,1.26-2,1.89-3l.74-1.12c-.72,0-1.31,0-1.89,0a.74.74,0,0,0-.47.28c-.5.67-1,1.36-1.47,2l1-2.32c-.77,0-1.49,0-2.21,0a.58.58,0,0,0-.39.22c-.4.43-.78.89-1.16,1.34a9.53,9.53,0,0,0-1.9,2.75,4.45,4.45,0,0,1-.59.87l-.13-.09a37.54,37.54,0,0,1,3.42-5.1c-1,0-2,0-2.93,0-.31,0-.43.11-.57.37-.47.92-.92,1.85-1.48,2.72a6.35,6.35,0,0,0-.91,2.56.53.53,0,0,0,.12,0c1.78-.24,3.57-.46,5.35-.72a1,1,0,0,0,.53-.34C121,79.58,121.57,78.87,122.14,78.16ZM87.86,37.67a4,4,0,0,0,.21-.41c.34-1.1.64-2.22,1-3.3.2-.54.44-1.12,1.12-1.3.21-.06.56-.28.55-.39,0-.44.26-.37.48-.41a46.19,46.19,0,0,1,7.7-.67,20,20,0,0,1,2.57,0c2,.16,3.94.34,5.89.59a6,6,0,0,1,3.08.9,2.69,2.69,0,0,0,.25-.7c0-1.14.05-2.28,0-3.41-.06-2.29-.17-4.58-.25-6.86a1.52,1.52,0,0,0-.53-1.31c-.75-.6-1.38-1.34-2.13-1.94a2.19,2.19,0,0,0-1.21-.45c-2.33-.16-4.65-.28-7-.37-2.15-.09-4.29-.5-6.44,0-.52.12-1,.17-1.57.25v.15l1.51.17.08.1c-.1.1-.2.29-.29.28a17,17,0,0,1-2.15-.2A18.76,18.76,0,0,0,86,17.88c-1,.06-2.06.14-3.09.23a3.9,3.9,0,0,1-2.18-.35.72.72,0,0,0-.59,0,11.25,11.25,0,0,0-1.56,1A6.18,6.18,0,0,0,77,20.48a1.92,1.92,0,0,0-.17,1.64c.49-.44.92-.87,1.38-1.25s1-.71,1.45-1.06l.09.12c-.14.12-.29.24-.42.37-.66.62-1.29,1.27-2,1.86s-.46,1.14-.31,1.79l1.64-1.52.1.1c-.44.53-.85,1.09-1.33,1.58s-.35.89-.18,1.54l1.15-1.29c-.27.51-.63.94-.92,1.41a2.18,2.18,0,0,0-.06,1.65,9,9,0,0,1,2.22-1.89.85.85,0,0,1-.23.39l-1.71,1.74a.72.72,0,0,0-.22.41c0,.39.06.78.1,1.23l1.82-1.92.1.1c-.54.62-1.1,1.23-1.62,1.87a1.08,1.08,0,0,0-.22.67c0,.82.13,1.65.19,2.47.29,3.62.59,7.24.87,10.86,0,.31.12.4.42.4.93,0,1.86,0,2.79,0,.11,0,.21.12.31.18-.1.06-.21.17-.32.18-.45,0-.89,0-1.46,0l.25.17a8.58,8.58,0,0,0,5.06.83.48.48,0,0,0,.27-.3c.25-1.49.46-3,.73-4.46s.56-2.84.87-4.25c0-.14.19-.25.3-.37a1.52,1.52,0,0,1,.12.5c-.06.48-.17,1-.26,1.43l-.37,2.25.36.06ZM75.21,43.73c-.62.08-.82-.07-.8-.67s.17-1.06.17-1.58a83.1,83.1,0,0,0-.41-12.12c-.38-2.66-.72-5.32-1.09-8-.12-.84-.15-.81-1-.95a7.54,7.54,0,0,1-4-1.48,1.58,1.58,0,0,0-1.73-.42.72.72,0,0,1-.25,0,1.64,1.64,0,0,0-.44-.09c-.48,0-1,.07-1.45.06-2.71,0-5.41-.14-8.11-.12-3.13,0-6.26.11-9.39.23a33.76,33.76,0,0,0-6.48.86c-.6.14-1.19.33-1.8.42-.37.06-.55.17-.59.54s-.11.73-.15,1.09a.59.59,0,0,0,0,.23.63.63,0,0,0,.24,0c.12-.06.22-.15.43-.28-.16.51-.31.9-.4,1.29a18.15,18.15,0,0,0-.17,5.6c.17,2.3.39,4.59.49,6.88.14,3.17.18,6.35.28,9.52,0,.78.09,1.55.13,2.35l.49,0V38.86c0-2.72,0-5.44.21-8.16h.18q.15,8.21.31,16.39a.68.68,0,0,0,.17,0c2,.08,4.07.19,6.11.22,2.78,0,5.55.08,8.33,0,2.29,0,4.57-.17,6.85-.31,1.33-.08,2.64-.31,4-.38,2.44-.13,4.89-.19,7.34-.3a7.59,7.59,0,0,0,1.13-.24l0-.15-.54,0v-.13h2.11ZM44.27,56.18a.56.56,0,0,0,.6.55.45.45,0,0,1,.3.35.56.56,0,0,1-.3.41c-.63.21-.62.19-.54.85.2,1.55.4,3.1.56,4.66.09,1,.29,1.16,1.26,1,.33,0,.66-.15,1-.19a4.2,4.2,0,0,1,.72.06l-.59.53c1,0,1.82,0,2.65,0,2.67-.15,5.34-.29,8-.49,2.46-.19,4.91-.45,7.36-.68s5-.52,7.49-.7c1.06-.08,2.17-.41,3.22.22.11-.38.27-.62.68-.34,0,0,.11,0,.17,0,1.75-.24,3.49-.55,5.25-.7,3-.25,6-.37,9-.59,2.52-.19,5-.44,7.54-.66a2,2,0,0,1,.42,0,13.09,13.09,0,0,0,1.39.14c.25,0,.48-.2.74-.24.52-.09,1-.13,1.58-.18l.07-.17-2-2.13.23-.22a7.51,7.51,0,0,0,.58.78,15.58,15.58,0,0,0,1.28,1.29,1.77,1.77,0,0,0,1.75.28c-2.85-3-5.54-6.06-9.17-8.23.61,0,.12-.39.31-.56.19.29.32.7.89.46-.44-.53-.61-1.32-1.64-1.07l.33-.37a3.09,3.09,0,0,0-2.45-.68c1.22,1.93,3.11,3.18,4.45,4.92-1.09-.89-1.88-2.19-3.51-2.53l.4-.1c-.83-1-1.17-2.33-2.59-2.65-.51.87-1.28,1.11-1.86.56a.8.8,0,0,0-.74-.21c-.43,0-.87,0-1.31,0V49.5l.87-.31a3,3,0,0,0-.72-.21c-.92,0-1.83,0-2.75.06-1.86.07-3.71.15-5.57.27a11.36,11.36,0,0,0-3.79.53A2.52,2.52,0,0,1,75,50c-1.69.16-3.38.29-5.07.45a12.31,12.31,0,0,0-1.3.24c.1.5.44.32.68.34s.53,0,.8,0v.15c-4.23.22-8.43.9-12.68.74,1.77-.15,3.55-.22,5.33-.33A18.92,18.92,0,0,0,68,50.76c-9.64,0-19.23.85-28.87,1.46a3.94,3.94,0,0,1,0-.6.68.68,0,0,0-.44-.76c-.61-.33-1.2-.7-1.79-1.07a.93.93,0,0,1-.25-.42c-.18-.47-.31-1-.53-1.4a1.72,1.72,0,0,0-.59-.5.29.29,0,0,0-.27.1,1.5,1.5,0,0,0,.24,1.36l4.18,3.91a.79.79,0,0,0,.54.17c.71,0,1.42-.06,2.13-.11l8.4-.48c1.62-.09,3.24-.16,4.86-.23a5.16,5.16,0,0,1,.67.05v.14l-16,1s.05.09.08.11L43.81,56A2,2,0,0,0,44.27,56.18Zm65.22-17.34c-.55,1.32-1,2.55-1.57,3.76a9.55,9.55,0,0,0-.94,5.51,3.86,3.86,0,0,0,.38,1.25c.09.15.47.15.72.21s.47.23,0,.57l5,2.17c-1.75-1.52-4.07-2.22-5.57-4.08a.58.58,0,0,1,.33.05c1.78,1,3.6,2,5.33,3.08a16.4,16.4,0,0,0,4.34,2l1.5.46V54l-.7.16,1.52.46a.91.91,0,0,0,1.27-.58l-.46-.17,0-.11a1.68,1.68,0,0,0,1.58-.79c.09-.13.31-.16.45-.27a4,4,0,0,0,.78-.7A22.53,22.53,0,0,0,125.88,47a10.12,10.12,0,0,0,.78-4.88,1.05,1.05,0,0,0-.2-.56,1.57,1.57,0,0,1-.45-1.48c.08-.3-.08-.44-.36-.56-1.05-.47-2.1-.93-3.12-1.45s-2.24-1.33-3.41-1.87a18.19,18.19,0,0,1-3.06-1.77,8.12,8.12,0,0,0-1-.58.61.61,0,0,0-.33,0c-.31,0-.64.18-.9.1a5.74,5.74,0,0,0-2-.09.8.8,0,0,0-.43.19c-1.65,1.44-3.24,2.93-3.72,5.25l.31-.47.15.08a3.74,3.74,0,0,1-.12.45c-.43,1-.89,2-1.3,3.1a13.42,13.42,0,0,0-.41,1.54c.69-1.43,1.33-2.87,2-4.31.15-.35.27-.73.8-.64C109.13,39.07,109.26,39,109.49,38.84ZM91.11,47.11c.41,0,.78.12,1.16.13.21,0,.43-.09.65-.09l4.38.05h.77c.56,0,1.13,0,1.68,0,.2,0,.38.2.57.2.47,0,.94-.06,1.41-.08,1.63-.06,2-.58,2.25-1.85a29.53,29.53,0,0,1,3.35-8.75c.36-.62.73-1.22,1.11-1.82a.63.63,0,0,0-.21-1s-.08-.06-.08-.09c0-.4-.35-.33-.6-.35a3.49,3.49,0,0,1-.65-.06,6.68,6.68,0,0,0-.83-.27c-.75-.08-1.52,0-2.25-.17a35.66,35.66,0,0,0-9.17-.49c-1,0-1.94,0-2.91,0a.59.59,0,0,0-.38.2c-.19.21-.3.48-.5.66-.51.44-1.07.84-1.58,1.28a.65.65,0,0,0-.22.44c0,2,0,4,0,6a12.86,12.86,0,0,0,.19,1.65.71.71,0,0,0,.06-.19c.09-1.62.16-3.25.28-4.86A10.63,10.63,0,0,1,90,35.76a.52.52,0,0,1,.39-.27c.11,0,.25.17.33.3a1,1,0,0,1,0,.39c0,2.3.1,4.6.17,6.9C91,44.41,91,45.74,91.11,47.11ZM43.39,57.71a26,26,0,0,0-7.06.83l.54,3.07.12,0a10.72,10.72,0,0,1,.61-2.76h.17V61h.12l.27-1.09.11,0-.06,1.35c-.07,1.4-.19,2.8-.19,4.2,0,1.13.2,2.26.26,3.4.18,3.15.37,6.31.49,9.46.08,2,0,4,0,6s0,3.84,0,5.76c0,1.19,0,2.37,0,3.55,0,.12.13.33.21.33.54,0,1.09,0,1.67,0V92.73l.22.33c.69,1.15.76,1.17,2.09.88l.22-.06c.32,0,.39-.19.39-.5,0-2.53.1-5.07.16-7.61.07-2.7.17-5.4.23-8.11,0-1.33,0-2.66,0-4s-.09-2.69,0-4-.41-2.58-.48-3.88c0-.61-.14-1.21-.16-1.81-.05-1.92-.07-3.84-.1-5.76ZM142.3,72.57c.07-1.19.18-2.39.19-3.58q.06-10.8.08-21.59c0-.61,0-.63-.64-.5-1.05.24-2.09.51-3.14.77-.06,0-.12.06-.19.08a1,1,0,0,1-.43.13c-.32,0-.48.07-.49.38,0,.71-.09,1.42-.06,2.12.08,2.25.19,4.49.29,6.73a1,1,0,0,1,0,.22l-.4-.06c0,1.77,0,3.52,0,5.26-.06,2.16-.18,4.33-.26,6.5-.08,1.9-.12,3.8-.2,5.71a12.18,12.18,0,0,1-.24,2.5,12.58,12.58,0,0,0-.56,5.71c.08.44.11.51.55.42l3-.6v.65l.33-.06-.13-.62.1-.08.92.56c0-.22.08-.4.1-.59.21-2,.48-4.08.59-6.12.1-1.83.06-3.66,0-5.49-.09-2.13-.3-4.24-.45-6.36,0-.12,0-.24,0-.36h.15C141.89,67,142.05,69.79,142.3,72.57ZM106.89,50.63a1.1,1.1,0,0,0-.92-.4c-2.21,0-4.42,0-6.63,0,2-.61,4.07-.4,6.12-.66a3.42,3.42,0,0,0-1.84-.45c-1.58.26-3.15.49-4.72.75-.71.12-1.41.27-2.17.41,1.09,1.4,2.54,2.35,3.38,3.85a6,6,0,0,1-1.32-1c-.72-.79-1.4-1.64-2.08-2.47a.45.45,0,0,0-.73-.08c1.14,1.14,2.5,2.07,3.17,3.63l.28-.16.19.59c.31-.31.45,0,.59.15a39.15,39.15,0,0,0,4.9,5,.45.45,0,0,0,.34.13,2.43,2.43,0,0,0,1.33-.93c-1.88-1.61-4.15-2.67-5.89-4.44a1.09,1.09,0,0,1,.4.16c.67.48,1.33,1,2,1.46a5.56,5.56,0,0,0,2.72,1.4,2.28,2.28,0,0,1,1.71,1.08,6.92,6.92,0,0,0,.57.74.88.88,0,0,0,.54.25c1.28,0,2.57,0,3.85,0l9.22,0a2,2,0,0,0,.73-.12,35.8,35.8,0,0,1,5.76-1.57L133,57a1.41,1.41,0,0,0-.22-.11l-10-2.49a.86.86,0,0,0-.58.17,16.51,16.51,0,0,1-1.52,1.12c-.67.37-1.11,0-1-.7l-2-.32a.41.41,0,0,0-.21,0c-.11.33-.38.21-.59.2l-3-.16c-.46,0-.92,0-1.37,0-.09,0-.17-.13-.25-.19a.87.87,0,0,1,.24-.15,2,2,0,0,1,.35,0h2.78a6.42,6.42,0,0,0-1.16-.41,1.54,1.54,0,0,0-.42-.07c-.34,0-.69.06-1,0-.64,0-1.28-.12-1.93-.18-.43,0-.86,0-1.28-.08a6,6,0,0,1-.73-.17l0-.23c1-.1,2,0,3-.05a.79.79,0,0,0-.14-.11L107.52,51a.43.43,0,0,0-.25-.05c-1.8.16-3.61.33-5.42.47a8.41,8.41,0,0,1-1.32-.07v-.2C102.62,50.86,104.72,50.79,106.89,50.63Zm-69.41,6.9-.54-.16c-.27-.07-.48-.21-.44-.51s.29-.4.56-.39c.91,0,1.83,0,2.74.08a6.14,6.14,0,0,1,1.12.21c.24.05.46.13.69.2l.06-.15-.9-.82,0-.09H42l-.27-.23a59.51,59.51,0,0,1-6.15-5.41,91.46,91.46,0,0,0-7.21-6.7c-1.23-1-2.37-2-3.54-3.08-.07-.06-.08-.2-.15-.25-.24-.17-.53-.48-.73-.43a16.06,16.06,0,0,1-3.79.26c-1,0-1,0-1.42.93a.5.5,0,0,0,.16.71c1.27,1,2.52,2.09,3.78,3.14.09.08.2.15.29.22l-.1.11-4.34-3.55a1.15,1.15,0,0,0,.24,1.4c.15.12.3.24.44.37,2,1.91,4.12,3.81,6.15,5.75,2.65,2.52,5.29,5.07,7.91,7.62.63.6,1.21,1.25,1.76,1.83a1.34,1.34,0,0,0,.9-1.19l.27.63Zm73.83,13.34.2,0,4.78-.19a.75.75,0,0,0,.83-.56,1.73,1.73,0,0,1,.25-.41c.66-1,1.36-2,2-3a24.68,24.68,0,0,1,2.53-3.94c.23-.25.44-.53.71-.85a17,17,0,0,0-2.5.29,2,2,0,0,0-1.27.84c-.92,1.52-1.93,3-2.9,4.5-.26.41-.5.83-.74,1.25s-.41.75-.61,1.12a27.12,27.12,0,0,1,4.12-7.3c-1.24.16-2.38.3-3.52.46a.49.49,0,0,0-.29.26c-.65,1.47-1.28,2.94-1.94,4.41a6.66,6.66,0,0,1-.48.74l-.11-.06,2.22-5.28c-1,.14-1.93.27-2.85.42-.12,0-.24.19-.32.32a19.38,19.38,0,0,1-1.53,2.32c-1.2,1.32-1.57,3-2.08,4.66h1c.56,0,1.11,0,1.67,0a.6.6,0,0,0,.41-.26c.3-.42.57-.87.89-1.37C112,70,111.49,70.35,111.31,70.87Zm12.76-1.16a1.35,1.35,0,0,0,.31,0c1.92-.28,3.85-.57,5.78-.83,1.44-.19,2.89-.35,4.34-.48a6.78,6.78,0,0,1,1.24.08c.11-2.24.21-4.43.32-6.66-.48,0-.89.07-1.29.13a.4.4,0,0,0-.24.16c-.82,1.42-1.62,2.84-2.46,4.25-.46.79-1,1.54-1.48,2.31l-.2-.11a3.47,3.47,0,0,1,.41-.7,5.39,5.39,0,0,0,1.32-2.51,5.78,5.78,0,0,1,.56-1.48c.32-.62.71-1.21,1.07-1.84a10.92,10.92,0,0,1-1.28,0,1,1,0,0,0-1.14.69,2.73,2.73,0,0,1-.35.62c-.93,1.52-1.85,3.05-2.79,4.57-.25.4-.55.76-.82,1.15L127.2,69l4-6.87c-.9,0-1.65.1-2.4.11a.7.7,0,0,0-.69.42c-.63,1.21-1.27,2.4-1.93,3.59-.23.41-.5.79-.75,1.2C125,68.15,124.57,68.9,124.07,69.71ZM33.75,47.2c-.46-8-1.24-15.85-.7-23.78a4.27,4.27,0,0,0-3.14.73,10.52,10.52,0,0,1,1,.6.6.6,0,0,1,.22.46,28.41,28.41,0,0,0,0,7.37c.13,1.63.33,3.26.38,4.89.07,2.41,0,4.82,0,7.22a.89.89,0,0,0,.18.56C32.33,45.88,33,46.49,33.75,47.2Zm87.39,22.94c.16.09.27.22.38.21a3.89,3.89,0,0,0,.82-.13,11.21,11.21,0,0,0,1.08-.34c.13,0,.31-.1.36-.2a22.19,22.19,0,0,1,1.82-3.13,22.72,22.72,0,0,0,1.38-3c.18-.4.37-.79.57-1.22-.72,0-1.39,0-2,.11a.56.56,0,0,0-.35.31c-.26.54-.48,1.11-.74,1.66a4.13,4.13,0,0,1-.33.52l-.12,0,.86-2.41h-1.51V62.3l1.74-.4,0-.12c-.71,0-1.42.09-2.13.15-.1,0-.2.17-.26.27-.28.46-.52.93-.81,1.38-.81,1.22-1.28,2.67-2.51,3.61a1.1,1.1,0,0,0-.17.25l-1.29,2.11c-.21.34-.43.67-.72,1.12,1.12-.11,2.09-.2,3.05-.32.12,0,.25-.18.34-.3.85-1.2,1.68-2.42,2.53-3.63a4,4,0,0,1,.28-.3l.14.11-2.78,4.08ZM22.75,68.06l.1-.15v.61c.06,1.27.12,2.54.17,3.8,0,1.07,0,2.13.09,3.19A3.34,3.34,0,0,0,23.48,77a14.53,14.53,0,0,0,1.66,2c.8.85,1.64,1.66,2.46,2.48.09.09.18.18.32.3v-.24c-.18-2.65-.39-5.29-.53-8a2.38,2.38,0,0,0-.9-2,3.94,3.94,0,0,1-.5-.5l-.67-.78-.14.1c0,2.76.84,5.45.6,8.33-.07-.46-.15-.82-.18-1.18-.21-2.09-.85-4.15-.5-6.29a3.26,3.26,0,0,0,0-.88.66.66,0,0,0-.16-.4C24.2,69.31,23.47,68.69,22.75,68.06ZM40,49.17c2.71,0,5.35,0,8,0s5.25-.13,7.87-.28,5.23-.38,7.84-.58c-2.58.68-5.27.51-7.88,1a.9.9,0,0,0,.45.08l4-.28c1.53-.1,3.06-.17,4.59-.3a3.46,3.46,0,0,0,1.83-.64,1.61,1.61,0,0,0-.62,0c-.26.06-.47,0-.53-.34l.8-.09c.27,0,.56,0,.57-.37-4.5.12-9,.29-13.45.34s-9-.05-13.47-.08ZM47.53,75l.76.12c.88.19.88.19,1.38-.58a1.88,1.88,0,0,1,.12-.18c1.19-1.64,2.38-3.27,3.55-4.92.61-.84,1.16-1.73,1.77-2.65-.48,0-.84.08-1.2.07a.68.68,0,0,0-.62.32c-.62.88-1.25,1.76-1.89,2.63-.35.47-.73.92-1.1,1.37l-.09-.07,2.72-3.94c-1.25-.12-2.38.46-3.49,0-.63.9-.63.9-.89,1L49,67.11l-1.51.12Zm53.59-3.86c.31,0,.56.06.81,0a6.79,6.79,0,0,0,1-.12.94.94,0,0,0,.58-.28c.46-.69.88-1.42,1.32-2.13l2.44-3.9c.15-.24.29-.5.49-.85-.59,0-1.08,0-1.56,0a.83.83,0,0,0-.82.37,3,3,0,0,1-.52.37l.06-.47-.55.07a3.78,3.78,0,0,0-1.38.2c-.38.23-.58.75-.87,1.15-1.07,1.47-2.16,3-3.22,4.43-.29.41-.52.87-.82,1.36.57,0,1,0,1.51,0a.88.88,0,0,0,.93-.52,7.56,7.56,0,0,1,.58-.93l.07,0ZM60.51,74.62l.06.16c1-.07,2-.13,3.07-.23.11,0,.24-.16.31-.28q2.33-3.81,4.64-7.64a3.17,3.17,0,0,0,.16-.36c-.86.06-1.65.12-2.45.15a.64.64,0,0,0-.57.31c-1,1.47-2,2.92-3,4.39C62,72.27,61.26,73.45,60.51,74.62Zm7.18-.2c.45,0,.81,0,1.18,0a3.37,3.37,0,0,0,2.91-1.57c.61-1,1.25-2,1.83-3,.69-1.21,1.32-2.46,2-3.82h-.87c-.47,0-.94.06-1.41,0a.67.67,0,0,0-.59.29A52.24,52.24,0,0,0,67.69,74.42Zm-2.26-8c-.93,0-1.83,0-2.73,0a.53.53,0,0,0-.37.24Q60.14,70,58,73.4c-.29.45-.53.94-.82,1.47.21,0,.34,0,.46,0,.69-.05,1.39-.09,2.07-.17a.84.84,0,0,0,.48-.3ZM79.33,66l-.08-.13c-.88,0-1.77.09-2.65.17a.56.56,0,0,0-.37.25C74.82,68.54,73.43,70.78,72,73c-.2.33-.36.68-.55,1a3.82,3.82,0,0,0,4-1.84q1.32-2,2.59-4.07C78.54,67.46,78.92,66.73,79.33,66ZM22.84,54.89H23c0,.31,0,.63,0,.94.05,1.26.05,2.51.16,3.76.14,1.65.39,3.28.55,4.92a1.88,1.88,0,0,0,.85,1.28,1.2,1.2,0,0,0,0-.17q-.08-5.79-.16-11.56a1,1,0,0,0-.11-.42l-1.06-2L23,50.86a5.49,5.49,0,0,0-.66,1.66,106.78,106.78,0,0,0,.34,10.88c0,.47.32.69.67,1-.16-1.65-.38-3.22-.45-4.79S22.84,56.47,22.84,54.89ZM89.48,65.63a5.6,5.6,0,0,0-.67-.08c-.69,0-1.38,0-2.07.09a.79.79,0,0,0-.51.26q-1.71,2.41-3.39,4.86c-.49.71-.94,1.45-1.48,2.3,1-.14,2-.24,2.88-.38a.84.84,0,0,0,.49-.28c.84-1.13,1.67-2.25,2.48-3.4S88.69,66.81,89.48,65.63Zm-60,4.88c0-.29,0-.43,0-.57-.13-2.36-.25-4.72-.41-7.07-.11-1.65-.28-3.29-.38-4.94a2.66,2.66,0,0,0-1.23-2.14v.5c0,2.6,0,5.19-.08,7.79,0,1.34-.06,2.68-.07,4a.78.78,0,0,0,.15.48C28.07,69.21,28.72,69.81,29.46,70.51Zm-2.59-2.33.2-.1c0-.65,0-1.29,0-1.94l-.15-10.8a.54.54,0,0,0-.07-.29c-.34-.38-.7-.74-1.05-1.11h-.15a7.61,7.61,0,0,0-.33,1.53c-.08,3.54-.12,7.08-.17,10.62a.65.65,0,0,0,.12.37Zm5.48,5.19.18-.06c-.09-.79-.19-1.59-.27-2.39a3.54,3.54,0,0,1,.1-2.25.78.78,0,0,0,0-.43c-.17-1.26-.34-2.52-.53-3.77-.07-.43-.21-.85-.32-1.28l-.11,0c-.23,2.05.17,4.08.16,6.13-.63-3.29-.88-6.66-2.06-9.94a1.81,1.81,0,0,0-.12.36c0,.69,0,1.39,0,2.08.06,1.45.16,2.89.2,4.34s0,2.71.05,4.07a.84.84,0,0,0,.13.54c.64.67,1.32,1.3,2,2a1.27,1.27,0,0,1,.06-.18Zm39.63-7-.11-.15a10.29,10.29,0,0,1-1.36,0,1.22,1.22,0,0,0-1.3.66l-4,6.26c-.27.43-.51.88-.75,1.29.85,0,1.66,0,2.47,0a.61.61,0,0,0,.4-.27c1.06-1.72,2.1-3.45,3.14-5.19.23-.38.45-.76.67-1.15l-.09-.08-.44.33L70.53,68Zm-10.05,0-2.06.13a.65.65,0,0,0-.35.23,48.39,48.39,0,0,0-5.19,7.94c0,.1-.08.21-.14.35.73,0,1.41,0,2.08,0a.59.59,0,0,0,.39-.27q1.5-2.31,3-4.63C60.37,68.94,61.11,67.72,61.93,66.4Zm23.21,6.21c.87-.06,1.59-.13,2.31-.14a1.29,1.29,0,0,0,1.33-.83,5.43,5.43,0,0,1,.57-.9l3.51-5.15a1.82,1.82,0,0,0,.15-.33c-.9.06-1.72.1-2.54.18a.79.79,0,0,0-.45.3c-.86,1.12-1.72,2.24-2.54,3.4S86,71.4,85.14,72.61ZM53.19,85.93a7.86,7.86,0,0,0,.91.07,17.56,17.56,0,0,0,1.77-.13.84.84,0,0,0,.5-.33c.36-.5.67-1,1-1.56.85-1.27,1.71-2.54,2.56-3.82a6.16,6.16,0,0,0,.34-.72c-.88,0-1.69,0-2.49,0a1,1,0,0,0-.63.34c-.66.82-1.29,1.66-1.91,2.5A12.61,12.61,0,0,0,53.19,85.93ZM103.87,71l.1.11c.41-.09.85.18,1.24-.17.05,0,.24,0,.33,0a1.31,1.31,0,0,0,1.52-.4l2.18-3.91c.55-1,1.13-2,1.7-2.94l-2.61.24c-.08,0-.17.1-.22.17l-2.48,3.67a7.78,7.78,0,0,0-.47.7c-.32.58-.62,1.17-.93,1.75ZM78.09,73.3A7,7,0,0,0,80.77,73a.71.71,0,0,0,.32-.28q1.8-2.7,3.59-5.42c.32-.48.61-1,1-1.55-.61,0-1.13,0-1.64,0a1.17,1.17,0,0,0-1.18.56c-1.12,1.61-2.28,3.19-3.39,4.8C79,71.8,78.55,72.54,78.09,73.3Zm10.73-1.21.1.21,2.9-.39c.09,0,.18-.14.24-.23.94-1.4,1.88-2.79,2.8-4.19.52-.8,1-1.62,1.5-2.42L96.27,65a9.9,9.9,0,0,0-2.39.27c-.45.16-.72.81-1.08,1.24l-.11.14ZM32.47,86.78c0-.13,0-.29,0-.45-.14-2.72-.32-5.45-.4-8.18a2.39,2.39,0,0,0-1-2.07,9.6,9.6,0,0,1-.87-.82L29.94,75a1.85,1.85,0,0,0,0,.24c.14,2.84.32,5.69.43,8.53.05,1.45,1.18,2.11,2,3Zm71.41-4.34c1-.08,2,.3,2.7-.64.09-.11.33-.1.51-.13s.38,0,.43-.07a10.16,10.16,0,0,0,.93-1.59c.51-1.23,1-2.48,1.42-3.72,0-.13.11-.25.14-.33-.88,0-1.74,0-2.59,0-.12,0-.27.16-.33.28q-1.47,2.8-2.92,5.62ZM82.51,65.94c-.77,0-1.43,0-2.08,0a.64.64,0,0,0-.46.23q-2.46,3.67-4.89,7.36a.7.7,0,0,0-.07.23c.86-.1,1.68-.2,2.49-.32.1,0,.19-.16.26-.27.79-1.27,1.56-2.56,2.39-3.82S81.68,67.14,82.51,65.94Zm21.14,11.4-4,5.13.08.11c.14,0,.29,0,.43,0,.94,0,1.88-.13,2.83-.16a.69.69,0,0,0,.67-.45c.51-1,1-2,1.57-3.06l1.28-2.51-.07-.14c-.87.14-1.73.27-2.59.43a1.5,1.5,0,0,0-.47.24Zm-16.08.86A4.43,4.43,0,0,0,83,79.93c-.87,1.25-1.63,2.58-2.45,3.9.91,0,1.81,0,2.71,0,.13,0,.28-.14.37-.25.64-.82,1.29-1.65,1.91-2.49S86.85,79.21,87.57,78.2Zm-59.7-5.34-.12.08s0,.09,0,.13q.3,4.31.61,8.61a1.5,1.5,0,0,0,.13.72c.45.59,1,1.13,1.51,1.73,0-.54,0-1,0-1.44-.08-2.51-.15-5-.23-7.52a.86.86,0,0,0-.15-.49C29,74.06,28.45,73.46,27.87,72.86ZM21.37,75h-.08c0-.15-.07-.3-.11-.45a12.82,12.82,0,0,1-.21-4.1,17,17,0,0,0,0-1.89c0-.94-.13-1.88-.19-2.82,0-.09,0-.2-.05-.26l-1.61-1.89-.14.06c.13,1,.34,1.95.38,2.92.13,2.61.18,5.22.27,7.82a.53.53,0,0,0,.11.31c.71.7,1.43,1.39,2.15,2.08L22,76.7c-.12-.26-.23-.52-.34-.79a1.45,1.45,0,0,1-.13-.45c0-.31,0-.62.05-.93h-.1Zm46.06,4.26c-.79,0-1.47,0-2.14,0-.1,0-.22.13-.29.23q-1.36,1.67-2.7,3.34c-.67.86-1.32,1.73-2,2.65a2.26,2.26,0,0,0,.43.06c.82,0,1.64-.1,2.46-.17.1,0,.21-.16.28-.26.56-.78,1.13-1.55,1.66-2.35C65.88,81.66,66.62,80.51,67.43,79.28Zm25-7.38a12.29,12.29,0,0,1,1.73-.13,1,1,0,0,0,1-.57c1.37-2.06,2.79-4.1,4.2-6.14,0-.07.07-.14.13-.26h-.87a6,6,0,0,1-.84.06.8.8,0,0,0-.81.39c-1,1.32-1.93,2.61-2.86,3.94C93.49,70,93,70.93,92.39,71.9ZM77,84l.13.08A5.28,5.28,0,0,1,78.26,84a2.16,2.16,0,0,0,2.29-1.11l0,0c1-1.3,2-2.6,3-3.91a.43.43,0,0,0,0-.41.49.49,0,0,0-.4-.1,4.32,4.32,0,0,1-2.14.15.51.51,0,0,0-.37.2c-.53.67-1.06,1.34-1.56,2C78.43,81.85,77.69,82.91,77,84Zm3.12-5.18H77.71a.5.5,0,0,0-.34.14c-.84,1.1-1.7,2.19-2.51,3.31-.44.62-.8,1.31-1.24,2a2.92,2.92,0,0,0,.48,0c.76-.06,1.52-.13,2.28-.22.09,0,.19-.12.25-.2.57-.79,1.11-1.6,1.69-2.37A11.63,11.63,0,0,0,80.07,78.79ZM32.38,77.23l-.14.07c0,.42.08.85.11,1.27L33,87.39c0,.13,0,.3.09.37.51.5,1,1,1.63,1.54a5.21,5.21,0,0,0,0-.59c-.3-3.2-.61-6.4-.9-9.61a1,1,0,0,0-.63-.87,1,1,0,0,1-.34-.24C32.69,77.75,32.55,77.49,32.38,77.23Zm69.7-12.61-.11-.1a7.08,7.08,0,0,0-.8.16A5.46,5.46,0,0,0,98,67.34c-.72,1.16-1.39,2.36-2.09,3.53-.14.24-.29.46-.5.78.62-.06,1.13-.13,1.64-.15a1,1,0,0,0,.92-.61c.79-1.23,1.61-2.44,2.44-3.63.41-.6.89-1.14,1.3-1.73A4.34,4.34,0,0,0,102.08,64.62ZM76.63,78.82a3.67,3.67,0,0,0-3.51,1.57c-.62.84-1.11,1.77-1.67,2.65-.32.52-.66,1-1,1.56a3.24,3.24,0,0,0,3.16-1c.94-1.18,1.79-2.44,2.64-3.69A4.53,4.53,0,0,0,76.63,78.82Zm34,2.54c1,0,1.9,0,2.83,0a.3.3,0,0,0,.24-.15c.34-.68.7-1.36,1-2.07s.64-1.71,1-2.56c.1-.28.25-.55.4-.89-.67,0-1.27,0-1.87,0a.46.46,0,0,0-.3.21q-1.17,1.89-2.32,3.81C111.27,80.27,111,80.83,110.66,81.36Zm20.39-26.61-.06.13-7-2c-.3-.08-.55-.13-.65.35l10.88,2.45,0-.13a37.22,37.22,0,0,0-6.29-3l.73.17,0-.12L125,50.7l-1.15,1.8ZM57.19,66.58c-.55.06-1,.1-1.36.16a.57.57,0,0,0-.26.21c-1.26,1.67-2.54,3.33-3.76,5-.73,1-1.38,2.08-2.14,3.23.54,0,.93,0,1.32,0a.75.75,0,0,0,.49-.27c1.26-1.76,2.52-3.52,3.75-5.3C55.9,68.65,56.51,67.65,57.19,66.58Zm50.72,15.15,2.06-.21c.09,0,.19-.13.24-.23L113,76.14c.06-.11.1-.23.17-.4-.89,0-1.7.06-2.5.12a.52.52,0,0,0-.36.29C109.52,78,108.72,79.84,107.91,81.73ZM57.19,85.79c.66,0,1.26-.05,1.85-.1a.64.64,0,0,0,.44-.19c1.08-1.46,2.16-2.92,3.21-4.4.38-.55.69-1.15,1.09-1.82-.48,0-.84,0-1.21,0a1.06,1.06,0,0,0-.93.47c-.76,1-1.58,2-2.37,3A16.17,16.17,0,0,0,57.19,85.79Zm6.92-.64.08.15,2.27-.24a.43.43,0,0,0,.24-.16c1-1.38,2-2.76,2.93-4.15.34-.49.59-1,.94-1.64-.58,0-1,.06-1.49.12a.8.8,0,0,0-.45.24c-.93,1.08-1.86,2.16-2.75,3.28C65.25,83.52,64.69,84.35,64.11,85.15Zm3.44-.21c.76-.07,1.43-.12,2.1-.2.1,0,.19-.16.27-.27.37-.51.74-1,1.1-1.54.73-1.07,1.46-2.14,2.18-3.22a4.73,4.73,0,0,0,.31-.72,1.06,1.06,0,0,0-.19,0l-2.1.22c-.06,0-.12.08-.16.13-.29.38-.58.74-.85,1.13a8.62,8.62,0,0,0-.44.78l.14.1c.2-.24.41-.47.59-.72s.36-.55.76-.55c-.59.83-1.22,1.62-1.87,2.4A12.61,12.61,0,0,0,67.55,84.94ZM52,75l.07.18L53.52,75s.09-.11.13-.17c1.21-1.84,2.42-3.66,3.6-5.51.56-.88,1.06-1.79,1.59-2.69-.57-.34-.65-.35-1,.09-1.15,1.51-2.32,3-3.43,4.56C53.58,72.46,52.78,73.72,52,75Zm51.19,1.94-.12-.09c-.33,0-.67,0-1,0a1.05,1.05,0,0,0-.91.43c-.76,1-1.56,1.88-2.33,2.84s-1.4,1.8-2.16,2.78c.72-.06,1.32-.1,1.91-.17a.89.89,0,0,0,.53-.26c.55-.66,1.08-1.33,1.58-2C101.5,79.25,102.32,78.07,103.15,76.9ZM36.29,39.83c.31-6.13-.45-12.25.22-18.46-.91.82-.92.82-1,1.88a62.59,62.59,0,0,0,.11,9c.14,1.93.34,3.85.51,5.77C36.18,38.61,36.24,39.22,36.29,39.83ZM20.4,48.22a1.06,1.06,0,0,0,0,.19l.09,7.89a1.17,1.17,0,0,0,.08.38c.47,1.1.95,2.19,1.43,3.29h.11c-.06-.66-.1-1.3-.17-1.95a49.09,49.09,0,0,1-.41-8.31.56.56,0,0,0-.05-.37C21.11,49,20.77,48.62,20.4,48.22ZM95.59,77.56a3,3,0,0,0-1.84.39,8.18,8.18,0,0,0-1.06.8c-.08.06-.11.19-.16.29A7.64,7.64,0,0,1,92,80.31a11.87,11.87,0,0,1-1,1.2,4.56,4.56,0,0,0-1.19,1.92,12,12,0,0,0,1.54-.38,4.92,4.92,0,0,0,2.28-2.14C94.24,79.81,94.9,78.7,95.59,77.56ZM85.82,46.37a1.36,1.36,0,0,0-.28,0c-1.46.07-2.92.12-4.37.22a13.44,13.44,0,0,0-3.41.28c-.08,0-.2-.06-.29-.06a3.27,3.27,0,0,0-1,.11.8.8,0,0,1-.82,0,.73.73,0,0,0-.32-.12c-1,0-2-.08-2.92-.07a2.62,2.62,0,0,0-1.68.55l1.31-.1c.91-.08,1.82-.16,2.73-.22a1.56,1.56,0,0,1,.42.08l-.15.38a.48.48,0,0,0,0,.12.38.38,0,0,0,.13,0c3.32-.08,6.64-.14,10-.24.74,0,.74-.07.73-.83A.79.79,0,0,0,85.82,46.37ZM84.37,83.53l.12.19c.54-.06,1.08-.1,1.61-.18a.88.88,0,0,0,.48-.3c.52-.66,1-1.34,1.5-2L90.34,78a3,3,0,0,0-.77-.15,2.23,2.23,0,0,0-2.21,1.29c-.2.29-.38.6-.57.9l.09,0L88,78.93l.14.13ZM122.72,54l.25.09c3.29.86,6.59,1.69,9.86,2.59a6.21,6.21,0,0,0,2.65-.13.93.93,0,0,0-.29-.13l-11.32-3C123.14,53.28,123.11,53.3,122.72,54ZM45.07,91a1.67,1.67,0,0,0,.13-.21c0-.18,0-.35.08-.53a38,38,0,0,0,.58-7.75c-.08-3.45-.23-6.9-.34-10.35,0-.49,0-1,0-1.47h-.2C45.24,77.44,45.15,84.17,45.07,91Zm42-7.51c.58,0,1,0,1.43,0a.86.86,0,0,0,.54-.28q1.4-1.81,2.75-3.67c.41-.57.74-1.18,1.15-1.84a6.35,6.35,0,0,1-.76,0,.79.79,0,0,0-.83.41c-.68.9-1.39,1.76-2.08,2.64Zm48.43-10.3c-.11,0-.26,0-.28.07-.9,2.08-2.3,3.9-3.15,6.12.9-.23,1.66-.46,2.44-.6.5-.08.58-.34.61-.78C135.18,76.43,135.32,74.84,135.46,73.21ZM31.14,44.8l.13,0c0-.12,0-.23,0-.34-.06-1.78-.11-3.57-.19-5.35s-.2-3.71-.31-5.56c-.08-1.37-.17-2.74-.26-4.11a1.34,1.34,0,0,0-.17-.37l-.17.06v.47c.08,3,.12,6.05.25,9.07.07,1.84.26,3.67.42,5.51A2.3,2.3,0,0,0,31.14,44.8Zm4.7,32.87a1.18,1.18,0,0,0,0-.25c-.08-1.2-.16-2.41-.25-3.62a1.24,1.24,0,0,0-.09-.33c-.16-.4-.35-.78-.48-1.18-.22-.77-.4-1.54-.62-2.31,0-.08-.13-.15-.2-.22a1.51,1.51,0,0,0-.12.26,1.11,1.11,0,0,0,0,.26c0,1.92.1,3.85.16,5.77a.5.5,0,0,0,.18.32ZM75.7,32.72h0c0-1.63,0-3.26-.13-4.89,0-.9-.25-1.78-.36-2.68-.13-1.08-.25-2.16-.37-3.25a2.61,2.61,0,0,1,0-.48l.15,0,.27.69a5.49,5.49,0,0,1,.56-.92c.4-.45.29-.9.16-1.44-.42.29-.8.55-1.17.82s-.5.35-.82,0a1.18,1.18,0,0,0-.08.55c.33,2,.7,4,1,6S75.46,30.83,75.7,32.72ZM35.09,33.84c0,1.8,0,3.48,0,5.16a29.14,29.14,0,0,0,.76,6.71c.14.55.33,1.09.49,1.64l.11,0C36,42.86,35.56,38.39,35.09,33.84Zm19.2-15.93c-.82-.13-1.61-.28-2.41-.4a4,4,0,0,0-1,0c-2.48.22-5,.44-7.44.69-.88.09-1.76.27-2.64.4l0,.13ZM34.4,80.52l-.12,0c0,.4.09.81.13,1.22q.42,3.84.86,7.68a1.72,1.72,0,0,0,.16.43l.13,0V89.4l.82.67A67.93,67.93,0,0,0,34.4,80.52Zm12.74-2.18H47A16.06,16.06,0,0,0,46.8,80c-.07,1.88-.1,3.75-.14,5.62a2.32,2.32,0,0,0,.1.7.56.56,0,0,0,.34.28c.07,0,.25-.16.27-.27a5.45,5.45,0,0,0,.16-1c0-.7-.06-1.41,0-2.12s0-.69-.46-.8a17.18,17.18,0,0,0,.42-2A4.23,4.23,0,0,0,47.14,78.34ZM125.2,39a3.09,3.09,0,0,0-2-1.86c-1.35-.59-2.69-1.2-4-1.85s-2.49-1.27-3.74-1.91c-.13-.07-.27-.12-.4-.18l-.11.2C118.37,35.26,121.8,37.09,125.2,39Zm-75,40.62a1.81,1.81,0,0,0-2,.74,3.79,3.79,0,0,0-.21,3C48.72,82.11,49.89,81.13,50.21,79.6Zm86.3-28.82.29-3.54-1-.35c-.14.91-.29,1.76-.41,2.62A1.22,1.22,0,0,0,136.51,50.78ZM19.8,53.53l.18,0c0-1.66-.08-3.31,0-5,.06-.94-.57-1.27-1.09-1.78ZM91.58,84.08c-.83-.85-4.71-.28-5.24.74ZM20.63,59.23v1.86c0,.19-.06.44,0,.56.47.55,1,1.06,1.56,1.66a3.35,3.35,0,0,0-.45-2.15A21,21,0,0,1,20.63,59.23ZM51.76,86.85c-.95,0-1.88-.06-2.8,0s-1-.18-.92,1.06c.47-.07.94-.16,1.42-.21s.79,0,1.18-.09S51.6,87.45,51.76,86.85Zm72.77-12.37,2.07.36.8-1.35c-.6,0-1.12,0-1.65,0C124.9,73.52,124.79,73.62,124.53,74.48Zm-96.44-40h.17V24.71c-.49-.11-.73.14-.51.67A6.24,6.24,0,0,1,28,28c0,1.72-.06,3.45-.07,5.18C28,33.57,28.05,34,28.09,34.46Zm19,35.07A20.77,20.77,0,0,0,47,76.1,23.36,23.36,0,0,0,47.06,69.53ZM133,49c.49,0,.79-.14.81-.57,0-.82,0-1.64-.09-2.45,0-.07-.18-.19-.28-.18s-.21.13-.23.22a6.4,6.4,0,0,0-.09.88C133.08,47.55,133.05,48.25,133,49ZM46,73.81h.12c.06-.52.17-1,.18-1.55.06-1.65.08-3.3.13-5,0-.34-.16-.35-.43-.39ZM38.67,48.19l-.51-.3a2.42,2.42,0,0,0-.17.64,3.77,3.77,0,0,0,.11.8l1.3.39-.09-2.09C38.9,47.59,38.9,47.59,38.67,48.19Zm48-3c.23-.1.41-.14.42-.2.06-.32.07-.65.1-1a1.38,1.38,0,0,1,0-.29,2.53,2.53,0,0,0,.18-.37c.16-.72.31-1.44.44-2.17a8,8,0,0,0,.07-.89h-.47Zm47.89,1.28c-.06.43-.11.82-.15,1.21a14.2,14.2,0,0,0-.13,1.45.63.63,0,0,0,.5.69c.09-.56.2-1.09.26-1.63a12.26,12.26,0,0,0,.08-1.36C135.13,46.46,135,46.28,134.58,46.43Zm-58-26.27,3-2.35a.83.83,0,0,0-.94.15c-.59.42-1.19.83-1.79,1.23S76.29,19.56,76.55,20.16ZM77.17,36l.15,0c.05-.11.15-.23.14-.33-.08-1.18-.17-2.36-.26-3.54,0-.58-.08-1.16-.13-1.73l-.19,0a3.52,3.52,0,0,0-.1.65c0,.63.1,1.26.16,1.89C77,34,77.09,35,77.17,36Zm54,11.65.25-2.86-.1-.12c-.14.09-.37.16-.4.28-.17.66-.28,1.33-.42,2C130.37,47.44,130.59,47.64,131.14,47.68ZM35.24,80l1,3.43.15,0c-.05-.62-.15-1.24-.14-1.86A1.54,1.54,0,0,0,35.24,80Zm2.65-.65c-.11-2.65-.21-5.29-.32-7.94h-.16A75.33,75.33,0,0,0,37.89,79.35Zm91.64-32.52c.07-.67.15-1.31.2-1.95a1,1,0,0,0-.35-1c-.13.69-.27,1.33-.39,2A.74.74,0,0,0,129.53,46.83ZM85.77,84.19a11.77,11.77,0,0,0-1.46,0c-.24,0-.45.26-.66.43,0,0,.11.32.16.32a8.07,8.07,0,0,0,1.48-.09A.57.57,0,0,0,85.77,84.19ZM22.42,71.7c0-1.42,0-2.74,0-4,0-.47-.34-.67-.65-1Zm57,13.64c1.84,0,2.8-.17,3.08-.67a2.66,2.66,0,0,1-1.78,0C80.08,84.57,79.8,84.72,79.42,85.34Zm38.15-11v.16a3.16,3.16,0,0,0,.32,0c.93,0,1.85,0,2.78,0,.38,0,.55-.17.68-.54Zm-6.3-.47,0-.13c-1.65.18-3.36,0-5,.7.09.08.11.11.13.11Zm10.41.66c.66,0,1.29,0,1.92,0,.36,0,.48-.17.58-.52-.64,0-1.23,0-1.83,0A.56.56,0,0,0,121.68,74.53ZM47.06,89A1.7,1.7,0,0,0,47,91.14,1.79,1.79,0,0,0,47.06,89ZM30.54,44.11c-.13-1.19-.25-2.28-.38-3.38,0,0,0-.06-.05-.1H30c0,.89,0,1.77,0,2.66C30,43.69,30.15,43.9,30.54,44.11ZM75.69,23.83a1.93,1.93,0,0,0,.51-2.24C75.77,22.3,75.24,22.92,75.69,23.83ZM59.89,86.28l1,.06a9.68,9.68,0,0,0,1.32,0,1.78,1.78,0,0,0,.6-.3l-.06-.13A6.45,6.45,0,0,0,59.89,86.28Zm-13.1.81c.05.51-.23,1,.09,1.58.43-.27.94-1,.77-1.29s-.5-.22-.77-.32Zm85.27-25.84.08.11c.58,0,1.17-.07,1.76-.08a.66.66,0,0,0,.72-.62c-.75.11-1.49.2-2.23.32C132.27,61,132.17,61.16,132.06,61.25ZM82.72,88.33a6.45,6.45,0,0,0-3.5.49A11.66,11.66,0,0,0,82.72,88.33ZM63.48,86.14c1.63.17,2.2,0,2.42-.5H64.55C64.14,85.65,63.73,85.66,63.48,86.14Zm48.45-23.48c-1,0-2,0-2.92,0-.15,0-.29.21-.43.32l.09.18ZM37.08,21.57c-.39.64-.44,2.65,0,3.1Zm42.57,24,0-.11c-.36-.14-.65-.47-1.15-.26-.11,0-.36-.11-.48-.24a6.25,6.25,0,0,1-.43-.7,4.78,4.78,0,0,0,.22,1.15c0,.09.16.23.25.23C78.6,45.66,79.13,45.63,79.65,45.6ZM93.5,83a2.46,2.46,0,0,0,2-.28c.12-.09.15-.32.22-.48l-.11-.08C95.05,82.81,94.06,82.22,93.5,83ZM50.92,17.26l0-.2a37.26,37.26,0,0,0-4.92.66ZM76.06,25.6a1.92,1.92,0,0,0,.39-2A1.65,1.65,0,0,0,76.06,25.6Zm56.4,19.85c-.1,1-.51,1.95,0,2.91C132.41,47.39,132.88,46.42,132.46,45.45ZM71.55,86.08c-.77.22-1.63-.19-2.4.35A2.34,2.34,0,0,0,71.55,86.08Zm42.51-54.69a8.72,8.72,0,0,0,0,1c0,.13.17.24.26.36.12-.09.31-.16.33-.27a2.25,2.25,0,0,0,0-.73C114.69,31.39,114.5,31.24,114.06,31.39Zm-5.68,31.27c-.67.05-1.38-.22-1.83.54.45,0,.86,0,1.27,0S108.33,63.07,108.38,62.66ZM91.27,72.81a2.59,2.59,0,0,0-2.7.26ZM71.71,89.33v.2l3.07-.25C73.73,88.74,72.73,89.36,71.71,89.33ZM86,45.77l-.12-.16c-.67.25-1.48-.1-2.06.54a14.7,14.7,0,0,0,1.88-.09C85.82,46.05,85.91,45.87,86,45.77ZM61.26,79.67l-.16-.13a5.4,5.4,0,0,0-1.65,2.19l.09.07ZM18.93,67.36c0,2.28,0,4.55,0,6.82,0,.13.14.25.21.38C18.77,72.13,19.13,69.73,18.93,67.36ZM68.85,85.6c-.75,0-1.56-.33-2.19.33C67.38,85.77,68.18,86.14,68.85,85.6ZM136,61.1c0-.2.05-.37.07-.55a1.47,1.47,0,0,0,0-.21c-1,.13-1,.16-1.05.83Zm-4.22.07,0-.11-2.92.38,0,.16c.86-.07,1.73-.13,2.59-.21C131.58,61.38,131.7,61.24,131.82,61.17ZM72,85.34c-.75.14-1.57-.17-2.27.31C70.47,85.62,71.29,85.91,72,85.34ZM98.15,53.45l.11-.12c-.4-.55-.68-1.24-1.49-1.32l-.12.14Zm30.56-9.82h-.13L128.34,46h.12A3.73,3.73,0,0,0,128.71,43.63ZM76.82,26.86c-.67.54-.42,1.1-.34,1.69C77.16,28.08,76.75,27.49,76.82,26.86ZM18.73,63.33c-.05-.64-.54-1-.74-1.48l-.15.06.3,1.34Zm75.11,9.21c-.66.15-1.39-.28-2,.23C92.5,72.64,93.23,73.1,93.84,72.54ZM76.76,30.36c.53-.5.11-1.08.21-1.73C76.26,29.22,76.77,29.81,76.76,30.36ZM47.74,79c0,.44-.25.9.09,1.34C48.44,79.75,48.4,79.22,47.74,79ZM33.61,23.45l-.27,0-.15,2.66h.12Zm43,2c-.55.52-.62.79-.35,1.41A1.16,1.16,0,0,0,76.62,25.42Zm59.64,27.92c.44-.82.32-1-.7-1.13ZM63.34,80.85l.15.13,1.07-1.46-.16-.11A3,3,0,0,0,63.34,80.85Zm51.9-49v.66l1.33.1V32.5Zm-27,14.41c-.7-.06-.8.07-.68.88C88,47.14,88,47.12,88.2,46.24Zm.17-1.33c-.05-.31-.08-.56-.14-.79a.29.29,0,0,0-.2-.19.25.25,0,0,0-.2.16c0,.28-.07.57-.11.9Zm8.2,27.54c-.62,0-1.29-.33-1.87.17C95.33,72.57,96,72.9,96.57,72.45ZM73.23,85.34a5.53,5.53,0,0,0,2.1-.2A3.67,3.67,0,0,0,73.23,85.34ZM48.8,75.55c-.35,0-.68,0-1,0a.31.31,0,0,0-.22.17s0,.17.07.22A.87.87,0,0,0,48.8,75.55Zm44.36,8.26c-.27-.54-.77-.47-1.5.22ZM35.46,47l.14,0-.38-1.78-.14,0C35.2,45.85,34.93,46.52,35.46,47ZM67.37,86.41l-1.06-.09-.08.17c.12.1.23.25.37.3C66.9,86.91,67.17,86.84,67.37,86.41Zm30.7-3.25c-.62.31-1.37-.26-2,.28C96.77,83.44,97.47,83.62,98.07,83.16Zm-24,2.78c-1.43.12-1.43.12-1.62.41C73,86.27,73.56,86.55,74.06,85.94ZM45.52,64.41l0,.21,1.35-.22,0-.16C46.42,64.23,45.93,64,45.52,64.41Zm40.81-17.2c.55,0,.68-.29.52-.94C86.23,46.36,86.57,46.88,86.33,47.21ZM48.21,90.79l1.14.07,0-.13-1.17-.47Zm53-42c.51.35,1,0,1.4,0C102.15,48.62,101.7,48.36,101.19,48.79Zm26.06-5.52.73.23.14-.39-.77-.38ZM76.82,84.93l0,.16a3.94,3.94,0,0,0,1.7-.22l0-.13ZM125.5,61.75v.15l2.52-.25v-.13ZM47.21,77c-.52-.16-.44.18-.47.42s0,.39.29.32C47.48,77.57,47.14,77.22,47.21,77ZM68.47,86.6c-.11-.41-.39-.51-.78-.3-.07,0-.11.11-.17.17s.14.18.22.18A6.11,6.11,0,0,0,68.47,86.6Zm68.46-32.84H137V52.27A2,2,0,0,0,136.93,53.76ZM88.44,45.44l-.78.07c0,.11,0,.21,0,.31s0,0,0,.07C88.3,46,88.35,45.93,88.44,45.44ZM38,43.86h.08v-2H38ZM78.24,85.35l0-.22-1.53.3,0,.18ZM57.76,86.87l0-.21-1.44.14,0,.19Zm69.7-41.06a1.63,1.63,0,0,0,.34,0c.1-.33.17-.67.24-1l-.13,0Zm-73,40.88c0,.58.1.61.79.37C55.14,86.66,54.79,86.76,54.48,86.69ZM95.19,49.53c.25.68.41.76.92.46ZM58.43,86.32c-.66-.24-1.09-.2-1.42.11Zm5.75.46,0-.15L63,86.81,63,87C63.42,86.92,63.84,87.15,64.18,86.78Zm-11.81.48.1.15c.26.07.49,0,.57-.27,0-.07-.09-.17-.15-.26Zm83.1-3.94,0-.2-.82.08v.13C134.91,83.35,135.2,83.79,135.47,83.32Zm1.54-33,.15.07a5.85,5.85,0,0,0,.3-.68c0-.09-.1-.22-.21-.44ZM78.68,88.91l0-.21c-.33.07-.72-.16-1,.32ZM41.23,51.35l-1.09.21,0,.1,1.23-.06Zm55.09-1.71c.32.48.65,0,1,0ZM68.73,18.4l-.06.17,1.22.45,0-.11ZM77,40.66h-.13l.2,1.48h.07ZM87.28,73.11l0-.18L86.09,73l0,.17Zm11.41-.74v-.08H97.49v.08ZM88.49,47l.15.1a4.86,4.86,0,0,0,.25-.63c0-.08,0-.19-.08-.28l-.09,0Zm21.05-28.9c-.15-.46-.37-.64-.81-.48Z"/><path d="M143.71,46.9c.09.18.25.35.26.53a26.76,26.76,0,0,1-.38,6.44V47Z"/><path class="cls-1" d="M104.09,65.77l-1.9,2.66A4.36,4.36,0,0,0,104.09,65.77Z"/><path class="cls-1" d="M127.45,52.44l-2-.58,0,.12A2.88,2.88,0,0,0,127.45,52.44Z"/><path d="M74.45,53.5,44.89,55.33v-.67l.08,0,.17.46c9.76-.54,19.51-1.44,29.3-1.7Z"/><path d="M89.13,52.44l-9.83.64A62.22,62.22,0,0,1,89.13,52.44Z"/><path d="M74.91,50.72l4.29-.23c-1.39.49-2.85.22-4.27.38Z"/><path d="M98,55.08c.39.33.8.65,1.17,1s.71.74,1.07,1.12a7.75,7.75,0,0,1-2.32-2Z"/><path d="M74,51H71.68v-.06H74Z"/><path d="M76.22,53.1,78.44,53v.15l-2.22.14Z"/><path d="M49.61,64H48.32V64h1.3Z"/><path d="M51.14,63.86,50,64C50.3,63.61,50.73,63.79,51.14,63.86Z"/><path d="M108.59,52.1l-3.79.15a6.36,6.36,0,0,1,3.79-.28Z"/><path d="M135.78,64.34a3,3,0,0,1-1.08,2.55C134.51,66.56,135.15,65.05,135.78,64.34Z"/><path d="M64.51,48c0-.14,0-.28,0-.3.23-.17.58,0,.79.47l-1.18.11Z"/><path d="M104.09,65.77a4.36,4.36,0,0,1-1.9,2.66Z"/><path d="M64.12,71.79l.82-.9C65.06,71.14,64.82,71.46,64.12,71.79Z"/><path d="M127.45,52.44a2.88,2.88,0,0,1-2-.46l0-.12Z"/></svg>