<svg id="Layer_1" data-name="Layer 1" xmlns="http://www.w3.org/2000/svg" width="600mm" height="600mm" viewBox="0 0 1700.79 1700.79">
  <title>sketches frames</title>
  <g>
    <path d="M909.4,952.56c.43,13.35,1.11,26.46,1.22,39.57.48,56.67.49,113.34,1.27,170,.47,34,2.56,67.94,3,101.93.57,41.54.15,83.1.28,124.65q.09,24.52.84,49c.11,3.6-.78,5.3-4.29,6.19-7.72,2-15.68,3.47-22.92,6.61s-12.43,1.78-18.24-2.84c-6.42-5.12-13.48-9.42-20.4-13.88-2.65-1.71-3.2-3.9-3.06-6.77a70.38,70.38,0,0,0-.24-8c-.06-1-.11-2.36-.7-2.77-4.75-3.29-3.41-8.18-3.38-12.6q.47-59.6,1.06-119.18c0-5-.3-10.08-.22-15.11,0-2.46-.67-3.78-3.17-4.51a13.25,13.25,0,0,1-5-2.93c-4.17-3.84-8.44-7.19-14.44-7.7a4.45,4.45,0,0,1-4.18-4.46c-.36-4.43-1.21-8.85-1.27-13.29-.17-11.75.06-23.5,0-35.25q-.46-72.09-1-144.16c-.22-29.38-.45-58.75-.87-88.13a6.84,6.84,0,0,0-2.77-4.91q-19.35-11.79-39-23.06c-3.09-1.77-6.84-2.35-10-4-16.93-8.56-36.11-9.78-53.56-16.5C701.81,918.11,696,914,689.73,911c-10.34-4.91-20.83-9.5-31.25-14.23a14,14,0,0,1-3.26-1.86c61,15.83,120.09,38.21,181.6,52.06l.59-1c-1.12-1.51-2.27-3-3.34-4.53-10.51-15.17-21-30.39-31.57-45.48a9.12,9.12,0,0,0-4.8-3.31c-5-1.26-10.12-2.17-15.24-2.93-13.22-1.95-25.41-7.17-38-11.39C711,867,677.6,855.47,642.67,849l60.46,21-.14.69a4.13,4.13,0,0,1-1.38.12c-35.8-10.06-71.62-20.07-107.38-30.28-11.67-3.33-23-8.25-34.82-10.58-16-3.17-32.42-4.54-48.95-6.73-.86,5-.71,9,1.46,12.85,2.41,4.33,4.37,8.9,6.53,13.37l-1.25.7L507,834.06c-.65,5.53,6.91,20.07,12.06,23.64l2-2.94,72,21.61-1.25,1.09c31.76,5.44,58.44,22,87.19,33.39l-.4,1.14L672,910.45l-.21.52,11.66,8.57-.37.74a6.85,6.85,0,0,1-2.4-.66c-19-14.62-42.09-18.94-64.22-25.6-15.8-4.76-31.71-9.12-47.58-13.65-1.18-.33-2.4-.53-4.44-1,0,2.9,0,5.35,0,7.8.78,40.57,1,81.16,2.49,121.7,3.4,90.08,2.77,180.18,2.27,270.28-.05,10.13-2.07,20.25-3.21,30.37a6.27,6.27,0,0,1-.83,2.79c-1.28,1.83-2.77,3.51-4.18,5.24l-2.27-4.9c-6.08,1.39-12.46,2.76-18.78,4.36a5.72,5.72,0,0,0-3.41,2.32c-2.45,4.57-4.95,5.79-9.86,4.11-1.71-.59-3.3-1.55-5-2.15-.8-.28-2.18-.52-2.55-.1-2.79,3.09-3.83.54-5.35-1.34a25.26,25.26,0,0,0-5.12-5.2c-5.37-3.64-10.7-7.25-13.68-13.26a9.64,9.64,0,0,1-1.19-4.6c.39-5.43,1.3-10.84,1.61-16.27.22-3.87-.37-7.77-.3-11.65.05-3.31.7-6.61.79-9.92.16-6,.81-12.14-.09-18-.79-5.12-3.43-10-5.27-14.91-.55-1.49-1.16-3-1.74-4.43l1.43-.87,5.2,7.55,1.17,0c0-6.32,0-12.64,0-19-.3-71.07.07-142.16-1.17-213.22-.66-37.86-4.08-75.67-6.32-113.51-.95-15.91-2.18-31.81-3.07-47.73-.48-8.57-1.35-17-5.19-24.82a16.48,16.48,0,0,1-1.51-5.78l2.37,3.2.74-.09-1-8.8q-4.9-43.14-9.86-86.29c-.25-2.2-1.1-4.33-1.36-6.54-.36-3.1-.41-6.24-.64-9.36-.34-4.6-.6-9.2-1.1-13.78Q462.73,631.29,456.92,580c-2.18-19.18-4.61-38.32-6.64-57.52-1-9.44-1.34-19-1.92-28.43-1.25-20.45-2.28-40.92-3.73-61.36-1.77-24.77-7-49-12.12-73.23-2.61-12.24-3-25-4.28-37.48-.63-6.26-1-12.55-1.33-18.83a8,8,0,0,1,1.16-4.69A76.39,76.39,0,0,0,434.35,287c1.89-4,7.6-6.11,11.66-9a6.34,6.34,0,0,1,1.85-.56l.05-1.4L433,274.75l-.2-1.13a16,16,0,0,1,3.69-1.35q72.77-8,145.55-15.95,22.32-2.41,44.66-4.54a49.24,49.24,0,0,1,12,.57c-46,7.8-92.48,11.52-138.64,18,4.91-.5,9.83-1.06,14.75-1.49,52.24-4.61,104.46-9.5,156.74-13.68,34.15-2.74,68.38-4.5,102.58-6.56a65.09,65.09,0,0,1,12.55.63c2,.27,3.83,2.18,5.86,2.46,2.35.33,5.14.32,7.18-.68,3.54-1.72,5.55.32,7.11,2.42,1.8,2.45,2.78,5.4.75,8.58a7.68,7.68,0,0,0-1.36,5c3.76,19.07,8.14,38,11.54,57.16,5.14,28.91,10.12,57.87,14.31,86.93,10.5,72.83,19.81,145.82,27.43,219,3.49,33.51,7.8,66.93,12,100.37,1.44,11.56,1.78,11.48,13.41,12.29,5.86.41,11.7,1.18,17.56,1.46,9,.42,18.1.25,27.11.88,14.08,1,28.15,2.14,42.17,3.67,25,2.74,50.08,5.3,75,8.88,28.62,4.11,57.1,9.22,85.62,14a8.47,8.47,0,0,1,4.63,2.67c-17-.43-33.53-4-50.18-6.55-16.85-2.56-33.69-5.09-50.68-6.85l23,4.63c32.88,6.59,65.66,13.82,98.69,19.55,22.84,4,46.06,5.71,69.07,8.74a45.83,45.83,0,0,1,13.06,3.94c8.75,4,17.15,8.86,25.89,12.93,3.6,1.69,3.65,4.7,2.55,6.86-2.9,5.68-2.49,11.66-2.19,17.47,4.41,86.21,8.91,172.43,7.39,258.8-.62,35.24-2.44,70.46-3.7,105.69-.09,2.28-.56,4.35,1.87,6.31,1,.8.09,4.28-.33,6.47-.32,1.68-1.82,3.25-1.81,4.86.17,20.14.88,40.29.72,60.42-.15,19-1.22,38-1.77,57-.09,3.11-1.18,5-4,6.65-6.68,4-13.14,8.48-19.5,13-2.14,1.53-3.78,1.89-6,.51q-12.09-7.44-24.3-14.71c-2-1.2-4.57-1.67-6.32-3.14-1.6-1.34-3.49-3.59-3.46-5.41.17-9.74,1-19.48,1.41-29.22.17-3.77-.11-7.56,0-11.33q1-30.51,2-61c.22-6.13.8-12.25,1.11-18.38q1.45-29.26,2.81-58.54c.12-2.85-.24-5.72-.37-8.58l-1.48-.05-3.25,33.72-1,0v-87.6h-.76q-.72,12.67-1.46,25.35l-.83,0c0-10.64,0-21.28,0-31.91s.35-21.56,0-32.32c-.32-10.61-1-21.23-2-31.8s-2.52-21.28-3.82-31.91l1.9-.45q1.67,5.28,3.34,10.55c-2-37.44-2.21-75-6.2-113.43L1132,899.06c-.09-.22-.17-.43-.25-.64l40.55-15.14-.31-1.12c-5.08,1.31-10.27,2.31-15.23,4-9.24,3.16-18.5,6.37-27.49,10.19-15.5,6.59-31.58,11.07-47.91,15-50,12.09-99.94,24.61-149.92,36.85C924.09,950,916.64,951.15,909.4,952.56Zm303.17-5.23c-2.91,4.72-2.35,9.75-.93,15.3.78-.41,1-1.31,1.5-1.89,5.76-6.19,11.62-12.29,17.33-18.54a4.36,4.36,0,0,0,.91-3.39c-.84-3.74-2-7.4-3.24-11.65l-2.69,3.53-13,16.78c2.78-9,8.23-16.38,13.94-23.64.84-1.08,2.08-2.29,2.11-3.47.2-7,.1-14.07.1-22.24-6.12,7.31-11,14.1-16.94,19.91-4.69,4.64-3.42,9.27-2.69,14.25l1.44,1.07,10.26-12.17,1.35,1.32c-3.52,3.63-7.07,7.22-10.52,10.92-1,1.05-2.31,2.38-2.32,3.6,0,3.83.47,7.66.8,11.89ZM550.68,903.42c1.34-2.83,2-6.51,4.21-8.23s2.45-3.32,2.53-5.52c.09-2.92.4-5.85.32-8.76,0-1.27-.6-3.49-1.24-3.61-1.66-.3-3.92-.27-5.18.66-8.17,6.06-16.09,12.47-24.19,18.63-4.27,3.23-4.79,4.61-2.76,9.95,13.56-15.37,17.39-17.91,22.87-15.11-.21.36-.33.81-.63,1-6.56,4.89-13,9.92-19.75,14.58-4.08,2.82-3.58,6.36-2.69,11.47l21.29-12q-10.4,9.09-20.78,18.2c-.81.72-2.17,1.52-2.19,2.3-.07,4.19.21,8.39.4,13.48,4.41-4.67,7.75-8.59,11.51-12.07s7.51-7.09,12.6-8.31c.51.61,1,1.22,1.54,1.84-1.76,1.29-3.64,2.45-5.26,3.9-5.63,5-11.09,10.25-16.77,15.22a8,8,0,0,0-2.85,8.09c1,6,1.44,12.17,1.83,18.28,1.27,19.67,2.67,39.34,3.56,59,1.78,39.68,3.21,79.37,4.92,119.06.16,3.82,1.33,7.6,1.92,11.41a10.38,10.38,0,0,1-.06,3.89c-.44,1.84-1.79,3.6-1.82,5.4-.25,18,.23,36.12-.55,54.13-1.25,28.78-3.3,57.52-5,86.28-.31,5.2,0,5.23,5.14,3.85,8.4-2.26,16.9-4.19,26.33-6.5.32-7.06,1.06-15.4,1-23.74-.34-90.8-1-181.59-3.86-272.35-1.1-34.52-.2-69.11-.22-103.67v-4.74ZM506,324.33l.54.44c-3.13,3.54-6.12,7.23-9.42,10.61-7.86,8.05-17.84,14-24,23.7a1.22,1.22,0,0,1-.3.3c-2.17,1.77-2.53,3.88-2.15,6.69,2.41,17.45,5.06,34.89,6.72,52.41,3.93,41.45,7.35,82.95,11,124.42,1.37,15.73,2.29,31.51,4.19,47.18,2.3,19,5.62,37.89,8.13,56.88,3.72,28.13,7.18,56.29,10.6,84.46.78,6.45.94,13,1.39,19.46l-1.15.09-5.28-30c2.79,27.88,2.23,56.13,8.81,83.16,58.75-7.46,115.48-24,173.68-28.37-10.1,1.92-20.75,3.85-31.37,6-44.41,8.92-88.81,17.84-133.86,23.11-9.05,1-9,1.2-7.61,10.21,0,.13.15.23.34.54,1.27-.3,2.62-.6,4-.93,17-4.23,33.75-9.23,50.88-12.55q101.75-19.73,203.7-38.4c8-1.47,14.41-4.22,19.59-10.52,3.29-4,7.36-7.34,11.09-11l.77.7-15,17.11c5.64.29,8.25-.68,12.57-3.85,21.51-15.79,36-36.8,46-61.26a10.87,10.87,0,0,1,1.22-1.84c-1.3,13.7-8.52,24.62-16,35.41-7.55,11-17,20.24-28.14,29a22.08,22.08,0,0,0,2.61,0c10.74-1.89,21.5-3.71,32.21-5.79,1.4-.27,2.74-1.66,3.77-2.83,1.61-1.86,2.94-4,4.39-6l.78.55-4.39,6.89c.14.31.27.62.41.94,3.61-1.07,8.38-1.09,10.57-3.47,3-3.28,5.25-7.68,4-13.27-1.71-7.44-2.09-15.19-3.05-22.81-.13-1.1.05-3-.46-3.18-3.31-1.38-2.48-4.4-2.82-6.79-.85-6.09-1.45-12.22-2.06-18.34q-3.57-36.12-7.1-72.24c-1.16-11.69-3.31-23.36-3.38-35-.13-20.89-1-41.67-4.08-62.33-1.89-12.68-4-25.32-6-38l-1,.15c1.52,12,3.16,24.07,4.54,36.13s2.7,24.19,3.68,36.32,1.6,24.57,2.23,36.86,1.28,24.31,1.54,36.48c.27,12,.06,24,.06,36a87.74,87.74,0,0,1-3.1-15.5c-3.93-39.91-7.19-79.9-11.77-119.74-4-34.7-8.66-69.35-14.44-103.79-6.25-37.21-14.16-74.14-21.25-111.21-.94-4.93-1.36-10-1.82-15-.09-1,.77-2.07,1.19-3.11a19.26,19.26,0,0,1,2.15,2.66,10.78,10.78,0,0,1,.78,2.82c5.14,22.77,10.38,45.52,15.38,68.33,3.85,17.59,7.4,35.25,11.08,52.88a136.38,136.38,0,0,0-2-18.31Q807.35,329,795.19,260.22c-.47-2.66-2.09-3.86-3.83-2.73-2.7,1.77-4.54.46-6.76-.4a6.6,6.6,0,0,0-3.23-.4c-10.51,1.45-21,3.6-31.51,4.34a183.08,183.08,0,0,1-30.53-.32c-12.67-1.27-25.2-1.81-37.26,2.56-6.54,2.37-13,2.5-19.72,2.74-23.18.84-46.39,1.48-69.52,3.17-27.57,2-55.07,5-82.61,7.63-1,.1-2.88.53-2.92.94-.3,3.18-2.7,2.63-4.62,2.85-5.14.59-10.29,1.42-15.44,1.57a15.42,15.42,0,0,0-12.32,5.9c-5.66,6.92-11.57,13.64-17.81,20.94,3.1-10.45,11.15-16.86,17.33-24.84-5.24-.7-8.58.78-11.68,4.71-5.09,6.47-8.5,13.06-6.62,21.52a13.33,13.33,0,0,1-.12,2.5c.41,19.29,0,38.66,1.51,57.87,1.41,18.19,4.79,36.23,7.32,54.33q3.64,26.11,7.32,52.23a149.45,149.45,0,0,0-.57-21.28q-4.64-49.26-9.49-98.51c-1.16-11.82-2.82-23.61-3.79-35.44-.28-3.34,1.08-6.82,1.68-10.23l1.44.15c4.62,6.64,2.14,15.06,5,22.44,3.81-4.36,7.26-8.53,10.95-12.48s7.08-8.13,12.81-9.18a7.68,7.68,0,0,1-1.86,2.62C481.88,322,475.4,328.58,469,335.2c-.84.87-2.05,2.1-2,3.05.53,5.27,1.41,10.5,2.17,15.74l1.87.21c.89-3.11,1.74-6.24,2.69-9.33a6.23,6.23,0,0,1,1.35-2.54c3.13-3.09,6.48-5.61,11.3-5.49a9.45,9.45,0,0,0,5.35-1.58C496.63,331.79,501.28,328,506,324.33Zm364.2,919c-.4-2.53-.81-4.22-.91-5.93-.35-6.15-.75-12.3-.85-18.45q-1.1-67.54-2.08-135.11c0-1.52.17-3.31-.53-4.52-5.38-9.24-11-18.37-16.47-27.53-.65,7-.25,13.46-.74,19.84-.75,9.76,2.25,18.2,6.71,26.73,4.17,8,7,16.72,10.06,25.25.75,2.08.11,4.66.11,7l-1.51.32a134,134,0,0,0-14.87-34.78c-.16,16.75.39,33.33,1,49.9,1.39,38.16,3.54,76.32,4,114.49.51,41.67-.55,83.36-.84,125,0,5.57.41,11.15.64,16.73.36,8.63.72,17.27,1.14,25.9a2.81,2.81,0,0,0,.89,2.06c4.78,2.45,9.63,4.76,14.89,7.32-1-36.81-2.3-73,.36-109.14a8.56,8.56,0,0,1,.9,3.56q.84,52,1.69,104a6,6,0,0,0,1.67,4.17,45.31,45.31,0,0,0,6.39,3.85c6.21-2.72,11.56-5,16.85-7.42a10.37,10.37,0,0,0,3.63-2.42A27.21,27.21,0,0,0,905,1430c-.5-3-1.26-5.44-1.22-7.85.13-7.68.76-15.37.82-23.05.32-45.2-1.63-90.31-4.14-135.43-1.69-30.43-1.61-61-2.31-91.44a8.5,8.5,0,0,1,.27-1.56l.84.71c.93-.78,2.47-1.42,2.69-2.36a58.51,58.51,0,0,0,1.71-11q.69-22.37.89-44.75c0-5.15-.55-10.32-.81-15.48-.62-12.52-1.12-25.06-1.91-37.57-.2-3.28-.19-7.8-2.18-9.42-2.42-2-2.07-3.7-2.12-5.75-.33-15.94-.42-31.89-.93-47.83-.37-11.74-1.19-23.47-2-35.19-.22-3.34,1.42-7.27-2.59-9.78-.24-.15.48-2.92,1.4-3.61,1.25-.94,3.1-1.17,4.73-1.5,2.65-.53,5.35-.75,5.44-4.49a2.65,2.65,0,0,1,1.82-1.86c.64,0,1.46,1,2,1.65a12.31,12.31,0,0,1,1.2,2.29l129.09-34.13c-.62,1-1,1.67-1.59,2.61a8.48,8.48,0,0,0,2.09.17c14.32-3.54,28.75-6.72,42.93-10.79,10.3-3,20.07-7.81,30.41-10.53,20.14-5.3,40.47-9.9,60.81-14.4,9.67-2.15,19.48-4.22,29.32-4.84a83,83,0,0,0,21.63-4.18,8.62,8.62,0,0,1,4.44-.3c2.44.57,3.85-.33,5.26-2.17a60.44,60.44,0,0,1,4.73-5l1,1a12.16,12.16,0,0,1-2.47,2.58c-2.67,1.49-2.91,3.4-2.22,6.25,2.45,10.14,1,20.89,4.54,30.9.14.4-.4,1-.52,1.53a22,22,0,0,0-.89,4.8c1,51.61,2.88,103.22,3,154.83.19,69.66-.92,139.33-1.47,209,0,1.67,0,3.35.11,5q1.38,27.63,2.79,55.25c.06,1.21.14,2.43.26,4.39,5.25-2.5,9.94-4.9,14.77-7,2.69-1.16,3.64-2.77,3.63-5.73,0-22.06-.06-44.13.27-66.19.15-9.72,1.59-19.42,1.64-29.14.12-20.83-.7-41.66-.37-62.48.61-37.9,2.87-75.81,2.48-113.69-.71-69.1-2.8-138.18-4.46-207.27-.19-8.09-1.26-16.16-1.94-24.49-1.95.21-2.9.29-3.85.42-20.76,2.95-41.56,5.6-62.26,8.9-43.62,7-87.34,13.41-130.73,21.62-52.37,9.92-103.62,24.74-155,38.84-10.35,2.85-20.61,6-31,8.83-2.9.78-6,.76-9.45,1.15.72,8.25,1.24,16.18,2.21,24.05a17.42,17.42,0,0,0,2.83,7.21c3.81,5.69,8.07,11.07,11.91,16.74.62.92,0,2.7-.08,4.07-1.27-.47-3.1-.57-3.73-1.5-3.15-4.6-6.06-9.37-8.89-14.17-2.48-4.21-4.51-8.7-7.19-12.77-1.94-2.95-4.61-5.43-10.1-4.89l9.17,28.74.93-.24q.35-4.29.7-8.6C870.17,992.67,875.55,1229.81,870.22,1243.29Zm353.17-437c-.29,0-.81-.19-1.35-.26-17.28-2.13-35-1.08-51.6-8.21-6.31-2.71-13.61-3-20.38-4.7-26.29-6.51-52.53-13.23-78.84-19.64-6.06-1.47-12.34-2.07-18.55-2.85-.94-.12-2,1-3.07,1.48.85.73,1.6,1.88,2.57,2.12,11.92,3,23.89,5.75,35.83,8.66,3.75.91,7.44,2,11.16,3.06l-.3,1.26c-73.48-18.69-148.47-28.27-222.23-37.44-2.15,1.22-3.28,2.29-4.54,2.49-5.48.88-11.13,1-16.48,2.33-14.85,3.78-29.57,8-44.35,12.11a39,39,0,0,1-6.87,1.66c-4.79.39-9.66,0-14.39.68-9.67,1.38-19.24,3.44-28.9,4.89-21.83,3.28-43.73,6.2-65.55,9.57-19.31,3-38.56,6.39-57.83,9.64a26.56,26.56,0,0,0-3.3,1l0,.79,6.43,1.43-.07.6L537.49,816.88c4.13,1.63,8.17,2,12.08,3q68.41,16.74,136.8,33.65c14.66,3.62,29.25,7.49,43.88,11.22a16.86,16.86,0,0,0,2.37.28,10.65,10.65,0,0,0-5.67-3.15c-23.34-4.2-45.85-11.25-68-19.66-3.48-1.32-6.75-3.17-10.12-4.77a7.69,7.69,0,0,1,4.57.06c26.24,7.32,52.34,15.11,79.18,20.13C740,859,747,862.5,754.17,865l-.37,1.12-7-.92c8.15,4,16.28,8.18,24.89,9.83,30.21,5.77,60.57,10.77,90.92,15.77a31.51,31.51,0,0,0,13.54-.54c21.73-6.37,43.28-13.36,64.95-19.94,82.36-25,166.38-42.14,251.73-53,10.1-1.29,20.17-2.84,29.87-4.21C1222.93,810.63,1223.15,808.54,1223.39,806.3Zm9.5,527.33c1-5.15-.91-10.6,3.76-14.22.45-.34.28-1.6.27-2.43-.3-24.87-.57-49.74-1-74.61-.06-4-.73-8-1-12.06-.66-8.87-2-17.76-1.73-26.61.55-22.63,2.27-45.24,2.6-67.88.34-23.63-.14-47.28-.72-70.91-.67-27.54-1.83-55.06-2.79-82.59a5,5,0,0,0-.45-1.22c-4.58,5.18-8.57,10.82-13.66,15.18-6.19,5.3-4.9,11.31-3.81,18.42,2.62-3.89,4.63-7.39,7.14-10.48s5.49-5.68,8.26-8.49l1.1.78a40.15,40.15,0,0,1-2.37,5c-4.1,6.35-8.23,12.67-12.52,18.88-2.58,3.73-1.63,7.4-.82,11.91,1.7-1.79,2.8-3,4-4.17s2.3-2,3.46-2.91l.88.91c-1.75,2.28-3.24,4.85-5.32,6.77-2.61,2.42-3.26,5-3.21,8.51q1.1,69.87,1.89,139.73c.11,9.52,0,19-.07,28.55-.15,22.77-.86,45.55-.32,68.31.37,15.39-4.88,31,2,46.31,1.48,3.3,2.68,5.33,5.86,6.38C1227,1331.61,1229.62,1332.52,1232.89,1333.63Zm-711.07-84.44,1-.12c.22-3.12.3-6.26.69-9.37a36.27,36.27,0,0,0-2.49-18.41c-3.6-9.07-6.15-18.56-9.1-27.88a6,6,0,0,1,.16-2.08l1.09-.27,10.21,26.37,1.16-.26c-1.62-15.27,2.12-30.71-3.53-46-3.74-10.1-5.4-21-8-31.49l.92-.23,9.25,24.36,1.13-.31c-.79-11.31,2.26-23-4.31-33.77-2.89-4.74-4.82-10.1-6.83-15.32-2-5-3.43-10.25-5.12-15.39l1.28-.54,14.07,29.35a8.1,8.1,0,0,0,.87-4.24c.17-10.49-1.37-20.82-2.5-31.23-1.36-12.61-.72-25.44-1.5-38.13a45.92,45.92,0,0,0-3.41-14.44c-3.41-8.26-7.6-16.2-11.49-24.26-.35-.73-.83-1.4-1.89-3.17,0,2.26-.05,3.22,0,4.17.62,9.9,1.56,19.79,1.82,29.7.43,16.08.64,32.17.51,48.25-.11,12.91-.55,25.76,5.56,37.71.05.09,0,.26-.06.47-3.46,2.36-3.6-1.61-5.9-3.93,0,11,0,20.87,0,30.74a10.62,10.62,0,0,0,1.08,3.58c3.26,8.17,6.6,16.31,9.79,24.5,1.08,2.76,1.82,5.64,2.72,8.47l-1.22.42-12.24-30.9a29.42,29.42,0,0,0-.49,3.09q-.44,37.33-.76,74.68a14.05,14.05,0,0,0,1.27,5.64c3.94,9,8,17.85,12.1,26.75.87,1.92,1.81,3.81,2.71,5.71l1.1-.35c0-4-.48-8.12.11-12,.91-6.08-.62-11.54-2.42-17.21-4.47-14.13-8.56-28.38-12.74-42.59a24.65,24.65,0,0,1-.52-4l1.2-.2Q514.53,1227.11,521.82,1249.19ZM863.38,963.92c-.32-4.85,0-8.85-1-12.45-.89-3.08-3.53-5.61-5.12-8.54-8.9-16.32-21.19-30.15-32.62-44.61a5,5,0,0,0-2.73-1.77c-5.88-1-11.79-1.88-18.44-2.91,13.85,18.1,27.87,35.26,37.75,55.76l-2.09-1.25c0,4.15-.42,8.48.07,12.7,1.92,16.51,4.82,32.94,6,49.5,1.19,16.25,3.82,31.77,12.15,46.06,2.73,4.68,4.47,9.93,6.69,14.91.37.84.88,1.62,1.75,3.19,0-7.36.42-13.88-.1-20.33-.66-8.13-2.4-16.17-3.08-24.3-.83-9.88-.74-19.84-1.61-29.72-1.11-12.5-3.13-24.94-4-37.45a26.62,26.62,0,0,0-5.77-14.48c-9.59-12.89-19.26-25.72-28.88-38.6-1.69-2.26-3.25-4.63-4.87-6.94C834.41,921.35,850.31,940.73,863.38,963.92ZM439.29,288.66c-1.61,1.53-2.89,3.24-4.58,4.26-3.73,2.27-3.85,5.21-3.3,9.23q5.49,40.08,10.4,80.25c2.68,21.78,5,43.61,7.57,65.4,2.52,21,5.26,41.88,7.83,62.83,1.4,11.35,2.47,22.73,4.07,34,.42,3,2.36,5.77,3.37,8.72,2.05,6,3.9,12,5.93,17.93.43,1.28,1.24,3.39,2,3.44,4.67.34,3.73,4.07,4.45,6.75.49,1.85.75,3.75,1.11,5.63,0-11.13.15-22.24-1.28-33.15-3.29-25-9.08-49.46-18.61-73-1.47-3.63-1.43-7.87-2.09-11.83l1.19-.23c1.57,4.44,3.05,8.92,4.74,13.31a17.92,17.92,0,0,0,3,5.45c.65.74,2.46.46,3.74.64.05-1,.45-2.21.08-3.06-3.87-9-8-17.83-11.74-26.87A38.08,38.08,0,0,1,454.55,448c-1.84-17.79-3.35-35.62-5.15-53.42-2.52-24.91-5.27-49.79-7.74-74.7C440.64,309.64,440.09,299.36,439.29,288.66ZM842.36,1251.2l1.11-.45c-.66-16.23-1.32-32.46-2-49.61-5.7,6.48-10.32,12.26-15.5,17.48-3.7,3.72-3.28,7.73-2.79,12.77L835,1220c-2.31,3.54-4.74,7.06-8,9.6-5.78,4.6-5.42,10.73-5.54,17.78C829.77,1242.55,836.24,1246,842.36,1251.2Zm-323.3-213.74,1.18-.26c0-1.37,0-2.75,0-4.12-.28-9.64-.35-19.3-1-28.92-.26-3.88-1.66-7.73-2.81-11.51a48.84,48.84,0,0,0-2.86-6.52q-4.86-10.26-9.79-20.52a5.18,5.18,0,0,0-.9,3.46c.21,9.51.71,19,.55,28.51a31.31,31.31,0,0,0,3.77,16C511.44,1021.39,515.14,1029.49,519.06,1037.46Zm694.6-39.82c.73-.76,1.22-1.22,1.64-1.72,5.38-6.43,10.79-12.83,16.07-19.34a5.78,5.78,0,0,0,.89-3.47c-.06-7.41-.22-14.82-.4-22.23,0-2-.28-4-.51-6.89a34.65,34.65,0,0,0-3.66,3.09q-7.32,8.58-14.52,17.28c-.69.83-1.68,1.85-1.66,2.77.1,5.45.45,10.9.72,16.35l1.46.32c1.94-3.31,3.74-6.73,5.86-9.92,2-3,4.35-5.81,6.55-8.7l1.67,1.24c-3.29,4.44-6.47,9-9.92,13.29C1213.73,984.87,1211,990.25,1213.66,997.64ZM517.54,989l1.57-.19c-1.68-13.92-1.94-28.21-5.42-41.68S503.52,921,498.24,907.93l-1.76.66c.9,2.6,1.81,5.19,2.68,7.81a11.47,11.47,0,0,1,.69,2.74c.9,11.14,1.69,22.29,2.64,33.43.22,2.62.38,5.44,1.44,7.77C508.29,970,513,979.44,517.54,989ZM495.26,752.7l1.73-.33c0-1.84.34-3.76-.05-5.52-1.8-8-3.58-16-5.78-24-2.73-9.81-5.89-19.5-8.8-29.27-.39-1.3-1-3.21-.44-4,2.48-3.4,1.08-6.71.16-9.94-2.43-8.6-5.08-17.13-7.67-25.69-.28-.91-.71-1.77-1.08-2.66a107,107,0,0,0,1.39,17.18c1.26,7.87,2.89,15.69,4.26,23.54a76.38,76.38,0,0,1,1,8.25c.33,4.8-.47,9.9.91,14.34,3.65,11.72,8.2,23.16,12.45,34.69A23.37,23.37,0,0,0,495.26,752.7Zm-8.32,16.53-.41,0c.31,3.46.56,6.93.92,10.39.89,8.56,1.91,17.11,2.7,25.69.86,9.27.4,18.83,2.58,27.77,2.48,10.14,7.15,19.76,11.07,29.53a68.89,68.89,0,0,0,5,9.63c.64,1.08,2.09,1.67,3.17,2.49a7.2,7.2,0,0,0,.27-4.63c-1.14-4-1.89-8.28-3.71-12-5.08-10.4-5.49-22.47-11.93-32.36a25.33,25.33,0,0,1-3.07-7.33c-1-3.72-1.48-7.57-2.19-11.36l1.1-.19,3,10.23c-.05-3.4-1.11-6.52-1.8-9.72-1.21-5.63-3.94-11.24-.47-17,.28-.47,0-1.37-.22-2C491,782,489,775.61,486.94,769.23Zm-21.56-197.5c-.64,29.83,6.11,56.83,16.94,83.06-.12-6.29-.72-12.56-1.43-18.8-2.36-20.73-11.39-40-13.09-60.93C467.73,574.11,466.52,573.25,465.38,571.73ZM851.79,926.14l.43-.11c-2-4.88-4.07-9.72-6-14.65a2.28,2.28,0,0,1,3.35-3,13.6,13.6,0,0,1,3.59,2.84c3.06,3.18,6,6.45,9.63,10.34-.49-7.45-.91-14-1.32-20.34l-33.87-3.7Zm356.38-9.25c6.63-8.75,13-17,19.16-25.47,1.28-1.76,1.55-4.26,2.29-6.42l-1.6-.86-17.35,17.63c5.29-7,11.33-13.3,17.18-19.77,1.32-1.47,1.93-3.58,3.32-6.28-2,.36-2.52.29-2.78.52-7.33,6.65-14.69,13.27-21.9,20a5.54,5.54,0,0,0-1.63,4.12C1205.68,905.71,1206.93,910.94,1208.17,916.89ZM505,1259.37a15.46,15.46,0,0,0-.59,2.39c-.12,10.16-.64,20.36,4.52,29.76,1.25,2.29,1.77,5,2.56,7.51,1.9,6.12,3.58,7.47,10.12,8.11,0-4.7.06-9.4-.06-14.11a5.7,5.7,0,0,0-1.23-2.49c-1.72-2.67-3.84-5.14-5.17-8C511.69,1275.18,508.58,1267.66,505,1259.37Zm404.14-49.61c-.48,4.41-1,7.63-1.16,10.86q-1,27.84-1.79,55.69a79.08,79.08,0,0,0,.56,9.59,16.22,16.22,0,0,0,1.19,3.32C912.07,1279.22,913.29,1218.18,909.13,1209.76Zm-396.59-276,.71-.42c-.45-1.73-.94-3.46-1.35-5.2-4.22-18.06-8.48-36.12-12.63-54.2-1.28-5.58-2.24-11.23-3.35-16.85l-1.17.23c0,.68,0,1.37,0,2q1.22,19.2,2.46,38.41a8.47,8.47,0,0,0,.35,2.88Q505,917.25,512.54,933.77Zm327,234.87c-3.52,3.87-5.81,7.17-8.82,9.53-8.44,6.6-6.92,15.49-6.63,25.08,5.6-6.5,10.67-12.35,15.69-18.26a3.09,3.09,0,0,0,.57-1.94C840.14,1178.64,839.86,1174.24,839.53,1168.64ZM824.18,1179c4.32-3.83,9.12-8,13.81-12.34a3.71,3.71,0,0,0,1-2.58c-.13-3.85-.46-7.68-.72-11.52C830.61,1160.43,820.31,1166.73,824.18,1179Zm12.76-45.36c-7.55,7.36-16.85,12.93-12.38,24.89,4-3.55,8.2-7.25,12.28-11.09a4.22,4.22,0,0,0,1-2.94C837.68,1141.2,837.3,1137.89,836.94,1133.66ZM483.54,738c-.54,15.92,7.72,28.94,13.65,42.74C497.47,764.85,488.82,752,483.54,738ZM834.4,1098.51c-9.81,7.61-12.86,16.16-9.77,25.9,3.06-3.92,6.26-7.92,9.31-12a6,6,0,0,0,1.23-3.39C835.1,1105.68,834.71,1102.38,834.4,1098.51Zm-11.1-46.41c10.83-5,8.67-14.11,7.86-23.11C822.73,1033.59,820.43,1040.74,823.3,1052.1Zm11.84,64.41c-5.57,7.23-14.43,12.11-10.56,22.79,2.23-2.1,4.23-4.51,6.71-6.19C837.45,1128.94,837.1,1123.35,835.14,1116.51Zm5.25,73.44c-5.09,5.91-9.5,11.31-14.24,16.42-3,3.22-3.16,6.8-2.82,11.39,5-5.81,9.3-11.52,14.4-16.32C841.31,1198.06,841.38,1194.72,840.39,1190Zm-17.86-156.36c8.64-5.08,10.23-12.56,7.85-21.45C822.06,1016.84,820.55,1021,822.53,1033.59Zm1.69,54.72c9-4.83,10.69-12.34,8-21.38C824.19,1072,822.24,1077.24,824.22,1088.31ZM550.11,875.7c-3.73-1.78-6.83-2.13-10.17,1.08a122.27,122.27,0,0,1-14.12,11.68c-2.59,1.83-3,3.51-2.13,6.2Zm273.43,191.48c5.81-5.23,11.61-10.16,7.75-18.92C822.64,1051.89,821.84,1058.83,823.54,1067.18ZM821.92,1012c8.62-5.86,11-11.45,7.84-18.65C823.15,997.81,819.07,1003.38,821.92,1012Zm2.45,92.21c10.4-10.88,10.84-11.81,8.74-18C824.11,1092.66,823.17,1094.52,824.37,1104.25Zm-19-149.93c-4-8.06-13.41-12.9-24.93-13Zm35.1,108.57v24.23C844.56,1083.07,843.86,1066.87,840.47,1062.89ZM829.53,953.66a94.82,94.82,0,0,0-8.73,6c-.64.54-.36,2.71.14,3.85.32.73,2.45,1.56,2.68,1.32a105.22,105.22,0,0,0,7.29-8.49C831.14,956.06,830.14,954.81,829.53,953.66Zm10,76.67v22.18C844.27,1050.32,843.8,1036.74,839.49,1030.33Zm-40.61-773-2,.38q3.86,20,7.69,40l.64-.11Q802.06,277.44,798.88,257.33Zm43.89,831.08c-5,5.58-1.81,11-2.38,16.41C843.81,1103.63,844.53,1097.86,842.77,1088.41ZM452.64,274.33c2.94,2.84,16.16,1.16,19.18-2ZM830.43,984.56c-10.22,6.93-10.58,7.08-8.14,11.38C824.48,992,829.79,990.59,830.43,984.56Zm-10.24-5.22,1.3.27c1.72-2,3.43-3.91,5.7-6.51l-5.5-1.3Zm21.56,40-1-15.24C838.67,1009.38,837.68,1014.55,841.75,1019.36ZM502.18,798.44l1.07-.32c-.35-3.55-.7-7.11-1.08-11.1l-3.68,1.46C499.81,792.06,501,795.25,502.18,798.44ZM813.49,955.71c1.41-6.39.5-7.37-6.26-7.19Zm-334.38-684,.3,1.49,16-2.39-.16-1.09Zm27.82,1029.44c-1.26-3.87-2.22-6.79-3.32-10.18C501.22,1296.9,501.55,1298.14,506.93,1301.11Zm336.34-194c-3.7,4.79-1,9.62,0,14.49ZM455.87,292l.87.35,4.82-7.17-5.69.77ZM900.54,972.45c.41-7,.75-12.89,1.09-18.77l-1.09,0ZM446,300.92l.77-.1V287.21l-.77,0Z"/>
    <path d="M471.44,551.36l-11.13-51-1.08.2c.54,5.53,1.37,11,1.56,16.59C461.21,529.47,463.86,541,471.44,551.36Z" style="fill: #fff"/>
    <path d="M829.76,1242.92l.79.78,10-9.81-.75-.77Z" style="fill: #fff"/>
    <path d="M554.55,281.39c-11.81,16.28-27.07,29.84-37.42,47.1C517.16,322.22,541.21,291.47,554.55,281.39Z"/>
    <path d="M513.94,360.49,487,386.2c7.8-9.47,14.31-20.64,26.27-26.53Z"/>
    <path d="M840.44,737.85q-6.5,7.49-13,15l-1.21-1.07,13.41-14.63Z"/>
    <path d="M870.32,1271.49v52.06l-.64,0v-52Z"/>
    <path d="M898,1096.62v-23.75h.12v23.75Z"/>
    <path d="M526.05,955.42c1.64-8.9,13.19-19.66,21.17-19.12Z"/>
    <path d="M471.44,551.36c-7.58-10.32-10.23-21.89-10.65-34.17-.19-5.54-1-11.06-1.56-16.59l1.08-.2Z"/>
    <path d="M829.76,1242.92l10.07-9.8.75.77-10,9.81Z"/>
  </g>
</svg>
