<svg id="Layer_1" data-name="Layer 1" xmlns="http://www.w3.org/2000/svg" width="600mm" height="600mm" viewBox="0 0 1700.79 1700.79">
  <title>sketches frames</title>
  <g>
    <path d="M1166.86,952.83c-34.61,11-69.11,22.28-103.86,32.76-33.71,10.16-67.65,19.55-101.58,28.95-3.63,1-5.34,3.72-8.08,5.42-14,8.66-24,21.1-32.92,34.6-1.11,1.69-1.41,3.91-2.08,5.89l1.16.45c5.62-6,11.06-12.21,16.91-18,6.76-6.68,13.81-13.08,20.89-19.44a22,22,0,0,1,5.93-3.44c4.35-1.94,7,0,6.43,4.71-1.32,11.35-3.13,22.65-4.12,34-2.84,32.75-9.72,65.16-8.52,98.27.21,5.78.56,6.82,3.15,7.93.53,2.93.57,5.52,1.47,7.76,6,15,12.17,29.93,14.42,46.09a109.38,109.38,0,0,1,1.12,11c.68,19,1.14,38,1.9,57,.18,4.45,1.37,8.85,1.83,13.3a32.68,32.68,0,0,1-.11,7.72c-.88,6.29-4.66,7.74-9.78,3.55a36.19,36.19,0,0,1-1,4.62c-1.48,4.06-4.66,5.91-8.81,6.1-3.39.15-6.86-.36-10.19.15-7.6,1.18-13.86-6.44-13.67-13,.23-7.87.37-15.77,1.1-23.6,2.33-24.86-.58-48.85-10.91-71.76-3.08-6.82-6.12-13.65-9.06-20.53-2.46-5.74-1.93-7.93,2.39-12.35q9.84-10,19.58-20.2a4,4,0,0,0,1.18-2.43,194.63,194.63,0,0,0-.77-22.81c-1.81,2.24-3.77,4.39-5.42,6.74-5.63,8-11.27,16-16.64,24.22a25.07,25.07,0,0,0-2.84,7.55C907.05,1209,899,1244.2,889,1278.81c-3.45,11.93-3.29,23.58-3.52,35.31-.57,27.74-.22,55.51.36,83.26.46,22.23,6.2,43.54,13.32,64.48,1.43,4.21,2.32,8.16-1.64,12.34,5.3,1.86,6.51,6.24,7.37,10.91s-.25,8.07-4.46,10.35c-13.77,7.46-28,8.41-42.31,1.89-2.68-1.22-4.84-4.59-6.18-7.46-1.13-2.44-1.07-5.6-1-8.42,1.26-29.1-1.94-57.72-7.69-86.26-4.3-21.31-6.9-43-10.52-64.42-1.4-8.29-3.94-16.4-5.18-24.7a157.09,157.09,0,0,1-2-24.76c.19-18.76.3-37.58,1.92-56.24,1.1-12.65,5.44-25,7-37.65,1.26-10.3,1-20.87.58-31.28-.83-18.88-2.49-37.72-3.51-56.59-.55-10.1-5.81-18.27-10-26.92-3.55-7.34-7.36-14.56-10.91-21.91-.46-1,0-2.36,0-3.55,1,.71,2.37,1.2,2.9,2.16,4,7.13,7.75,14.37,11.61,21.56A7,7,0,0,0,828,1074c-1.46-7-2.88-13.94-4.37-20.89-2.76-12.85-2.82-12.75-14.87-17.77-48.46-20.21-98.8-34.5-149.48-47.73-12.89-3.37-25.73-6.94-38.64-10.25-1.21-.31-2.74.52-4.09.95s-2.42,1.34-3.65,1.4c-4.35.21-7.14,2.48-9.72,5.81a86.87,86.87,0,0,0-18.9,51.6c-.59,20.21.64,40.48,1.27,60.72.08,2.66,1.33,5.29,2.58,7.84,3.25-7.11,1.43-14.43,1.54-22.66.78,1.23,1.16,1.55,1.2,1.92,3.45,32.74,12.84,64.23,20.22,96.15.16.66.17,1.65.59,1.91,5.39,3.19,4,8.82,4.47,13.43,3.34,31.14,5.15,62.41,3.88,93.71-.35,8.62-3.54,17.24-6.2,25.62-4.88,15.42-10,30.81-15.78,45.89-1.58,4.09-5.93,7.22-9.29,10.51-6.5,6.37-13.7,10.84-23.56,9.68-7.66-.89-14.26-6.77-14.44-14.48a29.54,29.54,0,0,1,1-8.85c2-6.92,4.49-13.69,6.68-20.56.72-2.26,1.89-3.31,4.4-3.18,3.9.2,7.82,0,12.58,0-1.36,4.07-2.49,7.34-3.56,10.64-1.71,5.3-3.51,10.59-5,16-.47,1.68-.08,3.59-.09,5.39,2.31-.32,5.17.11,6.84-1.11,5.58-4.08,10.75-8.75,16.06-13.2,1-.88,2-1.84,3-2.74,3.11-2.74,5.49-5.12,5.29-10.34-.22-5.74,2.63-11.56,3.77-17.42,1.09-5.59,1.71-11.27,2.53-16.92a12.82,12.82,0,0,1,.45-3.21c5.65-13,4.31-27,5.12-40.6,1.39-23.33.13-46.57-6.89-69-2.94-9.42-7.62-18.29-11.17-27.53-2.28-5.94-4-12.08-5.87-18.18-8.25-27.52-12.19-55.89-14.38-84.32-1.3-16.93,1.31-34.16,2.08-51.26a26.94,26.94,0,0,0-.52-7.24c-3-12.72-6.15-25.39-9.21-38.09a36,36,0,0,1-.5-4l1.2-.37,2.67,5.58,2.46-6.45c1.89,4.19,3.38,7.53,4.88,10.86l.93-.17c0-2.76.45-5.62-.18-8.22-.33-1.37-2.64-2.19-3.87-3.44a19.64,19.64,0,0,1-2.08-3.09c1.14-.23,2.46-1,3.4-.62,30.55,11,62.62,16,93.92,24,21.71,5.56,43.4,11.32,64.86,17.78,8.89,2.68,17.07,7.64,25.72,11.22,20.66,8.54,42.24,14.12,63.94,19.19,4.74,1.1,6.73,4,8.84,7.5,4.34,7.18,8.82,14.28,13,21.52a19,19,0,0,1,2.33,6.4A748.24,748.24,0,0,1,855.17,1195c-.17,11.13.32,22.28-1.06,33.37-.28,2.28-.9,4.52-1.37,6.78l-1.09-.1-1.9-3.7-1.07,0c-1.71,10.4-4.9,20.82-4.81,31.21.15,19.33,1.74,38.69,3.69,58,1,9.39,4.1,18.56,6.17,27.85a42.35,42.35,0,0,1,.5,5.36l-2.44-.81c.25,1.84.4,3.59.72,5.31q7.13,38.94,14.32,77.85c1,5.48,1.6,10.65-4.54,13.77-.51.26-.75,1.6-.67,2.4,1,10.14,2,20.27,3.25,30.37a5.2,5.2,0,0,0,3,3.54,31,31,0,0,0,23.75-1.9,4.15,4.15,0,0,0,1.66-2.8,42.52,42.52,0,0,0,.07-5.91c-4.36-.81-6.25-4.17-7.66-8.26-9.67-28-15.13-56.65-14-86.48,1.09-29,.84-58,2.37-86.9.94-17.86,4.08-35.61,6.33-53.4a10.39,10.39,0,0,1,1.77-4.88c9.28-12.13,13.58-26.34,16.48-40.89,3-15.05,5.42-30.26,7.07-45.52,1.31-12,1.35-24.16,1.44-36.26.14-19.45.72-39-.53-58.35-1-15.43,2.84-30.71-.66-46.29l28.37-2.6.09.38-7,2.39.21,1.19a26.91,26.91,0,0,0,3.83-.49c24.48-6.86,48.92-13.84,73.42-20.61,30.22-8.35,60.51-16.43,90.71-24.84,10.06-2.8,19.94-6.22,29.86-9.47,2.49-.82,4.83-2.1,7.24-3.16-.12-.42-.23-.84-.34-1.25-5.62.78-11.39,1-16.84,2.43-34.6,9.06-69.11,18.45-103.7,27.57a121,121,0,0,1-21.7,3.57c8.87-2.26,17.79-4.33,26.59-6.82,55.72-15.81,111.39-31.83,167.14-47.53,24-6.77,48.3-12.85,72.39-19.5a16.37,16.37,0,0,0,8-5,88.72,88.72,0,0,0,8.58-13.8c.7-1.3,0-3.36-.07-5.07-2.55.36-6.74-.07-7.37,1.23-3.21,6.63-9.33,8.7-15.34,10.24-19.75,5.06-39.64,9.6-59.5,14.27-33.94,8-66.73,19.73-99.93,30.21-45.89,14.49-92.18,27.74-138.26,41.66-8.54,2.58-16.76,6.19-25.31,8.68-10.17,3-20.8,4.49-30.79,7.92-19.33,6.64-39.55,8.15-59.4,11.81-6.7,1.24-12.2-.86-18-2.56-38.32-11.27-76.58-22.75-114.9-34-5.85-1.72-12-2.3-17.89-3.92-10.47-2.88-20.93-5.82-31.2-9.33-11.55-3.94-22.75-8.95-34.35-12.76-17.3-5.69-34.8-10.76-52.23-16.06-1.67-.51-3.44-.71-5.12-1.22-3.44-1-7.28-3.72-10.14-2.9s-4.44,5.17-6.61,8c-6.09,7.84-12,15.82-18.35,23.46-3.68,4.44-5.21,9.06-3.82,14.67.48,1.93.67,3.93,1.13,6.71,14.8-11.6,25.88-26.42,41.1-36.38l1.07.74a41.29,41.29,0,0,1-2.5,4.52c-6.35,8.83-13,17.48-19.1,26.46-4.21,6.16-7.78,12.75-11.63,19.15-.73,1.2-1.49,2.39-2.23,3.58l-1.33-.5a57.17,57.17,0,0,1,1.57-5.81c3.9-10.35,11-18.69,17.38-27.49a12.19,12.19,0,0,0,2.38-4.32L548.36,965c-6.87,6.39-13.79,12.72-20.54,19.23a5.63,5.63,0,0,0-1.67,4.11c7.78,53.35,16.32,106.59,33.83,157.79,6.36,18.6,15.13,36.38,22.8,54.54.52,1.23,1,2.47,1.52,3.71l-.84.55-6.41-10.1-.48.16c1,3.82,2.17,7.61,3.07,11.45,2.73,11.65,5.86,23.24,7.85,35,1.32,7.85.89,16,1.38,24,.54,9,1.16,17.91,1.92,26.85a21.47,21.47,0,0,0,1.71,6.23c2.49,5.92-1.25,13.85-7,15.55,0-11.06.55-22.33-.14-33.51-.81-13.12-2.47-26.2-4.29-39.22-.48-3.43-2.68-6.71-4.44-9.86-4.42-7.87-4.92-16.67-5.78-25.26a47.94,47.94,0,0,0-9.05-23.28,209.8,209.8,0,0,1-26.33-50.46c-4.93-13.65-12-26.66-15.77-40.59-4.87-17.78-8.12-36.08-10.89-54.34-4.45-29.31-7.93-58.76-11.83-88.15-.09-.67,0-1.67-.41-1.93-4.34-2.91-2.69-7.32-2.67-11.13.11-16.86.64-33.73.71-50.59.08-21.86-.47-43.69-3.32-65.42-2.81-21.51-5.48-43-6-64.8-.82-34.62-10.46-67.61-22.08-100C459,643.79,454,632.31,449.34,620.7c-.85-2.14-1.61-4.31-2.41-6.46l1.09-.53q7.34,14.41,14.66,28.82l.3-.06c-1.58-5.87-3-11.81-4.78-17.62q-15.79-51.26-31.79-102.47a248.87,248.87,0,0,1-9.63-44.18c-2.09-17.12-5.45-34.13-6.86-51.3-1.28-15.68-.6-31.53-1-47.3-.41-17.49,3-34.32,8.28-50.88.91-2.86,1.93-5.07,5.38-4.37,3.52-17,13.8-29.83,24.5-42.39C464,262.17,485,247.72,507.74,235.72a184.22,184.22,0,0,1,53.83-18.46c20.55-3.66,41.07-7.89,61.8-10.1,15.73-1.68,31.76-.61,47.66-.74,1.22,0,2.44.19,3.66.29,9.68.76,19,1.61,28.25,6.1,12.15,5.88,25.61,9,38.28,13.89a315.43,315.43,0,0,1,33.17,14.66c5.61,2.95,10.67,7.69,14.78,12.62,9.37,11.27,18.52,22.8,26.83,34.86,13.4,19.45,22.2,41.13,24.47,64.62,1.47,15.19,0,30.67-.18,46,0,4.18-.09,8.36,0,12.54.22,18.09.43,36.19.78,54.27a29.3,29.3,0,0,0,1.4,8.37c8.67,26.56,13.66,53.65,13.74,81.72.06,17.75-4.56,34.07-11.75,50a20.85,20.85,0,0,0-1.65,7.78q-.6,21.79-.78,43.6a8.38,8.38,0,0,0,1.53,4.81c15.54,20.42,22.16,43.71,22,69.05,0,9.75-.22,19.63-1.84,29.19-1,5.7-1.25,10.91.43,16.92,3.07-.29,6.25-.66,9.44-.88,8.45-.59,16.37-2.91,24.48-5.49,18.49-5.89,37.29-10.9,56.23-15.14,5.72-1.28,12.31.92,18.43,1.93,8.66,1.43,17.26,3.22,25.88,4.9a8,8,0,0,1,3.4,1.14c5,4.05,11.23,5.22,17.08,7.36,7.38,2.71,14.31,6.64,21.71,9.27,10.15,3.6,18.22,10.1,26.21,16.9a6.94,6.94,0,0,0,2.46.83l.77-1.22-33.9-25c2.25.94,3.7,1.39,5,2.11a172.22,172.22,0,0,1,34.1,25.05,11.24,11.24,0,0,0,5.81,2.28,43.35,43.35,0,0,0,22.77-3.09,131.21,131.21,0,0,1,54.68-9.48c25,1,49.4,5.68,72,17.14,5.59,2.83,11.28,5.44,16.77,8.44a83.83,83.83,0,0,1,9.44,6.36c4.09,3,8,6.26,12.06,9.4l1-.93c-1-2.76-2-5.51-3-8.2,4.27.81,7.35,3.87,12.22,14.35,2.83,6.1,5.54,12.57,6.52,19.14s-.36,13.18-.66,19.33l-6.85,1.95c.79,7.38,1.82,14.75,2.25,22.15a39,39,0,0,1-1.27,10.43c-.31,1.46-1.44,3.5-2.65,3.88-4,1.27-3.3,4.23-3.55,7.16a27.33,27.33,0,0,1-1.64,7.07c-11,29.67-19.56,59.93-24,91.35-1.5,10.45-5.21,20.57-6.9,31-2,12.32-3,24.81-4.15,37.24-.14,1.48,1.27,3.1,2,4.65.9-1.46,2.37-2.84,2.6-4.39,1.77-12.52,3.29-25.08,4.93-37.62.45-3.37,1-6.74,1.63-10.06.2-1,1.12-1.76,1.7-2.63l1.31.56c-1,6.37-1.8,12.79-3.06,19.11-6.91,34.49-8.09,69.38-7.61,104.4.07,4.52.91,8.92,5,12,.81.6,1.58,2.37,1.26,3.14-1.27,3,.73,4.08,2.56,5.49,11.8,9.05,23.14,18.6,31.72,30.93a81.49,81.49,0,0,1,14.88,46.35c.27,25.56-.47,51.13-.73,76.7a10.42,10.42,0,0,0,.65,3.88c3.87,9.81,3.53,19-3.13,27.69a18.59,18.59,0,0,1-13.69,7.23,94.33,94.33,0,0,1-19-.85c-4.25-.54-10.53-9-10.85-13.76-.19-2.83-.46-5.92.44-8.5,3.11-8.85,1.69-18.07,2.85-27.06,1.38-10.63,3.26-21.22,4.2-31.88.37-4.25-.09-9.26-2.08-12.88-5.27-9.62-11.45-18.76-17.52-27.92-3.64-5.51-7.74-10.73-12-16.57,4.91,1,14.22,9.38,22.59,20.64,6,8.06,11,16.84,16.47,25.29,1.81-10.9-12.93-35.91-27.17-46.9.1,1.39.17,2.53.26,3.76-5.11-2.33-10.1-4.63-15.12-6.9-1-.45-2.12-1.24-3-1-7.09,1.44-9.78-4-13.55-8.14-23.35-25.67-33.78-57.05-39.62-90.31-3-17.26-5-34.71-7.4-52.09-.26-1.86-.81-3.6,2.06-4.71,1.28-.49,1.83-3.78,2.06-5.87a97.27,97.27,0,0,0,.89-14.65c-.53-13.31-1.91-26.6-2-39.91-.13-11,1-22,1.66-32.94a128.59,128.59,0,0,1,1.52-13c.83-5,2-9.92,3-14.87,7.07.15,7,.14,6.18,7.17-.72,6.36-1.21,12.75-1.8,19.12l1.72.39c1.44-4.41,2.69-8.89,4.38-13.2,1.9-4.87,4.19-9.59,6.31-14.38l1.47.65c-1.31,3.84-2.61,7.68-4.25,12.48l22.81-23.7c-2.6.79-6.32,2-10.09,3-2.92.81-5.54,1.73-4.68,6.45-2.39-.44-4.23-.75-6.06-1.13-1.08-.22-2.26-1-3.18-.75C1175.35,950.1,1171.12,951.52,1166.86,952.83ZM836,534.48l.09.13c-.19-6.23.12-12.53-.7-18.68s-3.33-12-4.15-18.12c-1.71-12.82-5.8-24.86-10.89-36.61a63.61,63.61,0,0,0-5.71-10.31c-3.27-4.79-2.67-7.78,2.58-10.29,2.16-1,4.64-8.55,3.4-10.35-1.63-2.36-3.29-4.7-4.93-7-2.85,2.31-5.66,5.59-9.24,7.25-6.74,3.14-10.15,8.59-12.7,15-.65,1.64-.81,3.77-2,4.84-1.6,1.48-4,3.13-5.92,2.9-1.52-.18-3.17-2.84-3.92-4.73-.66-1.65-.32-3.78-.12-5.66a11.86,11.86,0,0,1,9.27-10,81.6,81.6,0,0,0,15.32-4.92c1.69-.68,3-2.66,4.15-4.26,1.43-1.93,2.51-4.13,3.81-6.16,2-3.21,4.31-6.28,6.19-9.58,10-17.46,10.08-36.48,8-55.59s-10.48-36.49-16.12-54.63a13.42,13.42,0,0,0-1-2.2c-2.44-4.65-5-5.26-9.26-2.18l-6.06-9.16-.52.35,7.26,14.65-.89.45a67.23,67.23,0,0,0-3.79-6.21c-7.49-9.82-14.84-19.75-22.72-29.25-4.82-5.8-9.77-12-15.94-16-15-9.85-31-18-48.66-22.47-4.33-1.09-8.54-2.86-12.93-3.46-10.46-1.42-21.24-1-31.12-5.68a7.07,7.07,0,0,0-2.82-.31c-13.45-.32-26.91-.9-40.36-.79a94.57,94.57,0,0,0-20.13,2.23c-16.11,3.69-31,10.71-45.72,18a30.22,30.22,0,0,1-9.19,3,80.35,80.35,0,0,0-28.16,9.14c-11.1,6.14-22,12.12-31.33,21.51-9,9.06-18,17.92-25.73,28.15-11.87,15.75-23.7,49.38-20.35,72.18,1.52,10.29.8,20.91,1.12,31.38.66,21.93,5.41,43.08,11.68,64,4.59,15.33,12.9,26.84,29,31.38a25.82,25.82,0,0,1,3.84,1.38,13.1,13.1,0,0,1,2.17,1.73C480.18,501.9,466.15,494,456.08,480c2.84,16.82,5.52,32.63,8.19,48.44l1.15,0,1.12-8.25c3.82,35.13,8.87,69.78,18.87,103.5l1.11-.2q-1.63-8.34-3.25-16.67l1.19-.38c3.43,9.53,6.9,19,10.26,28.59,2.17,6.15,3.63,12.62,6.34,18.51,4.94,10.73,10.6,21.13,15.91,31.69,1.81,3.59,3.49,7.26,5.5,11.46l-3.73-.56c1.45,9.64,2.85,18.88,4.26,28.22l1.63-.64c0,4.79-.34,9.52.06,14.19,1.32,15.31,2.94,30.59,4.36,45.89a43.79,43.79,0,0,1-.29,5.94l-3.7-1.57c2.33,9.26,4.32,17.85,6.67,26.33a162.56,162.56,0,0,0,16.93,39.67c1.28,2.16,2.71,2.65,5.24,2.69,3.59.07,5.74-2,8.39-3.61,10.1-6.13,20.58-11.68,30.33-18.31,5.74-3.91,10.57-9.09,17.87-10.21a22.43,22.43,0,0,0,3.11-1c7-2.19,8.95-4.56,9.41-12.1.42-6.92.8-13.85.88-20.78.3-26.84-8.68-50.74-24-72.32-3.81-5.37-9.55-9.39-14.69-14.3-1.13,2.74-1.93,4.69-3,7.36-3.43-3.89-6.46-7.3-9.47-10.73a6.41,6.41,0,0,1-.19-8.85c7-7.87,11.86-16.85,15.66-26.55.43-1.1,1.75-1.85,2.67-2.78l-2.17,14.88,1.32.37c.65-1,2-2.08,1.83-2.8-1-3.71,2.13-5.3,3.62-7.68,3.15-5.07,6.69-9.91,9.65-15.08a22.65,22.65,0,0,0,3.06-8.78c2.08-22.83.9-45.21-11.45-65.49-3.53-5.8-7.79-11.17-11.71-16.73l-1,.69,6.67,13.08c-6.92-4.65-13.2-9.61-19.47-14.59a2.49,2.49,0,0,1-.48-.66c-4.91-8.11-12.36-13.65-19.64-19.36-2.07-1.63-4.06-3.34-6.08-5,1.22-1,2.23-1.42,2.85-1.1,9.55,5.06,20.19,8.31,27.61,16.93,1.52,1.77,3.93,2.78,5.94,4.12,3.34,2.21,7.34,3.83,9.93,6.72,15.26,17,23.12,37.18,25,59.85,1,12,0,23.75-5.55,34.59-5.09,9.89-10.41,19.76-20.47,25.83-.75.46-.79,2.07-1.44,4a23,23,0,0,0,2.37-1.14c16.44-11.38,16.46-11.36,25.51-29.28,9.26-18.33,12.11-37.63,6.45-57.41-3.68-12.89-9.1-25.28-13.76-37.89-.5-1.36-1.12-2.67-1.68-4a2.49,2.49,0,0,1,2.13,1.1c11.86,16.7,18.08,35.55,20.44,55.68a63.62,63.62,0,0,1-6.09,36.18c-5.34,10.65-8.78,22.93-20.88,28.92-2.48,1.23-4.17,4-6.61,5.4-6,3.4-8.84,8.47-10.07,15.07-.48,2.59-.25,3.82,2,5.26,7.6,4.92,16,8.88,20.9,17.15,2.28,3.86,4.91,7.52,7,11.46,8.22,15.29,15.28,31.13,17.25,48.52,1.43,12.62,1.36,25.41,2,38.34L674,821.5s-.23.88-.47,1.74c-.28,1-.58,2-.84,3,6.31,4.4,6.31,4.39,12.11.38a16.06,16.06,0,0,1,2.08-1.3c13.35-6.7,26.62-13.57,40.13-19.93,3.6-1.69,5.58-4,5.8-7.51.53-8.26,1.47-16.64.68-24.82-2.32-24-10.24-46.36-21.55-67.55-3.67-6.88-8.18-13.1-14.88-17.54-3.18-2.11-5.91-4.91-8.84-7.4l.67-1.09c4.6,1.87,9.2,3.76,13.81,5.59s9.28,3.7,12,8.51c2.48,4.35,5.64,8.31,8.21,12.62,2.46,4.13,4.55,8.49,6.8,12.74-6.84-9.77-11.95-20.65-21.45-28.42,12,20.8,23.76,41.67,29.67,65.28l1.13-.35,1.61-4c4.41,15.93,4.76,31.16,3.82,46.8,5.58-1.61,10.73-3.25,16-4.58,9.15-2.33,18.45-4,27.84-2.2,4.44.83,8.27.88,10.69-1.45,1.78.54,2.78,1.16,3.74,1.09,6.42-.48,12.83-1,19.22-1.75a10.92,10.92,0,0,0,4.43-1.82,49.66,49.66,0,0,0,18.27-21.36c10.79-24.21,14.15-49.06,3.66-74.36-1.62-3.91-4.46-7.31-6.73-10.94l-1.36.77a67.55,67.55,0,0,1,10.35,31c.93,11,.91,22-2.63,32.74a16.08,16.08,0,0,1-.4-4.35c0-7.74.32-15.5-.16-23.21-.58-9.38-1.72-18.9-6.65-27.1a168.36,168.36,0,0,0-15.4-21.54C821,664,817.31,657.4,809.2,656.76c7.76-3.76,10.85,3.78,16.12,6.44-3.64-3.47-4-7.07-1.66-11.38,1-1.93,1.09-4.48,1.14-6.76.13-6.94.23-13.89,0-20.82a15.11,15.11,0,0,1,2.8-9.47c7-10.38,13.71-20.89,20.39-31.44.63-1,.2-2.63.27-4-1.13.69-2.61,1.12-3.32,2.11-5.9,8.15-11.66,16.42-17.47,24.63-1.14,1.61-2.34,3.18-3.53,4.78-3-3.22-2.09-5.68-.21-8.63a109.67,109.67,0,0,0,9-16.22c6.48-15.51,5.73-31.93,5-48.26C837.73,536.65,836.63,535.57,836,534.48ZM812.68,880.07c7.74-.75,15.19-1.39,22.62-2.21,17.17-1.92,34.34-3.72,51.67-2.35,1.57.12,3.54-1,4.84-2.08,5.79-4.92,11.45-10,17.05-15.15a6.64,6.64,0,0,0,2-3.61c.53-4,.74-8.1,1-12.17a4.46,4.46,0,0,0-.72-2.56c-2.83-4.14-5.92-8.1-8.63-12.31-3.74-5.83-8.71-10.25-15.18-12.45a208.76,208.76,0,0,0-22.72-6.39c-6.53-1.42-12.74-2.91-18.55-6.67a39.58,39.58,0,0,0-15.36-6.21,143.33,143.33,0,0,0-49.44,1.27c-9.81,2-18.9,6.07-28.1,10.26C743,812.05,734,817.51,726.32,825.35c-1.61,1.64-2.35,4.1-3.67,6.06a5.25,5.25,0,0,1-2.49,2.1A22.81,22.81,0,0,1,705,832.38c-1.18-.47-2.73-1-3.76-.66-3.09,1.17-6,2.8-8.91,4.2,1.3,1.44,2.81,2.38,3.16,3.64.88,3.19,3,2.59,5.38,2.62a120.4,120.4,0,0,1,15.56.77c3.27.46,6.36,2.18,9.81,3.43a23.62,23.62,0,0,0,1.61-3.79,20.32,20.32,0,0,1,10.82-13.67c11.47-5.86,23.28-11.06,35-16.49.47-.22,1.14,0,2.73,0-2,1.1-3.2,1.76-4.38,2.35-9.86,4.9-19.79,9.67-29.58,14.73A28.94,28.94,0,0,0,727.51,847l13.36,9-.55,1c-5-.55-9.94-1-14.88-1.66-8.46-1.17-17-2.21-25.31-3.87-8.63-1.72-17-4.59-25.71-6.06a166.94,166.94,0,0,0-27.89-2.84c-10.78,0-21.56,1.66-32.35,2.32-9.46.58-18.62,1.94-27,6.69-5.68,3.21-11.45,6.26-17.21,9.34-3.2,1.71-6.44,3.35-9.91,5.15-.24-1.89-.41-3.3-.63-5l-5.4,1.17v4.36l-6.33-1c-6.6,6.45-8.56,24.26-2.92,33.27l-.88-4.17c1.31.71,2.51,1,2.53,1.43.19,5.2,4.56,7.81,7.06,11.54,4.9,7.31,10,14.52,15,21.74,2.37,3.42,5.57,4.48,9.52,3.23.25-1.64.49-3.16.74-4.78,8.26,2.42,16.06,4.79,23.91,7a83.12,83.12,0,0,1,19.2,7.62c5,2.83,10.81,4.39,16.46,5.63,6.08,1.33,12.55,1,18.54,2.52A333.87,333.87,0,0,1,691.16,961c6.94,2.63,12.46.23,19.07-1.84l-20.05-8.88c5-2.4,8.89-2.58,13.28-.23,4.75,2.54,10.08,4,15.19,5.8,4.48,1.58,9,3,13.52,4.5l-.21,1.07-4.58,1.29c3.18,3,6,5.72,8.84,8.43,1.48,1.42,2.71,3.71,4.44,4.2,25.4,7.12,50.87,14,76.34,20.89a11.66,11.66,0,0,0,4.37.12c2.64-.34,5.27-1.42,7.86-1.3,11,.54,22,1.56,33,2,2.47.11,5.09-1.09,7.49-2.07s4.53-2.46,6.81-3.66c11.43-6,24.79-6.69,36.13-13.34,6.3-3.69,10.64-8.14,11.31-15.21.5-5.21-.24-10.54-.48-15.82-.07-1.49-.34-3-.52-4.46,5.75,7.68,6.62,19.87,2.86,31.82.88-.6,1.56-1,2.14-1.47,18-15.22,21.22-35.79,12.57-56.89-2.68-6.53-9-8.75-13.6-13-5.11-4.79-11.33-6.77-18-7.85a39.05,39.05,0,0,1-6.62-1.72c-3.94-1.37-7.7-3.45-11.73-4.32-18.19-3.93-36.67-4.09-55.15-3.36-5.1.19-10.17,1.54-15.2,2.57-1.18.24-2.17,1.35-3.25,2.06,20.15-1,39.85-1.62,59.44,1.88-2.84.19-5.68-.14-8.51-.1-18.35.23-36.71.2-55,.92-16.38.65-33.06.6-47.63,10.2-1.15.76-3.1.3-4.68.41.61-1.61.8-3.63,1.9-4.76,4.43-4.54,9.14-8.81,13.9-13.34-1.91-4-3.61-8.49-.49-12.79.78-1.07,3.2-.94,5.23-1.45-1.93,10.8,2.39,13.6,13.11,10.28l-12.1-12.14c8.1.7,15.29,1.1,22.42,2C810.56,872.14,811.87,873.75,812.68,880.07Zm253.94-8.48c2.58,2.79,4.86,5.12,7,7.62.46.55.23,1.67.32,2.52a6.94,6.94,0,0,1-2.55.11,7.94,7.94,0,0,1-2.26-1.71c-13.67-12.25-29.23-21.7-45.29-30.38a29.44,29.44,0,0,0-6-2.24c-10.67-3-21.53-1.91-32.41-1.75-22.46.31-43.17,6.45-62.51,17.52-8,4.55-15.57,9.67-24.13,15,6.17,1,11.23,1.7,16.22,2.74,12.05,2.49,20,10.23,24.89,21a83.79,83.79,0,0,1,6.42,18.77,113.64,113.64,0,0,1,2.32,25.38c-.23,5.83-3.19,11.57-5.06,17.76,3.45,1.52,7.15,3.85,11.16,4.71,4.27.92,9.2,1.63,13.21.39,17.66-5.46,35.23-11.29,52.57-17.68,17.52-6.46,34.46-14.27,49-26.35,1.34-1.11,2.79-2.88,2.94-4.46.92-9.36,1.39-18.74-1.75-27.87A23.46,23.46,0,0,1,1070,889a3.69,3.69,0,0,1,1.76,1.76c5.48,10,5.15,21,4.55,31.87a5.59,5.59,0,0,1-2.35,3.51c-6,4.22-12,8.52-18.28,12.25-5.87,3.47-12.15,6.26-18.24,9.35,12.2-3.33,24.15-7.34,36-11.48a6,6,0,0,0,3-2.49c1.49-2.63,2.63-5.44,3.91-8.19,1.19-2.55,3.09-5,3.42-7.68,1.13-9,.73-17.91-2.44-26.55-1.09-3-2-6-3-9l1-.37c3.46,5.27,7.45,10.31,8.38,16.84.9,6.3,1.46,12.66,2.18,19.16a27,27,0,0,0,.86-30.82c-4.63-7.17-10.12-13.79-15.37-20.54-2.54-3.26-5.42-6.26-8.15-9.38a4.72,4.72,0,0,1,3.26.71c11,6.61,19.26,16,25.66,26.87,8.29,14.11,6.21,28.26-5.47,39.78-3.4,3.36-7.26,6.27-11.79,10.13,9-3.1,17-5.74,24.86-8.61,11.1-4,22.18-8.13,33.19-12.44,6.18-2.42,12-5.72,18.3-7.92,30.25-10.65,61.25-19.36,89.36-35.41a8.55,8.55,0,0,1,2-.57l.64,1.32c-8.16,4.47-15.93,10-24.55,13.22-21.86,8.26-44.11,15.52-66.2,23.18-4.71,1.63-9.44,3.23-14.16,4.85a16.47,16.47,0,0,0,6.82-.91c14-4,27.86-8.37,42-12,11.84-3,23.94-5,35.89-7.64,6-1.32,12.32-2.1,17.58-4.88,13.64-7.2,21.36-19.44,25.32-34,1.87-6.91,1.18-13.19-5.62-17.9-6-4.16-11.38-9.27-17.11-13.85-12.58-10.07-27.2-14-43-13.45-8.92.32-17.61-.26-26.13-3a5.47,5.47,0,0,0-1.61-.25c-10.72.12-21.44.21-32.16.45-.81,0-1.58,1.14-2.42,1.67-2.07,1.31-4,3.11-6.29,3.72-2.83.77-5.94.43-8.91.78-12.81,1.49-26.28-.83-38.06,6.58a15.16,15.16,0,0,1-1.47.69c-13.91,7-27.57,14.5-42.35,19.63a22.49,22.49,0,0,0-2.85,1.58c1.46,1,2.59,1.63,3.62,2.41,5.09,3.86,10.51,7.36,15.1,11.73,3.35,3.19,5.81,7.41,8.27,11.42C1070.39,867.52,1070,870.07,1066.62,871.59Zm139.62,319.16c.86,1.17,1.21,1.55,1.46,2,2.47,4.35,4.18,9.41,7.52,12.94,7.07,7.48,14.86,14.32,22.59,21.15,13.45,11.86,25.52,24.92,30.26,42.62,3.11,11.62,8.54,23.44,3.1,36a4.36,4.36,0,0,0-.05,1.62c-.14,13.88-.2,27.75-.48,41.62-.07,3-1,6.07-1.54,9.56a41.48,41.48,0,0,0,6.46-.06c3.76-.54,6-3.16,6.88-6.67.39-1.56-.66-3.43-.45-5.08,4-30.61,3.78-61.35,2.25-92.05-.82-16.26-6.51-31.22-17.94-43.22-6.73-7.07-14.26-13.37-21.55-19.89-5.67-5.07-11.82-9.66-17.14-15.06-2.38-2.42-4.62-6.35-4.58-9.56.26-23.65-.35-47.46,2.17-70.91,2.91-27.11,8.69-53.93,13.34-80.85,1.26-7.27,2.94-14.46,4.62-22.63-16.77,12.17-32.73,23.93-50.36,33.19a3.3,3.3,0,0,1,1.22-2c15.84-11.29,31.73-22.51,47.49-33.9a9.8,9.8,0,0,0,3.46-5c2.69-9.7,5-19.48,7.56-29.22.89-3.46,1.91-6.88,2.87-10.31l-1-.76c-6.9,5-14.59,9.19-20.55,15.13-15.48,15.44-30.24,31.63-45.18,47.62a8.81,8.81,0,0,0-2.34,5c-1,15.06-1.79,30.12-2.61,45.19a18.48,18.48,0,0,0,.33,3L1238.4,1003l1.12,1-46.2,54.68.66.66,30.26-24.83c-5.47,9.94-31.11,32.25-41,36.33.54,14.36-.18,29.2,2,43.61,3.34,22.55,8.38,44.87,13.27,67.16,1.07,4.88,4.51,9.24,6.86,13.84l1.21-.51C1206.41,1193.81,1206.35,1192.72,1206.24,1190.75ZM919.08,823c5.73-1.93,7.26-1.07,8.9,4.17.27.87,1,2.1,1.75,2.25,7.7,1.57,15.43,4.07,23.16,4.11,9.39,0,18.79-2.21,28.21-3.17,13.24-1.35,26.55-3,39.6,1.31,5.54,1.84,11,4,16.49,5.92,1.21.42,2.79,1,3.79.61,6.35-2.73,12.57-5.73,18.87-8.66-.32-4.34-3.21-6.21-7.17-4.23-4.5,2.25-8.79,4.9-13.24,7.24a39.48,39.48,0,0,1-5.15,1.87l-.38-1.11c5.48-3.23,11-6.41,16.42-9.72,1.05-.64,2.37-1.65,2.59-2.7a69.34,69.34,0,0,0,1.26-9.63c.29-4.08-.57-7.3-4.72-9.73-8.33-4.86-16.17-10.56-24.33-15.71-20.85-13.16-43.28-19.49-68-14.89-7.44,1.38-14.78,3.31-22.12,5.2-10.64,2.73-21.32,5.37-31.81,8.59-10.27,3.16-20.33,7-29.45,10.18C891.31,798.38,909.16,804.12,919.08,823ZM451,299.28c-10.71,9.1-17,23.18-16.75,36.1.07,3.54-.68,6.77-4.38,8.49a3.39,3.39,0,0,0-1.73,2c-1.31,6.67-3.23,13.33-3.57,20.06-2.2,42.86.07,85.36,11.3,127.07,1,3.88.82,8.1,1.19,12.16l-1.18.14a950,950,0,0,1-19.7-94.77,5.8,5.8,0,0,0-1.11,3.83c.42,5.28.78,10.58,1.5,15.83,3.9,28.3,8,56.59,16.56,83.95,2.14,6.83,5.71,13.19,8.13,19.94,3.39,9.44,6.34,19.05,9.44,28.6,10,30.63,20,61.24,29.81,91.92,2,6.28,3.16,12.83,4.67,19.09-4.54.06-4.38-3.26-5.27-6-1.46-4.51-3.1-9-5-13.32-1.77-4.06-5.17-4.52-8.76-3.56,6.27,20.16,12.47,40.08,18.73,60.23-.15-3-.29-5.76-.44-8.55l1.18-.14c3.05,19.17,6.62,38.29,9,57.55,2.34,19,3.26,38.18,5.2,57.23,2.1,20.65,5.59,41.18,3.81,62.07-.46,5.41-.58,10.85-.66,16.28-.11,7.42,0,14.85,0,21.79,1.38-6.13,2.92-12.59,4.26-19.09a59.47,59.47,0,0,0,1.6-10.71c.39-22.44.13-44.91,1-67.33.85-22.9-2.3-45.24-6.57-67.61-2.59-13.53-7.06-26.54-8.93-40.34-3.06-22.61-8-45-12.38-67.38-1.61-8.23-4.62-16.07-6.26-24.38-2.34-11.95-6.62-23.54-10.49-35.14-2.88-8.63-6.73-16.94-9.59-25.58-7.69-23.29-12.54-47.29-17-71.37-4.1-22.22-8.11-44.5-8.23-67.14-.1-21.47.46-43,1.82-64.41,1.18-18.48,6.13-36.16,15.94-52.19C449,303.11,449.7,301.58,451,299.28Zm490.66,865.16c-5.24,5.64-10,10.86-14.84,15.94-4.07,4.25-4.17,4.46-1.06,9.64.63,1,1.32,2.06,1.95,3.11,7.87,13.09,14.85,26.6,19.2,41.31,2,6.69,3.71,13.45,5.56,20.18,8.66-7.86,11.15-16.54,7.56-29.51l-6.35,8.55-1.44-1.24c2-2.57,4.13-5.06,6-7.74,1-1.39,2.22-3.23,2-4.66-1-6.26-2.44-12.44-4-19.73-4.2,4.41-7.54,7.9-10.89,11.4l-1.3-1a26.81,26.81,0,0,1,1.74-3.62c2.1-3.17,4.42-6.21,6.47-9.42.66-1,1.36-2.63,1-3.65-1.41-4.34-3.2-8.55-5-13.28l-15.43,15.38L931.6,1195c3-4.41,5.55-9.38,9.28-13.1C946.09,1176.66,945.77,1171.68,941.62,1164.44ZM542.85,861.35l-22.31-27.74v71l1.12.11c.43-1.49.85-3,1.28-4.45l.71.12c.32,1.21.64,2.42,1.19,4.53l14.8-5.66C535.64,885.21,533.65,872.54,542.85,861.35Zm-4.26-15.68a4.26,4.26,0,0,0-.26-1.08c-10.44-18.84-16.16-39.29-18.48-60.46-1.54-14-.75-28.21-1-42.33-.07-3.8,0-7.61-.28-11.38-.59-7.18-1.88-14.33-2-21.51-.25-12.36-2.45-23.88-10.89-33.51-1-1.11-1.34-2.76-2.37-3.79a32.53,32.53,0,0,0-4.43-3.21c4,13.56,8.15,26.37,13.1,38.85A34.34,34.34,0,0,1,514.23,724c-.85,9.12-.07,18.41.14,27.62.22,9.47.29,18.95,1,28.38.58,7.7,2,15.34,3.06,23,.64,4.84.6,9.84,1.83,14.51C523.22,828.76,531,837.16,538.59,845.67Zm648.8,154.47.92.19c6.63-7.53,13.19-15.13,19.9-22.59,14-15.6,28.38-30.82,48.12-39.5a4.61,4.61,0,0,0,2.15-2.23c1.3-3.11,2.38-6.32,4-10.65-2.84.85-5,1.06-6.67,2.11-2.53,1.6-4.6,3.9-7,5.69-19.51,14.53-38.92,29.18-56.41,46.17a7.19,7.19,0,0,0-2.27,3.26C1189,988.41,1188.26,994.28,1187.39,1000.14Zm-228.06,26.6a18.58,18.58,0,0,0-1.8,1.35c-10.07,10.09-19.89,20.43-30.26,30.19-6.08,5.72-9.37,11.85-7.86,20.33.53,3,.09,6.18.09,9.28a4.94,4.94,0,0,0,2.62-1.68q15.61-17.42,31.2-34.83a6.51,6.51,0,0,0,1.57-2.75C956.39,1041.62,957.76,1034.57,959.33,1026.74ZM523,988.57c-3.9.9-4.7,2.77-4.13,6.09,2.72,16.09,4.7,32.32,7.9,48.31,4.87,24.25,10.29,48.4,16,72.47,1.54,6.42,5.11,12.36,7.75,18.52l1.52-.56C537.26,1086.25,529.59,1037.67,523,988.57Zm427.46,85.64a27.82,27.82,0,0,0-2.54,2.33q-13.29,17.46-26.53,35a4.77,4.77,0,0,0-1.11,2.56c-.1,5.9,0,11.8,0,18.73,1.23-1.42,1.76-1.94,2.2-2.54q11.61-15.91,23.2-31.84a5.65,5.65,0,0,0,1.19-2.09C948,1089.32,949.1,1082.3,950.42,1074.21ZM845.85,1094l-1.55-.63c-.56,1.46-1.63,2.94-1.61,4.4.12,11,.23,22,.77,33,1,20.49,2.22,41,3.51,61.44.26,4.11,1.25,8.17,1.91,12.25C850.47,1167.53,850.34,1130.71,845.85,1094Zm99.72,10.72a28.55,28.55,0,0,0-2.63,2.53q-10.91,15-21.73,30a4.61,4.61,0,0,0-.86,2.24c-.55,6.6-1,13.21-1.52,20.15a9.51,9.51,0,0,0,1.14-1.33c5.6-10.62,12.12-20.58,20.89-28.92a5.24,5.24,0,0,0,1.63-2.7C943.56,1119.8,944.46,1112.82,945.57,1104.76Zm247.16-134.82,42.94-34.76c-8.14,1.71-16.77,1.54-23.34,8.07A126.7,126.7,0,0,1,1198.82,955C1193.54,958.91,1193.23,964.37,1192.73,969.94ZM963.84,1283.36c-1-8.91-2.09-19.68-3.29-31-2.16,2.63-3.64,5.24-5.84,6.89s-2.33,3.47-2.33,5.87c0,7.45-.18,14.91-.45,22.36-.13,3.41-.62,6.8-1,11Zm-10.27-227.87c-1.75,1.62-2.8,2.43-3.66,3.41-9.08,10.45-18,21.07-27.25,31.33-4.58,5.06-2.29,10.39-2,15.78a36.23,36.23,0,0,0,3.22-4.34c7.66-10.17,14.71-20.92,23.35-30.19C951.61,1066.73,952.21,1061.9,953.57,1055.49Zm-403-128-.26-1.35c-2.15.22-4.89-.34-6.34.78-6.54,5-12.75,10.55-19,16a5,5,0,0,0-1.8,3c-.2,4.51-.09,9-.09,14.62Zm367.73,121.79,1.21.52c7.1-11.83,15.44-22.57,26.7-30.83-6.77,1.32-13.36,2.82-19.86,4.61a4.74,4.74,0,0,0-2.82,2.82C921.66,1034,920,1041.7,918.32,1049.33Zm268.5,105.07c-11.44-45.34-8.73-91.24-6.17-137.28a13.92,13.92,0,0,0-2.42,6.85c-.19,32.24-.49,64.48-.18,96.71C1178.16,1132.44,1183.07,1143.32,1186.82,1154.4ZM508,902.41v38.34c3.94-7.27,2-15.62,4.67-23.24.31,4.87.63,9.74,1,15.36,2.88-3,5.2-5.42,7.5-7.86.9-1,1.74-2,2.65-3.06C511.19,916.32,511.65,912.15,508,902.41ZM441.17,419.46c2.18,25.56,1.89,51.53,13.13,75.35l1-.19Q448.24,457,441.17,419.46ZM964.56,1288a11.54,11.54,0,0,0-1.39,1q-5.82,6.42-11.62,12.88c-1.29,1.43-.63,6.69.94,6.68,3.79,0,7.79,1.29,11.11-2.24,1.31-1.39,3.83-1.63,6.48-2.65C968.46,1299.06,966.56,1293.64,964.56,1288ZM534.45,930c-7.76-5-7.77-5-13.5,1.31-1.36,1.5-2.57,3.17-4.06,4.53-3.9,3.59-3.67,8-3.09,12.66,7-2.6,7.39-8.68,7.57-14.9l1.28.43c.21,1.78.43,3.56.72,6ZM955.2,973.17c-4.82-2.5-8.49-4.49-12.26-6.27a3.07,3.07,0,0,0-2.78.28c-4.39,4.29-8.64,8.73-13.71,13.92Zm101.91-174.92c-3.59-5.63-26-19.31-33.06-20.14,4.12,3,8.07,5.59,11.71,8.57s6.91,6.49,10.52,9.55C1049.4,798.85,1053.14,798.8,1057.11,798.25Zm-587-222.33c.07-11.65-6.46-47.5-9.17-51.69C461.81,541.38,463.75,558.58,470.08,575.92Zm708.5,436.16c4.09-3.36,7.53-17.29,5.83-25.48-2.21,2.67-5.09,5.43-5.6,8.57C1178,1000.57,1178.58,1006.2,1178.58,1012.08ZM515.66,971.22c7.77-7.46,4.26-15.61,4.38-23.39-2.29,1.85-5.33,3.88-5.48,6.11C514.19,959.37,515.16,964.88,515.66,971.22Zm663.79,12c7.68-4.44,10-11.54,11.33-19.32C1183.1,968.41,1179.13,975,1179.45,983.2ZM836.68,619.72c-3.62,3.32-6.26,5.9-5.84,10.68.48,5.53.19,11.12.3,16.68a27.43,27.43,0,0,0,.52,3.57l.94-.07C833.92,640.58,835.24,630.57,836.68,619.72Zm438.06,239.69-1.52-1c-2.4,3.58-5.07,7-7.1,10.8-.77,1.44-.08,3.65-.06,5.51,1.87-.76,4.31-1,5.5-2.4C1274.76,868.7,1274.93,864,1274.74,859.41ZM510,983c3.87-9.27.19-17.5.8-26.21C507.07,959.35,506.87,972.46,510,983Zm663.58,45.2c-3.27,4.79-2.84,27,0,31.31Zm-597.31-28.3,1.09.14c.48-2.08,1.9-4.53,1.27-6.18-2.55-6.65-5.73-13-8.68-19.54l-.46.2ZM828,430.55c-5.47-.39-4.47,3.66-5.31,6.55-1.37,4.7,2.52,5.63,5.31,8.36Zm345.45,650.1-1.49-.86c-.9,1.28-2.71,2.71-2.54,3.84.88,5.93,2.25,11.78,3.46,17.67l.57-.12ZM518.11,986.52c4.63-2.49,5.3-7.36,2.26-14.1C515.93,976.43,516.5,981.21,518.11,986.52Zm655.34,13.86c-2.62,6.71-1.14,13.69-1.07,20.58C1174.91,1014.25,1173.6,1007.27,1173.45,1000.38ZM491,641.76l-.41.11c1.68,7.2,3.24,14.44,5.14,21.59.31,1.15,2.14,1.89,3.26,2.81l.57-.8Q495.32,653.6,491,641.76Zm569.16,167.36-1.12.58c-.18,1.71-.88,3.6-.37,5.07.42,1.21,2.52,2.89,3.47,2.66,3.48-.82,6.79-2.35,10.77-3.83-3.19.18-6,1-8.2.26C1062.9,813.25,1061.68,810.77,1060.19,809.12Zm-546,198.82,1.63-.43c-.67-4.77-1.28-9.55-2.08-14.3-.1-.6-1.22-1-1.87-1.55-.38.72-1.14,1.48-1.06,2.15a77.23,77.23,0,0,0,1.39,8.81A40.7,40.7,0,0,0,514.2,1007.94ZM919.42,851.38l10.2-5.92-10.88-1.59C918.93,846,919.13,848.25,919.42,851.38ZM555.05,1143.83c-2.73,3.33-.29,10.68,5.2,15.6C558.46,1154,556.84,1149.2,555.05,1143.83Zm-25.8-219.41,6.77,4.3,5.31-4.25c-.18-.46-.35-.92-.53-1.37ZM854.83,788.77l-.15-1.71-2.89-1.74-5.19,5,.52,1.18ZM507,954.84l2.32.48c.36-2.89.72-5.77,1.09-8.66l-1.77-.3C508.09,949.19,507.54,952,507,954.84Zm663.84,36.81,2.1.6q1.23-4.37,2.44-8.72l-2-.57ZM838.21,790.06l.25-.83-4.15-3.39-4.54,3.7Z"/>
    <path d="M536.55,1003.88c.29,2.15.44,4.34.92,6.46,2.62,11.66,5.08,23.37,8,34.94,9.37,36.48,18.56,73,28.63,109.31,4.46,16.08,11.07,31.54,16.3,47.42,2.83,8.62,4.87,17.51,7.1,26.32a10.39,10.39,0,0,1-.54,5.44,19.49,19.49,0,0,1-1.61-2.93c-8.47-23.53-18.22-46.7-25-70.71-10-35.31-17.85-71.22-26.58-106.88-2.4-9.77-5-19.52-6.92-29.38-1.16-5.83-1.27-11.86-1.79-17.8a7.67,7.67,0,0,1,.46-2.15Z"/>
    <path d="M828.87,1022.61c3.92,3.31,8.25,6.25,11.7,10,9.11,9.87,17.94,20,26.62,30.25,1.32,1.56,1.27,4.29,1.85,6.47-2-1.07-4.55-1.67-5.93-3.28-10.9-12.65-21.59-25.49-32.31-38.3a50.35,50.35,0,0,1-2.89-4.25Z"/>
    <path d="M405,396.16c1.41,34.76,2.44,69.56,9,104.7C405.49,492.64,400.28,412,405,396.16Z"/>
    <path d="M637.48,202c21.72-9.46,100.71,5.95,116.48,22.95-5.25-1.95-10.51-3.87-15.75-5.87-22.89-8.74-46-16.76-70.75-18.09-8-.43-16,.3-24,.53C641.74,201.54,640,201.76,637.48,202Z"/>
    <path d="M849.62,1073.48c1.14,1.6,1.88,2.59,2.58,3.61,3.06,4.44,6.23,8.81,9.11,13.37.79,1.27.69,3.1,1,4.67-1.36-.58-2.92-.9-4-1.77-5.68-4.47-7-11.35-9.34-17.61C848.79,1075.39,849.19,1074.84,849.62,1073.48Z"/>
    <path d="M978.15,984.85l8.4-2.33.41,1.19-8.24,3Z"/>
    <path d="M555.05,1143.83c1.79,5.37,3.41,10.21,5.2,15.6" style="fill: #fff"/>
    <path d="M577.11,441.54c3.27-9.15,7.58-18.08,9.62-27.5,4.4-20.29,2.65-40.55-3.63-60.34-2.25-7.12-4.8-14.17-7.63-21.08-4-9.83-8.52-19.44-15.73-27.48a55.12,55.12,0,0,1-3.67-5.11l1-.82c4.41,4.82,9.79,9.06,13.06,14.55,16.49,27.66,25.07,57.55,22.43,89.95-1.1,13.42-6.34,25.82-12.38,37.78-2.32,4.61-4.85,9.13-7.55,13.53-1.26,2.07-1.42,3.47.44,5.26,6.91,6.68,13.71,13.48,20.54,20.24a8.86,8.86,0,0,1,2.45,3.49c-13.33-3.05-20.3-12.91-25.67-24.81-1.25,1.58-2.17,2.73-3.09,3.88-6.11,7.68-6.26,5.91,1,12.72,8.58,8.1,17.84,15.49,26.8,23.19.88.76,1.7,1.59,2.54,2.38-.15.41-.3.81-.44,1.21-1.79-.45-4-.4-5.29-1.44-7.26-5.65-14.46-11.39-21.37-17.47-3.52-3.1-6.36-7-10.16-11.2-7.47,12-14.68,23.52-22,35.17-3.71-11.63-4.68-23,3.41-33.38,2.15-2.77,4.43-5.45,6.66-8.15.25-.31.62-.72.95-.74,8-.32,8.68-7.57,11-12.46,15.57-32.57,16.25-66,4.43-99.85-5-14.26-13.72-26.15-24.9-36.28a52.8,52.8,0,0,1-4.22-4.84l1-1.19a28.34,28.34,0,0,1,2.87,1.42c16.89,10.87,27.86,26.36,35,44.87a93.38,93.38,0,0,1,6.51,33c.12,17.09,1.24,34.34-5.61,50.73Z"/>
    <path d="M745.88,655c-7,1.22-12.79-1.67-17.87-6.27s-8.37-10.26-8.47-17.84l-10.4,12.56c7.65,10.8,19.69,14.63,31.68,19.16-7.24,5.65-21.51-1.09-35.11-15.68-5.53,5.35-13.88,8.69-12.1,19.25l7.69-4.93.78,1.06c-2.07,1.72-3.89,4.1-6.27,5-6.09,2.37-8.91,7-10.65,12.82-.62,2.05-1.51,4-2.28,6-6.69-3.4-10.57-13.35-7.69-19.52,2.4-5.15,4.54-10.56,7.79-15.15,4-5.72,9.28-10.55,13.65-16,8.94-11.23,16.49-23.38,21.58-36.82a54.85,54.85,0,0,0,3.27-15.83c.65-10.72.65-21.44-2-32A101.47,101.47,0,0,0,706.64,521c-3.45-5.45-6.76-11-10.14-16.48l.87-.71c2.47,2.38,4.84,4.87,7.41,7.13,18.71,16.4,25,37.85,25.12,61.76,0,5.83-.58,11.67-.55,17.5,0,2,1.54,4,1.6,6,.28,9.41-1.09,18.76-6.42,26.54-4.45,6.49-2.36,11.88.71,17.3,3.41,6,8.94,9.76,15.49,11.95l5.57,1.86Zm-22.3-47.14c-.66,1.16-1.35,2.31-2,3.49a124.1,124.1,0,0,1-21.52,29.57c-4.67,4.69-4.75,4.61-4.78,12.36C705.27,638,719.59,626.23,723.58,607.87Z"/>
    <path d="M673.66,282.9q9,9.15,18,18.31a20.35,20.35,0,0,1,2.84,3.46c15.46,25.21,22,51.82,12.93,81-2.19,7-3.89,14.16-5.73,21.27-.26,1,0,2.07,0,4.31,4.61-3.89,5.92-8.58,7.51-13s2.92-9.2,4.69-14.88c1.55,8.73-.35,15.91-3.24,22.69S703.77,419.3,700.5,426a8.32,8.32,0,0,0-.76,5.16c1.7,6.81,6.22,11.63,11.84,15.53,2.41,1.67,4.85,3.29,7.75,5.25-8.89.86-18.29-8.08-22.32-20.61a66.47,66.47,0,0,0-6.69,5.8c-.66.72-.58,2.74-.06,3.79,3.7,7.56,8,14.6,16.63,17.57.43.14.74.62,1.85,1.61-6.62.29-11.21-1.9-14.38-6.41-2.93-4.17-5.21-8.81-7.83-13.33-4,.63-5.53,2.79-5.24,7,.82,12-3.07,23-8.15,34-7-5.94-10.21-13.08-8.34-21.74s4.45-17.09,6.78-25.62c.83-3,2.83-4.35,6.09-4.16a5.68,5.68,0,0,0,4.12-1.38c10.9-12.21,19-25.81,20-42.65,1.11-17.88.83-35.7-5-52.87a198.76,198.76,0,0,0-22.29-46.61c-.58-.88-1.13-1.77-1.69-2.66Z"/>
    <path d="M836,534.48c0,10.7.87,21.53-.4,32.08C834.19,578.37,829,589.17,822,599a8,8,0,0,0-1.24,3.68c-.89,8.38-3.1,16.38-8.13,23.18-2,2.76-5.47,4.52-8.28,6.72-.5.39-1.39.63-1.51,1.1-1.85,7-8.43,12.25-7.27,20.38.2,1.38-1,3-1.81,5.06-3-2.27-5.55-4.16-8-6.21a3.32,3.32,0,0,1-1.2-2.41c.62-5.13-.8-10.65,2.93-15.23a6.88,6.88,0,0,0,1-3.44c.37-3.25,1.67-5.85,5-6.74s5.84.44,7.6,3.33a6.14,6.14,0,0,0,1.15,1c9.09-5.91,12.13-15.31,14.55-25.18l-4.49,3.23-.83-.6c1.29-2,2.47-4.17,3.89-6.13,14.89-20.66,19.55-43.49,14.93-68.44-2.59-14-6.35-27.56-12.69-40.31-1.79-3.6-4.27-6.85-6.43-10.26l1-.95c3,3.09,6.75,5.73,8.76,9.35,7,12.69,11.31,26.44,14.06,40.68a37.67,37.67,0,0,0,1.14,3.85Z"/>
    <path d="M714.3,796.76a36.05,36.05,0,0,1,.81-3.63c7.9-23.14,4.52-45.27-6.11-66.68a171.71,171.71,0,0,0-9.65-17.5c-3-4.58-6.92-8.57-10.44-12.81-.73-.88-1.54-1.71-2.31-2.56l.91-1.37c3.47,2,8.08,3.23,10.2,6.21,12.19,17.16,23.19,35.17,25.73,56.58,1.63,13.67,1.58,27.55-7,39.68-.31.44-.52,1-.85,1.39C715.49,796.26,715.18,796.32,714.3,796.76Z"/>
    <path d="M453.17,379c1.9,10.51,3.67,21.06,5.73,31.54,2.63,13.34,5.46,26.65,8.26,39.95,2.54,12,6.37,23.62,12.49,34.37a49.54,49.54,0,0,1,2.31,5.33l-1.14.69c-1.94-2.5-4-4.91-5.81-7.5-7.48-10.63-10.56-22.94-12.77-35.41-3.51-19.81-6.59-39.7-9.69-59.57-.48-3-.07-6.21-.07-9.32Z"/>
    <path d="M538.76,254.34c-1.33,2.79-2.07,4.62-3,6.3-1.36,2.35-3,4.53-4.36,6.88-3.8,6.59-2,12.85,4.55,16.48l5.25,2.87c-5.37,1.14-11.51-.73-14.35-4.35-3.58-4.58-2.8-9.75-1.31-14.78C526.64,263.91,533.53,256.88,538.76,254.34Z"/>
    <path d="M655.55,254.08c-3-3.77-7.77-6.25-7.91-12.23s.91-11.35,5.15-15.62l1.2.24c-.59,4.64-2,9.35-1.54,13.89s2.64,8.71,4.08,13.06Z"/>
    <path d="M587.7,551.12c-3.84-3-7.53-5.93-11.14-8.9-.52-.43-.66-1.31-1-2a7.23,7.23,0,0,1,2.4-.93c4.4,0,6.4,3.34,8.23,6.55C587.09,547.41,587.23,549.37,587.7,551.12Z"/>
    <path d="M574.52,839.29c-4.89,5-9.68,3.87-14.33,3.54l-.26-1.54Z"/>
    <path d="M757.73,896.71a45.54,45.54,0,0,1-4.91,1.63c-12.53,2.69-19.92,11.48-25.89,21.87-5.21,9.08-8.69,18.69-8.21,29.39a5.5,5.5,0,0,1-1.2,3.73c-.32-1-.68-2-.94-3.05-3.38-13,.74-24.57,7.31-35.29a71.66,71.66,0,0,1,13.55-16c5.66-5,12.92-5.33,20.06-3.47C757.58,895.9,757.66,896.31,757.73,896.71Z"/>
    <path d="M728,952.84c-1.51-5.39-2.45-10.92-.66-16.45,3.8-11.75,11.86-19.88,22.7-25.37,1.12-.57,2.71-.24,4.09-.32-.61,1.19-1,2.67-1.88,3.51-3.21,2.93-6.71,5.53-9.92,8.44-7.27,6.6-12.46,14.28-12.41,24.62a45.29,45.29,0,0,1-.66,5.65Z"/>
    <path d="M599.92,925.86c-11.19-10.61-22.45-21.2-31-34.19-1.41-2.15-1.3-5.28-1.9-8l1-.36,32.68,41.82Z"/>
    <path d="M552.56,892.81c-1.79.4-3.66.37-3.13-3.12,1.49-9.74,14.49-23.86,24.2-26.16a20,20,0,0,1,2.78,0c-1.9,2-3.13,3.4-4.46,4.69-4.26,4.15-9,7.93-12.73,12.49C556.46,884.05,554.91,888.41,552.56,892.81Z"/>
    <path d="M729.06,828.21c4.89-7.35,12.05-12,19.58-16.06a47.36,47.36,0,0,1,10.13-3.77c-4.79,2.45-9.86,4.47-14.29,7.45C739,819.51,734.11,824,729,828.11Z"/>
    <path d="M769,863.14c3.36.24,6.75.26,10,.83,1.14.2,2,1.76,3.05,2.69-1.41.4-3,1.42-4.18,1.06a87.54,87.54,0,0,1-9.2-3.83Z"/>
    <path d="M729,828.11q-3.09,6-6.19,12l-.86-.5,7.15-11.44Z"/>
    <path d="M1213.49,881.35c11.81-11.75,26.77-20.07,35.88-34.61l1.09.6c-1.16,2.52-2,5.21-3.53,7.51C1242.14,862.16,1222.08,878.11,1213.49,881.35Z"/>
    <path d="M1224.92,998.38l-33.4,25.23-.82-1.05,32.94-25.75Z"/>
    <path d="M1203.69,1076.07c.23-1.49,0-3.3.77-4.41,4.21-6.06,8.67-12,13-17.91l1.09.75-13.32,21.77Z"/>
  </g>
</svg>
