<svg id="Layer_1" data-name="Layer 1" xmlns="http://www.w3.org/2000/svg" width="600mm" height="600mm" viewBox="0 0 1700.79 1700.79">
  <title>sketches frames</title>
  <g>
    <path d="M1103,728.29c-29.51-5.8-59.64-3.83-89.4-6.36l0-1.86c1.81-.27,3.61-.69,5.43-.78,56.08-2.88,111,3,164.15,22,18.43,6.59,36.2,14.81,52.1,26.51,1.47,1.08,4.48,2.45.58,3.85,7,5.45,14.19,10.93,21.2,16.66,1.53,1.25,2.49,3.29,3.44,5.11,5.17,9.92,5.28,21.2,8.28,31.73,1.16,4.09-.22,8.9-.4,13.39-1.53,39.93-3.41,79.84-4.46,119.78-.81,30.94-1.21,61.92-.63,92.85.6,31.79,2.55,63.55,4,95.31.88,18.83,1.86,37.66,3,56.47,1.22,19.51,2.74,39,4.13,58.51a3.53,3.53,0,0,1-.53,2.54q-3.18-18.68-6.35-37.36l-1.54.06a30.56,30.56,0,0,0,0,4.49c3.62,24.47,7.36,48.93,10.91,73.42a102.05,102.05,0,0,1,.52,11.75c.09,3.62,0,7.25.2,10.86.16,2.38-.45,3.66-2.68,5-3.91,2.32-7.33,5.46-11,8.15-7.49,5.46-15.78,8.23-25.07,6.59-1.88-.33-3.36-2.62-5.26-3.17-8.33-2.41-16.76-4.48-25.12-6.77a14.62,14.62,0,0,1-3.48-1.81c-.34-.2-.51-.66-.78-1-6.48-8-9.27-16.08-6.17-27,5.27-18.57,6.53-37.87,6.46-57.26-.06-16.38,1.06-32.75,1.67-49.13.29-7.83.82-15.67.87-23.5.12-16.16.27-32.33-.15-48.48-.26-10.06-1.88-20.09-2.27-30.15-.63-16.16-.29-32.37-1.18-48.51-1.46-26.62-6.6-52.69-13.13-78.49a61,61,0,0,1-1.67-8.19c6.1,11.28,7.91,23.94,12,35.95-.72-8.91-1.32-17.84-2.17-26.74-1.62-16.94-3.44-33.86-5.07-50.8-1-10-6.67-18-10.83-26.65-1.26-2.63-3-5-4.72-8l-50.63,11.54L1127,898l40-14.9c-.15-.48-.3-1-.46-1.44-7.88,2.38-16.07,4-23.59,7.26-30.25,12.93-61.79,21.43-93.71,29-41.34,9.75-82.5,20.3-123.74,30.48a51.3,51.3,0,0,1-8.69,1.69c-4.77.31-6.52,3.1-7,7.32-1.31,10.75-2.91,21.48-3.92,32.26-5.74,61.55-7.84,123.29-8.4,185.06-.44,49.13,2.47,98.18,7.46,147.06,3.4,33.29,7.85,66.47,11.85,99.7.34,2.83,1,5.59-2.07,7.57-.61.4-.48,1.81-.88,2.67a133.91,133.91,0,0,1-6.41,13.13c-.93,1.53-3.38,2.42-5.32,3-7.8,2.35-16,3.69-23.41,6.91-5.36,2.32-8.47.61-12.61-2-7.11-4.49-14.63-8.35-22.07-12.31-4.76-2.54-6.93-6.61-8.18-11.64-2.3-9.25-2.31-18.45-1.41-27.93,1.3-13.71,2-27.53,2.07-41.3.19-28.29-.17-56.58-.31-84.87,0-6.47-2-8.67-8.58-9.45a40.07,40.07,0,0,0-5.89-.36c-5.75.14-9.27-2.77-12.15-7.55-3.74-6.24-6.4-12.06-5.14-20,2.86-17.9,4.88-36,6.46-54,1.88-21.56,3.19-43.18,4.31-64.8a760.32,760.32,0,0,0-1-95.35c-.73-9.88-3-19.64-4.48-29.47-.64-4.3-.48-8.75-1.44-13-1.73-7.64-4-15.16-6.11-22.71-.25-.88-1.14-2.36-1.53-2.3-3.94.62-4.62-2.68-6.33-4.84a8.69,8.69,0,0,0-3.27-2.6c-5.87-2.44-11.82-4.69-18.3-7.23l2.84,3c-3.85-.86-6.69-1.27-9.39-2.14-4.39-1.41-9.09-2.46-12.94-4.83-10.42-6.4-22.38-9-33.75-10.07-11-1-20.51-4.76-30.48-8.07-4.8-1.59-9.46-3.63-14.23-5.33-11.34-4-22.65-8.19-34.11-11.87-3.9-1.26-8.35-.78-12.32-1.9-20.82-5.87-41.56-12-62.32-18-1.2-.35-2.44-.58-4.25-1-.59,4.76-1.4,9.28-1.68,13.83-1.64,27.09-4,54.18-4.53,81.31-.94,47.54-1.38,95.12-.83,142.68.48,42.34,2.48,84.67,4,127,.71,19.39,2,38.77,2.93,58.15.31,6.16-5.91,11.41-12.17,10.86-1.59-.14-3.26,1.55-5,1.83-9.25,1.51-18.54,2.81-27.8,4.23-2.09.33-4.15.85-7.12,1.47-7.5-4-13.9-10.85-20.32-17.79-4.56-4.93-5.25-11-5.09-16.83.39-14.3,1.47-28.6,2.58-42.87,4.65-59.51,4.92-119.17,5.95-178.79.11-6-3.19-12-.3-18.1-2-36.52-3.67-73.06-6.08-109.56-1.62-24.55-3.95-49.07-6.53-73.55-2.65-25.22-6.16-50.35-8.94-75.56-1.22-11-1.38-22.16-2.32-33.21-1.28-15-2.76-29.92-4.34-44.86-.83-7.79-1.37-15.71-3.25-23.27-6.27-25.15-6.5-51-9.87-76.52-4-30.4-7.23-60.91-10.67-91.39-.88-7.81-2-15.68-1.83-23.51.41-23.45-4-46.43-6.28-69.61-1.8-18.46-4.25-36.86-6.59-55.27-.58-4.56-2.23-9-2.68-13.56-.25-2.47,1-5.1,1.55-7.66.29-1.32.63-2.64.82-4,2.75-19.74,6.23-39.28,17.26-56.47,5.75-8.95,13.92-15.13,23.2-20.27,6.26-3.47,12.92-3.84,19.63-4.88,3.66-.57,7.16-2.09,10.74-3.17a20.16,20.16,0,0,1,3.6-1q58.32-6.3,116.67-12.5c4.29-.46,8.64-.44,13-.64l.23,1.22a54.48,54.48,0,0,1-6.46,1.62q-23.87,3.09-47.74,6c-15.73,1.88-31.48,3.6-47.17,6L718,247.24l-.83-2.26c.52.11.91.15,1.28.27,6,1.9,12,3.83,18,5.71a2.47,2.47,0,0,0,1.65.13c9.3-5.19,18.44.15,27.63.44,14.89.48,23.1,9.87,28.83,22.33a55.69,55.69,0,0,0,3.68,7.12c9.87,15.23,12.47,32.45,14.46,50,1.66,14.66,4.63,29.17,6.72,43.79,6.17,43.18,12.73,86.32,18.14,129.6,6.1,48.86,10.9,97.88,16.67,146.78,3.39,28.77,7.63,57.43,11.33,86.16.43,3.35,2.06,3.79,4.91,4.26,16.14,2.65,31.55-1.82,47.22-4.2,30-4.56,60.13-8.87,90.56-10,2.21-.09,4.36-1.38,6.57-2a4.2,4.2,0,0,1,1.61.06c4,.41,8,1.16,12.05,1.2,13.65.12,27.31-.2,41,0,9.26.16,18.52.94,27.78,1.43C1099.15,728.12,1101.09,728.2,1103,728.29ZM541.11,903.63c.81-1.8,2.7-4,2.24-5.34-1.72-5.27-4.2-10.28-6.55-15.77-6.55,4.86-12.46,9.36-18.49,13.69-4.75,3.41-5.16,4.33-3.37,10.25,3.24-3.61,6.22-7.55,9.83-10.78s7.62-6.39,13.08-5c-7,5.61-13.37,11.18-20.2,16.17-4.14,3-3.77,6.53-2.83,11.46l15.53-8.22,5.52-2.94c-6.81,5.87-13.64,11.72-20.42,17.63-1,.86-2.4,2-2.43,3.06-.09,4,.31,8,.58,13,7.73-8.51,14.14-16.84,24.57-20.13a16.91,16.91,0,0,1-4.08,5.21c-5.7,5.22-11.36,10.49-17.2,15.55a7.25,7.25,0,0,0-2.64,7c.75,6.26,1.45,12.54,1.86,18.83,1.27,19.5,2.18,39,3.63,58.5,3,40.41,4.85,80.86,4.92,121.39,0,3.7,1.28,7.38,1.86,11.08a10.35,10.35,0,0,1,0,3.92c-.44,1.85-1.86,3.58-1.88,5.38-.27,18.85.2,37.72-.58,56.54-1.17,28.23-3.18,56.43-4.82,84.64-.31,5.26.08,5.31,5.41,3.89,8.34-2.22,16.79-4.06,25.86-6.21a28.65,28.65,0,0,0,.39-4.24c-.12-8.15-.27-16.3-.54-24.45q-1.47-44.07-3-88.14c-1.85-55.53-3.54-111.06-1.82-166.65,1.19-38.52,1.44-77.07,2.1-115.6C547.76,901.38,546.46,900.64,541.11,903.63Zm260-534.39-2.2,0c-.54-3.21-1.44-6.4-1.56-9.63-.92-25.09-6.64-49.25-13.63-73.22-1.89-6.49-5.1-10.81-11.2-14.17-7.91-4.36-17-7.09-23.06-14.49a2.5,2.5,0,0,0-1.85-.77c-5.37.33-10.73.76-16.21,1.17a9.53,9.53,0,0,0,.39,1.62c9.54,19,13.45,39.46,14.67,60.3s.82,41.9.95,62.86a29.51,29.51,0,0,1-1.62,8.66,9.08,9.08,0,0,1-2.9,4c-.59.51-2,.07-3,.06a11.25,11.25,0,0,1,.05-2.6c.85-3.37,2.38-6.67,2.61-10.07.62-9.26.7-18.56,1-27.84.56-17.19.07-34.33-2.86-51.32-2.52-14.57-5.48-29-12-42.5-1.2-2.48-2.63-3.57-5.47-3.48a62.16,62.16,0,0,1-11.33-.58c-14.42-2.23-28.54-1.69-42.35,3.51a25,25,0,0,1-8.19,1.47c-8.5.18-17,.06-26.08.06,8.44,9.54,11.83,20.55,14.25,32,4.65,22,3.21,44.25,2.87,66.47-.23,14.81,0,29.63,0,45-3.82-.08-4.1-3-4-5.91.43-10.4,1-20.79,1.57-31.18,1.37-25.31,2.85-50.62-2.34-75.71-1.9-9.17-4.9-17.91-10.21-25.72-2.27-3.35-5.16-5.32-9.53-5-7.42.59-14.9.58-22.31,1.3-22.38,2.19-44.74,4.62-67.11,6.95l-16.18,1.64c2,2.64,4,4.67,5.36,7A142.88,142.88,0,0,1,547,342c1.23,17.5.78,35.15.41,52.73-.15,6.94-1.93,13.87-3.33,20.73-.41,2-2.08,3.76-3.18,5.63l-1.23-.6c.57-2.72,1.3-5.41,1.69-8.15a289.35,289.35,0,0,0,.26-79.9,161.48,161.48,0,0,0-17.35-53.11c-3.48-6.68-5.42-7.57-12.66-6.74-3.48.4-7,.35-10.52.61-1.06.08-2.94.39-3,.81-.57,4-3.48,2.51-6,3l.88-3.55c-18.46,6.81-35.36,35-30.5,50.82l8.06-8.93c-8.51,16.89-10.37,23.47-8.06,32l10.27-6.85,1,.75c-2.64,4-4.67,8.65-8.07,11.84-4.93,4.65-4.62,9.55-3.94,15.53q6.17,54.71,11.61,109.49c1.92,19.29,3.26,38.63,4.79,58q2.59,33,5.06,66,.79,10.25,1.6,20.47l1.56-.07V603.21h1.11c.33,3.47.63,6.94,1,10.41,2.46,23.2,4.66,46.44,7.48,69.61,2.52,20.79,6,41.47,8.49,62.27,1.24,10.58,1,21.34,1.67,32,.15,2.47,1.2,4.89,1.83,7.33l1.14-.26q-1.32-13.4-2.63-26.8l1.41-.19q3.19,12.85,6.4,25.7c1,4,1.78,8,3.05,11.83,1.62,4.93,2.56,5.18,7.8,3.1l-5.78-10.32c3.39,3,6.52,7.49,10.68,8.82s9.41-.5,14.43-1c-.75-1.74-1.19-2.78-1.63-3.82,6.84,4.86,13.52,1.3,20.15.31,1.52-.23,3-.55,4.56-.78,10.44-1.59,21-1.43,31.48-3.65,31.36-6.6,63.05-11.6,94.59-17.39,14.24-2.61,28.41-5.61,42.63-8.36a22.52,22.52,0,0,1,4.19,0l.23,1.27L731,767.05c11.17-1.1,22.08-3.72,33.09-4.28,12.21-.62,20.31-6.81,27.38-15.62,1.88-2.35,3.92-4.58,5.88-6.86l1.4,1.34-14.84,17.31c9.54.87,15.31-5.2,21-10.49a146.19,146.19,0,0,0,36.62-52.56c.54-1.34,1.16-2.64,1.74-3.95l1.46.92c-7.51,26.24-24,46.41-45.87,64.32,11.05-1.91,20.71-3.77,30.44-5.17,4.75-.68,8.56-2.09,10.65-6.77.61-1.38,1.87-2.47,2.83-3.69l.64.51-5,8.1c2.39-.37,3.91-.57,5.41-.84,7.27-1.29,11.79-7.48,9.95-14.73-2.9-11.46-4-23.28-5.92-34.85-3.72-22.22-4.43-45-6.33-67.47-2.31-27.42-4.21-54.88-7-82.26-2.26-22.5-5.38-44.92-8.39-67.34-1.11-8.28-3-16.47-4.28-23.5.81,14,1.34,29.11,2.63,44.17,2.41,28,5.34,56,7.88,84,.8,8.75,1.07,17.55,1.58,26.32-3.94-8.33-27.73-216.46-25-220.87q3.16,15,6.31,30.07l1-.18L803.33,340C802.26,349.81,805,359.78,801.13,369.24Zm470,962.59,1.43-1.22c-2.28-11.67-4.63-23.32-6.83-35-1.41-7.45-3.4-14.91-3.71-22.43-.64-15.72-.42-31.47-.41-47.21,0-40.39.13-80.78.11-121.18,0-3.78-.74-7.56-1.13-11.35l-1.51-.06c-.49,3-1.36,5.9-1.41,8.87-.24,13.93-.26,27.86-.37,41.79,0,1.41-.16,2.81-.25,4.22a10.84,10.84,0,0,1-.94-4.6c-.66-15-1.27-30.08-2-45.12-1.82-39-3.06-77.93-1.12-116.87.74-15-.11-29.89,3.77-45,3.94-15.38,3.32-32,3.82-48.16.59-19.55.23-39.12.36-58.68,0-2.95.44-5.89.67-8.84a5.05,5.05,0,0,0-2,3.27c-1.25,19-2.42,38-3.65,57.73a19,19,0,0,1-.57-2.82c-.32-15.2-.51-30.39-1-45.58-.09-3-1.31-5.92-1.9-8.41.83-2.46,1.66-5,2.62-7.81a16.37,16.37,0,0,0-2.33,0c-39.13,8.72-78.18,17.81-117.41,26.08-43.65,9.2-87.39,18.08-130.09,31.07-33.48,10.19-66.52,21.88-99.68,33.11-10.69,3.62-21.24,7.41-32.78,6.72-1.68-.1-3.76-.38-5,.44a12.09,12.09,0,0,0-4.58,5.21c-.92,2.45-2.56,5,.25,8.09,6.4,7.05,12.3,14.58,18.1,22.15,1.05,1.36.61,3.85.86,5.82l-1.15.15-19.5-26.35-1.39.51c-.82,9.7-2.63,19.44-2.27,29.09,1.27,34.3,3.72,68.56,4.88,102.87,1.12,33.19,1.42,66.41,1.65,99.62.19,26-.27,52-.48,78.08a31.84,31.84,0,0,1-.57,4.2,6.17,6.17,0,0,1-1.63-4c-.34-6.46-.78-12.92-.89-19.39Q860,1152.57,859,1084.4c0-1.65,0-3.56-.82-4.9-5.35-9.09-10.9-18-16.39-27-.6,6.07-.2,11.67-.68,17.19-1,11.54,2.34,21.65,7.75,31.74,4.13,7.72,6.51,16.4,9.41,24.74.6,1.72.09,3.83.09,5.75l-1.56.22c-3.72-12.1-8.3-23.82-14.76-34.75a3.47,3.47,0,0,0-.61,2.1c.43,16,.81,32,1.33,47.93.37,11.25,1.27,22.49,1.36,33.74.31,37.78,5.25,75.45.75,113.38-2,17.19-.78,34.86-.07,52.28.88,21.54-2.42,43.25,2.49,64.61a27.37,27.37,0,0,0,2.25,7.1c3.82,6.88,7.94,13.59,12,20.34.3.51.94.8,1.43,1.19l1.13-.49c-.94-3.56-1.31-7.41-2.93-10.63-3.78-7.54-8.4-14.65-12.17-22.19-1.43-2.87-1.45-6.43-2.12-9.68l1.7-.61,14.12,21.1c-.27-29.49-1.34-57.92,1.33-86.27a10.33,10.33,0,0,1,.78,4c.75,28.13,1.43,56.27,2.29,84.4.11,3.44,1.36,6.82,1.68,10.27.21,2.23.4,4.94-.63,6.73-2.54,4.39-2.63,5.1,1.76,7.8a24.57,24.57,0,0,0,4,2.41,4.6,4.6,0,0,0,3.24-.17c5-2.23,9.88-4.61,14.77-7a10.06,10.06,0,0,0,3.32-2.21,74,74,0,0,0,4.43-6.2c.56-.81,1.52-1.68,1.5-2.51-.26-10.06-.45-20.12-1.08-30.16s-1.77-20.06-2.63-30.09a9.24,9.24,0,0,1,.49-2.48,3,3,0,0,1,.74,1.74c2.29,13.74,4.48,27.49,6.94,41.19.44,2.48,2,4.76,3,7.13l2.17-.51a31,31,0,0,0,0-4.92c-1.95-12.2-4-24.37-6-36.56-2.89-17.7-5.86-35.38-8.56-53.11-1.83-12-4.46-24.13-4.61-36.22-.32-26.44.75-52.89,1.14-79.34.06-4.33-.5-8.66-.77-13l-1.72,0q-1.5,6.91-3,13.83l-1.15,0c0-10,.31-20-.05-29.93-1.5-40.83.5-81.59,1.82-122.38.82-25.15.79-50.34.59-75.51-.05-6.26,1.7-11.59,4-17.54l1.17,3.13c.3-1.55.53-2.36.6-3.17,1-11.09,4.66-15.4,15.35-18.08s21.45-5.49,33.29-8.53l-6.33,5.2.41,1a20.56,20.56,0,0,0,4.3,0c6.59-1.46,13.18-2.94,19.7-4.65,24.49-6.43,49.26-11.92,72.47-22.47a10.68,10.68,0,0,1,2-.68c11.31-2.71,22.75-4.93,33.88-8.24,11.41-3.38,22.29-8.7,33.8-11.62,26.3-6.67,52.86-12.33,79.29-18.51,11.34-2.64,23.37-.63,34.45-5.12a2.84,2.84,0,0,1,2.46.83c1.47,1.65,2.69,3.53,4.23,5.61-7.55,6.89-14.66,13.9-22.4,20.12-2.52,2-2.52,3.58-2,5.93,2.71,12,4.69,24.18,4.71,36.59a62.32,62.32,0,0,0,.69,8.4,9.61,9.61,0,0,0,1.42,2.8v13.51l3.09-2.68,1.62.29c-7,7-2.49,14.5-2.84,22.19l2-.58c-.39,4.57-.8,9.24-1.29,14.84l3.87-2.32,1.28.35c-4.8,5.29-4.28,11-2.88,17,6.07-4.13,7.18-12.53,15.38-15.58a57.76,57.76,0,0,1-2.71,5.53c-3.4,5.34-6.77,10.7-10.41,15.88-2.84,4.05-1.88,8-.79,12.57l5.28-4.54,1,.85c-1.54,2.06-3.23,4-4.55,6.2a9.93,9.93,0,0,0-1.72,4.91c.07,4.91.55,9.82.93,14.73,2,25.83,3,51.66,1.88,77.59-.54,12.33.09,24.73.55,37.09.13,3.53,2.33,7.06,2.18,10.52-.9,20.49,1.24,41.16-3.41,61.46-.77,3.37-.66,6.94-.95,10.42-1.15-5.46.64-11.75-5.45-16.27,1.08,7.07,2,13.57,3.07,20.05.39,2.41,1.6,4.84,1.41,7.17-1.5,18.87-4.84,37.69-2.13,56.68.65,4.58,2.46,9,3.82,13.45.12.42.82.75,1.33,1,4,1.54,8,3,12.24,4.63,1.11-5.27-.91-10.63,3.79-14.18.46-.36.35-1.61.34-2.45-.31-25-.59-50.05-1-75.07-.07-4.33-.79-8.64-1.15-13-.63-7.67-1.79-15.34-1.67-23,.2-12.5,1.62-25,1.85-37.49.52-27.29,1.19-54.6.74-81.89-.59-35.44-2.22-70.86-3.42-106.28a8.47,8.47,0,0,0-.59-1.77l-9.48,11.89-1.4-.93c1.08-2.11,1.7-4.69,3.31-6.25,7-6.81,9.55-14.85,8.23-24.5-.73-5.31-.58-10.75-.83-16.13l-1.49-.54c-1.66,2.27-3.27,4.57-5,6.78s-3.63,4.36-5.45,6.54c-.74-1.61-1-3-.43-3.71,3.24-3.85,6.75-7.48,10-11.29,1-1.11,2.32-2.72,2.12-3.86-.68-3.91-2-7.7-3.14-11.93-3.84,5.06-7.42,9.78-11,14.49l-1.31-.72c.58-1.59.87-3.36,1.79-4.73,2.88-4.33,6-8.49,9-12.74.72-1,1.8-2.13,1.83-3.22.16-7.09.08-14.19.08-22.25l-16.3,19.54-1.58-.78c.62-1.92.8-4.15,1.92-5.71,4.57-6.41,9.56-12.53,14.11-19,1.41-2,1.9-4.67,2.81-7l-1.11-.35-17.72,16.39a125.41,125.41,0,0,1,9.55-11.41c3.58-3.71,7.51-7.08,11.27-10.58,4.76,5.09,4.82,5.46,5.3,16.89.08,1.94.85,3.85,1.44,6.37-.26,1.46-1.09,3.73-1,6,2.87,95.39,4.63,190.78,2.16,286.21-.94,36.56-1.76,73.15,1.52,109.63,1,10.83,3.35,21.53,5.16,32.76,2.45-1.06,4.2-2.56,5.44-2.22,5.31,1.45,9-2,13.29-3.68a6.72,6.72,0,0,1,3.07-.44C1265.53,1331,1268.33,1331.43,1271.14,1331.83Zm-310-555.49-.74,1a37.81,37.81,0,0,1-3.1-2.21c-2.67-2.29-5.22-4.71-7.92-7C930,752,908.24,745.74,883.3,751c-12.24,2.61-24.63,4.55-37,6.72a11.24,11.24,0,0,1-3.16-.36c.21-.88.42-1.77.81-3.39l-41.76,12c17.29,4.19,32.94,10.45,46.62,21.13,15,11.72,31.68,32.07,31.67,39.39-2.62-3.24-4.87-5.88-7-8.64-16-21-34.76-38.32-61-45.61-9.31-2.59-18.63-3.89-28.3-2.19Q725,780.52,665.7,790.74c-2.86.5-5.7,1.09-9.4,1.8,55.47,6.71,104.22,27.51,149.8,59.44l-2.67.13,24.27,29.27c3.42-9.16-3-15-7.83-21.76,1.24-.39,2.37-1.15,2.93-.85,4.05,2.16,8.34,4.09,11.9,6.91,11.68,9.24,21.25,20.48,29.47,32.85,2.51,3.78,9.31,5.3,13.06,2.67a5.58,5.58,0,0,1,2.26-1.12c2-.28,4.16,0,6.12-.52,11.45-2.88,22.87-5.92,34.31-8.86,1.63-.42,4-1.44,4.84-.74,2.68,2.27,4.77.43,6.89-.37,36.2-13.73,72.85-26.22,110.51-35.17,49.12-11.68,98.51-22.26,147.87-33,13.67-3,27-8,41.38-7.34,1.53.08,3.16-.93,4.67-1.59,1.26-.56,2.36-1.57,3.66-2,5.31-1.8,10.67-3.47,16.87-5.46-2.74-2.85-4.77-5.13-7-7.24-13.75-13.18-30.44-21.73-47.62-29.18-19.85-8.61-40-16.56-60.23-24.28a227.81,227.81,0,0,0-55.93-13.79c-5.42-.6-11,.65-16.58,1l.06,1.35c4.55.64,9.12,1.17,13.64,2s9,1.88,13.79,2.89l-55.64-1.7c-.06.43-.13.87-.2,1.3,1.18.62,2.37,1.22,3.53,1.87,13.24,7.41,26.68,14.49,39.66,22.34a45.26,45.26,0,0,1,20.49,25.93c.78,2.54.88,5.29,1.3,7.94l-1.37.23c-.55-1.11-1.14-2.21-1.64-3.34-5.55-12.53-13.49-23.1-25.66-29.85-13.64-7.57-27.22-15.34-41.35-21.92a44.46,44.46,0,0,0-20.4-4c-25.83,1.45-51.61,3.82-77.4,6.07-9,.78-17.84,2.22-26.08,3.27,9,3.61,18.62,6.44,27.18,11.2S956,767.56,961.11,776.34ZM672.47,865.67c6.53,4.93,8.64,12.82,14.33,18.58,6.28,6.35,10.68,14.82,14.83,22.92,3.54,6.91,10,5.62,15.09,8l1.17-1L682.8,842.16a3.33,3.33,0,0,1,2,1.73c12.43,23,26.29,45.28,35.94,69.73.59,1.5,2,2.67,3,4l1.34-.85c-.4-14-8.16-25.82-11.79-38.89a41.92,41.92,0,0,1,3.3,6.33c4.37,10.62,10.74,20.53,11.35,32.47a3,3,0,0,0,1.44,2.29c8.18,2.62,16.41,5.08,24.63,7.58-21.51-29.56-30.8-63.86-41.38-97.63,15,32.87,25.27,68.1,48.35,97a34.56,34.56,0,0,0-1.19-8.68c-2.88-9.57-6-19.06-8.94-28.6-3.27-10.66-6.82-21.27-5.59-32.71.47,2.63.5,5.31.83,7.94,1.65,12.86,6.94,24.58,11.39,36.57,3.26,8.82,7.37,17.41,7.47,27.11a3,3,0,0,0,1.32,2.34c5.75,1.83,11.57,3.48,18.45,5.5-5.35-10.58-10.13-20-14.9-29.49l.89-.55c4.78,7.25,9.59,14.48,14.3,21.77,1.38,2.12,2.34,4.51,3.77,6.59a7.61,7.61,0,0,0,3.33,2.84c7.11,2.57,14.33,4.85,21.46,7.39a15.31,15.31,0,0,1,5,2.83c9.13,8.22,13.54,19,15.1,30.78a122.65,122.65,0,0,0,9.93,35.11c3.27,7.16,6.07,14.54,8.9,21.89a37.73,37.73,0,0,1,1.32,6.34l-2.08.64-13.11-31.2c-.64,16.31,1.06,24.44,7.49,38.5,1.46,3.2,3,6.39,4.4,9.59q3.78,8.34,7.52,16.7a6.9,6.9,0,0,0,.88-3.75c-.14-8-1.26-15.78-2.24-23.67-2.44-19.63-2.83-39.5-4.73-59.2-1.13-11.72-3.52-23.32-5.46-35a9.73,9.73,0,0,0-1.82-3.76c-5.08-7.08-10.25-14.1-15.37-21.16a15.62,15.62,0,0,1-1-1.89l1.2-.94c6.41,6.39,10.55,14.78,17.2,21.24,0-3.89.1-7.79-1.19-11.17s-3.94-6.19-6.27-9.67l5-.41c0-1.51-.38-3.14.06-4.5,1.73-5.2.53-9.63-2.88-13.71-5.83-7-11.73-13.94-17.37-21.1-4.61-5.85-8.63-12.18-13.38-17.91-5.31-6.4-9.52-14.2-18.38-16.7-1.34-.38-2.87,0-5.28,0l-13-8c8.67,16.76,17.41,32.93,26.58,48.86s18.76,31.55,28.16,47.31l-1.7,1.29c-4.19-4.71-9.43-8.84-12.38-14.23-12.27-22.46-23.82-45.32-35.69-68-2.58-4.92-5.42-9.71-8.13-14.56l-1.07.43q3.45,13.27,6.89,26.56a14,14,0,0,1-4.27-6.41c-1.78-6.8-3.39-13.66-4.58-20.58-.61-3.56-2-5.83-5.31-7.36-10.94-5.15-21.59-11-32.75-15.6s-22.53-8.15-33.92-11.86c-20.51-6.68-41.81-8.52-63.18-9.71a8,8,0,0,0-3.57.7c-2.4,1.06-4.65,2.47-7.06,3.5-2.8,1.19-5.71,2.13-8.34,3.1,0,.71-.1.86-.05,1,13.89,28.51,27.89,57,41.52,85.58,1.4,3,2.65,4.06,5.55,4-8.26-15.82-14.48-32.09-17-49.64a9.55,9.55,0,0,1,2.19,3.47c6.34,14.42,12.74,28.81,19,43.26,1.89,4.37,4.57,6.2,9.67,6,3.59-.16,7.38,1.69,10.9,3.1,2.35.94,4.38,2.69,6.55,4.08l.46-.92Q682.49,886.41,672.47,865.67ZM561.09,848.88l1.3-.61a26.82,26.82,0,0,1,2.53,3c2.28,3.71,4.4,7.52,6.7,11.22.71,1.14,1.62,2.57,2.75,3,5.25,1.83,10.61,3.35,16.71,5.22C583.46,855,576.24,840.18,569,825.33l1.34-.67c.45.67,1,1.31,1.35,2Q583.33,848,595,869.25c.71,1.3,1.61,3,2.82,3.43,4.92,1.86,10,3.32,15,4.92.19-.58.3-.74.26-.83q-14.13-34.71-28.39-69.39c-.31-.74-1.91-1.21-3-1.34-4.85-.6-9.72-1.23-14.6-1.48-9.23-.48-18.54-1.44-27.55,1.62-7,2.38-14.21,2.29-21.61,2.4a9.84,9.84,0,0,0,.39,1.51q8.51,22.24,17.1,44.47a3.55,3.55,0,0,0,1.84,2.05c3.58.87,7.21,1.48,11.71,2.35-6.27-15-12.15-29.1-18-43.09,2.83-1.86,3.8-.55,4.76,1.56,5.56,12.3,11.74,24.35,16.65,36.91,2.53,6.48,7,7.36,12.36,8.09ZM435.79,404.41l-.71.23c1.21,7.87,2.67,15.72,3.58,23.63,3.09,27,6,54,8.95,80.93,1.21,10.87,2.26,21.76,3.83,32.58.51,3.5,2.63,6.75,3.73,10.2,4,12.58,7.88,25.2,11.84,37.8a39.84,39.84,0,0,0,2.72,7.52c1.23,2.19,3.2,4,4.84,5.92l1.76-1c-.82-3.17-1.46-6.4-2.48-9.5-3-9.1-5.83-18.21-6.08-27.92-.73-29.5-8.65-57.4-18.67-84.88-1.49-4.09-1.91-8.57-2.83-12.88l1.33-.36c1.44,3.89,2.83,7.79,4.32,11.66a28.88,28.88,0,0,0,2.9,6.5c.66.93,2.63.94,4,1.36.1-1.1.61-2.39.23-3.29-4.14-9.69-8.58-19.26-12.56-29-1.29-3.16-1.48-6.78-2.17-10.18l1-.15,17.59,31.13,1.43-.32c-.43-3.65-.85-7.3-1.29-10.94-.27-2.23-.5-4.47-.9-6.68a8.2,8.2,0,0,0-1.11-3c-2.27-3.53-5.08-6.77-6.92-10.5-5.6-11.36-10.83-22.88-16.21-34.34Q436.83,406.63,435.79,404.41Zm65.59,705.9-1.3,0,1.53,22a6.2,6.2,0,0,1,.08,2c-.54,2.13-1.62,4.2-1.75,6.34-.42,7-.78,14.06-.61,21.08a43.62,43.62,0,0,0,2.06,12.26c2.62,8.1,5.8,16,8.75,24l-1.33.54-9.1-21.84-1.62.21c0,8.41-.11,16.82.06,25.22a33.23,33.23,0,0,0,1.27,9.11c4,12.89,8.25,25.7,12.44,38.52a18.35,18.35,0,0,0,1.55,2.68c.33-4.52.56-8.15.89-11.77a35.74,35.74,0,0,0-2.22-16.48c-3.57-9.3-6.34-18.91-9.4-28.41a10.68,10.68,0,0,1-.21-2.55l1.42-.46,10.26,26.83c.85-8.74.65-17.26.91-25.77.22-7.15-1.18-13.83-3.29-20.65-3.16-10.26-5.33-20.82-7.92-31.26l1-.26q4.6,12,9.22,24.05a131.91,131.91,0,0,0,.92-21.1,18.18,18.18,0,0,0-1.29-6.54C509.68,1128.72,505.49,1119.53,501.38,1110.31ZM587.14,805c.85,2.07,1.4,3.51,2,4.91q13.49,30,27,60c2.4,5.29,5.1,10.44,7.64,15.67.62,1.27.84,3.39,1.76,3.74a110.5,110.5,0,0,0,11,3c-.69-2.07-1-3.41-1.55-4.66-8.23-19.13-16.42-38.26-24.75-57.34-3.54-8.1-7.61-16-8-25.11,0-.93-2.34-2.6-3.46-2.49A114.83,114.83,0,0,0,587.14,805Zm-133-475.68c-3.83-22.53,4.66-40.44,21.12-55.69-14.24.89-28.41,11.74-31.25,20l9.86-6.08.87,1c-3.4,5.12-6.74,10.29-10.23,15.36-2.87,4.17-4.77,8.38-3.67,13.73,1.78,8.66,2.71,17.51,4.78,26.09,1.63,6.71,4.44,13.13,6.73,19.68l1.17-.36c-1.33-10.92-2.66-21.84-4-32.9Zm380.77,893.43c-.45-8.81,0-17.18-1.54-25.15s-5.21-15.55-7.94-23.3l1.11-.61,5.49,7.43c-.4-14.91,1-29.93-9.31-42.31a5.5,5.5,0,0,0-.39,1.19q-2.19,26.64-4.32,53.3a5.74,5.74,0,0,0,.49,3.21C823.77,1205.1,829.13,1213.58,834.92,1222.79ZM486,752l1.41-.32c0-2.11.39-4.32-.07-6.33-2-8.73-4.17-17.44-6.55-26.08-2.44-8.8-5.25-17.5-7.82-26.26-1.23-4.17-1.16-4.2,1.8-7.71,5.28,10.92,8.72,22.76,16.62,32.38a106.36,106.36,0,0,0-5.47-16.53c-7.28-17.18-14.7-34.3-22.09-51.44-.06-.16-.41-.19-.95-.41.76,6.17,1.33,12.18,2.28,18.12,1.26,7.8,2.87,15.54,4.23,23.32a77.12,77.12,0,0,1,1,8.31c.29,4.69-.57,9.69.8,14,3.79,12.05,8.45,23.83,12.84,35.7A18.68,18.68,0,0,0,486,752Zm-4,45.09.77-.19,16.93,36.69,1.34-.35c-1.48-6-2.55-12.08-4.53-17.87-5.3-15.5-14.62-29.38-18.55-45.45,0-.19-.37-.3-.82-.62.09,1.43.14,2.67.26,3.9,1.09,10.45,2.77,20.88,3.16,31.36.56,15,1.79,29.75,8,43.64,3.5,7.81,6.92,15.66,10.55,23.41.6,1.27,2.09,2.13,3.17,3.18l1.1-.68a24.74,24.74,0,0,0-.68-4.33c-5-15-8.81-30.35-15.7-44.66a41,41,0,0,1-2.9-7c-.95-3.52-1.47-7.16-2.17-10.75l.85-.19,2.12,3.62C483.8,805.49,482.9,801.28,482,797.07Zm-24.85-392,1.11-.35q-1.63-14.22-3.28-28.43a4.36,4.36,0,0,0-.68-2.38c-7.09-7.16-9-16.66-11.65-25.79-2.26-7.67-4.44-15.36-6.65-23C429.19,355.49,441.32,380.78,457.15,405.08Zm54,878.58,1.12-.27c0-4.21-.48-8.48.11-12.6.84-5.82-.47-11.1-2.27-16.49-3.31-9.87-6.4-19.8-9.53-29.72-.72-2.3-1.25-4.66-1.87-7-1.53,10.06-2.15,20-2.72,29.87a7.52,7.52,0,0,0,.28,3.33C501.16,1261.77,506.16,1272.71,511.14,1283.66ZM460.09,442.84l1.12-.38c-.65-10.82-.6-21.53-7.16-31.38-5.72-8.58-9.94-18.18-14.6-27.45-2.78-5.52-5.13-11.26-7.67-16.91-.86,6.64-.57,13.18,2.07,19.25,6,13.78,12.24,27.45,18.49,41.12C454.78,432.4,457.5,437.59,460.09,442.84ZM829.41,866.51l-1.34,1.11c6.17,12.06,11.39,24.62,20,35.38,4.49,5.62,11.67,5.82,17.18,9.31.88.56,2.73-.17,4-.57,4.3-1.31,8.58-2.71,12.84-4.14,6-2,11.88-4.08,17.82-6.12l-.34-1.05c-1.56.46-3.12.89-4.66,1.38-9.5,3-18.81,6.69-29.07,6.4-2.88-.08-4.66-.89-6.19-3.33-4.5-7.1-8.79-14.4-14-21C840.82,877.67,834.89,872.27,829.41,866.51ZM456.34,570.3l-1.21.65c.71,8.77,1.33,17.55,2.16,26.31.53,5.56.82,11.25,2.23,16.61,2.67,10.18,6.06,20.17,9.19,30.22,1,3.24,2.19,6.44,3.28,9.66l1.51-.32c-.84-6.89-1.69-13.77-2.5-20.65-2.4-20.23-11.22-39.07-12.83-59.48C458.09,572.26,457,571.3,456.34,570.3Zm44.47,456.31-1,.14c0,1.38,0,2.76,0,4.14.3,10.26,1.1,20.55.76,30.79-.33,9.65,7.58,14.61,10.41,23.36,0-12.69,0-24.07,0-35.44a10.18,10.18,0,0,0-1-4.07C507,1039.2,503.86,1032.91,500.81,1026.61Zm27.26-175.38c-.68-2.18-1.09-3.5-1.51-4.82-3.74-11.63-7.58-23.24-11.19-34.92-1.86-6-3.33-7.15-9.73-6-.18,2.4-1.13,5.15-.39,7.31,3,8.77,6.53,17.35,9.85,26C517.35,844.64,521.76,848.28,528.07,851.23Zm-26.32,226.54-1,.15c0,6.95-.05,13.91,0,20.86a11.38,11.38,0,0,0,.9,4.48c3.86,8.41,7.86,16.76,11.78,25.14a6.24,6.24,0,0,1,.25,1.76l2.16-1.15q-1.9-18.29-3.83-36.55a3.39,3.39,0,0,0-.62-1.55Q506.64,1084.32,501.75,1077.77ZM818.6,1199.71l-1.43.22c-.55,4-1.42,8-1.54,11.93a14.89,14.89,0,0,0,1.68,7.31c3.27,5.89,7.13,11.44,10.51,17.27,2.63,4.55,4.89,9.32,7.31,14l1.1-.17c-.51-5.9.29-12.32-1.8-17.6C830,1221.36,824,1210.66,818.6,1199.71ZM496.23,1262.8c-4.36,20.65,6.27,43.71,16,46.68,0-4.55.05-9.15,0-13.75a6.18,6.18,0,0,0-1-2.67c-2.93-5.22-6.13-10.29-8.8-15.63C500.09,1272.7,498.28,1267.69,496.23,1262.8Zm6.87-328.56-16.27-72.82c.14,12.1.7,24.16,1.32,36.21a12.19,12.19,0,0,0,.76,4.13C493.69,912.83,498.56,923.87,503.1,934.24Zm-5.67,37.85c-1.51,18.75,2.09,30.59,13,44.71-.92-8.3,1.12-15.85-2.9-23.13C503.7,986.73,500.76,979.3,497.43,972.09Zm9.28-12.72c.63-6-12.42-41.38-16.57-45.56.6,5.72,1,11.46,1.86,17.1.68,4.35,1.19,9.05,3.25,12.78C498.27,949.15,502.61,953.88,506.71,959.37ZM829.5,1141.55a5.89,5.89,0,0,0,.34-1.48c-1-14.56-1.91-29.11-3-43.65-.1-1.28-1.45-2.46-2.22-3.68-1.37,14.2-1.77,27.91-2.1,41.63a3.14,3.14,0,0,0,1,2.08C825.28,1138.13,827.24,1139.66,829.5,1141.55ZM507.94,990.22c3.68-16.39-4.91-27.47-13.48-39.35C493.49,966.26,504,976.69,507.94,990.22Zm390.25,23.33.72,0c3-20.44,6.07-40.87,9.17-61.76l-2.82.66C904.16,959,903.18,965,902.1,971c-.11.6-1,1-1.3,1.62a6.61,6.61,0,0,0-1.09,2.67C899.15,988.06,898.68,1000.81,898.19,1013.55Zm-398.81-7.14c-1.36,7.9,5.07,25.75,11.55,32.14,0-2.93,0-5.56,0-8.19.1-5.78.63-11.42-5.33-15.45C502.94,1013.11,501.52,1009.46,499.38,1006.41ZM487.23,780.09c2.29-6.28-7.18-34.86-13.4-42C473.77,753.82,482,766.46,487.23,780.09ZM835.55,1125c0-19.38.07-37.61-.09-55.83,0-2-1.36-3.92-2.08-5.88l-1.27.36C833.69,1083.69,831,1103.9,835.55,1125Zm-20.11,95.52-1.65.44c.43,2.78.27,5.83,1.4,8.29,2.26,5,5.51,9.49,7.8,14.45,1.6,3.45,4.19,4.75,8.59,6.2C825.81,1239.43,820.63,1230,815.44,1220.54ZM632,865c-5.28-17.6-21.29-50.66-25.77-52.52ZM514.59,894.72l20.27-15.22c-3.5-2.23-4.41-2.28-7-.2-3.71,3-7.14,6.36-11.09,9C514.08,890,513.7,891.75,514.59,894.72ZM1138,734.27,1196.6,753A269.68,269.68,0,0,0,1138,734.27ZM495,708.79l5.16,56.75C501.65,746.32,498,727.59,495,708.79Zm319.25,522.27-.79.25-.9,9.61c0,.14,0,.28,0,.42.07,4.69,4,7.29,8.48,5.29Zm18.79-196.89c.79,7.75-1.08,15.74,1.69,23.28C834.69,1049.63,836.65,1041.65,833.07,1034.17Zm-334.7-200.4-1.35.52c.63,7.77,5.6,13.48,9.21,19.83l1.28-.6Q503,843.65,498.37,833.77Zm300.41-516c-.37-10.18-5.85-28.06-10.06-33.32C792,295.26,795.3,306.22,798.78,317.73ZM549.93,927.23h.29c.81-7.34,1.68-14.68,2.36-22,.08-.89-.9-1.88-1.39-2.83l-1.26.57Zm51.25-47.54-.57,1.7,16.25,4.9.38-1C612.68,881.19,606.32,882.12,601.18,879.69Zm231.68,140.8,1.57-.06q-.57-7.71-1.15-15.4l-.42.08Zm-340.12-234-3.82,1.31c1.45,3.74,2.73,7.06,4,10.38l.82-.24C493.43,794.27,493.11,790.61,492.74,786.47Zm90.56,90.68,11.81,3C592.15,875.6,587.83,875.86,583.3,877.15Zm530-147.71-.07.49,14.68,2.71a48.61,48.61,0,0,0-11.7-3A23.44,23.44,0,0,0,1113.26,729.44ZM514.75,859.16l-6.24-2.78-2.35,5.19Z"/>
    <path d="M444,620.76c6.91,13.71,23.91,141,21.26,159.17C462.43,770.82,443.12,626.27,444,620.76Z"/>
    <path d="M424.45,325.12c1.63-17.2,3.95-33.93,20.45-43.95C432.43,293.23,429.66,309.81,424.45,325.12Z"/>
    <path d="M516.87,955.69l20.67-18.8-1-1C526.63,938.82,520.6,946,516.87,955.69Z" style="fill: #fff"/>
    <path d="M450.64,498l-1.1,0c1,9.77,2.38,19.52,2.75,29.31.32,8.47,6.21,14.34,8,22l1.35-.41Z" style="fill: #fff"/>
    <path d="M583.14,731c-.64-3.35-1.35-6.69-1.91-10.05-7.62-45.82-8-92.13-9.21-138.38-.75-28.3-2.56-56.48-9.4-84.1a10.71,10.71,0,0,1-.15-1.61l1-.85c.94,1,2.49,1.92,2.71,3.07,2.29,12.29,5.5,24.56,6.3,37,1.9,29.73,3,59.54,3.78,89.33A777.46,777.46,0,0,0,584,719.07c.57,3.85.51,7.79.75,11.69Z"/>
    <path d="M664.12,489.32c1,2.2,2.6,4.3,3,6.6,3.58,20.78,7.46,41.52,10.26,62.4,4.36,32.45,4.18,65.12,3,97.78-.34,9.27-1.19,18.52-1.88,27.78a22.09,22.09,0,0,1-1,3.84l-1.35.17c-.42-1.39-1.23-2.78-1.2-4.16.13-4.91.57-9.82.83-14.73,1.94-37.28,2.41-74.58-2.28-111.69-2.81-22.16-6.87-44.17-10.35-66.25a7.21,7.21,0,0,1,0-1.23Z"/>
    <path d="M766.36,482.61c.85,2.44,1.88,4.84,2.52,7.33,7.25,28.23,13.4,56.7,16.46,85.68a164.77,164.77,0,0,1-1.75,48.74c-1.12,5.78-1.53,11.7-2.36,17.54a7.19,7.19,0,0,1-2.18,4.38c0-7.2-.82-14.51.14-21.58,4.06-29.9,1.92-59.49-3.47-89-3.13-17.14-6.64-34.22-10-51.34-.09-.5-.1-1-.16-1.55Z"/>
    <path d="M743.87,418.47c1,2.51,1.82,4.36,2.61,6.22,1.22,2.9,3,5.7,3.55,8.72.7,3.59-1.5,6.27-4.92,7.33-4.1,1.27-6.64-.12-8.19-4.32a27.94,27.94,0,0,1-1.61-6.93C734.65,423,737.91,419.25,743.87,418.47Zm-.57,4.31c-4,2.91-4.1,8.18-.3,13C746.21,431.41,744.08,427.22,743.3,422.78Z"/>
    <path d="M553.76,451.6l-10.18-2.27c0,3.79-.21,6.72.09,9.59.14,1.33,1,3.25,2,3.66a6.2,6.2,0,0,0,4.6-.56c1.64-.88,2.89-2.48,4.36-3.81,1.45,3.31-1.4,7.28-5.1,7.33-.81,0-1.64-.42-2.44-.34-7.25.73-8.8-.67-8.78-8.09,0-1,0-2,0-2.95.26-6.92,6.08-10.91,12.4-8.08,1.8.8,2.82,3.33,4.2,5.07Z"/>
    <path d="M647.49,435.84c-4.06,4.24-3.88,9-2.14,13.85.84,2.36,2.07,4.6,5.23,3.16,2.78-1.27,6.62-1.61,5.38-6.46a51.12,51.12,0,0,1-1.49-11.54c.94,1.38,2.24,2.64,2.74,4.16.6,1.83.38,3.91.77,5.83.95,4.6-.71,7.63-5.1,9.23a6.88,6.88,0,0,0-1.49.79c-5,3.43-7.32,2.81-10-2.76C637.88,445,640.33,437.83,647.49,435.84Z"/>
    <path d="M774.77,692.6c.64-8.06,1.21-15.32,1.86-23.56C779.12,674.35,778.08,685.85,774.77,692.6Z"/>
    <path d="M818.67,750.89l13.93-15.11.69.6q-6.66,7.86-13.3,15.73Z"/>
    <path d="M862.43,1325.64v-51.71l.55,0v51.71Z"/>
    <path d="M1222.24,966.46c-1.93,3.18-3.87,6.36-6.19,10.19C1215.23,971.72,1217.11,968.52,1222.24,966.46Z"/>
    <path d="M1216.81,922.32l-7.12,8.1c-.77-3.49-.26-4.16,6.22-8.75Z"/>
    <path d="M516.87,955.69c3.73-9.68,9.76-16.87,19.68-19.85l1,1Z"/>
    <path d="M450.64,498l11,50.93-1.35.41c-1.83-7.65-7.72-13.52-8-22-.37-9.79-1.79-19.54-2.75-29.31Z"/>
  </g>
</svg>
