<svg id="Layer_1" data-name="Layer 1" xmlns="http://www.w3.org/2000/svg" viewBox="0 0 160 112" width="160mm" height="112mm" ><title>sketch</title><path d="M118.46,44.92l-.09.19-.11,0,.12-.53c-8.42-.13-16.89,0-25.36.44l2.23.21v.11a1.87,1.87,0,0,1-.4.07c-1.39,0-2.77.08-4.16.06-6.84-.09-13.69-.22-20.53-.28-4.22,0-8.44,0-12.66,0-.36,0-.72,0-1.08-.07V45c.2,0,.41,0,.62,0,3.21,0,6.43,0,9.64,0a20.34,20.34,0,0,0,2.57-.26.84.84,0,0,0,.5-.34,1.09,1.09,0,0,0-.18,0c-.93.1-1.86.25-2.79.29-1.81.08-3.63.11-5.44.14-.25,0-.6.18-.76-.22,0,0-.17,0-.26,0H48.73c-2.5.49-5,.2-7.54.26-.23,0-.3.09-.29.3,0,.39.05.79.06,1.18a3.81,3.81,0,0,1-.16.83,5.17,5.17,0,0,0,.08,1.56c0,.19.13.37.13.55,0,6.72.09,13.43.11,20.15q0,9.66,0,19.33v1.06c-.34-.1-.74.23-.86-.26-1,0-2.07,0-3.1,0a.45.45,0,0,1-.3-.1c-.32-.32-.62-.65-.86-.91-.25.1-.49.27-.56.21a.7.7,0,0,1-.25-.51c0-1.7,0-3.39,0-5.09a2.9,2.9,0,0,0-.14-.62,1.2,1.2,0,0,1-.06-.41c.05-.51.19-1,.19-1.5,0-3.78,0-7.56,0-11.33-.05-5-.17-9.93-.22-14.89,0-2.59,0-5.17,0-7.76,0-.24-.1-.48-.08-.72a.72.72,0,0,1,.22-.48c.23-.22.17-.3-.08-.41-.81-.34-1.61-.7-2.46-1.07l.32-.08s0-.08,0-.1l-7.65-4.83-1.05-.68a3.13,3.13,0,0,1-.25-.26l.08-.11.76.3.07-.06a3.12,3.12,0,0,0-.46-.43c-1.9-1.09-3.83-2.13-5.7-3.27a18.61,18.61,0,0,0-2.61-1c-.24-.1-.49-.18-.8-.29.1,11.48.36,22.92,0,34.32-1.17.57-2.31.23-3.47.24a2.22,2.22,0,0,1,.35.48.38.38,0,0,1-.08.36c-.07.06-.27,0-.36-.06a1.16,1.16,0,0,1-.3-.36c-.12-.19-.11-.37.12-.44s.2-.26.09-.41a4.24,4.24,0,0,0-.43-.52,1.73,1.73,0,0,1-.48-1.24c0-.89-.08-1.78-.07-2.66q0-15.83.07-31.64c0-.8,0-1.61-.07-2.42,0-.09,0-.23-.1-.27-.29-.18-.61-.33-.94-.51l-.13,1.12c-.47-.53-.55-4.61-.17-5.53a4.27,4.27,0,0,0,2.22,2,52,52,0,0,1,7.39,4.34c.58.38,1.13.79,1.7,1.18l-.07.12L16.18,29c.23.42.46.79.65,1.17.4.81.77,1.63,1.15,2.45,0,0,0,.1.08.12l1.19.8.08-.07-1.47-2.26.06-.05a8.27,8.27,0,0,1,.55.63,16.94,16.94,0,0,1,1,1.53,3.71,3.71,0,0,0,1.21,1.25c.49.34,1,.7,1.44,1.06l.1-.08-2.59-4.18.07-.06a9.2,9.2,0,0,1,.63.77c.59.9,1.2,1.8,1.73,2.74.38.67,1.08.88,1.68,1.42-.26-1.06-.87-1.92-.65-3,.14.39.27.77.42,1.15.26.64.55,1.27.8,1.92s.74.86,1.21,1.21l-.74-1.6.12-.06a4.82,4.82,0,0,0,2,2.58c0-.33-.5-.51-.33-1,.72.58.78,1.58,1.68,2l-.81-1.66.12-.07C28.4,39,29,40.42,30.6,41l-1.45-2.78.13-.08a8,8,0,0,1,.53.76c.38.65.77,1.31,1.1,2a2.09,2.09,0,0,0,1,1,4.46,4.46,0,0,0,.79.35l-1.38-3,.16-.09a4.19,4.19,0,0,1,.44.6c.42.81.83,1.63,1.23,2.45a1.37,1.37,0,0,0,.85.85c-.06-.31-.24-.64.11-.83.08-.05.29.14.48.24.13-.65-.5-1.1-.5-1.8l.57.9.24-.21a2.22,2.22,0,0,1,.4,1.53c0,.85,0,.85.89.84l4-.09c.18,0,.35-.17.56-.28.09.35.42.28.74.28,2.29,0,4.57,0,6.86,0,3.95,0,7.89,0,11.84,0l17.91,0h43c.34,0,.76.15.81-.46l.32.46.23-.31.11.32h8.49v0l-.91-.11v-.11c.22,0,.45-.06.68-.07,3.33-.08,6.66-.14,10-.24,1,0,2.1-.14,3.17-.16a7.37,7.37,0,0,1-1.2.33c-1,.1-2.09.16-3.13.19-2.26.06-4.52.1-6.79.21a.85.85,0,0,0,.22,0l8.15.13c1.38,0,2.77,0,4.15,0a8.09,8.09,0,0,0,1.2-.1c.13,0,.25-.16.4-.26l.08.09,1-1.39.14.1-.83,1.45a.68.68,0,0,0,.83-.39c.29-.57.64-1.11,1-1.66l.27-.42.19.15-.95,2.12.65-.08v.31l.09,0a1.13,1.13,0,0,0,.13-.33c0-.71.11-1.41.13-2.11a.52.52,0,0,0-.27-.35L145,38.71c-2.74-1.41-5.48-2.81-8.21-4.25-3.52-1.87-7-3.75-10.52-5.67-1.46-.8-2.86-1.73-4.3-2.57-.79-.46-1.67-.78-2.41-1.31a3.18,3.18,0,0,0-2.17-.48c-1.5.05-3,.06-4.51.09a.89.89,0,0,0-.4.08l.34.2,0,.08c-.23-.06-.47-.13-.71-.17a5.52,5.52,0,0,0-1.07-.15c-9.07.18-18.13.25-27.2.15-7-.07-14-.05-21,0-9.49,0-19,.13-28.46.15-3.82,0-7.63-.19-11.45-.1-2.66.06-5.28-.35-7.93-.36-.9,0-1.81,0-2.71,0s-1.65-.15-2.48-.23l0-.14c.14-.09.28-.26.43-.27,1.52-.07,3-.18,4.57-.15s3.1.22,4.65.27c.84,0,1.69-.11,2.54-.15,1.81-.08,3.62-.18,5.44-.21,4-.06,8-.07,12-.11l16.35-.13,13.25-.16c.56,0,1.12,0,1.68.05-.69.07-1.38.13-2.06.21a5.55,5.55,0,0,0-2,.49l0,.12a5.76,5.76,0,0,0,1,.22q1.86,0,3.72,0c3.88,0,7.76-.14,11.64-.12s7.73.16,11.59.21,8,.08,11.92.11a11,11,0,0,0,1.14-.11l0-.17a1.7,1.7,0,0,0-.41-.15c-1-.05-2.06-.11-3.09-.12-4.35-.05-8.7-.07-13-.13-2.33,0-4.65-.1-7-.19-2.15-.08-4.29-.21-6.44-.38h2.86c5.94,0,11.89.09,17.83.07S110,23.1,115.88,23a7.61,7.61,0,0,1,3,.4c-.21.95.7.93,1.25,1.25l-.3-.22a3.92,3.92,0,0,1-.32-.25l.06-.1c.43.21.87.39,1.29.62,4.16,2.35,8.3,4.73,12.47,7.07,2.13,1.2,4.29,2.34,6.43,3.5a2.51,2.51,0,0,0,.46.16l.06-.13a7.92,7.92,0,0,0-.71-.47l-4.53-2.43c-.31-.16-.61-.35-.94-.54l.09-.5,1,.53,13.07,7.29c.8.45,1.58.92,2.35,1.41a.72.72,0,0,1,.24.49c.08,1,.13,2.09.18,3.13a1.15,1.15,0,0,1-.07.36h-.1l-.06-.85a3.39,3.39,0,0,1-.14.53.58.58,0,0,1-.81.3,6.29,6.29,0,0,0-.88-.22c0,2.23.09,4.38.1,6.53q.08,11.4.1,22.81c0,.53-.1,1.06-.15,1.59,0,.31-.08.62-.08.94,0,2.53,0,5.07,0,7.6,0,1.17,0,2.35-.06,3.52a2.46,2.46,0,0,1-.19.8c-.05.12-.21.28-.32.27s-.24-.17-.3-.3a2.9,2.9,0,0,1-.13-.51l-2.28.1a.82.82,0,0,1-.09.33.8.8,0,0,1-.39.32.54.54,0,0,1-.44-.16c-.4-.41-.77-.84-1.14-1.28a3.27,3.27,0,0,1-.5-.8c.71.09,1,.79,1.54,1.1V68.82c-.41.14-.41.14-1.26-.85v.63c0,.21,0,.42,0,.63a2,2,0,0,0,.7,2l0,0c.15.23.45.47.14.74s-.49,0-.69-.24l-.18-.16v.54c0,3.92,0,7.84-.1,11.76a11.18,11.18,0,0,1-.19,1.62c0,.09-.09.17-.17.32-.08-.13-.15-.19-.16-.26a15,15,0,0,1-.17-1.75q-.08-8.79-.11-17.56,0-7.47-.08-14.94c0-1.54,0-3.08.07-4.62,0-.48.07-1,.09-1.45s-.05-.51-.51-.51c-3.2,0-6.4,0-9.6,0-1,0-1.95-.16-2.93-.25a5.65,5.65,0,0,0-.58,0c-2,0-3.89.06-5.84.07-.37,0-.52.12-.48.5s0,1,.06,1.45a13.54,13.54,0,0,1,0,1.91c0,.68,0,1.36,0,2s0,1.34,0,2q0,7.11,0,14.23c0,.76,0,1.52-.08,2.27a.4.4,0,0,1-.13.29c-.06,0-.19-.07-.29-.11s-.13-.08-.19-.08a9.68,9.68,0,0,0-1.94,0c-.9.15-1.33-.57-1.95-.91-.06,0-.08-.18-.08-.28,0-4,0-7.94.06-11.9,0-1.93.19-3.86.27-5.79,0-.76,0-1.51,0-2.27,0-.92.08-1.85.12-2.77a1.64,1.64,0,0,0,0-.22Zm-78.1,7.62v-.91c0-.69,0-1.39,0-2.08a.43.43,0,0,0-.31-.5,7.41,7.41,0,0,1-1-.5c-.58-.32-1.14-.67-1.73-1a.41.41,0,0,0,.22.57c.5.3,1,.64,1.47,1l0,0-1.62-.71-.1.08a2.78,2.78,0,0,0,.14.73,3.6,3.6,0,0,0,.54.64l-.57-.23Q37.43,66.4,37.5,83c.11.1.26.19.25.26-.1,1,.24,2-.14,3.09a2.82,2.82,0,0,0,.15,1.38,6.93,6.93,0,0,0,.4,1,2.09,2.09,0,0,0,.65-.15,6.33,6.33,0,0,0,.91-.73,1.12,1.12,0,0,0,.46-1.33l-1,1L39,87.35l1-1c.05-.06.17-.11.17-.16,0-.64,0-1.28,0-2L38,86.5l-.1-.09a2,2,0,0,1,.16-.24c.64-.69,1.29-1.37,1.9-2.08a1.13,1.13,0,0,0,.26-.66c0-1.09,0-2.19,0-3.29,0-.11,0-.22,0-.38l-.76.89-.1-.09a3.51,3.51,0,0,1,.51-.63,1.2,1.2,0,0,0,.39-1q0-12.87.09-25.75v-.41a4,4,0,0,1-2.34-1ZM146,46.05h-.16a5.32,5.32,0,0,0-.22,1c-.05,1.61-.08,3.22-.08,4.82,0,3.29,0,6.59,0,9.88a3.55,3.55,0,0,0,.22.75c0,.17.06.49,0,.5-.3.11-.24.34-.24.54V87.11h2.29c0-.55,0-1.13,0-1.71,0-4.89-.12-9.77.33-14.65,0-.08,0-.23.07-.24.5-.14.4-.57.41-.91,0-.94,0-1.88,0-2.82s-.16-2-.26-2.92a1.42,1.42,0,0,0-.15-.34l-.18,0-.3,3.11h-.07V54.91c.28.06.6.35.93,0a1.2,1.2,0,0,0-.21-.19,1.48,1.48,0,0,1-.8-1.63c0-.12,0-.26,0-.39a1.05,1.05,0,0,0-.39-1,2.47,2.47,0,0,1-.37-.42l0,0,.65.56.09-.08c-.15-.81-1.13-1-1.39-1.75l.08-.09,1.25.91.09-.09c-.31-.84-1.24-1.17-1.71-1.88l.08-.08,1.54,1.3c0-.75-.76-1-1.06-1.63l1.1.79a1,1,0,0,0-.45-1.29,13.88,13.88,0,0,1-1.2-1l.06-.08,1.6,1.12.1,0c-.05-.19,0-.45-.14-.55C147.07,46.87,146.52,46.47,146,46.05ZM11.81,56.21c0-.1,0-.19,0-.28,0-2.1,0-4.2-.06-6.31,0-2.62,0-5.25,0-7.87,0-.28,0-.51-.41-.59v.5q0,9.83,0,19.67c0,1.32,0,2.64-.08,4a1.08,1.08,0,0,0,.55,1.16V57a1.23,1.23,0,0,1,.46.91c0,2.27,0,4.54,0,6.81,0,.6,0,1.2,0,1.8,0,.41.16.52.56.47a1.42,1.42,0,0,1,.46,0l1.55.32c0-1-.15-2-.13-2.9A1.76,1.76,0,0,0,14,62.75a4.88,4.88,0,0,1-.69-.74c.61,0,.87.44,1.32.7,0-.1,0-.16,0-.22.05-.36-.14-.75.2-1.09.1-.09,0-.41-.06-.62s-.13-.33-.15-.49a3.36,3.36,0,0,1,0-.71.51.51,0,0,0-.32-.54,15,15,0,0,1-1.41-1l.08-.12c.65.07,1,.69,1.64.94a8.63,8.63,0,0,1,0-.89.72.72,0,0,0-.44-.8,13.23,13.23,0,0,1-1.37-1l.09-.13c.67.07,1.12.59,1.67.92a1.38,1.38,0,0,0-.63-1.7,4.09,4.09,0,0,1-.61-.49l-1.11-.85v2.28ZM36.62,87.38a8.2,8.2,0,0,0,.15-1.1c0-.63-.14-1.27-.14-1.91q.07-17.36.15-34.72a7.25,7.25,0,0,0-.2-2.7,5.7,5.7,0,0,1-.1-1.32c0-.11-.09-.26-.17-.28a.38.38,0,0,0-.33.1.65.65,0,0,0-.12.39c0,3.69.06,7.39,0,11.09s-.1,7.18-.15,10.77c0,.24,0,.49-.06.73h-.1L35.47,67c0,2.21,0,4.43,0,6.64a1.64,1.64,0,0,0,0,.23c.09.75.24,1.49.26,2.24.07,3.13.12,6.27.12,9.4A2.77,2.77,0,0,0,36.62,87.38ZM120,62.78c.07.64.13,1.25.21,1.85,0,.31.1.63.15.94,0,.12.08.28,0,.34-.32.33-.14.71-.12,1.07s.12.29.34.33a3.65,3.65,0,0,1,.67.25l.86.29c0-.84,0-1.6,0-2.37,0-.26.09-.55-.23-.73-.06,0,0-.21-.06-.35l.24.09a20.82,20.82,0,0,0,0-2.62,18.33,18.33,0,0,0,0-2.57c0-.94,0-1.87,0-2.81,0-1.32,0-2.64,0-4,0-.09-.1-.17-.13-.27a1,1,0,0,1,0-.31c0-.81,0-1.62-.08-2.42-.09-1.23-.24-2.46-.36-3.69,0-.05,0-.13,0-.15.36-.34.08-.75.2-1.13h-1.12l.56.61-.28.3-.53-.32c0,.58.11,1.12.12,1.67l.09,14.69q0,.39,0,.78C120.54,62.59,120.45,62.84,120,62.78ZM13.26,29.06l.06,0-.67-1.45.09,0c.23.49.49,1,.7,1.46s.52.57.91.79l-.39-1c.53.72.75,1.64,1.57,2.22v-.26a3.94,3.94,0,0,0,.81.82,4.41,4.41,0,0,1,.75.53h0c-.41-.86-.83-1.71-1.22-2.58a3.82,3.82,0,0,1-.18-.74l-2.88-1.79c-.08-.05-.2-.15-.27-.12-.39.16-.63-.14-.92-.3a5.68,5.68,0,0,1-.59-.41c.26.73.55,1.4.86,2.08a.48.48,0,0,0,.17.2Zm-.94,17.63c0,1.06,0,2,0,2.94a.47.47,0,0,0,.19.3c.4.34.81.66,1.21,1s.56.49.93.81c0-.45,0-.79,0-1.14a.56.56,0,0,0-.31-.57c-.4-.26-.77-.57-1.16-.87l.08-.11,1.34.81c.15-.91.17-1.7-.79-2.11a1.83,1.83,0,0,1-.31-.24ZM12.76,44l.07-.11.95.4.05-.33c.21-.1.52-.2.51-.26a1.48,1.48,0,0,0-.25-.66.64.64,0,0,0-.4-.29c-.45,0-.69-.38-1-.62l-.33-.25v3.06L13.93,46c-.12-.33-.12-.59.23-.7,0,0,0-.21,0-.24-.27-.22-.57-.42-.85-.63ZM143.24,57.5l-.13.07c0,1,0,1.92,0,2.87a.25.25,0,0,0,.13.21l1.44.68c0-.83,0-1.66,0-2.49a.39.39,0,0,0-.11-.28C144.14,58.2,143.69,57.85,143.24,57.5Zm-132-26.25v1l0,8.31c0,.26,0,.49.38.4,0-.12,0-.24,0-.35,0-1.5,0-3,0-4.51,0-.54.17-1.12-.23-1.54.11-.15.25-.25.25-.35,0-.94,0-1.88,0-2.82ZM143.13,54c0,1,0,2.08,0,3.15a.18.18,0,0,0,.08.16l1.45.87a.52.52,0,0,0-.27-.69c-.4-.24-.77-.51-1.2-.8.69-.37,1,.28,1.5.5,0-.63,0-1.22,0-1.8a.35.35,0,0,0-.1-.24Zm1.59-1.84c-.08-.67.2-1.27-.29-1.76.33-.14.35-.38.09-.59s-.47-.41-.69-.63-.3-.36-.5-.6l.43,0-.63-.79c0,1.06,0,2,0,2.92a.27.27,0,0,0,.09.21Zm-26,11.43h-.11a.7.7,0,0,0,0,.14c-.05,1-.07,1.95-.16,2.93a.93.93,0,0,0,.72,1.16c.1,0,.18.12.27.15a4.62,4.62,0,0,0,.57.07c-.37-.79-1.1-1.2-1.34-1.93l.12-.12,1,.88.1,0a3.25,3.25,0,0,0-.16-1.23A4.67,4.67,0,0,1,118.68,63.61Zm1.09-.09V62.43a3.39,3.39,0,0,1,0-.71,1.88,1.88,0,0,0-.91-2.11c0,1.1.08,2.13,0,3.15-.08.85.48,1.27.86,1.82l.17-.07-.43-1.12ZM13.94,34.14c0-.55.19-1.06-.42-1.42a5.87,5.87,0,0,1-.93-.81l.06-.07,1.25,1,.11,0c0-.27.06-.66-.09-.79a15.35,15.35,0,0,0-1.64-1.14V32.8a.21.21,0,0,0,.08.17Zm.71,19.28c0-.48,0-.88,0-1.28,0-.09-.12-.19-.21-.25L13.31,51c-.31-.25-.61-.51-.91-.77l-.1,0c0,.43,0,.85,0,1.27a.27.27,0,0,0,.11.2Zm0,.13c-1-.07-1.52-1-2.36-1.47,0,.44,0,.83,0,1.22a.39.39,0,0,0,.19.25c.5.36,1,.7,1.5,1l.66.47Zm128.5,7.19c0,.11-.08.14-.07.18.07.68.15,1.37.23,2a.31.31,0,0,0,.11.15l1.27,1c0-.57,0-1.12,0-1.68a.25.25,0,0,0-.06-.17C144.14,61.76,143.65,61.26,143.14,60.74ZM12.49,39.31l.08-.12,1.28.63c0-.3,0-.59-.12-.71-.41-.39-.89-.73-1.41-1.15,0,.63,0,1.15,0,1.67s0,.77.55.91a4.2,4.2,0,0,1,.91.48.83.83,0,0,0-.43-1.11A5.45,5.45,0,0,1,12.49,39.31Zm132.1,15.18.12-.07c0-.38,0-.75,0-1.13a.4.4,0,0,0-.08-.29c-.48-.49-1-1-1.5-1.46,0,.36,0,.74,0,1.11a.9.9,0,0,0,.4,1A9,9,0,0,1,144.59,54.49ZM12.33,45.26c0,.34,0,.62,0,.91s.07.33.27.45c.47.27.92.58,1.38.88.21.14.41.3.66.49V46.08l-.39.28.26.43-.07.08A24.14,24.14,0,0,1,12.33,45.26Zm0-12c-.13.87-.12,1.59.68,2.07a5.21,5.21,0,0,1,.79.7l.12-.06c0-.41,0-.82,0-1.23a.36.36,0,0,0-.11-.24Zm25,13.05c-.1.5,0,.8.4,1a8.87,8.87,0,0,1,.94.55l1.66,1c0-.33.14-.6-.16-.8s-.73-.51-1.11-.73C38.53,47,38,46.68,37.36,46.35Zm82.42,8.24c0-.64-.56-.83-.8-1.22,0,.69,0,1.36-.06,2a1.68,1.68,0,0,0,.8,1.45c0-.86.34-1.79-.39-2.56ZM40.4,46c-1.17,0-2-.92-3.11-1.16a.74.74,0,0,0,.25.44c.83.48,1.68,1,2.52,1.42.09,0,.2.09.34.15Zm103.15,17.7-.19.15c0,.43,0,.86,0,1.29a.36.36,0,0,0,.11.23c.39.25.78.48,1.21.74,0-.21,0-.4,0-.6s0-.4-.06-.53C144.29,64.52,143.91,64.11,143.55,63.68Zm-.17,2.25c0,.37,0,.69,0,1a.55.55,0,0,0,.1.32c.39.37.79.72,1.2,1.09,0-.45,0-.89,0-1.33a.37.37,0,0,0-.12-.25C144.19,66.49,143.82,66.24,143.38,65.93ZM80.86,44v-.17a57.33,57.33,0,0,0-6.68.2v.2Zm3.77.83c-.19-.09-.35-.24-.51-.24-1.85,0-3.7,0-5.55,0a.86.86,0,0,0-.29.11l0,.14Zm22.6-.82,0-.17-10,.45v.12ZM37.39,45.38l-.15.1c.07.22.08.56.23.64.94.53,1.9,1,2.86,1.48l.1-.13a1.92,1.92,0,0,0-.29-.28c-.29-.2-.59-.36-.88-.55Zm-25-9.83h-.13c0,.29,0,.69.16.85a11.3,11.3,0,0,0,1.41,1c.18-.84.13-1-.51-1.32Zm98.88,8.61.16,0h3.95a1.21,1.21,0,0,0,.38-.06c.09,0,.15-.12.22-.17a1.38,1.38,0,0,0-.24-.14.81.81,0,0,0-.15,0l-2.88,0A2.08,2.08,0,0,0,111.24,44.16ZM13.76,38.61l.11,0c0-.33,0-.78-.17-1a7.94,7.94,0,0,0-1.44-.89c0,.4,0,.8.13.95A10.12,10.12,0,0,0,13.76,38.61Zm0,3.85c.14-.58.05-1-.43-1.24-.23-.13-.44-.33-.66-.48a3.93,3.93,0,0,0-.4-.17c.06.37,0,.72.17.87A13.1,13.1,0,0,0,13.76,42.46ZM10.1,25.36c.25.76.42,1.45.7,2.1.11.26.44.41.68.62l.07-.09A10.14,10.14,0,0,1,11,26.42C10.89,25.9,10.55,25.67,10.1,25.36ZM119.77,47.69a2.62,2.62,0,0,0-.84-2.24C118.57,46.44,119.19,47,119.77,47.69Zm27.89-.79c.17-.82.05-1-1-1.58l-.38.44Zm-27.92,2.18c.34-.92-.41-1.37-.78-2A1.81,1.81,0,0,0,119.74,49.08Zm24.76-1,.08-.09c-.22-.8-1-1.11-1.5-1.7,0,.28,0,.61.12.76A14.71,14.71,0,0,0,144.5,48.06ZM119,51.69c-.28.83.18,1.3.71,1.76C120,52.64,119.51,52.18,119,51.69Zm.75-.12a1.46,1.46,0,0,0-.82-1.56c0,.31,0,.61,0,.9a.26.26,0,0,0,.08.2Zm-.94-7c.09.6.68.67,1,1C120,44.53,119.86,44.39,118.8,44.58Zm.9,13.93c.27-.84-.27-1.26-.71-1.75C118.71,57.56,119.23,58,119.7,58.51Zm24.7-11.57.1,0c0-.14,0-.33-.12-.41-.45-.45-.92-.87-1.39-1.3a.74.74,0,0,0,.09.55C143.5,46.15,144,46.54,144.4,46.94ZM119,48.8c-.29.82.35,1.14.77,1.6C119.84,49.9,119.68,49.57,119,48.8ZM10.36,27.21l-.63-1.9C9.51,26.45,9.67,26.92,10.36,27.21ZM119,58.3c-.12.89,0,1,.75,1.42C119.88,59,119.12,58.83,119,58.3ZM88.5,44.13l0,.19h2.91ZM24.06,36.88c-.29-.63-.92-.86-1.43-1.23C22.88,36.32,23.53,36.53,24.06,36.88Zm2.47,2.42.09-.09-1.39-1.08C25.19,38.51,25.6,38.85,26.53,39.3Zm120.34,5.53c.17.38.53.54.87.77C147.85,45.07,147.74,45,146.87,44.83ZM120.21,68l.85.11,0-.09-.82-.42ZM39.64,88.71l.57.09v-.56ZM35.38,45.9h-.14l.07,1.3h.07Z"/><path d="M103.59,41.33c14.58-.67,29.16-.26,43.73-.1v.2C132.75,41.59,118.17,42.05,103.59,41.33Z"/><path d="M71,40.49c-.68.49-23.87.47-25.32,0,.2,0,.39-.06.58-.06,2.77-.07,5.54-.17,8.31-.2,3.56,0,7.13,0,10.69,0,1.78,0,3.55.07,5.33.12A1.53,1.53,0,0,1,71,40.49Z"/><path d="M86.38,22.36c.54-.24,27.61-.11,28.74.13-9.51-.09-19,.39-28.54-.07A.82.82,0,0,1,86.38,22.36Z"/><path d="M39.86,37.8c-4-1.86-7.72-4.24-11.61-6.3l.08-.15L40,37.64Z"/><path d="M38.67,39c-.37.13-9.44-4.69-9.7-5.12Z"/><path d="M29.64,36.92l1.94,1.22c.87.57,1.74,1.16,2.62,1.71a1.85,1.85,0,0,0,.55.14.6.6,0,0,1,.21.14,4.3,4.3,0,0,1,.38.49.94.94,0,0,1,.08.34,1.38,1.38,0,0,1-.4,0,.42.42,0,0,1-.23-.24A1.6,1.6,0,0,0,34,40l-4.49-2.91Z"/><path d="M119.15,30.62,112,27.37l0-.11a69.44,69.44,0,0,1,7.16,3.2Z"/><path d="M113.67,26.59l5.58,2.22,0,.14-5.6-2.19Z"/><path d="M122.88,28a12.36,12.36,0,0,1-3.69-1.42A12.57,12.57,0,0,1,122.88,28Z"/><path d="M31,36.82l-2.41-1.48c.48-.21,1.91.63,2.49,1.36Z"/><path d="M118.35,27.36,114,25.5A14.29,14.29,0,0,1,118.35,27.36Z"/><path d="M125.57,31.06l.14.33,0,.11-3.49-1.41,0-.11.34.07.37.13,2.13.87A1.71,1.71,0,0,0,125.57,31.06Z"/><path d="M145.43,39.61l2.75,1.28-.09.18-2.75-1.3Z"/><path d="M39.94,81.73l-1.07,1.43-.13-.1,1-1.44Z"/></svg>