<svg id="Layer_1" data-name="Layer 1" xmlns="http://www.w3.org/2000/svg" viewBox="0 0 160 112" width="160mm" height="112mm" ><defs><style>.cls-1{fill:#fff;}</style></defs><title>sketch</title><path d="M48.7,93.77a1.85,1.85,0,0,1,.55.06c.14,0,.23.2.34.3-.11.11-.22.3-.34.3-1,0-2,0-3,0a2.5,2.5,0,0,0-.67.07c-.3.09-.56.12-.75-.18a.6.6,0,0,0-.08-.08l-.38-.29a4.2,4.2,0,0,0,.32-.29.44.44,0,0,0,.07-.17c.17-.72.35-1.45.51-2.18a1.33,1.33,0,0,0,0-.4c.18-.36.35-.71.52-1.07.64-1.35,1.28-2.68,1.89-4A17,17,0,0,1,50.26,82a1.38,1.38,0,0,0,.14-.26c.14.5.49.63.87.38s.91-.66,1.38-1a16,16,0,0,1,2.29-1.56c.56-.26,1.2-.4,1.78-.67l2.1-1a6.73,6.73,0,0,0,3.08-3.54,16,16,0,0,0,1.26-5.31A3.32,3.32,0,0,1,63.89,67c.68-.67.7-1.6,1.17-2.33L65,64.56l-1.24,1.72c.25-.69.44-1.33.7-1.94a8.56,8.56,0,0,1,2-3.24A6,6,0,0,1,69,59.91a.25.25,0,0,1,.19,0c.47.31.91.07,1.36-.07l1.14-.35-.27-.18.05-.13,1.95.5c-.23-.66-.49-1.33-.7-2a1.87,1.87,0,0,1-.1-.74,3.59,3.59,0,0,1,1.13-2.33l-1.17.85c0-.51.88-1.28,2.29-2.15a9.48,9.48,0,0,1-1.17-.89,25.27,25.27,0,0,1-1.63-2,1.7,1.7,0,0,1-.14-.67c-.09-.44-.16-.88-.26-1.32,0-.1-.14-.18-.23-.26-.61-.52-1.22-1-1.82-1.55-.26-.23-.23-.67-.62-.84a7.75,7.75,0,0,1-1.19-.59,2.89,2.89,0,0,1-.85-.74c-.34-.48-.59-1-.9-1.54s-.46-.44-.77-.14a1.19,1.19,0,0,1-.87.3c-.51.06-1,.21-1.26-.47-.11-.31-.44-.36-.77-.38-1.25-.06-2.5-.13-3.75-.23A5.81,5.81,0,0,1,57,41.65a11.07,11.07,0,0,0-2-.4c-1-.15-2.07-.28-3.1-.42s-2.21-.27-3.31-.45c-2-.34-4-.64-5.9-1.08-1.44-.32-2.84-.84-4.25-1.27L38.26,38c-.28.35-.4.37-.79.12a.64.64,0,0,1-.16-.11,1.37,1.37,0,0,0-1.51-.5,6.09,6.09,0,0,1-2.58-.56,14.54,14.54,0,0,1-4.28-2,10.22,10.22,0,0,0-1.52-.75,5.92,5.92,0,0,1-2.12-2c-.44-.62-.92-1.2-1.35-1.82a5,5,0,0,1-.45-.89,3.67,3.67,0,0,1-.33-1.73c0-.54,0-1.08,0-1.62a.73.73,0,0,1,.14-.5c.29-.21.32-.51.42-.79.27-.73.56-1.44.85-2.16a2.73,2.73,0,0,1,1.52-1.41,1.94,1.94,0,0,0,.42-.25,6.67,6.67,0,0,1,3-1.6c.65-.15,1.25-.51,1.9-.62a44.41,44.41,0,0,0,4.84-1.06.78.78,0,0,0,.34-.17L34,17.74a81,81,0,0,1,15.54-3.3L42,16.08l0,.12c.63-.14,1.25-.28,1.88-.4,3.74-.71,7.47-1.48,11.22-2.11,2.42-.41,4.86-.64,7.3-.89q3.95-.41,7.9-.68c2.26-.15,4.54-.23,6.81-.3,2.43-.08,4.87-.09,7.31-.15a48.79,48.79,0,0,1,8.1.54c1.59.23,3.2.34,4.81.51,2,.21,4.06.38,6.07.67,3.76.53,7.5,1.14,11.25,1.72l.64.12-.29.09,1.88.42,0-.06-.48-.21,0-.09c.78.19,1.56.36,2.33.57s1.64.53,2.48.76a2.31,2.31,0,0,0,.67-.08,1.84,1.84,0,0,1,.4.06c2,.62,4,1.25,6.07,1.85.62.18,1.25.31,1.88.47a.8.8,0,0,1,.37.18,3.4,3.4,0,0,1-1.31-.11c-.46-.08-.91-.19-1.38-.26l.3.15a24.3,24.3,0,0,1,6.29,3.76A3.49,3.49,0,0,1,135.9,25a4.72,4.72,0,0,0,.69,1.65,1.68,1.68,0,0,1,.26,1.13c-.08.55-.12,1.1-.23,1.64a4.61,4.61,0,0,1-.34,1.15A7.21,7.21,0,0,1,133.45,34a4.63,4.63,0,0,1-2.16.53,1.78,1.78,0,0,0-.56.1c-1.32.5-2.65,1-4,1.55-.42.16-.81.39-1.22.59l.09.11c-.11.13-.2.33-.34.38-1.23.43-2.46.86-3.7,1.25-.64.2-1.3.31-1.95.49l1.61-.12,0,.17a2.32,2.32,0,0,1-.37.13l-4.14.8a37.17,37.17,0,0,1-4.36.83,25.43,25.43,0,0,0-3.73.59c-2.79.63-5.62,1-8.44,1.33-.64.08-1.29.1-1.93.18-.23,0-.45.19-.68.24a.38.38,0,0,1-.26-.07c-.39.1-.79.33-1,.22-.61-.34-1.21,0-1.81-.08a7.2,7.2,0,0,0-1.38.11.77.77,0,0,1-.3,0c-.55-.17-.75.22-1,.57v0c-.26,1-1.17,1.45-1.88,2a7.34,7.34,0,0,1-2.48,1.4c-.1,0-.17.15-.25.23-.73.65-.39,1.57-.61,2.36-.12.43-.21.87-.37,1.29A2.1,2.1,0,0,1,85,52.5c-.38.14-.75.33-1.19.52l.89.46c.3.16.6.32.54.75a1.23,1.23,0,0,0,.11.43l-.84-.56.48,1c.12-.28.21-.2.31,0a4.16,4.16,0,0,1,.45,2c0,.22,0,.44,0,.66l.13,0a4.33,4.33,0,0,0,.09-1c-.06-.5-.23-1-.33-1.47a1.11,1.11,0,0,1,.07-.39c.1.08.23.14.29.24a4.29,4.29,0,0,1,.64,1.26A5.5,5.5,0,0,1,86.51,58a1.66,1.66,0,0,1-.25.52.58.58,0,0,1-.21.25.63.63,0,0,0-.37.84c0,.07.21.13.31.11.32-.05.62-.18.94-.21a1.93,1.93,0,0,1,.62.11c.1,0,.21.09.28.06a2.38,2.38,0,0,1,1.7.13c.82.27,1.64.56,2.43.88a4.22,4.22,0,0,1,2.45,3.1q1.31,4.82,2.63,9.64c.18.67.41,1.33.58,2a1.22,1.22,0,0,0,.72.84c.86.44,1.72.89,2.59,1.32a16.75,16.75,0,0,0,3.48,1.56c.31.08.57.39.86.58A19.37,19.37,0,0,1,109.35,83a12.21,12.21,0,0,1,2.33,4c.36,1.06.84,2.08,1.23,3.13.32.88.58,1.79.88,2.68.07.22.18.44.26.64a1.62,1.62,0,0,1-.42.35,1.52,1.52,0,0,1-.6.1c-.26,0-.52-.07-.78-.07-1,0-1.94,0-2.91,0-.32,0-.37-.18-.32-.5a4.58,4.58,0,0,0,.07-1.11c0-.74-.12-1.49-.2-2.23a.83.83,0,0,0-.18-.42,10.9,10.9,0,0,0-2.43-2.68,17.09,17.09,0,0,1-1.7-1.1c-.48-.45-1-.33-1.52-.46-.66-.17-1.31-.4-2-.62a22.37,22.37,0,0,0-2.78-1,14.68,14.68,0,0,1-5.44-2.83,17,17,0,0,1-3.64-3.39,4.3,4.3,0,0,1-1.13-2.92,5.38,5.38,0,0,0-.63-3c-.06-.12-.21-.27-.31-.27a.88.88,0,0,1-.8-.45,3.18,3.18,0,0,0-2-1.34c-.28-.07-.51-.11-.57.32l-.28-.31V71l.51-.16c0,1.11.34,2.16,0,3.27-.61,1.85-1.11,3.73-1.67,5.6-.09.32-.24.61-.66.6,0,.46-.4,1,.48,1.25l-.57.1,0,.42.47.22c-.47,0-.48.32-.47.66.07,1.3.11,2.6.18,3.9a12.31,12.31,0,0,1-.38,3.87c-.31,1.12-.55,2.26-.81,3.39a1.82,1.82,0,0,0-.06.46c.15,1.51.31,3,.45,4.54a.74.74,0,0,1-.11.41,1.47,1.47,0,0,1-1.57.78,2.22,2.22,0,0,0-.77,0,1.19,1.19,0,0,1-1.22-.59A1.42,1.42,0,0,1,77,98.37c.21-1.1.25-2.23.37-3.34a4.9,4.9,0,0,1,0-.54,3.07,3.07,0,0,0-.13-1.44,14,14,0,0,1-.55-6.27c.12-1.12.21-2.26.31-3.38a5.87,5.87,0,0,1,.15-1.19,5.1,5.1,0,0,0-.09-2.3c0-.11,0-.22,0-.33a1.05,1.05,0,0,0-.1-.44,20.52,20.52,0,0,1-1.34-2.25,9.06,9.06,0,0,1-.4-2.11,5.59,5.59,0,0,1,0-1.09l.2.5.1,0-.42-1.77A3.54,3.54,0,0,1,75,72l-.12-2.12a4.61,4.61,0,0,0-3.62,1.46.43.43,0,0,0-.1.24c-.17,1.22-.31,2.45-.53,3.67a7.78,7.78,0,0,1-2.43,4.14c-.58.57-1.21,1.08-1.82,1.62a12.84,12.84,0,0,1-4.4,2.4c-1.52.56-3,1.25-4.5,1.86-.79.32-1.6.57-2.4.85a8.29,8.29,0,0,0-1.45.52,10.05,10.05,0,0,0-4.92,6.08,1.55,1.55,0,0,0,0,.31C48.7,93.23,48.7,93.49,48.7,93.77ZM73.88,62l-.91.57.42,0,0,.1c-.38.24-.76.5-1.16.71L64.9,67a.59.59,0,0,0-.32.34c-.14.42-.23.86-.35,1.36.18-.15.32-.25.44-.37s.19-.26.32-.35c.92-.6,1.87-1.19,2.79-1.8a31.36,31.36,0,0,1,6.07-3.45A.33.33,0,0,0,74,62.5a4,4,0,0,0-.13-.55,3.64,3.64,0,0,1-.34-.34,1,1,0,0,0-1.38-.24,2.14,2.14,0,0,1-.3.17c-1.9,1-3.78,2-5.69,3-.73.36-.89,1-1.27,1.72l.31-.12,7.85-3.86C73.32,62.13,73.61,62.06,73.88,62ZM89,12.71v-.07c-1.35-.06-2.7-.2-4.06-.17q-6.33.1-12.65.33c-2.57.09-5.14.22-7.69.47-4.06.4-8.12.83-12.15,1.42-3.67.54-7.31,1.32-11,2-.1,0-.27.08-.27.11,0,.34-.25.28-.42.33a5.75,5.75,0,0,1-.72.15,56,56,0,0,0-9.77,2.65,10.23,10.23,0,0,0-3.59,1.85,3.43,3.43,0,0,0-.92,1.35.47.47,0,0,0,.07.53,6.16,6.16,0,0,1,.53.8l-.07,0-.57-.32a3.09,3.09,0,0,0,.38,1,7.45,7.45,0,0,0,2.32,2.51c1,.58,2,1,3,1.5a7,7,0,0,0,.88.29l2.92.84,0-.1L35,30.09c-1.48-.59-3-1.16-4.45-1.78a4.85,4.85,0,0,1-2.3-1.64L28,26.39l.09-.09a1.18,1.18,0,0,1,.28.2,6,6,0,0,0,2.26,1.39,57.86,57.86,0,0,0,12.5,3.6c2.65.42,5.32.68,8,1,1.39.16,2.8.23,4.2.36.15,0,.29.16.44.24l-.05.15c3.35.18,6.7.4,10,.51s6.71.1,10.07.12,6.69,0,10,0v0l-8,.86a135.86,135.86,0,0,0,14.54,0H82.55c.75-.08,1.5-.13,2.25-.19,3.2-.25,6.4-.54,9.6-.75,2.86-.19,5.73-.29,8.59-.43,1.65-.08,3.3-.1,4.94-.24,2.74-.24,5.48-.51,8.2-.84a43.46,43.46,0,0,0,10.35-2.57l4.88-1.85c.22-.08.45-.12.68-.18l0,.1a5.13,5.13,0,0,1-.57.38c-.88.43-1.76.87-2.65,1.26a47.49,47.49,0,0,1-16.08,3.8c-.78,0-1.55.09-2.32.15-.1,0-.2.13-.3.2.1.07.18.18.28.19a2.76,2.76,0,0,0,.81,0c3.26-.51,6.53-1,9.78-1.58a23.57,23.57,0,0,0,5.21-1.32c.55-.23,1.07-.56,1.62-.8.81-.35,1.63-.66,2.44-1a12.94,12.94,0,0,0,3.54-2,3.26,3.26,0,0,0,1-1.25,1.85,1.85,0,0,0-.18-1.73,6,6,0,0,0-2.27-2.06,48.19,48.19,0,0,0-4.42-2.39c-1.36-.65-2.78-1.18-4.17-1.76-.09,0-.27-.09-.29,0-.2.31-.44.09-.63,0-.52-.17-1-.38-1.53-.57a16.31,16.31,0,0,0-1.78-.62c-4.54-1-9.12-1.78-13.73-2.42a81.28,81.28,0,0,0-11.56-.92c-1.19,0-2.38-.06-3.56-.12-.75,0-1.49-.19-2.23-.2-2.65,0-5.3,0-7.94,0-.53,0-1,.06-1.58.09v-.14ZM135.54,26.5c-.1.22-.15.39-.23.53a1.66,1.66,0,0,1-.31.39,17.54,17.54,0,0,1-6.44,3.44,47.68,47.68,0,0,1-7.77,1.92c-2.82.43-5.63.88-8.45,1.29-1.07.15-2.16.21-3.24.31-.13,0-.35,0-.39-.09-.11-.25-.3-.18-.48-.18-1.83.1-3.66.15-5.49.29s-3.68.09-5.52.31c-2.92.33-5.86.54-8.8.68a112,112,0,0,1-12.15-.17c-2.34-.14-4.66-.35-7-.47-2-.1-4-.09-6-.17s-3.87-.2-5.8-.32L54.08,34l-.69,1.74V33.93a4.75,4.75,0,0,1-.57-.06c-.43-.08-.93.07-1.22-.44-.05-.1-.24-.11-.44-.2l-.35,2.07-.13,0,.21-2c-2-.25-4-.44-6-.75s-4-.76-6-1.14v0l4.91,1.39v0l-3.53-.49a.58.58,0,0,0,0,.16,7.09,7.09,0,0,0,1.62,5.29,2.12,2.12,0,0,0,.56.35l.09-.11a5.71,5.71,0,0,1-.89-2.44A20.45,20.45,0,0,1,41.33,33c.07,0,.11,0,.11.08a1,1,0,0,1,0,.23,9.08,9.08,0,0,0,1.29,4.37c.32.61.52.71,1.25.64-.45-.66-.87-1.32-.46-2.15a3.55,3.55,0,0,0,.91,2.09.93.93,0,0,0,.48.27c1,.18,2.09.34,3.13.5.81.12,1.63.22,2.46.33l.08-.94c.58.13.57.13.64.72,0,.12.12.32.2.33.75.1,1.5.17,2.24.24.11-.34,0-.44-.31-.43-.09,0-.19-.07-.28-.11l0-.11.63.1c.09.6.09.6.66.65l1.07.12c2,.24,4,.49,6,.72.41.05.81.05,1.21.08l.07-.4c1-.1,1.93-.26,2.87-.27,1.26,0,2.53.11,3.79.2.4,0,.78.23,1.18.27.71.06,1.41,0,2.12.07l4.9.09c.45,0,.92.19,1.26-.2.36.47.93.09,1.31.41a.8.8,0,0,1-.21.05c-1.14,0-2.27,0-3.41,0s-2-.1-3-.11a6.06,6.06,0,0,0-1.11.16v.13a117,117,0,0,0,12.14.4l-.79-.09v-.11a6,6,0,0,1,1-.21c1.85-.12,3.71-.23,5.56-.3,1.2-.05,2.4-.05,3.6,0a10.35,10.35,0,0,1,1.36.19h.38l0-.14c-.64-.34-1.47.06-2.06-.47.67.16,1.33-.26,2,.11a2.69,2.69,0,0,0,1.39.1c.84-.07,1.66-.28,2.49-.35,2.63-.23,5.27-.43,7.9-.64,1.19-.1,2.38-.13,3.55-.33,2.19-.37,4.38-.81,6.56-1.27a15.89,15.89,0,0,0,5.6-1.82c.12-.08.29,0,.44-.08-.08.13-.17.25-.25.37s0,0,0,.1c.71-.24,1.42-.45,2.1-.72a6.57,6.57,0,0,0,1.47-.75c1.45-1.06,2.86-2.16,4.29-3.24l.35-.26a.39.39,0,0,1-.11.26A22.1,22.1,0,0,1,129,34.43c-.1.07-.19.16-.29.24a.74.74,0,0,0,.34-.06c.82-.35,1.62-.76,2.45-1a4.67,4.67,0,0,0,2.17-1.74c.53-.72,1-1.47,1.56-2.24a11.71,11.71,0,0,1-1.74,3A6.12,6.12,0,0,0,135.54,26.5ZM112.88,93.09l.1-.1c-.06-.23-.11-.46-.18-.69L112,89.56c0-.08,0-.19-.08-.21-.51-.2-.47-.7-.59-1.1a13.15,13.15,0,0,0-2.64-5,25.77,25.77,0,0,0-3.18-2.81,3.76,3.76,0,0,0-1.26-.64c-1.3-.44-2.63-.81-3.94-1.25-.62-.21-1.2-.53-1.81-.78-.17-.08-.39,0-.56-.13s-.43-.32-.68-.42a1.28,1.28,0,0,1-.85-1c-.84-3.43-1.49-6.92-3.05-10.13a1.91,1.91,0,0,1-.11-.41l.08-.05.38.28c0-.1,0-.17,0-.24l.09-.47c.14.08.34.13.41.25.18.36.31.74.46,1.11.27.7.53,1.4.79,2.11a12.83,12.83,0,0,0-1.2-3.78c-.13-.25-.22-.57-.63-.5-.06,0-.16-.14-.21-.24-.26-.51-.47-1.06-.78-1.55a3.81,3.81,0,0,0-1-1.23,7.91,7.91,0,0,0-1.76-.67.45.45,0,0,0-.28,0c-.14,0-.27.13-.4.13H87l-.37,0c.64.2,1.27.28,1.9.42s1.23.3,1.83.48a3.2,3.2,0,0,1,1.59,1,.92.92,0,0,1-.33-.06c-.85-.29-1.69-.64-2.56-.85A7.71,7.71,0,0,0,86,61.46c-.47.07-.94.21-1.4.32.66,1.6.36,3.16.26,4.68L86.33,66a3.82,3.82,0,0,1-1.09.72,1.56,1.56,0,0,0-1,1.37l3.36-2.33v.88l-.21-.17L85.47,68a1.55,1.55,0,0,0,.77-.16c.83-.45,1.64-.94,2.46-1.4a7.41,7.41,0,0,1,.7-.31l.08.16-2.11,1.34.6.64A17.59,17.59,0,0,1,90.31,67l.1.16L88.23,68.6l.5.73,1.38-.62.06.13-1.26.83.41.71,1.18-.64,0,.08-1.11.8.25.52L91,70.58l.07.15c-.31.22-.63.42-.93.65a.39.39,0,0,0-.17.28,5.19,5.19,0,0,0,.23.62l1-.53.07.11c-.18.16-.35.32-.54.47-.46.36-.47.36-.21,1,.56-.25,1-.76,1.75-.88-.47.79-1.37.93-1.78,1.5a4.77,4.77,0,0,1,.36.93,6.26,6.26,0,0,0,2.5,4.41c.11.08.26.21.26.32,0,.44.37.59.63.83a5.9,5.9,0,0,1,.79.79A5.23,5.23,0,0,0,96.8,82.4a8.28,8.28,0,0,1-2.23-2.62l.57.53c0-.09,0-.13,0-.16a9.22,9.22,0,0,1-1.62-2.67,1.14,1.14,0,0,1,0-.37,1.12,1.12,0,0,1,.26.22c.16.24.29.5.43.74a9.37,9.37,0,0,0,4.8,4.3c.61.24,1.22.5,1.82.78a4.3,4.3,0,0,1,.6.38l-.07.15c-.8-.29-1.61-.55-2.39-.88s-1.49-.72-2.13-1c1.62,2,4.14,2.24,6.49,2.91l-.68-.51.06-.11c.11,0,.23,0,.34.1.53.27,1,.55,1.59.8a5.22,5.22,0,0,0,.79.26,4.8,4.8,0,0,1,1.17.33,8.05,8.05,0,0,1,4,5.29c.15.75.25,1.51.38,2.3.35,0,.72,0,1.07,0a1.73,1.73,0,0,0,.5-.21ZM80.94,79.43a24.79,24.79,0,0,0,2-10c0-.48,0-1,0-1.43,0-.73-.21-1.45-.2-2.18a1.74,1.74,0,0,0-.61-1.43,1.2,1.2,0,0,1-.4-.9,1,1,0,0,0-.41-.66,3.58,3.58,0,0,0-.95-.24,3.42,3.42,0,0,0-2.72.34.54.54,0,0,0-.22.44.89.89,0,0,1-.42.84,1.28,1.28,0,0,0-.59,1l.35,0,0,.09-.86,1c-.16.2-.17.37.11.48l.24.11-.09.68c.63.17.7.46.27.9a2.57,2.57,0,0,0-.33.33.85.85,0,0,0-.16.44c.13,1.18.25,2.35.42,3.53.1.7.28,1.39.43,2.09A.19.19,0,0,0,77,74.7a22.39,22.39,0,0,1-.12-4.63,1.86,1.86,0,0,1,.1-.39h.17a31.26,31.26,0,0,0,.77,7l.14-3.1h.16l.14,5.77A2.75,2.75,0,0,1,80.94,79.43ZM77.46,57.22a3.21,3.21,0,0,1,.13-1.71c.14-.57.29-1.14.45-1.73-.42-.06-.89-.37-1.22.06s-.92.82-.57,1.61l1-1.11a12.82,12.82,0,0,1-.92,1.35,1.12,1.12,0,0,0-.2.58c0,.83,0,1.65.09,2.48a10.18,10.18,0,0,0,.15,1.57,2.25,2.25,0,0,0,.91,1.36l.13-2h.12A2.41,2.41,0,0,0,78,61.75h2c.18-.58,0-.48,1-.46,0,.27-.11.37-.35.18l-.22.41.06.11.78-.24c.57-.19,1.13-.37,1.69-.57a.65.65,0,0,0,.3-.22,3.85,3.85,0,0,0,.8-3.12,11.37,11.37,0,0,0-1.23-3.29c-.07-.12-.13-.25-.19-.38l.13-.05a7.76,7.76,0,0,1,1.71,5.13,2.71,2.71,0,0,0,.53-3.11c-.4-.73-.81-1.47-1.23-2.19a1.57,1.57,0,0,0-1.7-.53,3.79,3.79,0,0,1-1.2.37c-.82.06-1.64,0-2.48,0A13.35,13.35,0,0,1,77.46,57.22Zm-8.07,18A25,25,0,0,1,65.54,77c-1.94.7-3.81,1.61-5.72,2.4s-3.75,1.47-5.62,2.22a2.41,2.41,0,0,0-.67.36c-.56.44-.91,1.11-1.52,1.49,0,0,0,.07-.06.12l8.13-3.29c-.22.29-.42.61-.7.72-2.4.91-4.81,1.78-7.23,2.66-.13,0-.33,0-.41.1-.55.58-1.07,1.18-1.59,1.78a.65.65,0,0,0,.35-.06,10.76,10.76,0,0,1,1.85-.66,18.69,18.69,0,0,0,3.23-.93l1.06-.37a1.52,1.52,0,0,1-.54.3l-5.6,2a2.7,2.7,0,0,0-1.45,1.5l.15-.06,4.46-2.16c.18-.08.36-.14.55-.21l.06.14a7.7,7.7,0,0,1-.91.62c-1.49.73-3,1.42-4.48,2.13-.13.07-.31.12-.38.24-.29.41-.53.84-.79,1.26a2.62,2.62,0,0,0,.61-.27l2.48-1.26a2.42,2.42,0,0,0,.39-.21c.74-.54,1.46-1.11,2.22-1.62a13,13,0,0,1,2.86-1.39c1.34-.48,2.62-1.1,3.93-1.66a6.27,6.27,0,0,0,2.14-1.08,8.69,8.69,0,0,1,1.43-.91c.64-.42,1.26-.85,1.89-1.28l0-.09a48.3,48.3,0,0,1-7.86,2.79.69.69,0,0,1,.33-.24,64.31,64.31,0,0,0,8-3.07,3.8,3.8,0,0,0,.88-.6A13.23,13.23,0,0,0,69.39,75.24Zm10,23.47c.43.22.61.18.61-.15a17.39,17.39,0,0,0-.22-4.08,1,1,0,0,1,0-.42c.19-.83.4-1.66.58-2.49A14.67,14.67,0,0,0,81,87.74c0-.59-.06-1.18-.13-1.77-.12-1-.17-1.07-1.26-1l-1,.06v-.1a3.34,3.34,0,0,1,2.19-.07V83.72a4.37,4.37,0,0,0-2.35.39.36.36,0,0,0-.26.41c0,.26,0,.52,0,.88l-.28-.52a2.67,2.67,0,0,0-.46,1.83c0,.69.11,1.37.12,2.05a13.87,13.87,0,0,0,1,4.36c.25.74.27.82-.41,1.25.3,1.74.19,3.53.55,5.3A1,1,0,0,0,79.4,98.71ZM62.59,82.05a1.26,1.26,0,0,0,.33-.1c.52-.29,1-.6,1.54-.88a12.05,12.05,0,0,0,3.82-3,.72.72,0,0,1,.24-.19,2.13,2.13,0,0,0,1-1.1,13.54,13.54,0,0,0,.87-4.27c0-.14-.18-.34-.33-.44a.51.51,0,0,0-.41.05,8.1,8.1,0,0,0-.84.55l-.08-.11c.89-1.26,2.27-2,3.37-3.21-.75.27-1.33.65-2,.93-1.82.84-3.57,1.86-5.36,2.77-.48.24-.88.47-.83,1.08,0,0,0,0-.08,0l-.32-.48c-.17.1-.39.16-.46.29-.28.51-.52,1-.81,1.64a30.34,30.34,0,0,1,5.25-2.32.55.55,0,0,1-.24.19l-2.26,1a5.93,5.93,0,0,0-2.92,2,1.24,1.24,0,0,1-.19.21c1.32-.5,2.6-1.07,3.89-1.62,1-.42,2-.82,2.92-1.22a2.22,2.22,0,0,1,.45-.06l0,.14a70.53,70.53,0,0,0-10.47,5.39.78.78,0,0,0,.17,0l8.89-3.72,2.12-.89C68.55,78.25,65.78,80.35,62.59,82.05ZM83.32,43.5l.66.72c.2.24.49.45.28.91-.4-.44-.77-.82-1.1-1.22a.68.68,0,0,0-.7-.29c-.17,0-.39-.07-.47.21s.05.38.22.52c.53.45,1.05.91,1.57,1.37.07.07.07.2.1.3s-.24.06-.31,0a4,4,0,0,1-.85-.59,9.8,9.8,0,0,1-.8-1,1.23,1.23,0,0,0,.53,1.73,3.09,3.09,0,0,1,.48.4c.14.14.27.33.06.49s-.31,0-.4-.13c-.35-.33-.66-.68-1.08-1.11,0,.33-.1.65,0,.78.49.53,1,1,1.62,1.54l2.33-2.86a1.27,1.27,0,0,1,0,.24,1.12,1.12,0,0,1-.11.25c-.51.82-1,1.64-1.54,2.45a1.61,1.61,0,0,1-.48.55c-.28.16-.21.31-.08.61a6.05,6.05,0,0,0,.83-.72c.65-.84,1.26-1.7,1.88-2.56.17-.24.26-.57.67-.54.06,0,.16-.08.21-.15a4.1,4.1,0,0,0,.68-1.87H85.25a1.24,1.24,0,0,1,.07.19v.18C84.71,43.23,84,43.74,83.32,43.5ZM36.68,31.57c.15.88.29,1.67.42,2.47a4,4,0,0,1,0,.49l-.13,0L36.55,34a4,4,0,0,0,0,.7c.1.62.22,1.23.36,1.84a.51.51,0,0,0,.28.28c.33.1.67.17,1,.25l.1,0v-.33c.6-.21.3-.8.51-1.13.13.44.27.91.42,1.37a.79.79,0,0,0,1,.62c-.12-1.75-.72-3.47-.32-5.29Zm-.27,4.87a44.67,44.67,0,0,0-.17-4.64c-.05-.25-.11-.36-.36-.4a3.57,3.57,0,0,1-1.78-.6.55.55,0,0,0-.18-.06c-.29,0-.47,0-.49.36,0,.76-.12,1.52-.14,2.28a1.25,1.25,0,0,0,.51,1.22c.08,0,.11.23.12.34a.88.88,0,0,0,.9.9,5.4,5.4,0,0,1-.37-3.56,3.11,3.11,0,0,1,0,.74A5.42,5.42,0,0,0,35,35.36,1.58,1.58,0,0,0,36.41,36.44Zm44.82,6.82,0-.1a6.2,6.2,0,0,0-2.8.3c-.19.1-.28.19-.24.41.08.41.11.84.21,1.25.27,1.19.57,2.38.85,3.57,0,.16.09.33.14.53a12.09,12.09,0,0,0,2.12-5.5l-1.78.16,0-.09Zm.54,4.57c-.18.12-.3.19-.41.28a2.23,2.23,0,0,0-.87,1.41c-.15,1.14-.22,2.3-.32,3.48l.62-.08a1,1,0,0,0,.95-.67c.31-.86.65-1.71,1-2.57A1.29,1.29,0,0,0,82.26,48a.72.72,0,0,1-.18-.21c-.19-.32-.4-.32-.66,0Zm3.12.78a6,6,0,0,0-.58.66c-.39.58-.43.61-1,.37-.18.64-.35,1.28-.55,1.92-.14.46-.16.45.34.45.08,0,.15,0,.23,0,.5,0,1,.06,1.42-.37a4,4,0,0,0,1-2.71l-.56,0C85,48.94,84.76,48.94,84.89,48.61Zm-7.79-1-.24.22c-.07.08-.18.17-.18.25a2.07,2.07,0,0,1-.54,1.52.21.21,0,0,0,0,.07c.1.36-.17.43-.49.52.12.33.21.65.35.94a3.76,3.76,0,0,0,.5.81c.2.25.47.67.66.65.4-.06.46.49.83.34a.73.73,0,0,1-.07-.31,2.31,2.31,0,0,0-.17-1.51A2.75,2.75,0,0,1,77.47,49a.62.62,0,0,0,0-.38C77.34,48.23,77.21,47.89,77.1,47.58Zm-29,46.17A5.73,5.73,0,0,1,49,90.22c-.76.36-1.49.74-2.21,1.13a.27.27,0,0,0-.11.1l-.91,2.28.45-.22C46.3,93.85,46.92,93.92,48.11,93.75ZM68.7,43c.47.54,1,1.08,1.41,1.63A5.9,5.9,0,0,0,72,46a3.48,3.48,0,0,0,.77.18,2.62,2.62,0,0,0-.33-1.64,5.66,5.66,0,0,0-1.85-1.7.25.25,0,0,0-.15,0l-.76.16,2.91,2.34-.09.14a2.74,2.74,0,0,1-.4-.15A11.85,11.85,0,0,1,69.35,43C69.16,42.8,69,42.6,68.7,43ZM71,68.34c-.18.13-.34.28-.52.4A28.86,28.86,0,0,0,67,70.86a16.73,16.73,0,0,1-2.54,1.55.49.49,0,0,0-.28.65h.09L70.7,69.5a.35.35,0,0,0,.19-.21C70.93,69,70.93,68.66,71,68.34Zm9.63,12.79c.07-.36.11-.69.2-1s0-.31-.2-.42a2.53,2.53,0,0,0-1.46-.24,1.16,1.16,0,0,0-.66.16c-.09.06,0,.32-.08.49s0,.06,0,.08-.15.18-.24.2-.17-.1-.2-.18a1.16,1.16,0,0,1-.06-.38l-.06-.64h-.12c0,.15-.18.32-.15.45.15.65.33,1.3.52,2C78.8,80.93,79.71,81.15,80.58,81.13Zm6.69-35.32a.46.46,0,0,0,.7,0c.57-.49,1.15-1,1.74-1.46a.72.72,0,0,0,.37-.8l-.65-.05.18-.23-1.51.26c-.08,0-.17.15-.21.24-.15.34-.27.7-.43,1-.31.64-.63,1.26-.95,1.88l.08.07Zm-3.15,16,0-.13-.69.19a3,3,0,0,1-.86.31.78.78,0,0,0-.76.43l.26.27a7.71,7.71,0,0,1,1.53,2.26.76.76,0,0,1,0,.54c-.07.11-.31.11-.49.16l.14.53a.94.94,0,0,0,.81-.78,2.68,2.68,0,0,0-.06-1.7c-.16-.42-.3-.85-.42-1.28,0-.07.06-.18.1-.27a.91.91,0,0,1,.21.23,5.44,5.44,0,0,1,.19.61l.09,0-.07-1h-.93ZM31.66,30.28a1.27,1.27,0,0,1,0,.35,5.7,5.7,0,0,0,.15,2.66.39.39,0,0,0,.31.25c.4,0,.49.15.48.5s.07.43.38.33a8,8,0,0,1,.25-3.6ZM78,49.56c.23,1,.47,2.11.71,3.17.08.37.38.26.62.28s.3-.11.33-.31c.09-.67.19-1.33.28-2,0-.32.08-.65.12-1l-.11-.1c-.23.13-.46.24-.68.38a.77.77,0,0,1-.93-.08C78.2,49.82,78.09,49.67,78,49.56ZM76.51,47.2c.16-.25.38-.44.36-.61a11.89,11.89,0,0,0-.33-1.86,1.08,1.08,0,0,0-.47-.71c-.23-.1-.35-.17-.35-.43l-1,.15c.52.8,1.23,1.41,1.68,2.22a.91.91,0,0,1-.51-.25c-.53-.56-1-1.14-1.56-1.71a3.31,3.31,0,0,0-.27-.26l-.09.08A10.91,10.91,0,0,0,76.51,47.2ZM73.87,63.69l-.14-.11c-.78.61-1.71.94-2.49,1.61a16.22,16.22,0,0,1-2.67,1.62,7.89,7.89,0,0,1-2.73,1.41,4.79,4.79,0,0,0-1.21.58.4.4,0,0,0-.24.57,2,2,0,0,0,.26-.09c1.08-.55,2.17-1.07,3.22-1.67,1.3-.75,2.56-1.56,3.83-2.34.63-.38,1.26-.76,1.87-1.16C73.7,64,73.77,63.83,73.87,63.69Zm-9.65,8.43,2.68-1.37.1-.06a10.84,10.84,0,0,1,2.62-2,3.38,3.38,0,0,1,1-.51c.5-.11.63-.47.83-.89-.79.43-1.55.79-2.26,1.24a10.5,10.5,0,0,0-1.94,1.31,15.61,15.61,0,0,1-2.76,1.76C64.3,71.76,64.13,71.86,64.22,72.12ZM31.31,33.45l.08-.09c-.12-.64-.24-1.28-.38-1.92a.39.39,0,0,0-.18-.22c-.36-.16-.73-.3-1.13-.45a3.35,3.35,0,0,0,.56,2C30.47,33.11,31,33.24,31.31,33.45ZM71.38,69.11A6.79,6.79,0,0,0,74.71,67l-.15-.33c-.88.55-1.76,1.11-2.65,1.64A.93.93,0,0,0,71.38,69.11Zm6.85,14.71a4.59,4.59,0,0,1,2.62-.52v-.82A7.43,7.43,0,0,0,78.3,83a.21.21,0,0,0-.12.16C78.18,83.37,78.21,83.58,78.23,83.82Zm-3.3-36.57-.47-.52c.37.61.67,1.28,1.41,1.55a.35.35,0,0,0,.5-.17,1.65,1.65,0,0,0,.11-.45c-.37.11-.68-.12-1.35-1-.35-.47-.63-1-.91-1.46C73.89,46,74.6,46.54,74.93,47.25ZM47,90.8a12.6,12.6,0,0,1,1.8-.9c.83-.26,1.1-1,1.62-1.56-.82.4-1.59.86-2.39,1.26A1.87,1.87,0,0,0,47,90.8Zm34-9.23a5.53,5.53,0,0,0-2.72.17c-.09,0-.21.14-.22.22a3.57,3.57,0,0,0,.07.54L80.92,82ZM66.26,64.05l5.48-2.83a2.89,2.89,0,0,0-1,.19c-1,.46-2,1-3.07,1.43C67.08,63.09,66.81,63.64,66.26,64.05ZM26.14,28.57c.07.4.14.73.18,1.06a1.54,1.54,0,0,0,1.07,1.25c0-.43,0-.85,0-1.27a.38.38,0,0,0-.14-.28C26.9,29.08,26.55,28.85,26.14,28.57ZM72.61,66.86l1.47-1-.31-.65-1.66,1c.53,0,.22.28.21.45ZM28.83,32c0-.48,0-1,0-1.48a.33.33,0,0,0-.11-.26c-.25-.17-.52-.31-.8-.47C27.85,30.86,28.24,31.76,28.83,32ZM55.66,85.2l0,.09c.76-.22,1.51-.46,2.28-.64a4.89,4.89,0,0,0,2.25-1.28ZM75.75,52.55l.14-.12a3.24,3.24,0,0,1-1.11-1.86c-.18-.54-.34-1.1-.54-1.65a7.69,7.69,0,0,0-.38-.76.26.26,0,0,0-.07.21c.39,1.11.75,2.23,1.19,3.31C75.12,52,75.49,52.26,75.75,52.55ZM87.27,67.68,86,68.32c.69.71.94.71,1.73,0Zm-57.52-38-.13.08c.06.24,0,.57.19.7a6.22,6.22,0,0,0,1.1.64V30ZM117,39.19a15.08,15.08,0,0,0-4.36.8A27,27,0,0,0,117,39.19ZM89.36,73.4l-.19,0c0,.13-.09.28,0,.4q.41,1.2.84,2.4a2.42,2.42,0,0,0,.18.36l.12-.05c-.19-.73-.38-1.45-.58-2.18,0-.09-.16-.15-.25-.22l.09,0ZM83,75.08,84,72l-.12,0-.37-.57Zm8.24-31.53-.12-.13a2.64,2.64,0,0,0-.42.3c-.52.57-1,1.15-1.54,1.72l-.2.23a5.68,5.68,0,0,0,1.31-.85A9.46,9.46,0,0,0,91.24,43.55ZM66.85,69.43l.07.15,3.19-1.77L70,67.65A15.7,15.7,0,0,0,66.85,69.43ZM75.27,57l-.62.81a.35.35,0,0,0-.06.24q.24.64.51,1.29a19.74,19.74,0,0,0,.17-2ZM87,69.18c.7.76.85.79,1.38.26L88,68.73ZM57,79.45c-.21.09-.48.2-.74.33a1.1,1.1,0,0,0-.3.27,4,4,0,0,1-.48.52c-.29.21-.62.37-.93.55a16.13,16.13,0,0,0,1.79-.69.3.3,0,0,0,.13-.09Zm8.9-9.82,0-.06c-.14.05-.28.11-.43.15a1.93,1.93,0,0,0-.49.07c-.62.29-.7.19-.56,1l.23-.14ZM25.64,25.43c.05.89.2,1.44,1.23,1.72ZM75.31,55.81c-.74.75-1,1.2-.79,1.72C74.85,57,75.45,56.59,75.31,55.81Zm13.3,14-.58.3.52.81.5-.35ZM31.41,34.46a.55.55,0,0,0,.44.68c.41.12.8.29,1.2.43a1.67,1.67,0,0,0,.39,0l-.09-.41A1,1,0,0,1,32,34.92,4.05,4.05,0,0,0,31.41,34.46Zm32.08,5.87-.11.1c.08.1.16.28.25.29.38,0,.76,0,1.15,0,.09-.22,0-.33-.23-.34ZM77,78.07a1.77,1.77,0,0,0-1-1.87ZM28.83,29.92l.17-.47-1.15-.59C27.83,29.59,28.52,29.53,28.83,29.92ZM26,27.76l-.08.11L27.45,29l.13-.08c0-.11-.06-.28-.14-.33C27,28.31,26.47,28,26,27.76ZM88.75,59.88c-.78-.21-1-.16-1.3.28l.82.1ZM86.26,47l-1,1.48A1.52,1.52,0,0,0,86.26,47ZM29,33.26l-.1.08c.23.77.32.85,1,.81ZM65.06,40.4c.08.43.44.51,1.29.39C66,40.31,65.48,40.63,65.06,40.4ZM89.2,71.92l.43.77c.36-.4,0-.66,0-1ZM89,71.58c.48-.26.49-.29.12-.75l-.41.29ZM32.26,35.89l0,.1,2,.7,0-.11ZM66.79,62l.1.13L68,61.24l-.09-.13ZM92,43.4l-.13-.11c-.38.24-.45.69-.71,1l.11.08ZM76.34,75.22l.09,0L76,73h-.1ZM75,60.42,74.3,59.1C74.4,59.84,74.68,60.39,75,60.42ZM88.65,72.28l.24.84C89.11,72.88,89,72.66,88.65,72.28ZM76.49,53.66c-.31.08-.64.13-.59.64ZM68.39,43l-.07.07c.21.21.15.65.65.73Z"/><path d="M47.86,40.45a.66.66,0,0,1,.14,0c4,.69,7.91,1.8,12,2.16a2,2,0,0,1,.33.09v.12a7,7,0,0,1-1,0c-1.71-.24-3.43-.43-5.12-.76-2-.4-3.94-.93-5.9-1.4-.14,0-.28-.1-.41-.15Z"/><path d="M70.94,49.34,72.31,52A5.47,5.47,0,0,1,70.94,49.34Z"/><path d="M106.2,80l-1-.54A1.28,1.28,0,0,1,106.2,80Z"/><path class="cls-1" d="M64.32,78.66l0-.12-2,.79,0,.1Z"/><path class="cls-1" d="M69.22,63.82l.06.12,2.81-1.69L72,62.11A15.57,15.57,0,0,0,69.22,63.82Z"/><path d="M80.86,54.11a4.07,4.07,0,0,1,1.2,2.66Z"/><path d="M81.16,61.41l.21-.67.17.06-.2.67Z"/><path d="M64.32,78.66l-2,.77,0-.1,2-.79Z"/><path d="M69.22,63.82A15.57,15.57,0,0,1,72,62.11l.08.14-2.81,1.69Z"/></svg>