<svg id="Layer_1" data-name="Layer 1" xmlns="http://www.w3.org/2000/svg" viewBox="0 0 160 112" width="160mm" height="112mm" ><defs><style>.cls-1{fill:#fff;}</style></defs><title>sketch</title><path d="M122.85,33.62l-1.16-1,.07-.07c.39.3.79.59,1.18.91a1.31,1.31,0,0,0,.83.29H132a9.84,9.84,0,0,0,1.2-.15l.9-.1.63,0c-.14-.32-.43-.18-.64-.35l.65-.19.45-1.8c-.22,0-.41,0-.6,0L125.76,31a2.53,2.53,0,0,1-.77-.12c3.86-.16,7.73-.16,11.63-.23a79.48,79.48,0,0,0-6-5.62c-2.07-1.78-4.19-3.52-6.28-5.27l.06-.12a1.34,1.34,0,0,1,.38.14c1.08.74,2.16,1.48,3.23,2.24.57.41,1.11.87,1.7,1.33,0-.32-.15-.44-.32-.59l-3.15-2.65c-.5-.43-1-.87-1.5-1.32a1,1,0,0,0-.76-.27,5.36,5.36,0,0,1-2.11-.18,5.45,5.45,0,0,1,1.93-.24l.15-.41,1.28,1.07,5.5,4.57a2.91,2.91,0,0,1,.82,1,2.86,2.86,0,0,0,.71.81c.66.56,1.35,1.09,2,1.62l4.38,3.44c.28.23.54.49.85.78l-.48.28a7.36,7.36,0,0,1-.43,3.42c-.46-.19-.33-.62-.46-1-.21.46-.63.32-1,.33-1,0-1.92,0-2.87,0,0,.56,0,1.06,0,1.56,0,.86.05,1.73.07,2.6a1.21,1.21,0,0,0,.29.83,51.8,51.8,0,0,0,4.09,4.78c1.88,1.84,3.55,3.86,5.24,5.87.89,1.05,1.79,2.09,2.72,3.09,1.07,1.16,2.17,2.28,3.27,3.4a7.2,7.2,0,0,0,1.45,1.52c.12.07.15.36.16.55,0,.59,0,1.17,0,1.76q0,6.48,0,13,0,7.54.05,15.08c0,1.17.06,2.34.17,3.5a2,2,0,0,1-.09,1,.67.67,0,0,1-.36.36,5.45,5.45,0,0,1-1.14.12c-.36,0-.72-.1-1.08-.09-4.6.1-9.2.16-13.8.33-3.73.14-7.46.43-11.18.64-2.48.15-5,.28-7.44.41h-.66a9.85,9.85,0,0,0-.68-1.25,11.65,11.65,0,0,1-1-2.15A68.51,68.51,0,0,0,110,82.32a2.61,2.61,0,0,1-.35-.71,14.7,14.7,0,0,0-1.55-3.4l-4.69-8.88c-1.12-2.12-2.22-4.26-3.37-6.36-.5-.92-1.17-1.75-1.68-2.66a7,7,0,0,1-1-2.61l.39.2V57c0-3.17,0-6.34,0-9.51a1.8,1.8,0,0,0-.17-1,1.52,1.52,0,0,1-.09-.72q-.1-4.65-.18-9.32c0-.5,0-1,.06-1.51h.13c.06,1,.12,2.08.17,3.12s.12,2.17.14,3.26,0,2.12,0,3.18h.12v-.36q0-4.65-.08-9.32c0-.67,0-.69-.75-.69-4.71,0-9.41,0-14.12,0-.84,0-1.69-.09-2.53-.14-1-.07-2.09-.15-3.15-.27.36,0,.72-.05,1.08-.05H96.9c.36,0,.72-.06,1.08-.09l.18,0c4.49.21,9,.11,13.48.15l3.45,0h7.73Zm3.49,6.77c.17,0,.31,0,.31-.21,0-.58,0-1.16,0-1.75,0-.26-.18-.36-.47-.46a12.76,12.76,0,0,0,.14,2.42c0,.54-.06,1.07-.07,1.61a.4.4,0,0,0,.36.44C126.57,41.72,126.82,41,126.34,40.39ZM103.64,43a4.12,4.12,0,0,0-1.36-1.66,2.59,2.59,0,0,0,.13,1c.41.67.92,1.29,1.45,2l-.21-1.16a6.21,6.21,0,0,1,.54,1.81,27.54,27.54,0,0,1-1.88-2.31c0,1.08,0,2,0,3A2.4,2.4,0,0,0,103.1,47l.18-2.4h.12a10.72,10.72,0,0,1-.06,2.4,1.21,1.21,0,0,0,.1.75c.49.85,1,1.69,1.55,2.52a1.07,1.07,0,0,0,.56.5c-.14-1-.59-1.82-.8-2.73l1,2.13c.09-1.42.1-2.81.08-4.2a1.16,1.16,0,0,0-.24-.6c-.55-.74-1.12-1.47-1.69-2.2C103.85,43.06,103.73,43,103.64,43Zm30.06-7.83h0a1.11,1.11,0,0,0-.06-.94,9.65,9.65,0,0,0-2.14,1c-.23.14-.24.33-.24.56,0,.83,0,1.66,0,2.48l0,9.14a3.1,3.1,0,0,0,.05.45l2.42.14c0-.2,0-.32,0-.44,0-4,0-7.91,0-11.87A2.33,2.33,0,0,0,133.7,35.16ZM112,74a3.26,3.26,0,0,1,.45.46c.69,1,1.37,1.94,2.06,2.91.36.5.74,1,1.11,1.48l.13,0v-.58q-.07-3.86-.13-7.69a2.42,2.42,0,0,1,.06-.66,2,2,0,0,0-.26-1.83c-.33-.41-.61-.85-.93-1.27-1-1.3-1.95-2.58-2.91-3.88-1.68-2.27-3.34-4.55-5-6.83-.12-.17-.27-.31-.4-.47a12.52,12.52,0,0,0-.12,1.68,1.66,1.66,0,0,0,.41,1.28s0,.1,0,.18l-.44-.12v1.3c0,.43,0,.86,0,1.28s.17.83-.13,1.27c-.81-1.89-1.6-3.72-2.42-5.6-.06.1-.1.13-.1.16,0,1.4,0,2.79.09,4.18a2.31,2.31,0,0,0,.21.81c.56,1.27,1.14,2.54,1.72,3.81.06.13.13.27.26.52a2.23,2.23,0,0,0-.07-1.25,6.39,6.39,0,0,1-.24-1l.57.39a7,7,0,0,0,.47.95c1.17,1.77,2.37,3.52,3.55,5.27a3.24,3.24,0,0,1,.28.47.29.29,0,0,1,0,.26.32.32,0,0,1-.27,0,4.61,4.61,0,0,1-.46-.63c-.58-.92-1.15-1.86-1.73-2.78-.43-.68-.87-1.35-1.38-2.13a2.45,2.45,0,0,0-.23.68c0,1.92,0,3.84,0,5.75a2.4,2.4,0,0,0,.23,1c.22.47.54.89.8,1.35,1.54,2.67,3.09,5.35,4.61,8,.71,1.25,1.36,2.53,2,3.79.1.18.23.35.34.52l.09,0,0-.4,1.36,2.11c.07-.11.1-.14.1-.17q0-3.67,0-7.33a1.19,1.19,0,0,0-.17-.5c-.25-.49-.53-1-.83-1.53.66-.07.59.6,1,.75a.67.67,0,0,0-.17-.71c-1.14-1.62-2.28-3.23-3.41-4.85a1.82,1.82,0,0,1-.11-.28Zm34.67-19.4a4.11,4.11,0,0,1-.45-.38l-4.93-5.66L138,44.7c-.12-.14-.31-.35-.27-.44.13-.28-.06-.41-.18-.58-.44-.6-.91-1.18-1.34-1.8S135,41,134.45,40.35a3.82,3.82,0,0,0,0,.41l-.09,6.42c0,.32,0,.63.38.79l-.64.56c-.24-.21-.49-.48-.79-.08,0,0-.15,0-.23,0a7.48,7.48,0,0,0-.82,0c-.36,0-.72.15-1.08.17a.87.87,0,0,1-.54-.17C130,48,129.5,47.49,129,47c-.07-.07-.16-.15-.17-.24a1.08,1.08,0,0,0-.65-.93l0,.41-.38-.25-.16.27c-.73-.35-1.58-.38-2.19-1.17l1.9.68,0-.06-1.86-1.88c-.47.17-.63.14-.6-.19a1,1,0,0,0-.42-.81c-1.19-1.18-2.4-2.35-3.56-3.55a2.85,2.85,0,0,0-1.28-.79c-1.34-.39-2.65-.87-4-1.33a.66.66,0,0,0-.75.07,6.89,6.89,0,0,0-2-1l1.28.27a1.1,1.1,0,0,0-.89-.76c-.4-.09-.79-.2-1.17-.31a1,1,0,0,1-.38-.15,3.63,3.63,0,0,0-1.35-.61l-.45.71.23.2a4.2,4.2,0,0,0-1.76-.08c-1.13,0-2.26,0-3.39,0-.14,0-.29,0-.5.06l.61.39H104c.16.21.51.3.38.71-1.46-.08-2.63-1.07-4.06-1.16l4.27,1.73,0,.12L103.44,37l-1.12-.44a2.11,2.11,0,0,0-1-.27,1.25,1.25,0,0,0,.45.35l5.85,2.33.68.26a14.27,14.27,0,0,1-2.26-.64c-.76-.28-1.5-.6-2.25-.91s-1.39-.65-2.21-.93a3.33,3.33,0,0,0,.14.34,32.06,32.06,0,0,0,2.14,3.3c1.23,1.62,2.43,3.27,3.62,4.92.69.95,1.23,2,2,2.89,2.54,3.06,5,6.15,7.54,9.24a1.93,1.93,0,0,0,1.43.66c.5,0,1,.14,1.36-.38,0,0,.1,0,.24-.08-.1.15-.16.22-.21.29s-.08.16-.14.28a4.82,4.82,0,0,0,2.77-.19,1.88,1.88,0,0,0,.59.18c1.48,0,3-.08,4.42-.13,2.67-.1,5.33-.23,8-.31,4-.11,8.07-.17,12.11-.28.73,0,1.47-.13,2.24-.2a2.64,2.64,0,0,0-.11-.25c-.05-.06-.12-.11-.18-.17a11.26,11.26,0,0,1-2.66-3.31,1.49,1.49,0,0,0-.23-.28l-3.36-3.82c-.08-.09-.19-.15-.34-.28,0,.17,0,.26,0,.32a5.5,5.5,0,0,0,.9,1.62c.9,1,1.74,2,2.6,3a3.29,3.29,0,0,1,.28.44ZM117.23,67.67c.53-.87,1-1.67,1.5-2.44.79-1.21,1.35-1.75,2-2a5.54,5.54,0,0,1-.5.67,19.86,19.86,0,0,0-2.79,4,3.32,3.32,0,0,0-.23,2c.93-1.4,1.44-3,2.74-3.94a1,1,0,0,1-.19.47c-.75,1.13-1.49,2.26-2.26,3.37a2,2,0,0,0-.35,1.18c0,1.72,0,3.44,0,5.15,0,.52-.09,1-.13,1.56l-.4-.14c0,.6,0,1.15.08,1.69a3.27,3.27,0,0,0,.21,1.48s0,.15,0,.22a3.19,3.19,0,0,0-.06.53c0,2,.07,4.08.08,6.12,0,1.09,0,2.18-.07,3.27a1.36,1.36,0,0,1-.14.7c-.3.52-.06,1,.07,1.45,1-.1,1.92-.22,2.87-.29,1.75-.12,3.5-.25,5.25-.32a36.21,36.21,0,0,1,4.42,0,24.74,24.74,0,0,0,3.75.06c.88-.06,1.77-.15,2.65-.22.18,0,.44-.06.52,0,.23.27.52.21.78.21,1.15,0,2.3,0,3.45-.08.39,0,.77,0,1.16-.06v-.12a20,20,0,0,0-2.85-.14c.92-.07,1.92-.18,2.92-.22,1.19-.05,2.38-.07,3.57-.08h5.21c.2,0,.39,0,.6,0V89.92l-.43.69a6.67,6.67,0,0,1-.24-1c0-.89-.1-1.78-.09-2.67a63.62,63.62,0,0,0-.4-8.16,28.37,28.37,0,0,1-.16-4.22c0-2.46.09-4.93.13-7.39a5.8,5.8,0,0,0-.12-.77c.22-.13.15-.41.16-.67,0-1.89.07-3.79.12-5.69a3.93,3.93,0,0,1,.06-.48.57.57,0,0,1,.17.39,5.86,5.86,0,0,0,0,.84,19.56,19.56,0,0,1,.26,3.74l.15,6.72c0,.24,0,.47.05.7a.54.54,0,0,0,.1-.35c0-2.73,0-5.45-.08-8.18,0-1.21,0-2.42-.07-3.63a1.23,1.23,0,0,1,.1-.58,1.93,1.93,0,0,0,.15-1c-.52,0-1,0-1.48,0-.26,0-.63,0-.74-.16s-.44-.21-.68-.2c-.65,0-1.29.08-1.94.1-4.84.12-9.69.22-14.53.35-1.72,0-3.43.12-5.15.17a.66.66,0,0,0-.59.31c-1.71,2.48-3.44,4.94-5.16,7.4-.11.15-.23.28-.35.42l-.1-.08c1.77-2.71,3.61-5.37,5.58-8h-2.77c-1,0-1,0-1.73.85A63.69,63.69,0,0,0,117.44,65a3.88,3.88,0,0,0-.76,2.53c0,.35,0,.71,0,1.06.5-.58.18-1.28.4-2ZM106,46.09a1.66,1.66,0,0,0,0,.22c0,2.63,0,5.25.06,7.87a1.47,1.47,0,0,0,.15.58,6.73,6.73,0,0,0,1,1.69,17,17,0,0,1,1.12,1.42c1.44,2,2.85,4,4.31,5.92.88,1.18,1.83,2.31,2.75,3.46.08.1.17.19.35.39a58,58,0,0,0-.4-8.65c-.26-.23-.59-.08-.71-.42l.51-.23a7.37,7.37,0,0,0-.37-.68c-.49-.81-1-1.61-1.51-2.41-.69-1.09-1.35-2.2-2.1-3.26-1.07-1.53-2.21-3-3.32-4.54a1.23,1.23,0,0,0-.25-.26ZM116.8,65.36l.14,0a41.73,41.73,0,0,1,4.45-6.6H120c-.21.86-.85.22-1.25.4l-.53.62-.06-.05.41-.75c-.25.05-.49,0-.57.11a2.77,2.77,0,0,0-1,1.8c0,1.1-.11,2.21-.16,3.31C116.79,64.61,116.8,65,116.8,65.36Zm-11.1,6.3c0-.29-.06-.43-.06-.57,0-1.13,0-2.26.08-3.38a2.61,2.61,0,0,0-.23-1.17c-.58-1.29-1.14-2.59-1.7-3.88a3.72,3.72,0,0,0-.19-.34c-.09.81-.07,1.6-.09,2.38a4.12,4.12,0,0,0,.31,1.77c.31.74.59,1.5.88,2.25.06.14.09.29.14.44-.68-.62-.79-1.54-1.29-2.37a2.1,2.1,0,0,0,.13,1.29c.61,1.09,1.19,2.2,1.79,3.3C105.51,71.44,105.57,71.5,105.7,71.66Zm0-10.43c.07-.09.1-.12.1-.15,0-.93,0-1.86,0-2.78a1.24,1.24,0,0,0-.11-.47q-1.05-2.14-2.11-4.29a3.46,3.46,0,0,0-.22-.31,14.24,14.24,0,0,0,0,2.26,2.86,2.86,0,0,0,.16.76c.54,1.26,1.08,2.52,1.63,3.78ZM103.28,50c0,.76,0,1.44,0,2.13a1.26,1.26,0,0,0,.15.45l2.08,4.24c0,.09.12.18.18.27a11.16,11.16,0,0,0,.1-2,2.4,2.4,0,0,0-.18-.89c-.7-1.37-1.43-2.71-2.15-4.07C103.45,50.15,103.4,50.13,103.28,50ZM130.2,46.8a.52.52,0,0,0,.33-.56c-.06-1.53-.09-3.06-.17-4.59s-.2-3.1-.31-4.65a2.45,2.45,0,0,0-.08-.37l-.14,0a2.07,2.07,0,0,0-.17.45,7.11,7.11,0,0,0,0,1c0,1.25.09,2.5.12,3.75s.06,2.74.09,4.12C129.83,46.27,129.82,46.61,130.2,46.8ZM102.08,58.31h.09l.2-2.06a5.18,5.18,0,0,1,0,1.42,4.06,4.06,0,0,0,.74,2.84c.05-.06.09-.09.09-.12,0-1.37,0-2.74,0-4.11a2.39,2.39,0,0,0-.6-1.31l-.06.68c-.07-.58.09-1.2-.49-1.74,0,1.44,0,2.8,0,4.16A.66.66,0,0,0,102.08,58.31Zm-2-20.16-.13.06c0,1.07,0,2.14,0,3.21a1.61,1.61,0,0,0,.2.62c.4.7.81,1.39,1.22,2.09a3.84,3.84,0,0,0,.27.32l.15-1.69c-.5-.16-.53-.19-.66-.75a2,2,0,0,0,0-.24c-.26-1-.52-2-.79-3A4.12,4.12,0,0,0,100.07,38.15Zm28.78,7.41.14,0c0-.13,0-.26.06-.39,0-2,0-4,0-6,0-.1-.08-.21-.15-.38-.08.55-.16,1-.2,1.47s0,.93,0,1.39-.07.91-.11,1.36a1,1,0,0,1-.09-.49v-2.6c0-.24,0-.48-.29-.49v5.5l.45-.23Zm-28.09,5.7-.16.05c0,.16,0,.32,0,.48,0,1.11.07,2.21.12,3.32a4.22,4.22,0,0,0,.91,2.08v-4.3c-.39.11-.5-.1-.55-.39s0-.4-.1-.6S100.83,51.47,100.76,51.26Zm2.65-2.94-.14,0a2.35,2.35,0,0,0,.19,1.27c.7,1.25,1.37,2.51,2.06,3.76a4.4,4.4,0,0,0,.28.41V51.28c-.7-.17-1-.78-1.35-1.3S103.76,48.87,103.41,48.32Zm-1,11.18-.15,0a8.66,8.66,0,0,1-.07.89,4.21,4.21,0,0,0,.45,2.91c.17.32.29.68.43,1l.14,0c0-.75,0-1.5,0-2.25A5.63,5.63,0,0,0,102.37,59.5Zm-2.28-17.12-.15,0c.12.76-.25,1.59.42,2.42l.06-1.29a7.46,7.46,0,0,0,.24,1.74,3.66,3.66,0,0,0,1.08,1.45,7,7,0,0,0-.21-1.73C101.13,44.1,100.58,43.25,100.09,42.38ZM117,69.13l-.18,0a1.91,1.91,0,0,0-.18.54,39.33,39.33,0,0,0,.15,7,23.69,23.69,0,0,0,.36-3.75C117.06,71.66,117.05,70.39,117,69.13Zm19.4-36.47h-.15l-.09-1.55h-.75l-.31,1.82h1.94V31.13h-.54ZM125.77,93.21c-2.92-.12-5.84,0-8.79.15.06.39.3.33.48.33,1.06,0,2.13,0,3.19-.07C122.36,93.51,124.06,93.35,125.77,93.21ZM102.38,54l.16,0,.08-.82c0,.74-.14,1.53.56,2.21,0-.87,0-1.65,0-2.42a2.75,2.75,0,0,0-.28-.78l-.18.19a1.74,1.74,0,0,0-.64-1.42,14.32,14.32,0,0,0,0,2.17A3.29,3.29,0,0,0,102.38,54Zm-1.73-5.72c0,1-.31,2,.23,2.89.56,0,.56,0,.61.47,0,.23-.09.49.2.77a13,13,0,0,1,0-1.54C101.83,49.78,101.14,49.07,100.65,48.26Zm.14,7.94c0,1-.05,1.81,0,2.65a4.4,4.4,0,0,0,.75,1.79c.07-.58,0-1.14.09-1.69A4.54,4.54,0,0,0,100.79,56.2ZM103,66.93a3.12,3.12,0,0,0-.12-2.07c-.3-.62-.48-1.31-.86-2-.08.49-.16.88-.22,1.27a.65.65,0,0,0,.07.29c.22.55.44,1.11.68,1.66C102.7,66.4,102.87,66.66,103,66.93Zm-1.37-17.75a7.17,7.17,0,0,0,0-1.86,3.94,3.94,0,0,0-1-1.54A3.75,3.75,0,0,0,101.65,49.18Zm11.57-14.32a.91.91,0,0,0,.67.61L118,36.79a3.14,3.14,0,0,0,.32.06,1.27,1.27,0,0,0-.8-.59l-2.39-.83C114.55,35.24,113.93,35.07,113.22,34.86ZM100.86,60.13c-.09.47-.2.89-.25,1.32a3.69,3.69,0,0,0,.92,2.06A4.5,4.5,0,0,0,100.86,60.13Zm22.36-25.26-.14,0a5.65,5.65,0,0,1,.06,1.69c0,.61.32.89.81,1.21,0-.27,0-.46,0-.65a4.46,4.46,0,0,1,0-1.26.56.56,0,0,0-.3-.73C123.51,35.08,123.37,35,123.22,34.87Zm-3.52,3.46a20.79,20.79,0,0,0-5.34-2.12,1.2,1.2,0,0,0,.82.65c.77.23,1.53.5,2.29.75ZM102.39,48.51c-.11.42-.22.8-.31,1.18a.74.74,0,0,0,0,.42c.31.59.65,1.17,1,1.87C103.26,50.65,103.35,49.46,102.39,48.51Zm20.79-11c0,.45,0,.81,0,1.16,0,.58.12.73.79,1a5.29,5.29,0,0,1,0-.8A1.28,1.28,0,0,0,123.18,37.53ZM100.12,50.11l-.16,0c0,1.18-.07,2.36-.08,3.54a1.91,1.91,0,0,0,.21.55c.08-.1.13-.13.13-.16,0-1.14.07-2.29.08-3.43A1.69,1.69,0,0,0,100.12,50.11Zm26.62-13.45c0-.56.07-1.08.08-1.59s0-.49-.63-.45v1.49C126.18,36.44,126.38,36.56,126.74,36.66Zm-24.37,9.83a2.19,2.19,0,0,0,.78,2.39A3.38,3.38,0,0,0,102.37,46.49Zm14.85,11.86a7.48,7.48,0,0,1-.7-.62,13.87,13.87,0,0,1-.87-1.15,6.79,6.79,0,0,0-1.14-1.31c.58,1,1.21,1.88,1.85,2.79A.66.66,0,0,0,117.22,58.35Zm-17-8.52c0-.89.35-1.8-.18-2.64A5,5,0,0,0,100.23,49.83Zm24.51-13c0,.55,0,1.06,0,1.58,0,.25.12.39.42.49,0-.53,0-1,.06-1.47S125.09,36.94,124.74,36.85Zm-.89,4.29c.09-1,0-1.1-.63-1.36A1.11,1.11,0,0,0,123.85,41.14Zm-3.17-6.26-.18,0c0,.49,0,1,0,1.47,0,1.21,0,1.21.22,1.49ZM100.31,47c.16-1.46.12-1.71-.36-2.11C100,45.59,99.76,46.28,100.31,47ZM98,49.66a4.72,4.72,0,0,0,0-2.56Zm1.89,4.81a7,7,0,0,0,.15,2.7A4.65,4.65,0,0,0,99.91,54.47Zm0,6a3.55,3.55,0,0,0-.1-2.59A18.28,18.28,0,0,0,100,60.51Zm28.3-24.41-.18,0c0,.49,0,1,.08,1.48,0,.07.17.13.38.28C128.41,37.21,128.81,36.59,128.26,36.1Zm-17.11-1.69-.05.13,1.94.63A2.07,2.07,0,0,0,111.15,34.41Zm14.69,7.23c.18-1.18.14-1.43-.21-1.66C125.71,40.56,125.44,41.14,125.84,41.64Zm-.93-.86.22,0c0-.42,0-.84,0-1.26,0-.22-.08-.37-.41-.39C124.86,39.69,124.58,40.27,124.91,40.78Zm-3-5.93V36l.44-.18v-1Zm10.85-.75a2,2,0,0,0-1.5.58c-.07.1,0,.27-.06.5ZM98,52.58a5.08,5.08,0,0,0,0-2.45Zm1.06.07a3.14,3.14,0,0,0,.13,2.21A4.37,4.37,0,0,0,99.08,52.65Zm25.69-18c-.06.73-.06.73.49,1l0-1Zm1.1,5.06a5.47,5.47,0,0,0-.1-2.06A4.07,4.07,0,0,0,125.87,39.75Zm9.21-6.42a3,3,0,0,0,2-.08A13.25,13.25,0,0,0,135.08,33.33ZM99.15,52.16a1.82,1.82,0,0,0-.09-1.47A3.36,3.36,0,0,0,99.15,52.16Zm26.78-17.53a1.47,1.47,0,0,0,0,1.41Zm3,2.13c0,.45-.18.91.09,1.33A2,2,0,0,0,128.9,36.76ZM99,55.46c-.08.88-.07.91.22,1.25A1.45,1.45,0,0,0,99,55.46Zm28.47-14.08,0,0V39.15h0Zm-1.52,1.82c0-.42.18-.82-.3-1.05C125.52,42.82,125.52,42.82,125.92,43.2Zm-1-1c.19-.68.19-.68-.13-1C124.67,42,124.67,42,124.93,42.24Zm-3-4.38c.25-.93.25-1,0-1.32Zm29.11,25.26c.14-1.21.13-1.39-.1-1.77ZM101.58,40.3l.25,1.11.12,0C101.94,41,102.09,40.63,101.58,40.3Zm47.77,17.58a1.93,1.93,0,0,0,1.15-.08C150,57.61,149.69,57.87,149.35,57.88Zm-27.57-19-.09-.77C121.45,38.44,121.35,38.66,121.78,38.84ZM137.7,33a3,3,0,0,0-.08-1.19A2.66,2.66,0,0,0,137.7,33Zm-10.26,3.91h0V35.64h0Zm-5.83.8.06,0v-1.2h-.06Zm9.32-1.56H131V34.88h-.08Zm7.61-5.47-.53-.44-.07.1C138.08,30.45,138.09,30.77,138.54,30.63Zm-18.37,5.26h.07v-1h-.07ZM102,59.73h.06l0-.75H102Zm-2.56.89.13-.06-.3-.62-.15.07ZM122.16,39.5l.16-.1-.3-.56-.14.07Zm8.31-.37h0v-.75h0ZM100,61.24l-.14.07.33.58.11-.06Zm17.59-2.05c-.32,0-.37.13-.4.48ZM121.72,35h-.08v.55h0Zm-21,.87-.1.11a.48.48,0,0,0,.58.25Zm24.43.56.08-.15-.44-.26-.08.13Zm-8.81-1.77,0-.14-.36-.06,0,.08Zm12.06,4.06.11-.12-.31-.23-.08.1Z"/><path d="M20.07,76.19l3.21.27v.09l-4.17-.09c-.49,0-1,.08-1.45.08-1.29,0-2.59,0-3.88-.06a.62.62,0,0,1-.71-.53l-.29,0c-.42-.07-.48-.14-.48-.54,0-2.72,0-5.45-.1-8.18L12,68.25h-.14c0-.1,0-.2,0-.3q0-3.73,0-7.45c0-1.39,0-2.78.16-4.18l.19,4.23h.05c0-1.84,0-3.68.08-5.52,0-1.37.26-2.73.19-4.11a.25.25,0,0,1,0-.17A2.74,2.74,0,0,0,12.77,49q0-3.27,0-6.54c0-.27-.06-.54-.1-.94A2.85,2.85,0,0,0,12.41,43c0,.45,0,.89,0,1.34a12.75,12.75,0,0,1-.07,1.38,13.11,13.11,0,0,1-.12-2.8c0-1,0-2,0-3s0-1.94,0-2.91v-3h-.86a6.63,6.63,0,0,0-1.09,0,4,4,0,0,1-2-.55s-.07-.08-.17-.21l1-.07V30.94c1.06-1.1,2-2.15,3-3.13.75-.73,1.6-1.36,2.38-2.06,1-.89,2-1.79,2.94-2.71A36.84,36.84,0,0,1,21.2,20c.46-.33.88-.7,1.34-1a.83.83,0,0,1,.46-.2l5.57-.15a5.94,5.94,0,0,1,2.1.16,1.82,1.82,0,0,0,.66,0,108.19,108.19,0,0,1,12.21-.64Q48.39,18,53.23,18c3.9,0,7.8.11,11.69.1,3.07,0,6.14-.11,9.21-.15,2.46,0,4.93,0,7.39-.06q15.45-.06,30.9-.11c2.64,0,5.28.07,7.93.11a6.83,6.83,0,0,1,1.09.11c-.43,0-.86.07-1.29.07l-19.81.11c-4.22,0-8.44-.1-12.66,0-4,.12-8.07-.18-12.1,0a23.82,23.82,0,0,0-2.66.21l8.87.18q-16.62.27-33.24.13l9.62-.23v-.05c-.66,0-1.32-.08-2-.09-2.46,0-4.92-.05-7.39,0-1.65,0-3.3.11-5,.15-1.07,0-2.14,0-3.21,0a7.29,7.29,0,0,0-2.41.2,10,10,0,0,1-2.4.31c-2.11.17-4.23.17-6.35.14s-4,0-6,.05a.7.7,0,0,0-.66.29h4.58v.13c-.53,0-1.06.11-1.59.12-.93,0-1.86.06-2.79,0a1.2,1.2,0,0,0-1.11.55,8.88,8.88,0,0,1-.72.88c-2.89,2.88-5.8,5.74-8.7,8.61-.17.18-.41.33-.39.67.34,0,.49-.23.67-.4.61-.58,1.2-1.2,1.82-1.77,1.08-1,2.15-2,3.27-2.88A13,13,0,0,1,20.11,24c-.13.13-.25.26-.39.38l-5,4.41a4.91,4.91,0,0,0-1.21,1.78h1a5,5,0,0,1,2.13.35,1.49,1.49,0,0,0,.6,0H27.94c1.22,0,2.43,0,3.64.07.2,0,.39,0,.63,0-.12.31-.35.22-.52.22-1.72,0-3.43.05-5.15.06H21.75a1.35,1.35,0,0,0-.6.11,14.42,14.42,0,0,1,1.4.89A3.21,3.21,0,0,0,24.7,33c.89,0,1.77.06,2.66.11a1.38,1.38,0,0,1,.6.2,4.19,4.19,0,0,1-1.83.42h1.58c4.26,0,8.52-.05,12.78-.05,2.38,0,4.77.19,7.14.11,7.73-.26,15.46,0,23.19-.11a1.57,1.57,0,0,1,.73.11l-.52,0c-6.37.46-12.75.36-19.13.36H49.41l-.66,0v.56c0,.66,0,1.33,0,2a2.59,2.59,0,0,1-.16.81,11.21,11.21,0,0,1-.34-2.44,1.36,1.36,0,0,0-.06.29q0,8.15,0,16.29c0,1.94-.12,3.88-.06,5.81a14.11,14.11,0,0,1-.34,3,22.51,22.51,0,0,1-1.63,4.74,32.32,32.32,0,0,0-1.45,4.67c-.13.51-.32,1-.48,1.5-.5,1.43-1,2.85-1.48,4.29a1,1,0,0,1-1.12.84c-.52,0-1.05,0-1.57,0-1.23,0-2.46.07-3.69.15-1.79.11-3.59,0-5.39.06-2.36,0-4.71-.27-7.07-.44-1.3-.1-2.61-.14-3.92-.21ZM43.55,40.74a1.78,1.78,0,0,0-.19.36,1.3,1.3,0,0,0,.08,1.33,3.58,3.58,0,0,0-.13.7c0,1.79,0,3.57.07,5.36a1.54,1.54,0,0,0,.17.48A4.58,4.58,0,0,0,43.42,51a2.29,2.29,0,0,0,.65-2.54l-.54.5A3.8,3.8,0,0,0,44,46.24s0-.05,0-.06a4.85,4.85,0,0,1-.11-.75c0-.27.1-.54.11-.81,0-.81,0-1.63,0-2.45a1.26,1.26,0,0,0,0-.27l-.22.06A1.85,1.85,0,0,0,44,40.4l-.45.36c.77-.74.51-1.71.61-2.71-.49.54-1.22.82-.88,1.68,0,.06-.06.15,0,.23,0,.29,0,.58,0,.89Zm2.78,3.87a4.8,4.8,0,0,0,.2-2.23l-.94.68c.26-.38.54-.75.78-1.15a1.5,1.5,0,0,0,.18-.6c.05-.36,0-.72.07-1.08a2.23,2.23,0,0,1,.1-.43h.07l.08.6h.3a1.22,1.22,0,0,0-.3.94,4.63,4.63,0,0,1,0,.65c0,.5.05,1,.07,1.5a6.65,6.65,0,0,0-.28,2.43c0,.2,0,.4,0,.6s-.11.71.22,1a.38.38,0,0,1,.09.28c0,.52,0,1,0,1.57,0,.09-.08.18-.13.26l-.11,0v-1h-.09l-.1.5h-.42a4.51,4.51,0,0,0,.15-.5,1,1,0,0,0-.2-.09,1.87,1.87,0,0,0,.23-1.28c-.06,0-.12.07-.15.12-.51.75-1,1.5-1.52,2.25a.87.87,0,0,0-.15.79,1,1,0,0,1,0,.2l-.36-.18c-.21.29-.38.56-.59.81a1.32,1.32,0,0,0-.18,1.14s.12.06.18.09a2.36,2.36,0,0,0-.23,1.11c0,1.55,0,3.11-.07,4.66,0,.49-.08,1-.14,1.58a.77.77,0,0,1-.06-.17q-.12-2.89-.23-5.8c0-.22,0-.44,0-.66a.53.53,0,0,0,0-.12s0,0,0,0,0,0-.1,0a.84.84,0,0,0-.07.24c0,1.66-.09,3.31-.06,5,0,1.81.16,3.63.18,5.44,0,2.36,0,4.71,0,7.07,0,.19,0,.26.23.23h0c.05.25-.24.54.15.82a4.8,4.8,0,0,0,.21-.49c.15-.48.26-1,.44-1.45.86-2.28,1.77-4.55,2.63-6.83a12.84,12.84,0,0,0,.92-4.24c0-1.57.11-3.14.17-4.7.1,1.35.15,2.7.2,4a5,5,0,0,0,.1.66l.13,0c0-1.38-.11-2.77-.12-4.15,0-1.62,0-3.25,0-4.9l-.22,3.47h-.15c-.2-1-.07-2-.23-3.05l-.48.45h0A3.79,3.79,0,0,0,47.18,48v-.48c0-1.19,0-2.37,0-3.56,0-.16.1-.38-.19-.42a5.76,5.76,0,0,0,.19-1c0-.7,0-1.4,0-2.1s0-1.15,0-1.72a7.67,7.67,0,0,1,.05-1.27A12.63,12.63,0,0,0,47.18,35a1.22,1.22,0,0,0-.07-.25c-.26.16-.38.28-.36.59,0,.83,0,1.67,0,2.5,0,.08-.07.16-.14.31l-.11-.7-.43.28a1.38,1.38,0,0,0,.47-1.18c0-.39,0-.79,0-1.21-.07,0-.14,0-.17.08-.58.66-1.17,1.32-1.74,2a.75.75,0,0,0-.15.38c0,.42,0,.84,0,1.26,0,.11.12.22.19.32-.35.45-.22,1-.19,1.46l.31-.12h0a3.17,3.17,0,0,1-.17.37,1,1,0,0,0-.11.88l.28-.15h0a4.51,4.51,0,0,0-.29,2.47L45.62,43a10.43,10.43,0,0,0-.47,1.16c-.11.38,0,.81-.1,1.2H44.9V44.31a.88.88,0,0,0-.46.82c0,.42,0,.85,0,1.27,0,.19,0,.37,0,.55l1.14-1.26a4.19,4.19,0,0,1-.31.5,3.6,3.6,0,0,0-.73,3.2c.14-.18.25-.3.35-.44.35-.54.68-1.09,1.07-1.6a2.17,2.17,0,0,0,.49-1.56c0-.31,0-.63,0-.95C46.48,44.76,46.38,44.69,46.33,44.61ZM40.5,67.41l0,.12a5.42,5.42,0,0,1-.57,0L38,67.39c-1.81-.09-3.63-.15-5.44-.26-.73,0-1.45-.14-2.18-.21a1.15,1.15,0,0,1,.62-.1l5.2.18c.16,0,.35.06.48,0a4.53,4.53,0,0,1,2.12-.3h2.6l0-.15.71-.62c-.07-.13-.22-.26-.21-.39A2.58,2.58,0,0,1,42.06,64a.53.53,0,0,0,.07-.28,6.39,6.39,0,0,0-.07-1.39,12.21,12.21,0,0,1-.19-3c0-3.33,0-6.66,0-10v-.76a8,8,0,0,0-.83-.11l-3.87-.06a2.57,2.57,0,0,1-.4-.07l0-.17h4.77V42.34a.83.83,0,0,1,.08-.2l.1.65a14.78,14.78,0,0,0,0-3.28,2.11,2.11,0,0,0-.35,0c-.6.06-1.2.14-1.8.17-.8.05-1.61.08-2.42.08-2,0-4-.08-6-.09l-13.32,0c-.14,0-.27,0-.4,0l0,.32a3.23,3.23,0,0,1-1.74-.22,2,2,0,0,0-1.28-.08l.1,17.27H16c3.09-.07,6.18-.18,9.25-.52a1.15,1.15,0,0,1,1.08.29,103.6,103.6,0,0,1-11.7.61,6.72,6.72,0,0,0-.16.91c-.1,2.68-.19,5.36-.28,8,.16.16.48-.25.55.19,0,0,.15,0,.22,0l2-.06a8.38,8.38,0,0,1-1.11-.34A.32.32,0,0,1,16,66c.92,0,1.85.08,2.78.09,1.59,0,3.18,0,4.78,0,.88,0,1.77.12,2.66.12,3.29,0,6.58,0,9.87-.05a8.23,8.23,0,0,1,1,.11v.15c-.25,0-.5,0-.75,0-1.6,0-3.19,0-4.79,0-1.25,0-2.49.12-3.74.23a31,31,0,0,1-6.46,0,18.2,18.2,0,0,0-6.73.38l-.06.83h0l-.07-.84c-.37.58-.16,1.23-.35,1.84l-.56,0c-.12.57.2,1,.28,1.49.14.82.19,1.64.27,2.47,0,.33,0,.67.06,1,.36,0,.68.12,1,.14,2.14.13,4.27.25,6.41.36,2.62.14,5.24.23,7.85.4a19.68,19.68,0,0,0,4.34,0A39.34,39.34,0,0,1,38,74.56c1.29-.06,2.58-.1,3.87-.15l.17-.08.05-.9a8.4,8.4,0,0,1-2.49.08,12.27,12.27,0,0,1,2.52-.4v-5.9H40.28ZM14.09,37.69c.3-.3.55-.53.79-.76l.77-.77.76-.7c.51-.45.52-.44.89-.49a5.11,5.11,0,0,1-.48.45c-.78.73-1.55,1.47-2.32,2.22a1.09,1.09,0,0,0-.28,1.45.36.36,0,0,0,.48.24,2.46,2.46,0,0,1,.45-.11c.85,0,1.69.08,2.54.08,1.57,0,3.15,0,4.72,0A24.59,24.59,0,0,1,19,38.8c1.76.19,3.53.18,5.29.21,2.12,0,4.24,0,6.35.23,1.71.15,3.43.16,5.14.23a2.43,2.43,0,0,0,.47-.08,6.62,6.62,0,0,1,1.06-.21c1.29,0,2.58,0,3.87,0h.69l-.12-5-.53,0-4,0L24.5,34.08H15.78a.74.74,0,0,0-.59.24c-.32.35-.63.69-.95,1a.49.49,0,0,0-.08.64l.76-.68c.29.29,0,.4-.12.49A1.7,1.7,0,0,0,14.09,37.69Zm-1.76-6.36,0,.15c.48.3,1,.56,1.42.9a2.08,2.08,0,0,0,1.67.3c-.57-.46-1.24-.58-1.68-1.07a1.94,1.94,0,0,1,.68.17c.49.24,1,.51,1.46.74a1.82,1.82,0,0,0,.68.19c.8,0,1.61,0,2.42,0,0,0,.06,0,.11-.07l-.29-.23a1,1,0,0,1,.64.13,1.88,1.88,0,0,0,1.19.34c.55,0,1.09,0,1.63,0,.15,0,.3,0,.58,0l-.56-.41c-.38-.26-.78-.51-1.13-.8a1.31,1.31,0,0,0-.89-.31c-1.71,0-3.42,0-5.14,0ZM26.71,75.38c-1.35-.23-12-.27-12.5,0Zm-13-42.69c0-.08,0-.13-.06-.14l-1.84-1.14a1.45,1.45,0,0,0-.94-.07,4.24,4.24,0,0,1,.6.57A2,2,0,0,0,13.71,32.69Zm-.52,33.77h.13c0-.57,0-1.15,0-1.72,0-1.35,0-2.71,0-4.06a2.78,2.78,0,0,0-.08-.49h-.07Zm4.35,8.32V74.7l-3.41-.52,0,.6ZM13.16,55.45h.12c0-.37.07-.74.08-1.11s0-.77,0-1.15,0-.81,0-1.21a1.71,1.71,0,0,0-.2-1.12Zm0,15.41a10.4,10.4,0,0,0,.11-3.92A19,19,0,0,0,13.12,70.86Zm30-34.11c.41-.54,1.13-.85,1.13-1.64C43.82,35.62,43,35.88,43.12,36.75Zm1-.65c-.31.54-1.19.73-1,1.59C43.51,37.17,44.19,36.87,44.13,36.1Zm-31,22.84h.14a5.62,5.62,0,0,0,.09-.57,3.25,3.25,0,0,0,0-.54c0-.18.06-.4-.24-.47Zm-2.07-29L11,29.82l-1.2,1.11.1.11C10.45,30.87,10.69,30.3,11.09,29.94Zm1.53,37.93,0,0v2.62h0Zm-1.36-35.2a2,2,0,0,0-.83-.52l.17.76Zm-.77-1.18a1.87,1.87,0,0,0,1.19,1.06ZM42.76,72.54v.93A.61.61,0,0,0,42.76,72.54ZM13.24,56.68h.17c-.08-.28.14-.6-.29-.94ZM40.89,76.09h.76C41.35,75.8,41.11,76.06,40.89,76.09ZM14.65,34.16l0-.08-.34.11.14.28Z"/><path d="M70.76,31.2h48.86v.09c-.46,0-.91.07-1.37.07q-4.43,0-8.85,0l-25.5,0c-3.77,0-7.55-.05-11.32-.07H70.76Z"/><path d="M46.43,31.16c-.4,0-.8.08-1.2.08H35.74a2.87,2.87,0,0,1-.77,0,3.85,3.85,0,0,1,.66-.13H46.21l.24,0Z"/><path d="M28.71,32l2.2,1.29A4,4,0,0,1,28.71,32Z"/><path d="M112.81,32.08a3.28,3.28,0,0,1,1.46,1A2.77,2.77,0,0,1,112.81,32.08Z"/><path d="M11.87,52.61V50.5H12l-.1,2.1Z"/><path d="M115.2,32.45l-.49-.32.07-.1.5.33Z"/><path class="cls-1" d="M109.29,66.2c0,.32.11.63.15,1s.08.4.29.39a.69.69,0,0,0,.46-.22,1.82,1.82,0,0,0,.08-1.82.46.46,0,0,0-.85,0A2.68,2.68,0,0,0,109.29,66.2Zm1.27,8.73c.1-.11.22-.17.24-.26a1.13,1.13,0,0,0-.55-1,.38.38,0,0,0-.34.13,1.87,1.87,0,0,0,.21,1.48l.14-1Zm.3.28c-.39.32-.4.33-.37.75C110.88,75.62,110.88,75.62,110.86,75.21Z"/><path class="cls-1" d="M102.87,50.35h0v.41h0Z"/><path class="cls-1" d="M20.17,32.23l.08-.1-.48-.33-.05.08Z"/><path d="M145.71,81.72c-.59.93-1.17,1.87-1.78,2.78a3.22,3.22,0,0,1-1.12,1.23c-.28.15-.43.52-.64.79a5.45,5.45,0,0,0-1,1.4c0,.13-.2.21-.31.32l-.12-.08a3.14,3.14,0,0,1,.3-.61c.29-.38.63-.73.93-1.11l3.09-4c.19-.26.36-.53.55-.79Z"/><path d="M141,84.69l3.78-5.08A27.88,27.88,0,0,1,141,84.69Z"/><path d="M144.68,88.19a4.46,4.46,0,0,1-.81,1.36A2.68,2.68,0,0,1,144.68,88.19Z"/><path d="M137.65,92.18a.69.69,0,0,1-.19,0l-.29,0h.38Z"/><path d="M124.57,43.47,115,40.33c-.06,0-.11-.09-.26-.22.27,0,.43,0,.58.09a16.21,16.21,0,0,1,1.69.46,16.85,16.85,0,0,1,1.8.54,18.71,18.71,0,0,0,1.82.65l1.82.66c.62.24,1.23.5,1.84.75A1.91,1.91,0,0,1,124.57,43.47Z"/><path d="M111.58,36.48a78.21,78.21,0,0,1,8.84,2.93c-1.5-.33-2.92-.95-4.46-1.26l1.35,1.63-.09.09c-.28-.26-.59-.51-.85-.8a4.79,4.79,0,0,1-.57-.77,1.38,1.38,0,0,0-.91-.63c-1-.28-1.88-.59-2.82-.89-.18-.05-.34-.12-.51-.18Z"/><path d="M112.81,38.2l-7.34-2C106.28,36.1,110.85,37.31,112.81,38.2Z"/><path d="M117.47,39.4l3,1A5,5,0,0,1,117.47,39.4Z"/><path d="M148.44,56.52l-.64-.62.06-.06.62.66Z"/><path d="M146.66,54.55a2.09,2.09,0,0,1,.71.74l-.11.09c-.2-.28-.39-.56-.59-.83Z"/><path d="M117.92,40.61l-.38-.42v0l.42.41Z"/><path d="M119.53,43l.6.2,0,.14-.61-.22Z"/><path d="M109.29,66.2a2.68,2.68,0,0,1,.13-.65.46.46,0,0,1,.85,0,1.82,1.82,0,0,1-.08,1.82.69.69,0,0,1-.46.22c-.21,0-.26-.2-.29-.39S109.34,66.52,109.29,66.2Z"/><path d="M110.56,74.93l-.3-.66-.14,1a1.87,1.87,0,0,1-.21-1.48.38.38,0,0,1,.34-.13,1.13,1.13,0,0,1,.55,1C110.78,74.76,110.66,74.82,110.56,74.93Z"/><path d="M110.86,75.21c0,.41,0,.41-.37.75C110.46,75.54,110.47,75.53,110.86,75.21Z"/><path d="M111.68,73.42l-.38-.26.09-.1.28.37Z"/><path d="M111.67,73.43,112,74v0c-.2-.11-.38-.24-.33-.51Z"/><path d="M110.53,57.19c-.47.32-.62.28-.71-.25a9.28,9.28,0,0,1-.14-1.49c0-.37.14-.56.39-.58a.5.5,0,0,1,.53.4,2,2,0,0,1-.08,1.94c0-.38,0-.76,0-1.14a.54.54,0,0,0-.38-.54,3.46,3.46,0,0,0,0,1.66Z"/><path d="M131.66,35.72l.61-.47.08.12-.6.44Z"/><path d="M131.59,36.74l.34-.24.06.09-.34.22Z"/><path d="M133.7,35.16l-.32.33-.1-.14.43-.18Z"/><path d="M102.87,50.35v.41h0v-.41Z"/><path d="M18.49,57.59c.56,0,1.12-.05,1.67-.1,1.85-.17,3.7-.31,5.54-.53a32.88,32.88,0,0,1,6.35-.1c2.35.16,4.71.07,7.07.16l2.05.07v.13a4.22,4.22,0,0,1-.62.1c-.48,0-1,0-1.45,0-4.9,0-9.81.07-14.71.14-1.39,0-2.78.17-4.17.24-.58,0-1.16,0-1.74,0Z"/><path d="M15.45,48.41c6.38-.15,12.77-.2,19.16,0C33.68,48.7,17.06,48.72,15.45,48.41Z"/><path d="M25.7,62.94A1.33,1.33,0,0,1,27,61.49a.78.78,0,0,1,.73,1.16c-.08.18-.14.36-.22.54a1.42,1.42,0,0,1-.21.36,1.12,1.12,0,0,1-1.15.32C25.69,63.67,25.72,63.26,25.7,62.94Z"/><path d="M27.68,52.19l-.28.48.4.59a.53.53,0,0,1-.13.79,1.21,1.21,0,0,1-1.25.17.58.58,0,0,1-.28-.89A2.44,2.44,0,0,1,27.68,52.19Zm-.75,1c0,.12-.1.19-.08.23a.2.2,0,0,0,.16.12s.1-.08.16-.13Zm.49.62-.05-.12-.36.15,0,.11Z"/><path d="M28.14,44a1.34,1.34,0,0,1-1.23,1.19.44.44,0,0,1-.46-.39,1.84,1.84,0,0,1,.63-1.48.66.66,0,0,1,.69,0A.77.77,0,0,1,28.14,44Zm-1,.44c.4-.38.4-.38.16-.65Z"/><path d="M27.44,71.05a.82.82,0,0,1-.83.84c-.43,0-.65-.2-.65-.6a1,1,0,0,1,.87-1C27.23,70.33,27.44,70.58,27.44,71.05Z"/><path d="M31.76,56.21H29.05v-.06h2.73Z"/><path d="M26,36.64a1.08,1.08,0,0,1,1-1,1.09,1.09,0,0,1,.81,1.12,1,1,0,0,1-1.08.81C26.19,37.56,25.93,37.22,26,36.64Zm1-.43a3.85,3.85,0,0,0-.3.34c0,.09-.08.25,0,.31a.36.36,0,0,0,.3.1C27.23,36.89,27.24,36.69,26.93,36.21Z"/><path d="M43,70.92c0-1.11,0-2.22,0-3.33s0-2.18.11-3.27q0,3,.05,6a2.25,2.25,0,0,1-.19.59Z"/><path d="M46.55,52.74l-.9,1.4A1.9,1.9,0,0,1,46.55,52.74Z"/><path d="M45.48,49.65l.62-1.11Z"/><path d="M44.76,50.74l.49-.86Z"/><path d="M46.33,51.15l-.22.53a.48.48,0,0,1,.23-.52Z"/><path d="M46.68,50.53a.63.63,0,0,1-.35.62h0l.35-.62Z"/><path d="M44.63,39.41a1.87,1.87,0,0,1,.17-.31c.42-.45.86-.89,1.3-1.34A3.73,3.73,0,0,1,44.63,39.41Z"/><path d="M45.13,41.35a1.69,1.69,0,0,1,.73-1h0c-.25.32-.49.64-.73,1Z"/><path d="M45.86,40.38l.22-.45c.05.23,0,.38-.23.44Z"/><path d="M44.77,40.74,45,40.3c0,.21,0,.37-.23.43Z"/><path d="M44.76,41.83l.37-.48h0l-.37.48Z"/><path d="M20.17,32.23l-.45-.35.05-.08.48.33Z"/><path d="M46.35,44.6l-.75,1.12A1.93,1.93,0,0,1,46.35,44.6Z"/><path d="M43.42,42.44l.38-.5Z"/></svg>