<svg id="Layer_1" data-name="Layer 1" xmlns="http://www.w3.org/2000/svg" viewBox="0 0 160 112" width="160mm" height="112mm" ><title>sketch</title><path d="M98.48,36.38c-.52-.23-1-.42-1.55-.68-1.86-1-3.72-1.87-5.54-2.88C89.18,31.59,87,30.28,84.85,29c-1.91-1.13-3.79-2.31-5.72-3.4-1.68-1-3.42-1.8-5.14-2.71-.56-.29-1.11-.62-1.67-.93l.05-.09.85.43c2.72,1.39,5.46,2.77,8.17,4.19.68.36,1.27.88,1.93,1.3,1.34.84,2.68,1.68,4,2.47,1.76,1,3.53,2,5.34,3S96.28,35,98.08,35.9c0,0,.11,0,.15.07a1.85,1.85,0,0,0,1.68.17c3.8-.83,7.59-1.64,11.4-2.44.86-.18,1.73-.26,2.6-.38a.27.27,0,0,1,.23.07c-.66.15-1.31.31-2,.45-3.9.86-7.8,1.73-11.71,2.58-.13,0-.28,0-.42,0a3.75,3.75,0,0,0-.55.15c-.09,0-.17.11-.26.13l-5,1.12L78,41.53c-1.19.27-2.39.52-3.59.78l-.5.14,0,.08,7-1.34,0,.12a4.87,4.87,0,0,1-.83.31c-2.1.46-4.2.92-6.3,1.34-5.13,1-10.27,2-15.4,3.07-1.23.25-2.42.66-3.63,1-.45.12-.91.21-1.37.3a.33.33,0,0,0-.31.36c0,.33,0,.65,0,1a4,4,0,0,0,.11.48l1.6-.35c4.15-1,8.29-2,12.45-2.92,4.44-1,8.91-1.8,13.37-2.67,3.31-.66,6.58-1.46,9.84-2.3s6.58-1.69,9.89-2.45c2.6-.61,5.23-1.07,7.84-1.64,1.24-.27,2.46-.63,3.69-.94.38-.1.77-.18,1.16-.27l0,.12-3.16,1.06v.05l.53-.08,4.4-.85,3.83-.67a.55.55,0,0,0,.28-.13l-2.75.53c5.54-1.33,11.15-2.4,16.64-4l0-.09-10.34,2.29v0c1.3-.33,2.6-.69,3.91-1,3.92-.83,7.85-1.62,11.78-2.42l4.94-1a.51.51,0,0,0,.49-.45c.07-.4.19-.79.29-1.18H144l-.08,1.34H144l.38-1.88.15,0-.15,1.79.07,0c.06-.06.17-.12.18-.19.1-.6.19-1.2.3-1.88l-1.21.14c.13.41.1.5-.22.56L137.37,29q-6.08,1.28-12.22,2.05c-.18,0-.34.11-.52.13a4.33,4.33,0,0,1-.52,0l.15.26L114,33.2v-.08c1.27-.29,2.55-.59,3.83-.86s2.57-.5,3.85-.77h-1.33v-.07a3.37,3.37,0,0,1,.34-.09c2.35-.37,4.7-.76,7-1.12a65.69,65.69,0,0,0,7-1.38c1.75-.45,3.54-.76,5.31-1.15.38-.08.74-.24,1.11-.33.58-.16,1.17-.29,1.75-.43l.37-.12a.87.87,0,0,0-.2-.1,90.63,90.63,0,0,1-9.58-2.53c-1.58-.49-3.15-1-4.7-1.53a5.56,5.56,0,0,1-1.36-.84,145.15,145.15,0,0,0,17.9,4.87c0,.26,0,.51,0,.76,0,.42,0,.85,0,1.27s0,.41.35.34a.27.27,0,0,1,.12,0l.09.11a1.05,1.05,0,0,0-.26.13c-.11.11-.2.24-.3.36s-.13.15-.16.14c-.29-.09-.38.09-.45.39l-.11-.32s-.08,0-.09,0c-.28.28-.67.27-1,.39s-.75.28-1.13.4c-1,.28-2,.56-2.93.82a.32.32,0,0,0-.28.37c0,1.78-.1,3.56-.13,5.34-.06,4.28-.22,8.57-.11,12.85q.15,6.1.11,12.19c0,3.58-.13,7.15-.15,10.72,0,1.8.13,3.59.2,5.38a9.43,9.43,0,0,1,0,1.19.65.65,0,0,1-.32.41c-.65.28-1.32.53-2,.76a.6.6,0,0,1-.47-.07c-.61-.39-1.19-.81-1.79-1.22-.21-.14-.32-.3-.19-.56a.74.74,0,0,0,0-.26c0-4.42,0-8.84,0-13.26,0-7-.08-14-.1-21,0-1.21.13-2.42.18-3.63,0-.6,0-1.2,0-1.8-.06-1.51-.16-3-.23-4.54a13.79,13.79,0,0,1,.06-1.43c0-.33,0-.39-.36-.32-3.41.77-6.82,1.54-10.23,2.28-.68.15-1.39.16-2.09.27s-1.11.21-1.66.33l-6.64,1.39L98.3,40l-.28.07a7.06,7.06,0,0,0-.16,1.05c0,2.25,0,4.49,0,6.74q0,6.12-.08,12.23c0,.89-.09,1.77-.13,2.6.15.13.33.22.33.3,0,.29.17.63-.22.83s-1,.54-1.5.79A1,1,0,0,1,95,64.56c-.44-.34-.92-.62-1.37-1a.46.46,0,0,1-.15-.39,4.42,4.42,0,0,0,.06-1.58,13.29,13.29,0,0,1-.1-1.9c0-5.42,0-10.84,0-16.27a2.7,2.7,0,0,0-.17-.58,4,4,0,0,1-.08-.48c0-.41,0-.82,0-1.28l-.35.06c-1,.25-1.94.52-2.91.75q-2.91.72-5.84,1.4c-2.72.62-5.43,1.24-8.15,1.83-.67.15-1.38.13-2,.27-1,.21-2,.51-3,.74-.79.19-1.6.3-2.39.47l-6.78,1.53c-.47.11-.55.22-.54.69l.06,23.37q0,12.62,0,25.22c0,.51,0,1,0,1.53s0,.53.66.58l-.29.21c-.07,0-.19.11-.19.17,0,.38-.32.42-.59.53-.73.3-1.44.67-2.18.91-.35.11-.76.3-1.15-.07s-.93-.69-1.39-1c-.17-.13-.37-.25-.32-.53,0,0-.07-.11-.11-.16l-.2-.25.42-.21c0-.4,0-.87-.07-1.34a40.46,40.46,0,0,1,0-4.8c0-.71,0-1.43,0-2.14,0-2.77,0-5.54,0-8.31,0-2.23-.09-4.46-.13-6.68,0-1.1,0-2.21,0-3.31,0-.84.12-1.68.16-2.52a11.15,11.15,0,0,0,0-2.16c-.07-.54,0-1,0-1.58-.1-2.27-.13-4.54-.17-6.81,0-1.13,0-2.27,0-3.4,0-2,0-3.94,0-5.91v-.37c-.39.08-.72.16-1.06.22l-1.64.31a.93.93,0,0,0-.34.18.52.52,0,0,1-.67,0c-1.27-.83-2.53-1.66-3.81-2.47C46.61,47,44.9,46,43.21,45a11,11,0,0,1-1.09-.85l.05-.1.55.2,0-.06-2.65-1.78L40,42.6c-.7-.31-1.43-.58-2.09-1-1.87-1-3.76-2-5.57-3.17-2.55-1.59-5-3.28-7.55-4.93l-.2-.11v.68c0,2.45,0,4.9,0,7.34q-.06,8.59-.13,17.17c0,1.5.05,3,0,4.51q0,6-.07,12c0,.31,0,.61,0,.91a.43.43,0,0,1-.34.46c-.37.11-.74.23-1.11.33a5.86,5.86,0,0,1-.9.21.77.77,0,0,1-.5-.06c-.56-.36-1.1-.75-1.65-1.13l-.36-.25a2.37,2.37,0,0,0,.25-1.36c0-.23,0-.47,0-.7,0-1.53,0-3.06,0-4.6,0-1.3,0-2.6-.05-3.91,0-1-.08-1.91-.08-2.86,0-2.9,0-5.81,0-8.71,0-1.41-.11-2.81-.15-4.22,0-.92,0-1.85,0-2.77,0-1.43,0-2.86,0-4.3,0-1,0-2.09,0-3.13q0-4.4-.1-8.79a.59.59,0,0,0-.21-.4l-4.17-2.72a9.16,9.16,0,0,1-.85-.69.3.3,0,0,1-.07-.21c0-1,0-2,0-3.07L14.7,23a4.18,4.18,0,0,0,.72,0c2.82-.5,5.63-1,8.45-1.51q3.35-.57,6.7-1.06c.79-.12,1.59-.16,2.39-.23a2.26,2.26,0,0,1,.33,0c-.09.06-.12.1-.16.11a31.91,31.91,0,0,1-3.87.89c-2.87.44-5.73.95-8.59,1.43l-5.05.82a2.14,2.14,0,0,0-.44.2v.12l1.18.67c1.28.71,2.59,1.38,3.85,2.14s2.58,1.7,3.89,2.53c.94.6,1.92,1.15,2.87,1.75s2.08,1.35,3.11,2c.14.09.25.26.46.07,0,0,.24.07.35.13.87.53,1.74,1.08,2.62,1.61a1.15,1.15,0,0,0,.29.09c.35.25.65.49,1,.69,2.79,1.64,5.59,3.27,8.37,4.93,1.17.7,2.29,1.49,3.46,2.21.61.38,1.26.71,1.89,1.05.92.5,1.87.95,2.76,1.5a3.2,3.2,0,0,0,2.37.36c1.31-.22,2.61-.48,3.91-.71a1.59,1.59,0,0,1,.65,0,.65.65,0,0,1-.17.08c-1.41.29-2.81.59-4.23.84a7.16,7.16,0,0,1-1.23,0,3.63,3.63,0,0,0,.19.43.4.4,0,0,0,.49.23c5.18-1.08,10.36-2.14,15.54-3.23,2-.42,4-.94,6-1.32,6.93-1.33,13.75-3.17,20.64-4.69l2.66-.62.42-.11Zm36.91,1.5c.05-.09.14-.18.14-.28,0-.69,0-1.38,0-2.07,0-.45-.31-.62-.62-1,0,.67,0,1.24,0,1.8s-.08,1.08.43,1.46a.11.11,0,0,1,0,.06l-.41-.24c-.06.59,0,.74.5,1A.85.85,0,0,0,135.39,37.88Zm-41,22.69c-.06,0-.17.1-.18.16a4.08,4.08,0,0,0-.07.92c0,.31-.2.7.21.92l-.23.28,1.25.65-1.06-1.84.07,0,1,1.36a1.58,1.58,0,0,0,0-.94,11.06,11.06,0,0,0-.88-1.19,1.26,1.26,0,0,1-.12-.29c.24-.09.22-.55-.08-.81C94.25,60.05,94.09,60.32,94.36,60.57Zm1.33-3.79a1.5,1.5,0,0,1-.07-.51c.08-.56,0-.67-.48-1a3.81,3.81,0,0,0,0,1c.06.24.13.59.53.55a2.29,2.29,0,0,1,.07.36,2.25,2.25,0,0,1,0,.26,1.07,1.07,0,0,1-.27-.08,5.07,5.07,0,0,1-.34-.38,3.49,3.49,0,0,0,0,.93,2,2,0,0,0,.44.73s.26,0,.52-.06c-.53.4-.29.86-.26,1.3,0,.6.12,1.19.14,1.79s0,1.29-.06,1.94c0,.08,0,.17,0,.28l1.08-.68a.34.34,0,0,0,.09-.2c.09-.89.23-1.77.24-2.66,0-3.44,0-6.88,0-10.32,0-1.82,0-3.64.06-5.37a1.66,1.66,0,0,1-.24-.49c0-.77,0-1.54,0-2.31v-1a6.08,6.08,0,0,1-1,.45c-.26.06-.34.16-.34.41l-.06,4.76c0,.91,0,1.81,0,2.72s.1,2,0,2.95l0,.31-.11,0A1.62,1.62,0,0,0,95,50.77c0,.82-.09,1.59.67,2.12.07,0,.08.16.12.24l-.1.08-.65-.6c0,.57-.11,1.09.32,1.51a1.29,1.29,0,0,1,.38,1.12,1.08,1.08,0,0,0,.11.37,3.76,3.76,0,0,0-.1.48C95.72,56.32,95.71,56.55,95.69,56.78ZM60.84,98h.09Q61,76.29,61,54.58l-.12,0a6.51,6.51,0,0,0-.54.51c-.52.61-1,1.26-1.55,1.83s-.32.91-.34,1.4l.08,0,1.21-1.1c-.32.56-.68,1.07-1,1.6a1.66,1.66,0,0,0-.21.56,2.48,2.48,0,0,0,0,.47,43.32,43.32,0,0,1-.11,7A7.45,7.45,0,0,0,58.41,68c0,1.55,0,3.1,0,4.65h-.16V68.12H58.1a2.32,2.32,0,0,0-.06.38c0,1.56,0,3.12,0,4.68,0,.45,0,.91,0,1.36a.9.9,0,0,0,.36.71l0-.43a7.6,7.6,0,0,1,.28,1.09s0,.06,0,.09a2.9,2.9,0,0,0-.12.57q0,6.3,0,12.62c0,.45,0,.9,0,1.35h-.11c-.15-1.55,0-3.11-.12-4.66h-.17c0,2.26.21,4.51.08,6.77a.83.83,0,0,1-.11-.42,19.08,19.08,0,0,1-.05-2c0-.49-.33-.68-.56-1l.16,2.87h.11l.07-.36h.1L58,94.46h.11v-.68h0l.27,1.77h-.17l.41,5.08a3.24,3.24,0,0,0,.34-.12c.46-.21.92-.44,1.4-.64a.48.48,0,0,0,.31-.52c0-1,0-1.91,0-2.87a2.48,2.48,0,0,1,0-.27h.07Zm-37-62.1.08.06c-.07.1-.12.2-.19.29-.61.83-1.22,1.65-1.84,2.46-.21.28-.16.55-.07.94.52-.7.85-1.48,1.65-1.81A8.54,8.54,0,0,1,22,40c-.14.11-.33.26-.35.4,0,.49,0,1,0,1.5a.33.33,0,0,0,.22.19c.11,0,.33-.05.34-.1.05-.44.41-.68.65-1s.67-.78,1-1.17l.11.09c-.22.3-.45.59-.68.88s-.26.3-.37.47c-.33.52-.65,1.05-1,1.57,0,.06-.12.09-.17.15s-.23.19-.22.27c.1.74-.21,1.52.21,2.22,0,0,0,.07,0,.1,0,.8-.08,1.6-.1,2.39s-.06,1.8-.08,2.7a2.63,2.63,0,0,0,.06.39,7.5,7.5,0,0,1,.18,1.14c0,1.79,0,3.58,0,5.38,0,.15,0,.31,0,.47a3.47,3.47,0,0,1-.08.55,4.05,4.05,0,0,1-.12.5c0,.12-.13.23-.13.35,0,.94,0,1.87,0,2.81l0,.44h.06l.09-.39a.77.77,0,0,1,.09.32c0,1.83.07,3.67.09,5.5,0,2.57,0,5.14,0,7.72,0,.27.09.33.35.23a11.91,11.91,0,0,1,1.42-.49c.24-.07.32-.15.32-.4q0-7.89,0-15.79t0-15.63c0-1.2.14-2.4.15-3.6,0-2.1,0-4.2,0-6.31,0-.07,0-.13,0-.24-.41.44-.81.83-1.17,1.25a11.4,11.4,0,0,0-1.12,1.47c-.37.65-.07,1.38-.1,2.09C22.47,37.59,23.07,36.67,23.85,35.9Zm114.4-3.83-.14,0c-.49.35-1,.69-1.46,1.05a1.11,1.11,0,0,0-.14,1.11c.47-.61.8-1.36,1.61-1.61a.36.36,0,0,1-.13.26c-.43.47-.88.91-1.29,1.4a1.58,1.58,0,0,0-.23.65,1.8,1.8,0,0,0,0,.4c0,1-.06,2.11-.05,3.16,0,1.39.06,2.78.06,4.17,0,2.44,0,4.87-.07,7.3,0,1.41,0,2.82,0,4.23,0,1.84,0,3.68,0,5.52v2.16c-.14-.74-.08-1.49-.23-2.23a1,1,0,0,0-.11.41,3.56,3.56,0,0,1-.21,1.06.87.87,0,0,0-.13.57,2.83,2.83,0,0,1,0,.5,1.16,1.16,0,0,0,.36.9.89.89,0,0,1,.15.31l-.34-.1-.1,0a1.39,1.39,0,0,0,.42,1.28l-.07,0-.23,0c0,.83,0,1.67,0,2.51,0,.41.2.62.54.91V65h.1a5.67,5.67,0,0,1,.05.58c0,1.56.07,3.11.08,4.67,0,1.92,0,3.85,0,5.77,0,.25,0,.5,0,.75,0,0,.06.08.09.12a1.41,1.41,0,0,1,.23.41c.07.59.13,1.18.15,1.76,0,.33.16.46.44.44a6.27,6.27,0,0,0,.75-.17c.35-.07.43-.27.41-.63-.09-1.21-.18-2.42-.2-3.63,0-4.25-.06-8.51-.09-12.76,0-.11,0-.22,0-.33a18.4,18.4,0,0,1-.24-2.08c0-3.86,0-7.73,0-11.59,0-1.44.13-2.87.13-4.3,0-1.93-.07-3.86-.11-5.78a2.65,2.65,0,0,0,0-.27c-.52.09-.9.61-1.48.45a3.42,3.42,0,0,1,.79-.65,1.32,1.32,0,0,0,.74-1.35C138.21,35,138.25,33.54,138.25,32.07ZM23.77,31,23.3,29.3a.53.53,0,0,1,.22.28c.15.41.28.83.46,1.22a1.2,1.2,0,0,0,.41.48c.45.31.93.58,1.39.87.29.19.57.4.93.65l-.51-1.61a.7.7,0,0,1,.25.3c.21.48.42,1,.64,1.46a2.42,2.42,0,0,0,1,1l-.49-1.54.11,0A7.72,7.72,0,0,0,28.45,34a7.09,7.09,0,0,0,1.38,1.08l.08-.08-.08-.24c-.22-.57-.48-1.13-.66-1.71a1.67,1.67,0,0,0-.8-.93c-.86-.53-1.73-1-2.58-1.58-1-.64-2-1.32-3.06-2l-1-.6c.35.78.7,1.46,1,2.16C22.92,30.59,23.32,30.71,23.77,31Zm33.1,47.27-.08,0a2.83,2.83,0,0,1-.07.42,1.19,1.19,0,0,0,.24,1c.43.58.77,1.22,1.15,1.84.11.17.09.29-.12.35-.47-.56-.66-1.32-1.26-1.83v1.38h0L56.9,81a10.14,10.14,0,0,0,.43,1.69,9.11,9.11,0,0,0,.91,1.41.36.36,0,0,0,0-.11q0-4,0-7.95a1.66,1.66,0,0,0-.23-.56l-.09,0-.12,1.3h-.11c0-.52-.12-1-.11-1.55S57.24,74.37,57,74a11.41,11.41,0,0,0-.06,1.16,1.55,1.55,0,0,0,.22,1,9.62,9.62,0,0,1,.46,1,.93.93,0,0,1,0,.24l-.11,0L57,76.27l-.08,0c0,.71-.21,1.43.27,2.1a4.94,4.94,0,0,1,.35.81l-.1.05ZM29.38,32.84l-.06.06a20.32,20.32,0,0,1,.86,1.91c.23.68.81.85,1.37,1.21l-.29-1.14.08,0c.13.32.27.63.4.94.06.13,0,.33.13.4.29.21.62.38,1,.61L32.23,35l.11,0a10.68,10.68,0,0,1,.59,1.29c.32,1,1.3,1.21,2.08,1.69a18.85,18.85,0,0,0-.68-1.87c0-.08-.12-.13-.19-.18l-3.25-2.09C30.38,33.5,29.88,33.17,29.38,32.84ZM60.25,49.33l.06.06-.33.26c-.39.32-.8.61-1.16,1a.92.92,0,0,0-.24.58c0,.61,0,1.22,0,1.83a1.6,1.6,0,0,0,0,.23c.45-.34.89-.65,1.31-1a3.15,3.15,0,0,0,.57-.52,1.93,1.93,0,0,0,.49-.86c0-.71-.05-1.43-.08-2.15a.52.52,0,0,0-.07-.12,5.31,5.31,0,0,0-.6.22,8.07,8.07,0,0,0-1.18.58c-.19.13-.26.43-.43.72ZM61,51.56l-.09,0L59.5,52.89a2.71,2.71,0,0,1-.6.47.51.51,0,0,0-.31.55c0,.81,0,1.62,0,2.43a.91.91,0,0,0,0,.22c.17-.19.3-.34.44-.48a6.75,6.75,0,0,1,1.77-1.64.46.46,0,0,0,.17-.36c0-.41,0-.82,0-1.24ZM38,37.89a2.44,2.44,0,0,0,1.16,1.65l1.28.79,2.46,1.5.07-.27c.38.79,1.19,1,1.83,1.37a.94.94,0,0,0-.28-.52c-.44-.32-.94-.59-1.38-.93A5.37,5.37,0,0,1,42,40.41a2.79,2.79,0,0,0-1-.69l.12.28C40.28,39,39,38.63,38,37.89ZM22.49,30.25a.47.47,0,0,0,0-.12c-.3-.75-.6-1.5-.92-2.25a.39.39,0,0,0-.18-.18,10.65,10.65,0,0,0-1.05-.65c-.37-.18-.77-.3-1.2-.46a1.23,1.23,0,0,0,.06.17c.45.73.88,1.47,1.35,2.18a3.09,3.09,0,0,0,.58.56l.08-.08L21.06,29l.08-.05A2.05,2.05,0,0,0,22.49,30.25Zm13.23,6.24,0,0c.32.71.66,1.41.95,2.12a1.18,1.18,0,0,0,.76.67V39.1c.23.55.79.64,1.24.9a2.06,2.06,0,0,0-.5-.83,9,9,0,0,0-.94-.62,3.49,3.49,0,0,1-.43-.43l.06-.06,1.25.8c-.16-.67-.29-1.26-1-1.56A12.5,12.5,0,0,1,35.72,36.49ZM19.41,28.31c-.65-.87-.84-2.08-2-2.55a1.79,1.79,0,0,1-.34-.22l-1.17-.78-.09.07c.18.3.35.6.55.89s.47.62.71.92a4.38,4.38,0,0,0,.38.35l.35.42.08-.05L17.81,27l.07-.06A2.67,2.67,0,0,0,19.41,28.31ZM57,66.26a2.13,2.13,0,0,0,0,.25A13,13,0,0,0,57,68c.06.51,0,1,0,1.49,0,.22.17.49.09.64-.33.61.17.84.47,1.27,0-.17,0-.24,0-.31,0-1.22,0-2.45,0-3.67C57.55,66.94,57.23,66.64,57,66.26Zm79.46,8.34c0-.18,0-.27,0-.37,0-.56,0-1.11,0-1.67s0-1.27,0-1.9a2.45,2.45,0,0,0-.19-.69.26.26,0,0,0-.2-.14c-.05,0-.11.12-.14.2a.58.58,0,0,0,0,.26c0,.91,0,1.82,0,2.73,0,.24.16.48.17.72A1.15,1.15,0,0,0,136.42,74.6ZM53.09,49.37l0,.09A96.73,96.73,0,0,0,65,46.71Zm4.16,35.38a2.41,2.41,0,0,0,.16,1.45c.11.16.31.35-.06.47,0,0-.05.14-.05.21a2.19,2.19,0,0,0,0,.63c.16.52.36,1,.54,1.53l.1,0a.5.5,0,0,0,0-.12c0-1,0-1.93,0-2.9a.53.53,0,0,0,0-.25C57.71,85.4,57.48,85.08,57.25,84.75Zm-21-46,.07,0-.13-.36c-.21-.55-.43-1.1-.62-1.65a1.79,1.79,0,0,0-1.08-.91c.26.68.58,1.37.79,2.09C35.45,38.4,35.91,38.47,36.26,38.73ZM22,34.73l1.66-1.86c-.18-.25-.32-.26-.49,0s-.31.34-.47.51l-.07-.06.55-.77-.47-.27a6.93,6.93,0,0,0-.53.94A2.3,2.3,0,0,0,22,34.73Zm-.72,37.91.06,0c0-.5,0-1,0-1.48,0-.07-.16-.22-.2-.2-.26.12-.27-.1-.33-.24a2.19,2.19,0,0,1-.1-.34c-.07,1.16-.37,2.36.63,3.33.16-.67-.47-1.08-.51-1.69Zm74.15-21.7.09,0c0-.09,0-.19,0-.28a17.42,17.42,0,0,1,0-1.77c0-.55-.38-.76-.66-1.1a7.41,7.41,0,0,0,0,1.49c0,.22.37.4,0,.64,0,0,0,.23,0,.32C95.14,50.45,95.31,50.69,95.47,50.94Zm-47-5.56a.93.93,0,0,0-.44-.79c-.93-.55-1.84-1.12-2.76-1.68L45,42.7l-.1.11a3.29,3.29,0,0,0,.51.54c.64.43,1.29.83,1.94,1.24ZM135,61.55h.11c0-1.3,0-2.6,0-3.89a1,1,0,0,0-.44-.78.29.29,0,0,0,0,.1c0,1.07-.06,2.14-.08,3.2a3.13,3.13,0,0,0,.1.6h.1v-2h.1C134.93,59.68,135,60.62,135,61.55ZM135.86,77h-.12c-.43-.6-.24-1.38-.49-2-.07.36,0,.72-.08,1.06a2,2,0,0,0,.51,1.55c.2.24.36.52.53.77,0-.7,0-1.37,0-2,0-.1-.09-.2-.15-.31L136,76ZM57.43,64.85l.08,0c0-.87,0-1.73,0-2.59,0-.21-.2-.41-.31-.61l-.11.05c0,.66-.09,1.32-.16,2A1.83,1.83,0,0,0,57.43,64.85ZM20.52,50.58a17.77,17.77,0,0,0-.15-3.95,2.29,2.29,0,0,0-.22.55c0,.87-.06,1.73,0,2.59C20.13,50.05,20.07,50.44,20.52,50.58Zm75-4.93c0-.53,0-1,.07-1.49,0-.32.12-.63-.33-.79-.22-.07-.37-.32-.55-.48C94.35,44,95,44.75,95.47,45.65Zm-73.33-10c.69-.78,1.35-1.53,2-2.28,0-.05-.06-.26-.15-.33s-.24,0-.3.08c-.48.55-.94,1.13-1.43,1.67A.73.73,0,0,0,22.14,35.62ZM95.51,48c0-.06.06-.08.06-.11l0-1.9a.26.26,0,0,0-.09-.16c-.1-.12-.22-.23-.31-.36a4.64,4.64,0,0,1-.26-.44l-.08,0a3.24,3.24,0,0,0,.06.88,4.19,4.19,0,0,0,.49.87l-.44-.23C94.71,47.22,95.15,47.58,95.51,48ZM47.2,44.92a2.54,2.54,0,0,0,2.11,2,3.86,3.86,0,0,0-.59-1A13,13,0,0,0,47.2,44.92Zm88.28-2.81v-2a1,1,0,0,1,0-.25.92.92,0,0,0-.41-1.1c0,.87,0,1.77,0,2.68A.78.78,0,0,0,135.48,42.11ZM21.35,75.59a2.78,2.78,0,0,0-.69-2.49,1.45,1.45,0,0,0,.25,1.16l-.23-.08C20.61,75.05,20.42,75,21.35,75.59Zm-.82-41.11.16,0c0-.53,0-1.07,0-1.61,0-.28.1-.55-.09-.84s-.21-.28-.44-.25c.05.81.09,1.61.16,2.4C20.32,34.25,20.46,34.36,20.53,34.48Zm36.8,23.2-.14,0v1.22a1.48,1.48,0,0,0,.14,1,.19.19,0,0,1,0,.18c-.33.26-.17.61-.16.92,0,.16.17.31.26.47l.1,0c0-1.12,0-2.24,0-3.35C57.51,57.94,57.39,57.81,57.33,57.68Zm-.14,25.21a2.08,2.08,0,0,0,.21,1.49c.29.4.54.83.8,1.24l.14-.07A13,13,0,0,0,57.19,82.89ZM48.78,45.07c.08.17.12.28.17.39a1.71,1.71,0,0,0,1,.86,2,2,0,0,1,.46.32c.25.21.51.41.77.61A4.85,4.85,0,0,0,48.78,45.07Zm-3.45-1.35a2.76,2.76,0,0,0,1.81,1.83c-.14-.32-.19-.7-.4-.89A11.89,11.89,0,0,0,45.33,43.72ZM94.8,41.48c-.38.75,0,1.32.74,1.75,0-.38,0-.75,0-1.12a.25.25,0,0,0-.1-.17ZM135.18,57c-.11-1.21-.22-2.35-.32-3.49h-.09c0,.87-.06,1.74-.12,2.61A.88.88,0,0,0,135.18,57ZM57.36,99.24a2.25,2.25,0,0,1-.08-.24,4.73,4.73,0,0,1-.36-2.24,8.84,8.84,0,0,0,0-1.46,2.32,2.32,0,0,0-.07-.38h-.06l-.29,3.21.16-.08C57.16,98.37,56.84,99,57.36,99.24ZM45.28,44.37l.09-.06c-.13-.26-.19-.6-.4-.77a14.43,14.43,0,0,0-1.47-1C43.71,43.64,44.67,43.82,45.28,44.37ZM20.55,55.82l-.07,0c0,.45,0,.91.06,1.36s.19.49.53.44l.1.49.11,0a3.45,3.45,0,0,0-.07-.86,4.37,4.37,0,0,0-.52-.72l.06-.06.47.4.08-.07Zm37,17.51A2.4,2.4,0,0,0,57,71.18,2.21,2.21,0,0,0,57.54,73.33Zm78.56-39-.1,0v.31c0,.45,0,.91,0,1.37,0,1,0,1.94,0,2.9a2.18,2.18,0,0,0,.08.36c.06-.08.08-.09.08-.11,0-1.54,0-3.07,0-4.6C136.24,34.5,136.15,34.42,136.1,34.33Zm-78,28.6a.38.38,0,0,0,0,.13V67c0,.1.08.19.12.29A15.91,15.91,0,0,0,58.08,62.93ZM39.83,40.27a1.41,1.41,0,0,0,.74,1c.26.13.49.31.74.44.08,0,.2,0,.3,0s0-.3-.08-.34C41,41,40.44,40.65,39.83,40.27Zm2,1.32c.13.87,1,1,1.52,1.52C43.23,42.13,42.45,42,41.87,41.59ZM136.23,54h-.07v4.21h.07Zm-1,14.15-.13,0c0,.89,0,1.78,0,2.66a1.31,1.31,0,0,0,.15.37l.1,0A25.33,25.33,0,0,0,135.21,68.16ZM135,33.29c-.18.74,0,1.26.57,1.48C135.69,34,135.58,33.67,135,33.29Zm1.6-2.38,0,.14a17.48,17.48,0,0,0,3.89-.92Zm-85.86,17a1.9,1.9,0,0,0-1.3-1.44C49.5,47.26,50.18,47.48,50.71,47.93Zm84.59-2.3-.05,0c0,.71,0,1.42,0,2.13,0,.1.09.2.15.29a16.68,16.68,0,0,0,.06-2.11C135.47,45.85,135.36,45.74,135.3,45.63ZM56.87,51.87l-.06,0c0,.72,0,1.44,0,2.16,0,.07.08.14.13.22.06-.74.06-1.45,0-2.15C57,52,56.92,52,56.87,51.87Zm.61,14.44a2,2,0,0,0-.5-1.7A1.66,1.66,0,0,0,57.48,66.31Zm.66-7.7H58v3.49a1.13,1.13,0,0,0,.09.28l.12,0ZM21.23,56.22l.09-1.08-.1.11-.34-.46A1,1,0,0,0,21.23,56.22ZM20.37,51a1,1,0,0,0,.25,1.47c-.16-.59.2-1.23-.4-1.68Zm37,3.84h.14c0-.64,0-1.27,0-1.91,0-.09-.13-.19-.19-.28l-.09,0C57.35,53.39,57.1,54.13,57.39,54.83ZM20.49,36.48a2.23,2.23,0,0,0-.15-1.92A5.36,5.36,0,0,0,20.49,36.48ZM135.11,42.2c0,1.41-.06,1.45.34,1.7A1.64,1.64,0,0,0,135.11,42.2Zm-77.63,10h.12c0-.45,0-.9,0-1.34s-.1-.46-.38-.58a7.89,7.89,0,0,0,.11,1.09c0,.12.06.29,0,.36C57.14,52,57.35,52.12,57.48,52.25Zm77.66,11.44H135a4.93,4.93,0,0,1,.05.54c0,1.09,0,2.18,0,3.26a1.32,1.32,0,0,0,.08.33l.11,0Zm0,7.66c-.12,1,0,1.74.2,1.92A3.09,3.09,0,0,0,135.11,71.35ZM95.2,58.72c.07.62-.17,1.27.19,1.85A2.38,2.38,0,0,0,95.2,58.72Zm40.92-15.87h.08V39.56h-.08Zm-83,4.06.05.2,2.61-.51,0-.11Zm83.09,32.52.11-.05c0-.13-.08-.38-.12-.38-.34,0-.4-.29-.52-.5s-.34-.55-.5-.83l-.09.06C135.21,78.48,135.84,78.88,136.25,79.43ZM135.12,44c.12.55-.1,1.09.3,1.54A1.39,1.39,0,0,0,135.12,44ZM21.34,35.07a4.15,4.15,0,0,0-.11-1.92A3.83,3.83,0,0,0,21.34,35.07ZM136.13,48.89h.06V46.2h-.06Zm.09,26.83c.32-.62.28-.9-.2-1.23C136.08,74.92,135.88,75.34,136.22,75.72ZM21.12,53.61H21l-.14,1C21.43,54.45,21.52,54,21.12,53.61Zm74,.55a.93.93,0,0,0,.48,1.09C95.88,54.71,95.36,54.54,95.13,54.16ZM57,50.76c.09-.74,0-.95-.39-1.07A1,1,0,0,0,57,50.76ZM21.35,38.19a3.53,3.53,0,0,0-.1-1.84A4.44,4.44,0,0,0,21.35,38.19ZM136,67.86c-.12.66-.07.77.43,1C136.5,68.39,136.47,68.31,136,67.86ZM21.24,32.28l.09,0c0-.21,0-.5-.12-.59a2.07,2.07,0,0,0-.73-.21l0,.11ZM51.55,48.52c0-.68-.1-.78-.65-1A1.25,1.25,0,0,0,51.55,48.52Zm-31.3,4.73c-.1,1.77-.1,1.77.19,1.93Zm37.23,4.07c0-.45.2-.94-.18-1.32C57.32,56.45,57.05,56.94,57.48,57.32Zm-.56,35.37h-.13a5.69,5.69,0,0,0,.13,1.64ZM32.49,34.43l-.05.07,1.68,1.21.07-.1A8.06,8.06,0,0,0,32.49,34.43ZM21.25,39c0,.35,0,.69,0,1,0,0,.09.1.11.09s.15-.07.16-.13A1,1,0,0,0,21.25,39Zm115,11.87h-.06v2.29h.06ZM39.57,40.61a.93.93,0,0,0-.7-.87C39,40.12,39.11,40.49,39.57,40.61Zm-19-2.46h-.06v1.35h.06Zm50,7.5,0-.09L68.6,46l0,.14Zm64.82,29c0-.4.19-.82-.15-1.18C135.21,73.83,135.05,74.24,135.32,74.61Zm0-26.14c-.07.72,0,1,.14,1.15C135.55,49.05,135.51,48.65,135.31,48.47ZM57.49,74.07l.15-.09L57,73l-.09,0C57,73.5,57.29,73.75,57.49,74.07Zm-.61-17.44a1.12,1.12,0,0,0,0-1.11ZM97,40.46a.89.89,0,0,0-1,.63ZM20.68,57.81h-.1V59C20.59,58.61,21,58.2,20.68,57.81ZM135.87,79.48l-.62-.74C135.13,79.13,135.25,79.27,135.87,79.48ZM95.17,60.85c-.25.3-.18.49.29.78Zm41-17.41h-.06v1.24h.06ZM94.41,52.35l0,0v1.42h0ZM136.09,69l-.11,0c0,.34.22.49.39.7l.13-.08Zm1.3-37c-.53,0-.75.24-.77.6ZM56.93,51.64l.14-.09-.47-.77-.14.08Zm0,5.7h-.06V59H57Zm-34.13,19,0,.08L24,76.2l0-.11ZM56.89,91.25h0v1h0ZM15.63,25.05l.12-.1-.37-.56-.16.11ZM57.71,92.42h-.1v1h0Zm36.8-33.14-.12-.66-.09,0C94.22,59,94.23,59.07,94.51,59.28ZM58,96h0v-.88H58Zm78.17-46.49h-.06v.76h.06Zm-.07,9.89.14,0-.06-.53-.12,0Z"/><path d="M61.13,16.05A55.5,55.5,0,0,1,55,17.4c1.08-.14,2.16-.26,3.24-.43s2.08-.36,3.12-.57c2.74-.55,5.46-1.16,8.21-1.64,4-.71,8.08-1.37,12.12-2,1.78-.28,3.59-.37,5.38-.6.84-.11,1.67-.36,2.51-.52l4.67-.82.4-.09-.4-.29c.39.07.82,0,1.11.32a.47.47,0,0,0,.21.16c1,.3,1.93.57,2.89.89,1.65.56,3.3,1.16,5,1.73,2.9,1,5.8,2,8.62,3.23a1.79,1.79,0,0,1,.51.31c-.49-.14-1-.27-1.49-.43-3.15-1-6.31-2-9.44-3.12-1.85-.64-3.67-1.39-5.49-2.09a3.77,3.77,0,0,1-.57-.28c-.19-.11-.36-.17-.55,0a.16.16,0,0,1-.12.05,3.85,3.85,0,0,0-1.87.22c-2.28.36-4.56.77-6.83,1.17l-.54.12v.11l.85,0V13a8.71,8.71,0,0,1-.86.17l-4.68.46a1.08,1.08,0,0,1-.36,0s-.08-.08-.11-.13l0-.12L62.12,16.48l.52.29,0,.05a1.89,1.89,0,0,1-.23-.05,2.29,2.29,0,0,0-1.55-.1c-2.72.46-5.44.93-8.17,1.35-2.19.33-4.38.6-6.58.9l-8.86,1.22a2.48,2.48,0,0,1-.61,0l.55-.13c1.19-.3,2.42-.49,3.6-.83s2.66-.43,4-.73,2.7-.51,4-.69c1.9-.25,3.81-.4,5.7-.67C56.76,16.79,59,16.39,61.13,16.05Z"/><path d="M111.67,16.37l2.13.76c3.87,1.33,7.75,2.66,11.61,4a9.92,9.92,0,0,1,1.67.89C126.1,22.11,112.66,17.17,111.67,16.37Z"/><path d="M52.14,45.16A159.15,159.15,0,0,1,36.61,35.08c2.57,1.72,5.11,3.47,7.71,5.14s5.25,3.24,7.88,4.86Z"/><path d="M63.11,17l2.16,1.1a6.51,6.51,0,0,1-2.16-1S63.11,17.05,63.11,17Z"/><path d="M111.69,16.11l-2.2-.68,0-.08,2.2.69Z"/><path d="M22.12,52.73V47h.08v5.77Z"/><path d="M22.56,71.22a8.17,8.17,0,0,1-.1,2.79h-.1l.12-2.78Z"/><path d="M22.11,45a7.69,7.69,0,0,1,1.24-1.61l.09.07-1.22,1.61Z"/><path d="M24,38.5,23,40l-.1-.07a4,4,0,0,1,1.08-1.52Z"/><path d="M136.7,46.14a70.51,70.51,0,0,1,.09,7.12C136.79,50.89,136.56,48.52,136.7,46.14Z"/><path d="M137.57,34.62l-.82.67-.08-.09.8-.71Z"/><path d="M60.24,53.8l-1.38,1.52-.07-.07A5.13,5.13,0,0,1,60.24,53.8Z"/></svg>