<svg id="Layer_1" data-name="Layer 1" xmlns="http://www.w3.org/2000/svg" viewBox="0 0 160 112" width="160mm" height="112mm" ><defs><style>.cls-1{fill:#fff;}</style></defs><title>sketch</title><path d="M138.58,70.08l-.73-.15a2.56,2.56,0,0,0-.55-.05q-28.77.6-57.54,1.2-16.86.33-33.72.61a9.69,9.69,0,0,1-1.2-.09c-.06,0-.12-.11-.19-.16s.12-.14.18-.15a6.91,6.91,0,0,1,.9-.11l68.47-1.54,22.93-.52,3.17-.07c0-.5-.43-.59-.73-.77a3,3,0,0,1-.47-.4,3.66,3.66,0,0,0-.4-.39q-1.87-1.14-3.77-2.26c-1.44-.86-2.87-1.74-4.32-2.57q-4.19-2.41-8.39-4.8c-1.21-.69-2.43-1.36-3.63-2.06a.54.54,0,0,0-.61,0A15.66,15.66,0,0,0,115.14,58a5.37,5.37,0,0,1-.88.62,17.31,17.31,0,0,1,3.9-3c-.51-.31-.93-.74-1.38-.78a2.09,2.09,0,0,1-1.08-.37l-1-.69-.18.43h-.05a1.38,1.38,0,0,0,0-.29,1.68,1.68,0,0,0-.15-.3c-.07.07-.18.13-.21.22a8.37,8.37,0,0,0-.43,1.28c-.11.61-.56.9-1,1.25-.61.52-1.18,1.08-1.76,1.63a.43.43,0,0,0-.06.28,5,5,0,0,0,0,.55h-.11l.11-3.41h-.17a31,31,0,0,0-.42,4.91c0-.3-.06-.6-.06-.9,0-.84,0-1.68,0-2.52a13,13,0,0,1,.21-1.37c0-.15.17-.36-.13-.42,0,0,0-.16,0-.24,0-.59,0-1.18,0-1.77a5.54,5.54,0,0,0-.07-.57l-.14,0a3.51,3.51,0,0,0-.15.53q-.08,1-.12,1.95c0,.29-.07.52-.44.54-.09,0-.18.12-.27.19l-4.84,3.87a.29.29,0,0,1-.22.08c.08-.09.15-.18.23-.26a43.11,43.11,0,0,1,4.9-4.26.82.82,0,0,0,.34-.62c.12-1.14.27-2.27.41-3.4a3.45,3.45,0,0,0,0-.38,2.33,2.33,0,0,0-1.39.27c-4.55,3.16-8.72,6.79-13,10.27-1.44,1.17-2.93,2.28-4.39,3.42l-.27.17-.07-.08a2.39,2.39,0,0,1,.23-.22c2.7-2.17,5.43-4.32,8.11-6.52,1.34-1.09,2.58-2.3,3.93-3.39,1.52-1.23,3.12-2.38,4.69-3.57l.36-.29h-.46L55,51.89c-.52,0-1,0-1.55,0a.41.41,0,0,0-.48.34,25.76,25.76,0,0,1-3.72,7.17c-.3.4-.66.75-1,1.13a40.36,40.36,0,0,0-2.62,3.09,9.17,9.17,0,0,0-1.42,5.29c0,.07,0,.18,0,.21.59.47.25,1.11.31,1.68s.08,1.15.09,1.73c0,.43,0,.85-.07,1.32l-.69-.32a1.06,1.06,0,0,0,.14.18,1.51,1.51,0,0,1,.63,1.44A38.23,38.23,0,0,1,43,87.61c-.08.24-.21.47-.27.72s-.34.38-.65.39c-1.18.06-2.35.15-3.52.22-.4,0-.54-.1-.46-.5s.26-1,.39-1.53a25.81,25.81,0,0,0,1.07-6.28c0-1.51-.08-3-.22-4.53a15.79,15.79,0,0,0-.91-4.52,16.07,16.07,0,0,1-1-3,.48.48,0,0,0-.19-.26c-.36-.25-.74-.48-1.11-.72q-.19-.14-.39-.3c-2.66-2.22-5.34-4.43-8-6.67C25.8,59,23.9,57.28,22,55.61a.92.92,0,0,1-.26-.37c.68.32,1.26.8,2,1.18,0-.11,0-.25-.1-.3-.73-.58-1.46-1.14-2.23-1.73,0,.41-.25.47-.51.34s-.69-.39-1.08-.61c0,.15,0,.29,0,.42a44.88,44.88,0,0,1-.1,6.76,32.85,32.85,0,0,1-1.33,6.42A13,13,0,0,1,17.83,69c-.09.21-.3.36-.47.15s-.47-.19-.74-.16c-.66.07-1.31.17-2,.21s-.82-.25-.67-.84c.25-1,.56-2,.76-3.06a17.6,17.6,0,0,0,.38-4,.94.94,0,0,1,.15-.4s.06-.08.06-.12a7.7,7.7,0,0,0-.18-1.9c-.48-1.4-.93-2.82-1.27-4.27a20.59,20.59,0,0,1-.18-2.51c-.09-.84-.25-1.67-.39-2.5l-.16,0L13.42,52A20.85,20.85,0,0,1,13,46.28c0-1.85.07-3.7.11-5.56a.62.62,0,0,0,0-.16c-.33-.06-.19-.33-.18-.48.06-.74.16-1.47.24-2.2a1.8,1.8,0,0,0,0-.27L13.24,40l0,0a.84.84,0,0,0,.08-.2c.06-.8.12-1.6.16-2.4.07-1.28.17-2.55.17-3.83a17,17,0,0,1,.24-2.67c0-.16-.25-.36-.38-.54l-.14.06,0,.68c-.24.11-.34,0-.36-.2s-.07-.72-.1-1.11c-.44.13-.55-.14-.6-.47a5.86,5.86,0,0,1-.09-2.43c0-.09-.09-.25-.18-.32-.42-.31-.86-.59-1.29-.89l0-.08,1.25.57c.09,0,.21.15.26.12.42-.21.48.09.57.46l.18-.68A2.21,2.21,0,0,0,14,27.29a10.67,10.67,0,0,0,2.38,1.33c1.31.64,2.59,1.37,3.84,2.13s2.43,1.55,3.64,2.33a.48.48,0,0,1,.2.24c-.41-.18-.84-.33-1.23-.54-2.09-1.12-4.16-2.26-6.24-3.39-.11-.05-.25,0-.37-.06a2.42,2.42,0,0,1-.59-.2c-.26-.14-.49-.32-.75-.48a2.69,2.69,0,0,0,1.87,2l-.3-.67c.38.5.58,1.15,1.31,1.33,0,0,0-.07,0-.11l0-.18c.06.05.1.06.11.09a1.77,1.77,0,0,0,.78.82c.73.46,1.45.94,2.22,1.44L20.34,32l.12-.05c.09.16.19.32.27.49a5,5,0,0,1,.37.78,2.25,2.25,0,0,0,1.27,1.26l-.32-.79.09-.06a2.89,2.89,0,0,0,1.74,1.88l-.4-1.73.19-.07c.21.5.41,1,.63,1.48s.32,1.05,1,1.27a7.85,7.85,0,0,1-.58-2.13l.1,0,.73,1.51V35.3h.08l.3,1.15a1.15,1.15,0,0,0,.76,1,9.4,9.4,0,0,0-.53-1.71l2,3,.06,0-.29-.57L28,38c.22.26.45.52.68.77s.48.54.75.78a4.34,4.34,0,0,0,.93.59l-.86-1.28a4.16,4.16,0,0,1,1.35,1.51,5.9,5.9,0,0,0,.67.75l.09-.08-.79-1.52.12-.08c.78,1.22,1.42,2.56,2.93,3.13l-1.45-2.65.13-.08a9.34,9.34,0,0,1,.58.82c.43.71.81,1.44,1.25,2.14a2,2,0,0,0,.6.53,3.26,3.26,0,0,0,.88.42l-.29-.69.52,0L36,42A5.66,5.66,0,0,1,37,44l.13-.38.54.35c.11-.64-.48-1.06-.52-1.73l.56.84.23-.19c.43.43.38,1,.45,1.57.35,0,.69-.07,1-.07l8.35-.1c.62,0,1.25,0,1.87,0,1.27-.08,2.53-.24,3.79-.29,2.24-.09,4.48-.16,6.72-.17,2.47,0,4.94.07,7.4.12.73,0,1.46,0,2.18.08.15,0,.29.14.44.22l0,.12h.44L88,43.65,104.37,43c2.18-.09,4.36-.19,6.54-.23a79.05,79.05,0,0,1,10.32.26,12.79,12.79,0,0,0,2-.09c3.61-.15,7.21-.4,10.82-.43,1.86,0,3.72,0,5.59-.12,1-.06,2-.18,3-.28l-.33.23h.56c.92,0,1.83-.1,2.74-.13a.57.57,0,0,0,.55-.31,1.42,1.42,0,0,1,.5-.47c0,.07,0,.15-.05.22-.12.29-.39.51-.33.88,0,.08-.14.19-.23.3a.57.57,0,0,0,.65-.36c.29-.56.62-1.09.93-1.63.08-.13.17-.25.25-.37l.16.1c-.13.34-.25.68-.4,1s-.31.64-.5,1l.64-.08,0,.29s.11,0,.12,0a2.89,2.89,0,0,0,.11-.51c0-.54,0-1.1.08-1.65,0-.24-.08-.34-.29-.44q-2.16-1-4.3-2.07c-2.65-1.3-5.31-2.58-8-3.91q-5.15-2.59-10.24-5.24c-1.41-.74-2.75-1.59-4.15-2.36-.77-.43-1.58-.8-2.38-1.2l-.06,0c-.54-.58-1.24-.43-1.91-.4l-4.42.18-.46,0,.43.23,0,.08c-.24-.06-.47-.12-.71-.16a4.07,4.07,0,0,0-.84-.13c-5,.17-10,.36-15.07.51a17.55,17.55,0,0,0-3.07.4,8.28,8.28,0,0,1-1.49.16c-1.58.05-3.16.06-4.74.11q-2.86.12-5.73.28c-1.4.08-2.8.21-4.19.31l-3.79.23c-.56,0-1.12.08-1.68.1a1.43,1.43,0,0,1-.63-.13l7.63-.89v-.12a11,11,0,0,0-1.4-.13c-8.49.23-17,.5-25.48.69-8.08.18-16.16.23-24.24.43-2.8.07-5.58-.17-8.37-.18-.87,0-1.75,0-2.63,0s-1.56-.11-2.34-.17l0-.13c.13-.1.25-.26.39-.27a25,25,0,0,1,2.87-.22c2,0,4,.13,6,.15.8,0,1.6-.14,2.4-.19,1.73-.12,3.47-.26,5.21-.32,3.82-.13,7.64-.23,11.46-.34L57.59,25l12.7-.41,1.69,0c-1.37.3-2.73.2-4,.78v.13a4.72,4.72,0,0,0,1,.19c1.2,0,2.4,0,3.6-.05,3.75-.11,7.49-.27,11.24-.35,2.9-.06,5.81,0,8.71,0l13.65-.1c.38,0,.76-.09,1.15-.13v-.18a1.21,1.21,0,0,0-.41-.12c-1,0-2-.07-2.92-.06-4.17,0-8.35.11-12.52.14-2.25,0-4.51,0-6.76,0-2,0-4.08-.12-6.12-.23l2.72-.06c5.63-.09,11.27-.15,16.91-.29,5.86-.14,11.72-.35,17.59-.51a22.47,22.47,0,0,1,2.38.2c-.21,1.05.67,1,1.19,1.3l-.61-.44,0-.09c.26.11.53.19.77.32,1.46.77,2.93,1.54,4.38,2.32,3.54,1.91,7.07,3.84,10.62,5.74,1.26.67,2.56,1.3,3.85,1.94a2.83,2.83,0,0,0,.41.14l.06-.1a2.32,2.32,0,0,0-.25-.21c-.83-.44-1.66-.89-2.49-1.31-1.08-.56-2.17-1.1-3.25-1.65l.08-.51.51.26L145.79,38c1.06.57,2.1,1.17,3.14,1.77a.52.52,0,0,1,.21.37c0,1.13.06,2.27.08,3.44l-.44.12c0,.33.07.67.09,1a28,28,0,0,1,0,5.1c-.16,1.31-.16,2.63-.35,3.93-.25,1.76-.58,3.5-.93,5.24-.29,1.43-.64,2.84-1,4.24-.17.63-.47,1.22-.69,1.83-.09.25-.29.5-.13.81,0,0,0,.16-.08.24a11.81,11.81,0,0,0-.8,2.1,66.16,66.16,0,0,0-1.54,7.08,24.53,24.53,0,0,0-.24,5c0,.48.16,1,.2,1.45s0,.79,0,1.18a.53.53,0,0,0,.08.31,7.89,7.89,0,0,0,.57.7c.29.33.27.63-.13.82a5,5,0,0,1-1.23.42c-.63.1-1.28.08-1.9.18a6.6,6.6,0,0,1-1.88-.3c-.09,0-.21-.27-.24-.42a54.37,54.37,0,0,1-.54-7.75c0-.77.08-1.53.11-2.29,0-1,0-1.92.1-2.88A15.53,15.53,0,0,1,138.58,70.08Zm-118.45-30,.19.29,1.52-1.78-.08-.08c-.56.27-1.26.31-1.6.94l.71-.08.07.18-.8.54-1.51.53c.1.07.13.11.15.11.39-.13.78-.25,1.16-.4C20,40.34,20.07,40.21,20.13,40.12Zm115.46,9.54-1.55.81.25.84a11.43,11.43,0,0,1,1.25-.77.62.62,0,0,0,.35-.91l-.32,0c.11-.11.32-.23.32-.34a8.18,8.18,0,0,0-.12-1.31,1.24,1.24,0,0,0-.18-.4l-1.45.83a.34.34,0,0,0-.14.25c0,.28.1.56.17.91l1.19-1,.06.07c-.34.34-.69.67-1,1a2.6,2.6,0,0,0-.28.45l.1.1c.2-.07.4-.13.59-.21Zm-24,5.92a2.26,2.26,0,0,0-.56,1.74l.13-.07a18.08,18.08,0,0,1,1.73-1.44,1.77,1.77,0,0,0,.69-1.54c-.39.33-.68.72-1.2.64.32-.23.63-.5,1-.7s.43-.58.52-.94l-2.62,2.17-.1-.07a1.66,1.66,0,0,1,.3-.46c.75-.65,1.53-1.27,2.31-1.92l-.41-.3-2.06,1.74c-.15-.81.27-1.67-.3-2.41-.41.15-.38.48-.39.83l.36-.22c0,.59,0,1.13-.06,1.67a2.21,2.21,0,0,0,.33,1.54ZM39.73,49.22c.52-.35,1-.71,1.55-1s1.3-.82,2-1.29c-.56,0-1,0-1.45,0a2,2,0,0,0-.82.29c-.52.35-1,.76-1.5,1.13-.08.06-.21,0-.42.08a2.4,2.4,0,0,0-.84,2.08l1.45-1.3ZM24.71,57c-.19-.13-.37-.28-.57-.4a1.05,1.05,0,0,0-.36-.08l0,.11,3.1,2.47,1.88-1.84.09.09-1.59,1.78,1.71,1.24a21.74,21.74,0,0,1,2.44-2.18l.09.1-2.19,2.33.31.23a27.33,27.33,0,0,1,4.67,4.06c.35.39.73.75,1.12,1.11a.82.82,0,0,0,.42.15c.37.07.8-.27,1.16.19-1.32-4.7-1.37-9.49-1.4-14.27l-.18,0-7.7.21a.72.72,0,0,0-.38.13c-.45.31-.88.66-1.33,1-.76.54-1.52,1.07-2.3,1.57-.11.08-.31,0-.46,0a1.09,1.09,0,0,1,.24-.35l3.05-2.12a1.81,1.81,0,0,0,.21-.18l0-.08-6.89.15,0,.43,1,.74A14.86,14.86,0,0,1,24.06,56l.81-.58.09.08-.8.81.55.67Zm108-9.46-.07-3.28-.18,0c-.81,0-1.61,0-2.41-.08-.63,0-1.27-.16-1.9-.16-2,0-3.93.06-5.89.12-1.37,0-2.73.13-4.09.18-.25,0-.34.11-.4.34-.19.69-.37,1.38-.6,2q-1,3-2.11,6a.4.4,0,0,0,.2.57c1.33.79,2.63,1.62,4,2.37,2.78,1.57,5.6,3.07,8.37,4.66,1.59.91,3.11,2,4.7,2.88s3.17,1.68,4.74,2.52c.74.4,1.45.83,2.11,1.21q.27-.39.51-.78a1,1,0,0,0,.08-.29,8.94,8.94,0,0,0,.09-.89,19.41,19.41,0,0,0,0-2,6.88,6.88,0,0,0-2-4A28.82,28.82,0,0,1,134.55,54,13.44,13.44,0,0,1,132.81,48,3.09,3.09,0,0,0,132.68,47.5ZM53.3,51.24h.43c1.89,0,3.79-.12,5.68-.16l24.5-.48q12.35-.26,24.7-.5c.68,0,1-.46,1.52-.77a.19.19,0,0,0,.07-.13,8,8,0,0,0-.14-1.85c-.28-.87-.76-1.68-1.11-2.54a.59.59,0,0,0-.69-.43c-4,.2-8,.38-12,.57l-2.44.15v0l2.15.16v.12a3,3,0,0,1-.42.06c-1.55.05-3.11.13-4.66.14-4.86,0-9.72,0-14.59.06-5.26.07-10.52.25-15.78.36-.94,0-1.89-.12-2.83-.12s-2,.09-3,.12c-.25,0-.34.11-.38.35-.19,1-.39,2-.61,3.06C53.6,50,53.45,50.6,53.3,51.24ZM40.11,88l.67-.07c.21,0,.42-.06.63-.07a.6.6,0,0,0,.64-.53,42.08,42.08,0,0,0,1.55-12c-.06-2.6-.12-5.21-.08-7.81a8.34,8.34,0,0,1,1.82-5.19,45.42,45.42,0,0,1,3.26-3.53,5.48,5.48,0,0,0,1.7-3.34c-.44.58-.84,1.13-1.27,1.67s-.86,1-1.3,1.53l-.1-.08c0-.05,0-.11.08-.15,1.19-1.65,2.38-3.29,3.56-4.94a9,9,0,0,0,.58-1.11l-.06,0-.31.43-.08,0a26.19,26.19,0,0,0,1.88-6.55l-3.17.24A22.79,22.79,0,0,1,49.55,49a29.54,29.54,0,0,1-3.92,8,4.43,4.43,0,0,1-1.43,1.52c-.26.14-.39.28-.28.61a.6.6,0,0,1-.25.47c-.22.12-.41,0-.5-.26A3.64,3.64,0,0,1,43,58.9a15.52,15.52,0,0,0-.57-2.79.14.14,0,0,1,0-.11c.07-.34.15-.67.21-1A13,13,0,0,0,43,53.27a19.59,19.59,0,0,1,1.23-6.2,2,2,0,0,0,.09-.33,3.26,3.26,0,0,0-.78.2c-.25.17-.43.45-.67.63-1.12.85-2.25,1.67-3.38,2.5-.07,0-.17,0-.34.08-.17.22-.39.55-.65.83A1.84,1.84,0,0,0,38,52.22c0,1.64-.06,3.28,0,4.92.06,1.9.2,3.8.32,5.7q.07,1.35.18,2.7c.1,1.23.2,2.47.31,3.7,0,.33.12.66.18,1h.07L38.88,69h0l.53,2.37a.53.53,0,0,0,0-.3c-.11-.8-.28-1.59-.31-2.38-.07-2-.09-4-.11-6.05,0-.6,0-1.21.06-1.81a2.17,2.17,0,0,1,.07-.24h.1c0,.13,0,.26,0,.39.06,1.65.1,3.3.17,5a28.41,28.41,0,0,0,.16,2.92c.22,1.67.54,3.34.8,5,.08.46.1.94.14,1.41l-.1,0L40.26,75c0,.23,0,.39.05.55a55.69,55.69,0,0,1,.34,6.46,1.16,1.16,0,0,1-.12.34l-.15,0-.18-2.31h-.11c0,1.33.16,2.68,0,4A35.87,35.87,0,0,1,39.41,88l.12,0c.06-.23.12-.47.17-.71.33-1.4.65-2.8,1-4.2a1.54,1.54,0,0,1,.17-.34l.12,0A35.13,35.13,0,0,1,40.11,88ZM143,84.14c-.47-.34-.35-1.06-1-1.11,0,0-.08-.1-.1-.15a5.06,5.06,0,0,1-.29-1,18.35,18.35,0,0,1,.38-5.53c.29-1.34.67-2.67,1-4,.29-1.1.6-2.18.91-3.27.06-.23.15-.45.23-.68l-.3-.2c.3-.63.63-1.25.9-1.9.43-1,.84-2.06,1.22-3.11.08-.22.13-.59,0-.71s-.12-.45-.07-.68.15-.45.21-.68a68.31,68.31,0,0,0,1.51-8,2.05,2.05,0,0,0,0-.92,1,1,0,0,1,0-.71c.15-.52.32-1,.44-1.56a18.89,18.89,0,0,0,.09-5.31,2.76,2.76,0,0,0-.37-.78l-.1.06a17.61,17.61,0,0,1,.18,4.41h-.2a19.83,19.83,0,0,1-.37-4.58c-1,.06-2-.11-2.81.53a4.83,4.83,0,0,0,0,.85,20.56,20.56,0,0,1,0,5.14c-.14.92-.35,1.84-.47,2.77a6.32,6.32,0,0,1-1.25,2.48s0,0,0,0A3.53,3.53,0,0,0,141.45,54s-.06-.08-.08-.13a9.53,9.53,0,0,1-.7-1.57c-.33-1.22-.61-2.45-.83-3.69a14.55,14.55,0,0,1-.28-4.14l-3.41.7a9.16,9.16,0,0,0-.08,1.25c0,1.14.11,2.27.17,3.41a.32.32,0,0,0,.33.32c.37,0,.48.35.26.66l-.1.13a6.85,6.85,0,0,1,.31.8,16.16,16.16,0,0,0,2.5,5.94,15.73,15.73,0,0,1,1.22,1.9,6.94,6.94,0,0,1,.75,1.78,4.62,4.62,0,0,1,.08,2.37,14.3,14.3,0,0,0-.33,2.45,16.09,16.09,0,0,0-.36,3.09s-.06.11-.08.16c-.11.36-.22.71-.3,1.07,0,.06.12.15.16.19a1.34,1.34,0,0,0-.16.37c-.21,2.15-.46,4.3-.58,6.46-.09,1.59,0,3.18,0,4.77,0,.29-.05.58-.07.86s0,.68,0,1A8.06,8.06,0,0,0,143,84.14ZM25.89,39a19.23,19.23,0,0,1-3.95,5.74,7.93,7.93,0,0,0-2.39,4.95c-.07.51-.08,1-.11,1.59.75,0,1.42.11,2.1.09,2,0,3.95-.11,5.93-.16a8.28,8.28,0,0,1,1,.09v.06l-6.63.28v.06l13.73-.29a26.23,26.23,0,0,1,.69-5.95L36,45.29l.24-.15Zm-8,2.69c-.87.4-1.67.78-2.48,1.14a.47.47,0,0,0-.32.48c0,1.07,0,2.15,0,3.23a3.28,3.28,0,0,0,0,.48c.09-.16.11-.26.17-.3.35-.2.71-.37,1-.58,1.61-1,3.19-2,4.81-2.86A5.66,5.66,0,0,0,23,41.51l.86-1.23c.12-.17.22-.34.33-.51-1.11.36-2.15.85-3.23,1.17a6,6,0,0,0-2.22,1.27c-.11.09-.29.16-.34.28-.09.29-.27.26-.51.22Zm25.7,13.1a5.17,5.17,0,0,0,1.21-1.63l-.32,0a7.37,7.37,0,0,0,.83-1A7.56,7.56,0,0,0,45.87,51a3.94,3.94,0,0,0-.67.25,1,1,0,0,1-.3,0c.05-.09.08-.2.15-.25.26-.18.54-.32.8-.5a.81.81,0,0,0,.34-.37q.42-1.22.78-2.46a8.11,8.11,0,0,0,.15-1.07c-.69,0-1.33.11-2,.13a.5.5,0,0,0-.53.39,18.94,18.94,0,0,0-1.05,6.19C43.57,53.79,43.6,54.26,43.61,54.79ZM18.79,49.53c-1,.56-1.85,1.15-2.79,1.6a1.18,1.18,0,0,0-.76,1.45c.17.92.26,1.85.38,2.77l3.21-2.13a8.73,8.73,0,0,0-.68-.68.42.42,0,0,0-.36-.06c-.28.14-.53.34-.8.49l-1.33.73-.05-.09,2.11-1.53a6.87,6.87,0,0,1-.48-.62.88.88,0,0,1-.07-.33,1.77,1.77,0,0,1,.32,0l1.33.15Zm-3.58,1.7.16-.07c1.1-.64,2.21-1.28,3.3-1.94a.59.59,0,0,0,.22-.31c.26-.81.5-1.62.74-2.43a.43.43,0,0,0,0-.13l-4.37,2.08c-.07,0-.17.11-.17.16,0,.36,0,.71,0,1.14.49-.31.9-.59,1.32-.83.71-.4,1.43-.77,2.15-1.15a1.59,1.59,0,0,1,.39-.09.34.34,0,0,1-.16.2l-2.75,1.55C15.05,50,15.05,50,15.21,51.23ZM43.8,58.57c1.18-1,3.93-6.19,4.2-7.49a22.4,22.4,0,0,1-1.94,1.28c-.67.35-.91,1-1.33,1.64.69-.41,1.13-1,1.86-1.14-.88,1.25-2.4,1.78-3.33,3l.28.05c-.46.43-.07.83-.08,1.36l1.23-.88-.06-.09a5.67,5.67,0,0,1-.66.22.47.47,0,0,1-.35-.13s0-.23.11-.31.35-.28.54-.43l0,.19a3.29,3.29,0,0,1,.54-.14c.3,0,.45.13.37.43a.88.88,0,0,1-.24.37c-.28.24-.58.47-.87.7A1.33,1.33,0,0,0,43.8,58.57Zm97.49-6.4.16,0c.56-2.6.16-5.21.06-7.76-.15-.1-.29-.15-.35-.25-.22-.39-.54,0-.81-.11a.78.78,0,0,0-.14.39c0,.53,0,1.07.1,1.6.12,1.21.21,2.44.39,3.65C140.83,50.51,141.09,51.34,141.29,52.17ZM15.6,37.32l-.08-.07c-.44.27-.89.54-1.32.83-.09.05-.13.21-.14.32,0,.43-.08.85-.08,1.28a59.62,59.62,0,0,0,.15,7.79c.08.53.12,1.07.18,1.6s.14,1,.2,1.54A64.73,64.73,0,0,1,15,39.94l-.61.34-.13-.09c1-.54.94-1.53,1.07-2.42Zm98,10.25.06.1-.93.68c-.56.41-.56.41-.39,1.13.19-.09.39-.17.57-.27l2.76-1.44a.41.41,0,0,0,.18-.21c.23-.63.46-1.25.67-1.88a.31.31,0,0,0-.06-.25s-.18,0-.25,0c-.32.2-.61.43-.94.62-1,.56-1.92,1.11-2.89,1.64-.35.19-.38.41-.18.74ZM15.53,65.62l.11.06c.18-.12.35-.26.53-.37a6.31,6.31,0,0,1,2-1.14c.07,0,.15-.17.17-.28.14-.87.27-1.75.4-2.63,0-.24,0-.48.06-.77L17,61.42l.16.69.8-.29.1.15a4.69,4.69,0,0,1-.57.52.38.38,0,0,0-.2.48,5.05,5.05,0,0,1,.06.67l-.1,0-.33-.84c-.32.25-.73.41-.83.68A18.83,18.83,0,0,0,15.53,65.62Zm96.28-15.44c0,.26-.15.49.16.7a.66.66,0,0,0,.84,0c.39-.25.8-.46,1.21-.67.25-.13.51-.22.76-.33l0,.09a7.52,7.52,0,0,1-2.09,1.38l1.41,1c.52-1.49,1-2.93,1.57-4.45l-.35.18c-.77.41-1.54.84-2.32,1.23-.4.2-.84.32-.92.86l-.06,0ZM21.94,43.26h0L15.26,47.1a.34.34,0,0,0-.18.21c0,.3,0,.61,0,.94l.14,0,4.63-2.4a.71.71,0,0,0,.23-.19Zm-2.4-7.47c-.57.45-.47,1.14-.72,1.74l.68-.08.07.11c-.54.27-1.14.49-.91,1.26a.49.49,0,0,0,.16,0,.46.46,0,0,0,.16-.11,9,9,0,0,0,2.07-3.08.33.33,0,0,0-.09-.32c-.41-.22-.83-.42-1.3-.65C19.65,35,19.22,35.34,19.54,35.79ZM16.9,61a8.65,8.65,0,0,1,1.33-.61c.48-.12.66-.34.63-.82a11.42,11.42,0,0,1,0-1.17l-2.31,1.3ZM18.47,36.4l-.25.11L16,37.62a.45.45,0,0,0-.2.21c-.11.4-.2.81-.31,1.25l2.59-1.27a.27.27,0,0,0,.14-.16C18.32,37.25,18.39,36.85,18.47,36.4Zm-3-2c-.34.41-1,.43-1.08,1.17l.45-.29.14.27c-.32.25-.84.33-.68.93l1.16-.61a.7.7,0,0,0,.41-.57,4.43,4.43,0,0,1,.6-1.65c.12-.18.22-.37.33-.55L16.75,33c-.68.39-1.36.78-2,1.18-.08,0-.09.2-.13.3l.06,0,.53-.34Zm3.34,19.5-3.09,1.85.18,1,.36-.28c.64-.42,1.26-.87,1.92-1.25s.74-.38.66-1.24C18.85,54,18.85,54,18.82,53.9Zm6.3-15.51-2-1.43L21.87,39.5l1.72-.93c.6-.33.76-.31,1.26.16Zm28.05,5.87v.25c.5,0,1,.13,1.49.12,3,0,6-.1,8.94-.15l2.8-.06v-.06ZM142.38,50c1-.64,1.26-1.22.9-2.07l-.79.36-.07-.07c.41-.48,1.22-.82.58-1.64a2.29,2.29,0,0,1-.35.16c-.31.09-.39.27-.36.58s.05.9.06,1.35S142.37,49.52,142.38,50ZM112,47.72l4.24-2.41c-.17-.29-.35-.3-.57-.18l-1.1.56A11.91,11.91,0,0,1,111.82,47ZM17.94,65.88c-.19.15-.29.23-.4.3a18.31,18.31,0,0,1-1.63,1.14.8.8,0,0,0-.43.85c.6-.08,1.18-.14,1.75-.23a.29.29,0,0,0,.2-.19C17.6,67.16,17.75,66.57,17.94,65.88Zm.82-30.73c-.84.36-1.67.71-2.5,1.09a.33.33,0,0,0-.17.24c0,.06.11.13.15.16l-.32.63.09.07a2.83,2.83,0,0,0,.36-.16c.53-.3,1-.65,1.6-.9A1.22,1.22,0,0,0,18.76,35.15Zm-.59,29.47a.84.84,0,0,0-.16.07L15.6,66.13a.31.31,0,0,0-.14.2c-.06.26-.11.53-.16.84l.4-.25c.66-.46,1.3-1,2-1.39A1,1,0,0,0,18.17,64.62ZM71.51,45.17l0-.08c-1.21.09-2.43.16-3.64.26s-2.44.26-3.66.33-2.42.06-3.63.08c1.1,0,2.2,0,3.3,0a50.75,50.75,0,0,0,6.64-.33A9.47,9.47,0,0,0,71.51,45.17Zm71.12,7.7-.15-.13.47-1.09-.1-.08-1.26,1.31.49.9c.42-.21.79-.4,1.15-.6a.19.19,0,0,0,.09-.11c.07-.28.14-.56.21-.87ZM16.4,58.94l2.38-1.19a.31.31,0,0,0,.13-.2c0-.21,0-.42,0-.7l-2.62,1.61Zm-1-18.72a5.12,5.12,0,0,0,1-.34,16,16,0,0,0,1.48-1.08c.13-.1.16-.3.24-.46a.71.71,0,0,0-.37.06c-.64.33-1.26.67-1.9,1A.74.74,0,0,0,15.42,40.22Zm96.8,11.61a1.81,1.81,0,0,0-.82,2.05l1.67-1.39ZM49.41,47.39c-.56.35-1,.65-1.47.91a1.34,1.34,0,0,0-.62,1.3,8.7,8.7,0,0,1,1.15-.71C49.13,48.62,49.18,48,49.41,47.39ZM48.85,49a7.37,7.37,0,0,1-1.11.76c-.73.3-.8,1-1,1.54l1.48-.76a.27.27,0,0,0,.1-.15C48.49,50,48.65,49.55,48.85,49Zm91,22.29a7.3,7.3,0,0,0-.74.08.28.28,0,0,0-.2.16c-.1.59-.18,1.18-.28,1.84.32-.17.56-.28.79-.43a.54.54,0,0,0,.21-.32C139.72,72.22,139.77,71.79,139.85,71.31Zm-1.09-.21a3.68,3.68,0,0,0,1.26-.44c.24-.22.22-.7.32-1.11-.45.11-.83.19-1.2.29-.08,0-.19.1-.2.18C138.87,70.34,138.83,70.67,138.76,71.1ZM40.07,78.27A37.3,37.3,0,0,0,39,71.61l-.2,0C39.22,73.85,39.64,76.06,40.07,78.27ZM79.69,45.06l0,.16,6.09-.13c-.23-.09-.4-.23-.57-.22-1.75,0-3.5.06-5.25.1A1.14,1.14,0,0,0,79.69,45.06Zm27.73-1.21v-.17l-9.6.63v.12ZM14.09,38c.43-.3.8-.59,1.2-.84a.68.68,0,0,0,.36-.63c0-.31-.12-.36-.36-.24s-.63.32-.93.5a.41.41,0,0,0-.18.25C14.13,37.34,14.12,37.65,14.09,38ZM137.15,55.13l-.4-1.31-1.09.41.85,1.22.12,0ZM13.84,48.31h-.1c-.16,2,.48,4,.84,5.92Zm96.94-1.48a4.79,4.79,0,0,1,.11,3.19c.32-.06.63-.12.71-.49a1.16,1.16,0,0,0-.09-.39c-.13-.81-.25-1.61-.39-2.45ZM37,57.41c-.09-1.84.24-3.68,0-5.52A21.7,21.7,0,0,0,37,57.41Zm97.28-11.3c.16-.1.3-.21.46-.3a3.29,3.29,0,0,1,.49-.26c.58-.19.58-.18.6-.79,0-.11,0-.21,0-.33C134.87,44.59,134.54,45.31,134.27,46.11Zm1.51.41c-.54.29-1,.52-1.45.79s-.47.36-.33.85l1.69-.94.06.08ZM16.08,57.59c.9-.57,1.79-1.12,2.66-1.7.1-.06.11-.24.16-.37l-.1-.07L16,57.18ZM135,53c.12.22.21.44.34.63a.27.27,0,0,0,.23.12c.36-.12.72-.26,1.08-.39l-.2-.78Zm8.43-3.32c-.94.52-1.28,1.12-1,1.85C142.86,51,143.78,50.7,143.4,49.65ZM16.05,61.49c.38-.14.4-.32.32-.61-.3-1-.55-2.05-.83-3.07a2.29,2.29,0,0,0-.09-.28l-.12,0Zm8.7-21.93-2,2.85A10.62,10.62,0,0,0,24.2,41.2,2.08,2.08,0,0,0,24.75,39.56ZM136.18,51.33c-.42.21-.8.39-1.16.6a.44.44,0,0,0-.18.7l1.5-.43ZM111.6,46.16,113.31,45a5.74,5.74,0,0,0-2,.26ZM18,40.32l-.1-.06c-.84.42-1.68.83-2.5,1.27-.12.06-.14.29-.21.44.93-.4,1.77-.83,2.61-1.28C17.89,40.64,17.93,40.45,18,40.32Zm31.59,6.24-.1-.11a2.19,2.19,0,0,0-.63,0c-.18.07-.32.27-.49.42v-.34h-.06l-.41,1.38c.47-.33.89-.59,1.28-.89A2.78,2.78,0,0,0,49.58,46.56Zm70.26-3.33,0,.2,7.73-.55v-.05ZM139.41,77.5c-.47.2-.64.42-.6.66a5,5,0,0,1,.05,2.42,4.78,4.78,0,0,0-.06.53l.08,0,.13-.28.12,1.56c0-1.14,0-2.27,0-3.41a5.67,5.67,0,0,1,.16-.9C139.32,77.91,139.36,77.72,139.41,77.5ZM14.69,33.79l2.2-1.18c-.54-.43-1.56.06-2,1l-.16-.14ZM140.21,60.33l-.11.05c.12.43.26.85.35,1.29s.13.88.2,1.36c.19-.16.6-.12.48-.46C140.86,61.81,140.52,61.08,140.21,60.33Zm-.74,13.15c-.9.32-1.09.64-.84,1.36C139.26,74.62,139.66,74.23,139.47,73.48Zm1.81-10.24c-.89.15-.71.88-1,1.39l.83-.18Zm-2.71,13c.89-.26,1-.42.79-1.23C138.36,75.53,138.51,75.3,138.57,76.22Zm1.48-10.11c.59-.26,1.18-.48,1-1.29C140.22,65.13,140.05,65.35,140.05,66.11ZM14,28c.44,1.4.41,1.48,1,1.6C14.58,28.37,14.58,28.37,14,28Zm1.26,13.33.13.1,2.32-1.24s.12,0,.16-.09a1.94,1.94,0,0,0,.15-.24.32.32,0,0,0-.25,0A7.43,7.43,0,0,1,15.48,41C15.37,41,15.31,41.23,15.22,41.35ZM22,36.77l-.42.63a2.82,2.82,0,0,0,.77-.18c.14-.07.23-.28.34-.42l-.31-.22-.35-.35-.13.09Zm120.27,9.87c.73-.44.77-.55.43-1.23C142.1,45.7,142.1,45.7,142.29,46.64Zm-1.47,19.54c-.75.23-1,.51-.95,1C140.81,66.85,140.81,66.85,140.82,66.18Zm-2.23,10.6,0,.76.79-.43,0-.59Zm-1.18-20.06.12.07c.06-.12.18-.27.15-.36a9.41,9.41,0,0,0-.43-1l-.53.25c.08.51.51.58.86.76Zm6.7-8.19c0-1.18.09-2.36.13-3.54h-.12A16.11,16.11,0,0,0,144.11,48.53ZM110.59,50.6l-.16,1.26C111.37,51.26,111.39,51.08,110.59,50.6ZM21.06,38.43c1-.17,1.26-.41,1.29-1C21.91,37.75,21.28,37.82,21.06,38.43Zm16,7.26-.13.06-.12,2A13,13,0,0,0,37.23,46C37.25,45.91,37.11,45.79,37,45.69Zm-20.48,16c-.49.19-.52.26-.35,1C16.85,62.41,16.87,62.38,16.56,61.67Zm93.8-6.79h.09a7.27,7.27,0,0,0,.29-1.93,1,1,0,0,0-.28.43c-.12.45.14.94-.13,1.39C110.32,54.8,110.35,54.84,110.36,54.88Zm-70.82-7,1-.88C39.56,47,39.67,46.84,39.54,47.91Zm52.77-3.39c-1-.05-1.92-.14-2.84-.1v.16ZM18.42,42.09c.27-.24.52-.45.76-.68a.18.18,0,0,0,0-.16.14.14,0,0,0-.11-.07A.7.7,0,0,0,18.42,42.09Zm124.16,12.6.64-1-.09,0C142.39,54,142.28,54.18,142.58,54.69ZM42.25,45.82c-.44,0-.94-.17-1.4.31C41.39,46,41.87,46.19,42.25,45.82Zm96.42,12.37,0,0-.91-1.47h-.1c0,.11-.07.26,0,.33C138,57.43,138.34,57.81,138.67,58.19ZM13.6,28c-.13.95,0,1,.36,1ZM140,67.6l.48.58.14-.84ZM110.61,45.4c-.19.4,0,.69.06,1C111,46.23,111,45.91,110.61,45.4ZM18.79,52.24c.17-.55.1-.62-.56-.59ZM43,45.83,43,46l1.32-.11,0-.11Zm-3.84,2.23c-.5,0-.58,0-.59.55ZM28.06,60l0-.05-1-.88-.09.12Z"/><path d="M103.88,41.38a3,3,0,0,1,.51-.07c3.08-.08,6.16-.13,9.24-.23,1.67-.06,3.34-.19,5-.29.36,0,.72-.08,1.08-.08,5.36-.07,10.73-.12,16.09-.18l8-.11c.66,0,1.33,0,2,0v.11c-.58,0-1.17.11-1.75.12q-12.57.41-25.13.77c-2.24.07-4.48,0-6.72.09-.34,0-.67.08-1,.1a4.81,4.81,0,0,1-.53-.07c-.12,0-.24,0-.37,0l-6-.07-.45,0Z"/><path d="M48.37,41.89c1.16-.51,23.77-1,24.32-.51a3.5,3.5,0,0,1-.52.11c-2.45.09-4.91.22-7.36.27-4.67.09-9.34.14-14,.19C50,42,49.18,41.91,48.37,41.89Z"/><path d="M110,64.93c.45-.32.08-.76.24-1.1l-.08,0-.26.22-.06,0c.05-.08.08-.17.13-.24s.31-.27.43-.42.31-.23.32-.15c.62-.56,1.24-1.12,1.85-1.7.09-.08.08-.27.09-.41s0-.32,0-.48h.1v.66l.45,0c-.59.51-.15.89,0,1.34.57-.44,1.11-.88,1.67-1.29s1.11-.79,1.66-1.18l.1.09a1.84,1.84,0,0,1-.27.38c-.3.25-.63.46-.94.69l-1.9,1.41c-.31.23,0,.42,0,.7-1-.22-1.42.5-2,1.07.34,0,.69,0,1,0,.07,0,.16-.13.19-.22a2.36,2.36,0,0,0,0-.44l.93,1L111.3,65v.13c.62.42,1.32.09,2,.11v.09l-1.93.13c-.3,0-.62-.06-.8.3,0,.06-.28,0-.42,0-1.31,1-2.39,2.41-3.78,3.43l-.08-.08s0-.09.08-.12c.67-.6,1.35-1.18,2-1.8.48-.45.93-1,1.39-1.43S110.11,65.39,110,64.93Zm1-.8c.57-.36.87-1,1.56-1.32l0,.42a1.24,1.24,0,0,0,.17-1.43c-.54.56-1.06,1.12-1.6,1.65A.46.46,0,0,0,110.93,64.13Z"/><path d="M87,23.57c.55-.25,26.54-.67,27.6-.46C105.39,23.18,96.23,23.92,87,23.57Z"/><path d="M89.87,63.71c1.34-1,2.71-2,4-3,1.83-1.48,3.61-3,5.41-4.56,1.55-1.31,3.09-2.63,4.66-3.92a7.85,7.85,0,0,1,1.55-.95C100.44,55.59,95.38,59.93,90,63.82Z"/><path d="M109.67,56.87c0,.85,0,1.7.06,2.54a1.81,1.81,0,0,0,.25,1.07c.59.65.35,1.4.36,2.1,0,.29-.31.59-.48.89l-.11,0L109.56,62l-.4-.06c.07-.12.14-.24.2-.37a1,1,0,0,0,.16-.46c0-.58-.07-1.17-.12-1.83l-7.6,6,0,0c.43-.38.83-.77,1.27-1.12,1.56-1.23,3.14-2.44,4.71-3.67a5.88,5.88,0,0,0,.6-.52c.08-.08.2-.21.19-.3,0-.43.27-.6.54-.78a.67.67,0,0,0,.34-.69,5.32,5.32,0,0,1,0-.89,1.29,1.29,0,0,1,.2-.43Z"/><path d="M108.73,53.08c-.19.16-.38.33-.58.48-2.07,1.59-4.17,3.12-6.19,4.77-1.66,1.36-3.22,2.85-4.83,4.28a8,8,0,0,1-1.15.86c4-3.8,8-7.58,12.65-10.51Z"/><path d="M108.61,63.2a10.16,10.16,0,0,1-1,.93,26.64,26.64,0,0,0-3.41,3c-.43.4-.9.76-1.37,1.12a.7.7,0,0,1-.45.1,25.22,25.22,0,0,1,6.2-5.27Z"/><path d="M42.7,39.3c-3.87-1.71-7.48-3.92-11.25-5.81l.07-.14,11.27,5.79Z"/><path d="M41.59,40.5c-.33.14-9.09-4.26-9.4-4.71Z"/><path d="M93.78,58.21a77.41,77.41,0,0,1-7.36,5.63l-.09-.12,7.37-5.6Z"/><path d="M91.82,57.59a38.05,38.05,0,0,1-6.63,5.31l-.08-.1Z"/><path d="M32.89,38.66l1.88,1.13c.8.5,1.59,1,2.39,1.49.21.13.4.4.73.22,0,0,.12.08.17.13a3.75,3.75,0,0,1,.35.44,1.11,1.11,0,0,1,.08.37c-.16,0-.36,0-.47-.07s-.25-.42-.43-.54c-.69-.46-1.42-.87-2.13-1.32S33.81,39.42,33,38.88l-.15-.13Z"/><path d="M111.7,27.8a44.28,44.28,0,0,1,6.92,2.92C116.25,29.9,114,28.78,111.7,27.8Z"/><path d="M110.82,59.54a.51.51,0,0,1,.19-.66c.64-.45,1.25-.91,1.87-1.39a1,1,0,0,0,.24-.38c.07-.18.1-.37.18-.54a1.26,1.26,0,0,1-.44,1.4c-.59.44-1.17.91-1.75,1.36Z"/><path d="M100.36,63l-4.07,3.58-.07-.07A15.36,15.36,0,0,1,100.36,63Z"/><path d="M113.24,27.07l5.41,2-.05.13-5.42-2Z"/><path d="M122.11,28.19a11.8,11.8,0,0,1-3.57-1.31A12.14,12.14,0,0,1,122.11,28.19Z"/><path d="M32,37.06a5.44,5.44,0,0,1,2.32,1.34A4.54,4.54,0,0,1,32,37.06Z"/><path d="M112.55,59.09l-1.69,1.67c-.11-.33-.1-.52.13-.7.48-.36,1-.75,1.42-1.13Z"/><path d="M113.63,25.89a28.62,28.62,0,0,1,4.13,1.82L113.58,26Z"/><path d="M124.77,31.16l.13.28-.05.09-3.38-1.28.06-.17,2.61,1A4,4,0,0,0,124.77,31.16Z"/><path d="M144,38.9l2.74,1.22A7.8,7.8,0,0,1,143.92,39Z"/><path d="M96.8,69.14c.75-.54,1.25-1.42,2.34-1.68l-2.26,1.78Z"/><path d="M112.38,60.09l-1.45,1.6-.14-.13a6.69,6.69,0,0,1,1.5-1.55Z"/><path d="M98.88,54l-.69.63-.09-.09.67-.65Z"/><path d="M112.89,58.59l-.18,1.1h-.1l.15-1.11Z"/><path class="cls-1" d="M44.82,55.27l0-.15c-.38-.08-.57.22-.83.38l0,.1Z"/><path d="M32.48,56a15.42,15.42,0,0,1-3.78,3.42l3.68-3.53Z"/><path d="M24.71,57l1.72-1.25a2.14,2.14,0,0,1,.64-.37,11.68,11.68,0,0,1-2.14,1.87L24.71,57Z"/><path d="M28,53.24l-2.64,1.94-.08-.11,2.63-2Z"/><path d="M44.82,55.27,44,55.6l0-.1c.26-.16.45-.46.83-.38Z"/><path d="M39.74,49.2l-.4.29c-.08-.37.13-.66.86-1.18l.09.06-.56.85Z"/></svg>