<svg id="Layer_1" data-name="Layer 1" xmlns="http://www.w3.org/2000/svg" viewBox="0 0 160 112" width="160mm" height="112mm" ><title>sketch</title><path d="M64,96.76,63.26,96l-.06.06c0,.09.16.18.15.26,0,.23-.06.53-.21.66a.65.65,0,0,1-.63,0c-.5-.39-.93-.85-1.41-1.27l-3.25-2.77a.72.72,0,0,1-.3-.92,9.93,9.93,0,0,0,.17-2c0-.46.15-.91.23-1.37a1.49,1.49,0,0,0,0-.21c0-3.56.15-7.13,0-10.69-.08-2.27-.08-4.54-.13-6.81,0-1.57,0-3.14.07-4.72a2.83,2.83,0,0,0-.13-.63c0-.18-.08-.37-.1-.56-.07-.89-.13-1.79-.21-2.68a.54.54,0,0,0-.55-.56.46.46,0,0,1-.33-.22,7.77,7.77,0,0,0-2.55-2.19,26.72,26.72,0,0,1-4.82-3.85c-.6-.6-1.26-1.15-1.92-1.7l-5.08-4.2-.43-.36c-.06.05-.09.07-.09.09.13,1.38-.35,2.71-.27,4.1s0,2.76,0,4.14.06,2.77.1,4.15a1.26,1.26,0,0,0,.11.53,23.57,23.57,0,0,0,.13-4.75H42v6.74l-.08,0-.21-1.09h-.14a7,7,0,0,0-.3,1.26c-.07,1.19-.08,2.37-.13,3.56a.62.62,0,0,1-.25.37,6.29,6.29,0,0,1-.67.37l0,.12.4-.1c.5-.16,1-.34,1.5-.46.15,0,.34.08.51.13-.11.14-.19.34-.33.4a6.7,6.7,0,0,1-1.2.45.9.9,0,0,0-.66.62,7.46,7.46,0,0,1-.37.88,3.27,3.27,0,0,1-.35.46l-.08-.89L35.5,72.24l.29.29a1.48,1.48,0,0,1,.28.35c.06.12.09.34,0,.4a.47.47,0,0,1-.42.06,1.65,1.65,0,0,1-.53-.3l-5.29-4.21c-.55-.44-.6-.71-.28-1.5A6.79,6.79,0,0,0,30,68a1.46,1.46,0,0,0,.42.25c.06-.15.2-.32.16-.45-.13-.52-.34-1-.49-1.54a4.75,4.75,0,0,1-.2-1c0-2.79,0-5.58-.05-8.37,0-1.18-.06-2.35-.1-3.52a.8.8,0,0,0-.09-.36l-.08.55a28.79,28.79,0,0,1-.33-6.43l.22.57h.12c0-.38,0-.76,0-1.14-.16-2.8-.35-5.59-.48-8.39,0-.89.07-1.79.12-2.69a.32.32,0,0,1,.15-.27c0,.24.07.47.08.71,0,1.2.11,2.4.14,3.6.07,3,.12,6.05.2,9.08a2,2,0,0,0,.17.56l.15,0c0-.1,0-.2,0-.3,0-1,0-2,0-3,0-.11.11-.22.16-.33a.92.92,0,0,0,.07-.26c-.06-.86-.13-1.73-.18-2.6s-.13-2-.16-3c0-1.46-.06-2.93-.08-4.39,0-.27,0-.55,0-.82s-.16-.61-.17-.91c0-.65,0-1.29,0-1.94,0-1.18,0-2.36,0-3.55,0-.26.07-.67.52-.31,0,0,.13,0,.2,0a11.9,11.9,0,0,0,1.76-.62c-.37.06-.73.12-1.1.16a4.5,4.5,0,0,1-.9,0c-.09,0-.17-.21-.25-.32.12-.08.23-.2.35-.22.57-.09,1.15-.1,1.7-.22,2.78-.62,5.55-1.29,8.33-1.88,3.47-.74,7-1.41,10.44-2.14,1.68-.35,3.35-.77,5-1.17.05,0,.09,0,.11-.14l-3.47.56,0-.14a1.61,1.61,0,0,1,.36-.15c2.6-.48,5.21-1,7.82-1.44s5.51-1,8.27-1.49,5.48-1.05,8.22-1.58c.53-.1,1.06-.22,1.58-.33a1.48,1.48,0,0,1,.41-.05,10.2,10.2,0,0,0,3.39-.44c2.44-.42,4.87-.87,7.3-1.3.25,0,.49-.06.77-.1l-.09-.28a8.49,8.49,0,0,1,1,.27c.19.07.33.27.52.38,1.21.68,2.42,1.37,3.65,2A40.28,40.28,0,0,1,101,20.41a.62.62,0,0,0,.31.13,1.09,1.09,0,0,1-.43-.46L101,20a1.52,1.52,0,0,1,.28.09c4.26,2.28,8.59,4.44,12.66,7.08a89.22,89.22,0,0,0,9.47,5.14c1.45.71,2.88,1.46,4.33,2.18a3,3,0,0,0,.69.1c.21,0,.47,0,.61.15a22.06,22.06,0,0,1,1.65,1.56,1.06,1.06,0,0,1,.12.66c0,.35-.07.71-.08,1.06a26,26,0,0,1-.07,3.31c-.47,3.19,0,6.37-.11,9.55,0,1.08,0,2.16,0,3.24.12,3.35.3,6.71.37,10.07,0,2.86,0,5.72,0,8.58a12.48,12.48,0,0,1-.14,1.73.94.94,0,0,1-.32.59,6.94,6.94,0,0,1-1.2.72c-1.3.59-2.6,1.15-3.9,1.73a.81.81,0,0,0-.3.21.59.59,0,0,1-1-.11,1.72,1.72,0,0,0-.53-.66c-1.08-.72-2.18-1.4-3.28-2.09a4.25,4.25,0,0,0-.46-.27,1.72,1.72,0,0,1-.94-1.61.65.65,0,0,0-.12-.36c-.31.42-.15,1-.39,1.43a1.73,1.73,0,0,1-.14-.42c0-.62,0-1.24,0-1.86,0-1.79,0-3.57.07-5.35a8.76,8.76,0,0,1,.09-1c0-.11.05-.27.12-.29.37-.14.2-.39.18-.68l-.86.48V49.62l-1.27.38c-3.12.89-6.25,1.75-9.36,2.66s-6,1.8-9,2.7a.93.93,0,0,0-.45,1,1.42,1.42,0,0,1,0,.64s-.16.13-.19.11c-.42-.27-.75,0-1.08.18-.63.26-1.22.6-1.85.84a21.51,21.51,0,0,1-2.07.64c-.13,0-.32-.17-.49-.27-.53.35-.84.4-1.29-.13a1.46,1.46,0,0,0-2-.35c-.31.13-.69.35-.94.26a2.09,2.09,0,0,0-1.27.11c-3.49.73-7,1.4-10.45,2.23-2,.47-3.91,1.19-5.86,1.81,0,0-.07,0,0,0V64c0,2.76,0,5.53-.06,8.29,0,.63-.12,1.27-.13,1.9,0,.88,0,1.76,0,2.64H70l.07-.34c.66.18.7.23.7.83,0,4.39,0,8.79,0,13.18a16.72,16.72,0,0,1-.18,1.86.53.53,0,0,1-.15.3c-.54-2-.23-4-.54-6,0,.14,0,.28,0,.42,0,1.31,0,2.62,0,3.94,0,.89.17,1.78.24,2.67a9.84,9.84,0,0,1,0,1.33c0,.57-.23.7-.8.64a1,1,0,0,0-.38.13c-1.24.55-2.47,1.11-3.71,1.64a1.88,1.88,0,0,1-.81.15,2.31,2.31,0,0,1-.67-.29Zm-25.51-50c.14-.51-.44-.46-.51-.72l-.73.25-.07-.13.47-.41L37,45.19V48l.19.12a1,1,0,0,1,.16-.32c.39-.36.79-.7,1.18-1.05-.4.44-.77.91-1.21,1.32S37,49,37,49.46l.12.06,2.18-2.33C39.08,47,39,46.61,38.52,46.77ZM55.58,58.52c0-.05-.09-.11-.14-.15l-3.71-3.11c-.32-.27-.66-.51-1-.77l-.08.09a5.29,5.29,0,0,0,.41.41Q53,56.58,55,58.15a4.29,4.29,0,0,0,.63.36,2.14,2.14,0,0,0,1.43.87.82.82,0,0,1,.42.22c.47.39.93.79,1.37,1.21a1.1,1.1,0,0,1,.31.59c.06.92.09,1.84.11,2.76,0,1.45.06,2.9.09,4.35,0,.14,0,.28,0,.42a.86.86,0,0,0,.13-.45l.24-3.18a1.83,1.83,0,0,1,.07-.23c.25.39-.16,1,.43,1.13,0,.42,0,.81,0,1.2,0,2.77.07,5.54.08,8.32,0,2-.07,3.93-.1,5.9,0,.16,0,.32,0,.48-.09-1-.13-2-.16-3,0-.64-.19-.88-.93-1.09L60,91.7h-.16l-.56-8.6h-.07v8.65c1.5.61,2.63,1.79,4.06,2.54,0-.11,0-.17,0-.22q.07-9.1.13-18.2c0-1-.15-2-.2-3C63,69.74,63,66.6,63,63.46a6.69,6.69,0,0,0-.12-1h-.11l-.19.52h-.12V61c0-1.46,0-2.93,0-4.39,0-.82,0-1.63,0-2.44a.45.45,0,0,0-.12-.25,11.28,11.28,0,0,0-.89-.8c-1.73-1.28-3.45-2.58-5.21-3.83-2.44-1.74-5-3.34-7.25-5.32a34.74,34.74,0,0,0-2.76-2.25c-2.61-1.84-5.19-3.72-7.63-5.78-.17-.14-.32-.3-.47-.45l.06-.07,7,5.16.11-.15C43.05,38.3,40.36,36.85,38,35l-.34.48a26.89,26.89,0,0,1,3.79,3.33,37,37,0,0,1-5-3.49l-5-3.68a1.66,1.66,0,0,0,0,.24c.2,6.2.13,12.42.36,18.63.13,3.49.09,7,.12,10.49a6.93,6.93,0,0,0,0,.91A26,26,0,0,1,32,67.82a.73.73,0,0,0,.35.72c.6.46,1.19.95,1.78,1.42l.35.24c0-.56,0-1,0-1.48s-.15-1.15-.15-1.72c0-2.58.07-5.17.09-7.75a5.44,5.44,0,0,0-.17-.78,5.06,5.06,0,0,1-.06-.95c0-.58.19-1.16.19-1.74,0-1.33-.1-2.65-.15-4l.43.09c0-.83,0-1.62,0-2.4,0-1.47,0-2.93.09-4.4a.56.56,0,0,1,.13-.41A1.11,1.11,0,0,0,35,43.33a2.88,2.88,0,0,1-.33-.43l.11-.08L35,43c.9.68,1.77,1.38,2.69,2A6.34,6.34,0,0,0,39,45.6a1.3,1.3,0,0,0,.43,0,1.57,1.57,0,0,0-.09-.43,6.44,6.44,0,0,0-.43-.66l.24.17c1.93,1.53,3.87,3.05,5.79,4.59q4.71,3.76,9.4,7.55c.52.42,1,.84,1.53,1.28a1.14,1.14,0,0,1,.16.39ZM36.37,32.93h0c.06.1.09.25.17.31.47.34.95.65,1.44,1a22.23,22.23,0,0,1,2-2.48l.14.09-1.71,2.6a67.6,67.6,0,0,0,8.71,6.51c-.5-.57-1.05-1.1-1.59-1.63-.35-.36-.68-.73-1-1.1a.79.79,0,0,1-.07-.32,3,3,0,0,1,.32.08s.08.07.12.11A51.68,51.68,0,0,0,50.15,43c2.19,1.66,4.41,3.28,6.62,4.92a3.65,3.65,0,0,0,.34.18c-2.22-2-4.45-3.87-6.53-6,.5.36.93.81,1.41,1.2,1.28,1,2.6,2,3.88,3.1a51.28,51.28,0,0,0,7.62,5.37c.44.24.44.34.09.72a.79.79,0,0,0,.88.25c1-.32,2-.64,3.07-.89,7-1.68,14-3.3,20.92-5,5.26-1.32,10.47-2.77,15.71-4.16l.93-.3,0-.13c-9.27,2.51-18.56,4.92-27.95,6.95a2.54,2.54,0,0,1,.67-.31c2.34-.65,4.68-1.31,7-1.93,2.94-.78,5.89-1.5,8.83-2.28,4.56-1.21,9.12-2.45,13.69-3.66s9-2.38,13.54-3.57c.09,0,.23-.06.25-.11.08-.37.39-.34.64-.43l2.78-1,0-.12c-3.19.61-6.23,1.82-9.39,2.55a56.8,56.8,0,0,1,10.47-3v-.14l-1.18-.54a3.51,3.51,0,0,1,1.31.39A1.19,1.19,0,0,0,127,35c-.69-.38-1.29-.73-1.91-1.05-2.38-1.2-4.79-2.34-7.15-3.58-2.77-1.47-5.5-3-8.26-4.52-.5-.28-1.09-.39-1.59-.67-1.65-.94-3.28-1.94-4.93-2.89s-3.49-2-5.23-3c-.11-.07-.28-.13-.29-.22-.08-.51-.54-.59-.87-.79-1.26-.75-2.54-1.46-3.78-2.23a1.58,1.58,0,0,0-1.09-.26c-2.08.25-4.17.47-6.26.69-.33,0-.68-.09-1,0-2.16.42-4.31.84-6.46,1.31a41.84,41.84,0,0,0-6.67,2,7.36,7.36,0,0,1-1.24.25l0-.13.87-.56c-11.43,2.17-22.81,4.4-34.13,7l1.19-.39,0-.12a6.57,6.57,0,0,0-1.79.52l0,.14.37-.05,0,.09a3,3,0,0,1-.57.39c-.62.22-1.26.39-1.9.59a.86.86,0,0,0-.42.23c-.56.66-1.09,1.35-1.66,2.06l1.21.94,2.48-3.21.12.09-2.47,3.25,2.54,2.1C36.17,33,36.28,32.94,36.37,32.93Zm91.56,4.21c-.28,0-.53.09-.79.11a10.55,10.55,0,0,1-2,.16,3.8,3.8,0,0,0-1.62.23c-1.34.42-2.66.92-4,1.33q-7,2.1-14.07,4.17a15.23,15.23,0,0,1-1.64.44c-.74.14-1.51.16-2.24.32-2,.43-4,.86-6,1.39-2.53.67-5,1.45-7.55,2.17-2.27.65-4.52,1.32-6.8,1.91-2,.53-4.12,1-6.18,1.43Q69.79,52,64.61,53.07a1,1,0,0,0-.88,1.15c0,.43,0,.86,0,1.28q.06,11,.12,21.94c0,4.55.11,9.1.16,13.64,0,1.18,0,2.35,0,3.53,0,.37.26.49.49.65.06,0,.22,0,.31,0,.68-.4,1.34-.82,2-1.21a3.11,3.11,0,0,1,2.22-.49c0-.44,0-.85,0-1.25s-.15-1.07-.16-1.6c0-.86.07-1.73.06-2.59,0-1.52-.08-3-.13-4.55,0-.49-.07-1-.11-1.49H68.6v1.46c0,.51,0,1,0,1.53s0,1,0,1.49-.08,1-.12,1.46c-.39-.52-.51-11.89-.25-12.53.31.05.38.23.38.53,0,1.67,0,3.34,0,5a3.87,3.87,0,0,0,0,.49h.09V75.81l.36-.06q-.07-3.37-.15-6.7c0-.15,0-.39-.09-.43-.41-.22-.26-.59-.27-.9,0-.81,0-1.61,0-2.41,0-.16,0-.31,0-.47h.13c0,.21,0,.42.08.62s-.11.46.24.57l-.22-4.12c-.1,0-.22,0-.31,0s-.37-.17-.42-.3a.47.47,0,0,1,.24-.42,1.09,1.09,0,0,0,.77-.74l.11,0,.22.35L75,59.07l-.37.31,0,.07,8.86-2-.15-.33c1-.17,2-.31,3-.5A11,11,0,0,0,89.12,56a6,6,0,0,1,1.48-.44c1.38-.31,2.76-.65,4.16-.87,1.12-.18,2-1.07,3.23-.95a4.07,4.07,0,0,0,1.41-.4l0-.07-1.09.19a3.66,3.66,0,0,1,.8-.33c.61-.17,1.28-.14,1.75-.66a.34.34,0,0,1,.16,0l2.14-.47c1.08-.23,2.18-.39,3.24-.69,4.65-1.32,9.29-2.68,13.93-4a1.71,1.71,0,0,1,.32,0l0,.13c-.67.45-1.5.55-2.21.94a.59.59,0,0,0,.39,0l3.48-1.09a10.83,10.83,0,0,1,1.12-.29.47.47,0,0,1,.63.47c.08,1.24.16,2.48.21,3.72,0,.44-.15.88-.13,1.32.06,1.54.2,3.08.24,4.62s0,3.06,0,4.59a1.29,1.29,0,0,0,.23,1,.5.5,0,0,1,.09.35c0,.87,0,1.74,0,2.6.07,3.69.15,7.38.22,11.07v.42l5-2.31-.22-1.08c-.38.24-.52.17-.58-.31a4.87,4.87,0,0,1,0-.54c0-1.1,0-2.21,0-3.31,0-1.76.09-3.51.14-5.27a2.1,2.1,0,0,1,.09-.42h.15l.15,1.6.12,0c-.08-.89-.22-1.79-.23-2.68,0-2.72,0-5.45,0-8.17,0-2.46,0-4.92.05-7.38,0-2.79.16-5.58.21-8.37,0-.7-.07-1.39-.11-2.09-.75,0-.8.09-.83.72a2.59,2.59,0,0,1-.1.74c-.05.14-.21.25-.32.38-.1-.13-.26-.25-.3-.4A10.29,10.29,0,0,1,127.93,37.14Zm-4.25,26.3c-.07-.31,0-.64-.18-.8-.81-.89-1.66-1.74-2.5-2.6-.26-.26-.53-.52-.81-.77a.36.36,0,0,0-.29-.06.32.32,0,0,0-.11.23c0,.4-.05.8-.05,1.2,0,1,0,2,0,3,0,.43-.12.86-.13,1.3,0,2.73,0,5.47,0,8.2,0,.61,0,.61.69.72l-.27-.41,0-.09a9.63,9.63,0,0,1,1,.52.45.45,0,0,0,.64-.05,5.46,5.46,0,0,1,.82-.47l.11.15-.73.83a.47.47,0,0,0,.75.1c.37-.25.76-.47,1.11-.73a.57.57,0,0,0,.23-.39q.07-4.66.13-9.33C124.1,63.67,124.08,63.39,123.68,63.44Zm-84-8,.1.08a1.67,1.67,0,0,1-.23.39c-.54.59-1.11,1.15-1.65,1.74s-1.11,1.25-1.66,1.88c-.14.17-.25.35-.38.53-.16,3.2.13,6.47-.6,9.72a1,1,0,0,0,.25,0c1.09-.37,2.18-.73,3.25-1.12a1.24,1.24,0,0,0,.85-1.14q.06-1.38,0-2.76c0-.93-.08-1.86-.13-2.87a5,5,0,0,1-.49.43,2,2,0,0,1-.4.18l-.07-.15a7.59,7.59,0,0,1,.71-.56c.34-.21.34-.49.25-.88l-1.15,1.34-.12-.09.26-.37c.28-.35.58-.67.83-1a1.44,1.44,0,0,0,.22-.65c0-.42,0-.85,0-1.27,0-.1,0-.2,0-.38L39,59,38.86,59c.91-.7.7-1.66.78-2.55a.64.64,0,0,0,.26-.37c.06-1.16.1-2.32.14-3.48,0-.57,0-1.14,0-1.71L40,50.8c-.48.89-1.39,1.4-1.9,2.25l.92-.67.16.19a3,3,0,0,0-.5.35c-.51.49-1,1-1.49,1.5s-.36.61.1,1.06l1.13-1.24a.64.64,0,0,1-.17.41,7.13,7.13,0,0,0-.88,1,11.62,11.62,0,0,0-.58,1.56l.11.12,1.39-1.93.07.05-.2.37.51-.18.05.12c-.48.45-1,.9-1.43,1.36a.79.79,0,0,0-.14.85A15.61,15.61,0,0,1,39.68,55.45Zm.58-6.92.11.1c0,.07,0,.16-.06.21-.35.39-.69.79-1.06,1.16-.68.7-1.39,1.38-2.06,2.08a1.94,1.94,0,0,0-.43.65.77.77,0,0,0,.1.62c.23.24.4,0,.56-.2.93-1,1.85-2,2.81-2.93a1.13,1.13,0,0,0,.38-.9c0-.35,0-.69,0-1,0,0-.06-.09-.1-.13l-.73-.59a8.62,8.62,0,0,0-2.83,3l.68-.62.1.11L37,51c-.36.44-.35.48.17.74A24.6,24.6,0,0,1,40.26,48.53Zm83.06,9.54a8.27,8.27,0,0,1,0-1.12c.06-.39-.25-.52-.41-.77s0-.64-.18-.9a2.7,2.7,0,0,0-.73-.78,1.52,1.52,0,0,0-1.59-.36l-1-1a1.31,1.31,0,0,0,.15,1.29Zm-3.49-1.43-.11,0c.06.56.12,1.11.19,1.67a.56.56,0,0,0,.18.26l3.15,2.75c.09.08.2.14.37.27,0-.42-.09-.72-.08-1a1.14,1.14,0,0,0-.41-1ZM37.56,34.83,31.38,30.5c0,.38-.1.65.26.88,1.08.7,2.13,1.43,3.19,2.16.81.55,1.6,1.12,2.43,1.7Zm57.09,21.5-1,.21c-.88.21-.88.21-.86,1.11,0,.47,0,.5.47.29l3.78-1.81a1.33,1.33,0,0,0-.31-.18,1,1,0,0,0-.45,0,2.37,2.37,0,0,0-1.42.65c-.08.09-.26.11-.48.2Zm28.76,3.21a1,1,0,0,0-.31-1c-1.16-1.14-2.28-2.32-3.43-3.48,0,0-.08,0-.2-.07.22.69,0,1.49.89,1.81a1.21,1.21,0,0,1,.32.25ZM123.25,55l.11-.09-2.65-3.72-.89,1a4.87,4.87,0,0,1,.84.46c.45.38.85.83,1.29,1.22s.65.47,1,.72A2.82,2.82,0,0,1,123.25,55Zm0-.91.11,0c0-.45-.1-.91-.17-1.37a1.11,1.11,0,0,0-.21-.51c-.4-.42-.81-.83-1.24-1.22a1.46,1.46,0,0,0-.4-.17c0,.16,0,.35,0,.46C121.94,52.23,122.58,53.17,123.21,54.11ZM31.55,61.79l-.05.1c0,1.94,0,3.89.05,5.83,0,.09.09.18.13.27A18.45,18.45,0,0,0,31.55,61.79Zm1.66-33.91-.05-.1c-.66.18-1.32.35-2,.56a.48.48,0,0,0-.14.38c.29.31.62.59.95.9Zm2.32,16v2l.11,0c.27-.28.56-.54.81-.83a.34.34,0,0,0,0-.34C36.15,44.39,35.84,44.12,35.53,43.83ZM87.6,15.89l0,.06,4.31-.48a1.14,1.14,0,0,0-1.29-.31,11.62,11.62,0,0,1-1.76.44ZM123,51.6l.08,0-.16-1.44-1.07.14c.07.15.08.2.11.22Zm-86.78-4a1.51,1.51,0,0,0-.47,1.86A1.61,1.61,0,0,0,36.2,47.65Zm0-1.63c-.65.14-.83.64-.57,1.6A1.39,1.39,0,0,0,36.23,46Zm-.4,8.83c.26-.42.76-.7.68-1.27a.5.5,0,0,0-.25-.33c-.08,0-.26.08-.33.18a.91.91,0,0,0-.16.45C35.77,54.2,35.81,54.52,35.83,54.85Zm86.89,20c.37.6.76.17,1,0s.13-.58.19-.88l-.09,0Zm-92-33.55h-.07v3.75h.07Zm5,9.55a1.12,1.12,0,0,0,.48-1.45C35.62,49.7,35.55,49.91,35.7,50.87ZM35.89,58c.49-.33.67-.66.55-1,0-.1-.18-.24-.27-.23a.37.37,0,0,0-.27.24C35.87,57.31,35.89,57.63,35.89,58Zm55.39-.85.76.8V56.85ZM36.55,58c-.74.43-.84.63-.7,1.32A2,2,0,0,0,36.55,58ZM34.33,70.87l.07-.08L32,68.72l-.12.13Zm2.12-19.15c-.75.81-.87,1.11-.54,1.41A2.16,2.16,0,0,0,36.45,51.72Zm-.28,3.91a.7.7,0,0,0-.32,1.07C36.27,56.45,36.25,56.07,36.17,55.63Zm-4.64,1.75h-.06v1.9h.06Zm4.18-5.07.56-.93-.14-.08A.84.84,0,0,0,35.71,52.31ZM30.44,31.45h.09v-1.6h-.09ZM59.19,92.63c.09.53.54.67.93.88ZM62,51.48c.29.53.66.76,1.07.67ZM123.92,76v-.84l-.42.35ZM35.68,55.61l.19.1.35-.63L36.06,55Z"/><path d="M68.29,17.81l-4.42,1-.06-.14c.08-.06.14-.15.22-.16,1.41-.28,2.82-.54,4.23-.8Z"/><path d="M117.61,32.31a29.9,29.9,0,0,1-4.42,5.48A33.78,33.78,0,0,1,117.61,32.31Z"/><path d="M90.2,44.41c-3.28.86-6.61,1.53-9.93,2.23l0-.15,9.92-2.3Z"/><path d="M116.25,31.69a75.16,75.16,0,0,1-6,7.32l-.08-.08,6-7.34Z"/><path d="M116.5,36.89c.44-1.2,2.2-3.54,3.08-3.93l-3,4Z"/><path d="M113.12,32.15l-4.25,4.75-.12-.11A48.07,48.07,0,0,1,113,32Z"/><path d="M118.81,36.66c.88-1.07,1.29-2.47,2.44-3.34A8.69,8.69,0,0,1,118.81,36.66Z"/><path d="M35.73,30.49,39,26.38l.11.08a32.52,32.52,0,0,1-3.26,4.13Z"/><path d="M36.37,32.93l2.42-3,.09.07c-.2.31-.39.64-.62.93-.53.64-1.07,1.26-1.62,1.88,0,.07-.18.06-.28.09Z"/><path d="M122.77,33.58l-3.59-1.95.07-.13,3.54,1.92S122.78,33.46,122.77,33.58Z"/><path d="M65.92,60.68a14.72,14.72,0,0,1,.27-5C66.71,56.35,66.53,60,65.92,60.68Z"/><path d="M125.71,49.26V44.39h.11a21.43,21.43,0,0,1,.07,4.87Z"/><path d="M65.27,70.6a38.5,38.5,0,0,1-.21-5.88h.11l.24,5.88Z"/><path d="M65.1,56.51c.09.16.26.32.25.47-.09,1.23-.21,2.47-.35,3.7V56.59Z"/><path d="M126.56,45.63V42.92h.14a12.92,12.92,0,0,1,0,2.71Z"/><path d="M38.43,44.27l-3.56-2.7.11-.14,3.54,2.73Z"/><path d="M60.05,60.39c0,.66,0,1.32,0,2,0,0-.11.09-.16.13s-.15-.16-.15-.23c0-.63.08-1.26.12-1.89Z"/></svg>