<svg id="Layer_1" data-name="Layer 1" xmlns="http://www.w3.org/2000/svg" viewBox="0 0 160 112" width="160mm" height="112mm" ><defs><style>.cls-1{fill:#fff;}</style></defs><title>sketch</title><path d="M84.19,63.25c0,1,.08,1.88.08,2.81,0,4,0,8,.09,12.06,0,2.41.19,4.82.22,7.23,0,3,0,5.9,0,8.85q0,1.74.06,3.48a.36.36,0,0,1-.31.44,10,10,0,0,0-1.62.47,1.14,1.14,0,0,1-1.3-.21,16.71,16.71,0,0,0-1.45-1,.48.48,0,0,1-.21-.48,5.15,5.15,0,0,0,0-.56c0-.07,0-.17,0-.2-.34-.23-.24-.58-.24-.89q0-4.23.08-8.46c0-.36,0-.72,0-1.07,0-.18,0-.27-.22-.32a1,1,0,0,1-.36-.21,1.77,1.77,0,0,0-1-.55.3.3,0,0,1-.29-.31c0-.32-.09-.63-.09-.95,0-.83,0-1.67,0-2.5,0-3.41,0-6.82-.08-10.23,0-2.08,0-4.17-.06-6.25a.48.48,0,0,0-.19-.35c-.92-.56-1.84-1.1-2.77-1.64-.22-.12-.49-.16-.71-.28A39.81,39.81,0,0,0,69.91,61c-.45-.18-.86-.47-1.31-.68-.73-.35-1.48-.68-2.22-1a1.71,1.71,0,0,1-.23-.13c4.33,1.12,8.52,2.71,12.89,3.69l0-.07-.24-.32c-.74-1.08-1.49-2.16-2.24-3.23a.65.65,0,0,0-.34-.24,9.78,9.78,0,0,0-1.08-.2A15.73,15.73,0,0,1,72.49,58a53.3,53.3,0,0,0-7.23-2.08l4.29,1.5v0a.17.17,0,0,1-.1,0c-2.54-.71-5.08-1.42-7.62-2.15-.83-.23-1.63-.58-2.47-.75-1.14-.22-2.3-.32-3.47-.47A1.33,1.33,0,0,0,56,55c.17.3.31.63.47.95l-.09.05-.72-1.15a2.86,2.86,0,0,0,.85,1.68l.14-.21,5.11,1.53-.09.08c2.26.39,4.15,1.56,6.19,2.37l0,.08-.47-.11v0l.82.61,0,.05c-.06,0-.13,0-.17-.05A13.25,13.25,0,0,0,63.4,59.1c-1.12-.34-2.25-.65-3.38-1a2.5,2.5,0,0,0-.31-.07v.55c0,2.88.07,5.76.18,8.64.24,6.39.19,12.78.16,19.18,0,.71-.15,1.43-.23,2.15a.47.47,0,0,1-.06.2c-.09.13-.2.25-.3.37l-.16-.35L58,89.11a.38.38,0,0,0-.24.17c-.18.32-.35.41-.7.29-.12,0-.24-.11-.36-.15s-.15,0-.18,0c-.2.22-.27,0-.38-.1a2.1,2.1,0,0,0-.36-.37,2.5,2.5,0,0,1-1-.94.77.77,0,0,1-.09-.32c0-.39.1-.77.12-1.16s0-.55,0-.82.05-.47.05-.71a7.81,7.81,0,0,0,0-1.28,6,6,0,0,0-.38-1l-.12-.32.1-.06.37.53h.08V81.47c0-5,0-10.09-.08-15.13-.05-2.69-.29-5.37-.45-8.06-.07-1.13-.15-2.25-.22-3.38a4.48,4.48,0,0,0-.36-1.77,1.08,1.08,0,0,1-.11-.41l.17.23h0c0-.2,0-.41-.07-.62q-.36-3.06-.7-6.12c0-.16-.08-.31-.1-.47s0-.44,0-.66,0-.65-.08-1q-.4-3.63-.82-7.28c-.15-1.36-.33-2.72-.47-4.08-.07-.67-.1-1.34-.14-2-.09-1.45-.16-2.9-.26-4.35a40,40,0,0,0-.86-5.2A23.27,23.27,0,0,1,50,18.5c0-.44-.07-.89-.09-1.33a.53.53,0,0,1,.08-.33,6.41,6.41,0,0,0,.45-.81c.13-.29.54-.44.83-.64,0,0,.08,0,.13,0v-.1l-1-.1,0-.08a1.34,1.34,0,0,1,.26-.09L61,13.85c1.06-.12,2.11-.23,3.17-.33a4.07,4.07,0,0,1,.85,0c-3.26.56-6.56.82-9.84,1.28l1-.11c3.7-.32,7.41-.67,11.12-1,2.42-.19,4.85-.32,7.28-.46a4.43,4.43,0,0,1,.89,0c.14,0,.27.16.41.18a1,1,0,0,0,.51,0,.37.37,0,0,1,.51.17.49.49,0,0,1,0,.61.5.5,0,0,0-.09.35c.26,1.36.57,2.7.81,4.06.37,2.05.72,4.1,1,6.17.74,5.16,1.41,10.34,2,15.54.24,2.38.55,4.75.85,7.12.1.82.12.81,1,.87.41,0,.83.09,1.24.11.65,0,1.29,0,1.93.06,1,.07,2,.15,3,.26,1.78.19,3.55.37,5.32.63,2,.29,4,.65,6.08,1a.63.63,0,0,1,.33.19,28.59,28.59,0,0,1-3.57-.47c-1.19-.18-2.39-.36-3.59-.48l1.63.33c2.33.46,4.66,1,7,1.38,1.63.28,3.27.41,4.91.62a3.76,3.76,0,0,1,.92.28c.62.29,1.22.63,1.84.92a.33.33,0,0,1,.18.49,2.3,2.3,0,0,0-.16,1.24c.32,6.11.64,12.23.53,18.36,0,2.5-.17,5-.26,7.5,0,.16,0,.31.13.45s0,.3,0,.46-.13.23-.13.34c0,1.43.06,2.86,0,4.29s-.09,2.7-.13,4a.49.49,0,0,1-.28.48c-.47.28-.93.6-1.38.92a.34.34,0,0,1-.43,0l-1.72-1.05a2.69,2.69,0,0,1-.45-.22.63.63,0,0,1-.25-.38c0-.69.07-1.39.1-2.08,0-.26,0-.53,0-.8l.15-4.33c0-.43.06-.87.08-1.3.07-1.39.13-2.77.2-4.16,0-.2,0-.4,0-.61h-.1l-.23,2.39h-.08V73h0l-.1,1.8H105V72.57c0-.77,0-1.53,0-2.3s-.07-1.5-.14-2.25-.18-1.51-.27-2.27l.13,0,.24.75c-.15-2.66-.16-5.32-.44-8l-4.58,1,0,0,2.88-1.08,0-.08c-.36.1-.73.17-1.08.29-.66.22-1.32.45-1.95.72a21.62,21.62,0,0,1-3.4,1.07c-3.55.85-7.1,1.74-10.64,2.61C85.23,63.07,84.7,63.15,84.19,63.25Zm21.51-.37a1.3,1.3,0,0,0-.07,1.08c.06,0,.07-.09.11-.13.41-.44.82-.87,1.23-1.32a.29.29,0,0,0,.06-.24c-.06-.26-.14-.52-.23-.82l-.19.25-.92,1.19a5.29,5.29,0,0,1,1-1.68c.06-.08.15-.16.15-.25,0-.49,0-1,0-1.57-.44.52-.79,1-1.21,1.41s-.24.66-.19,1l.1.08.73-.87.1.1-.75.77c-.07.08-.16.17-.16.26a8.38,8.38,0,0,0,.05.84Zm-47-3.12c.1-.2.15-.46.3-.58a.42.42,0,0,0,.18-.39c0-.21,0-.42,0-.62s0-.25-.08-.26a.52.52,0,0,0-.37.05c-.58.43-1.14.88-1.72,1.32-.3.23-.34.32-.19.7,1-1.09,1.23-1.27,1.62-1.07,0,0,0,.06-.05.08-.46.34-.92.7-1.4,1-.29.2-.25.45-.19.81L58.36,60l-1.47,1.29c-.06,0-.16.11-.16.17,0,.29,0,.59,0,1,.31-.33.55-.61.82-.85a2,2,0,0,1,.89-.59l.11.13c-.12.09-.26.17-.37.27-.4.36-.79.73-1.19,1.08a.57.57,0,0,0-.2.58c.06.43.1.86.13,1.29.09,1.4.19,2.8.25,4.19.12,2.82.23,5.64.35,8.45a7.58,7.58,0,0,0,.13.81.66.66,0,0,1,0,.28c0,.13-.13.25-.13.38,0,1.28,0,2.56,0,3.84-.09,2-.23,4.08-.35,6.12,0,.37,0,.38.36.28.6-.16,1.2-.3,1.87-.46,0-.5.08-1.1.07-1.69,0-6.44-.07-12.88-.27-19.32-.08-2.45,0-4.91,0-7.36v-.34ZM55.56,18.67l0,0c-.22.25-.43.52-.67.76a11.74,11.74,0,0,0-1.7,1.68s0,0,0,0a.46.46,0,0,0-.16.47c.17,1.24.36,2.48.48,3.72.28,2.94.52,5.89.78,8.83.1,1.12.16,2.24.3,3.35.16,1.35.4,2.69.57,4,.27,2,.51,4,.76,6,.05.46.06.92.09,1.38H56l-.37-2.12a44.34,44.34,0,0,0,.62,5.9c4.17-.53,8.2-1.71,12.33-2l-2.23.42c-3.15.63-6.3,1.27-9.5,1.64-.64.08-.64.09-.54.72l0,0,.28-.06c1.2-.3,2.39-.66,3.61-.89,4.81-.94,9.63-1.84,14.45-2.73A2.15,2.15,0,0,0,76,49.11a9.67,9.67,0,0,1,.79-.78l0,.05L75.8,49.59a1.16,1.16,0,0,0,.89-.27A9.8,9.8,0,0,0,80,45a.35.35,0,0,1,.08-.13,5.27,5.27,0,0,1-1.13,2.51,9.27,9.27,0,0,1-2,2.06,1.11,1.11,0,0,0,.19,0c.76-.13,1.52-.26,2.28-.41a.58.58,0,0,0,.27-.2,3.36,3.36,0,0,0,.31-.43l.06,0-.31.49,0,.07c.25-.08.59-.08.75-.25a1,1,0,0,0,.28-.94c-.12-.53-.15-1.08-.22-1.62,0-.08,0-.21,0-.22-.24-.1-.18-.32-.2-.49-.06-.43-.1-.86-.15-1.3-.17-1.71-.33-3.41-.5-5.12-.08-.83-.24-1.66-.24-2.49a31.06,31.06,0,0,0-.29-4.42c-.13-.9-.28-1.8-.43-2.7h-.07c.11.86.23,1.71.32,2.57s.2,1.71.26,2.58.12,1.74.16,2.61.09,1.73.11,2.59,0,1.7,0,2.55a5.23,5.23,0,0,1-.22-1.1c-.28-2.83-.51-5.67-.84-8.5-.28-2.46-.61-4.92-1-7.36-.45-2.64-1-5.26-1.51-7.89a9.58,9.58,0,0,1-.13-1.06c0-.07,0-.15.08-.22a.9.9,0,0,1,.16.18.73.73,0,0,1,0,.2c.37,1.62.74,3.23,1.09,4.85.28,1.25.53,2.5.79,3.75a11.06,11.06,0,0,0-.14-1.29c-.58-3.26-1.16-6.51-1.73-9.77,0-.19-.15-.27-.27-.19s-.32,0-.48,0a.45.45,0,0,0-.23,0c-.74.1-1.49.26-2.23.31a13.1,13.1,0,0,1-2.17,0,5.87,5.87,0,0,0-2.64.18,4.23,4.23,0,0,1-1.4.19c-1.65.06-3.29.11-4.94.23-1.95.14-3.9.35-5.86.54-.07,0-.2,0-.21.07,0,.22-.19.18-.32.2-.37,0-.73.1-1.1.11a1.09,1.09,0,0,0-.87.42c-.4.49-.82,1-1.27,1.48a5.59,5.59,0,0,1,1.23-1.76.81.81,0,0,0-.83.34A1.75,1.75,0,0,0,52,17.68c0,.06,0,.12,0,.18,0,1.37,0,2.74.1,4.11s.34,2.57.52,3.85.35,2.47.52,3.71a9.49,9.49,0,0,0,0-1.51q-.33-3.49-.67-7c-.08-.84-.2-1.68-.27-2.52a3.1,3.1,0,0,1,.12-.72h.1c.33.47.15,1.07.36,1.59.27-.31.51-.61.77-.89a1.77,1.77,0,0,1,.91-.65.53.53,0,0,1-.13.19c-.46.47-.92.93-1.37,1.4-.06.06-.15.15-.14.22,0,.37.1.74.15,1.12h.13c.07-.22.13-.44.19-.66a.35.35,0,0,1,.1-.18,1.07,1.07,0,0,1,.8-.39.7.7,0,0,0,.38-.11C54.9,19.2,55.23,18.93,55.56,18.67ZM81.41,83.88c0-.18-.06-.3-.07-.42,0-.44,0-.87-.06-1.31l-.15-9.59a.68.68,0,0,0,0-.32l-1.17-1.95c-.05.5,0,.95-.05,1.41a3.31,3.31,0,0,0,.47,1.89,14.54,14.54,0,0,1,.72,1.79,1.67,1.67,0,0,1,0,.5l-.1,0a9.58,9.58,0,0,0-1.06-2.46c0,1.18,0,2.36.07,3.54.1,2.71.25,5.41.29,8.12,0,3,0,5.92-.06,8.87,0,.4,0,.8,0,1.19,0,.61,0,1.23.08,1.84,0,0,0,.13.07.15l1,.52a77,77,0,0,1,0-7.75.57.57,0,0,1,.06.25l.12,7.39a.43.43,0,0,0,.12.29,2.4,2.4,0,0,0,.45.27l1.2-.52a.9.9,0,0,0,.26-.17,2.33,2.33,0,0,0,.18-.3,3.27,3.27,0,0,1-.08-.56c0-.54,0-1.09,0-1.63,0-3.21-.11-6.41-.29-9.61-.12-2.16-.11-4.33-.16-6.49,0,0,0-.08,0-.11l.06,0c.07-.06.18-.1.2-.17a5.26,5.26,0,0,0,.12-.78q0-1.59.06-3.18c0-.37,0-.73-.06-1.1,0-.89-.08-1.78-.13-2.66,0-.24,0-.56-.16-.67s-.14-.27-.15-.41c0-1.13,0-2.26-.06-3.4,0-.83-.09-1.66-.14-2.49,0-.24.1-.52-.19-.7a.48.48,0,0,1,.1-.25.76.76,0,0,1,.34-.11c.18,0,.38,0,.38-.32a.17.17,0,0,1,.13-.13s.11.07.15.12a.79.79,0,0,1,.08.16l9.16-2.42-.11.18.15,0c1-.26,2-.48,3-.77.73-.21,1.43-.55,2.16-.75,1.43-.37,2.87-.7,4.32-1a13.27,13.27,0,0,1,2.08-.34,6.1,6.1,0,0,0,1.53-.3.7.7,0,0,1,.32,0,.32.32,0,0,0,.37-.15,3.82,3.82,0,0,1,.34-.36l.06.07a.73.73,0,0,1-.17.18.33.33,0,0,0-.16.44,20.45,20.45,0,0,0,.32,2.2s0,.07,0,.11a1.28,1.28,0,0,0-.07.34c.08,3.66.21,7.32.22,11,0,5-.07,9.89-.11,14.83,0,.12,0,.24,0,.36.07,1.31.13,2.61.2,3.92,0,.09,0,.17,0,.31.37-.18.7-.34,1-.49a.37.37,0,0,0,.26-.41c0-1.56,0-3.13,0-4.7,0-.68.11-1.37.12-2.06,0-1.48,0-3,0-4.44,0-2.69.2-5.38.18-8.06-.05-4.91-.2-9.81-.32-14.71,0-.58-.09-1.15-.14-1.74l-.27,0c-1.47.21-3,.4-4.42.63-3.09.5-6.2,1-9.27,1.54-3.72.7-7.36,1.75-11,2.75-.74.2-1.47.43-2.2.63a6.48,6.48,0,0,1-.67.08c0,.59.09,1.15.16,1.71a1.24,1.24,0,0,0,.2.51c.27.4.57.78.84,1.19,0,.06,0,.19,0,.29s-.22,0-.27-.11c-.22-.33-.43-.67-.63-1s-.32-.61-.51-.9a.7.7,0,0,0-.72-.35l.65,2,.07,0,0-.61C81.4,66.1,81.79,82.92,81.41,83.88Zm25.06-31-.1,0a12.66,12.66,0,0,1-3.66-.58,9.85,9.85,0,0,0-1.45-.33l-5.59-1.4c-.43-.1-.88-.14-1.32-.2-.06,0-.14.07-.21.11s.11.13.18.15l2.54.61.79.22,0,.09a126.33,126.33,0,0,0-15.77-2.66,1.38,1.38,0,0,1-.32.18c-.39.06-.79.07-1.17.16-1.05.27-2.1.57-3.15.86a2.11,2.11,0,0,1-.48.12c-.34,0-.69,0-1,0-.68.1-1.36.24-2,.35-1.55.23-3.1.43-4.65.67-1.37.22-2.73.46-4.1.69a1.55,1.55,0,0,0-.23.07v.06l.45.1v0L57.8,53.62a5.85,5.85,0,0,0,.85.21l9.71,2.39,3.11.8.17,0a.72.72,0,0,0-.4-.23,27.69,27.69,0,0,1-4.82-1.39c-.25-.1-.48-.23-.72-.34a.58.58,0,0,1,.32,0c1.87.52,3.72,1.07,5.62,1.43a10.65,10.65,0,0,1,1.53.53l0,.08-.5-.07a7,7,0,0,0,1.76.7c2.15.41,4.3.77,6.45,1.12a2.21,2.21,0,0,0,1,0c1.55-.45,3.08-.95,4.61-1.41a108,108,0,0,1,17.87-3.76c.71-.09,1.43-.2,2.12-.3Zm.67,37.42c.07-.37-.06-.75.27-1,0,0,0-.11,0-.17,0-1.77,0-3.53-.07-5.3,0-.28,0-.57-.07-.85-.05-.63-.14-1.26-.13-1.89,0-1.61.16-3.21.19-4.82s0-3.35,0-5c0-2-.13-3.91-.2-5.86,0,0,0,0,0-.09a11.26,11.26,0,0,1-1,1.08c-.44.38-.35.8-.27,1.31a8.58,8.58,0,0,1,.5-.74c.18-.22.39-.41.59-.61l.08.06a4,4,0,0,1-.17.36c-.29.45-.58.9-.89,1.34a1.05,1.05,0,0,0-.06.84,3.92,3.92,0,0,1,.29-.29,2.41,2.41,0,0,1,.24-.21l.06.06a2.55,2.55,0,0,1-.37.48.74.74,0,0,0-.23.61c0,3.3.09,6.61.13,9.91,0,.68,0,1.35,0,2,0,1.61-.06,3.23,0,4.85,0,1.09-.35,2.19.14,3.28.1.24.19.38.41.45Zm-50.46-6h.08c0-.22,0-.45.05-.67a2.64,2.64,0,0,0-.18-1.3c-.25-.65-.43-1.32-.64-2a.26.26,0,0,1,0-.15l.07,0L56.8,82h.08a12.45,12.45,0,0,0-.25-3.27,22.73,22.73,0,0,1-.57-2.23l.07,0,.66,1.73.08,0a4.83,4.83,0,0,0-.31-2.4,6.56,6.56,0,0,1-.48-1.08c-.14-.36-.25-.73-.37-1.09l.09,0,1,2.08a.58.58,0,0,0,.06-.3,18.28,18.28,0,0,0-.17-2.22c-.1-.89-.06-1.8-.11-2.7a3.29,3.29,0,0,0-.24-1c-.24-.58-.54-1.15-.82-1.72,0,0-.06-.1-.13-.22a2.65,2.65,0,0,0,0,.29c0,.7.11,1.41.13,2.11q0,1.71,0,3.42A5.58,5.58,0,0,0,56,76a0,0,0,0,1,0,0c-.24.17-.25-.11-.41-.28,0,.78,0,1.48,0,2.18a.61.61,0,0,0,.08.26l.69,1.74a6,6,0,0,1,.19.6l-.08,0-.87-2.19c0,.12,0,.17,0,.21,0,1.77,0,3.54,0,5.3a1.06,1.06,0,0,0,.09.4c.28.64.57,1.27.86,1.9.06.14.13.27.19.41l.08,0a4.83,4.83,0,0,1,0-.85,2.67,2.67,0,0,0-.18-1.22c-.31-1-.6-2-.9-3a2.7,2.7,0,0,1,0-.28l.09,0ZM80.92,64.06a4.66,4.66,0,0,0-.07-.89,3.08,3.08,0,0,0-.36-.6,24.08,24.08,0,0,0-2.32-3.17.3.3,0,0,0-.19-.12c-.42-.08-.84-.14-1.31-.21a23,23,0,0,1,2.68,4l-.15-.09c0,.29,0,.6,0,.9.14,1.17.35,2.34.43,3.51a7.47,7.47,0,0,0,.86,3.27A9.25,9.25,0,0,1,81,71.68l.12.22c0-.52,0-1,0-1.44s-.17-1.15-.22-1.72-.06-1.41-.12-2.11c-.08-.89-.22-1.77-.28-2.66a2,2,0,0,0-.41-1c-.68-.91-1.37-1.82-2-2.74l-.35-.49A23.42,23.42,0,0,1,80.92,64.06ZM50.83,16.14a2.24,2.24,0,0,1-.33.3c-.26.16-.27.37-.23.66.26,1.89.5,3.79.74,5.69.19,1.55.35,3.1.53,4.64s.38,3,.56,4.46c.1.81.18,1.61.29,2.42a4,4,0,0,0,.24.62c.14.42.27.85.42,1.27,0,.09.09.24.14.24.33,0,.27.29.32.48s.05.27.07.4A15.3,15.3,0,0,0,53.49,35a20.65,20.65,0,0,0-1.32-5.18A3.88,3.88,0,0,1,52,29h.08c.11.31.22.63.34.94a1.13,1.13,0,0,0,.21.39c0,.05.17,0,.26,0a.5.5,0,0,0,0-.21c-.28-.64-.57-1.27-.83-1.91a2.78,2.78,0,0,1-.19-.74c-.13-1.27-.24-2.53-.36-3.8-.18-1.76-.38-3.53-.55-5.3C50.92,17.63,50.89,16.9,50.83,16.14Zm28.6,68.3.08,0-.14-3.52c-.41.46-.74.87-1.1,1.24a.94.94,0,0,0-.2.9l.84-.8a2.9,2.9,0,0,1-.57.68c-.41.32-.38.76-.39,1.26A1.17,1.17,0,0,1,79.43,84.44ZM56.49,69.27h.08c0-.1,0-.2,0-.3,0-.68,0-1.37-.07-2a4.08,4.08,0,0,0-.2-.82,3.76,3.76,0,0,0-.2-.46l-.69-1.45a.35.35,0,0,0-.07.24c0,.68,0,1.35,0,2a2.16,2.16,0,0,0,.27,1.14C56,68.13,56.21,68.71,56.49,69.27Zm49.29-2.82.11-.12c.38-.46.77-.91,1.14-1.38a.4.4,0,0,0,.07-.24l0-1.58c0-.14,0-.28,0-.49l-.26.22-1,1.23c0,.06-.12.13-.12.19,0,.39,0,.78.06,1.16l.1,0c.14-.24.26-.48.41-.71s.31-.41.47-.62l.12.09c-.24.32-.46.64-.71,1A1.21,1.21,0,0,0,105.78,66.45Zm-49.4-.62h.11a24.19,24.19,0,0,0-.38-3A23.26,23.26,0,0,0,55,60.08l-.12.05.19.55a1.46,1.46,0,0,1,.05.2l.18,2.37a1.63,1.63,0,0,0,.11.55C55.72,64.48,56.06,65.16,56.38,65.83ZM54.8,49.07l.12,0a1.7,1.7,0,0,0,0-.39c-.13-.57-.25-1.14-.41-1.7s-.42-1.38-.62-2.07c0-.1-.08-.23,0-.29.18-.24.08-.47,0-.7-.18-.61-.37-1.22-.55-1.83,0-.06,0-.12-.08-.19a8.14,8.14,0,0,0,.1,1.22c.09.56.21,1.12.31,1.67a5.9,5.9,0,0,1,.06.59,4.91,4.91,0,0,0,.07,1c.26.83.58,1.64.88,2.46A1.49,1.49,0,0,0,54.8,49.07Zm-.59,1.17h0c0,.25,0,.5.07.74.06.61.13,1.22.19,1.82a14.14,14.14,0,0,0,.18,2,16.13,16.13,0,0,0,.79,2.1,4.37,4.37,0,0,0,.35.68c.05.08.15.12.23.18a.55.55,0,0,0,0-.33,5,5,0,0,0-.27-.85,21.09,21.09,0,0,0-.84-2.3,1.73,1.73,0,0,1-.22-.52c-.07-.26-.11-.53-.16-.8h.08l.22.72a4,4,0,0,0-.13-.69c-.09-.4-.28-.8,0-1.21,0,0,0-.09,0-.14Zm-1.53-14a14.27,14.27,0,0,0,1.2,5.89c0-.45-.05-.89-.1-1.33-.17-1.48-.81-2.84-.93-4.33C52.85,36.4,52.76,36.33,52.68,36.23ZM80.1,61.37h0c-.14-.35-.29-.69-.42-1a.22.22,0,0,1,0-.21.24.24,0,0,1,.22,0,1,1,0,0,1,.25.21c.22.22.43.45.68.73l-.09-1.44-2.4-.27Zm25.29-.65c.47-.62.92-1.21,1.36-1.81a1.6,1.6,0,0,0,.16-.45l-.11-.07-1.24,1.26c.38-.5.81-.95,1.22-1.41a1.92,1.92,0,0,0,.24-.44l-.2,0-1.55,1.43a.4.4,0,0,0-.12.29C105.21,59.93,105.3,60.3,105.39,60.72ZM55.49,85a1.65,1.65,0,0,0,0,.17,4,4,0,0,0,.32,2.11,2.55,2.55,0,0,1,.18.53c.14.44.26.53.72.58v-1a.76.76,0,0,0-.09-.18c-.12-.19-.27-.36-.37-.56C56,86.14,55.75,85.61,55.49,85ZM84.17,81.5a6.3,6.3,0,0,0-.08.77c0,1.32-.09,2.63-.13,4a5.07,5.07,0,0,0,0,.68.74.74,0,0,0,.08.24A18.14,18.14,0,0,0,84.17,81.5ZM56,61.92l0,0c0-.13-.07-.25-.1-.37-.3-1.28-.6-2.57-.89-3.85-.1-.39-.16-.8-.24-1.19h-.09v.15l.18,2.72a.71.71,0,0,0,0,.21C55.31,60.35,55.67,61.13,56,61.92Zm23.2,16.66a5.4,5.4,0,0,1-.63.68c-.6.47-.49,1.1-.47,1.78l1.12-1.3a.29.29,0,0,0,0-.14C79.27,79.29,79.25,79,79.23,78.58Zm-1.09.74c.31-.27.65-.57,1-.88a.24.24,0,0,0,.07-.18c0-.27,0-.55,0-.82C78.6,78,77.87,78.45,78.14,79.32Zm.91-3.22c-.54.52-1.2.92-.88,1.77l.87-.79a.31.31,0,0,0,.07-.21C79.1,76.64,79.07,76.4,79.05,76.1ZM54,48a7.06,7.06,0,0,0,1,3A8.28,8.28,0,0,0,54,48ZM78.86,73.61a1.57,1.57,0,0,0-.69,1.83c.22-.27.45-.56.66-.85a.44.44,0,0,0,.09-.24C78.91,74.11,78.89,73.88,78.86,73.61Zm-.78-3.3c.77-.35.61-1,.55-1.64A1.26,1.26,0,0,0,78.08,70.31Zm.84,4.57c-.4.52-1,.86-.75,1.62a4.81,4.81,0,0,1,.47-.44C79.08,75.76,79.06,75.37,78.92,74.88Zm.37,5.21c-.36.42-.67.81-1,1.17a1,1,0,0,0-.2.81c.36-.41.66-.82,1-1.16A.75.75,0,0,0,79.29,80.09ZM78,69a1.2,1.2,0,0,0,.56-1.52C78,67.81,77.88,68.1,78,69Zm.12,3.88a1.16,1.16,0,0,0,.57-1.52A1.23,1.23,0,0,0,78.14,72.88ZM58.69,57.8a.55.55,0,0,0-.72.07,8.81,8.81,0,0,1-1,.83.34.34,0,0,0-.15.44Zm19.4,13.58c.42-.37.83-.72.55-1.34C78,70.3,78,70.79,78.09,71.38ZM78,67.47c.61-.42.78-.81.56-1.32A1.07,1.07,0,0,0,78,67.47ZM78.15,74c.74-.77.77-.83.62-1.27C78.13,73.19,78.07,73.32,78.15,74ZM76.8,63.37A1.9,1.9,0,0,0,75,62.45Zm2.5,7.71V72.8A2,2,0,0,0,79.3,71.08Zm-.78-7.75a7.35,7.35,0,0,0-.62.42c-.05,0,0,.2,0,.28s.17.11.19.09a7.45,7.45,0,0,0,.52-.6S78.56,63.41,78.52,63.33Zm.71,5.44v1.57C79.57,70.19,79.53,69.22,79.23,68.77ZM76.34,13.92l-.14,0,.55,2.84h0Zm3.12,59c-.36.4-.13.78-.17,1.16C79.53,74,79.58,73.56,79.46,72.89ZM51.78,15.12A1.54,1.54,0,0,0,53.14,15Zm26.8,50.4c-.72.49-.75.5-.57.81C78.16,66.05,78.54,66,78.58,65.52Zm-.72-.37.09,0,.4-.46L78,64.62ZM79.39,68l-.08-1.08A1,1,0,0,0,79.39,68ZM55.29,52.31l.08,0-.08-.79-.26.11ZM77.38,63.47c.1-.45,0-.52-.44-.51ZM53.65,14.93l0,.11,1.13-.17v-.08Zm2,73.05-.24-.72C55.22,87.68,55.25,87.77,55.63,88ZM79.49,74.22c-.26.34-.07.68,0,1ZM52,16.38l.06,0,.34-.51L52,16ZM83.56,64.66l.08-1.33h-.08ZM51.3,17h.06V16H51.3Z"/><path class="cls-1" d="M53.11,34.78l-.79-3.61h-.08c0,.39.1.78.11,1.18A4.16,4.16,0,0,0,53.11,34.78Z"/><path class="cls-1" d="M78.54,83.85l0,.06.71-.7,0,0Z"/><path d="M59,15.62c-.84,1.16-1.92,2.12-2.66,3.35A10.49,10.49,0,0,1,59,15.62Z"/><path d="M56.13,21.24l-1.92,1.82a6.17,6.17,0,0,1,1.86-1.88Z"/><path d="M79.29,48l-.92,1.07L78.29,49l.95-1Z"/><path d="M81.41,85.88v3.69h0V85.88Z"/><path d="M83.38,73.47V71.79h0v1.68Z"/><path d="M57,63.45a1.83,1.83,0,0,1,1.5-1.35Z"/><path d="M53.11,34.78a4.16,4.16,0,0,1-.76-2.42c0-.4-.07-.79-.11-1.18h.08Z"/><path d="M78.54,83.85l.71-.69,0,0-.71.7Z"/></svg>