<svg id="Layer_1" data-name="Layer 1" xmlns="http://www.w3.org/2000/svg" viewBox="0 0 160 112" width="160mm" height="112mm" ><defs><style>.cls-1{fill:#fff;}</style></defs><title>sketch</title><path d="M103.09,63.47c-2.52.8-5,1.63-7.58,2.39S90.58,67.29,88.1,68c-.26.07-.39.27-.59.39a8,8,0,0,0-2.4,2.53,1.81,1.81,0,0,0-.15.43l.08,0c.41-.44.81-.89,1.24-1.31s1-1,1.52-1.42a1.43,1.43,0,0,1,.43-.25c.32-.14.51,0,.47.34-.09.83-.23,1.65-.3,2.48a57.49,57.49,0,0,0-.62,7.17c0,.43,0,.5.23.58a2.88,2.88,0,0,0,.11.57,14.1,14.1,0,0,1,1,3.36,7.22,7.22,0,0,1,.08.8c0,1.39.08,2.78.14,4.16,0,.33.1.65.13,1a2.18,2.18,0,0,1,0,.57c-.06.46-.33.56-.71.26a2.72,2.72,0,0,1-.07.33.67.67,0,0,1-.65.45,6.09,6.09,0,0,0-.74,0,.94.94,0,0,1-1-1c0-.57,0-1.15.08-1.72a10.23,10.23,0,0,0-.79-5.24c-.23-.49-.45-1-.67-1.49a.67.67,0,0,1,.18-.91c.48-.48,1-1,1.43-1.47a.33.33,0,0,0,.08-.18,13.38,13.38,0,0,0-.05-1.66c-.13.16-.28.32-.4.49-.41.59-.82,1.17-1.21,1.77a1.74,1.74,0,0,0-.21.55c-.65,2.55-1.23,5.11-2,7.64a9.85,9.85,0,0,0-.26,2.57c0,2,0,4.06,0,6.08a15.44,15.44,0,0,0,1,4.7.8.8,0,0,1-.12.91c.38.13.47.45.54.79a.63.63,0,0,1-.33.76,3.31,3.31,0,0,1-3.09.13,1.11,1.11,0,0,1-.45-.54,1.39,1.39,0,0,1-.07-.61,25.62,25.62,0,0,0-.56-6.3c-.31-1.55-.5-3.13-.77-4.7-.1-.6-.28-1.19-.37-1.8a12.28,12.28,0,0,1-.15-1.81c0-1.37,0-2.74.14-4.1.08-.92.4-1.83.51-2.75a13.34,13.34,0,0,0,0-2.28c-.06-1.38-.18-2.75-.25-4.13a5.22,5.22,0,0,0-.73-2c-.26-.54-.54-1.07-.8-1.6a.75.75,0,0,1,0-.26c.08,0,.18.09.22.16l.84,1.57a.55.55,0,0,0,.21.22c-.11-.5-.21-1-.32-1.52-.2-.94-.21-.93-1.09-1.3A83.23,83.23,0,0,0,66.06,66c-.94-.24-1.88-.51-2.82-.75a.69.69,0,0,0-.3.07,1,1,0,0,1-.27.1,1,1,0,0,0-.71.43,6.36,6.36,0,0,0-1.38,3.76c0,1.48.05,3,.1,4.43a1.4,1.4,0,0,0,.18.58A4,4,0,0,0,61,73c.05.09.08.12.08.14a60,60,0,0,0,1.48,7c0,.05,0,.12,0,.14.4.23.29.64.33,1a47.24,47.24,0,0,1,.28,6.83A7.29,7.29,0,0,1,62.74,90c-.36,1.13-.73,2.25-1.15,3.35a2.59,2.59,0,0,1-.68.77,2.05,2.05,0,0,1-1.72.71,1.15,1.15,0,0,1-1-1.06,2,2,0,0,1,.07-.65c.15-.5.33-1,.49-1.5a.28.28,0,0,1,.32-.23c.28,0,.57,0,.92,0l-.26.78c-.13.39-.26.77-.37,1.17a1.68,1.68,0,0,0,0,.39c.17,0,.38,0,.5-.08.41-.3.79-.64,1.18-1l.22-.2a.85.85,0,0,0,.38-.75,5.92,5.92,0,0,1,.28-1.27c.08-.41.12-.82.18-1.24a.91.91,0,0,1,0-.23,8.26,8.26,0,0,0,.38-3,14.06,14.06,0,0,0-.5-5c-.22-.69-.56-1.33-.82-2-.17-.43-.29-.88-.43-1.32a29.3,29.3,0,0,1-1.05-6.16,33.6,33.6,0,0,1,.15-3.74,1.89,1.89,0,0,0,0-.53c-.22-.92-.45-1.85-.67-2.77a1.54,1.54,0,0,1,0-.3l.09,0,.19.41.18-.47.36.79h.06a2.4,2.4,0,0,0,0-.6c0-.1-.19-.16-.28-.25a1.3,1.3,0,0,1-.15-.23c.08,0,.18-.07.25,0,2.22.8,4.56,1.17,6.85,1.75,1.58.41,3.16.83,4.73,1.3a19.45,19.45,0,0,1,1.88.82A30.12,30.12,0,0,0,77.87,69a1,1,0,0,1,.65.54c.31.53.64,1.05,1,1.58a1.5,1.5,0,0,1,.17.46,55.24,55.24,0,0,1,.71,9.61,22.1,22.1,0,0,1-.08,2.44,4.26,4.26,0,0,1-.1.49h-.08L80,83.79h-.07a13.85,13.85,0,0,0-.36,2.28c0,1.41.13,2.82.27,4.23a18.47,18.47,0,0,0,.45,2,2.34,2.34,0,0,1,0,.39l-.18-.06c0,.13,0,.26.05.39l1,5.68c.07.4.12.77-.33,1,0,0-.06.12-.05.18.07.74.14,1.48.24,2.21a.37.37,0,0,0,.21.26,2.26,2.26,0,0,0,1.73-.14.28.28,0,0,0,.13-.2,3.08,3.08,0,0,0,0-.43c-.32-.06-.45-.31-.56-.61a17.34,17.34,0,0,1-1-6.31c.08-2.11.06-4.23.17-6.34.07-1.3.3-2.59.47-3.89a.66.66,0,0,1,.13-.36,7.06,7.06,0,0,0,1.2-3c.22-1.1.39-2.21.51-3.32a26.09,26.09,0,0,0,.11-2.65c0-1.42,0-2.84,0-4.26a20,20,0,0,0,0-3.37l2.07-.19v0l-.51.18v.09l.28,0c1.79-.5,3.57-1,5.36-1.5,2.2-.61,4.41-1.2,6.62-1.82.73-.2,1.45-.45,2.17-.69a4.23,4.23,0,0,0,.53-.23l0-.09a10.13,10.13,0,0,0-1.23.18c-2.53.66-5,1.34-7.57,2a8.27,8.27,0,0,1-1.58.26c.65-.17,1.3-.32,1.94-.5l12.19-3.47c1.76-.49,3.53-.93,5.29-1.42a1.16,1.16,0,0,0,.58-.37,6,6,0,0,0,.63-1c.05-.1,0-.25,0-.37-.19,0-.49,0-.54.09a1.49,1.49,0,0,1-1.12.74c-1.44.37-2.89.71-4.34,1.05-2.47.58-4.87,1.44-7.29,2.2-3.35,1.06-6.73,2-10.09,3-.62.19-1.22.45-1.84.63s-1.52.33-2.25.58a28.11,28.11,0,0,1-4.33.86,2.78,2.78,0,0,1-1.32-.18L69.31,65.1c-.43-.13-.88-.17-1.31-.29-.76-.21-1.52-.42-2.27-.68s-1.66-.65-2.51-.93c-1.26-.42-2.54-.79-3.81-1.17-.12,0-.25-.06-.37-.09s-.54-.27-.74-.21-.33.37-.49.58c-.44.57-.87,1.15-1.34,1.71a1.14,1.14,0,0,0-.27,1.07c0,.14,0,.29.08.49,1.08-.85,1.89-1.93,3-2.66l.08.06a2.17,2.17,0,0,1-.19.33c-.46.64-.94,1.27-1.39,1.93-.31.45-.57.93-.85,1.4l-.16.26-.1,0a2.9,2.9,0,0,1,.12-.42,8.72,8.72,0,0,1,1.26-2,.94.94,0,0,0,.18-.31l-.27.24-1.5,1.4a.44.44,0,0,0-.12.3,63.72,63.72,0,0,0,2.47,11.52c.46,1.35,1.1,2.65,1.66,4l.12.27-.07,0-.46-.74h0c.08.28.16.56.22.84.2.85.43,1.69.58,2.55.09.58.06,1.17.1,1.75s.08,1.31.14,2a1.49,1.49,0,0,0,.12.46.88.88,0,0,1-.51,1.13c0-.81,0-1.63,0-2.44s-.18-1.91-.31-2.86a2.31,2.31,0,0,0-.32-.72A4.59,4.59,0,0,1,59.6,82a3.49,3.49,0,0,0-.66-1.7A15.35,15.35,0,0,1,57,76.58c-.36-1-.87-1.94-1.15-3a35.56,35.56,0,0,1-.79-4c-.33-2.14-.58-4.29-.87-6.44,0,0,0-.12,0-.14-.31-.21-.19-.53-.19-.81,0-1.23,0-2.46,0-3.69a34.57,34.57,0,0,0-.24-4.77,44,44,0,0,1-.44-4.73,23.26,23.26,0,0,0-1.61-7.3c-.31-.85-.67-1.69-1-2.54l-.18-.47.08,0,1.07,2.1h0c-.11-.43-.21-.86-.35-1.29q-1.14-3.74-2.32-7.47a18.79,18.79,0,0,1-.7-3.23c-.15-1.25-.4-2.49-.5-3.74s0-2.3-.07-3.45a11.15,11.15,0,0,1,.61-3.71c.06-.21.14-.37.39-.32a6.93,6.93,0,0,1,1.79-3.09A14.59,14.59,0,0,1,55,11.15,13.56,13.56,0,0,1,58.93,9.8c1.5-.26,3-.57,4.51-.73A33.39,33.39,0,0,1,66.91,9l.27,0a5.49,5.49,0,0,1,2.06.45c.89.43,1.87.65,2.79,1a21.92,21.92,0,0,1,2.42,1.07,3.8,3.8,0,0,1,1.08.92c.69.83,1.35,1.67,2,2.55a10,10,0,0,1,1.79,4.71c.1,1.11,0,2.24,0,3.36V24c0,1.32,0,2.64.06,4a2.17,2.17,0,0,0,.1.62,19.11,19.11,0,0,1,1,6,8.5,8.5,0,0,1-.86,3.64,1.87,1.87,0,0,0-.12.57c0,1.06,0,2.12,0,3.18a.61.61,0,0,0,.11.35,8,8,0,0,1,1.61,5A13.78,13.78,0,0,1,81,49.46a2.74,2.74,0,0,0,0,1.24l.69-.07a7.36,7.36,0,0,0,1.79-.4c1.35-.43,2.72-.79,4.1-1.1a3.52,3.52,0,0,1,1.35.14c.63.1,1.26.23,1.88.36a.49.49,0,0,1,.25.08,4.34,4.34,0,0,0,1.25.54c.54.19,1,.48,1.58.67a6,6,0,0,1,1.91,1.24,1,1,0,0,0,.18.06l.06-.09L93.57,50.3c.16.07.27.11.36.16a12.38,12.38,0,0,1,2.49,1.83.9.9,0,0,0,.42.16,3.18,3.18,0,0,0,1.67-.22,9.59,9.59,0,0,1,4-.7,12.62,12.62,0,0,1,5.25,1.26c.41.2.83.39,1.23.61a7.52,7.52,0,0,1,.69.46l.88.69.07-.07-.22-.6c.31.06.53.29.89,1a5.53,5.53,0,0,1,.48,1.4,7.34,7.34,0,0,1,0,1.41l-.5.14c.06.54.13,1.08.16,1.62a2.82,2.82,0,0,1-.09.76.44.44,0,0,1-.19.28c-.29.09-.25.31-.26.52a2.31,2.31,0,0,1-.12.52A32.53,32.53,0,0,0,109,68.24c-.11.77-.38,1.51-.5,2.27s-.22,1.81-.3,2.71c0,.11.09.23.14.34.06-.1.17-.2.19-.32.13-.91.24-1.83.36-2.74,0-.25.07-.49.12-.74,0-.07.08-.12.12-.19l.1,0c-.08.47-.13.94-.23,1.4a35.94,35.94,0,0,0-.55,7.61,1,1,0,0,0,.36.88.24.24,0,0,1,.09.23c-.09.22.06.3.19.4a10.32,10.32,0,0,1,2.31,2.26,5.87,5.87,0,0,1,1.09,3.38c0,1.86,0,3.73,0,5.59a.71.71,0,0,0,0,.29,2,2,0,0,1-.23,2,1.38,1.38,0,0,1-1,.52,6.48,6.48,0,0,1-1.39-.06,1.37,1.37,0,0,1-.79-1,1.43,1.43,0,0,1,0-.62,9.45,9.45,0,0,0,.21-2c.1-.77.23-1.54.3-2.32a1.66,1.66,0,0,0-.15-.94c-.38-.7-.83-1.37-1.28-2-.26-.4-.56-.78-.87-1.21a4.27,4.27,0,0,1,1.65,1.51c.43.59.8,1.23,1.2,1.84.13-.79-.95-2.62-2-3.42v.28l-1.1-.51c-.07,0-.15-.09-.22-.07-.52.1-.71-.3-1-.6A12.7,12.7,0,0,1,103,76.46c-.22-1.26-.36-2.53-.54-3.8,0-.13-.06-.26.15-.34s.13-.28.15-.43a7.69,7.69,0,0,0,.07-1.07c0-1-.14-1.94-.15-2.91,0-.8.07-1.6.12-2.4,0-.32.06-.64.11-1s.14-.72.22-1.09c.52,0,.51,0,.45.53s-.09.93-.13,1.39l.13,0c.1-.32.19-.65.31-1s.31-.7.46-1l.11.05-.31.91,1.67-1.73-.74.22c-.21.06-.4.12-.34.47l-.44-.08c-.08,0-.17-.08-.24-.06ZM79,33h0c0-.46,0-.92,0-1.36s-.25-.88-.31-1.33a10,10,0,0,0-.79-2.67,4.62,4.62,0,0,0-.42-.75c-.24-.35-.19-.57.19-.75a.87.87,0,0,0,.25-.75l-.36-.52a3.48,3.48,0,0,1-.67.53,1.82,1.82,0,0,0-.93,1.09c-.05.12-.06.28-.14.36a.65.65,0,0,1-.44.21c-.11,0-.23-.21-.28-.35a.81.81,0,0,1,0-.41.88.88,0,0,1,.67-.73,5.42,5.42,0,0,0,1.12-.36c.13,0,.22-.19.31-.31s.18-.3.27-.45.32-.45.45-.69a6.49,6.49,0,0,0,.59-4.06,22.52,22.52,0,0,0-1.18-4l-.08-.16c-.17-.34-.36-.38-.67-.16L76,14.69l0,0,.53,1.07-.07,0c-.09-.15-.17-.31-.27-.45-.55-.72-1.09-1.44-1.66-2.13a5.46,5.46,0,0,0-1.17-1.18,11.7,11.7,0,0,0-3.55-1.63c-.31-.08-.62-.21-.94-.26a7.34,7.34,0,0,1-2.27-.41.46.46,0,0,0-.2,0c-1,0-2-.07-3-.06A6.62,6.62,0,0,0,62,9.83a14.91,14.91,0,0,0-3.33,1.32,2.33,2.33,0,0,1-.68.21,6,6,0,0,0-2,.67,9.72,9.72,0,0,0-2.29,1.57,21.34,21.34,0,0,0-1.87,2.05,8.5,8.5,0,0,0-1.49,5.27,19.4,19.4,0,0,1,.08,2.29,18.15,18.15,0,0,0,.86,4.67,3,3,0,0,0,2.11,2.29l.28.1a.76.76,0,0,1,.16.13A2.8,2.8,0,0,1,51.23,29l.6,3.54h.08l.08-.6a42.71,42.71,0,0,0,1.38,7.55h.08l-.24-1.22.09,0,.75,2.09c.16.45.26.92.46,1.35.36.78.77,1.54,1.16,2.31.13.26.26.53.4.84l-.27,0,.31,2.06.12,0c0,.35,0,.69,0,1,.09,1.11.21,2.23.31,3.34a2.26,2.26,0,0,1,0,.44l-.27-.12c.17.68.32,1.3.49,1.92A11.77,11.77,0,0,0,58,56.27a.38.38,0,0,0,.39.19A1,1,0,0,0,59,56.2c.74-.45,1.5-.85,2.21-1.34a3.28,3.28,0,0,1,1.31-.74,1.87,1.87,0,0,0,.22-.07.79.79,0,0,0,.69-.88c0-.51.06-1,.06-1.52a8.74,8.74,0,0,0-1.75-5.28,8.15,8.15,0,0,0-1.07-1l-.22.54-.69-.79a.47.47,0,0,1,0-.64,6.47,6.47,0,0,0,1.15-1.94c0-.08.12-.13.19-.2l-.16,1.08.1,0c0-.07.15-.15.13-.2-.07-.28.16-.39.27-.56.23-.37.49-.73.7-1.11a1.63,1.63,0,0,0,.22-.64,7.47,7.47,0,0,0-.83-4.77c-.26-.43-.57-.82-.85-1.22l-.08.05.49.95c-.51-.34-1-.7-1.42-1.06l0-.05a5.68,5.68,0,0,0-1.43-1.42L57.71,33c.09-.08.17-.11.21-.08a6.27,6.27,0,0,1,2,1.23,1.66,1.66,0,0,0,.43.3,3.79,3.79,0,0,1,.72.49,7.24,7.24,0,0,1,1.83,4.37,4.54,4.54,0,0,1-.41,2.52A4.26,4.26,0,0,1,61,43.74c-.06,0-.06.15-.11.29l.18-.08A3.84,3.84,0,0,0,63,41.81a5.67,5.67,0,0,0,.47-4.19c-.27-.94-.67-1.84-1-2.76,0-.1-.08-.2-.12-.3a.19.19,0,0,1,.16.08,8.67,8.67,0,0,1,1.49,4.07,4.56,4.56,0,0,1-.45,2.64c-.38.77-.64,1.67-1.52,2.11-.18.09-.3.29-.48.39a1.48,1.48,0,0,0-.74,1.1c0,.19,0,.28.15.38a4.19,4.19,0,0,1,1.52,1.25c.17.29.36.55.52.84A10,10,0,0,1,64.19,51c.11.92.1,1.85.15,2.8l2.79.13a.87.87,0,0,1,0,.13l-.06.22c.46.32.46.32.88,0l.15-.09c1-.49,1.94-1,2.93-1.45a.64.64,0,0,0,.42-.55,11,11,0,0,0,0-1.81,13,13,0,0,0-1.57-4.93,3.43,3.43,0,0,0-1.08-1.28,6.89,6.89,0,0,1-.65-.54l0-.08,1,.41a1.51,1.51,0,0,1,.87.62c.18.31.42.6.6.92s.33.62.5.93a9.1,9.1,0,0,0-1.57-2.08A18.53,18.53,0,0,1,71.8,49.1l.08,0,.12-.29a10.15,10.15,0,0,1,.28,3.41l1.16-.33a4.67,4.67,0,0,1,2-.16.86.86,0,0,0,.78-.11c.13,0,.21.09.28.08.46,0,.93-.07,1.4-.13a.75.75,0,0,0,.32-.13,3.53,3.53,0,0,0,1.33-1.56,6.58,6.58,0,0,0,.27-5.42,5,5,0,0,0-.49-.8l-.1,0A5,5,0,0,1,80,46a6.06,6.06,0,0,1-.2,2.39,1.77,1.77,0,0,1,0-.32c0-.57,0-1.13,0-1.7a4.22,4.22,0,0,0-.48-2,11.56,11.56,0,0,0-1.13-1.57c-.31-.38-.58-.86-1.18-.91.57-.27.8.28,1.18.47a.62.62,0,0,1-.12-.83,1.15,1.15,0,0,0,.08-.49c0-.51,0-1,0-1.52a1.12,1.12,0,0,1,.2-.69c.51-.76,1-1.53,1.49-2.3.05-.07,0-.19,0-.29a.84.84,0,0,0-.24.16c-.43.59-.85,1.2-1.28,1.8l-.25.34c-.22-.23-.16-.41,0-.63a7.57,7.57,0,0,0,.66-1.18,8.08,8.08,0,0,0,.37-3.52C79.08,33.11,79,33,79,33Zm-1.7,25.22L78.9,58a19.77,19.77,0,0,1,3.77-.17.55.55,0,0,0,.35-.15l1.25-1.1a.56.56,0,0,0,.15-.27c0-.29,0-.59.06-.89a.24.24,0,0,0,0-.18c-.2-.3-.43-.59-.63-.9a2.07,2.07,0,0,0-1.11-.91c-.54-.18-1.09-.34-1.65-.47a4,4,0,0,1-1.36-.48A2.89,2.89,0,0,0,78.56,52a10.62,10.62,0,0,0-3.6.1,9.52,9.52,0,0,0-2,.75,6.21,6.21,0,0,0-2,1.3,2.82,2.82,0,0,0-.27.45.38.38,0,0,1-.18.15,1.69,1.69,0,0,1-1.11-.08.39.39,0,0,0-.27,0,6.44,6.44,0,0,0-.65.3c.09.11.2.18.23.27s.22.19.39.19a7.26,7.26,0,0,1,1.14.06,3.78,3.78,0,0,1,.71.25,2.14,2.14,0,0,0,.12-.28,1.47,1.47,0,0,1,.79-1c.84-.42,1.7-.8,2.55-1.2,0,0,.08,0,.2,0l-.32.17-2.16,1.07A2.16,2.16,0,0,0,71,55.75l1,.66,0,.07c-.36,0-.73-.07-1.09-.12-.61-.09-1.23-.16-1.84-.29s-1.25-.33-1.88-.44a12.69,12.69,0,0,0-2-.2c-.79,0-1.58.12-2.37.17a4.54,4.54,0,0,0-2,.48c-.41.24-.83.46-1.25.68l-.73.38,0-.37-.4.09v.32l-.46-.08a2.36,2.36,0,0,0-.21,2.43l-.06-.31c.09.06.18.08.18.11,0,.38.33.57.51.84l1.1,1.59a.56.56,0,0,0,.69.23l.06-.35,1.74.51a5.85,5.85,0,0,1,1.4.56,4.6,4.6,0,0,0,1.2.41c.45.1.92.07,1.36.18a24.07,24.07,0,0,1,2.5.77,2,2,0,0,0,1.39-.14l-1.46-.64a1,1,0,0,1,1,0,8.19,8.19,0,0,0,1.11.42c.32.12.66.22,1,.33v.08l-.34.09.65.62c.11.1.2.27.32.3l5.57,1.53a1.15,1.15,0,0,0,.32,0,2.94,2.94,0,0,1,.58-.1c.8,0,1.6.12,2.4.15a1.42,1.42,0,0,0,.55-.15c.17-.07.33-.18.5-.27.83-.44,1.8-.49,2.63-1a1.44,1.44,0,0,0,.83-1.11,9.06,9.06,0,0,0,0-1.16,1.87,1.87,0,0,0,0-.32A2.62,2.62,0,0,1,85.5,65a.74.74,0,0,0,.16-.11,3.4,3.4,0,0,0,.92-4.15c-.2-.47-.66-.64-1-1a2.36,2.36,0,0,0-1.31-.57,2.62,2.62,0,0,1-.48-.13,7.41,7.41,0,0,0-.86-.31,16,16,0,0,0-4-.25,6.77,6.77,0,0,0-1.11.19.87.87,0,0,0-.24.15,19,19,0,0,1,4.34.14c-.21,0-.42,0-.62,0-1.34,0-2.68,0-4,.07a6.4,6.4,0,0,0-3.48.74c-.08.06-.22,0-.34,0a1.22,1.22,0,0,1,.14-.35c.32-.33.67-.64,1-1a.85.85,0,0,1,0-.93c.06-.08.23-.07.38-.11-.14.79.18,1,1,.75L75,57.39c.59,0,1.11.08,1.63.14S77.19,57.7,77.25,58.17Zm18.53-.62c.18.2.35.37.5.55s0,.12,0,.19a.6.6,0,0,1-.19,0,.45.45,0,0,1-.16-.12A17.57,17.57,0,0,0,92.65,56a2.09,2.09,0,0,0-.44-.16,8.13,8.13,0,0,0-2.36-.13,9.31,9.31,0,0,0-4.57,1.28c-.58.33-1.13.71-1.76,1.1.45.07.82.12,1.19.2a2.49,2.49,0,0,1,1.81,1.53A6.17,6.17,0,0,1,87,61.14,8.28,8.28,0,0,1,87.16,63a5.69,5.69,0,0,1-.37,1.3,4,4,0,0,0,.82.34,2,2,0,0,0,1,0c1.29-.4,2.57-.82,3.84-1.29A12,12,0,0,0,96,61.45a.61.61,0,0,0,.22-.33,4.8,4.8,0,0,0-.13-2,1.37,1.37,0,0,1,0-.28.32.32,0,0,1,.13.13,4.24,4.24,0,0,1,.33,2.33.39.39,0,0,1-.17.25c-.44.31-.88.62-1.34.9s-.88.45-1.33.68c.89-.24,1.77-.54,2.63-.84a.4.4,0,0,0,.22-.18c.11-.19.19-.4.29-.6a2.34,2.34,0,0,0,.25-.56A4.14,4.14,0,0,0,96.85,59c-.08-.21-.15-.43-.22-.65l.07,0a2.85,2.85,0,0,1,.61,1.23c.07.46.11.92.16,1.4a2,2,0,0,0,.07-2.25c-.34-.53-.74-1-1.12-1.5-.19-.24-.4-.46-.6-.69a.34.34,0,0,1,.24.06,5.41,5.41,0,0,1,1.87,2,2.22,2.22,0,0,1-.4,2.9c-.25.24-.53.46-.86.74.66-.23,1.24-.42,1.81-.63.81-.29,1.62-.59,2.43-.91.45-.17.88-.42,1.33-.58a38.12,38.12,0,0,0,6.52-2.58l.15,0,0,.1a16.26,16.26,0,0,1-1.79,1c-1.6.6-3.22,1.13-4.83,1.69l-1,.36a1.38,1.38,0,0,0,.5-.07c1-.29,2-.61,3.06-.87.87-.22,1.75-.37,2.62-.56a5,5,0,0,0,1.28-.36,3.72,3.72,0,0,0,1.85-2.48,1.08,1.08,0,0,0-.41-1.31c-.44-.3-.83-.67-1.25-1a4.62,4.62,0,0,0-3.14-1,5.53,5.53,0,0,1-1.9-.21.25.25,0,0,0-.12,0c-.78,0-1.57,0-2.35,0-.06,0-.11.08-.17.12a1.84,1.84,0,0,1-.46.27,4.76,4.76,0,0,1-.65.06,6.15,6.15,0,0,0-2.78.48l-.11,0a24.73,24.73,0,0,1-3.09,1.43c-.06,0-.11.07-.21.12l.27.17c.37.29.76.54,1.1.86a4.19,4.19,0,0,1,.6.83A.31.31,0,0,1,95.78,57.55ZM106,80.83l.11.15a4.55,4.55,0,0,0,.55.94,22.05,22.05,0,0,0,1.65,1.55,6.46,6.46,0,0,1,2.21,3.11,3.81,3.81,0,0,1,.22,2.62.48.48,0,0,0,0,.12c0,1,0,2,0,3a4.68,4.68,0,0,1-.11.69,3.66,3.66,0,0,0,.47,0,.58.58,0,0,0,.5-.49c0-.11,0-.25,0-.37a36.69,36.69,0,0,0,.16-6.71,4.79,4.79,0,0,0-1.3-3.16c-.49-.51-1-1-1.58-1.45s-.86-.7-1.25-1.1a1.12,1.12,0,0,1-.33-.7c0-1.72,0-3.46.16-5.17.21-2,.63-3.93,1-5.9.09-.53.22-1,.34-1.65A29.86,29.86,0,0,1,105,68.77a.28.28,0,0,1,.09-.14l3.47-2.48a.76.76,0,0,0,.25-.36c.2-.71.37-1.42.55-2.13l.21-.76-.07,0A12.56,12.56,0,0,0,108,64c-1.13,1.13-2.21,2.31-3.3,3.48a.67.67,0,0,0-.17.36c-.07,1.1-.13,2.2-.19,3.3a1.52,1.52,0,0,0,0,.21l4-4.16.08.07-3.37,4,0,0,2.21-1.81a10,10,0,0,1-3,2.65,30.75,30.75,0,0,0,.14,3.18c.25,1.65.62,3.28,1,4.9a4.52,4.52,0,0,0,.5,1l.09,0ZM85,54c.42-.14.53-.08.65.3,0,.07.08.16.13.17a9.82,9.82,0,0,0,1.69.3c.68,0,1.37-.16,2.06-.23a6.88,6.88,0,0,1,2.89.09l1.2.43a.48.48,0,0,0,.28,0c.46-.2.91-.42,1.37-.63,0-.32-.23-.46-.52-.31s-.64.36-1,.53a2.32,2.32,0,0,1-.37.13l0-.08,1.2-.71a.41.41,0,0,0,.19-.2,5.36,5.36,0,0,0,.09-.7.66.66,0,0,0-.35-.71c-.6-.35-1.17-.77-1.77-1.14a6.71,6.71,0,0,0-5-1.09c-.54.1-1.08.24-1.62.38-.77.2-1.55.39-2.32.63s-1.48.51-2.15.74A4.27,4.27,0,0,1,85,54ZM50.86,15.79a3.45,3.45,0,0,0-1.23,2.63.58.58,0,0,1-.32.62.26.26,0,0,0-.12.15,9.12,9.12,0,0,0-.26,1.46,29.52,29.52,0,0,0,.82,9.27,5.27,5.27,0,0,1,.09.89h-.09a70.16,70.16,0,0,1-1.43-6.92.46.46,0,0,0-.09.28c0,.39.06.78.11,1.16a38.52,38.52,0,0,0,1.21,6.12c.16.5.42,1,.6,1.46.24.69.46,1.39.68,2.09q1.1,3.35,2.18,6.7c.15.46.23.94.34,1.4-.33,0-.32-.24-.38-.44s-.23-.66-.37-1a.49.49,0,0,0-.64-.26l1.37,4.4,0-.62h.08c.23,1.39.49,2.79.66,4.19s.24,2.79.38,4.18a24.51,24.51,0,0,1,.28,4.53,11.72,11.72,0,0,0-.05,1.19c0,.54,0,1.08,0,1.59.1-.45.21-.92.31-1.4a4.07,4.07,0,0,0,.11-.78c0-1.64,0-3.27.07-4.91a20.93,20.93,0,0,0-.48-4.93c-.18-1-.51-1.94-.65-3-.22-1.65-.58-3.28-.9-4.91-.12-.6-.34-1.18-.46-1.78a21.56,21.56,0,0,0-.76-2.57c-.21-.63-.49-1.23-.7-1.86A38.7,38.7,0,0,1,50,29.58a27.92,27.92,0,0,1-.6-4.9c0-1.56,0-3.13.13-4.7a8.31,8.31,0,0,1,1.16-3.81C50.71,16.07,50.76,16,50.86,15.79Zm35.8,63.12c-.39.42-.73.8-1.09,1.17s-.3.32-.07.7c0,.08.09.15.14.23A13.3,13.3,0,0,1,87,84c.14.49.27,1,.4,1.47A1.88,1.88,0,0,0,88,83.34l-.47.62-.1-.09c.14-.18.3-.37.43-.56S88,83.07,88,83c-.07-.46-.18-.91-.29-1.44l-.79.83-.1-.07A2.24,2.24,0,0,1,87,82c.15-.23.32-.45.47-.69a.38.38,0,0,0,.08-.26c-.11-.32-.24-.63-.37-1L86,81.22l-.08-.08a7.16,7.16,0,0,1,.67-1C87,79.81,87,79.44,86.66,78.91ZM57.56,56.8l-1.63-2V60H56l.1-.32h0l.09.33,1.08-.42A2.78,2.78,0,0,1,57.56,56.8Zm-.31-1.14s0-.06,0-.08a11.71,11.71,0,0,1-1.35-4.42c-.11-1-.05-2-.07-3.08,0-.28,0-.56,0-.83,0-.53-.14-1-.15-1.57a3.66,3.66,0,0,0-.79-2.45c-.08-.08-.1-.2-.18-.27a1.91,1.91,0,0,0-.32-.24c.29,1,.59,1.92,1,2.84a2.52,2.52,0,0,1,.16,1.22,19.27,19.27,0,0,0,0,2c0,.69,0,1.39.08,2.07s.15,1.12.22,1.68a9,9,0,0,0,.13,1.06A5.25,5.25,0,0,0,57.25,55.66Zm47.34,11.27h.07l1.45-1.65a10.52,10.52,0,0,1,3.51-2.88.41.41,0,0,0,.16-.16c.09-.23.17-.46.29-.78a2.41,2.41,0,0,0-.49.15c-.19.12-.34.29-.51.42A40.35,40.35,0,0,0,105,65.41a.43.43,0,0,0-.16.24C104.71,66.07,104.65,66.5,104.59,66.93ZM88,68.87a.58.58,0,0,0-.13.1c-.74.73-1.45,1.49-2.21,2.2A1.54,1.54,0,0,0,85,72.65a5.14,5.14,0,0,1,0,.68.38.38,0,0,0,.19-.12l2.28-2.55a.36.36,0,0,0,.11-.2C87.73,70,87.83,69.44,88,68.87ZM56.11,66.08c-.29.07-.34.2-.3.45.2,1.17.34,2.35.57,3.52q.54,2.65,1.17,5.29a9.92,9.92,0,0,0,.57,1.35l.11,0A63,63,0,0,1,56.11,66.08ZM87.3,72.33l-.19.17-1.93,2.55a.33.33,0,0,0-.08.19c0,.43,0,.86,0,1.36l.16-.18L87,74.1a.48.48,0,0,0,.08-.16C87.12,73.43,87.2,72.92,87.3,72.33Zm-7.63,1.45-.11,0a.9.9,0,0,0-.12.32c0,.81,0,1.61,0,2.41.08,1.5.17,3,.26,4.48,0,.3.09.6.14.9A48.17,48.17,0,0,0,79.67,73.78Zm7.27.78-.19.18-1.58,2.19a.36.36,0,0,0-.07.17c0,.48-.07,1-.11,1.47l.09-.1a8.1,8.1,0,0,1,1.52-2.11.41.41,0,0,0,.12-.2C86.8,75.66,86.86,75.15,86.94,74.56Zm18-9.84,3.13-2.53a2.94,2.94,0,0,0-1.7.59,10.07,10.07,0,0,1-1,.85A1.33,1.33,0,0,0,105,64.72ZM88.28,87.59,88,85.33a3.17,3.17,0,0,1-.43.5.47.47,0,0,0-.17.43c0,.55,0,1.09,0,1.63,0,.25,0,.5-.08.81ZM87.53,71c-.13.12-.21.18-.27.25-.66.77-1.31,1.54-2,2.29-.33.37-.16.76-.15,1.15a2.43,2.43,0,0,0,.24-.32c.56-.74,1.07-1.52,1.7-2.2A2.1,2.1,0,0,0,87.53,71Zm-29.4-9.33,0-.1c-.16,0-.36,0-.47.06-.47.37-.93.77-1.38,1.16a.34.34,0,0,0-.13.22c0,.33,0,.66,0,1.07ZM85,70.52l.08,0A7.64,7.64,0,0,1,87,68.3c-.49.1-1,.21-1.45.34a.32.32,0,0,0-.2.21C85.2,69.4,85.08,70,85,70.52Zm19.59,7.66c-.84-3.31-.64-6.66-.45-10a1,1,0,0,0-.18.49c0,2.36,0,4.71,0,7.06A7.91,7.91,0,0,0,104.55,78.18ZM55,59.8v2.79c.29-.53.15-1.14.34-1.69L55.43,62l.54-.58.2-.22C55.25,60.81,55.28,60.51,55,59.8ZM50.14,24.56c.16,1.86.14,3.76,1,5.5l.07,0ZM88.33,87.93l-.1.07-.85.94c-.09.11,0,.49.07.49.28,0,.57.09.81-.16s.28-.12.47-.2ZM57,61.81c-.57-.37-.57-.37-1,.09-.1.11-.19.23-.29.33a1,1,0,0,0-.23.92c.51-.19.54-.63.55-1.08l.1,0,0,.44ZM87.65,65c-.35-.18-.62-.33-.9-.46a.2.2,0,0,0-.2,0c-.32.31-.63.64-1,1ZM95.08,52.2a6.15,6.15,0,0,0-2.41-1.47c.3.21.59.4.86.62s.5.47.76.7A1,1,0,0,0,95.08,52.2ZM52.25,36a16.13,16.13,0,0,0-.67-3.77A12.85,12.85,0,0,0,52.25,36ZM104,67.8a2.61,2.61,0,0,0,.42-1.86,1.53,1.53,0,0,0-.41.62A8.52,8.52,0,0,0,104,67.8Zm-48.37-3c.56-.55.31-1.14.32-1.71-.17.13-.39.28-.4.45A8.19,8.19,0,0,0,55.58,64.82Zm48.43.87a1.8,1.8,0,0,0,.83-1.41A1.52,1.52,0,0,0,104,65.69ZM79,39.17c-.26.24-.46.43-.43.78s0,.81,0,1.22a2.6,2.6,0,0,0,0,.26h.07Zm32,17.49-.11-.07c-.17.26-.37.51-.52.79,0,.1,0,.26,0,.4.13-.06.31-.08.4-.18A1.25,1.25,0,0,0,111,56.66Zm-55.8,9c.29-.68,0-1.28.06-1.92C55,64,54.94,64.91,55.16,65.68ZM103.58,69a4,4,0,0,0,0,2.29ZM60,66.91h.08c0-.15.14-.33.09-.45-.18-.49-.42-1-.63-1.43l0,0ZM78.37,25.37c-.4,0-.33.26-.39.47s.18.42.39.61Zm25.2,47.43-.11-.06c-.06.09-.19.2-.18.28.06.43.16.86.25,1.29h0ZM55.76,65.93c.33-.18.38-.53.16-1A.89.89,0,0,0,55.76,65.93Zm47.81,1a4,4,0,0,0-.08,1.51A3.83,3.83,0,0,0,103.57,66.94ZM53.78,40.78h0c.12.52.24,1.05.37,1.57,0,.08.16.14.24.21l0-.06ZM95.31,53l-.08,0a.8.8,0,0,0,0,.37c0,.09.18.21.25.2.26-.06.5-.18.79-.28a1.74,1.74,0,0,1-.6,0C95.51,53.29,95.42,53.11,95.31,53ZM55.47,67.5l.12,0c-.05-.34-.09-.69-.15-1,0,0-.09-.08-.14-.11s-.08.11-.08.15c0,.22.06.44.11.65A3,3,0,0,0,55.47,67.5ZM85,56.07l.74-.43L85,55.52ZM58.45,77.41c-.2.24,0,.78.38,1.14Zm-1.88-16,.49.31.39-.31,0-.1Zm23.75-9.9v-.12l-.21-.13-.38.36,0,.09ZM54.94,63.62l.17,0,.08-.64-.13,0Zm48.44,2.69.15,0,.18-.64-.14,0ZM79.11,51.6l0-.06-.3-.25-.34.27Z"/><path d="M57.1,67.2a3.54,3.54,0,0,0,.07.47c.19.85.37,1.71.59,2.55.68,2.66,1.35,5.33,2.08,8,.33,1.17.81,2.3,1.19,3.46.21.62.36,1.27.52,1.92a.68.68,0,0,1,0,.39,2.25,2.25,0,0,1-.12-.21c-.61-1.72-1.32-3.41-1.82-5.16-.73-2.58-1.3-5.2-1.94-7.8-.17-.71-.36-1.42-.5-2.14a9.54,9.54,0,0,1-.13-1.3.45.45,0,0,1,0-.16Z"/><path d="M78.43,68.57a8.49,8.49,0,0,1,.85.72c.67.73,1.31,1.46,2,2.21a1.42,1.42,0,0,1,.13.47,1.36,1.36,0,0,1-.43-.23c-.8-.93-1.58-1.86-2.36-2.8a3.37,3.37,0,0,1-.21-.31Z"/><path d="M47.5,22.86a53.74,53.74,0,0,0,.66,7.64C47.54,29.9,47.16,24,47.5,22.86Z"/><path d="M64.46,8.69c1.59-.69,7.35.43,8.5,1.67l-1.14-.42a16.9,16.9,0,0,0-5.17-1.32c-.58,0-1.17,0-1.75,0Z"/><path d="M79.94,72.28c.09.11.14.19.19.26.23.32.46.64.67,1a1.14,1.14,0,0,1,.07.34,1.38,1.38,0,0,1-1-1.42S79.91,72.38,79.94,72.28Z"/><path d="M89.32,65.81l.61-.17,0,.09-.6.22Z"/><path class="cls-1" d="M58.45,77.41l.38,1.14"/><path d="M60.06,26.17a16.51,16.51,0,0,0,.7-2,8.44,8.44,0,0,0-.26-4.4c-.17-.52-.35-1-.56-1.54a6.44,6.44,0,0,0-1.15-2c-.1-.12-.18-.25-.27-.38l.08-.06a7.35,7.35,0,0,1,.95,1.07,10.88,10.88,0,0,1,1.64,6.56,7.61,7.61,0,0,1-.91,2.76c-.17.33-.35.66-.55,1a.27.27,0,0,0,0,.39c.51.48,1,1,1.5,1.47a.53.53,0,0,1,.18.26,2.78,2.78,0,0,1-1.87-1.81l-.23.28c-.44.56-.45.43.07.93s1.3,1.13,2,1.69l.18.17,0,.09a1.06,1.06,0,0,1-.38-.1c-.53-.42-1.06-.83-1.56-1.28a8.61,8.61,0,0,1-.74-.81L57.23,31a2.46,2.46,0,0,1,.25-2.43c.16-.21.33-.4.49-.6,0,0,0-.05.07-.05.58,0,.63-.56.8-.91a9.2,9.2,0,0,0,.32-7.29,6.35,6.35,0,0,0-1.81-2.64,3.47,3.47,0,0,1-.31-.36l.07-.08a1.36,1.36,0,0,1,.21.1A6.4,6.4,0,0,1,59.87,20a6.94,6.94,0,0,1,.48,2.41,9.16,9.16,0,0,1-.41,3.71Z"/><path d="M72.37,41.74a1.51,1.51,0,0,1-1.3-.45,1.74,1.74,0,0,1-.62-1.3l-.76.91A4.48,4.48,0,0,0,72,42.3c-.53.41-1.57-.08-2.57-1.14-.4.39-1,.63-.88,1.4l.56-.36.06.08a1.92,1.92,0,0,1-.46.36,1.34,1.34,0,0,0-.78.94c0,.15-.11.29-.16.44a1.21,1.21,0,0,1-.56-1.42,7.21,7.21,0,0,1,.56-1.11c.3-.42.68-.77,1-1.17a10.4,10.4,0,0,0,1.58-2.69,4.05,4.05,0,0,0,.23-1.15,7.67,7.67,0,0,0-.14-2.34A7.54,7.54,0,0,0,69.51,32c-.25-.39-.49-.8-.74-1.2l.07-.05c.17.17.35.36.54.52a5.69,5.69,0,0,1,1.83,4.51c0,.42,0,.85,0,1.27,0,.15.11.29.12.44a3.16,3.16,0,0,1-.47,1.93,1.06,1.06,0,0,0,.05,1.27,2,2,0,0,0,1.13.87l.4.13ZM70.75,38.3l-.15.26A9,9,0,0,1,69,40.72c-.34.34-.34.33-.35.9C69.41,40.5,70.46,39.64,70.75,38.3Z"/><path d="M67.1,14.59l1.32,1.34a1.57,1.57,0,0,1,.2.25,6.93,6.93,0,0,1,.95,5.91c-.16.51-.29,1-.42,1.55a1.62,1.62,0,0,0,0,.32,2,2,0,0,0,.54-.95c.12-.33.22-.67.35-1.09a2.83,2.83,0,0,1-.24,1.66c-.21.5-.5,1-.74,1.45a.63.63,0,0,0,0,.38,1.91,1.91,0,0,0,.86,1.13l.57.39c-.65.06-1.34-.59-1.63-1.51a5.19,5.19,0,0,0-.49.43.29.29,0,0,0,0,.27,2.23,2.23,0,0,0,1.21,1.29s0,0,.13.11a1.12,1.12,0,0,1-1-.46c-.22-.31-.39-.65-.58-1a.41.41,0,0,0-.38.51,5,5,0,0,1-.59,2.48,1.52,1.52,0,0,1-.61-1.58c.13-.63.32-1.25.49-1.87a.4.4,0,0,1,.45-.31.39.39,0,0,0,.3-.1,5.15,5.15,0,0,0,1.46-3.11,10.08,10.08,0,0,0-.36-3.86,15,15,0,0,0-1.63-3.4l-.12-.19Z"/><path d="M79,33a18.25,18.25,0,0,1,0,2.34,5.09,5.09,0,0,1-1,2.36.54.54,0,0,0-.09.27,3.38,3.38,0,0,1-.6,1.69,2.86,2.86,0,0,1-.6.49s-.1,0-.11.08c-.14.51-.62.9-.53,1.49a1,1,0,0,1-.13.37c-.22-.17-.41-.3-.59-.45a.25.25,0,0,1-.08-.18c0-.37-.06-.78.21-1.11a.49.49,0,0,0,.08-.25.49.49,0,0,1,.36-.49.46.46,0,0,1,.55.24l.09.07A2.76,2.76,0,0,0,77.55,38l-.33.23-.06,0c.09-.15.18-.31.28-.45a6.22,6.22,0,0,0,1.09-5,11.17,11.17,0,0,0-.92-2.94,7.25,7.25,0,0,0-.47-.75l.07-.07a3.72,3.72,0,0,1,.64.68,10.06,10.06,0,0,1,1,3c0,.09.06.18.09.28Z"/><path d="M70.07,52.09a2.31,2.31,0,0,1,.06-.27A6.07,6.07,0,0,0,69.68,47a12.19,12.19,0,0,0-.7-1.28,11.4,11.4,0,0,0-.76-.93l-.17-.19.07-.1c.25.15.59.23.74.45A9.11,9.11,0,0,1,70.74,49a4,4,0,0,1-.51,2.89l-.06.11A.79.79,0,0,0,70.07,52.09Z"/><path d="M51,21.61c.14.77.26,1.53.42,2.3q.29,1.45.6,2.91A8.31,8.31,0,0,0,53,29.33c.07.12.11.26.17.39l-.09.05c-.14-.18-.29-.36-.42-.55a6.27,6.27,0,0,1-.93-2.58c-.26-1.44-.48-2.9-.71-4.35a5.14,5.14,0,0,1,0-.68Z"/><path d="M57.26,12.51c-.1.2-.15.34-.22.46s-.22.33-.32.5a.8.8,0,0,0,.33,1.2l.39.21a1.1,1.1,0,0,1-1-.31,1.13,1.13,0,0,1-.1-1.08A2.39,2.39,0,0,1,57.26,12.51Z"/><path d="M65.78,12.49c-.22-.27-.56-.46-.57-.89a1.45,1.45,0,0,1,.37-1.14l.09,0a5,5,0,0,0-.11,1,4.72,4.72,0,0,0,.29.95Z"/><path d="M60.83,34.16c-.28-.22-.55-.43-.81-.65,0,0-.05-.09-.07-.14s.12-.07.17-.07c.33,0,.47.25.6.48A1.27,1.27,0,0,1,60.83,34.16Z"/><path d="M59.87,55.19a1.12,1.12,0,0,1-1,.26l0-.11Z"/><path d="M73.24,59.38l-.36.12A2.92,2.92,0,0,0,71,61.09a4,4,0,0,0-.6,2.15.35.35,0,0,1-.09.27l-.06-.22a3.23,3.23,0,0,1,.53-2.58,5.26,5.26,0,0,1,1-1.17,1.55,1.55,0,0,1,1.46-.25Z"/><path d="M71.07,63.48a2.08,2.08,0,0,1,0-1.21,3.14,3.14,0,0,1,1.65-1.85,1,1,0,0,1,.3,0,1.05,1.05,0,0,1-.13.26l-.73.61a2.33,2.33,0,0,0-.9,1.8c0,.14,0,.27,0,.41Z"/><path d="M61.72,61.51A15.34,15.34,0,0,1,59.46,59a2,2,0,0,1-.14-.58l.07,0,2.39,3.06Z"/><path d="M58.27,59.1c-.13,0-.27,0-.23-.23A3,3,0,0,1,59.81,57H60c-.14.14-.23.25-.33.34a11.29,11.29,0,0,0-.92.91A4.68,4.68,0,0,0,58.27,59.1Z"/><path d="M71.15,54.38a3.79,3.79,0,0,1,1.43-1.17,3.24,3.24,0,0,1,.73-.28,11.53,11.53,0,0,0-1,.55c-.4.27-.75.59-1.13.89Z"/><path d="M74.06,56.93c.25,0,.49,0,.73.06.09,0,.15.13.23.2-.11,0-.22.1-.31.07A5.58,5.58,0,0,1,74,57Z"/><path d="M71.14,54.37l-.45.88-.06,0c.17-.28.34-.56.52-.84Z"/><path d="M106.49,58.26a15.69,15.69,0,0,0,2.62-2.53l.08.05a3.36,3.36,0,0,1-.26.54A8,8,0,0,1,106.49,58.26Z"/><path d="M107.33,66.8l-2.44,1.84-.06-.08,2.4-1.88Z"/><path d="M105.78,72.47a.88.88,0,0,1,0-.33c.31-.44.64-.87,1-1.3l.07,0-1,1.59Z"/></svg>
