<svg id="Layer_1" data-name="Layer 1" xmlns="http://www.w3.org/2000/svg" viewBox="0 0 160 112" width="160mm" height="112mm" ><defs><style>.cls-1{fill:#fff;}</style></defs><title>sketch</title><path d="M97.82,47.39a57.83,57.83,0,0,0-6.3-.45v-.13c.13,0,.26-.05.39-.06a29.59,29.59,0,0,1,11.58,1.55,14.44,14.44,0,0,1,3.67,1.87c.11.08.32.18,0,.28l1.5,1.17a1.13,1.13,0,0,1,.24.36,11.53,11.53,0,0,1,.58,2.24,3,3,0,0,1,0,.94c-.11,2.82-.24,5.64-.32,8.45-.06,2.19-.08,4.37,0,6.55s.18,4.49.28,6.73c.06,1.33.13,2.65.21,4s.2,2.75.3,4.13a.31.31,0,0,1,0,.18l-.45-2.64h-.11c0,.1,0,.21,0,.31.26,1.73.52,3.45.77,5.18a7.56,7.56,0,0,1,0,.83c0,.26,0,.51,0,.77A.34.34,0,0,1,110,90a8.64,8.64,0,0,0-.78.57,2.22,2.22,0,0,1-1.77.47c-.13,0-.24-.19-.37-.22-.59-.17-1.18-.32-1.77-.48a1.19,1.19,0,0,1-.25-.13s0,0,0-.07a1.93,1.93,0,0,1-.44-1.91,14.79,14.79,0,0,0,.46-4c0-1.15.07-2.31.11-3.46,0-.55.06-1.11.07-1.66,0-1.14,0-2.28,0-3.42,0-.71-.14-1.42-.16-2.13,0-1.14,0-2.28-.09-3.42a29,29,0,0,0-.92-5.54,3.86,3.86,0,0,1-.12-.57,15,15,0,0,1,.84,2.53c0-.63-.09-1.25-.15-1.88-.11-1.2-.24-2.39-.36-3.59a5.81,5.81,0,0,0-.76-1.88c-.09-.18-.21-.35-.33-.56l-3.58.82,0-.06,2.82-1,0-.11a16,16,0,0,0-1.66.52,40.4,40.4,0,0,1-6.61,2c-2.92.69-5.82,1.43-8.73,2.15a3.29,3.29,0,0,1-.61.12c-.34,0-.46.22-.5.52-.09.75-.21,1.51-.28,2.27-.4,4.34-.55,8.7-.59,13.06a92.22,92.22,0,0,0,.53,10.37c.24,2.35.55,4.69.83,7,0,.2.07.4-.14.54-.05,0,0,.13-.07.19a7.83,7.83,0,0,1-.45.92c-.06.11-.24.17-.37.21a15,15,0,0,0-1.65.49.84.84,0,0,1-.89-.14c-.51-.32-1-.59-1.56-.87A1.17,1.17,0,0,1,79,96.8a5.92,5.92,0,0,1-.1-2q.13-1.45.15-2.91c0-2,0-4,0-6,0-.46-.15-.61-.61-.67a2.88,2.88,0,0,0-.41,0,.92.92,0,0,1-.86-.54,1.94,1.94,0,0,1-.36-1.41c.2-1.26.34-2.53.45-3.81.13-1.52.23-3,.31-4.57a55.81,55.81,0,0,0-.07-6.72c0-.7-.22-1.39-.32-2.08a9.24,9.24,0,0,0-.1-.92c-.12-.54-.28-1.07-.43-1.6,0-.06-.08-.16-.11-.16-.28,0-.32-.19-.44-.34a.63.63,0,0,0-.24-.19l-1.29-.51.2.22c-.27-.06-.47-.09-.66-.15a4.49,4.49,0,0,1-.91-.34,5.33,5.33,0,0,0-2.38-.71,10,10,0,0,1-2.15-.57l-1-.38c-.8-.28-1.59-.58-2.4-.84-.28-.09-.59,0-.87-.13l-4.4-1.27a2.75,2.75,0,0,0-.3-.07c0,.33-.1.65-.12,1-.11,1.91-.28,3.82-.32,5.74-.06,3.35-.09,6.71-.05,10.06,0,3,.17,6,.28,9,0,1.37.14,2.74.21,4.1a.79.79,0,0,1-.86.77c-.11,0-.23.11-.35.13l-2,.3-.5.1A5.74,5.74,0,0,1,54.53,88a1.61,1.61,0,0,1-.36-1.19c0-1,.1-2,.18-3,.33-4.19.35-8.4.42-12.61,0-.42-.22-.85,0-1.27-.14-2.58-.26-5.16-.43-7.73-.11-1.73-.28-3.46-.46-5.19s-.43-3.55-.63-5.33c-.09-.78-.1-1.56-.16-2.34-.09-1.06-.2-2.12-.31-3.17a12.69,12.69,0,0,0-.23-1.64,48.92,48.92,0,0,1-.7-5.4c-.28-2.14-.51-4.3-.75-6.45A13.1,13.1,0,0,1,51,31a42.24,42.24,0,0,0-.44-4.91c-.13-1.31-.3-2.61-.47-3.9,0-.33-.15-.64-.18-1a1.79,1.79,0,0,1,.11-.54,2.74,2.74,0,0,0,.05-.28,9.63,9.63,0,0,1,1.22-4A4.27,4.27,0,0,1,52.88,15a3.75,3.75,0,0,1,1.38-.35,6.61,6.61,0,0,0,.76-.22,1.17,1.17,0,0,1,.25-.07l8.23-.88c.31,0,.61,0,.92,0v.09a3.69,3.69,0,0,1-.45.11c-1.12.15-2.25.29-3.37.42s-2.22.26-3.33.43l13.38-1.06-.06-.16.09,0,1.27.4a.13.13,0,0,0,.12,0c.65-.36,1.3,0,2,0a2.28,2.28,0,0,1,2,1.58,4.74,4.74,0,0,0,.26.5,7.84,7.84,0,0,1,1,3.53c.12,1,.33,2.06.47,3.09.44,3,.9,6.09,1.28,9.14.43,3.45.77,6.91,1.18,10.36.24,2,.54,4,.8,6.07,0,.24.15.27.35.3A10.4,10.4,0,0,0,84.75,48a57,57,0,0,1,6.39-.71,3,3,0,0,0,.46-.14s.07,0,.11,0a8.4,8.4,0,0,0,.85.08c1,0,1.93,0,2.89,0,.66,0,1.31.06,2,.1ZM58.18,59.76c.06-.13.19-.28.16-.38-.12-.37-.3-.73-.46-1.11-.46.34-.88.66-1.31,1s-.36.31-.23.73a7.16,7.16,0,0,1,.69-.77,1,1,0,0,1,.92-.35c-.49.4-.94.79-1.42,1.15-.29.21-.27.46-.2.8l1.09-.58.39-.2-1.44,1.24c-.07.06-.17.14-.17.22,0,.28,0,.56,0,.92A4.17,4.17,0,0,1,58,61a1.12,1.12,0,0,1-.28.36c-.41.37-.8.74-1.22,1.1a.5.5,0,0,0-.18.5c.05.44.1.88.13,1.32.09,1.38.15,2.76.25,4.13.22,2.85.35,5.71.35,8.57a5.29,5.29,0,0,0,.13.78.62.62,0,0,1,0,.27c0,.13-.14.26-.14.38,0,1.33,0,2.66,0,4-.08,2-.22,4-.34,6,0,.37,0,.38.38.28.59-.16,1.19-.29,1.83-.44,0-.05,0-.17,0-.3,0-.58,0-1.15,0-1.73-.07-2.07-.15-4.14-.22-6.21-.13-3.92-.25-7.84-.12-11.76.08-2.72.1-5.44.14-8.15C58.65,59.6,58.56,59.54,58.18,59.76Zm18.34-37.7h-.15a5.35,5.35,0,0,1-.11-.68,21.56,21.56,0,0,0-1-5.16,1.53,1.53,0,0,0-.79-1,4.9,4.9,0,0,1-1.63-1,.21.21,0,0,0-.13,0l-1.14.08a1,1,0,0,0,0,.12,10.64,10.64,0,0,1,1,4.25c.09,1.47.06,3,.07,4.43a2.2,2.2,0,0,1-.12.62.76.76,0,0,1-.2.28s-.14,0-.22,0a.53.53,0,0,1,0-.18,3.7,3.7,0,0,0,.18-.71c0-.66,0-1.31.07-2a17.56,17.56,0,0,0-.2-3.62,10.83,10.83,0,0,0-.85-3A.35.35,0,0,0,71,14.2a4.25,4.25,0,0,1-.8,0,5.85,5.85,0,0,0-3,.24,1.86,1.86,0,0,1-.58.11H64.82a4.67,4.67,0,0,1,1,2.26,20.44,20.44,0,0,1,.2,4.69c0,1,0,2.09,0,3.18-.27,0-.29-.22-.28-.42,0-.73.07-1.47.11-2.2a20.32,20.32,0,0,0-.17-5.34A4.79,4.79,0,0,0,65,14.86a.71.71,0,0,0-.67-.35c-.52,0-1,0-1.57.09L58,15.09l-1.14.12a4.74,4.74,0,0,1,.38.5,10,10,0,0,1,1.37,4.42c.08,1.24,0,2.48,0,3.72a8.34,8.34,0,0,1-.24,1.47,1.69,1.69,0,0,1-.22.39l-.09,0c0-.19.09-.38.12-.57a20.49,20.49,0,0,0,0-5.64A11.33,11.33,0,0,0,57,15.71c-.24-.47-.38-.53-.89-.47-.24,0-.49,0-.74,0-.08,0-.21,0-.21.06,0,.28-.25.17-.43.21l.07-.25c-1.31.48-2.5,2.47-2.16,3.59l.57-.63c-.6,1.19-.73,1.65-.57,2.25l.73-.48.07,0a4.14,4.14,0,0,1-.57.84A1.15,1.15,0,0,0,52.58,22c.3,2.58.57,5.15.82,7.73.14,1.36.23,2.72.34,4.09l.36,4.65c0,.48.07,1,.11,1.45h.11V38.56h.08c0,.25,0,.49.07.74.17,1.63.33,3.27.53,4.91.18,1.46.42,2.92.6,4.39.08.75.07,1.51.11,2.26,0,.17.09.34.13.52l.08,0-.18-1.89.1,0,.45,1.82c.07.27.13.56.22.83s.18.37.55.22l-.41-.73c.24.21.46.53.75.62a2.59,2.59,0,0,0,1-.07l-.12-.27c.49.35,1,.1,1.43,0l.32-.06c.73-.11,1.47-.1,2.22-.26,2.21-.46,4.45-.81,6.67-1.22l3-.59a1.4,1.4,0,0,1,.29,0l0,.08-.68.27c.79-.08,1.56-.26,2.33-.3a2.52,2.52,0,0,0,1.93-1.1l.42-.49.1.1-1,1.22a1.9,1.9,0,0,0,1.48-.74,10.46,10.46,0,0,0,2.59-3.71l.12-.28.1.07a9.07,9.07,0,0,1-3.23,4.53c.78-.13,1.46-.26,2.15-.36a.86.86,0,0,0,.75-.48,1.21,1.21,0,0,1,.2-.26l0,0-.35.57.38-.06a.83.83,0,0,0,.7-1C80,47,80,46.19,79.82,45.37c-.26-1.57-.31-3.17-.44-4.76-.17-1.93-.3-3.87-.5-5.8-.16-1.59-.38-3.17-.59-4.75-.08-.58-.21-1.16-.3-1.66.06,1,.1,2.05.19,3.12.17,2,.37,3.95.55,5.93.06.61.08,1.23.11,1.85-.27-.59-2-15.27-1.76-15.58l.45,2.12h.06L76.68,20A7.53,7.53,0,0,1,76.52,22.06ZM109.68,90l.1-.08-.48-2.47a11,11,0,0,1-.26-1.59c-.05-1.1,0-2.22,0-3.33,0-2.85,0-5.7,0-8.54a7.4,7.4,0,0,0-.08-.81h-.11c0,.21-.09.42-.1.63,0,1,0,2,0,2.94,0,.1,0,.2,0,.3a.77.77,0,0,1-.07-.32c-.05-1.06-.09-2.12-.14-3.19-.13-2.74-.21-5.49-.08-8.24a14.91,14.91,0,0,1,.27-3.18,15.9,15.9,0,0,0,.27-3.39c0-1.38,0-2.76,0-4.14,0-.21,0-.42.05-.63a.38.38,0,0,0-.14.23c-.09,1.34-.17,2.69-.26,4.08a1.36,1.36,0,0,1,0-.2c0-1.08,0-2.15-.07-3.22a2.56,2.56,0,0,0-.13-.59l.18-.55c-.11,0-.14,0-.16,0-2.76.61-5.52,1.25-8.28,1.84-3.08.65-6.17,1.27-9.18,2.19-2.36.72-4.69,1.54-7,2.33a6,6,0,0,1-2.32.48.59.59,0,0,0-.35,0,.88.88,0,0,0-.32.37c-.06.17-.18.35,0,.57.45.5.87,1,1.28,1.56.07.1,0,.27.06.41h-.09L80.81,61.6l-.1,0a17.69,17.69,0,0,0-.16,2c.09,2.42.26,4.84.35,7.26s.1,4.68.11,7c0,1.83,0,3.67,0,5.5,0,.1,0,.2,0,.3a.46.46,0,0,1-.12-.29c0-.45,0-.91-.06-1.36l-.15-9.62a.68.68,0,0,0-.06-.35L79.4,70.25c-.05.43,0,.83-.05,1.22a4,4,0,0,0,.54,2.24,11.38,11.38,0,0,1,.67,1.74,1.41,1.41,0,0,1,0,.41h-.11a11,11,0,0,0-1-2.45.31.31,0,0,0,0,.15L79.46,77c0,.79.09,1.59.1,2.38a62.79,62.79,0,0,1,0,8,23.92,23.92,0,0,0,0,3.69,24.68,24.68,0,0,0,.17,4.55,2.09,2.09,0,0,0,.16.5c.27.49.56,1,.85,1.44a.2.2,0,0,0,.1.08l.08,0a3.79,3.79,0,0,0-.21-.75c-.27-.53-.59-1-.86-1.57a2.93,2.93,0,0,1-.15-.68l.12,0,1,1.49A58.59,58.59,0,0,1,81,89.92a.75.75,0,0,1,.06.29q.08,3,.16,6c0,.24.09.48.12.72a.85.85,0,0,1,0,.48c-.18.31-.18.36.13.55a1.61,1.61,0,0,0,.28.17.33.33,0,0,0,.22,0c.36-.16.7-.33,1.05-.5a.7.7,0,0,0,.23-.15,4.37,4.37,0,0,0,.31-.44c0-.06.11-.12.11-.18,0-.71,0-1.42-.08-2.13s-.12-1.41-.18-2.12a.51.51,0,0,1,0-.17.16.16,0,0,1,.05.12c.17,1,.32,1.94.49,2.91a2.18,2.18,0,0,0,.22.5l.15,0a1.93,1.93,0,0,0,0-.34c-.14-.87-.28-1.72-.42-2.58-.21-1.25-.42-2.5-.61-3.75a18.46,18.46,0,0,1-.32-2.56c0-1.86,0-3.73.08-5.59,0-.31,0-.61-.06-.92h-.12l-.21,1h-.08c0-.7,0-1.41,0-2.11-.1-2.88,0-5.76.13-8.63.06-1.78.06-3.55,0-5.33A3.21,3.21,0,0,1,83,63.79l.08.22a1.51,1.51,0,0,0,0-.22,1.21,1.21,0,0,1,1.08-1.28l2.35-.6-.44.37,0,.07a1.5,1.5,0,0,0,.3,0c.46-.11.93-.21,1.39-.33a30.54,30.54,0,0,0,5.11-1.59l.14,0c.8-.19,1.61-.35,2.39-.58S97,59.19,97.82,59c1.86-.47,3.73-.87,5.6-1.31a15.32,15.32,0,0,0,2.43-.36.19.19,0,0,1,.17.06,4.41,4.41,0,0,1,.3.39c-.53.49-1,1-1.58,1.42a.34.34,0,0,0-.14.42,11.84,11.84,0,0,1,.33,2.58,3.81,3.81,0,0,0,0,.59.62.62,0,0,0,.1.2v1l.22-.19.11,0c-.49.49-.17,1-.2,1.56l.14,0-.09,1,.27-.17.09,0a1.2,1.2,0,0,0-.2,1.2c.43-.29.51-.89,1.08-1.1a2.86,2.86,0,0,1-.19.39c-.24.38-.47.75-.73,1.12a1,1,0,0,0-.06.89l.38-.32.07.06c-.11.14-.23.28-.33.43a.77.77,0,0,0-.12.35c0,.35,0,.69.07,1a45.37,45.37,0,0,1,.13,5.47c0,.87,0,1.75,0,2.62,0,.25.16.5.15.74a23.36,23.36,0,0,1-.24,4.34,5.83,5.83,0,0,0-.06.73c-.08-.38,0-.83-.39-1.15.08.5.14,1,.22,1.42a2.33,2.33,0,0,1,.1.5,17.87,17.87,0,0,0-.15,4,5.16,5.16,0,0,0,.27.95s.06.05.09.07l.86.32c.08-.37-.06-.74.27-1,0,0,0-.11,0-.17,0-1.76,0-3.53-.08-5.29,0-.31,0-.61-.08-.92,0-.54-.12-1.08-.12-1.62,0-.88.12-1.76.14-2.64,0-1.93.08-3.86,0-5.78,0-2.5-.16-5-.24-7.5a.33.33,0,0,0,0-.12l-.66.83-.1-.06a1.53,1.53,0,0,1,.23-.44,1.9,1.9,0,0,0,.58-1.73c0-.37,0-.76-.06-1.14l-.1,0c-.12.16-.23.33-.36.48s-.25.31-.38.46c-.05-.11-.07-.21,0-.26.23-.27.48-.53.71-.79.07-.08.16-.2.15-.28-.05-.27-.14-.54-.22-.84l-.78,1-.09,0a1.85,1.85,0,0,1,.12-.33c.21-.31.43-.6.64-.9,0-.07.13-.15.13-.23,0-.5,0-1,0-1.57l-1.15,1.38-.11-.05a1.65,1.65,0,0,1,.14-.41c.32-.45.67-.88,1-1.33a2,2,0,0,0,.2-.5l-.08,0-1.25,1.15a7.37,7.37,0,0,1,.68-.8c.25-.26.53-.5.79-.75.34.36.34.39.37,1.19a3.63,3.63,0,0,0,.11.45,2.24,2.24,0,0,0-.08.42c.21,6.73.33,13.46.16,20.19a66.64,66.64,0,0,0,.1,7.74c.07.76.24,1.52.37,2.31.17-.08.29-.18.38-.16.38.1.64-.14.94-.26a.42.42,0,0,1,.22,0ZM87.81,50.78l0,.06a1.7,1.7,0,0,1-.22-.15L87,50.2A5.24,5.24,0,0,0,82.32,49c-.86.19-1.74.32-2.61.48a.89.89,0,0,1-.22,0l.06-.24-3,.85a8.5,8.5,0,0,1,3.29,1.49c1.06.83,2.24,2.26,2.24,2.78l-.5-.61a8.2,8.2,0,0,0-4.3-3.22,4.52,4.52,0,0,0-2-.15L67,51.79l-.66.13a22.93,22.93,0,0,1,10.57,4.19h-.19l1.71,2.07c.24-.65-.22-1.06-.55-1.54.08,0,.16-.08.2-.06a5,5,0,0,1,.84.49A9.59,9.59,0,0,1,81,59.4a.73.73,0,0,0,.92.18.37.37,0,0,1,.16-.07c.15,0,.3,0,.43,0,.81-.2,1.62-.42,2.42-.63.12,0,.29-.1.35-.05s.33,0,.48,0a66.67,66.67,0,0,1,7.8-2.48c3.46-.82,7-1.57,10.43-2.32a11.13,11.13,0,0,1,2.92-.52.72.72,0,0,0,.33-.11,2.15,2.15,0,0,1,.26-.14l1.19-.39c-.2-.2-.34-.36-.5-.51a11.07,11.07,0,0,0-3.36-2.06c-1.4-.61-2.82-1.17-4.24-1.71a15.85,15.85,0,0,0-4-1,5.79,5.79,0,0,0-1.17.07v.09l1,.14,1,.21-3.92-.12,0,.09.25.13c.93.52,1.88,1,2.8,1.58a3.14,3.14,0,0,1,1.44,1.83,3.45,3.45,0,0,1,.1.56h-.1l-.12-.23A4.25,4.25,0,0,0,96,49.8c-1-.53-1.92-1.08-2.91-1.54A3.15,3.15,0,0,0,91.65,48c-1.83.11-3.64.27-5.46.43-.63.06-1.26.16-1.84.23a18.71,18.71,0,0,1,1.91.79A3.84,3.84,0,0,1,87.81,50.78Zm-20.36,6.3c.46.35.61.9,1,1.31A6.64,6.64,0,0,1,69.51,60c.25.48.7.39,1.06.56l.08-.08-2.47-5.07a.24.24,0,0,1,.14.12,45.67,45.67,0,0,1,2.53,4.92,1.51,1.51,0,0,0,.22.28l.09-.06a11.55,11.55,0,0,0-.83-2.74,2.38,2.38,0,0,1,.23.45,6.79,6.79,0,0,1,.8,2.29.26.26,0,0,0,.11.16l1.73.53a23,23,0,0,1-2.92-6.88c1.06,2.31,1.79,4.8,3.42,6.84a2.43,2.43,0,0,0-.09-.61c-.2-.68-.42-1.35-.63-2a5.68,5.68,0,0,1-.39-2.31c0,.19,0,.38.06.56a11,11,0,0,0,.8,2.58A5.79,5.79,0,0,1,74,61.44a.21.21,0,0,0,.09.17c.4.13.81.24,1.3.39l-1.05-2.08.06,0c.34.51.68,1,1,1.53.1.15.17.32.27.47a.5.5,0,0,0,.23.2l1.51.52a1,1,0,0,1,.36.2A3.43,3.43,0,0,1,78.82,65a8.81,8.81,0,0,0,.7,2.48c.23.5.43,1,.63,1.54a2.24,2.24,0,0,1,.09.45l-.14,0-.93-2.2A5.1,5.1,0,0,0,79.7,70c.1.22.21.45.31.68l.53,1.17a.43.43,0,0,0,.06-.26c0-.56-.09-1.11-.15-1.67-.18-1.39-.2-2.79-.34-4.18-.08-.82-.25-1.64-.38-2.46A.68.68,0,0,0,79.6,63l-1.09-1.49s0-.09-.07-.13l.09-.07c.45.45.74,1,1.21,1.5a2.26,2.26,0,0,0-.08-.79,3.8,3.8,0,0,0-.45-.68l.35,0a1.13,1.13,0,0,1,0-.32,1,1,0,0,0-.2-1c-.42-.49-.83-1-1.23-1.48s-.61-.86-.94-1.27-.68-1-1.3-1.18a2.24,2.24,0,0,0-.37,0l-.92-.56c.61,1.18,1.23,2.32,1.88,3.45s1.32,2.22,2,3.33l-.12.09a6.3,6.3,0,0,1-.87-1c-.86-1.58-1.68-3.2-2.52-4.8-.18-.34-.38-.68-.57-1l-.08,0,.49,1.87a.94.94,0,0,1-.3-.45c-.13-.48-.24-1-.32-1.45a.65.65,0,0,0-.38-.52c-.77-.37-1.52-.78-2.31-1.1s-1.59-.58-2.39-.84a17.72,17.72,0,0,0-4.46-.69.74.74,0,0,0-.25.05c-.17.08-.33.18-.5.25s-.4.15-.59.22V53c1,2,2,4,2.93,6,.1.2.19.28.39.28a11.07,11.07,0,0,1-1.2-3.51.6.6,0,0,1,.15.25l1.35,3a.61.61,0,0,0,.68.42,2,2,0,0,1,.77.22,3.21,3.21,0,0,1,.46.29l0-.07Zm-7.86-1.19.09,0c.06.07.13.14.18.21.16.27.31.54.47.8a.51.51,0,0,0,.2.21l1.18.36-1.56-3.2.09,0,.1.15,1.64,3c.05.09.11.21.2.24.35.13.7.24,1.06.35l0-.06c-.67-1.63-1.33-3.26-2-4.89,0-.06-.13-.09-.21-.1-.34,0-.68-.09-1-.1a5.08,5.08,0,0,0-1.94.11,4.83,4.83,0,0,1-1.52.17.89.89,0,0,0,0,.11c.4,1,.8,2.09,1.21,3.13,0,.06.08.14.13.15.25.06.51.1.83.16l-1.27-3c.2-.13.26,0,.33.11.4.87.83,1.72,1.18,2.61.18.46.49.52.87.57ZM50.75,24.54h0c.09.56.19,1.11.25,1.67.22,1.9.43,3.81.64,5.71.08.77.16,1.54.27,2.3a3.88,3.88,0,0,0,.26.72c.28.89.56,1.78.83,2.67a3.39,3.39,0,0,0,.2.53,2.18,2.18,0,0,0,.34.41l.12-.07c-.06-.22-.1-.45-.17-.67a6.62,6.62,0,0,1-.43-2,18.71,18.71,0,0,0-1.32-6,8.62,8.62,0,0,1-.2-.91l.1,0,.3.82a2.13,2.13,0,0,0,.2.46c0,.07.19.07.29.1s0-.17,0-.24c-.29-.68-.6-1.35-.88-2a4.41,4.41,0,0,1-.16-.72h.07l1.24,2.19.1,0-.09-.77c0-.16,0-.32-.06-.47a.54.54,0,0,0-.08-.21,7.43,7.43,0,0,1-.49-.75c-.39-.8-.76-1.61-1.14-2.42Zm4.63,49.8h-.09c0,.52.07,1,.11,1.55a.65.65,0,0,1,0,.14,2.5,2.5,0,0,0-.12.45c0,.5-.06,1-.05,1.49a3.1,3.1,0,0,0,.15.86c.18.57.41,1.13.62,1.7l-.1,0L55.26,79l-.11,0c0,.59,0,1.18,0,1.78a2.74,2.74,0,0,0,.09.64c.28.91.58,1.81.88,2.72a1.6,1.6,0,0,0,.11.19c0-.32,0-.58.06-.83a2.49,2.49,0,0,0-.16-1.17c-.25-.65-.44-1.33-.66-2a.55.55,0,0,1,0-.18l.1,0L56.28,82c.06-.62,0-1.22.06-1.82a4.23,4.23,0,0,0-.23-1.45c-.22-.73-.37-1.47-.56-2.21l.07,0,.65,1.7a9.4,9.4,0,0,0,.07-1.49,1.45,1.45,0,0,0-.09-.46C56,75.63,55.67,75,55.38,74.34Zm6-21.54.14.35,1.91,4.23c.17.37.36.74.54,1.11,0,.09.06.23.12.26a6.73,6.73,0,0,0,.78.21c0-.14-.07-.24-.11-.33-.58-1.34-1.16-2.69-1.75-4a5,5,0,0,1-.56-1.77c0-.07-.17-.19-.25-.18C62,52.67,61.73,52.74,61.43,52.8ZM52.05,19.24a4.15,4.15,0,0,1,1.49-3.92,2.73,2.73,0,0,0-2.21,1.41l.7-.43.06.07c-.24.36-.48.73-.72,1.08a1.22,1.22,0,0,0-.26,1c.12.61.19,1.24.34,1.84a13.36,13.36,0,0,0,.47,1.39l.08,0-.28-2.32Zm26.86,63a12.55,12.55,0,0,0-.11-1.77,12.33,12.33,0,0,0-.56-1.65l.08,0,.39.52a4.49,4.49,0,0,0-.66-3s0,.05,0,.08l-.3,3.76a.35.35,0,0,0,0,.23ZM54.3,49.06l.09,0a2.26,2.26,0,0,0,0-.45c-.14-.62-.29-1.23-.46-1.84s-.37-1.24-.55-1.85c-.09-.3-.09-.3.12-.55a11,11,0,0,0,1.18,2.29,7.65,7.65,0,0,0-.39-1.17c-.51-1.21-1-2.42-1.56-3.63,0,0,0,0-.07,0,.06.44.1.86.17,1.28s.2,1.1.29,1.65a3.83,3.83,0,0,1,.07.58,4,4,0,0,0,.06,1c.26.85.59,1.68.9,2.52A1.5,1.5,0,0,0,54.3,49.06ZM54,52.24l.06,0,1.19,2.59.1,0c-.11-.42-.18-.85-.32-1.26a34.28,34.28,0,0,1-1.31-3.21l-.06,0c0,.1,0,.19,0,.27.07.74.19,1.48.22,2.22a8.08,8.08,0,0,0,.57,3.07c.24.55.49,1.11.74,1.66,0,.09.15.15.23.22l.07,0a1.45,1.45,0,0,0,0-.3,28,28,0,0,0-1.11-3.15,3.55,3.55,0,0,1-.21-.5c-.06-.25-.1-.5-.15-.76h.06l.15.25ZM52.26,24.59l.08,0c-.08-.67-.16-1.34-.23-2a.38.38,0,0,0,0-.17,4,4,0,0,1-.82-1.82c-.16-.54-.32-1.09-.47-1.63C50.29,21.09,51.14,22.87,52.26,24.59Zm3.81,62,.08,0a6.46,6.46,0,0,1,0-.88A2.45,2.45,0,0,0,56,84.49c-.23-.69-.45-1.39-.67-2.09,0-.17-.09-.33-.13-.5-.11.71-.15,1.41-.19,2.11a.48.48,0,0,0,0,.24C55.36,85,55.72,85.79,56.07,86.56Zm-3.6-59.31.08,0A4.21,4.21,0,0,0,52,25a18.87,18.87,0,0,1-1-1.94c-.2-.39-.36-.79-.54-1.19a2.52,2.52,0,0,0,.15,1.36c.42,1,.86,1.93,1.3,2.9C52.09,26.51,52.28,26.88,52.47,27.25ZM78.52,57.14l-.1.08a14.28,14.28,0,0,0,1.42,2.49c.31.4.82.41,1.21.66.06,0,.19,0,.28,0l.91-.29,1.26-.44,0-.07-.33.1a6.23,6.23,0,0,1-2,.45.45.45,0,0,1-.43-.24c-.32-.5-.62-1-1-1.48A16.58,16.58,0,0,0,78.52,57.14ZM52.2,36.24l-.08,0c.05.62.09,1.23.15,1.85a7.33,7.33,0,0,0,.16,1.17c.18.72.42,1.43.64,2.14l.24.68.1,0c-.06-.49-.12-1-.17-1.46-.17-1.43-.8-2.76-.91-4.2C52.33,36.38,52.25,36.31,52.2,36.24Zm3.14,32.19h-.07v.29c0,.73.08,1.45,0,2.17s.54,1,.74,1.65c0-.89,0-1.69,0-2.5a.68.68,0,0,0-.07-.28C55.77,69.32,55.55,68.88,55.34,68.43Zm1.92-12.37c0-.15-.07-.25-.1-.34-.27-.82-.54-1.64-.79-2.46-.13-.43-.24-.51-.69-.43a1.53,1.53,0,0,0,0,.52c.21.61.46,1.22.7,1.83A1.64,1.64,0,0,0,57.26,56.06ZM55.41,72h-.07c0,.49,0,1,0,1.47a.87.87,0,0,0,.06.32l.84,1.77a.53.53,0,0,1,0,.13l.16-.09c-.09-.86-.18-1.71-.28-2.57a.21.21,0,0,0,0-.11Zm22.35,8.6-.1,0a8,8,0,0,0-.11.84.9.9,0,0,0,.12.51c.23.42.5.81.74,1.22s.34.66.51,1H79A4.54,4.54,0,0,0,78.87,83C78.56,82.17,78.14,81.41,77.76,80.64ZM55,85.09c-.31,1.46.44,3.09,1.13,3.3,0-.33,0-.65,0-1a.42.42,0,0,0-.06-.19c-.21-.37-.44-.73-.62-1.11S55.16,85.44,55,85.09Zm.48-23.17-1.15-5.14c0,.85,0,1.7.1,2.55a.71.71,0,0,0,0,.29Zm-.4,2.67A4,4,0,0,0,56,67.74c-.07-.59.08-1.12-.21-1.63S55.34,65.09,55.1,64.59Zm.66-.9a11.21,11.21,0,0,0-1.17-3.22c0,.41.06.81.13,1.21a2.65,2.65,0,0,0,.23.9A9.75,9.75,0,0,0,55.76,63.69ZM78.53,76.54a.65.65,0,0,0,0-.11c-.07-1-.13-2.05-.21-3.07,0-.09-.11-.18-.16-.26-.1,1-.13,2-.15,2.93a.21.21,0,0,0,.07.15C78.23,76.3,78.37,76.41,78.53,76.54ZM55.84,65.86a3.27,3.27,0,0,0-1-2.77C54.82,64.17,55.56,64.91,55.84,65.86Zm27.53,1.65h0l.65-4.35-.2,0c-.08.46-.15.89-.22,1.31,0,0-.07.07-.09.11a.39.39,0,0,0-.08.19C83.44,65.71,83.41,66.61,83.37,67.51ZM55.24,67a3.58,3.58,0,0,0,.81,2.26V68.7c0-.41.05-.81-.37-1.09A2.33,2.33,0,0,1,55.24,67Zm-.86-16a6,6,0,0,0-.94-3A8,8,0,0,0,54.38,51ZM79,75.37c0-1.36,0-2.65,0-3.94A1.87,1.87,0,0,0,78.8,71l-.09,0A30.43,30.43,0,0,0,79,75.37Zm-1.42,6.74-.11,0a2.28,2.28,0,0,0,.1.59c.16.35.38.67.55,1s.29.33.6.43ZM64.6,57a12.89,12.89,0,0,0-1.82-3.7Zm-8.29,2.1,1.43-1.08c-.25-.15-.31-.16-.49,0s-.51.45-.79.63A.35.35,0,0,0,56.31,59.13Zm44-11.32,4.13,1.32A18.75,18.75,0,0,0,100.29,47.81ZM54.93,46l.37,4A17.38,17.38,0,0,0,54.93,46ZM77.45,82.85l0,0-.07.68v0a.4.4,0,0,0,.6.37ZM78.78,69a6.1,6.1,0,0,0,.12,1.65A3.82,3.82,0,0,0,78.78,69ZM55.17,54.83l-.1,0a3.59,3.59,0,0,0,.65,1.4l.09,0ZM76.36,18.42a5.67,5.67,0,0,0-.71-2.35Zm-17.56,43h0c.06-.52.12-1,.17-1.55,0-.07-.06-.14-.1-.2l-.09,0Zm3.62-3.35,0,.12,1.15.34,0-.07C63.23,58.17,62.78,58.24,62.42,58.07ZM78.76,68h.11l-.08-1.08h0Zm-24-16.51-.27.09.28.74.06,0Zm6.39,6.4.83.21C61.78,57.78,61.48,57.8,61.16,57.89ZM98.54,47.47v0l1,.19a3.8,3.8,0,0,0-.82-.21ZM56.32,56.62l-.44-.2-.16.37Z"/><path d="M51.33,39.8c.49,1,1.69,10,1.5,11.23C52.63,50.39,51.27,40.19,51.33,39.8Z"/><path d="M50,19c.12-1.22.28-2.4,1.44-3.11A7.27,7.27,0,0,0,50,19Z"/><path class="cls-1" d="M56.47,63.43l1.46-1.33L57.86,62A2.12,2.12,0,0,0,56.47,63.43Z"/><path class="cls-1" d="M51.8,31.14h-.08c.07.69.17,1.38.2,2.07s.43,1,.56,1.55l.1,0Z"/><path d="M61.15,47.58c0-.24-.1-.48-.14-.71a70.91,70.91,0,0,1-.65-9.76,27.59,27.59,0,0,0-.66-5.94.37.37,0,0,1,0-.11l.07-.06c.06.07.17.13.19.22a21.07,21.07,0,0,1,.44,2.6c.14,2.1.21,4.2.27,6.31a54.39,54.39,0,0,0,.55,6.61c0,.27,0,.55,0,.82Z"/><path d="M66.86,30.53a2.11,2.11,0,0,1,.21.46c.25,1.47.53,2.93.73,4.41A41.74,41.74,0,0,1,68,42.29c0,.66-.09,1.31-.14,2a.9.9,0,0,1-.07.27l-.09,0a1.14,1.14,0,0,1-.09-.3c0-.34,0-.69.06-1a44,44,0,0,0-.16-7.87c-.2-1.57-.48-3.12-.73-4.68v-.09Z"/><path d="M74.07,30.06c.06.17.13.34.18.51a41.4,41.4,0,0,1,1.16,6,11.62,11.62,0,0,1-.12,3.43c-.08.41-.11.83-.17,1.24a.5.5,0,0,1-.15.31,11,11,0,0,1,0-1.52,20.05,20.05,0,0,0-.25-6.28c-.22-1.21-.47-2.41-.7-3.62a.37.37,0,0,1,0-.11Z"/><path d="M72.49,25.53c.07.18.12.31.18.44a2.9,2.9,0,0,1,.25.61.44.44,0,0,1-.35.52.42.42,0,0,1-.58-.3,2.88,2.88,0,0,1-.11-.49A.65.65,0,0,1,72.49,25.53Zm0,.3c-.29.21-.29.58,0,.92C72.65,26.44,72.5,26.15,72.45,25.83Z"/><path d="M59.07,27.87l-.71-.16c0,.27,0,.47,0,.67a.35.35,0,0,0,.14.26.43.43,0,0,0,.33,0,1.87,1.87,0,0,0,.31-.27.39.39,0,0,1-.36.52,1.1,1.1,0,0,0-.18,0c-.51.05-.62,0-.62-.57,0-.07,0-.14,0-.21a.6.6,0,0,1,.87-.57c.13.05.2.23.3.36Z"/><path d="M65.69,26.76a.84.84,0,0,0-.15,1c.06.17.14.33.36.23s.47-.12.38-.46a4.17,4.17,0,0,1-.1-.81.91.91,0,0,1,.19.29c0,.13,0,.28.06.41a.51.51,0,0,1-.36.65L66,28.1c-.35.24-.51.2-.71-.2A.76.76,0,0,1,65.69,26.76Z"/><path d="M74.67,44.87l.13-1.66A2.43,2.43,0,0,1,74.67,44.87Z"/><path d="M77.76,49l1-1.07,0,.05-.94,1.11Z"/><path d="M80.85,89.53V85.88h0v3.65Z"/><path d="M106.23,64.19l-.44.72A.6.6,0,0,1,106.23,64.19Z"/><path d="M105.85,61.07l-.5.58c-.06-.25,0-.3.43-.62Z"/><path d="M56.47,63.43A2.12,2.12,0,0,1,57.86,62l.07.07Z"/><path d="M51.8,31.14l.78,3.59-.1,0c-.13-.54-.54-.95-.56-1.55s-.13-1.38-.2-2.07Z"/></svg>

