<svg id="Layer_1" data-name="Layer 1" xmlns="http://www.w3.org/2000/svg" viewBox="0 0 160 112" width="160mm" height="112mm" ><defs><style>.cls-1{fill:#fff;}</style></defs><title>sketch</title><path d="M140.73,71.84l-.08-1.3h-.1a5.85,5.85,0,0,0,0,.59c0,1.8-.09,3.59-.11,5.39,0,.44-.19.93.25,1.31.08.06.06.26.06.39,0,2.41.26,4.82.1,7.21-.14,1.88-.1,3.75-.17,5.61,0,.49.19,1-.17,1.36l-5,.58c-.14,1.08-.28,2.14-.4,3.21s-.17,1.92-.27,2.88a1.19,1.19,0,0,1-1.11,1.23,2.78,2.78,0,0,0-.73.15c-.67.37-1.1,0-1.51-.43a5.91,5.91,0,0,1-1.39-3.14c-.23-1.16-.44-2.33-.67-3.5a3.27,3.27,0,0,0-.14-.46c-1,0-2,0-3,0-5.42.14-10.83.3-16.25.45-5.69.15-11.39.28-17.08.47-1.82,0-3.64.27-5.46.38a7.94,7.94,0,0,1-2.23,0,22.49,22.49,0,0,0-4.85-.12c-1.6,0-3.2,0-4.81.08-2.29,0-4.59,0-6.88.15-3.25.21-6.51,0-9.77.23s-6.51.34-9.77.49c-1.63.08-3.26.11-4.89.17-.25,0-.49,0-.79,0-.08.43-.15.83-.22,1.24a22.87,22.87,0,0,0-.45,4.52,2,2,0,0,1-1.59,1.89,2.18,2.18,0,0,1-2.43-.51,1.89,1.89,0,0,1-.41-.78c-.4-1.72-.78-3.45-1.17-5.18-.06-.27-.13-.53-.21-.87l-1.32.07c-.22,0-.44.07-.66.1-.41,0-.85.15-1.1-.32s0-.63.45-1.05c-.11-.38-.2-.74-.33-1.09a3.31,3.31,0,0,0-.37-.81c-1.44-2.1-2.93-4.16-4.33-6.28-.88-1.34-1.64-2.75-2.45-4.13-.16-.26-.34-.5-.53-.79a1.92,1.92,0,0,1-2.1.39c-.57-.19-.83-.45-.72-1a2.89,2.89,0,0,0-.15-1.46c-.29-1-.63-2.06-.89-3.1A7,7,0,0,0,21,73.41l-.29.16c-.54.23-.89.1-1-.46-.13-.76-.2-1.53-.27-2.3a7.47,7.47,0,0,1,0-.82h-.59s-.06-.09-.06-.13a1.89,1.89,0,0,0-.67-1.46,1.41,1.41,0,0,1-.39-1c0-2.66,0-5.31.07-8s.19-5.2.16-7.79c0-1.1,0-2.19,0-3.29s0-2.32,0-3.48-.13-2.26-.14-3.39c0-4.62-.08-9.24-.06-13.86,0-5,.12-10,.18-15a4,4,0,0,0,0-.49c-.05-.63-.24-.85-.86-1l-.79-.29a1.25,1.25,0,0,1,.95-.48l.15-.58c.18.06.39.06.47.16a1.33,1.33,0,0,0,1.41.45c2.79-.35,5.58.07,8.37,0,.64,0,1.32.2,1.89-.32.11-.1.37,0,.56-.05a69.35,69.35,0,0,1,8.53.3c2.76.18,5.51.36,8.28.29,5-.13,10-.12,14.93-.21,2.3,0,4.59-.18,6.88-.29.46,0,.79.3,1.29.27,2.59-.18,5.19-.28,7.78-.38,3-.11,6.08-.19,9.12-.28,1.63-.05,3.26-.13,4.89-.11,2.33,0,4.65.14,7,.19s4.42.08,6.63.13c1.63,0,3.26.09,4.89.1.3,0,.68.17.9-.22.65.15,1.33-.15,2,.28,1.69,1.15,3.43,2.23,5.15,3.34,2.13,1.38,4.26,2.77,6.41,4.14.48.3,1,.53,1.61.84l-.15-.57c5.06,3.08,9.53,6.89,14.32,10.25.14.1.2.31.3.49.95.12,1.93-.43,3,.13-1,.85-2.13.66-3.22.88-.06.69-.18,1.37-.18,2.05q.1,9.61.24,19.24c.09,5.64.22,11.28.3,16.92,0,1.37-.08,2.74-.12,4.11Zm-114,6.51L25.2,76.26c-.07.09-.1.12-.1.14a8.25,8.25,0,0,0,1.63,2.53l.18-.22a6.54,6.54,0,0,0,.44,1c1,1.65,2.09,3.28,3.14,4.91a1.42,1.42,0,0,0,.24.25,1.2,1.2,0,0,0-.2-.79c-.34-.49-.73-1-1-1.46S29,81.51,28.67,81c-.43-.73-.91-1.44-1.39-2.14A3.18,3.18,0,0,0,26.69,78.35Zm55.7,14,1.74.17a10.17,10.17,0,0,1,2.16-2.39,1.11,1.11,0,0,0,.38-.67,8.38,8.38,0,0,0,0-1.34l-2.83,3.08.62.52c-.77.34-1.56.16-2.12.65.08-.46-.26-.32-.48-.31-1.37.07-2.75.18-4.13.22-3.54.09-7.07.14-10.61.23-.82,0-1.64.11-2.46.17a2.58,2.58,0,0,0,.91.11l16.15-.3A3,3,0,0,0,82.39,92.33ZM23.79,53h0l.65-6.08h.22v4.72A3.65,3.65,0,0,0,25,50.27c.13-3.37.24-6.74.35-10.11.09-2.62.18-5.25.26-7.87a1,1,0,0,0-.14-.53,11.18,11.18,0,0,0-.78-.9,1.92,1.92,0,0,0-.15.87c0,1.58,0,3.15,0,4.73A59.69,59.69,0,0,1,24,43.9c0,.31-.13.62-.2.93l-.2,0c0-.26,0-.52,0-.78,0-.91.09-1.82.11-2.74.07-3.56.14-7.13.19-10.69a1.22,1.22,0,0,0-.15-.71c-.29-.42-.65-.79-1.1-1.33,0,.43-.06.67-.05.9q.08,13.27.17,26.54c0,1.83.12,3.65.14,5.47,0,1.58,0,3.15-.06,4.73,0,.49-.08,1-.14,1.57l1.16,1.38.15-.08L24.35,51A5.65,5.65,0,0,0,24,52.32,5.25,5.25,0,0,1,23.79,53ZM36.5,92c1.38.16,2.7.39,4,.44,2.27.08,4.53.08,6.8.06,2,0,4,0,6-.17,3.11-.22,6.22-.56,9.33-.81,1.29-.11,2.59-.17,3.89-.19s2.6.05,3.9.05c4,0,8.07-.05,12.11,0a1.25,1.25,0,0,0,1-.51,24.69,24.69,0,0,1,2.2-2.37,2.7,2.7,0,0,0,.92-2.24c0-2.35.07-4.7.12-7s.1-4.47.12-6.71c0-1.27-.07-2.55-.06-3.82,0-3.4.15-6.8.1-10.19-.1-5.81-.21-11.61.06-17.42.16-3.42.32-6.84.22-10.27,0-.29,0-.58,0-.88l-.68,0-11,.07C72,29.94,68.5,30,65,30c-2.87,0-5.75,0-8.62-.06s-5.75-.13-8.62-.3a34.94,34.94,0,0,0-4.8.08c-.15,0-.4.08-.41.15-.06.4-.35.3-.57.3-1.3,0-2.6,0-3.89-.07-.71,0-1.31,0-1.7.66a1.34,1.34,0,0,1-.4.42,2.15,2.15,0,0,0-1,2.18c0,.24,0,.49,0,.74a4.32,4.32,0,0,0,.11.54c.56-.4.78-1,1.4-1.26a8.69,8.69,0,0,1-1.18,1.45,1.17,1.17,0,0,0-.4.86c0,3-.05,5.91-.13,8.87a13.9,13.9,0,0,1-.36,4.36,1.11,1.11,0,0,0,0,.41c0,3,.06,5.91.1,8.87a4.43,4.43,0,0,0,.06.51A11.74,11.74,0,0,0,35,57.31c.15-.46,0-1.06.71-1.43-.06.39-.11.64-.14.9-.14,1.21-.36,2.41-.4,3.62-.1,3.34-.13,6.69-.18,10,0,1.13,0,2.27,0,3.4.15,1.9.39,3.79.58,5.69a.85.85,0,0,1,0,.48,3.77,3.77,0,0,0-.37,2.08c0,2.6,0,5.2,0,7.8a12.24,12.24,0,0,0,.32,2.91l.85,0Zm53-.94c2.5-.11,4.87-.21,7.24-.33,5.11-.24,10.22-.55,15.33-.7s10.33-.18,15.5-.25h3.89l.29-.44a11.45,11.45,0,0,1,1.65-2.27,16.21,16.21,0,0,0,1.45-2,2.37,2.37,0,0,1,.93-.9,10.12,10.12,0,0,1-.88,1.41c-.84,1.16-1.69,2.32-2.52,3.49a4.86,4.86,0,0,0-.36.64c1.34.23,1.32.21,2.05-.74.91-1.19,1.83-2.36,2.81-3.49a2.31,2.31,0,0,0,.63-1.7c-.13-6.6-.25-13.21-.32-19.82-.05-4.83,0-9.67,0-14.5,0-2.57-.08-5.14-.06-7.71,0-3.29.1-6.57.16-9.86a4.1,4.1,0,0,1,0-.5,1.81,1.81,0,0,1,.18-.37c.81,2.42.56,4.93,1,7.37V29.47l-2.2-.08a6,6,0,0,1-.74-.07,6.23,6.23,0,0,0-1.11-.22c-3,0-6,0-9,0-5.19.12-10.39.33-15.58.42-5.78.1-11.56.11-17.34.17H91.44c-.56,1.6-1.75,2.64-2.77,3.95-.09-.69-.11-.7.27-1.17.61-.75,1.24-1.48,1.85-2.23a2.86,2.86,0,0,0,.29-.54c-1,0-1.84,0-2.65.08v5.75c1-1.06,1.63-2.26,2.76-3a1.59,1.59,0,0,1-.3.54c-.71.92-1.42,1.84-2.15,2.74a2,2,0,0,0-.48,1.28c0,3.32-.16,6.63-.14,10,0,4.34.2,8.68.24,13,0,4.69,0,9.39,0,14.09,0,1.52,0,3,.14,4.56.23,3.42.5,6.83.77,10.25C89.34,89.68,89.43,90.34,89.52,91.05ZM20.19,12.34a3.78,3.78,0,0,0,1.14,2.15,40.51,40.51,0,0,0,4.86,5.2,18.43,18.43,0,0,1,1.48,1.45c1.27,1.5,2.49,3,3.76,4.53.77.9,1.6,1.76,2.42,2.62a1,1,0,0,0,.54.32,15.07,15.07,0,0,0,1.65.1c2,0,4,0,6.05,0,1.66,0,3.32-.12,5-.08,2.71.08,5.41.3,8.12.37s5.69,0,8.54,0c2,0,4,0,6,0,2.32,0,4.65-.08,7-.09,4.48,0,9-.05,13.43-.08q4.23,0,8.46-.09,12.32-.16,24.63-.35c3.9-.07,7.79-.21,11.68,0,.95.06,1.9.1,2.85.14a1.61,1.61,0,0,0-.6-.46,46.23,46.23,0,0,1-7.62-4.83c-2.16-1.72-4.29-3.48-6.46-5.19a53.73,53.73,0,0,0-8.86-5.82,2.24,2.24,0,0,1-1-.74A1,1,0,0,0,112.2,11c-1,.07-2.1.17-3.15.18-3.9,0-7.79,0-11.69,0H96c-2.62,0-5.25.1-7.87.09-2.93,0-5.86-.14-8.79-.13-4.18,0-8.35.08-12.52.16-3.16.07-6.3.22-9.45.29-2.24.05-4.48,0-6.72,0a3.09,3.09,0,0,1-.59-.12v-.2l7.08-.43a6.18,6.18,0,0,0-1-.05c-3.37.07-6.75.09-10.12.22-5.13.21-10.27.29-15.39.73-2.75.24-5.53.15-8.29.19-.55,0-1.09-.06-1.62-.09Zm7,21.56-.2,0v.87c0,5.86.09,11.72.12,17.58,0,3.21,0,6.42,0,9.62,0,1.36.12,2.71.11,4.06,0,2.27-.06,4.53-.09,6.8a1.17,1.17,0,0,0,.1.63c.56.81,1.17,1.59,1.79,2.42.21-1,.34-37.56.14-38.38-.26,3.84-.53,7.63-.79,11.42a19.75,19.75,0,0,1,.07-2.55c.18-3.06.32-6.13.56-9.18A2.59,2.59,0,0,0,27.92,35a9,9,0,0,0-.09,1.14c0,.34.08.73-.22,1.08C27.34,36.08,27.76,34.92,27.22,33.9ZM33.31,82c0-.29,0-.54,0-.78q.09-9.37.16-18.74c0-2.35,0-4.7,0-7,0-3.68,0-7.35,0-11,0-2.46,0-4.92,0-7.37s.07-4.64.09-7a1.34,1.34,0,0,0-.17-.79c-.5-.56-1.08-1.07-1.72-1.7,0,.31,0,.44,0,.57a19.38,19.38,0,0,1-.13,5.69,2.89,2.89,0,0,0,0,.66c0,1.88.09,3.75.11,5.63,0,2.24,0,4.48,0,6.72v3.72a2.17,2.17,0,0,0,.2-1q.17-7.38.32-14.76c0-.88,0-1.76.07-2.65a8.24,8.24,0,0,1,.11-.85,1.62,1.62,0,0,1,.19.83c0,4.86.08,9.73.08,14.59,0,2-.1,4-.16,6-.12,3.7-.31,7.39-.35,11.1,0,5,0,10,.06,15a3.31,3.31,0,0,0,.51,2.41l-.47,0V82ZM21.06,22.59c0,.31,0,.5,0,.68q.07,20.85.14,41.71c0,.16,0,.33,0,.49a1,1,0,0,0,.6.93c0-.35,0-.61,0-.88q.12-18.36.26-36.72c0-.63.07-1.27-.31-1.67.15-.26.3-.41.31-.57,0-.52,0-1.06.05-1.57A2.4,2.4,0,0,0,21.06,22.59Zm5.08,49.27v-1c0-4.31,0-8.63.05-12.94a65.21,65.21,0,0,1,.29-6.69,67.33,67.33,0,0,0-.05-11.18c-.07-1.22-.1-2.43-.11-3.65s0-2.15,0-3.23c0-.22,0-.49-.36-.58,0,.32,0,.6,0,.87l.06,7q.06,6.46-.45,12.92c-.2,2.48-.4,5-.49,7.45-.09,2.9,0,5.8-.11,8.71A2.74,2.74,0,0,0,26.14,71.86ZM31,34.67c0-.29.05-.44.06-.59.09-2.18.19-4.36.26-6.54a.91.91,0,0,0-.21-.59c-.77-.9-1.57-1.78-2.34-2.68a.89.89,0,0,0-.86-.36c0,.06-.06.11-.05.16,0,1.93,0,3.86.07,5.8a1,1,0,0,0,.08.48c.39.61.81,1.21,1.22,1.81l.17-.07c0-.57.05-1.14.12-1.71s-.09-1.18.3-1.7A22.61,22.61,0,0,1,30,32.06,3.46,3.46,0,0,0,31,34.67Zm-.18,43.59c0-.24,0-.42,0-.6q0-12.85.07-25.69a2.06,2.06,0,0,0,0-.66A15.19,15.19,0,0,1,30.4,47c-.06-1.66,0-3.32-.06-5,0-.38-.07-.75-.11-1.13q-.06,14.09,0,28.11c0,2.68,0,5.36,0,8A1.26,1.26,0,0,0,30.79,78.26Zm10.52,17-2.88.14c.49,2.12,1,4.15,1.42,6.18a5.53,5.53,0,0,0,.58,0c.7-.08.88-.28.91-1,0-.33,0-.67.07-1,.2-1.26.41-2.51.62-3.76,0-.19.16-.43-.19-.58-.32.54-.15,1.13-.25,1.68s-.19,1.2-.3,1.79-.22,1.11-.34,1.67l-.19,0C40.77,98.7,41.3,97.08,41.31,95.27Zm89.5-2.58a3.63,3.63,0,0,0,0,.6c.18,1.47.37,2.94.57,4.42a1.26,1.26,0,0,0,.16.46c.54,1,1,1.16,1.75.7l.14-.86a.65.65,0,0,0-.29.23.89.89,0,0,1-.22.16l-.18-.06a22,22,0,0,0,.71-5.76Zm9.06-25.9.2,0,.35,2.73a6,6,0,0,0,.09-1.33c0-1.63-.08-3.26-.1-4.9,0-.85.05-1.71,0-2.56,0-.34-.05-.88-.24-1-.4-.18-.41-.44-.47-.76-.17,1.24-.32,2.47-.38,3.7s0,2.54,0,3.81.08,2.49.13,3.73.11,2.54.17,3.81a15,15,0,0,0,.34,3.6h.2C140.06,74,140,70.39,139.87,66.79ZM27.45,29.43c0-.41,0-.68,0-.95,0-1.38,0-2.76.08-4.14a6.82,6.82,0,0,1,.24-1.11l-.95-1.18-1.05-1.29a1.28,1.28,0,0,0-.08.3c0,2,0,3.92,0,5.88,0,.47.26.73.69,1.14a22.78,22.78,0,0,1,.28-4.44,1.61,1.61,0,0,1,.19.75c0,1.33.06,2.66.1,4A1,1,0,0,0,27.45,29.43ZM23,22.33l.18,0V19.66a5.28,5.28,0,0,0,0-1.78C23,17.35,22.41,17,22,16.53l-1-1.09c0,1.27,0,2.36,0,3.45a.69.69,0,0,0,.09.31ZM21.19,66.42c0,.82,0,1.55,0,2.28a1.57,1.57,0,0,0,.36,1.06c.7.89,1.38,1.8,2.07,2.69a2.88,2.88,0,0,0,.43.34c0-.94,0-1.73,0-2.53a1.45,1.45,0,0,0-.27-.75c-.74-1-1.51-1.94-2.27-2.91A2.4,2.4,0,0,0,21.19,66.42Zm-1.58-45.6c-.18,1.32,0,13.89.23,14.61.09-.79.21-1.44.22-2.1.06-3.81.09-7.62.14-11.43A1.12,1.12,0,0,0,19.61,20.82ZM133.92,89.64l.08.21h2.05a1.57,1.57,0,0,0,1.49-1.23c.05-1.05,0-2.11,0-3.17l-.18,0C136.15,86.76,135,88.17,133.92,89.64ZM23.9,18.47l-.18.08c0,1.67,0,3.34,0,5,0,.08.1.16.23.35l.23-2.1a1.56,1.56,0,0,1,.19.79c0,.88.07,1.77.1,2.65,0,.32,0,.65.43.84a1.75,1.75,0,0,0,.06-.34c.06-1.84.11-3.69.16-5.54a.47.47,0,0,0-.06-.31C24.69,19.42,24.3,19,23.9,18.47Zm3.51,55.8-.17.08c-.06.79-.14,1.58-.19,2.37a.52.52,0,0,0,.1.31c.63.89,1.28,1.77,2,2.81V77.05a.43.43,0,0,0-.1-.23C28.53,76,28,75.12,27.41,74.27Zm5.91,8.55H32.21c-.06.94-.24,1.85.43,2.63a.8.8,0,0,1,.15.29c0,.23,0,.47.06.7-.23,0-.45,0-.68-.06a.58.58,0,0,0-.14,0c-.27.24-.12.44,0,.64l1.29,1.69c.09.11.2.2.43.44a4.63,4.63,0,0,0-.13-1.64,3.51,3.51,0,0,1-.33-1.75C33.3,84.83,33.32,83.87,33.32,82.82Zm99.19,8.23v-.27l-19.85.52v.16ZM22.68,24.56c0,.07-.1.13-.1.2,0,.82,0,1.64,0,2.46a.82.82,0,0,0,.2.52c.31.33.66.62,1,1C24.27,26.76,24,25.81,22.68,24.56ZM139.7,91l.2,0v-.49l.09-5.54c0-.66,0-1.33,0-2,0-.14-.19-.28-.29-.42-.11.13-.32.25-.33.39-.06,1.07-.1,2.14-.1,3.22,0,.18.21.37.34.58a2.17,2.17,0,0,0-.24.77C139.46,88.64,139.59,89.81,139.7,91ZM26.18,31.33l.19-.09c0-.52,0-1,0-1.56a1.28,1.28,0,0,0-.86-1.26.55.55,0,0,1-.47-.55c0-.33-.08-.64-.51-.8,0,.74,0,1.42,0,2.11a.85.85,0,0,0,.14.45C25.16,30.21,25.67,30.77,26.18,31.33Zm-1.13,40a21.12,21.12,0,0,1,0,2.12c-.1.94.45,1.5,1.12,2.21,0-.75,0-1.34,0-1.93A2.79,2.79,0,0,0,25.05,71.3ZM23.89,75a1,1,0,0,0-.22-1.13c-.68-.9-1.35-1.82-2-2.73a5.35,5.35,0,0,0-.41-.4c0,.73,0,.82.33,1.33C22.29,73.06,23.07,74,23.89,75ZM28,31.71c-.49,1.43.19,2.3,1.06,3.12C29.71,33.44,28.66,32.72,28,31.71ZM129.16,21.36a23.11,23.11,0,0,0-5.08-3.28,38.75,38.75,0,0,0,4.76,3.29C128.91,21.41,129,21.37,129.16,21.36ZM87.35,91.27l.2.06a1.26,1.26,0,0,0,.17-.44c0-1.77-.07-3.53-.12-5.3,0-.12-.13-.24-.25-.44ZM30.43,78.82l-.24,0c0,.82,0,1.64,0,2.46a.6.6,0,0,0,.64.67C30.66,80.9,31.2,79.78,30.43,78.82ZM32.7,10.67c.39.4.61.41,3.36.26l3.37-.17v-.09ZM30.07,34.84c-.1,1.46.06,2,.71,2.63C31.25,36.87,31,36.09,30.07,34.84ZM20.12,20.32a2.93,2.93,0,0,0-.63-2.62C19.69,18.55,19.09,19.58,20.12,20.32Zm-.09-3c-.48-.56-.32-1.21-.32-1.84,0-.33,0-.66,0-1a.6.6,0,0,0-.4-.68c0,.88.1,1.75.11,2.62A1,1,0,0,0,20,17.36ZM138.69,45.7a10.14,10.14,0,0,0,.05,3.11A10.8,10.8,0,0,0,138.69,45.7ZM27.34,32.54c0-.69.35-1.44-.28-2C27.05,31.21,26.78,31.93,27.34,32.54Zm-5.23-9.93a5.26,5.26,0,0,0-1-2.05C20.8,21.69,21.63,22.05,22.11,22.61ZM135.71,91l0-.17h-2.55a.46.46,0,0,0,.38.17C134.28,91,135,91,135.71,91Zm-50,.7c.85-.13.85-.13.77-.88Zm-67.29-79V14C18.88,13.17,18.88,13.17,18.43,12.65ZM137.58,90.91l0-.28a1,1,0,0,0-1,.28ZM85.31,92.18l0,.2h1v-.06Zm5.35,0v0h1v0Zm49.45-13.66h-.06l0,.61h0ZM35.51,30.06c.29.43.48.43.69,0Zm0,.78L35,30.52l0,.67ZM134.08,93.7h.1l0-.49h-.14Z"/><path d="M118.72,12.15c1.7.46,15.9,9.87,18.39,12.07-.31.15-.48-.08-.65-.19-1.48-1-3-2-4.44-3l-11.79-7.84C119.72,12.83,119.23,12.48,118.72,12.15Z"/><path d="M45.32,9c6.56-.08,13.12-.14,19.68.05A182,182,0,0,1,45.32,9Z"/><path class="cls-1" d="M28.07,53.89h.06V52.35h-.06Zm.22-4-.06,0v1.61h.06Zm-.33,5h-.05v1.4H28Zm-.2,3.82,0,0V57.49h0ZM27.63,60h0v1.14h0Zm-.17,2.52h0v1h0Z"/><path class="cls-1" d="M23.64,55.17l0,0v.58h0Zm-.33,3.33h0v.23h0Z"/><path d="M86.46,64.51c-.69-1.89-.67-22.81-.08-26.42,0,4.41,0,8.81,0,13.22S86.7,60.11,86.46,64.51Z"/><path d="M79.85,39.43c0-.56,0-1,0-1.38a1.28,1.28,0,0,1,1-1.29,2.26,2.26,0,0,1,2,.31A1,1,0,0,1,83,38.72a1.26,1.26,0,0,0-.24.82.94.94,0,0,1-.59,1c-.38.2-.69,0-1-.26a1.42,1.42,0,0,1-.41-.4A.73.73,0,0,0,79.85,39.43Zm1.94,0a4.32,4.32,0,0,0,.26-.82.52.52,0,0,0-.23-.44.46.46,0,0,0-.63.21C80.94,38.87,81.08,39.15,81.79,39.48Z"/><path d="M39.6,35.45l5.93-5.35.11.09a1.48,1.48,0,0,1-.19.35,13.54,13.54,0,0,1-3.38,3,4.24,4.24,0,0,0-.68.6l-1.63,1.51Z"/><path d="M37,35.41A17.6,17.6,0,0,1,41.73,31l-4.64,4.55Z"/><path d="M36.24,41.29c.28-1.1,1.9-2.6,3.81-3.44Z"/><path d="M41.2,85.78l-2.93,3-.16-.15A9.28,9.28,0,0,1,41,85.58Z"/><path d="M40.24,65.69C39.4,67.28,38,68.46,37,69.94A19.19,19.19,0,0,1,40.24,65.69Z"/><path d="M36.69,74.66c-.37-1.11.24-1.85.85-2.58Z"/><path d="M93,40.18c-1.09,0-1.62-.51-1.59-1.52a4.84,4.84,0,0,1,.28-1.36c.31-.88.61-1,1.49-.93a1.56,1.56,0,0,1,1.33,1.37,6.71,6.71,0,0,1-.31,1.77A1,1,0,0,1,93,40.18Zm-.51-1.79v.29c0,.25.09.44.37.48s.39-.14.46-.37.21-.51.27-.77a.55.55,0,0,0-.39-.65c-.29-.11-.47.05-.54.34S92.55,38.24,92.51,38.39Z"/><path d="M133.9,79.36a8.12,8.12,0,0,1,2.73-2.61L134,79.49Z"/><path d="M129,89l1.05-.6c-.11.44-.08.76-.44.92S129.21,89.35,129,89Z"/><path d="M126.92,88.1l.84-.79.11.11-.84.79Z"/><path d="M130.72,87.48l.39-.52.14.1-.38.55Z"/><path d="M28.07,53.89V52.35h.06v1.54Z"/><path d="M28.29,49.86v1.58h-.06V49.83Z"/><path d="M28,54.86v1.4h-.05v-1.4Z"/><path d="M27.76,58.68V57.49h0v1.22Z"/><path d="M27.63,60v1.14h0V60Z"/><path d="M27.46,62.49v1h0v-1Z"/><path d="M23.79,53v1.24h-.05c0-.4,0-.81.05-1.22Z"/><path d="M23.64,55.17v.56h0v-.58Z"/><path d="M23.31,58.5v.24h0v-.23Z"/></svg>