<svg id="Layer_1" data-name="Layer 1" xmlns="http://www.w3.org/2000/svg" viewBox="0 0 160 112" width="160mm" height="112mm" ><defs><style>.cls-1{fill:#fff;}</style></defs><title>sketch</title><path d="M64.2,62.3a1.72,1.72,0,0,0-.27.27,8.88,8.88,0,0,0-1.84,2.81,8.94,8.94,0,0,1-6.85,4.07c-.8.06-1.6.06-2.4.11a7.75,7.75,0,0,0-4.07,1.71.82.82,0,0,0-.2.25A19.64,19.64,0,0,0,46.45,78a57.48,57.48,0,0,0-.22,7.76,33.52,33.52,0,0,1-.41,5.3q-.57,3.52-1.2,7c-.08.44-.27.86-.39,1.3,0,.08,0,.18,0,.27a1.27,1.27,0,0,1,0,.38c-.25.89-.5,1.77-.79,2.64a.72.72,0,0,1-.46.37c-1.29.27-2.58.49-3.87.76a1,1,0,0,1-1.22-.77.31.31,0,0,1,.06-.25s.16,0,.25,0,0,0,.07,0c.6.28.65.26.72-.45l-.24.11a.43.43,0,0,1-.6-.15.41.41,0,0,1,.19-.58,4.35,4.35,0,0,1,.76-.35.8.8,0,0,0,.58-.64,35.93,35.93,0,0,0,1.08-4.62A57.86,57.86,0,0,0,41,89.8c0-1.62-.16-3.23-.28-4.84a5.4,5.4,0,0,0-.24-1c-.31-1.19-.61-2.38-.94-3.56a39.33,39.33,0,0,1-1.18-6.08c-.14-1.27-.2-2.55-.36-3.82a54.82,54.82,0,0,1-.32-8.2c0-1.32.17-2.64.24-4a2.89,2.89,0,0,0-.11-.47,3.86,3.86,0,0,1-.08-.82c.07-1.12.18-2.23.26-3.35,0-.39,0-.79,0-1.18l-.12.05a2,2,0,0,1-.5-.13q-4.16-2.16-8.29-4.35a.57.57,0,0,0-.72,0,4.37,4.37,0,0,1-1.19.8,6.38,6.38,0,0,0-2.41,1.91,21.57,21.57,0,0,0-2.34,2.63,12.9,12.9,0,0,0-2.06,4.31,15.11,15.11,0,0,0-.2,2.71,6.46,6.46,0,0,0,0,.88,2.56,2.56,0,0,0,.19.61,2.51,2.51,0,0,0-.06,2,5.68,5.68,0,0,0-.15.87c0,1.17.07,2.33,0,3.49s-.14,2.39-.26,3.57c-.16,1.57-.37,3.13-.55,4.7,0,.1.07.21.1.33a1.67,1.67,0,0,1,.11.44A20.73,20.73,0,0,1,18.67,83c-.13.49-.3,1-.41,1.46a2.84,2.84,0,0,1-1,1.61,2,2,0,0,1-1.66.57c-.57,0-1.14-.08-1.71-.15-.25,0-.62,0-.61-.37,0-.18.3-.36.5-.5,0-.25.41-.56,0-.86.7-.53.72-1.39,1-2.11a8.62,8.62,0,0,0,.28-.93l-1,.29L14,81.85a8.28,8.28,0,0,1,.79-.52,1.2,1.2,0,0,0,.61-.78,19,19,0,0,0,.73-4.23,1.21,1.21,0,0,1-.36.18.84.84,0,0,1-.31,0c0-.1,0-.25.08-.28.74-.31.64-1,.62-1.55,0-.24,0-.48,0-.72,0-.08-.05-.2-.1-.22-.33-.11-.24-.23-.07-.43a.81.81,0,0,0,.16-.48,40.91,40.91,0,0,0-.91-8.55,59.7,59.7,0,0,1-1.4-8.9c-.12-2.38-.08-4.78,0-7.16A22.46,22.46,0,0,1,14.42,45c0-.16.15-.33-.12-.42-.07,0-.09-.27-.07-.4.17-1.09.36-2.18.54-3.27l.16,0L14.57,44c.17-1.39.87-2.69.74-4,.17-.22.34-.36.38-.53.2-.8.38-1.61.51-2.42,0-.2.05-.6-.3-.52-.11-.17-.16-.31-.26-.37-.29-.2-.62-.35-.91-.56a.62.62,0,0,1-.24-.39c-.25-2.22-.14-4.45-.17-6.67a2.24,2.24,0,0,0-.1-.37,1,1,0,0,1,0-.39,7.43,7.43,0,0,0,.13-.93c-.06-1.76-.14-3.52-.24-5.27A14.22,14.22,0,0,0,13.86,20l-2-.82,0-.14.53.08-.21-.46c.32.12.61.12.61.5a.19.19,0,0,0,.09.14c.31.1.63.18,1,.29-.05-.41.06-.72-.43-.92a11.22,11.22,0,0,1-1.62-1,.65.65,0,0,1-.32-.63c0-.64.06-1.28.06-1.92,0-.37-.06-.74-.1-1.12a4.49,4.49,0,0,1,1.84-.19c1.15,0,2.29,0,3.44,0a2.09,2.09,0,0,0,.62-.27,1.21,1.21,0,0,1,.25-.08c.58-.06,1.17-.12,1.76-.23l-1.08-.17,0-.18,3.21.22c-.07.35,0,.53.44.53a15.19,15.19,0,0,0,1.91-.13c1.09-.14,2.16-.36,3.25-.47,2.28-.23,4.56-.42,6.84-.62l5.54-.47c2.65-.22,5.31-.48,8-.66,3.81-.27,7.62-.55,11.43-.69,3.48-.13,6.91-.71,10.36-1,3.22-.29,6.43-.64,9.65-.85,3.65-.25,7.31-.38,11-.55.31,0,.62,0,.93,0v.14c-.46.06-.92.14-1.38.17-3.83.22-7.66.39-11.48.67s-7.84.66-11.77,1a7.76,7.76,0,0,0-1.06.16l3.61-.15c3-.11,6.06-.2,9.09-.35,3.36-.17,6.71-.38,10.07-.61,2.82-.19,5.64-.45,8.46-.66,1.88-.13,3.76-.22,5.64-.32h.43v.15l-2.72.41a5.63,5.63,0,0,0,2.59.94,4.75,4.75,0,0,1,.92,0c.38,0,.43.19.18.57,1.35.33,2.69.63,4,1s2.9.72,4.33,1.15a95.07,95.07,0,0,1,10,3.43l.07,0c.73.25.69.24.66,1s0,1.73,0,2.61a10.06,10.06,0,0,1-1.13.24c-.44,0-.59.26-.57.67,0,.09,0,.18,0,.31-.51,0-.47.35-.46.74.07,2.63.11,5.26.19,7.89a4.35,4.35,0,0,0,.28,1c0,.13,0,.27.1.51,1.29.49,2.62,1.07,4,1.51,4.58,1.47,9.16,2.89,13.74,4.34a9.73,9.73,0,0,1,1.1.49.13.13,0,0,1,.1.13c-4.31-1.15-8.52-2.59-12.78-3.85a110.34,110.34,0,0,0,16.68,5.15l-.62-.42,0-.08.65.22c.36.12.71.35,1.12.19l3.52,1.6s0,.05.06.16l-1.31-.22c0,.61-.11,1.2-.14,1.79,0,.07.18.15.27.23a2.61,2.61,0,0,1,.24.23.87.87,0,0,1-.27.17c-.45.08-.91.14-1.44.22l.4,1.62h.06l-.12-1.38h.1a74.1,74.1,0,0,1,.69,9.43.81.81,0,0,1-.1-.18.51.51,0,0,0-.07-.17c0,1.06,0,2.12,0,3.18s0,2.35,0,3.53c0,.12-.15.24-.19.37a3.77,3.77,0,0,0-.2.75c-.09,1-.09,2-.25,3s-.49,2.19-.75,3.27c-.16.68-.35,1.34-.52,2a1.61,1.61,0,0,0,0,.38l.1,0c0-.12.1-.23.13-.34.37-1.6.67-3.22,1.13-4.79a20.19,20.19,0,0,0,.51-3.08h.09a25.1,25.1,0,0,1-.23,2.74c-.38,2-.77,4.09-1.31,6.09-.34,1.32-1,2.57-1.42,3.86a28.4,28.4,0,0,0-1,3.45c-.27,1.36-.36,2.75-.54,4.12-.11.77-.27,1.53-.34,2.3a12.7,12.7,0,0,0,.39,5.31c.13.38.52.67.7,1a4.14,4.14,0,0,1,.28,1.06c0,.06-.12.2-.21.22-.63.19-1.25.38-1.89.53a.93.93,0,0,1-.54-.07c-1.4-.61-1.37-.63-1.85-2.08a14.87,14.87,0,0,1-.52-6.25c.23-2.36.54-4.71.66-7.08a30.39,30.39,0,0,0-.59-9.12c-.36-1.4-.87-2.77-1.33-4.15,0-.08-.17-.13-.26-.19s-.23-.09-.3-.18a10.57,10.57,0,0,1-.83-1.07,1.05,1.05,0,0,0-1.36-.48c-.08,0-.18.11-.25.1a5.88,5.88,0,0,1-2.42-.63c-.36-.24-.75-.44-1.12-.68a11.72,11.72,0,0,1-3.53-3,.71.71,0,0,0-.74-.3c-2.5.14-5,.28-7.52.4a6.59,6.59,0,0,1-.87-.09l0-.19a2.56,2.56,0,0,1,.58-.22c.87-.09,1.75-.19,2.63-.23,1.72-.08,3.44-.12,5.16-.18l.17,0c-.09-.27-.19-.43-.5-.4l-8.75.68c-.24,0-.47.07-.7.1,0,.65,0,1.27,0,1.89a34.24,34.24,0,0,1-.85,6.21c-.23,1.07-.55,2.12-.82,3.18a3.05,3.05,0,0,0-.07.67c0,.84,0,1.68,0,2.52a10.93,10.93,0,0,0,1.55,5.48,1.62,1.62,0,0,1,.22.86c0,.21-.19.55-.36.59a4.6,4.6,0,0,1-1.78.25,1.74,1.74,0,0,1-1.3-1.43,22.15,22.15,0,0,1-.74-3.88c-.15-1.44-.44-2.87-.65-4.3s-.43-3-.63-4.56a11,11,0,0,0-2-5.25.63.63,0,0,0-.67-.29q-4.77.63-9.56,1.21a2.94,2.94,0,0,1-1-.08,38.78,38.78,0,0,1,5.35-.79l5.37-.61c-.32-.56-.45-.63-1-.56-3.89.5-7.78,1-11.68,1.49-4.12.49-8.25.92-12.37,1.4a3.38,3.38,0,0,0-1.13.39,3.69,3.69,0,0,1-1.53.39c-.22,0-.44.06-.68.1,0,.11.14.22.12.31a.59.59,0,0,1-.18.36c-.06,0-.23,0-.33-.08a1.59,1.59,0,0,1-.32-.26l-.11.06a2.21,2.21,0,0,1,.14.41,5.16,5.16,0,0,1,.08,1.17.92.92,0,0,1-1,.83.87.87,0,0,1-1-.8,3.65,3.65,0,0,1-.19-2.12c0-.12-.08-.31-.14-.5a15.69,15.69,0,0,1-1.68.44c-1.1.17-2.22.28-3.33.41a.5.5,0,0,0-.12,0,29.8,29.8,0,0,1-3.28.49,5.7,5.7,0,0,1-1.81.24,4.82,4.82,0,0,0-2.62.72c-.23.11-.23.09-.31-.08l.81-.46C64.35,61.71,64.27,61.76,64.2,62.3ZM22.79,33.14c.51.27,1,.52,1.55.82s.8.66,1.26,0l-.33.51.44.27.78-1,.06.05-.68,1.06,1.08.66A2.83,2.83,0,0,0,27.1,35c0-2.46,0-4.93,0-7.4a.86.86,0,0,0,0-.17c-.55.74-1.08,1.47-1.63,2.18-.29.38-.66.7-.94,1.08-.53.71-1,1.43-1.54,2.15a2.72,2.72,0,0,0-.16.35c-.05,0-.11,0-.14.07-.6.74-1.19,1.49-1.81,2.27l.7.43L23,34.23l.12.1-1,1.94.66.38,2.17-2-.53-.35Zm1.87-7.42-.58,1a42.72,42.72,0,0,1-3.72,5.16c-.22.25-.53.48-.62.77A4.07,4.07,0,0,1,19,33.82l-.16.24.77.54a23.81,23.81,0,0,1,3.05-4.16,13.62,13.62,0,0,1-2.94,4.25l.7.46,1-1.44.13.3a.46.46,0,0,0,.12-.09c.91-1.52,2.24-2.74,2.95-4.41a29.83,29.83,0,0,1,1.54-2.76.66.66,0,0,0,.09-.48c-.2-.47-.46-.92-.7-1.38l-.87.84.7-1.11-1.13-1.15-.09.09v.27c-.49.13-.7-.12-.84-.53A.58.58,0,0,0,23,23L20.13,21.8l-.74,1,.06.05.76-.49a2.8,2.8,0,0,1,0,.72,2.39,2.39,0,0,1-.39.65,19.63,19.63,0,0,0-1.95,2.56,20.16,20.16,0,0,1-1.53,2.2c-.23.32-.48.64-.74.94-.06.08-.2.09-.38.15l.09.89A3,3,0,0,0,16,30c.88-1.22,1.73-2.47,2.61-3.7.73-1,1.48-2,2.24-3a6.71,6.71,0,0,1,.71-.7l.15.1a2.2,2.2,0,0,1-.17.45c-.36.53-.74,1-1.1,1.57a1,1,0,0,0-.14.26c.3.2.05.39,0,.54a5.39,5.39,0,0,1-.59.85,34.33,34.33,0,0,0-3.33,5c-.33.6-.32.6.23,1l.14.07L20.27,27l.13.09-3.29,5.69.38.31c.11-.14.19-.25.29-.36a11.38,11.38,0,0,1,1.35-1.57,5,5,0,0,0,1-1.15l3.64-5.46a3.85,3.85,0,0,1,.27-.3l.1.06a1.6,1.6,0,0,1-.13.3L19.17,32a3.66,3.66,0,0,1-.54.64c-.24.23-.52.44-.83.69l.65.46c1.58-2.14,3.11-4.26,4.68-6.35C23.6,26.84,24.15,26.29,24.66,25.72Zm4.21,11.73c-.08.77-.08.77.5,1.06,2.66,1.34,5.33,2.66,8,4,1.07.55,2.06,1.3,3.17,1.78,2.83,1.22,5.7,2.35,8.55,3.5a1,1,0,0,0,.39.07c1.31-.08,2.62-.14,3.92-.25,5.26-.46,10.49-1.26,15.78-1.43,2.18-.07,4.36-.36,6.54-.56l8.57-.76,8.82-.75L107,43l7.94-.67,12.06-1c1.42-.11,2.85-.17,4.27-.3a28.1,28.1,0,0,0,4.17-.51,27.24,27.24,0,0,1,4.06-.38c.35,0,.7-.09,1.06-.13l0-.18c-1.44-.61-2.86-1.29-4.34-1.83-3.85-1.42-7.73-2.79-11.6-4.18-1.25-.44-2.51-.89-3.78-1.29-.8-.25-1.63-.41-2.44-.62-.19-.05-.37-.14-.56-.21l0-.08.62.1c0-.12-.07-.23-.09-.23h-1.37a2,2,0,0,0,.39-.15,1.67,1.67,0,0,0,.25-.28c-.12-.05-.24-.16-.36-.16a5.51,5.51,0,0,0-.79.1c-1.54.25-3.08.57-4.64.74a33.75,33.75,0,0,1-5.78.35c-1.15-.07-2.31.1-3.47.13-2.08.07-4.16.1-6.24.18-1.37.06-2.75.16-4.11.26-2.28.17-4.55.38-6.82.55l-5.59.4c-2.6.2-5.21.41-7.81.64a9.23,9.23,0,0,0-2.94.51,2.07,2.07,0,0,1-.55.11l-6.22.49c-2.53.19-5.05.41-7.58.57-4.83.29-9.65.55-14.48.82l-9.6.55C30.11,37.31,29.53,37.69,28.87,37.45Zm.87-13.74a2.36,2.36,0,0,0,.59.13c1.08,0,2.16-.05,3.24-.12,3.71-.22,7.43-.5,11.15-.68,5.87-.28,11.72-.76,17.61-.67,3.32.05,6.65-.1,10-.21,4.28-.16,8.57-.32,12.84-.58,3-.19,6-.54,9-.85,5.47-.56,10.94-.85,16.44-.93,2.24,0,4.47-.19,6.71-.32,1-.06,2.07-.2,3.11-.25s.9,0,1-.89c0,0,0,0,0-.08-.55,0-1.11.1-1.66.18-.1,0-.18.14-.26.22a.74.74,0,0,1-.51,0,.45.45,0,0,1-.28-.29c0-.1.14-.23.24-.31a.62.62,0,0,1,.31-.08l2-.15c.1,0,.18-.11.27-.16l-.06-.12-2.73.35a1.27,1.27,0,0,1-.43-.14c.13-.1.23-.25.37-.29a5.72,5.72,0,0,1,.83-.12l1.84-.24,0-.11a2.6,2.6,0,0,0-.46-.25c-5.75-1.79-11.49-3.59-17.24-5.35-1.53-.47-3-1.12-4.72-.89a23.14,23.14,0,0,1-2.87-.1c-2.29,0-4.59,0-6.88.07-.88,0-1.76.11-2.64.17-1.42.09-2.85.19-4.27.3-1.22.08-2.45.16-3.67.26-1.5.12-3,.28-4.51.36-.6,0-1.21-.15-1.81-.13-1.65,0-3.29.17-4.93.24l-10,.46-5.58.21h5v.07L40.76,13v-.09L43,12.77v-.06l-3,.14V13l.34.06c-.47,0-.83,0-1.18,0-2.42.16-4.85.3-7.27.51s-4.86.06-7.24.62a7.22,7.22,0,0,1-1.4.1l-9.45.31c-.45,0-.56.09-.47.54a.71.71,0,0,0,.34.37c.73.39,1.55.53,2.3.86,1.6.71,3.24,1.33,4.86,2,.45.18.88.4,1.33.56,1,.34,1.82,1.05,2.91,1.07,0,0,.07,0,.11.06l.86.59.32.21,0,.12-.9-.18c.08.34.18.64.22.95a.7.7,0,0,0,.49.61c.29.13.56.3.84.46l-.06.14-1-.3c0,.6,0,.6.44.53.05,0,.1,0,.16,0,.45-.07.51.41.75.56a2.34,2.34,0,0,0,.49-1.84l.16,0v1.93c.24,0,.45.11.6-.2,0-.09.56-.11.6,0C29.34,24.13,29.58,23.78,29.74,23.71Zm9.67,54.12-.14,0a2.13,2.13,0,0,0,.06.45c.64,1.58,1.23,3.19,2,4.74a6.89,6.89,0,0,1,.54,3.74c0,.08-.13.15-.21.24v3.73h.09L42,87.45h.19c0,.61.05,1.23.07,1.84,0,.28,0,.56,0,.84a9,9,0,0,1,.12,1.54c-.24,2-.54,4-.82,6-.08.53-.15,1.07-.25,1.71.34-.28.58-.46.8-.67A8.61,8.61,0,0,0,44.7,94a18.49,18.49,0,0,0,.4-2.7c0-1.41.33-2.81.37-4.22,0-1.18-.18-2.37-.21-3.55a29.06,29.06,0,0,1,.28-5.27c.15-1,.32-2,.46-3.08a8.79,8.79,0,0,1,.77-2.88,2.19,2.19,0,0,0,.17-.62,4.19,4.19,0,0,1,.82-2,1.7,1.7,0,0,1,1.68-.86s.08,0,.12,0a26.51,26.51,0,0,1,4.35-.53,5.35,5.35,0,0,0,3.43-.95,17.86,17.86,0,0,1,1.72-1.09,1.57,1.57,0,0,0,.26-.19c.06-.06.12-.14.19-.2-2.27,1.39-4.85,1.58-7.36,2a12.52,12.52,0,0,1,1.71-.41c2.58-.48,5-1.18,7-3.06A10.58,10.58,0,0,0,62.38,62l-.28,0c-.22,0-.51.16-.6-.18a1.37,1.37,0,0,1,.54-.24A7.66,7.66,0,0,0,64.49,61c.65-.35,1.33-.67,2-1a3.89,3.89,0,0,0-1,.09,11.89,11.89,0,0,1-3.62.2,1,1,0,0,1-.6-.17,1.34,1.34,0,0,0-.93-.42c0-.07,0-.12,0-.17-.08-1.29-.16-2.59-.25-3.88a2.3,2.3,0,0,0-.15-.49l-.19,0c0,.56-.08,1.12-.09,1.69s0,1.14,0,1.7a10.71,10.71,0,0,1,.06-4.88.63.63,0,0,0-.1-.33c-.05-.1-.12-.2-.19-.31l-10.47.6,0-.15c1.64-.7,3.45-.58,5.14-1s3.46-.63,5.19-.93l0-.13-1.42.23a29.58,29.58,0,0,1-6.3.61c-1-.06-2,0-3,0a1.49,1.49,0,0,1-1.53-.69.34.34,0,0,0-.17-.11L45.16,51c-.27.5-.27.5.2.81.18.12.35.25.52.38l-.06.11-1-.34a.35.35,0,0,0-.08.12,27.23,27.23,0,0,0-2.65,9.47,2.81,2.81,0,0,1-.12.48,5.55,5.55,0,0,1-.14-2.74c-.87,2.69-1.61,11.8-1.09,13.41,0-.34,0-.64.11-.94.1-.51.28-1,.34-1.53.23-2,.4-4,.64-6a7.94,7.94,0,0,1,.45-1.38l.12,0a68.91,68.91,0,0,0-.74,14.91h-.17L41.21,76c-.19.61.25,1.38-.42,2-.15-.75-.28-1.48-.43-2.2s-.34-1.57-.53-2.35c0-.09-.14-.16-.21-.24a3.07,3.07,0,0,0-.17.31.26.26,0,0,0,0,.12q.38,2.72.76,5.42c0,.24.11.47.16.71l-.08,0ZM73.6,23.57a13,13,0,0,0-2.07,0,75.57,75.57,0,0,1-8.21.82c-4.51.18-9,.29-13.53.42-2.88.09-5.77.14-8.65.23-1.81.06-3.62.18-5.44.27-1.45.07-2.9.16-4.36.2-.47,0-.58.28-.65.62A8.51,8.51,0,0,0,31,29.48l.09-2H31l-.22.35L31.32,26h.1a1.92,1.92,0,0,1,0,.32c0,.42,0,.83,0,1.24a34.05,34.05,0,0,0-.23,4.95,27.25,27.25,0,0,1,0,3.14c5.37-.2,10.79-.48,16.19-1a10.92,10.92,0,0,1-1.67-.85.85.85,0,0,1,.45,0,5.83,5.83,0,0,0,1.46.53c.92.08,1.87,0,2.8,0,.26,0,.51-.06.76-.07.74,0,1.49,0,2.23,0S54.87,34,55.59,34c4.63-.31,9.27-.59,13.91-.89A12.22,12.22,0,0,0,71,32.88c.56-.1,1.11-.26,1.67-.36s.49-.12.35-.52a.93.93,0,0,1,0-.24c-.07-.54-.13-1.08-.2-1.62-.11-.85-.22-1.69-.33-2.5L73,27.4l.49,3.14.15,0Zm41.2-2.2c-1.4,0-2.85.07-4.3.13q-3.3.16-6.6.37c-1.77.12-3.54.27-5.31.42l-6.22.55c-2.28.21-4.57.41-6.85.66-3.16.36-6.31.83-9.49.88l-.47,0a39.16,39.16,0,0,1-.32,8.38l2.12-.17-1.51-2.38.1-.07c.08.1.16.19.23.29a12.34,12.34,0,0,1,.88,1.34,1.19,1.19,0,0,0,1.57.72s0,0,.07-.06l-.18-.31a2.14,2.14,0,0,0,2,.19,12.28,12.28,0,0,1-2.59-3.57c.33.37.59.79.91,1.16.61.72,1.26,1.41,1.9,2.1.14.15.2.37.51.36,3.21-.08,6.41-.12,9.62-.18.9,0,1.81,0,2.72-.11,3.29-.36,6.59-.75,9.88-1.12-.92.09-1.85.15-2.77.22-3.28.24-6.55.56-9.83.72-2.07.1-4.16,0-6.24,0a2.64,2.64,0,0,1-.6-.15,4.81,4.81,0,0,1,.74-.06c2.79-.16,5.59-.31,8.39-.51,3-.22,6-.5,8.93-.73,2.66-.2,5.33-.4,8-.54a45.83,45.83,0,0,0,6.3-.48c.59-.12,1.2-.17,1.78-.25l.41-4.74H118c0,.59,0,1.15,0,1.71s0,1.15-.07,1.72a.64.64,0,0,1-.34.45c-.27.05-.36-.21-.38-.45a2.17,2.17,0,0,1,0-.36c0-.64.06-1.28.07-1.92,0-1.13,0-2.27.09-3.4a3.09,3.09,0,0,1,.16-.65s.07,0,.12-.05l.22.29c0-.11,0-.19.08-.23s.23-.27.35-.27.23.18.28.31a4.26,4.26,0,0,1,.13.64l.11,0c0-.29,0-.68-.11-.85-.42-.44.51-.45.19-.79l-.07-.1-2.09.19v.06l.57.15c-.64.54-1.42.36-2.14.55a9.67,9.67,0,0,1,1.68,2.44c.1.16.08.34-.2.34a2.93,2.93,0,0,1-2.31-1.32s0-.09,0-.26l1.53,1,.06-.08-1-1.67A2.53,2.53,0,0,1,114.8,21.37ZM143,44.14a2.37,2.37,0,0,0-1.86-.7c-2,.12-4.09.15-6.13.25-1.39.07-2.79.2-4.18.31l.06.13c-.08.08-.15.22-.25.25a7.68,7.68,0,0,1-1,.26c-.42.09-.85.15-1.2.21l.26,7.65,1.16-.12,0,.17c-1,.42-2.08.48-3.09.86a2.88,2.88,0,0,0,1.4,0,1,1,0,0,1,.53,0,1.53,1.53,0,0,1,.38.27c.12.54.2,1.11.37,1.65a3.76,3.76,0,0,0,1.73,2.2l2.07,1.19a.84.84,0,0,0,.33.13,16,16,0,0,0,1.81.16,1.11,1.11,0,0,1,1,.51,16.47,16.47,0,0,1,2.4,4.68c.15.48.32,1,.48,1.44-.08-2-.87-3.9-.73-5.93a.73.73,0,0,1,.16.33A57.8,57.8,0,0,1,140,66.76c.12,1.24.35,2.47.45,3.71a17.51,17.51,0,0,1,0,2.71c-.05,1-.17,2-.3,2.94-.11.8-.3,1.58-.42,2.37,0,.26.08.55,0,.82-.06.53-.19,1-.27,1.58,0,.24-.06.48-.08.72l0,.66c.37-1,.74-1.9,1-2.86.24-.81.37-1.64.57-2.46a11.58,11.58,0,0,0,.35-3.37c-.08-1.76-.16-3.52-.23-5.28,0-1.06-.07-2.13-.1-3.2a1.58,1.58,0,0,1,.09-.36l.15,0c.05.6.15,1.2.16,1.8,0,2.57.1,5.13.07,7.69a28.34,28.34,0,0,1-.37,4c-.21,1.28-.69,2.51-.87,3.78-.24,1.65-.32,3.32-.42,5-.05.84,0,1.69,0,2.54,0,.09.15.25.23.25a3.37,3.37,0,0,0,1.86-.29l-.31-1.14c-.09-.31-.17-.63-.25-.94a4.29,4.29,0,0,1-.15-.78c0-.49,0-1,0-1.48.12-2.11.14-4.23.4-6.31a39.34,39.34,0,0,1,1.12-4.59c.38-1.48.78-3,1.16-4.45.24-1,.44-1.93.69-2.89s.51-1.83.73-2.75c.72-3,.54-6,.67-9.08.09-2.1-.13-4.21-.24-6.32a12,12,0,0,0-.59-3.94c-.05-.11-.09-.23-.13-.34l-.12,0c0,.16-.05.32-.06.48a13.24,13.24,0,0,0,.41,2.8,26.87,26.87,0,0,1,.3,6.88c-.05.48-.05,1-.08,1.44h-.12c0-.26,0-.52,0-.78a44.93,44.93,0,0,0-.33-4.51c-.35-2-.9-4-1.36-6a.4.4,0,0,0-.52-.34c-.84.09-1.67.16-2.51.27l-6,.76-3.69.5v2.41a9.28,9.28,0,0,1,2-1.08.93.93,0,0,1-.29.42c-.41.3-.83.59-1.25.87-.58.38-.62.45-.48,1.17l1.56-.89.2.25a2.93,2.93,0,0,0-.4.19c-.4.26-.81.52-1.19.81a1.15,1.15,0,0,0-.3.42,5.1,5.1,0,0,0-.19.55l-.1,0-.15-.56-.94.39c-.09-.38-.15-.66-.22-1a5.05,5.05,0,0,1-.08-3.1,2.26,2.26,0,0,1,.13-.2l.14,0v2.81l.79-.59c.09-.08.22-.19.23-.29.08-.86.14-1.72.21-2.61h-1.52v-.11ZM78.47,52.65c.18,0,.5,0,.51.06.1.47.5.68.77,1A4,4,0,0,1,80.81,56a7.67,7.67,0,0,1,0,.85l10-1.54,0,.68-5.1,2a5.51,5.51,0,0,0,2.57-.54c.77-.35,1.54-.68,2.32-1a1.17,1.17,0,0,1,.42,0v.09l-2.26,1.06,0,.11,4-.44v0l-1.14-.09V57c.11,0,.22-.06.32-.07l2.47-.31c.6-.08.6-.09.6-.73,0-1.72,0-3.44,0-5.17,0-.4,0-.79.06-1.19a.64.64,0,0,1,.14.42l0,1.81c0,1.06,0,2.13,0,3.2,0,.12.1.32.2.35a1.71,1.71,0,0,0,.71.07c1-.11,1.91-.24,2.86-.38a4.85,4.85,0,0,0,.63-.16,1.8,1.8,0,0,0-.57,0l-2.92.37a.57.57,0,0,1-.73-.61,36.92,36.92,0,0,1,.27-6,2,2,0,0,1,.24-.71.6.6,0,0,1,.36-.19c.32,0,.65-.08,1-.12a12.15,12.15,0,0,0-1.43-.18c-.65-.1-1.31.39-2-.05h0l-1.34.19c.13.21.3.37.31.54a42.94,42.94,0,0,1-.28,7,3.17,3.17,0,0,0-.1.79.61.61,0,0,1-.29.64c-.12.09-.36,0-.54,0a1.21,1.21,0,0,1-.29-.08c.19-2.28.39-4.53.59-6.83l-.65-.05-3.75-.27A8.84,8.84,0,0,0,86,49.12c-2.63.27-5.26.57-7.88.88L65.46,51.49l-2.87.34-.07-.44c3.1-.58,6.22-.94,9.33-1.33l9.33-1.14v-.11L61.83,51c.09.23.22.39.2.53-.09.85-.26,1.69-.3,2.54-.07,1.22-.11,2.45-.06,3.68,0,1,.11.94,1.08.91a5.53,5.53,0,0,1,.91,0,.4.4,0,0,1,.26.3.42.42,0,0,1-.25.29,2.34,2.34,0,0,1-.59.09l-1,.09v.09a11.67,11.67,0,0,0,1.32-.07c2.59-.41,5.18-.85,7.77-1.29.59-.09,1.18-.2,1.78-.28.23,0,.49.08.72.05.66-.1,1.31-.24,2-.37a3.24,3.24,0,0,1,0-2.84.93.93,0,0,1,.22-.31c.13-.12.29-.2.42-.33a2.51,2.51,0,0,0,.32-.41,2.06,2.06,0,0,1,0,.75,2.64,2.64,0,0,0,.52,2.48,1,1,0,0,0,1.49.21.84.84,0,0,1,.27-.08,8.66,8.66,0,0,1,.87-.12c.3,0,.39-.17.43-.45a4.08,4.08,0,0,0-1-2.92.63.63,0,0,1-.61.73,1.5,1.5,0,0,1-1.42-.47,1.23,1.23,0,0,0-.84-.55c-.14,0-.34-.23-.38-.39a.53.53,0,0,1,.25-.43,6.65,6.65,0,0,1,1.32-.63C78.37,51.53,78.61,51.76,78.47,52.65ZM127.69,45c-5,.55-9.91,1.17-14.88,1.64s-10,.81-15,1.21l0,.75.66-.38c-.12.45-.8.47-.6,1.06l.52-.34,0,0-.58.64,0,0,1.58-.84.06.11c-.47.34-1,.67-1.41,1a.72.72,0,0,0-.24.45c-.09.72-.11,1.46-.22,2.18s-.28,1.35-.45,2.12c4.46-.69,9-.85,13.38-1.54a4.53,4.53,0,0,1,1.45-4c-.72-.13-.74-.16-.53-.57-.06-.21-.18-.42-.12-.5a.61.61,0,0,1,.44-.17c.53,0,1.07,0,1.6,0,.79,0,.9.24.51.91a.31.31,0,0,1,0,.07c.5-.18.56-.12.51.39a.59.59,0,0,0,.16.4,2.26,2.26,0,0,1,.88,2.23l.29.4c4-.13,7.78-1,11.73-1.11ZM76.17,48v-.13l1.54-.19c3.13-.37,6.25-.76,9.38-1.12,1.88-.22,3.77-.4,5.66-.57,2.33-.22,4.68-.41,7-.64,2.15-.21,4.31-.41,6.45-.69,2.94-.38,5.87-.83,8.8-1.24l3.23-.42a.18.18,0,0,0-.16,0c-1.24.1-2.47.24-3.71.3-2.76.13-5.52.16-8.28.32-3.5.22-7,.47-10.49.8-4,.39-8,.9-12,1.31q-5.79.6-11.6,1.1c-3.2.28-6.41.49-9.62.76-3.43.29-6.86.61-10.29.92a1.93,1.93,0,0,0-.41.12,4.24,4.24,0,0,1-2.09.15,7.92,7.92,0,0,1-1-.19l-.06.13.42,1.1c2.46-.37,4.94-.75,7.42-1.11,1-.15,2-.29,3-.42a2.12,2.12,0,0,1,.49.06v.18a23.6,23.6,0,0,1-5.45,1.2,27.3,27.3,0,0,1-5.64.37c0,.71,0,.72.73.65l1.43-.15c.2,0,.4,0,.45-.3,0-.07.17-.15.27-.16.65-.05,1.3-.08,2-.12.06,0,.17,0,.18,0,.14.31.39.16.58.14.63-.07,1.25-.17,1.87-.26l4.34-.65,0,.09-.9.25h1.77l-8.29,1a3.21,3.21,0,0,0,1.27.22c1.23-.15,2.46-.36,3.69-.55l5.26-.79c.86-.13,1.71-.29,2.56-.39.29,0,.59.1.87.07,1.74-.15,3.48-.34,5.22-.49,2.54-.22,5.09-.42,7.63-.63,1.61-.14,3.22-.25,4.82-.43,2.19-.25,4.36-.56,6.54-.85l3.83-.5C88.64,46.65,82.42,47.49,76.17,48Zm-52.26.33a53.54,53.54,0,0,1-7.13,3c2.3-1.2,4.62-2.35,7-3.48a.65.65,0,0,0,.43-.74,52.06,52.06,0,0,0-5.48,1.71A27,27,0,0,1,24,47c-.35-.44-.66-.81-.94-1.2a.62.62,0,0,0-.75-.27c-.47.12-1,.16-1.46.24l0-.16,1.7-.4-.44-.57-.26.44-.33-.82-.42.2L21,44.33l.36-.55c-.31-.08-.57-.16-.85-.21-.58-.11-.71-.24-.74-.83s0-1,0-1.56c0-.34-.06-.67-.09-1.11L16.53,42.6l.11-1-.2-.05a2.69,2.69,0,0,0-.25.62c-.31,1.79-.63,3.57-.88,5.37-.13.93-.14,1.87-.2,2.81a43.85,43.85,0,0,1,1.45-6.09.45.45,0,0,1,0,.23c0,.2-.07.4-.12.59a36.41,36.41,0,0,0-1.06,10.55c0,.51.13,1,.2,1.51h.12c0-.2,0-.4,0-.6a5.27,5.27,0,0,1,0-.56c0-.17-.12-.41.23-.45L16,57l.17-.06a17.12,17.12,0,0,1,3.74-1.72.51.51,0,0,0,.26-.22c.37-.75.72-1.5,1.1-2.3l-3.93,2c-.13-.31,0-.45.2-.56l3.81-1.76a.9.9,0,0,0,.32-.23c.39-.45.76-.92,1.15-1.38A6.12,6.12,0,0,0,23.91,48.33Zm89.76,21-.1,0c0-.22.09-.43.13-.65.08-.51.19-1,.24-1.53a23,23,0,0,1,.31-3.54,31.32,31.32,0,0,0,.79-7.34c0-.07-.1-.15-.14-.21a6.34,6.34,0,0,0-.29.76c-.11.48-.19,1-.3,1.44a.83.83,0,0,1-1.17.61c-.12-.05-.27-.16-.28-.26-.06-.42-.26-.82,0-1.28a5.71,5.71,0,0,0,.27-1.21l-3.51.64a1.35,1.35,0,0,0,1.54.62,4.09,4.09,0,0,1,.79,0v.17h-1.52c.26.63.52,1.17.71,1.74a12.66,12.66,0,0,1,.44,1.74c.36,2.1.71,4.2,1,6.31.14,1,.2,1.91.27,2.86,0,.56,0,1.12,0,1.68a6.81,6.81,0,0,0,.83,3.39c.12.2.28.47.46.52.37.08.42.34.55.6s.24.35.36.35a10.8,10.8,0,0,0,1.22-.19,4,4,0,0,1-1.65-2.31,12.2,12.2,0,0,1-.69-4.72c0-.07,0-.15,0-.26Zm32.68-29.18c-1.93.15-3.87.27-5.8.48a13.39,13.39,0,0,0-2.1.58,9.9,9.9,0,0,1-1.3.33c-1,.13-2.06.24-3.1.32-.74,0-1.49,0-2.23.07a37.49,37.49,0,0,0-5.68.6,33.46,33.46,0,0,1-4,.62c7.81.13,15.83-.87,23.87-1.54Zm-120.93,3h.2c.08.37.17.74.25,1.11.12.57.31.74.92.8l.16-.79h.14c.05.25.08.5.15.74s.11.37.22.43c.54.28,1.1.52,1.68.79.12-.34.14-.59-.2-.78a4.49,4.49,0,0,1-.52-.37,1.38,1.38,0,0,1-.19-.28l.07-.09c.13.05.26.09.38.15s.5.37.84.19a1.28,1.28,0,0,0,.59.69c.44.22.84.51,1.26.76l.55.32a10.94,10.94,0,0,1,.14-1.59c.12-.44-.06-.6-.38-.85-1-.76-2.25-1.17-3-2.25,0,0-.05,0-.07,0L27,41.45l3.18,2.35-.1.17-6.31-3.19c.08.71.18,1.41.21,2.11a1.4,1.4,0,0,0,1.38,1.51Zm22,4.75-.33-.14c-1-.38-2-.74-2.9-1.15-2-.87-4-1.77-6-2.65a.53.53,0,0,0-.42,0c-.48.35-.93.74-1.42,1.14.3.15.58.27.84.43a.48.48,0,0,0,.58,0c.27-.19.57-.34.85-.51l.08.11-.91.67,0,.17c.71-.27,1,.33,1.42.57a.48.48,0,0,0,.38,0c.42-.25.82-.54,1.25-.79.08-.05.23,0,.35,0-.06.1-.1.23-.19.29l-1.21.79c.81.63.93.63,1.61,0,.14-.12.28-.25.43-.36a2.68,2.68,0,0,1,.4-.16c-.23.71-.77.89-1.28,1.16l1.42.73c.29-.43.53-.83.81-1.21a1.28,1.28,0,0,1,.35-.24,1,1,0,0,1,0,.46c-.14.42-.33.83-.51,1.26l.74.32-.1-.86.09,0,.38.87.8-.62.09.06-.41,1.18c1,.37,1.82,1.08,3,1l.26-1.62a9.21,9.21,0,0,1-1.31-.15c-.42-.09-.92,0-1.22-.56C46,47.58,46.66,48,47.4,47.88ZM42,57.14l.15,0,0,.33,0,0,2.26-5.77-1.05-.55c-.2.59-.4,1.12-.57,1.67a22.49,22.49,0,0,0-1.24,4.42c-.08.74-.22,1.48-.35,2.21,0,.19,0,.47-.42.52-.06-3.22,1.31-6,2.26-9l-1.45-.84L40.89,52l.37-.25A58.36,58.36,0,0,0,40,63.09a.87.87,0,0,0,.22-.33c.1-.35.18-.7.28-1a1.81,1.81,0,0,1,.19-.29,1.23,1.23,0,0,0,.25-.36c.18-.71.32-1.43.52-2.13S41.82,57.74,42,57.14ZM19.27,67.21l-.57.25c-.68.3-.69.31-.6,1.07,0,.41.1.82.16,1.25.63-.21.68-.21.92,0a3.33,3.33,0,0,1-.48.21.63.63,0,0,0-.45.73,6.54,6.54,0,0,1,.06,1.59q-.37,2.59-.84,5.16c-.12.69-.32,1.35-.5,2.1a4.79,4.79,0,0,0,1.47-2.5c.26-1.47.44-3,.72-4.42s0-2.94.19-4.41A5.87,5.87,0,0,0,19.27,67.21Zm9.79-30.53a2,2,0,0,0,0-.35,5.06,5.06,0,0,1-.17-.75c0-.87,0-1.73,0-2.6-.08-1.82-.19-3.64-.3-5.46,0-.59,0-1.18-.1-1.76a.53.53,0,0,0-.34-.33c-.23-.08-.34.09-.36.3s-.05.48-.06.72a82.44,82.44,0,0,0,.35,9.3c0,.3,0,.61,0,.93ZM15.31,83.57l1.27-1,.08.08a1.11,1.11,0,0,1-.09.19A9,9,0,0,1,15.52,84a1.69,1.69,0,0,0-.75,1.53h1.59L18,79.37,16.15,81a.49.49,0,0,0-.14.18C15.78,81.93,15.56,82.69,15.31,83.57ZM112,49.88A3.72,3.72,0,0,0,111.3,52c0,.46.23.91.68.85.93-.11,1.64-.24,2.57-.38.12,0,.3-.54.35-.67.28-.82-.19-1.42-.61-2A1.5,1.5,0,0,1,112,49.88ZM38.83,54.27a6.66,6.66,0,0,0-.22.91c-.15,1.63-.33,3.26-.4,4.89-.08,1.85-.12,3.71-.08,5.57,0,1.58.18,3.16.27,4.74h.11c0-.11,0-.23,0-.34.06-3.39.1-6.78.19-10.17,0-1.53.19-3.06.3-4.59C39,54.94,39.27,54.58,38.83,54.27Zm36.7-30.34v.13a135.06,135.06,0,0,0,15.8-1.59,3.73,3.73,0,0,0-.67,0l-6.14.46a46.11,46.11,0,0,0-6.42.56C77.26,23.66,76.39,23.78,75.53,23.93ZM18.71,59.64A4.23,4.23,0,0,1,17,60.8c-.13,0-.3.19-.3.29a3.47,3.47,0,0,0,.15.74l2.42-.76V58.22c-.78.44-1.46.88-2.19,1.23a.8.8,0,0,0-.49,1ZM20,55.48,20,55.41l-3.7,2.36a.29.29,0,0,0-.14.22c.05.38.12.77.19,1.17a20.24,20.24,0,0,1,2.26-.95,1,1,0,0,0,.82-1,4.34,4.34,0,0,1,.07-.52.59.59,0,0,1,.05-.23C19.67,56.12,19.86,55.8,20,55.48ZM32.71,45.05c-.06.19-.11.32-.14.45-.1.44-.19.88-.26,1.33a1.05,1.05,0,0,0,.09.37h.1l.23-.72c0,.32,0,.63.1.82s.42.23.67.36l.63.5L33.47,48c0,.26,0,.54.12.66a12.12,12.12,0,0,0,1.08.88c0-.5,0-1,0-1.46s-.11-.78-.08-1.16a1.16,1.16,0,0,0-.52-1A15.31,15.31,0,0,0,32.71,45.05Zm9.34,57.18.23.11a13,13,0,0,0,.94-2.67c.29-.9.53-1.83.79-2.74l-.11,0a6.76,6.76,0,0,1-2.57,2.68.2.2,0,0,0-.1.12c-.19.71-.37,1.43-.56,2.2A8.6,8.6,0,0,0,42.92,100Zm70.66-47.36.05-.12c-.48-.34-1-.68-1.46-1,0,0-.18,0-.27,0l-1.44.44-4.26,1.4c-.1,0-.2.09-.3.13a17.33,17.33,0,0,0,5.56-1.18l0,.1-1.15.49,0,0Zm8-2.4,0-.11a9.49,9.49,0,0,0-1.2.27c-1,.37-1.92.79-2.89,1.15a5.23,5.23,0,0,1-1,.17l0-.13,3.07-1.15c-.86,0-1.69.15-2.52.15a1.38,1.38,0,0,0-1.4,1c-.25.64-.28.63.16,1.09a2.73,2.73,0,0,1,1.54-.47,1.62,1.62,0,0,0,.64-.35c.16-.11.29-.29.46-.35s.69-.11,1-.25C119.19,53.21,119.92,52.83,120.67,52.47ZM29.89,36.6l3.43-.34c-.47,0-1,0-1.42-.06A7.53,7.53,0,0,1,30.84,36c-.39-.07-.49-.32-.49-.7,0-1.35,0-2.71,0-4.07a26.42,26.42,0,0,1,.08-5.69c-.23,0-.44,0-.44.32,0,3.42-.07,6.83-.11,10.25ZM30.66,40l-1.92,1.39,2,.94a.39.39,0,0,0,.32,0c.47-.43.92-.87,1.37-1.3-.82-.49-.57-.44-1.26.05-.16.11-.31.25-.47.37s-.32.23-.48.35l-.09-.12,1.24-1.25ZM74.87,59.27l.07.14-.72.4a6,6,0,0,0,1.13,0A16.36,16.36,0,0,0,77,59.33a.26.26,0,0,0,.13-.2c0-.16-.41-.46-.58-.42-1,.25-2,.08-3.06.39a17.19,17.19,0,0,0-2.43,1.21A10.65,10.65,0,0,0,73,60,15.85,15.85,0,0,0,74.87,59.27Zm-53-19.5c0,.45.08.8.11,1.16S22,41.65,22,42s0,.79.44,1a11,11,0,0,1,1,.68,29.43,29.43,0,0,0-.12-3,.32.32,0,0,0-.17-.24Zm-4.24-19.2a31.31,31.31,0,0,1-1.85,2.54c-.58.66-.28,1.35-.34,2.14l2.87-4.36ZM69.16,33.86l0-.19c-6.07.4-12.15.66-18.2,1.24V35Zm-52,7.88c.67-.55,1.29-1.11,2-1.59a.93.93,0,0,0,.49-1c-.06-.35-.67-.87-1-.79a.25.25,0,0,0-.16.1q-.62.81-1.2,1.65s0,.09,0,.19c.33-.28.61-.53.91-.77a1.66,1.66,0,0,1,1-.5.89.89,0,0,1-.23.35c-.45.41-.88.82-1.34,1.2A1.06,1.06,0,0,0,17.15,41.74Zm.75-24c.13.38.14.73.32.9a2.79,2.79,0,0,0,.87.4c.14-.88.14-.88-.61-1.26l-.68-.34-2.06-.91c-.09,1.06.14,1.36,1,1.43l.09-.43c.15.53.4.88,1,.91ZM35.29,42.5,34,41.82a.32.32,0,0,0-.25,0c-.53.37-1,.75-1.62,1.17.55.27,1,.49,1.46.7a.34.34,0,0,0,.31,0C34.34,43.28,34.8,42.9,35.29,42.5Zm33-19.14c-1.45-.2-10.07,0-11.38.65ZM28,41c.5.36.5.36.86-.07a1.74,1.74,0,0,1,.36-.31c.41-.24.83-.46,1.27-.71l-.63-.35c-.33.27-.41.24-.59-.17-.1-.21-.16-.46-.48-.23a5.14,5.14,0,0,1-2.14,1.24c.78.47.77.46,1.41,0,.25-.18.54-.31.81-.47l.1.14ZM25,37.9l1.73-2.14-1-.64-1.6,2.31ZM17.64,65.19l1.46-.89a.27.27,0,0,0,.11-.19c0-.48,0-1,0-1.51l-1.78,1a.29.29,0,0,0-.11.26C17.41,64.31,17.52,64.72,17.64,65.19ZM28.42,38.67c-.6-.36-1.15-.69-1.69-1a2.3,2.3,0,0,1-.33-.3l.36-.34-.13-.2-1.1,1.34,1.91,1.26Zm-9.2,26.09a12.29,12.29,0,0,1-1.2.66.52.52,0,0,0-.36.58,11.52,11.52,0,0,0,.25,1.25l1.31-.43Zm-2-1.4.08.11,1.45-.89c.54-.33.62-.57.41-1.24l-2.24.87.23.92.55-.17Zm50.34-2.54c1.84.11,3.23-.78,4.72-1.64C70.37,59,69.1,60.17,67.54,60.82ZM27.15,39.63A8.67,8.67,0,0,1,26,39a1.13,1.13,0,0,0-1.67.08s0,0-.07.11c.55.63,1.41.71,2,1.12ZM95,9.62h5.1c-.51-.36-.91-.86-1.62-.74s-1.3.14-2,.22c-.28,0-.68-.12-.78.36,0,0-.14.06-.22.08ZM34.91,49.86V50l2.76,1.44-.14.1c-.14-.24-.3-.48-.42-.73a2.41,2.41,0,0,0-1.35-1.43c-.1,0-.16-.2-.24-.31L35.6,49l.51.24-.52-.78a1.27,1.27,0,0,0,0,.24c-.14.06-.23.08-.24.11a4.23,4.23,0,0,0-.08.79C35.26,49.83,35.17,49.91,34.91,49.86Zm51.85,7.38,0-.1-.2,0-2.72.76c-.2,0-.41.17-.39-.21-.29.05-.55.08-.81.14-.69.16-1.37.32-2,.5-.12,0-.21.19-.38.35l4.43-.64a.58.58,0,0,0,.18-.11c.13-.09.24-.23.38-.27C85.69,57.52,86.22,57.39,86.76,57.24ZM15.33,17.52c0-.19,0-.23,0-.27a.81.81,0,0,0-.69-1.11,9.6,9.6,0,0,1-1.48-.64c.09.43.16.78.25,1.12a.35.35,0,0,0,.21.2c.37.14.75.26,1.14.39l.06-.2Zm58.86,12.1H74l.13,3.91,3.81-.23,0-.13c-.16-.08-.32-.22-.48-.22-.88,0-1.76,0-2.64.07-.46,0-.57-.15-.62-.5a3.46,3.46,0,0,1,0-.56ZM29.77,46a5.56,5.56,0,0,0,0,.75c0,.14.05.36.15.41.61.34,1.23.65,1.85,1l.13-.1c-.05-.27,0-.66-.16-.78C31.17,46.79,30.5,46.44,29.77,46ZM85.49,32.84v-.1L78,32.87c.07.35.23.43.48.41ZM16.27,80.21l.1.05a2.59,2.59,0,0,0,.33-.61c.18-.77.31-1.56.47-2.35.13-.63.26-1.26.41-2-.48.26-.84.47-.8,1a7,7,0,0,1-.12,1.51C16.54,78.67,16.4,79.44,16.27,80.21ZM69.6,59.4c-1.78,0-3,1.07-4.44,1.75a4,4,0,0,0,1.45-.21C67.6,60.5,68.55,60,69.6,59.4ZM23.08,36.85l.63.34L25.53,35l-.42-.27Zm79.21,9.95v.13L115,45.62v-.15ZM35.15,44.44a4.94,4.94,0,0,1,.57.3.44.44,0,0,0,.6-.07c.41-.35.85-.66,1.3-1-.25-.13-.51-.28-.79-.4a.32.32,0,0,0-.28,0C36.09,43.67,35.64,44.05,35.15,44.44ZM37.81,49c0-.32.09-.62.12-.92a.23.23,0,0,0-.08-.2l-1.94-1A3.94,3.94,0,0,0,37.81,49Zm-4.3-7.49c-.3-.12-.68-.4-.83-.31a16.12,16.12,0,0,0-1.63,1.25,3.58,3.58,0,0,0,.63.29.53.53,0,0,0,.41-.07C32.55,42.34,33,42,33.51,41.53ZM36.33,43c-.35-.13-.74-.4-.91-.3a10.48,10.48,0,0,0-1.48,1.18c.17.09.27.13.36.19a.6.6,0,0,0,.87-.1C35.5,43.62,35.88,43.34,36.33,43Zm82.56,11.48v.15l6.79-.79c.08,0,.14-.14.22-.21l-.07-.08ZM17.29,73.11l-.13-.06c-.11.12-.32.23-.33.36,0,.58,0,1.16,0,1.81.34-.19.77-.29.83-.49A17.49,17.49,0,0,0,18,72.66c-.57.19-.36.57-.41.85s-.09.61-.13.91l-.16,0ZM96.46,47.87l.09.45.18-.33.11,0v4.41H97c.08-.92.17-1.85.23-2.77,0-.1-.09-.21-.15-.32l.09,0,.15-1.59ZM93.74,57.93a60.51,60.51,0,0,0-9.18,1.15ZM78.07,60.87c.14.53.26,1,.41,1.49,0,.12.17.3.25.29a.48.48,0,0,0,.37-.22,1.35,1.35,0,0,0,.06-1.19.33.33,0,0,0-.15-.16Zm41.64-7.49,4.38-1.14A6.12,6.12,0,0,0,119.71,53.38ZM115.58,56a15.65,15.65,0,0,1-.34,5.07,7.53,7.53,0,0,0-.1.83c0,.27,0,.55-.08.82a34.22,34.22,0,0,0,.89-6.76c-.07,0-.11,0-.14,0ZM13.49,17.18c-.17.87,0,1.14.88,1.15v-.52c.12.44.13.83.71.81-.08-.33-.06-.77-.25-.91A6.24,6.24,0,0,0,13.49,17.18ZM79.8,57.72c-.38,0-.71.05-1,.09a.63.63,0,0,0-.55.77,3.34,3.34,0,0,0,.17.44A1.68,1.68,0,0,0,79.8,57.72ZM39.34,59.59l.86-5.37-.12,0A14.43,14.43,0,0,0,39.34,59.59Zm79.92-36h0c-.13,1.77-.27,3.54-.39,5.32,0,.1.17.22.26.33l.14-.08ZM22,19.56l-.78-.42-.82-.4c0,.91.05,1,.68,1.15l.09-.55c.27.85.32.9.91,1Zm-6.45,3.06,1.55-2.21c-.27-.05-.62-.09-.71,0C16,21.1,15.3,21.65,15.58,22.62ZM114.12,53c-.6.16-1.23,0-1.75.42l1.16,1ZM29.38,25.67c-.26-.06-.37,0-.37.26,0,1.83,0,3.67,0,5.51h.11ZM17.75,24l.08.13c.17-.09.39-.14.49-.27.52-.73,1-1.48,1.52-2.23l-.05-.11c-.12.05-.3.05-.37.14C18.85,22.46,18.31,23.24,17.75,24Zm95.94,24.53c-.56,0-1.09,0-1.62,0-.13,0-.25.16-.44.29.5.2.88.38,1.28.51s.51,0,.62-.37C113.57,48.86,113.62,48.74,113.69,48.55ZM97.46,55.66l-2.13-.13v1ZM18.52,34.4a1.12,1.12,0,0,0-.46,1.15c0,.06.16.12.25.13.52,0,.72-.34.93-.75ZM127.9,52.78v-.11a15.21,15.21,0,0,0-4.6,1ZM43.73,50.07c-.31.63-.31.63.25.93l.69.36.35-.55ZM16,32.17c-.18.34-.37.64-.51,1a1.32,1.32,0,0,0,0,.49c.17,0,.41,0,.5-.08a4.88,4.88,0,0,0,.57-.78Zm57.62.95-3.25.58v.09l3.32-.22ZM21.94,37.66l1.13.67.39-.66C22.36,37,22.67,37,21.94,37.66Zm82.88,17.2-3.44.9C102.64,55.9,103.19,55.76,104.82,54.86Zm-3.69.42a6.81,6.81,0,0,0-3.38.87A14.19,14.19,0,0,0,101.13,55.28ZM18.18,34.12l-.55-.41a9.36,9.36,0,0,0-.61.72.66.66,0,0,0,0,.42.33.33,0,0,0,.27.06C17.59,34.71,18.11,34.73,18.18,34.12ZM19,20.28c.15-.82-.1-1.14-.92-1.19C18.09,20,18.15,20,19,20.28Zm-3.12-2.14c-.05,1,0,1.08.87,1.2C16.85,18.39,16.77,18.29,15.92,18.14Zm8.14,3.15.14-.06a6,6,0,0,0-.41-1c-.1-.15-.38-.18-.6-.28C23.27,21,23.3,21.07,24.06,21.29ZM41.8,49.83l1.43.77L43.5,50C42.15,49.51,42.15,49.51,41.8,49.83Zm88.52-.51c-.88.23-1,.4-.67,1.21C130.39,50.27,130.44,50.18,130.32,49.32Zm-106-28.93c0,1,.07,1.16.71,1.34C25,20.74,24.93,20.55,24.27,20.39Zm-6.7,51.89c.28,0,.39-.15.38-.44s0-.87,0-1.31h-.12A1.71,1.71,0,0,0,17.57,72.28Zm2.55-35.81.82.57.37-.69-.74-.47ZM19.57,19.7c-.13.8-.09.85.85,1.17C20.41,20,20.28,19.87,19.57,19.7Zm.55,15.86L19.4,35l-.48.59.82.59Zm4.48,2.69-.84-.45-.48.63.68.4ZM17.88,19.78c.07-.82,0-1-.74-1.11l.1,1ZM16.91,33c-.31.46-.72.72-.66,1.24a.89.89,0,0,0,.92-.66C17.2,33.4,17,33.22,16.91,33Zm3.24-13.52c.07-.8,0-.94-.7-1.16C19.42,19.2,19.42,19.2,20.15,19.45Zm4.18,3.05c-.11-.72-.19-.8-.91-1C23.39,22.25,23.49,22.35,24.33,22.5Zm-2.12-2.94c.18.48,0,1.12.72,1.21C23,20,22.93,19.79,22.21,19.56ZM82.32,59.85l-.08-.05-2.17-.08L80,60.2Zm9.41-12.12,0-.14-5.11.65v.07Zm-75,23h.17a12.86,12.86,0,0,0-.45-3.13ZM21.26,40l-.1,0c-.09.49-.18,1-.26,1.46a.4.4,0,0,0,.36.5Zm118.21,46.8.25-3A5.93,5.93,0,0,0,139.47,86.84ZM12.6,15.32c-.11.65.13,1.31.48,1.31C13.18,15.75,13.05,15.39,12.6,15.32Zm65.2,37-1.62.47C77.13,53.1,77.85,52.89,77.8,52.32Zm-61,20.39c.56-.24.56-.93,0-1.68Zm5.43-51.08c0-.7,0-.84-.73-1C21.56,21.44,21.56,21.45,22.25,21.63Zm93.86,23v-.06l-4.82.38v.09Zm1.76-14.3v-.11l-2.42.2A3.94,3.94,0,0,0,117.87,30.34ZM90.2,48.58v.08c.45,0,.91.09,1.37.11.1,0,.2-.12.31-.18-.11-.07-.23-.21-.33-.2C91.09,48.42,90.64,48.51,90.2,48.58Zm28.88-16.79,1.49.33,0-.07-1.51-.77ZM80.34,58l1.59-.62C80.66,57.41,80.27,57.42,80.34,58ZM21.23,21.23c0-.87,0-.88-.57-1C20.71,20.63,20.61,21.11,21.23,21.23ZM15.91,64c.29-.16.21-1-.15-1.46C15.6,62.7,15.66,63.26,15.91,64ZM39,62.21h0V59.32h0ZM23,22c0-.68,0-.73-.5-.86C22.5,21.77,22.53,21.83,23,22Zm2.17.89c0-.62-.14-.74-.67-.77C24.57,22.49,24.71,22.81,25.21,22.86Zm-10-5c-.09.85,0,1,.5,1C15.45,18.54,15.7,18,15.2,17.82Zm85.4,29.27V47l-2.82.31,0,.13ZM76.13,58.31l0-.19a6,6,0,0,0-1.81.35Zm-59.67,7.3c.05-.81-.17-1.4-.57-1.4Zm46-2.53.1,0,.4-1.14C62.56,62,62.34,62.57,62.44,63.08ZM15.2,60.38l.34,1.88C15.77,62.07,15.64,61.41,15.2,60.38Zm25.89,41.93c.77.1.81.07.92-.72Zm73-44.87c.08-.44.24-.79-.27-1.07C113.94,56.74,113.52,57.14,114.08,57.44Zm-81.29-9,.41.09.08-.56-.46-.17Zm-11-11.74-.23.76.12,0,.6-.51ZM77.5,53.37c.61.32.81.22.86-.38ZM50.4,51v-.11L48.84,51l0,.19Zm70-35.28,0,.12a2.32,2.32,0,0,0,1.5.37ZM61.08,57.13H61v1.7h.06Zm13.16-31.6h.06c0-.31.08-.64.16-.95s-.06-.27-.28-.26ZM12.87,16.9l.22.86.14,0C13.1,17.47,13.37,17.09,12.87,16.9ZM21,43.08l.11-.1-.27-.44-.38.45Z"/><path d="M27.19,12.17c3.17-.26,6.35-.28,9.54-.28L35.67,12,30,12.49a17.08,17.08,0,0,1-1.75.08,5.24,5.24,0,0,1-1.08-.24Z"/><path d="M13.13,35.72c.28-3.8.15-7.6.16-11.4l.15,1.49c.29,2.84.06,5.68.07,8.52a8.63,8.63,0,0,1-.23,1.41Z"/><path d="M14.6,40.84a15,15,0,0,0-.83,4.86h-.14c0-.08-.12-.17-.12-.26a10.41,10.41,0,0,1,.9-4.5S14.47,40.91,14.6,40.84Z"/><path d="M58.12,10.19l5.55-.44v.07l-5.54.43Z"/><path class="cls-1" d="M22.61,42.92a4.22,4.22,0,0,0,0-2.23A3.69,3.69,0,0,0,22.61,42.92Z"/><path d="M113.9,32.2l2.42.81-.16.39C115.38,33.1,114.43,33.16,113.9,32.2Z"/><path d="M116.55,32.33l5.17,1.29,0,.12c-1.73-.42-3.48-.72-5.17-1.31Z"/><path d="M111.57,32.61l2.61.94a5.51,5.51,0,0,1-2.65-.83Z"/><path d="M46.53,43.57l2.71.93A4.49,4.49,0,0,1,46.53,43.57Z"/><path d="M92.47,33.64l-2.15.28,0-.18,2.16-.19Z"/><path d="M57.86,19.93c-.06.51,0,.63.56.65,1,0,2.08.06,3.12.05,1.22,0,2.43-.08,3.55-.12-.19-.11-.44-.26-.69-.39a.8.8,0,0,0-.27,0c-1.11,0-2.22,0-3.33,0a17.35,17.35,0,0,1-2.14-.19c3.67-.34,7.34-.41,11-.47l-2,.35v.06c1.28-.05,2.56-.08,3.84-.18s2.49-.31,3.73-.42,2.4-.14,3.59-.23,2.6-.28,3.91-.37c.82,0,1.65,0,2.47,0l0,.14c11.43-.5,22.86-1,34.25-2l0,.17c-.57.08-1.13.18-1.7.24-3,.28-6.09.57-9.14.84q-3.69.32-7.38.6-3,.24-6,.43c-1.56.1-3.12.25-4.68.24-1,0-2.07,0-3.11.08-2.58.16-5.17.25-7.75.41-2.14.13-4.28.31-6.41.48-3.8.3-7.6.62-11.42.66-4.91,0-9.82.23-14.73.34a38.59,38.59,0,0,0-4.17.08c-2.92.39-5.86.12-8.78.29-1.64.1-3.28.05-4.92.06a2.49,2.49,0,0,1-.46-.09l0-.14a9.08,9.08,0,0,0,1.65,0c2.72-.49,5.48-.39,8.21-.7,1-.11,1.92-.09,2.88-.11,1.9,0,3.79,0,5.69-.1,2.16-.08,4.31-.23,6.47-.36l3.79-.27Z"/><path d="M116.68,16.84a7.73,7.73,0,0,1-.84.13c-2,.09-4,.15-6,.26-2.47.13-5,.29-7.43.43l-7.91.47a1.85,1.85,0,0,1-.52-.06c1.1-.07,2.21-.13,3.31-.21,3.21-.25,6.41-.55,9.62-.77,3-.21,5.94-.35,8.91-.51a6.54,6.54,0,0,1,.89.08Z"/><path d="M26.73,21.63c-.46-.13-.49-.33-.11-.81Z"/><path d="M27.18,21.24l0-.37H27c0-.05,0-.13,0-.15s.18-.07.2,0a1.89,1.89,0,0,1,.26.46s-.11.13-.17.2Z"/><path d="M49.65,65.68c-.33.63-.29.78.34,1.19.07,0,.06.22.08.33l-.11,0L49.63,67l-.08.46a2.84,2.84,0,0,1-.34-.52c-.72-1.84-.32-2.84,1-3.7.31-.2.71-.28,1.07-.49a1.51,1.51,0,0,1-.37,0,.71.71,0,0,1-.24-.13c.07-.07.13-.2.2-.2.6,0,1.19,0,1.79-.07a2.17,2.17,0,0,0,.51,0,15,15,0,0,1,3.84-.43c.53,0,.72.2.6.72a8,8,0,0,1-.51,1.42c-.12.3-.31.58-.46.87a2.07,2.07,0,0,1-1.48.76c-.56,0-1.11.17-1.66.2-.95,0-1.91.08-2.87.07A4.47,4.47,0,0,1,49.65,65.68Zm.11-.53a1.23,1.23,0,0,0,.21,0,15.1,15.1,0,0,0,4.35-.1A2.34,2.34,0,0,0,56,64.25a7.17,7.17,0,0,0,.52-.71,7,7,0,0,0,.41-.86l-.7,0a24.08,24.08,0,0,0-5.1,1.12A1.85,1.85,0,0,0,49.76,65.15Z"/><path d="M44.06,83.07a22.7,22.7,0,0,1,.48-6.44,13.87,13.87,0,0,1,.89-3.22c.34-.65.73-1.28,1.09-1.92l.11.05a5.79,5.79,0,0,1-.25.57,14.45,14.45,0,0,0-1.27,4.45C44.72,78.83,44.37,81.11,44.06,83.07Z"/><path d="M49.64,54a2,2,0,0,1,.53-.15c2,0,4,.08,6,.14.12,0,.23.11.34.17a1.12,1.12,0,0,1-.37.14c-2,0-3.89,0-5.84,0a2.47,2.47,0,0,1-.65-.16Z"/><path d="M47.52,65.9A5.77,5.77,0,0,1,49,63.35a7.47,7.47,0,0,1,1-.78c.07,0,.21,0,.32,0s0,.22-.06.28l-2.64,3Z"/><path d="M52.89,54.73l1.94-.14v.17a4.49,4.49,0,0,1-1.93.16Z"/><path d="M52.78,66.73l1.74-.29C54,67,53.37,66.81,52.78,66.73Z"/><path d="M46.11,27.76l.56-.16-.85-1-.08.11a4.57,4.57,0,0,1,.09.82c0,.34-.26.44-.56.25s-.43-.28-.64-.42l.11-.14-.18.37a1.45,1.45,0,0,1-.24-1.31.92.92,0,0,1,1-.44,1.68,1.68,0,0,1,1.55,1.48.45.45,0,0,0,.2.28,19.24,19.24,0,0,0,5.21,1.51,6.69,6.69,0,0,0,3.59-.57c.69-.31,1.34-.72,2-1.08a.68.68,0,0,0,.38-.73,3.24,3.24,0,0,1,.08-.62l-.59-.09a1.91,1.91,0,0,1,.32-.62c.29-.25,1.08-.07,1.48.28a.8.8,0,0,1,.17,1.12,1,1,0,0,1-.59.45.86.86,0,0,0-.71.44,3.27,3.27,0,0,1-2.17,1.51,3.25,3.25,0,0,0-.81.41.33.33,0,0,0-.1.24,3.42,3.42,0,0,0,0,.44c.1,1.26-.65,1.81-1.81,1.29a1.11,1.11,0,0,0,.17,1c.19.21.13.36-.24.42l-.59-2.57a8,8,0,0,1-4.26-.24A3.37,3.37,0,0,1,46.11,27.76Zm.73.14a2.38,2.38,0,0,0,1.23,1.21,8.1,8.1,0,0,0,3.22.69,5.33,5.33,0,0,0,.56,0,.28.28,0,0,0-.22-.13A10.6,10.6,0,0,1,46.84,27.9Zm6.85,2.37c.17.55.48.86.75.77s.35-.41.14-1.05Zm5-4.22.19.69.48-.41Z"/><path d="M32.42,30.45a1.88,1.88,0,0,0,.14.24l2.26,3.05a2.8,2.8,0,0,1,.32.56.36.36,0,0,1-.1.26s-.19,0-.23-.06c-.7-.93-1.4-1.85-2.05-2.8a6.57,6.57,0,0,1-.53-1.14Z"/><path d="M33.38,30.37a9.08,9.08,0,0,1,.71.68c.8.91,1.59,1.82,2.37,2.75a1.23,1.23,0,0,1,.12.41c-.14-.05-.33-.05-.41-.14q-1.11-1.3-2.19-2.64c-.25-.31-.45-.65-.68-1Z"/><path d="M66.92,25.11c.29.41.57.82.87,1.23.82,1.13,1.65,2.25,2.48,3.38a.71.71,0,0,1,.13.24.93.93,0,0,1-.05.32c-.09,0-.22-.06-.26-.13q-1.62-2.45-3.23-4.91s0,0,0-.07Z"/><path d="M70.46,29a.81.81,0,0,0,0-.16c0-.2,0-.4,0-.6a3,3,0,0,1,.51.42,5.36,5.36,0,0,1,.53.89,1.27,1.27,0,0,1,.07.44l-.15.05-.57-.94-.17.44c-.13-.1-.31-.17-.38-.3-.3-.54-.57-1.1-.85-1.65l.11-.06Z"/><path d="M66.19,25.47l3,4.27A14.24,14.24,0,0,1,66.19,25.47Z"/><path d="M72.28,25.83c.06-.4,0-.59-.41-.62s-.52-.12-.26-.55c.06-.09,0-.22.12-.3s.24-.27.32-.25a.58.58,0,0,1,.34.31A1.73,1.73,0,0,1,72.28,25.83Z"/><path d="M40,34.58l-5,.71,0-.16,5-.7Z"/><path d="M92.73,25.64c-.13.14-.2.3-.3.33a1.34,1.34,0,0,1-.73.07c-.3-.11-.23-.72.14-1.21a.41.41,0,0,1,.66,0c.84,1,2.06,1,3.19,1.25a10.79,10.79,0,0,0,4.49.23c.48-.12.95-.27,1.42-.39.17,0,.34,0,.57-.07-.23.76-1.13.55-1.41,1.1l.07.11,2.22-1.17.11.12a2.26,2.26,0,0,1-.38.51c-.55.4-1.1.8-1.68,1.15a.54.54,0,0,0-.31.57,3.79,3.79,0,0,1-.05.95c-.07.41-.34.56-.7.34a3.08,3.08,0,0,1-.78-.75c-.13-.16-.2-.25-.41-.2a5.59,5.59,0,0,1-4.32-1A5.1,5.1,0,0,1,92.73,25.64Zm6.14,1.43-4.78-.74c1.17,1.17,3.67,2,4.87,1.35Zm.61-.13.13.56c.54-.1.57-.15.44-.64Zm.3,1.34.34.45.09,0,0-.56Z"/><path d="M104.44,24.19l-.13,0c-.21,0-.53.17-.57-.14s.21-.41.38-.54a.9.9,0,0,1,1.11.1c.27.3.13.61,0,.92a5.38,5.38,0,0,1-1.4,1.87,4.52,4.52,0,0,1-.51.34l-.1-.11,1.11-1.42c-.11-.08-.25-.12-.31-.22a1.16,1.16,0,0,1-.14-.48s.21-.08.32-.13A1.51,1.51,0,0,0,104.44,24.19Z"/><path d="M77.63,29.61l.38.52c.47.57,1,1.14,1.42,1.72a1.42,1.42,0,0,1,.14.36c-.12-.05-.27-.07-.34-.16-.46-.6-.91-1.21-1.35-1.82-.12-.18-.22-.38-.33-.57Z"/><path d="M140.33,55.2c-.1-.48-.19-.92-.29-1.36a.64.64,0,0,0-.72-.55q-2.2,0-4.41,0c-.44,0-.89-.06-1.34-.09l0-.16c.12-.06.23-.17.36-.18,1.22-.17,2.45-.35,3.68-.47.64-.06,1.28,0,1.92,0a.71.71,0,0,1,.36,0,4.45,4.45,0,0,0,1.69.48l.21-.51a4.79,4.79,0,0,1-.06,3.26l-.1-.2a8.63,8.63,0,0,1-.61,1,1.84,1.84,0,0,1-.7.55c-.88.28-1.77.5-2.66.72a2.06,2.06,0,0,1-.7.06.4.4,0,0,1-.25-.26c0-.07.11-.18.16-.28l.24-.5-.42-.12a6,6,0,0,1-1.15-.4A9.86,9.86,0,0,0,140.33,55.2Z"/><path d="M133.54,44.47l8.05-.75,0,.13a44.5,44.5,0,0,1-8.06.73Z"/><path d="M133.64,54.28l.89,1.34-1.13-.07a2.29,2.29,0,0,1-.47-1.72.59.59,0,0,1,.29-.36c.1,0,.27.1.38.2a6,6,0,0,1,.46.51h-.31Z"/><path d="M134.65,51.51A16.44,16.44,0,0,1,140,51.3,22.87,22.87,0,0,1,134.65,51.51Z"/><path d="M94.32,49.07V47.78h.13l-.1,1.31Z"/><path d="M126.48,48.06a14.83,14.83,0,0,1-2.85,2.43A6.74,6.74,0,0,1,126.48,48.06Z"/><path d="M125.91,49.72,124.78,51l-.09-.09L126,49.77Z"/><path d="M17.86,52.9a2.53,2.53,0,0,1,.42-.5,14,14,0,0,1,4.45-2.21c.06,0,.16,0,.24.05s-.12.23-.22.27l-3.1,1.58c-.43.22-.85.48-1.28.72-.14.08-.28.13-.42.2Z"/><path d="M21.52,25.34l-.44-.15L22.32,24l.1.09Z"/><path d="M41.89,51.07a8.52,8.52,0,0,1-.67,3.65l.5-3.68Z"/><path d="M26.63,28.72a7.75,7.75,0,0,1-2.27,3.74A23.45,23.45,0,0,1,26.63,28.72Z"/><path d="M22.61,42.92a3.69,3.69,0,0,1,0-2.23A4.22,4.22,0,0,1,22.61,42.92Z"/></svg>