<svg id="Layer_1" data-name="Layer 1" xmlns="http://www.w3.org/2000/svg" viewBox="0 0 160 112" width="160mm" height="112mm" ><title>sketch</title><path d="M123.38,82.2c-.1-.12-.18-.26-.29-.38-2.83-3.13-5.58-6.33-8.59-9.29-2.18-2.13-4.38-4.25-6.55-6.39-.68-.67-1.32-1.37-2-2.06l-.15-.16a1.13,1.13,0,0,0-1.18-.46,2,2,0,0,1-.48,0c-.28,0-.57-.12-.79.2,0,.06-.18.06-.28.07H85.53a1,1,0,0,1-.06.28.29.29,0,0,1-.17.16s-.13-.09-.16-.16a1.5,1.5,0,0,1,0-.26l-.36,0H74c-.18,0-.39,0-.47.13a3.15,3.15,0,0,0-.63-.12H67.51l-4.73,0c-.33,0-.66,0-1,0a.59.59,0,0,0-.25.07.52.52,0,0,1-.47,0,1.35,1.35,0,0,0-1.06.05c-.19.09-.37.17-.55-.05,0-.06-.18-.06-.28-.06H55.49a2,2,0,0,0-.43.05,1.73,1.73,0,0,1-.64,0,5,5,0,0,0-1.22,0c-.09,0-.19.15-.27.25-.52.7-1,1.45-1.57,2.1-1.09,1.24-2.23,2.42-3.36,3.63l-.69.77.06.07.49-.42,0,0a2.53,2.53,0,0,1-.13.22c-3.22,3.68-6.4,7.4-9.66,11a97.67,97.67,0,0,1-7.2,7.47c-.32.29-.59.64-.94,1l.33,0s0,.09,0,.12c-.6.69-1.21,1.38-1.8,2.08-.3.34-.6.69-.86,1s-.35.59-.56,1l-.41.06c0,.05,0,.12,0,.19s-.07.27-.23.26-.23-.11-.24-.26,0-.12,0-.21l-.39.3a1.3,1.3,0,0,1,0-.15,1.19,1.19,0,0,1,.1-.18,1,1,0,0,0-.69,0,.38.38,0,0,1-.48-.08,1.25,1.25,0,0,0-.83-.35c-.68-.07-1.37-.12-2.05-.16a34.39,34.39,0,0,1-4.3-.55.79.79,0,0,0,.09-.29.39.39,0,0,0-.19-.23,4.16,4.16,0,0,0-.83-.25l-3.82-.48a.41.41,0,0,1-.35-.22c-.1-.19-.21-.38-.32-.56a1.09,1.09,0,0,0,.45-.87c0-2.26,0-4.52,0-6.79V82h-.09v2.12c0,1.7,0,3.39,0,5.08a2.36,2.36,0,0,1-.11.59.24.24,0,0,1-.21.12.25.25,0,0,1-.18-.15,1.57,1.57,0,0,1,0-.43c0-1.84,0-3.68,0-5.52a1.06,1.06,0,0,0-.13-.67.64.64,0,0,1-.05-.34c0-.34,0-.67,0-1,0-3.85,0-7.71,0-11.56,0-.65,0-1.3,0-2a13.87,13.87,0,0,0-.05-1.93c-.05.43-.1.86-.14,1.3-.16,1.78-.36,3.57-.45,5.36a13.54,13.54,0,0,0,.13,3.54c0,.14.1.35-.12.4s-.24-.14-.31-.25a.82.82,0,0,1-.08-.41c.07-.8.17-1.6.24-2.39.05-.6.1-1.19.11-1.79,0-.95,0-1.9,0-2.85,0-1.13-.1-2.27-.12-3.4,0-.38,0-.76.06-1.14.16-2.31.33-4.63.49-6.94.18-2.7.23-5.39.21-8.1,0-1.72,0-3.44,0-5.16V44l-.25.08a4.13,4.13,0,0,1-.07-.68c0-.8.11-1.6.16-2.4s.15-1.66.16-2.49c0-3.11,0-6.22.05-9.33,0-1,0-2,0-3,0-.19.08-.41-.13-.56,0,0,0-.21,0-.28a1.06,1.06,0,0,0,0-1c.46-.15.31-.54.33-.86l-.45-.3a3.68,3.68,0,0,1,.59-.18c1.91-.25,3.82-.51,5.73-.73,1.37-.16,2.73-.28,4.1-.42.24,0,.48-.11.73-.12s.44.08.66.08a9.61,9.61,0,0,0,2.33-.31.69.69,0,0,0,.17-.05.88.88,0,0,1,.77-.2l.06-.41c.05,0,.11,0,.12.07a2.05,2.05,0,0,0,1.61.76l3.13.35,4.64.56a6,6,0,0,0,.85,0l.13-.25c.15.35.15.36.51.39q3.43.38,6.87.72c1.32.13,2.65.22,4,.34.25,0,.51.07.76.11v.09c-.07,0-.14.07-.21.06l-1.4-.1c-1.22-.1-2.44-.24-3.66-.31-.6,0-1.2,0-1.89.07a.7.7,0,0,0,.52.25c.88.12,1.76.23,2.65.33s2.09.2,3.13.29c.25,0,.49,0,.76,0l0-.22a.16.16,0,0,1,.1,0,1.52,1.52,0,0,0,.82,0,.42.42,0,0,1,.43.1,1.65,1.65,0,0,0,.68.25c.6.05,1.19.06,1.79.09l2.27.13a51.43,51.43,0,0,0,5.69,0c1-.05,2-.06,2.93-.1s2.19-.1,3.28-.13,2,0,2.94,0l12.08,0h.34l0,0,0,0-.06-.05s0,0,.08,0l.52,0h8.54c1.21,0,2.43-.06,3.64,0,.27,0,.46-.35.8-.1.19.14.54.06.81.07l1.14,0c.19,0,.37,0,.55.06,0,.05,0,.06,0,.07s0,0,0,0l-.06.05.07,0,5.26,0c.48,0,1,0,1.44,0s.42,0,.51-.33a.38.38,0,0,1,.37-.29,2.61,2.61,0,0,0,.65-.29c-.09.29-.56.32-.47.73l2-.45c.71-.16,1.42-.35,2.13-.48s1.68-.24,2.51-.36a58.23,58.23,0,0,0,7.19-1.3c1.5-.4,3-.74,4.54-1.1a.92.92,0,0,1,.43,0,4.84,4.84,0,0,0,2.3-.14c.8-.2,1.58-.48,2.38-.73l2.6-.8.23-1.5c.26.37.19.8.36,1.21.71,0,1.42,0,2.13,0,.86,0,1.73,0,2.59,0a22.43,22.43,0,0,1,4,.3,41.83,41.83,0,0,0,4.74.49c.36,0,.72.07,1.1.11.19-.36.09-.78.36-1.12.05.31.11.62.14.93s.05.37.25.47.21.26.14.45l-.32-.07c0,.14,0,.27,0,.39,0,3.77.05,7.54.1,11.3,0,.65,0,1.3,0,1.95s0,1.31,0,2,0,1.31,0,2,0,1.31,0,2c0,.25,0,.49.31.63-.42.36-.3.81-.31,1.23,0,2.73,0,5.46,0,8.19,0,.5,0,1,0,1.49,0,.25,0,.49,0,.74s0,.64,0,1c0,1.07.07,2.13.11,3.22l-.31.22V53.84h-.11a4.08,4.08,0,0,0-.11.59q0,.61,0,1.23c0,.25.09.51.09.77-.05,2-.07,4-.17,6s-.07,3.74,0,5.61l.07-2h0v1.4h.08c0-.59.1-1.18.11-1.78,0-2.49,0-5,.06-7.48,0-.19,0-.38,0-.57H148v.43q.06,3.6.13,7.22c0,.35,0,.7.05,1,.07,1.87-.18,3.73-.26,5.59-.06,1.36-.07,2.72-.08,4.08a8.73,8.73,0,0,0,.11,1c0,.13,0,.25-.13.31a.23.23,0,0,0-.07.18c0,.3-.14.64.17.88,0,0,0,.17,0,.25,0,.44.05.88.05,1.32,0,1.7-.05,3.41-.05,5.12s0,3.68.06,5.52a.93.93,0,0,0,0,.14c.35.21.88-.14,1.22.37l-1.22.17-.05.44-.57.07.08-1.29c-.37.31-.29.71-.43,1.09a1,1,0,0,1-.42,0,.9.9,0,0,0-.68-.07c-1.43.26-2.86.54-4.3.77-1.72.27-3.44.51-5.16.74-.33,0-.67,0-1,0s-.67,0-1,.07-.51,0-.81,0c-.05.39.42.54.47,1a1.74,1.74,0,0,1-.26-.16c-.16-.15-.29-.33-.46-.46a3.86,3.86,0,0,0-.51-.31c-.1-.06-.26-.09-.29-.17-.16-.39-.54-.52-.86-.74l.73,1-.07.06a3.28,3.28,0,0,1-.31-.34c-1-1.32-2.15-2.5-3.2-3.77s-1.89-2.34-2.85-3.49c-.47-.56-1-1.07-1.49-1.61l-4.32-4.7c-.14-.15-.25-.31-.37-.46l.07-.07c.14.12.28.24.41.37L123,82l.32.29.35.42.07-.06ZM84.43,25.82a.59.59,0,0,0,.46-.35h-.16l-.08,0,.44-.53H73.18s0,.07,0,.08l1.45,1.39a.5.5,0,0,0,.32.09c.52,0,1,.05,1.56.1.8.09,1.59.25,2.39.3a12.13,12.13,0,0,0,3.6-.34c.13,0,.28-.09.39.05s-.24.22-.37.25a8.94,8.94,0,0,1-3.09.25c-1.16-.11-2.31-.3-3.47-.43a8.85,8.85,0,0,0-1,0A1.56,1.56,0,0,0,75,27.86l1.23-.81.05.08c-.43.3-.85.61-1.29.89a.52.52,0,0,0-.27.51c0,.43,0,.87,0,1.31s.07.45.47.45l7.4,0c.35,0,.71,0,1.06-.05v-.79l-.23,0c.09-.15.23-.28.23-.41,0-.59,0-1.19,0-1.78l-.21-.05.86-.72,0,0-.9.24,0-.09.43-.27.63-.45ZM75.19,37.7l0,.28.31-.35-.3.09c-.19-.27.21-.2.21-.4l-.36,0-.11.38ZM37.29,36v0c0,.16,0,.32,0,.48,0,.55,0,1.11,0,1.66a1.86,1.86,0,0,0,0,.28c0-.77,0-1.5,0-2.22C37.38,36.07,37.32,36,37.29,36Zm93.07,1c-.07-.34-.07-.34-.44-.32l.45.31a8.64,8.64,0,0,0,1.27,1.62,1.53,1.53,0,0,0-.19-.41c-.15-.25-.42-.48-.44-.74s-.18-.35-.41-.38A1.13,1.13,0,0,1,130.36,36.94ZM17.26,92h-.45v.08l.45-.08s.09.11.15.12l3.06.47c.31,0,.63.06,1,.09-1.11-.23-2.24-.38-3.36-.54Zm92.32-57.35-.31-.28c0,.23.12.31.32.28a4.48,4.48,0,0,0,0,1,7.18,7.18,0,0,1,.12,1.39v3.62a1.61,1.61,0,0,0,0,.31.58.58,0,0,0,.11.18l.09,0c0-.59,0-1.18,0-1.77s0-1.16,0-1.74,0-1.2,0-1.79a5.37,5.37,0,0,0-.1-1.74C109.7,34.27,109.64,34.44,109.58,34.62Zm14,.46a18.38,18.38,0,0,0,.06,4.44c0-.22,0-.38,0-.53,0-.67,0-1.34,0-2a6.83,6.83,0,0,1,.11-1.35.44.44,0,0,0-.25-.54l.23-.16c0-.42-.13-.82-.14-1.22,0-3.05,0-6.09,0-9.14,0-.14,0-.28,0-.43h-.11a7,7,0,0,0-.1.8c0,1.21,0,2.42,0,3.63l0,6.11C123.54,34.82,123.45,35,123.63,35.08ZM73.64,26h0l-.55-.63v4.91a6,6,0,0,0,1.52,0c0-.2,0-.36,0-.51a8.06,8.06,0,0,0-.47-3,.53.53,0,0,1,0-.12A.73.73,0,0,0,73.64,26Zm10,6.69h0c0,.75,0,1.51,0,2.27a.74.74,0,0,1-.05.25c-.22.61-.18.72.39,1l.9.44.25.11V31.29c-.54.3-.92.79-1.55.85ZM73.35,43.55l.47,0a45.38,45.38,0,0,1,4.81-.14c.9,0,1.8,0,2.71,0h2.58s.06,0,.12-.06l-1.3-1.08,0-.06.55.09V40.89c0-.17,0-.28.26-.27V42.5a2.87,2.87,0,0,0,1.3.74l.24-.39c-.22-.09-.2-.28-.2-.45l0-2c0-.43,0-.85,0-1.27h.06l.06,1.18h0V37h-.77a.44.44,0,0,0-.19.07c-.26.19-.5.4-.75.59l.17,1.55-.12,0c-.11-.56-.21-1.12-.32-1.68a.08.08,0,0,1,0,0l.3-.23-.5,0,.41-.33H83c-1.64,0-3.27,0-4.91,0a2.54,2.54,0,0,0-1.55.59c-.4.3-.77.63-1.19.89a.85.85,0,0,0-.44.87c0,.28.07.56.06.84,0,.59-.13,1.18-.15,1.77a.64.64,0,0,1-.3.53c-.34.27-.64.59-1,.88l-.19.13a3.09,3.09,0,0,0,0,.43c0,.67,0,1.34.07,2a2,2,0,0,0,0,.35.39.39,0,0,0,.43.39l1,0,6.6.24c1.07,0,2.13,0,3.2,0a.9.9,0,0,0,.19,0V43.66c-.3,0-.56.05-.81.05l-5.08,0c-.81,0-1.61,0-2.41,0l-2.67,0C73.73,43.69,73.51,43.73,73.35,43.55Zm-27,14a45.52,45.52,0,0,1,6-3.91,1,1,0,0,0-.45.09c-1.3.71-2.59,1.46-3.91,2.16-1.08.57-2.16,1.16-3.18,1.83a51.5,51.5,0,0,1-6.46,3.58l-.33.12a3.25,3.25,0,0,1,.76-.53c1.14-.62,2.29-1.23,3.41-1.87.85-.48,1.67-1,2.51-1.53a1,1,0,0,0,.21-.21l0-.1h-1c-.74,0-1.49.07-2.23,0-1.1,0-2.21-.15-3.31-.23-.16,0-.31,0-.51,0v3.83a1,1,0,0,1,0,.3,1.06,1.06,0,0,1-.16.21l-.09,0V56.63a1,1,0,0,0-.16-.75c-.07-.07,0-.25,0-.37a10.37,10.37,0,0,0,.12-1.09c0-1.52,0-3,0-4.55,0-1.21,0-2.42,0-3.64,0-.22,0-.45,0-.68-.19,0-.3,0-.31.16s0,.26,0,.39c0,4.41,0,8.82.06,13.22,0,.7,0,1.4.08,2.1s0,.62-.54.81a7.1,7.1,0,0,0-1.53.71,57.25,57.25,0,0,1-7.38,3.61l-.23.07c2.56-1.66,5.47-2.67,8-4.35a4.76,4.76,0,0,0-1-.36c-.74-.08-1.48-.12-2.21-.24-1.35-.23-2.7-.52-4-.77-.37-.07-.74-.12-1.17-.18,0,2.37,0,4.67,0,7,.39-.22.7-.42,1-.57,1-.47,1.95-.87,2.89-1.37,1.89-1,3.76-2.06,5.64-3.1.13-.07.23-.23.37-.27a1.43,1.43,0,0,0,1.06-.84c.22.22.41.16.63,0,.84-.45,1.7-.88,2.54-1.34s1.6-.92,2.4-1.36,1.33-.72,2-1.07c.1.12,0,.38.29.39,0,0,.07.12.07.19,0,.65,0,1.31-.07,2S46,61.49,46,62s0,.82,0,1.23l.09,6.52c0,.41,0,.82.06,1.26a.89.89,0,0,0,.45-.92c0-2.28,0-4.55,0-6.83,0-1.34,0-2.68,0-4,0-.4,0-.79,0-1.18a.34.34,0,0,1,.3-.38c0,.52,0,1,.07,1.54s0,1,0,1.59c2-1.44,3.75-3,5.72-4.31.11.25-.06.33-.17.43a50.47,50.47,0,0,1-5.27,4,.53.53,0,0,0-.3.52c0,.23-.07.46-.08.69,0,.62,0,1.25-.06,1.87a.17.17,0,0,0,0,.13c.19.18.12.41.13.62s0,.21,0,.39l.45-.31c1.77-1.25,3.34-2.73,5-4.13a.61.61,0,0,0,.2-.5c0-.56,0-1.11,0-1.66h0l.07.61a.2.2,0,0,0,.08-.18c0-1.72-.09-3.44-.14-5.16a1.76,1.76,0,0,0,0-.25L50,55.29c.26.1.46.2.38.48a.51.51,0,0,1-.39.38c-.14,0-.22-.06-.2-.24.15,0,.32.06.39-.14s0-.25-.11-.22-.43,0-.67.11c-.86.59-1.76,1.13-2.65,1.69A2.62,2.62,0,0,1,46.37,57.5ZM47,43h0a.77.77,0,0,0-.21.67l.87-.73.05.06c-.17.19-.35.37-.51.57s-.39.37-.34.73l.87-.73.84-.69c.3-.24.59-.48.9-.71a2.29,2.29,0,0,1,.88-.56,1,1,0,0,1-.25.25c-1.06.87-2.1,1.76-3.17,2.62a.65.65,0,0,0-.29.66c.08,1.09.18,2.18.2,3.27,0,1.36,0,2.72,0,4.07,0,.11,0,.22,0,.33.18,0,.33-.12.44-.09s.2.19.3.3a19.82,19.82,0,0,1,3.52.28,1.75,1.75,0,0,0,1.35-.3.5.5,0,0,0,.26-.54,3.63,3.63,0,0,1,0-.57c0-1.54,0-3.09,0-4.64,0-1.1,0-2.21,0-3.32.07-1.28,0-2.56,0-3.85,0-.3-.17-.4-.47-.3s-.38.15-.57.23a5.59,5.59,0,0,1-1.05.5A8.61,8.61,0,0,0,47,42.19.69.69,0,0,0,47,43S47,43,47,43ZM42.55,60.25l.1-.15,0-.05-1.27.75.18.28c.14-.12.26-.23.38-.32l.58-.38c-.15.15-.28.3-.43.44-.65.58-1.32,1.15-2,1.74a4.66,4.66,0,0,0-.83.83,5.31,5.31,0,0,1-.8.9c-.07.07-.17.16-.17.24a8,8,0,0,0,0,1.2c.79-.66.65-.53,1-.53l-1,.74a29,29,0,0,0,0,4.88c.24,0,.2-.14.2-.28,0-.47,0-1,0-1.42h.1v1.56c.22,0,.4,0,.57,0a.64.64,0,0,1,.4.13.54.54,0,0,0,.43.14l2.18.1c.07,0,.13,0,.2.07l0,.1h-.91a1.35,1.35,0,0,0-.93.18.68.68,0,0,0,.63.25,4.87,4.87,0,0,0,2.14-.31,1,1,0,0,1,.34,0h1.66c.11,0,.22,0,.35,0,0-.18,0-.32,0-.46l.06-4.56c0-1.34.06-2.68.1-4,0-.23.09-.46.09-.69s0-.69,0-1c0-.67,0-1.34,0-2a.37.37,0,0,0-.48-.06l-2.26,1.41C43,60,42.76,60.11,42.55,60.25Zm-6-27.42c.13.11.26.14.39,0l-.4,0,.1-.23-.25-.1v-.06l.87-.2L37,23.43a89.54,89.54,0,0,1-9.74-1.63,1.68,1.68,0,0,0,0,.2c.07,1.26.14,2.53.2,3.8a1.5,1.5,0,0,1-.1.76l-.14-.87a13.73,13.73,0,0,0-.07,1.69c0,1.8,0,3.59,0,5.38,0,.27,0,.54.06.76l1,.07.22,0c.59-.14,1.18-.29,1.78-.41s1.37-.28,2.06-.36a7,7,0,0,0,2-.52,5,5,0,0,1,.49-.2,1.42,1.42,0,0,1,1,.07,2.47,2.47,0,0,1-1.28.51L33.08,33c.53,0,1,0,1.54,0A5.79,5.79,0,0,0,36.52,32.83Zm9.95,23.49a1.88,1.88,0,0,1-.12-.45c0-1,0-1.95,0-2.93,0-3.09.12-6.19-.12-9.28,0-.11,0-.27,0-.34.21-.25.14-.51.14-.78l-.27-.07c.33-.16.28-.4.23-.67-.15.08-.3.21-.39.19a1.05,1.05,0,0,0-.59.08,6.92,6.92,0,0,1-.77.14,1.39,1.39,0,0,0-.74.22c-1,.6-1.9,1.2-2.86,1.78-.72.44-1.47.84-2.21,1.25a.46.46,0,0,0-.27.45v.52l1.12-.72,1.05-.63a3.91,3.91,0,0,1,1.09-.57,26.72,26.72,0,0,1-3.25,2.13v.57a16.53,16.53,0,0,0,2.36-1.37,2.64,2.64,0,0,1-.83.73l-1.34.74c-.09.06-.2.15-.22.24a1.86,1.86,0,0,0,0,.66c1.21-.72,2.26-1.6,3.49-2.2a3.24,3.24,0,0,1-.6.51c-.86.6-1.72,1.21-2.6,1.78a1.21,1.21,0,0,0-.58,1.05c-.05,1.81-.14,3.61-.18,5.42,0,.65.07,1.31.1,1.95l.23,0c2,0,4,.1,6,.22a2.87,2.87,0,0,0,1.2-.13c.2-.07.3-.16.28-.38s0-.41,0-.61c.06-2.42.14-4.84,0-7.27,0-.67,0-1.34,0-2,0-.14,0-.32-.1-.4a.48.48,0,0,1-.12-.4c0-1,0-2,0-3,0-.13,0-.27,0-.41.09,0,.12.1.12.15,0,.45.08.9.08,1.35,0,1.3,0,2.6,0,3.9,0,.59.07,1.19.08,1.78,0,2.26,0,4.53,0,6.79a1,1,0,0,0,.05.18l.35-.23c1.65-.83,3.24-1.76,4.84-2.68a.35.35,0,0,0-.2-.07c-.61-.05-1.22-.09-1.83-.16s-1-.16-1.51-.23a1.1,1.1,0,0,0-.51,0,3.88,3.88,0,0,0-.57.34v2A1.28,1.28,0,0,1,46.47,56.32Zm84-17.2a8.6,8.6,0,0,0,1.65,1.7,1.2,1.2,0,0,0-.49-1.51c-.3-.23-.58-.49-.86-.75a1.15,1.15,0,0,1-.15-.2h.28a5.06,5.06,0,0,1-1.05-1.83l-4-.42c0,.24.24.39,0,.62l-.43-.23a1,1,0,0,0-1.38,0v15.2c.27,0,.51-.05.73-.09.64-.13,1.27-.31,1.92-.4a22,22,0,0,0,4.09-.91,13.55,13.55,0,0,1,1.32-.31c0-.24.05-.54.05-.85l.06-6.17a.82.82,0,0,0-.25-.62c-1.37-1.53-2.73-3.08-4.09-4.62-.12-.13-.23-.28-.36-.45h.1c1.45,1.58,2.91,3.15,4.37,4.73l.09.09,0,0h0l.09,0c0-.15,0-.34-.13-.46a15.19,15.19,0,0,0-1.14-1.38c-.8-.84-1.62-1.65-2.43-2.46-.2-.19-.44-.34-.64-.53a4.71,4.71,0,0,1-.81-.8,6,6,0,0,1,1,.64c.55.45,1.08.94,1.62,1.41a4.34,4.34,0,0,0,.49.35ZM114.14,70.41c-.16.11-.25,0-.34-.11-.32-.29-.65-.59-1-.9-.85-.9-1.69-1.82-2.54-2.72a2.8,2.8,0,0,0-.3-.27.8.8,0,0,0,.23.87c.47.43.89.92,1.37,1.35,1.19,1.07,2.41,2.12,3.61,3.18a.75.75,0,0,0,.13.06l.06-.08a9.64,9.64,0,0,0-1.23-1.41v-.13l.26.13a7,7,0,0,1-.71-1.27,4.59,4.59,0,0,1,.54.54c.18.21.35.43.54.63s.29.43.53.53a11.41,11.41,0,0,1,.32-1.25,1.69,1.69,0,0,0,.14-.62c0-1,0-2.07,0-3.11a2.71,2.71,0,0,0-.15-1.32.54.54,0,0,1,0-.22c0-1.59,0-3.18.07-4.77,0-1.08,0-2.16.07-3.24a.54.54,0,0,0-.28-.54c-.33-.21-.64-.46-1-.76.37.05.43-.13.41-.39l.87.59v-7L110,44.82c0,.12,0,.18,0,.25,0,1.93,0,3.85,0,5.78a.46.46,0,0,0,.23.43,9.44,9.44,0,0,1,1.55,1.27c.58.54,1.2,1,1.8,1.54l.53.47-.06.08-1-.7-1-.72c-.34-.24-.68-.5-1-.74a11,11,0,0,0-1-.7v.85c0,1.28,0,2.57,0,3.85,0,3,0,5.93,0,8.89a.86.86,0,0,0,.29.73,5.16,5.16,0,0,1,.54.5c.16.16.3.35.45.53.64.73,1.28,1.47,1.93,2.2ZM31.08,46h0a5.3,5.3,0,0,0-.9.42c-.93.66-1.83,1.35-2.75,2a.36.36,0,0,0-.17.32v2.54a1.4,1.4,0,0,0,.09.3l.18-.53c.21.22.33,0,.46-.06l2.25-1.81a1,1,0,0,1,.23-.13,1.49,1.49,0,0,1-.33.41c-.67.56-1.33,1.15-2,1.68a.78.78,0,0,0-.36,1,2.79,2.79,0,0,1,.07.34l.7-.53c.23-.18.45-.37.69-.54a1.71,1.71,0,0,1,.65-.41,8.12,8.12,0,0,1-1.8,1.51.48.48,0,0,0-.26.49q0,3.07.07,6.13c0,.3,0,.61,0,.92.15,0,.27,0,.38.09s.27.12.31.21c.08.24.27.25.45.28l5.06.73a3.18,3.18,0,0,1,.77.13,2.46,2.46,0,0,0,1.58.08c.29-.06.5-.17.48-.62s0-1,0-1.48c-.05-2.32-.11-4.64-.15-7,0-2,0-3.94-.06-5.91,0-.14-.06-.31.15-.48l.22,3.8c.07-1.62.07-3.24.08-4.86,0-.24-.05-.51.25-.63,0,0,0-.08,0-.14a.55.55,0,0,0-.13,0c-.65.17-1.3.33-1.94.52a4.58,4.58,0,0,0-.71.33s-.14.08-.15.07c-.24-.29-.46,0-.66.05-.54.12-1.06.31-1.6.46a.59.59,0,0,1-.52,0A.43.43,0,0,0,31.08,46Zm93.75,34.63c0,.06-.13.13-.12.19a3.12,3.12,0,0,0,.13.59c.07.27.12.32.51.56l-.53-1.34c0-.12,0-.25,0-.38-.1-.36-.22-.72-.32-1.09s-.09-.51-.13-.76l.09,0c.12.32.25.62.35.94.32,1,.65,2,.95,3a1.7,1.7,0,0,0,.44.68L131,87.84a1.74,1.74,0,0,0,.24.17c.05-.57.13-1.09.15-1.62.1-2,.17-4,.28-6.07a10.14,10.14,0,0,1,.26-2,5.49,5.49,0,0,0,.1-1.21c0-3.15,0-6.3,0-9.46a2,2,0,0,0,0-.35.72.72,0,0,0-.15-.33,3,3,0,0,0-1.37-.75,2.3,2.3,0,0,1-1.1-.62,14.65,14.65,0,0,0-2.21-1.71l-3.17-2-.25-.15v.6c.12.1.23.16.27.25a1,1,0,0,1,0,.34c0,1.88.13,3.75,0,5.63-.12,1.38-.08,2.77-.09,4.16,0,1.21,0,2.42,0,3.63,0,.09,0,.22-.06.24s-.13.24-.13.37c0,.76,0,1.52,0,2.28a.65.65,0,0,0,.42.62l-.31-1.44.1,0c.17.54.33,1.08.51,1.62A4.9,4.9,0,0,0,124.83,80.65ZM85.51,25.12c-.06,0-.15-.12-.18-.1a3.11,3.11,0,0,0-.35.3l0,0,.49-.25a.55.55,0,0,0-.2.68,2,2,0,0,1,.08.6c0,1.53,0,3.07,0,4.6v5.68l.44.21-.42.22c0,.06,0,.11,0,.17,0,2.25,0,4.49.09,6.74a30.58,30.58,0,0,1-.14,5.76c0-.31-.11-.73-.15-1.14s0-.83-.07-1.24c-2-.23-4,0-5.94-.17s-3.92-.17-5.9-.25c0,.42.06.78.07,1.14,0,.53,0,1,0,1.58,0,.37.1.47.47.46l2.89,0c1.54,0,3.09,0,4.63.11a6.68,6.68,0,0,0,2.4,0,.34.34,0,0,1,.41.2c-.07,0-.14.1-.19.08a1.68,1.68,0,0,0-.77,0,8.47,8.47,0,0,1-1.13.08c-.7,0-1.39-.13-2.09-.14l-6.35,0-.21,0v3.39c.18,0,.36,0,.53-.05A23.47,23.47,0,0,1,78,53.61c1.44,0,2.89.1,4.33.13.74,0,1.49,0,2.23,0a2,2,0,0,0,.31-.05c0-.22,0-.41,0-.59,0-.67-.06-1.34-.09-2,0-.23,0-.23.21-.47.06.33.1.63.17.92a.76.76,0,0,0,.14.39.66.66,0,0,1,.19.6V56.6a1.09,1.09,0,0,0,.4.8s0,.1,0,.17l-.42.08c0,.19,0,.36,0,.53,0,1.17,0,2.33-.11,3.5a2,2,0,0,0,.24,1.45c.78.09,8,0,8.33-.06L93.45,63c-1.9-.15-3.79-.26-5.69-.22-.52,0-1,.09-1.56.13h-.31v-.1a1,1,0,0,1,.23,0c.78-.05,1.57-.14,2.35-.14,1.74,0,3.48.08,5.21.14a.92.92,0,0,0,.76-.23,6,6,0,0,1,.91-.75.56.56,0,0,0,.25-.56c0-.43,0-.87,0-1.31,0-2.13.07-4.26.09-6.39,0-1.77,0-3.53,0-5.3a2.56,2.56,0,0,0,0-.39,6,6,0,0,1-.11-.72c0-4.13,0-8.26,0-12.39,0-1.57.11-3.12.21-4.68.05-.77,0-1.54.05-2.32,0-.11,0-.26-.2-.35l-.11.85h0V24.69H86.24a34.34,34.34,0,0,0,5.64.29c-1.64,0-3.27,0-4.91,0A4.21,4.21,0,0,0,85.51,25.12ZM14.82,90.81c.31.38.75.27,1.24.35l-1.93-2.71.08-.06a3.37,3.37,0,0,1,.29.35c.53.73,1.07,1.46,1.59,2.19a.57.57,0,0,0,.65.26c-.12-.39-.47-.68-.49-1.1a6.7,6.7,0,0,1,.59.81.85.85,0,0,0,.75.43c1.65.18,3.31.35,4.95.58a15.56,15.56,0,0,0,3.61,0c.08-6,0-11.9.21-17.84a11,11,0,0,1,.1,1.52q.06,7,.1,14.06v.57h.09v-.78q0-11.88,0-23.74,0-4.48,0-9c0-.67,0-1.34-.07-2-.06-1.17-.14-2.33-.19-3.5-.07-1.89-.13-3.79-.19-5.69-.13-4.05-.1-8.11.05-12.17,0-1.25.14-2.5.19-3.75.08-1.82-.05-3.64-.09-5.46a2.07,2.07,0,0,1,0-.22c0-.52.07-1.05.1-1.6l-.28,0c-1.24.18-2.48.38-3.72.52a3.86,3.86,0,0,0-1.62.45c-.67.41-1.4.71-2.08,1.12-1.86,1.12-3.7,2.27-5.56,3.4l-.18.14.09,1.32.73-.46c.37-.24.37-.24.74-.16l-1.21.75c-.1.06-.23.18-.23.28a2.88,2.88,0,0,0,.1,1l9-5.1.05.08c-2.94,1.9-6,3.6-9,5.23v2.54c.31-.16.56-.27.8-.41s.47-.29.7-.43L20,29.48a4.58,4.58,0,0,0,.59-.27A7.11,7.11,0,0,1,22.87,28a.65.65,0,0,1,.54,0l-.4.2c-.61.31-1.24.59-1.83.93-2.64,1.5-5.13,3.25-7.87,4.59a4.66,4.66,0,0,0,.07,1.64c.44-.27.87-.56,1.3-.81l6.67-3.86c.73-.42,1.48-.83,2.23-1.22.39-.2.81-.36,1.22-.54a1,1,0,0,1-.4.31l-1.35.73-9.53,5.46c-.09,0-.22.15-.22.23,0,.54-.28,1-.28,1.58,0,.88-.08,1.75-.1,2.63-.06,2.11-.2,4.22-.13,6.34.12,4.05.19,8.11.27,12.17,0,2.17.07,4.35.1,6.52v.4c-.22-.06-.23.08-.26.21a17.43,17.43,0,0,0-.08,2.61c.92-.3,1-.49.89-1.28l-.47.19-.06-.07c.56-.16.58-.56.58-1q0-7.7,0-15.41c0-1.88.1-3.77.15-5.65,0-.1,0-.21.05-.31H14V66.35c.17-.1.3-.16.42-.24l3.85-2.74c.94-.66,1.9-1.3,2.85-1.95a2.55,2.55,0,0,1,.29-.13.32.32,0,0,1-.14.19l-7.06,5c-.09.06-.2.16-.21.25a4,4,0,0,0,0,.71l1.44-.94.07.09c-.2.18-.38.37-.59.53s-.51.34-.77.51-.23.17-.13.36c.54-.27.92-.78,1.53-.89a5.68,5.68,0,0,1,1.56-1c.5-.3,1-.57,1.53-.85l.06.08c-.9.7-1.78,1.41-2.7,2.09-.57.42-1.19.79-1.78,1.19-.11.07-.25.2-.26.32,0,.42,0,.86,0,1.34l.23-.14L18.6,67c.35-.25.73-.48,1.1-.71a.76.76,0,0,1,.2-.06l.1.12a1.79,1.79,0,0,0-.24.12c-.38.3-.73.62-1.13.9q-2.16,1.56-4.35,3.09a.66.66,0,0,0-.33.65c0,1.22,0,2.45,0,3.68,0,.14.06.31-.15.45V74.11c0-.35,0-.7,0-1s0-.73,0-1.09a3.52,3.52,0,0,0-.06-1.11c-.22.2-.39.38-.58.54a.6.6,0,0,0-.24.57q0,.72.06,1.44c0,1.68,0,3.36.09,5,0,1,.11,2,.17,3,0,.39,0,.78.07,1.2l-.44-.08V83c0,2.42,0,4.85,0,7.27a4.82,4.82,0,0,1-.14.76c.25.64,1,.41,1.49.57-.21-.21-.58-.15-.79-.5A4.33,4.33,0,0,1,14.83,91V90.8ZM147,36.52h0a1.32,1.32,0,0,0,.27-1.25c-.29.15-.59.21-.69.45a1,1,0,0,0-.28,0l-1.27.56h0a1.31,1.31,0,0,1,.21-.2l1.27-.72.13-.71.06.4.59-.3c0-.58,0-1.14,0-1.7l-.12,0c-.23.41-.06.89-.24,1.31,0,0-.05,0-.05-.06a8.35,8.35,0,0,1,0-1.5c0-.14.05-.35,0-.42-.24-.23-.12-.49-.12-.73s0-.56,0-.83c0-2.22,0-4.44-.22-6.65-.05-.52-.09-1-.11-1.57s0-1.29,0-1.93c0-.11,0-.22,0-.35l-.19,0c-.9-.08-1.8-.14-2.7-.25s-2.08-.31-3.12-.43a54.69,54.69,0,0,0-5.73-.28c-.49,0-1-.07-1.48-.1h-.47c0,.24.08.4.11.57a16.5,16.5,0,0,1,.37,2.06c.07,1.21.05,2.42.05,3.63s0,2.45,0,3.68a8.31,8.31,0,0,0,.14,1.21c0,.17.09.33.1.5,0,.54,0,1.08,0,1.62,0,.14,0,.34.1.4s.15.3.14.47c0,1.14-.11,2.27-.17,3.41a2.06,2.06,0,0,1-.1.25,2,2,0,0,1-.13-.35c0-.42-.09-.84-.09-1.26q-.06-3-.1-6c0-1.17,0-2.34,0-3.5,0-.63,0-1.25-.08-1.87a1.34,1.34,0,0,0-.08.56c0,1.77,0,3.53,0,5.3l0,6.39a.77.77,0,0,0,.14.58.31.31,0,0,1-.05.43.85.85,0,0,0-.15.86,2.63,2.63,0,0,1,.1.47c0,1.76.11,3.51.13,5.27,0,.51,0,1,0,1.53,0,1.46,0,2.92,0,4.38,0,.79-.09,1.57-.13,2.36,0,.51-.07,1-.1,1.53a.52.52,0,0,0,.05.29c.19.17.1.33.06.52a6.45,6.45,0,0,0-.39,2.09c.07,1,.07,2,.11,2.94.12,3.47.32,6.95.25,10.44,0,1,0,1.92,0,2.89,0,.75,0,1.51,0,2.27,0,2.53,0,5,0,7.58a.69.69,0,0,0,0,.25c.19.49.39,1,.6,1.46a1.42,1.42,0,0,0,.14.23,20.16,20.16,0,0,1,.1-3.39c.11,1.24.17,2.47.26,3.71a2.88,2.88,0,0,0,.17,1c.6,1.39,1.24,2.77,1.87,4.15a2.13,2.13,0,0,0,.16.25l.28,0,5.67-.51,2.26-.19c.16,0,.38,0,.46-.1a2,2,0,0,0,.68-1.19c.11-2,.2-4,.31-6q.19-3.63.4-7.26c0-.45.08-.89.14-1.34a6,6,0,0,0,.11-.72c0-2.28,0-4.56.08-6.83,0-1.22,0-2.43.12-3.64a25.64,25.64,0,0,0-.26-5.18,23.39,23.39,0,0,1-.24-2.35c0-3.21,0-6.42,0-9.63V45h-.32c0-.1,0-.25.08-.27.29-.1.24-.33.24-.54s0-.3,0-.44a.2.2,0,0,0,0-.08h-.24c0-.23,0-.23.3-.38V41.72c0-.18,0-.35.27-.33a40,40,0,0,1,.35,4.22q0,6.38,0,12.75v.73h.1c.08-1,.23-1.94.24-2.91,0-3.31,0-6.63,0-9.94,0-1,0-1.94,0-2.92q0-.81,0-1.62c0-.29.07-.6-.21-.82a.52.52,0,0,1-.07-.21h-.59v-.74l-1.36.8A18.23,18.23,0,0,0,140.93,44a5,5,0,0,1-.77.76c-.61.47-1.24.92-1.88,1.35a4.49,4.49,0,0,1-.77.36l0-.07c.3-.21.61-.4.89-.62,1.16-1,2.32-1.91,3.47-2.88A36.24,36.24,0,0,1,146,39.78a1.38,1.38,0,0,0,.56-1.49,3.25,3.25,0,0,0-.37.21c-.79.56-1.59,1.1-2.36,1.68a62,62,0,0,1-5.9,4.15l-.4.22a3.54,3.54,0,0,1,.7-.59c2.08-1.41,4.06-3,6-4.51a9.09,9.09,0,0,1,3.08-1.83v-1.1ZM73,42.76h-.1q-.09,3.65-.17,7.29a.7.7,0,0,1-.06-.35q0-3.87,0-7.74,0-6.11,0-12.21c0-1.47.08-2.94.12-4.41,0-.12,0-.23,0-.4h-.5c-1.53,0-3.06.1-4.59.13a26.31,26.31,0,0,0-3.66.3,3.63,3.63,0,0,0-1.38.33c0,.75-.09,1.48-.09,2.21,0,1.57.06,3.15.07,4.73l0,19.39a2.53,2.53,0,0,1,0,.48,28.71,28.71,0,0,0-.35,4.53c0,.34.09.69.1,1,0,1.37,0,2.74.09,4.12a6.16,6.16,0,0,0,.09.72c.47,0,.88-.09,1.28-.1.88,0,1.75-.1,2.63-.09,1.15,0,2.3.07,3.45.12l.16,0v0l-.23,0v0l2.73.12,0-.43-.23-.06-.18-.07v-.07l.43,0V51.27l.12.45c.06-.11.09-.14.09-.18a1.54,1.54,0,0,0,0-.3c0-.14,0-.26.16-.3s.08-.12.07-.18a3.22,3.22,0,0,0-.13-.54,1.4,1.4,0,0,0,.19-.83c0-.73,0-1.46-.06-2.19,0-.13-.11-.26-.17-.39s.15-.11.15-.17c0-.67,0-1.34,0-2a8.17,8.17,0,0,1-.06-1.11A3.38,3.38,0,0,0,73,42.76Zm22.94-6.58h.12c0,.16,0,.33,0,.5-.06,2.55-.16,5.1-.18,7.66,0,4.45,0,8.9,0,13.35a2,2,0,0,0,0,.35c0,.3.13.6.15.9.07,1.11.11,2.21.17,3.32,0,.22,0,.43,0,.65a1.38,1.38,0,0,0,.26,0l4.72-.26a.82.82,0,0,0,.39-.15,15.13,15.13,0,0,0,3.14-2.78.68.68,0,0,0,.19-.47c0-.36,0-.72,0-1.09,0-.15,0-.29.06-.44h.11l.06,4.08c.11-.19.11-.44.23-.56a.57.57,0,0,0,.15-.47c0-3.93,0-7.85,0-11.78a2.67,2.67,0,0,0-.1-.52c0-.24.09-.42.1-.59a20.18,20.18,0,0,1,.16-3,15.84,15.84,0,0,0,.12-3.58c0-.52,0-1-.06-1.54l0,.71a58.26,58.26,0,0,1-.42-9.67c0,.17,0,.28,0,.39,0,.77.08,1.54.09,2.32,0,1.19,0,2.39,0,3.59,0,.29,0,.57.07.86h.1c0-.23.06-.46.06-.69,0-1.42,0-2.83,0-4.25,0-1-.1-2-.13-3,0-.51,0-1,0-1.53V25.41l-.29-.13.34-.18a.88.88,0,0,0-.64-.19c-.93,0-1.86,0-2.79-.05a24.83,24.83,0,0,0-3.11,0,2.89,2.89,0,0,0-1.65.31.22.22,0,0,1-.34-.06c-.14-.25-.34-.14-.49-.07a2.75,2.75,0,0,0-.56.35c-.12.08-.08.18,0,.29l.38-.23.12.14.65-.24,0,.11-.77.29c-.27.08-.47.2-.46.53a3.87,3.87,0,0,1,0,.48c0,1.15,0,2.31-.09,3.46,0,.66-.15,1.33-.18,2s0,1.51,0,2.27V39ZM52.82,27.24c0,.56,0,1.1.07,1.64,0,1.28.12,2.56.14,3.85,0,2.81,0,5.63.07,8.45,0,.48,0,1,0,1.44,0,1,0,2.07.08,3.11,0,.24,0,.49,0,.74a30.56,30.56,0,0,1,.1,4.28c-.1,1.72-.18,3.44-.25,5.15A15.46,15.46,0,0,0,53.25,59c.19,1.13.19,2.3.28,3.45,0,.07,0,.15,0,.23.25,0,.22-.13.22-.25,0-.61,0-1.23,0-1.84a3,3,0,0,1,.06-.59h.11L54,62.74l1.6.11,4.41.33a.66.66,0,0,0,.37-.06,9.54,9.54,0,0,0,1-.73,1.4,1.4,0,0,0,.49-1.08c0-1,.07-1.89.12-2.84,0-.51.16-1,.16-1.52,0-2.67,0-5.34,0-8,0-.38,0-.76.07-1.14.06-.71.17-1.42.18-2.13,0-1.69,0-3.39-.07-5.08,0-1.06-.14-2.13-.16-3.19,0-1.52,0-3,0-4.55,0-2.18.1-4.35.15-6.52,0-.2,0-.4,0-.59a3.33,3.33,0,0,0-.79-.21c-2.21,0-4.43,0-6.65-.08A2.59,2.59,0,0,0,53,26c-.3.26-.33.23-.18.7l.81-.44,0,.06L53,27l.35.15Zm70.35,51.61c0-.2,0-.3,0-.4,0-1.21,0-2.42.09-3.63,0-.54.13-1.07.13-1.61,0-3.78,0-7.56,0-11.34a.7.7,0,0,0-.35-.68,8.57,8.57,0,0,1-.79-.55l-.82-.58-.78-.57-.81-.59a2.85,2.85,0,0,0-.79-.54c-.35-.1-.46-.41-.72-.56l0,0c-.56-.42-1.13-.83-1.7-1.24-.1-.08-.21-.14-.34-.23v1c0,2,0,4.05,0,6.08a2.24,2.24,0,0,0,.14,1.2c0,.06,0,.17,0,.25,0,.56,0,1.11-.08,1.66a1.43,1.43,0,0,1-.21.65.49.49,0,0,0-.12.29c0,1.34,0,2.68,0,4a.74.74,0,0,0,.17.43c.55.62,1.09,1.26,1.68,1.84,1.62,1.6,3.26,3.18,4.88,4.77ZM52.22,25.19l-.68,0a1.51,1.51,0,0,1-.3,0,6.93,6.93,0,0,0-.75-.2q-3.19-.4-6.39-.78c-1.45-.18-2.9-.34-4.34-.5l-2.41-.27.41,9.41.84,0c1,0,2-.07,3.06-.14,1.18-.09,2.35-.22,3.53-.32.45,0,.54-.1.57-.55.08-1,.13-2.1.18-3.15a.84.84,0,0,0,0-.27c-.24.95,0,1.91-.23,2.85a4.47,4.47,0,0,1,0-.73l0-3.46c0-.69,0-1.38,0-2.06,0-.14-.06-.3.15-.4a.76.76,0,0,1,.11.22,4.07,4.07,0,0,1,.07.61,55.53,55.53,0,0,1,.06,5.77c0,.35,0,.7,0,1.07l5.08-.43a5.84,5.84,0,0,1-.81.17c-.27,0-.55.07-.82.13a2,2,0,0,0-.82.15,6.42,6.42,0,0,0,3.8-.48c0-.91-.08-1.83-.13-2.75,0-.68-.1-1.36-.12-2S52.22,25.86,52.22,25.19ZM29.94,45.93l7.26-2.25-.32-10.26L30,33.76l.21.41a20.73,20.73,0,0,0-3.06,0l.11,12.55A16.68,16.68,0,0,0,29.8,46c-.15-.33-.41-.56-.46-.91Zm94.34-23c-.33.07-.32.28-.3.49s-.08.39.12.53c0,0,0,.09,0,.1s-.12.26-.12.4c0,3.43,0,6.86,0,10.29,0,.11,0,.22,0,.37,2.65.15,5.21-.42,7.81-.61,0-.17,0-.3.07-.42s.08-.2.12-.21c.27,0,.27-.24.32-.42a6.61,6.61,0,0,0,0-2.73c0-.05-.07-.1-.17-.23,0,.49,0,.88,0,1.28a2.89,2.89,0,0,1-.16,1.24c0-.47,0-.88,0-1.29a68.58,68.58,0,0,0-.1-7.31.82.82,0,0,0-.17-.41,1.4,1.4,0,0,0-.75-.67c-.09,0-.13-.18-.2-.27l-1-.15-5.28-1a.91.91,0,0,0-.61.08C123.94,22.62,123.94,22.62,124.28,22.89Zm-7.7,24.87v-.07l6.22-1.07a6,6,0,0,0,.21-1.91c0-.14,0-.29,0-.44,0-1.22.07-2.45.11-3.67a2,2,0,0,0-.39-1.3,9.9,9.9,0,0,1-.69-1.12c-.09-.16-.17-.33-.25-.49A6.9,6.9,0,0,1,123,39.05a1,1,0,0,0-.1-.79l-1.16-2.18c.62.27.75.85,1.19,1.19l-.15-1.21-6.7-.92v12.7a76.38,76.38,0,0,0,7.15,3.67V46.93c-.88.1-1.73.18-2.58.3-1.08.16-2.15.36-3.24.53A6,6,0,0,1,116.58,47.76Zm7.59,4.79c0,.48-.06.84-.09,1.2a.81.81,0,0,1-.08.42.66.66,0,0,0-.13.52,42.17,42.17,0,0,1,0,4.77,3.23,3.23,0,0,0,0,.44.8.8,0,0,1-.06.45c-.14.28,0,.5.25.69.8.53,1.59,1.05,2.39,1.56a20.23,20.23,0,0,1,2.76,1.91c.32.29.57.66.86,1a2.41,2.41,0,0,0,.48.36,2.28,2.28,0,0,0,.36.15l.56.25c.18.09.36.2.61.35-.07-3,.28-5.9.07-8.82l-.27.07a6.85,6.85,0,0,1-.2-1.83ZM46,32.86c-1.43.12-2.79.24-4.16.33s-2.72.15-4.1.23l.36,10.06,7.61-2.16C46.06,38.51,45.91,35.72,46,32.86Zm76.4,1.31c0-.43,0-.82,0-1.21a.57.57,0,0,1,.14-.35.94.94,0,0,0,.22-.6c0-.22,0-.43.09-.65a11.42,11.42,0,0,0,.09-3.78c0-.26-.13-.51.11-.69-.08-.14-.22-.24-.21-.35a4.89,4.89,0,0,1,.18-1.87l-.35-.7c-2.2-.38-4.46-.46-6.74-.74,0,.91,0,1.8,0,2.69,0,2.65.07,5.3.1,8,0,.14,0,.28,0,.45ZM37.09,69.24c-.55.37-1,.71-1.53,1q-4,2.67-8.07,5.31a.51.51,0,0,0-.24.52c0,2.27,0,4.55,0,6.82a3.15,3.15,0,0,0,0,.37l.34-.27c2.31-2.13,4.8-4,7.23-6,.61-.5,1.23-1,1.86-1.46a.69.69,0,0,0,.34-.64c0-1.76,0-3.53,0-5.29C37.11,69.51,37.1,69.4,37.09,69.24Zm-.61-5.39a4.19,4.19,0,0,1-.42.34,7.75,7.75,0,0,1-.81.42c-1.47.62-2.94,1.21-4.39,1.85-.93.41-1.84.89-2.76,1.33a.56.56,0,0,0-.33.46c-.07.43-.2.85-.29,1.28a5.67,5.67,0,0,0-.21,1.15c0,1.3,0,2.6,0,3.89a2.47,2.47,0,0,0,0,.34c.3-.16.57-.31.84-.44a31.21,31.21,0,0,0,5.38-3.16c1-.75,2.13-1.43,3.22-2.1a.64.64,0,0,0,.39-.64c0-1.75,0-3.5,0-5.25A2.43,2.43,0,0,0,37,63l-2,1.1A9.35,9.35,0,0,1,36.48,63.85Zm86.93-3.23V59.55c0-.09,0-.26.06-.28.21-.07.16-.22.16-.36s0-.49,0-.74c-.07-1.82-.26-3.63-.22-5.46a.47.47,0,0,0,0-.17A.8.8,0,0,0,123,52c-2.16-1.11-4.29-2.24-6.44-3.36l-.39-.19a.9.9,0,0,0,0,.16c0,2.19,0,4.37,0,6.56a.4.4,0,0,0,0,.25,2.5,2.5,0,0,0,.43.58c.56.53,1.14,1,1.72,1.55,0,0,.15,0,.23,0A11.17,11.17,0,0,0,122.07,60l.14-.18Zm-96.14,29c.13-.11.2-.15.26-.21l5.61-5a14.15,14.15,0,0,0,1-1c1-1.1,2-2.23,3-3.32A1.42,1.42,0,0,0,37.63,79c0-.9,0-1.81,0-2.73l-.56-.15L37,75.83c-.22.21-.43.38-.6.57a6.57,6.57,0,0,1-2.43,1.81,2.65,2.65,0,0,0-.53.42l.05.1.76-.25a34.53,34.53,0,0,1-3.39,2.78L27.27,83.8Zm87.56-54.77c.2.31.35.52.47.75,0,.06,0,.17,0,.26s-.18,0-.22-.08a4.87,4.87,0,0,1-.46-.69.75.75,0,0,0-.57-.42L110.67,34c-.18,0-.37,0-.58-.07V44l4.47-.71.69-.12.3-.09V35ZM46.27,39h.1l.08-2.55h.1c0,.51,0,1,0,1.53s0,1,0,1.57a10.28,10.28,0,0,0,0,1.56l5.9-2a56.79,56.79,0,0,0,0-6.26l-.7,0,0-.11.71-.26,0-.25c-2.08.37-4.17.35-6.27.64,0,.26,0,.5,0,.74a6.58,6.58,0,0,1,.12.86c0,1.17-.07,2.33-.12,3.5A2.46,2.46,0,0,0,46.27,39Zm60,10.16v.51c0,.75,0,1.49,0,2.24,0,.22,0,.43-.05.65a13.05,13.05,0,0,0-.17,2.86c0,.15,0,.29,0,.44,0,1.53.26,3.05.2,4.59,0,.52,0,1,0,1.58,0,.15,0,.32.23.4.13-1.18,0-2.34.19-3.48a.74.74,0,0,1,0,.26,10.8,10.8,0,0,0,.39,3.2,1,1,0,0,0,.18.28,7.59,7.59,0,0,1,.83,1.06,4.08,4.08,0,0,0,.75,1c.18.17.35.36.53.53a2.46,2.46,0,0,0,.28.21v-.55l0-11.16V51.81a.42.42,0,0,0-.16-.38c-.5-.38-1-.73-1.52-1.15s-.74-.55-1.11-.84A2.73,2.73,0,0,0,106.26,49.13ZM83.21,31.72l.76-.5,0-.09c-.4.05-.79.11-1.19.15s-.78.09-1.18.11-.81,0-1.22,0a3.56,3.56,0,0,1-1.17-.11c.69-.05,1.37,0,2.06-.06a6.88,6.88,0,0,0,2.69-.43,2,2,0,0,1,.6-.1.78.78,0,0,1,.38,0c.09.05.12.2.22.39l0-.49-10.89-.09s0,0,0,0l0,0a1.43,1.43,0,0,0,1.12.36c.41,0,.82-.06,1.22-.08a12.34,12.34,0,0,1,2.35,0l-4.49.22a3.43,3.43,0,0,1,.27,1.9c0,.9.07,1.8.11,2.71,0,.46.11.52.57.49A35.16,35.16,0,0,1,79.23,36H80.9c.17-.08.15-.41.41-.23l-.09.21c.35,0,.67,0,1-.06l.93-.09A16.14,16.14,0,0,0,83.21,31.72Zm27,1.53,5.3-.27a7.81,7.81,0,0,0,0-.81q0-2.39-.06-4.77c0-.41,0-.82,0-1.23a1,1,0,0,0,0-.38c-.15-.31-.33-.61-.51-.93-1.56,0-3.13-.34-4.71-.43ZM73,54v2.88h.09l.07-2.45a15.47,15.47,0,0,1,.12,1.92l0,.7c0,.14.09.21.27.15l.11-.65h0l.08.65.29,0h7.27l1.27,0a10.53,10.53,0,0,0,2.32.11,2.64,2.64,0,0,0,0-.29c0-.45,0-.91,0-1.36a3.73,3.73,0,0,1,.16-1.59c0-.06,0-.14,0-.16h-5.4c-1.66,0-3.32-.07-5-.09C74.2,53.94,73.63,54,73,54Zm11.87,3.62a12.34,12.34,0,0,1-1.36,0,28.49,28.49,0,0,0-3.58-.1c-2.31,0-4.61,0-7,0l.17,3.27c.3,0,.56,0,.82,0,2.19-.17,4.4-.16,6.6-.15.9,0,1.8.07,2.7.1a2.37,2.37,0,0,1,1,.11,1.14,1.14,0,0,0,.37,0V58.45h.1l.15,2.39c.29,0,.36-.13.35-.34,0-.44,0-.87-.07-1.31A2.35,2.35,0,0,0,84.88,57.65ZM106.29,33v9l.33-.08a10.21,10.21,0,0,1,2.25-.52,3.08,3.08,0,0,0,.57-.17v-.48c0-1.3,0-2.6,0-3.9a1,1,0,0,0-.28-.83s0-.05,0-.09l.28-.15a1.11,1.11,0,0,0-.19-1,7.33,7.33,0,0,1-.39-.73s0-.09,0-.14L109,34l.14,0c0-.1,0-.21-.09-.22a4,4,0,0,0-1.06-.16l.3,1-.09,0-.54-1.1-1.11-.23v-.1l2.94.36c0-.26-.15-.28-.31-.3-.35,0-.7,0-1-.08C107.5,33.13,106.9,33,106.29,33ZM109,26.38a1,1,0,0,1-.44-.78.76.76,0,0,0-.78-.66,2.76,2.76,0,0,0-1.31,0l-.13,2.57h-.07V26.15h-.13c-.05,1.06-.1,2.13-.06,3.2s.16,2.13.25,3.22a17.53,17.53,0,0,0,3.22-.42v-.56c0-1.47,0-2.94,0-4.41a1.68,1.68,0,0,0-.31-1.07,1.16,1.16,0,0,1-.29-.7l.56.85c.08-.42-.13-.67-.19-1l-.74-.14ZM38.81,73.59c-.59.13-.6.16-.57.65l.24,3.84c0,.09,0,.18.06.31.12-.1.2-.16.27-.23l3.34-3.35a18.45,18.45,0,0,1,2.77-2.53c.23-.15.42-.35.69-.57-.42,0-.76-.14-1,.16a.47.47,0,0,1-.29.07,6.91,6.91,0,0,1-.79,0c-.75-.07-1.51-.18-2.26-.23s-1.66-.06-2.49-.09a1.57,1.57,0,0,0-.32,0c-.23.41.27.42.3.61,1.1,0,2.22-.23,3.22.48a.51.51,0,0,1-.32.09l-1.21-.18a6.93,6.93,0,0,0-1.82,0,1.28,1.28,0,0,1,0,.33c-.05.08-.16.13-.29.23Zm67.5-31a.85.85,0,0,0,0,.15c0,1.93,0,3.85,0,5.77a.47.47,0,0,0,.28.44c1,.58,1.91,1.18,2.87,1.77.08,0,.17.08.25.12s0,0,0-.06c0-2,0-3.91,0-5.86a.33.33,0,0,0,0-.2,3.13,3.13,0,0,0-.66-.59c-.78-.43-1.53-.9-2.3-1.36Zm17.52,9.6a.91.91,0,0,0,.36,0,1.14,1.14,0,0,1,.83.16l6.36,2.92.29.08c.05-1.62.26-3.19.32-4.73L130,51c-1.16.17-2.33.34-3.5.49a20,20,0,0,1-2.42.5A.27.27,0,0,0,123.83,52.22ZM47,69.84l.17-.15C48.59,68.11,50,66.54,51.39,65c.42-.47.8-1,1.2-1.45.1-.12.23-.25.13-.44l-.36.17.43-.7c-.29-.11-.23-.35-.23-.56s0-.51,0-.82l-.35.28c-.75.64-1.49,1.31-2.25,1.94a14.17,14.17,0,0,1-3,2.05ZM115.54,43.5c-1.84.21-3.66.49-5.49.85a53.54,53.54,0,0,0,5.5,3.13l.06-.59.37-.07c0-.12,0-.21,0-.31,0-1.23,0-2.46,0-3.68,0-1.49,0-3,0-4.47,0-.71,0-1.43-.06-2.14,0-.12,0-.27-.16-.34l.09,10.66h-.11C115.4,45.55,115.68,44.51,115.54,43.5Zm-41-7.45a.7.7,0,0,0,0-.14v-3.1a.94.94,0,0,0-.11-.32c-.23-.48-.47-1-.68-1.46a.62.62,0,0,0-.7-.46,52.52,52.52,0,0,0,0,6.23,8.29,8.29,0,0,1,2.11.11A4.59,4.59,0,0,0,76,37c.32,0,.62-.19.93-.2,1.3,0,2.6,0,3.89-.05a.53.53,0,0,1,.22,0,3.43,3.43,0,0,0,1.85.11.72.72,0,0,1,.54,0c.08,0,.26.06.29,0,.16-.23.42-.17.68-.26-.25-.14-.46-.24-.65-.37a.81.81,0,0,0-.58-.12c-.74.06-1.48.14-2.23.15s-1.75-.06-2.62,0c-1,0-2.1.14-3.14.21-.14,0-.26,0-.32.17s-.07,0-.12.07l-.19-.23c-.48.06-.94.33-1.49.08A7.67,7.67,0,0,1,74.53,36.05ZM78,61.6v0l1.43-.08,3.46-.12a.73.73,0,0,0,.24-.07l0-.1c-.2,0-.39,0-.59,0-1.71,0-3.41,0-5.12.08-.89,0-1.77.12-2.66.18v.09L77,61.46a3.51,3.51,0,0,1-1.36.19H74.1c-.12,0-.28,0-.3.2a22.25,22.25,0,0,1,2.72-.07L73.78,62v.33c.79.07,1.57.17,2.35.2s1.66,0,2.49,0a.48.48,0,0,0,.54-.32c.1.3.29.31.5.31l3.85.1c.3,0,.59.07.94.11,0-.28,0-.53,0-.77a.25.25,0,0,0-.21-.29,4.67,4.67,0,0,0-1.24-.21c-1.06.07-2.13.13-3.19.17C79.25,61.62,78.64,61.6,78,61.6ZM21,23c-.23,0-.46,0-.69,0s-.75.11-1.13.13a3,3,0,0,0-1.47.5l-4.58,2.82a.74.74,0,0,0-.12.09L13,27.65C15.72,26.11,18.26,24.45,21,23ZM132.48,82.71v3l.44.13c0,1-.07,2-.09,3s0,2,0,3h.8l.13-.7c-.17-.17-.48.11-.61-.24l.73-.1c0-.73,0-1.41.06-2.09a2.8,2.8,0,0,0-.3-1.48,6.09,6.09,0,0,1-.62-2,1.18,1.18,0,0,1,0-.26c.37.59.41,1.29.87,1.91a3.75,3.75,0,0,0-.1-1.28L133,83.39l-.21.18A1.57,1.57,0,0,1,132.48,82.71ZM73.42,37.62c-.17,0-.21,0-.26.16a3.64,3.64,0,0,0-.09,1.64c0,.68,0,1.36.06,2,0,.07,0,.16,0,.21A2.6,2.6,0,0,1,73.26,43a1.14,1.14,0,0,0,0,.25l1.22-1.06c0-.29,0-.59.06-.9,0-.75.11-1.51.17-2.27a.64.64,0,0,0-.17-.52l-.74-.91s-.14-.06-.25-.11c0,.52.5.76.5,1.23l-.5-.64-.13.51-.09,0Zm58.83-17.88a59.41,59.41,0,0,1-6.56,1.86,1.87,1.87,0,0,0,.5.14l4.28.86c.14,0,.28.12.41,0a.65.65,0,0,1,.65-.15c.24,0,.48.11.74.17v-.33c-.19,0-.4,0-.49-.08s-.32-.09-.48-.05-.37.11-.55.14a.83.83,0,0,1-.83-.17l2.35-.62v-.56a32.34,32.34,0,0,1-4.05,1c1.33-.55,2.73-.87,4.15-1.37C132,20.31,132.38,20.05,132.25,19.74Zm-94.58,43c-.4.08-.42.09-.42.42,0,1.72-.08,3.44-.1,5.16,0,.63.05,1.25.06,1.88,0,1.5,0,3,0,4.51,0,.13,0,.27,0,.42.25,0,.37-.14.37-.38,0-.93,0-1.86.07-2.79s-.08-1.74-.09-2.62a6.3,6.3,0,0,1,0-2.29,1,1,0,0,0,0-.18Zm35.92.41H84.41c0-.26-.11-.3-.31-.31-.73,0-1.46-.09-2.19-.11-2.61-.08-5.22-.14-7.83-.2l-.38,0Zm35.84-21.55c-.39.05-.75.09-1.11.15s-.71.12-1.06.21a3.57,3.57,0,0,0-1.1.35l1.16.61c.35.18.7.36,1,.55s.68.42,1.07.59Zm6-8.36-4.93.19-.11.27.31.1c.86.17,1.71.37,2.57.51.65.11,1.3.16,2,.22a1.8,1.8,0,0,0,.44-.09C115.29,34,115.56,33.58,115.41,33.22ZM84.73,26.51l-.78.57.08,3.1h1.15V26.67c-.39.26-.65.64-1.16.79C84.22,27,84.61,26.89,84.73,26.51Zm39-4.48c-.3.07-.55.15-.81.19-.74.12-1.49.27-2.24.34a5.34,5.34,0,0,1-2.25.14l-1.5.33a.16.16,0,0,0,.14.07c1.23.11,2.46.23,3.7.33a10.69,10.69,0,0,0,2.19.2c.37-.05.38,0,.27-.43-.4,0-.78.27-1.22.05l.83-.26c-1,0-2,.23-3,.23a18.21,18.21,0,0,1,3.86-.77ZM17.34,23.5l0-.06-1.2.21a3.56,3.56,0,0,0-.79.22c-.61.27-1.21.57-1.82.86l-.63.33L13,26.2Zm108,11.85c2.19.25,4.42.22,6.66.36l-.17-1ZM136.3,91.71l5.44-1.28,0-.09-5.17.45V91c-.23,0-.31-.32-.59-.15Zm-20.46-68.5c-.17.09-.29.11-.32.18s0,.15.12.23,0,.24.06.38h0l-.07-.17-.09.51-.21-.44c-.5.12-1,.25-1.44.32s-.92.08-1.38.12v.11l.42,0c.73,0,1.45.06,2.18.11a.51.51,0,0,0,.56-.28,3.75,3.75,0,0,1,.05.43c0,.83-.06,1.65,0,2.48.07,1.88.07,3.76.1,5.65v.4a.16.16,0,0,0,.07-.13q.06-3.66.11-7.3C115.93,25,115.88,24.16,115.84,23.21ZM104.87,60c-.33.38-.59.71-.87,1a10.17,10.17,0,0,1-.9.84c-.31.27-.64.5-1,.8.64.07,1.15.1,1.57-.37a4,4,0,0,1,.75-.53,1.33,1.33,0,0,1,.21-.09l.05.06-.81.9a3.19,3.19,0,0,0,.4,0c.4,0,.44,0,.48-.45l.15-1.65C104.88,60.36,104.87,60.2,104.87,60ZM12.6,31.27a.78.78,0,0,0-.11.44c0,1.21,0,2.42,0,3.62a23,23,0,0,1-.18,2.35,31.94,31.94,0,0,0-.23,4.58c0,.14,0,.27,0,.41.15-1,.2-1.91.28-2.87a6,6,0,0,1,.24-1.72,5.17,5.17,0,0,0,.27-1.31,5.7,5.7,0,0,0-.05-1.17,15.4,15.4,0,0,1-.18-3.18,8.42,8.42,0,0,0,0-.87A1.28,1.28,0,0,0,12.6,31.27Zm110.45,3c-.71.05-1.38.13-2.06.16-1,0-2,0-2.94.06a.78.78,0,0,0,.32.12l1.13.18a12.3,12.3,0,0,0,2.42.28,1.13,1.13,0,0,0,.32-.06,1.28,1.28,0,0,1,.24-.11,3.08,3.08,0,0,1,.42,0l.2.22.08,0V33h-.06Zm23.82,55.62a12.33,12.33,0,0,0,.31-4.14h0l-.34.16c-.32-.5,0-1.05-.22-1.53,0,1.84-.05,3.69-.07,5.57ZM124,35.69a2,2,0,0,0,.39.1l1.21.08,3.27.25a10.41,10.41,0,0,0,2.3.1,4.65,4.65,0,0,1,.91.07.25.25,0,0,0,.12,0l-.13-.3a63.45,63.45,0,0,1-8-.65ZM38.59,45.27l4.13-2.39,0-.1a1.33,1.33,0,0,0-.45,0,13.35,13.35,0,0,0-1.39.62c-.68.37-1.33.79-2,1.17A.49.49,0,0,0,38.59,45.27ZM123,35.49c-.06-.24-.25-.2-.43-.21-.71,0-1.42,0-2.13-.12-.53,0-1.06-.19-1.59-.28s-1.26-.21-1.9-.28c-.2,0-.43-.13-.6.09,0,.22.23.2.38.22l2,.25,3.72.54C122.67,35.73,122.86,35.73,123,35.49ZM109.6,66.59a.75.75,0,0,0-.23-.9c-.24-.21-.45-.45-.67-.68-.07-.07-.15-.2-.22-.2-.45,0-.56-.36-.75-.64a6.57,6.57,0,0,0-1.53-1.49,1.28,1.28,0,0,0,.58,1,4,4,0,0,1,.8.73c.37.41.74.83,1.11,1.23ZM31.21,87.91l.1.09a2.78,2.78,0,0,1,.21-.27c1.35-1.44,2.7-2.87,4-4.31.64-.69,1.27-1.4,1.9-2.1.11-.13.25-.24.16-.49Zm78.6-55.78h.1a.58.58,0,0,0,0-.14q0-3.11,0-6.21a.29.29,0,0,0-.28-.33v1.93c0,.32,0,.64,0,1v1.92c0,.32,0,.64,0,1A1.91,1.91,0,0,0,109.81,32.13Zm-94-8.93,0-.1-3.64.34,0,.73ZM131.06,89.13c.18-.31,0-.46-.13-.63-1.5-1.51-3-3-4.48-4.55-.08-.08-.16-.14-.29-.25,0,.35.27.47.44.64l3.75,3.92C130.6,88.52,130.81,88.82,131.06,89.13ZM12.88,71.25c.28-.25.47-.45.68-.62a.52.52,0,0,0,.23-.52c0-.25,0-.5,0-.74a4.12,4.12,0,0,0,0-.42c-.27.2-.48.36-.69.5a.37.37,0,0,0-.17.33ZM132.9,22l-.1,0c-.05,1.19-.11,2.38-.13,3.57a22.05,22.05,0,0,0,.11,3.54,1.21,1.21,0,0,0,.05-.42c0-1,0-2,.06-3.07,0-.87.07-1.74.09-2.62A3.18,3.18,0,0,0,132.9,22Zm2.54,68.87-1.28.16a1.4,1.4,0,0,0-.1.8,6.69,6.69,0,0,0,1.78-.11ZM41,61.52l0-.06-.37.18a15.55,15.55,0,0,1-1.79,1c-.11,0-.27.15-.28.24a1.82,1.82,0,0,0,.05.92Zm93.28,25.29a1.74,1.74,0,0,0,.16,1.33l.92,1.73c.11.19.21.39.33.57s.12,0,.26.09C135.39,89.26,134.85,88.07,134.29,86.81Zm-27.62-54a21.7,21.7,0,0,0,3,.35l-.14-.7Zm25.89,12.59c0,.41,0,.82,0,1.23,0,1.39-.06,2.79-.08,4.19a4.31,4.31,0,0,0,.12,1.43A37.33,37.33,0,0,0,132.56,45.39Zm-21.29-21.2v.09a4.11,4.11,0,0,0,.6.08.85.85,0,0,0,.45-.09,1.89,1.89,0,0,1,.86-.24c.69-.1,1.37-.26,2-.41.05,0,.08-.13.17-.28Zm35.9,8.67.1,0,0,0a.3.3,0,0,0,0-.08.57.57,0,0,0,0-.13q0-3.72,0-7.44a.08.08,0,0,0,0,0s0,0,0,0l-.06,0c0,2.51.06,5-.09,7.52A.54.54,0,0,0,147.17,32.86Zm-12.78,56-.1,0-.09,1.91,1.06-.19Zm-11.24-9.13a.45.45,0,0,0-.14-.54c-.71-.64-1.42-1.3-2.13-2a2.07,2.07,0,0,0-.23-.18A14.94,14.94,0,0,0,123.15,79.71Zm9.11,4.73h0c0,.39,0,.78-.06,1.17-.07,1-.14,2.06-.22,3.09a.4.4,0,0,0,.29.44Zm-105,6.3.12.05a39.5,39.5,0,0,0,3-3c-1,.86-2,1.74-3,2.64A1,1,0,0,0,27.23,90.74Zm120.1-52.93c-.71.37-.71.37-.68,1,0,.1,0,.2,0,.34l.66-.18ZM123.58,51.33h.13c0-.22,0-.45,0-.68,0-1.12,0-2.24,0-3.36,0-.11,0-.26-.11-.34a25.89,25.89,0,0,0-.11,4.12A1.38,1.38,0,0,0,123.58,51.33ZM26.83,45.21h.09l-.23-5.29c0,1.35,0,2.91,0,4.46a3.66,3.66,0,0,0,0,.57A1.43,1.43,0,0,0,26.83,45.21Zm82.86-1.07c.1,0,.19,0,.19-.08a19.52,19.52,0,0,0,0-2.65c-.1.05-.19.08-.19.1C109.68,42.37,109.69,43.22,109.69,44.14Zm37.64-4.75c-.73.29-.75.37-.62,1.19l.62-.17ZM118,74.75a10.15,10.15,0,0,0-1.9-2.21,1.32,1.32,0,0,0,.45.88C117,73.88,117.49,74.31,118,74.75Zm-105.55-15h0V67h0ZM110,24.82v-.38l-1.64.24v.09l1.15.34.1-.32Zm22.32,41.91a15.66,15.66,0,0,0-.08,3.82A15.16,15.16,0,0,0,132.35,66.73ZM27.37,53h-.09v5.15c.07-.86.07-1.72.07-2.58A24.46,24.46,0,0,0,27.37,53Zm37.29,9.87-1.9.15a.5.5,0,0,0-.19.1l0,0h2.2Zm41.43-13.61a12,12,0,0,0,0-3A14.22,14.22,0,0,0,106.09,49.27Zm-29-12.15a.71.71,0,0,0-.7.1c-.36.3-.74.6-1.12.88a2.32,2.32,0,0,1-.39.2l.09.36A7.84,7.84,0,0,1,77.1,37.12ZM132.17,90.9l.1,0c0-.28,0-.55,0-.83a.46.46,0,0,0-.35-.52C131.59,90.09,132,90.47,132.17,90.9Zm-7.8-69.54,0,.1a24.18,24.18,0,0,0,3.73-.92Zm15.32,70.7v.08l3.9-.72,0-.1C142.27,91.47,141,91.8,139.69,92.06ZM95.55,61.7l-.74,1a1.14,1.14,0,0,1,.74.22ZM73,53.82h.12a.36.36,0,0,0,0-.11c0-.81,0-1.63,0-2.44,0-.05-.06-.1-.09-.15l-.09,0C73,52,72.94,52.93,73,53.82ZM29.29,46.7a4.33,4.33,0,0,0-2,1.55ZM12.87,68.89l.79-.62c.13-.1.14-.22.06-.39a6,6,0,0,1-.62.37C12.83,68.37,12.77,68.56,12.87,68.89Zm26.68,9.66.71-.8c.23-.26.46-.54.68-.81-.49.4-.94.83-1.39,1.25C39.44,78.29,39.35,78.38,39.55,78.55ZM121.3,22.06a4.73,4.73,0,0,0,2.34-.5l-.3,0ZM12.54,25.27c-.34,0-.26.23-.26.39a3.62,3.62,0,0,0,0,.47c0,.16-.08.35.19.52C12.56,26.16,12.49,25.72,12.54,25.27Zm14.77,50.2,1.48-1,0-.08-1.33.65C27.25,75.16,27.23,75.28,27.31,75.47ZM53.24,60.33v1.76l.12,0A7.24,7.24,0,0,0,53.24,60.33ZM12.47,28.23a2.74,2.74,0,0,0,.06,1.39A2.73,2.73,0,0,0,12.47,28.23ZM52.77,26l.76-.53-.83-.15ZM63,25v.07h.7l-.16.18,1.35-.22v0ZM85.16,45.15h0c-.05.36-.09.71-.13,1.06s0,.44,0,.65.09.11.2.24ZM12.58,29.88a1.66,1.66,0,0,0,0,1.19A2,2,0,0,0,12.58,29.88Zm58.9,33.27c.51.21.91.19,1.16-.06ZM53.11,48.41H53c0,.25-.07.51-.08.76s0,.5,0,.75L53,50ZM12.51,26.83a1.38,1.38,0,0,0,0,1.24A4,4,0,0,0,12.51,26.83ZM84.69,31.2c-.63.24-1,.53-1.1.79A7.2,7.2,0,0,0,84.69,31.2ZM37.31,75.83c.38-.19.38-.19.26-.61C37.38,75.38,37.2,75.51,37.31,75.83ZM84.88,63.11c.29-.14.32-.43.14-.8Zm25-30.09.09,0V32.3c-.31.12-.19.36-.21.53S109.81,33,109.85,33Zm-35,28.17v.11l1.24-.13A1.91,1.91,0,0,0,74.84,61.19Zm48.84-37.35V23c-.12.12-.21.18-.21.23S123.39,23.66,123.68,23.84Zm.13,28.59v1.23C124,52.89,124,52.58,123.81,52.43ZM100.93,63.09a6.75,6.75,0,0,0-1.62,0A5.86,5.86,0,0,0,100.93,63.09Zm31.25-24.63c.16-.39.07-.53-.41-.64ZM12.28,24.86c.27-.05.39-.16.32-.45l-.37.05v.2C12.24,24.72,12.26,24.77,12.28,24.86ZM27.37,51.91a.83.83,0,0,0,0,.82Zm78.93,11.9-.06.09.63.52C106.71,64.17,106.66,63.82,106.3,63.81ZM26.68,23.26c.06-.63.05-.65-.07-.92l-.05.06Zm-1.25,69.9L25,93.08l0,.07.47.42ZM73.27,37.42c.28.06.39-.31.67-.15C73.62,37,73.5,37.06,73.27,37.42ZM12.83,24.62l.66-.35C12.94,24.26,12.87,24.3,12.83,24.62ZM74.61,38.17c-.12-.43-.28-.62-.58-.67ZM37.94,80.58l.08.08.5-.58,0,0ZM54.25,63.14v.09h.47l.43,0v0ZM85.05,26.3h.1l.12-.45-.08,0-.4.33C85,26.1,85.13,26.09,85.05,26.3ZM46.3,40.6v.5C46.46,41,46.4,40.78,46.3,40.6ZM26.59,91.88h0v-.75h0ZM37.25,45.3c.36-.24,0-.37,0-.54Zm87.09,35.57.07,0-.16-.58-.12,0Zm-.81-34.25.11,0c.15-.16.06-.35,0-.54Zm1.82,36.22-.09.07.39.43.08-.07ZM95.91,62.29l-.08,0,0,.53h0Zm51.33-42.08h-.1v.42h0Zm-23,61.56c0-.32,0-.32-.34-.45ZM101.44,63.12h.68A.56.56,0,0,0,101.44,63.12Zm-28.21-.29,0-.11-.37-.08C73,62.92,73.1,62.84,73.23,62.83Zm50.63,17.7.1,0-.09-.36-.08,0ZM39.18,43.82l0-.06-.4.17,0,.09Zm35.25-17-.11,0,.1.29h.06ZM53.8,63.21c-.11-.13-.21-.17-.39,0Zm20.78-1.88v-.07l-.21.05v0Zm48.71-25.28h-.1l0,.2h.07Zm-85,12.09-.08,0,0,.22.06,0ZM53.38,62.39l-.1,0-.12.26.08,0Z"/><path d="M11.66,83.32c.22,2.37.06,4.75.19,7.15l-.17.06-.12,0c-.07.37-.07.37.21,1.2-.23,0-.37-.07-.38-.31a1.51,1.51,0,0,1,0-.3q0-3.14,0-6.27c0-.51.08-1,.12-1.55Z"/><path d="M75.28,24.36a74.94,74.94,0,0,1-10.06-.23l3.32.08,3.33.07Z"/><path d="M148.4,48.39c0-.2-.07-.39-.08-.59,0-1.57,0-3.14-.08-4.71,0-.59-.06-1.17-.09-1.75,0-.1,0-.21,0-.39A33.12,33.12,0,0,1,148.4,48.39Z"/><path d="M121.21,21.26a27.29,27.29,0,0,1-4.66.85A19,19,0,0,1,121.21,21.26Z"/><path d="M138.2,18.31a11,11,0,0,1-4-.25C135.56,18,136.87,18.36,138.2,18.31Z"/><path d="M148.45,65.64a16.09,16.09,0,0,1,.08,3.09A12,12,0,0,1,148.45,65.64Z"/><path d="M54,24.61h2.83v0H54Z"/><path d="M15.91,92.65a2,2,0,0,1-1.39-.18Z"/><path d="M123.93,20.48a4.32,4.32,0,0,1,1.15-.38l0,.1-1.15.39Z"/><path d="M31.08,46l.13,0a21.89,21.89,0,0,1-3.87,3c0-.22.21-.29.33-.39l2.76-2.06c.22-.17.43-.35.64-.53Z"/><path d="M130.15,38.86l-1-1.28.08-.07a9.36,9.36,0,0,1,1.2,1.61Z"/><path d="M84.6,25.63l-.17.19,0,.05C84.33,25.74,84.38,25.68,84.6,25.63Z"/><path d="M147,36.52a24.84,24.84,0,0,0-3.2,2c-1.61,1.16-3.24,2.29-4.87,3.43a4.42,4.42,0,0,1-1.08.56,3,3,0,0,1,.28-.22c2.11-1.36,4.11-2.88,6.12-4.38a9.81,9.81,0,0,1,2.3-1.34,3.73,3.73,0,0,1,.46-.09Z"/><path d="M143.55,44a53.46,53.46,0,0,1-4.93,3.63.85.85,0,0,1,.11-.14c1.1-.89,2.18-1.79,3.3-2.65a15.69,15.69,0,0,1,1.47-.91Z"/><path d="M142.49,38.07c-.24.17-.49.35-.74.51-.9.59-1.8,1.17-2.7,1.77-.7.47-1.38,1-2.08,1.45a.67.67,0,0,1-.26.1c1.84-1.4,3.76-2.68,5.72-3.9Z"/><path d="M144.23,43.42A5.16,5.16,0,0,1,145.69,42c.15-.07.29-.23.47-.06A7.29,7.29,0,0,1,144.23,43.42Z"/><path d="M133.37,56.5V57A.33.33,0,0,1,133.37,56.5Z"/><path d="M145.08,36.32l-.33.27-.06-.09.4-.17Z"/><path d="M14.12,31.85c-.15-.16-.12-.27,0-.37.66-.56,1.29-1.14,2-1.67a11.07,11.07,0,0,1,1.15-.71c1.67-1,3.35-2,5-3,1.11-.69,2.17-1.48,3.25-2.22l.31-.19.06.08a7.43,7.43,0,0,1-.59.53l-3,2.24a1.48,1.48,0,0,0-.59.67c0,.11-.18.19-.28.25L19.43,28.6l-.4.24c.28.06.52-.17.78.05A29.27,29.27,0,0,0,14.12,31.85Z"/><path d="M14.24,29.36a1.57,1.57,0,0,1,.24-.21c2-1.26,4-2.55,6.07-3.75,1.34-.78,2.76-1.45,4.15-2.16a3.58,3.58,0,0,1,.64-.26.9.9,0,0,1,.38-.08A.91.91,0,0,1,26,23a.92.92,0,0,1-.19.24c-.45.24-.92.46-1.36.7-1.72.93-3.44,1.85-5.15,2.81-1.25.71-2.48,1.47-3.72,2.21-.28.16-.57.3-.86.43a1.56,1.56,0,0,1-.44.07Z"/><path d="M16.89,35.87a53.09,53.09,0,0,1,6.66-4,5.54,5.54,0,0,1-.48.39q-2.73,1.66-5.47,3.3A5.64,5.64,0,0,1,16.89,35.87Z"/><path d="M20.83,24.64A27.87,27.87,0,0,1,15.43,28,54,54,0,0,1,20.83,24.64Z"/><path d="M20.65,63c-1.1.79-2.22,1.56-3.37,2.29l-.05-.07,3.34-2.32Z"/><path d="M21.5,24.17a6.51,6.51,0,0,1,2-.85c-.52.29-1,.59-1.55.87a1.41,1.41,0,0,1-.41.07Z"/><path d="M14.83,90.8a4.78,4.78,0,0,1-.95-1.15,3.12,3.12,0,0,1,.94,1.16Z"/><path d="M13.53,90.21l-.11-.27.05,0,.12.25Z"/><path d="M79.4,51.87c0,.17,0,.25,0,.31s-.14.28-.24.31a.52.52,0,0,1-.38-.15.26.26,0,0,1,0-.38,1.13,1.13,0,0,1,.12-.18c.09-.13.22-.28.38-.18S79.38,51.83,79.4,51.87Z"/><path d="M79.24,47.8a.38.38,0,0,0,0,.6.3.3,0,0,1-.49.07c-.15-.11-.16-.33,0-.56S78.85,47.68,79.24,47.8Z"/><path d="M85.36,50.42a1.07,1.07,0,0,1-.36,0,.45.45,0,0,0-.36,0c-.19.06-.26-.06-.23-.26l.44-.08.11-.37.08,0a1.35,1.35,0,0,0,.11.34,2.7,2.7,0,0,0,.25.34Z"/><path d="M94.36,43.71c.19-.17.34-.12.41,0a2.16,2.16,0,0,1,.19.61c0,.06-.07.2-.14.22a.35.35,0,0,1-.27-.08.65.65,0,0,1-.14-.41l.28.26C94.77,44,94.72,43.87,94.36,43.71Z"/><path d="M63.58,44.06a1.12,1.12,0,0,1,.18-.28.28.28,0,0,1,.24-.05c.21,0,.31.3.25.61s-.18.36-.39.3a.93.93,0,0,1-.42-.27c-.09-.12-.1-.31.15-.32.06.15.12.29.37.3v-.5Z"/><path d="M96.56,44.22c-.13-.35-.11-.47.08-.59a.48.48,0,0,1,.6,0,.61.61,0,0,1,.07.69c-.13.19-.39.2-.78,0a1.79,1.79,0,0,0,.36-.1c.08,0,.19-.11.2-.17s-.06-.23-.12-.24a.56.56,0,0,0-.29.1C96.63,44,96.62,44.09,96.56,44.22Z"/><path d="M105.18,53.64a7.22,7.22,0,0,1-2,1.71A7.56,7.56,0,0,1,105.18,53.64Z"/><path d="M100.26,24.92l3.64.1a16.41,16.41,0,0,1-3.64,0Z"/><path d="M98.88,25.18a3.88,3.88,0,0,1-1.58.89l0-.09,1.58-.89Z"/><path d="M98.25,28.17l-1.2,1L96.84,29a9.86,9.86,0,0,1,1.36-.88Z"/><path d="M104.77,54.71a3.21,3.21,0,0,1-1.13,1A3.86,3.86,0,0,1,104.77,54.71Z"/><path d="M53.3,29l.26-.39-.19,0,0,0,1.8-1.1,0,.06Z"/><path d="M60.91,43.54a1.14,1.14,0,0,1,0,1,.39.39,0,0,1-.31.16.21.21,0,0,1-.18-.29c.08-.27.19-.52.29-.77C60.76,43.57,60.84,43.57,60.91,43.54Zm-.1.44-.1,0-.09.34.09,0Z"/><path d="M53.64,29.91a.68.68,0,0,0-.09-.14.45.45,0,0,0-.14-.07c.34-.17.57-.46,1-.51A2.85,2.85,0,0,1,53.64,29.91Z"/><path d="M61.07,54.3l.54-.38C61.45,54.29,61.44,54.29,61.07,54.3Z"/><path d="M59.84,53.48l-.37.29C59.48,53.53,59.64,53.48,59.84,53.48Z"/><path d="M124.17,74.07v2.68A7.3,7.3,0,0,1,124.17,74.07Z"/><path d="M31.85,46.12a.68.68,0,0,1-.14.23c-1,.86-2,1.73-3,2.57a8.36,8.36,0,0,1-1.07.67,1.05,1.05,0,0,1-.21.06,12.06,12.06,0,0,1,2.1-1.87c.76-.55,1.48-1.15,2.22-1.73Z"/><path d="M28.32,49.74l5-3.66A20.87,20.87,0,0,1,28.32,49.74Z"/><path d="M33.51,45.88l.25-.17,0,0-.23.18Z"/><path d="M34.23,45.4l-.23.19,0-.05.23-.18Z"/><path d="M110.11,52.38c.09.57.18,1.14.28,1.71s.22,1.35.32,2a3.66,3.66,0,0,1,.05.57c0,.9,0,1.81-.06,2.71l-.71-7Z"/><path d="M112.93,48.2a2.26,2.26,0,0,1-.09.51.43.43,0,0,1-.28.22.36.36,0,0,1-.3-.17,1.08,1.08,0,0,1-.09-.5,1.91,1.91,0,0,1,.13-.51c.08-.24.27-.29.41-.07A2.67,2.67,0,0,1,112.93,48.2Zm-.42-.38a.74.74,0,0,0,.08.74A.63.63,0,0,0,112.51,47.82Z"/><path d="M111,64.4v1.32C110.8,65.35,110.8,65.21,111,64.4Z"/><path d="M28.26,45.94a1.75,1.75,0,0,1-.83-1.2Z"/><path d="M28.57,44l.55.67-.1.07a3.28,3.28,0,0,1-.44-.75Z"/><path d="M28.58,44l-.25-.25.08-.05.16.31Z"/><path d="M44.55,43.63l-2,1.27,0-.09a21.29,21.29,0,0,1,2-1.27Z"/><path d="M28.84,33.1l-.19-.33.09-.05.2.3Z"/><path d="M127.82,57.5c-.16-.46.09-.86,0-1.25-.3-.21-.24.34-.5.23,0-.31.1-.48.35-.5s.35,0,.35.24a9.91,9.91,0,0,1,0,1.09S127.9,57.39,127.82,57.5Z"/><path d="M127,56.66c.21.35.22.38.12.88A1.44,1.44,0,0,1,127,56.66Z"/><path d="M40.43,64.67a9.86,9.86,0,0,1-1.72,1.62A4.59,4.59,0,0,1,40.43,64.67Z"/><path d="M47,43l1.79-1.29.05,0c-.06.06-.12.13-.19.19-.39.29-.78.6-1.19.88A1.88,1.88,0,0,1,47,43Z"/><path d="M49.31,44l.19-.16,0,0a.43.43,0,0,1-.1.09l-.11.08Z"/><path d="M32.57,73.36a2,2,0,0,1-.35,1c-.09.13-.2.23-.37.17s-.14-.22-.14-.37,0-.4,0-.6a1.61,1.61,0,0,1,0-.31.44.44,0,0,1,.53-.39C32.49,72.94,32.58,73.08,32.57,73.36Zm-.37,0h-.13L32,74A.7.7,0,0,0,32.2,73.31Z"/><path d="M31.79,66.6l-.11.45a.78.78,0,0,1-.11-.68.21.21,0,0,1,.34-.12.55.55,0,0,1,.19.18,1.16,1.16,0,0,1-.21,1.22.31.31,0,0,1-.52-.15.55.55,0,0,1,0-.32l.25.33C31.89,67.25,31.93,67.13,31.79,66.6Z"/><path d="M82.54,42.6a37.21,37.21,0,0,1-7.09-.27Z"/><path d="M81.61,41l.84-.78A1.41,1.41,0,0,1,81.61,41Z"/><path d="M84.52,37.31l-.55.34C84.17,37.34,84.17,37.34,84.52,37.31Z"/><path d="M84.19,38.25l-.15.14,0,0,.16-.14Z"/><path d="M119.75,52.72a4.49,4.49,0,0,1-.22.73.35.35,0,0,1-.3.17c-.1,0-.21-.15-.24-.25a1.23,1.23,0,0,1,0-.43c0-.23,0-.46,0-.68a.47.47,0,0,1,.16-.32.25.25,0,0,1,.37.11A4.12,4.12,0,0,1,119.75,52.72Z"/><path d="M33,81a1.53,1.53,0,0,1-.09.36.35.35,0,0,1-.24.14s-.11-.11-.13-.19a2.73,2.73,0,0,1-.07-.51c0-.22.1-.38.25-.39s.27.11.28.36Zm-.23-.29-.07,0-.08.19.08,0A1.46,1.46,0,0,0,32.75,80.7Z"/><path d="M113.73,35.72c.52.72.86,1.54,1.39,2.36A5.87,5.87,0,0,1,113.73,35.72Z"/><path d="M114,35.48a7.08,7.08,0,0,1,1.28,2l-1.36-1.9Z"/><path d="M50.05,60.16c.24-.46.22-.62-.14-.82.11-.05.21-.13.26-.11s.22.15.22.23a3,3,0,0,1-.1.72.24.24,0,0,1-.33.2c-.15-.06-.15-.19-.13-.33s0-.11.06-.22Z"/><path d="M82.1,29.45c0-.21,0-.21.26-.56l-.69.26,0-.06,1.74-1,.07.09Z"/><path d="M80.93,29a8.93,8.93,0,0,1,2-1.36A8,8,0,0,1,80.93,29Z"/><path d="M75.76,28.15l-.48.37A.48.48,0,0,1,75.76,28.15Z"/><path d="M83.3,29l.15-.12,0,0-.12.15Z"/><path d="M77.17,31.61l-1,.76c-.34.26-.67.53-1,.77a6.69,6.69,0,0,1,2-1.61Z"/><path d="M82.52,34.88c0,.29-.39.35-.18.7l-.44-.17Z"/><path d="M82.28,33.52l.66-.71.07.07c-.24.22-.41.51-.74.63Z"/><path d="M81.75,34l.53-.44h0l-.52.44Z"/><path d="M80.73,34.79l-.21.41c0-.08-.1-.15-.09-.17s.17-.18.25-.27Z"/><path d="M81.75,34l-.33.34-.07-.08.4-.25Z"/><path d="M81.15,34.47l-.2.17,0,0,.2-.17Z"/><path d="M79.07,55.42a.38.38,0,0,1-.37-.31c0-.14.23-.32.42-.31a.32.32,0,0,1,.27.33A.31.31,0,0,1,79.07,55.42Z"/><path d="M79.08,58.74a1.1,1.1,0,0,1-.21-.33c0-.19.17-.42.31-.4a.42.42,0,0,1,.3.38A.39.39,0,0,1,79.08,58.74Z"/><path d="M78.49,44.15c.22.33.22.33.45.21.12.17.07.34-.09.38a.58.58,0,0,1-.41-.16A.25.25,0,0,1,78.49,44.15Z"/><path d="M108.23,35.52a2.71,2.71,0,0,1,1,1.67C109,37.08,108.64,36.49,108.23,35.52Z"/><path d="M107.55,44.9a.94.94,0,0,1,.29,1c0,.09-.17.2-.26.19s-.2-.12-.23-.21A.84.84,0,0,1,107.55,44.9Z"/><path d="M50.65,63.94c-.13.27-.24.52-.38.75a.3.3,0,0,1-.41.15c-.16-.06-.18-.21-.16-.36s0-.35.22-.41c.08,0,.13-.18.18-.27s.17-.29.33-.21S50.57,63.8,50.65,63.94Z"/><path d="M73.7,31.92l-.18-.47.07,0,.18.45Z"/><path d="M83.75,62.25,80.64,62a17,17,0,0,1,3.11.14Z"/><path d="M78.47,62h-1v0h1Z"/><path d="M127.29,21.69a5.54,5.54,0,0,1,2.1-.81l0,.23,2.11-.58A20.17,20.17,0,0,1,127.29,21.69Z"/><path d="M83.61,32.68l.39-.26a1.75,1.75,0,0,1,.72-.4,1.28,1.28,0,0,1-1.11.66Z"/><path d="M73.64,26l.51,1.93-.1,0a3.45,3.45,0,0,1-.41-2Z"/><path d="M115.08,34.24l-2.46-.35,0-.11,2.45.36Z"/></svg>