<svg id="Layer_1" data-name="Layer 1" xmlns="http://www.w3.org/2000/svg" viewBox="0 0 160 112" width="160mm" height="112mm" ><defs><style>.cls-1{fill:#fff;}</style></defs><title>sketch</title><path d="M71.69,52.7l5.84-.84,0,.13a3,3,0,0,1-1.1.27c-.39.08-.79.13-1.19.19l-1.14.16c-.39,0-.79.11-1.19.15s-.79,0-1.21.05c0,.19,0,.34,0,.48l-.06,10.36c0,.26.06.53.08.79s.09.73.1,1.1c.06,1.55.11,3.1.17,4.65a.88.88,0,0,0,0,.19l3.82-.56v.66L72,71.05l-.23,1.79.09,0,.22-.46a5.54,5.54,0,0,1,.1.78c0,.85,0,1.7,0,2.55,0,.2,0,.42-.27.45a2,2,0,0,0,0,.31L77,75.9l.22.64-1.15.16c-1.08.13-2.15.27-3.23.39a.7.7,0,0,0-.55.35,3.44,3.44,0,0,0-.64,2.35c.14,1.9.22,3.8.32,5.7,0,.68,0,1.36,0,2.05,0,2.58,0,5.17,0,7.75a.79.79,0,0,0,0,.13l1.66-.23c2.12-.29,4.23-.59,6.34-.86q3.53-.45,7.05-.87c.81-.1,1.63-.15,2.44-.26a10,10,0,0,0,1.21-.26c.39-.1.78-.2,1.16-.33a.77.77,0,0,1,.78.13c.5.39,1,.73,1.61,1.13A3.45,3.45,0,0,1,94,94l-6.53.92-6.84.94-3.86.56c-.38.06-.75.14-1.13.22a45.29,45.29,0,0,1-5.42.87c-3.27.36-6.51.86-9.74,1.45a34,34,0,0,0-3.45.83c-1.16.34-2.37.54-3.55.81l-.69.15c-.11,1-.24,1.89-.33,2.83a1.62,1.62,0,0,1-.62,1.39c-.27,0-.61,0-.94-.08a.86.86,0,0,1-.75-.65,8.86,8.86,0,0,1-.5-2.88c0-.3,0-.6-.3-.81a1.71,1.71,0,0,1-.14.27.49.49,0,0,1-.74.1c-.14-.12-.25-.27-.38-.4a33.71,33.71,0,0,1-2.34-3.24c-.26-.38-.57-.74-.86-1.1a1.37,1.37,0,0,0-.18-.16c-.16.39-.3.76-.48,1.11a1.3,1.3,0,0,1-.78.67.48.48,0,0,1-.66-.25.74.74,0,0,0-.17-.24,1.81,1.81,0,0,1-.74-1.3,11.52,11.52,0,0,0-.57-2,4.93,4.93,0,0,1-.41-2,.89.89,0,0,0-.51-.82,2.12,2.12,0,0,1-1.09-1.62A10.66,10.66,0,0,1,39.11,88c0-.3.08-.61.1-.92,0-.75,0-1.5,0-2.25,0-3.58-.08-7.17-.07-10.75q0-13.82.05-27.62c0-2.63,0-5.27,0-7.9q0-4.87.13-9.75a12,12,0,0,1,.23-2.69A10.42,10.42,0,0,0,39.76,24a.68.68,0,0,0,0-.35,4.1,4.1,0,0,1-.32-1.95c0-2,0-3.94,0-5.91,0-.46.09-.92.13-1.38a2.72,2.72,0,0,0-.35-1.93,1.55,1.55,0,0,1-.19-.41c.25.12.38.36.57.54s.26.2.37.18c.84-.13,1.68-.17,2.52-.22,2-.14,3.9-.43,5.85-.74a36.47,36.47,0,0,1,3.77-.39c2.82-.17,5.63-.24,8.44-.43,2-.13,3.91-.42,5.87-.6,1.16-.11,2.33-.16,3.49-.24,1.58-.1,3.16-.18,4.74-.32,1-.09,2-.29,3-.38,1.37-.14,2.75-.26,4.13-.32q2.82-.15,5.63-.47c1.76-.19,3.51-.36,5.27-.53s3.32-.32,5-.46c.75-.06,1.5-.06,2.25-.11,1.75-.1,3.49-.22,5.24-.33,1-.07,1.89-.14,2.84-.23a1.49,1.49,0,0,1,.85.2c1.09.61,2.19,1.2,3.3,1.79a2,2,0,0,1,.71.53,1.79,1.79,0,0,0,.51.38c1.36.79,2.71,1.59,4.08,2.35.56.31,1.18.52,1.78.79.35.16.7.31,1,.5a8.2,8.2,0,0,1,.71.55l.7,0c-.29.48-.74.38-1.12.57,0,.32-.28.38-.6.43l-.13-.32a8.57,8.57,0,0,0-3.07.25c-2.8.4-5.61.75-8.45.88-2,.09-4,.3-5.93.45l-.65,0c-.22,0-.43,0-.59.25-.07.11-.36.14-.55.15-.75,0-1.5.06-2.25.08l-.4,0c-.44.06-.58.25-.58.7,0,1.25,0,2.5,0,3.75a6.17,6.17,0,0,1-.08.62h-.11l-.16-.83c-.12.67,0,1.35-.14,2-.09-2.08-.17-4.16-.26-6.18a7.45,7.45,0,0,0-3.5-.18c-1.45.13-2.89.31-4.32.49a7.7,7.7,0,0,0-1,.27v.12l1.9-.09v.06l-5.92.58c-2,.19-3.94.4-5.92.54s-4,.17-6,.26v.73a32.88,32.88,0,0,1,0,3.44,88.25,88.25,0,0,0-.11,9.2c0,6.5.08,13,.13,19.5Zm-23,44.35-.21-.11a.28.28,0,0,1,0,.12.62.62,0,0,1-.1.14,1.58,1.58,0,0,0-.57-1.33c-.06.63-.08,1.26-.08,1.88a.52.52,0,0,0,.14.3l.64.61a.34.34,0,0,0,.34-.35A2.66,2.66,0,0,0,48.71,97c0-.23.08-.47.09-.7,0-.39,0-.39-.29-.56A1.74,1.74,0,0,0,48.72,97.05Zm39.54-3.29-.74.09-4.71.55L72.39,95.63c-.44.05-.44.05-.55.56a1.33,1.33,0,0,0,.2,0l2-.29,13.89-2a1.34,1.34,0,0,0,.29-.15l.58,0v0Zm-42-4.49,1.35,1.81.09,0a57.05,57.05,0,0,0-3-5.18l-.1.05.89,1.76a1.72,1.72,0,0,1-.27-.27c-.15-.24-.28-.49-.41-.74L41.67,80.9c-.08-.15-.13-.33-.35-.42,0,1,0,2,0,3a1.55,1.55,0,0,0,.2.81c1.86,3.54,3.86,7,5.9,10.44a2.34,2.34,0,0,0,.19.21,2.92,2.92,0,0,0-.2-1.86c-.52-.95-1-1.92-1.49-2.88-.29-.55-.57-1.1-.85-1.65a1.91,1.91,0,0,1-.1-.34.49.49,0,0,1,.34.13c.24.26.46.54.7.79A1,1,0,0,0,46.28,89.27Zm-2.9-62.92.32.08-2.43-5.06a1,1,0,0,0,0,.9,16.52,16.52,0,0,1,1.37,2.64,1.69,1.69,0,0,1-.31-.35c-.31-.54-.59-1.09-.89-1.63-.06-.1-.14-.19-.27-.37a2.4,2.4,0,0,0,.13,1.22c1.35,2.45,2.56,5,3.69,7.54.41.92.82,1.82,1.22,2.74a1.12,1.12,0,0,1,.15.75c-.17-.26-.3-.43-.4-.62-.39-.77-.8-1.54-1.16-2.32-1.07-2.26-2.11-4.54-3.17-6.8-.11-.25-.24-.49-.36-.73a1.6,1.6,0,0,0,.14,1.37,5.94,5.94,0,0,1,.4.75c.79,1.55,1.65,3.08,2.29,4.72.24.62.51,1.23.76,1.84a3.11,3.11,0,0,1,.09.36,1.15,1.15,0,0,1-.47-.64c-.91-2.21-2-4.35-3-6.49-.07-.14-.15-.27-.22-.4a6.05,6.05,0,0,0-.08,1.46,1.7,1.7,0,0,0,.17.66c.89,1.66,1.8,3.31,2.68,5a60.11,60.11,0,0,1,2.79,6c.19.47.37.95.56,1.42a.83.83,0,0,0,.07-.43c0-.78-.08-1.57,0-2.35a6.25,6.25,0,0,0-.7-3.42.34.34,0,0,1,0-.14,70,70,0,0,0-3.18-7.28A2,2,0,0,1,43.38,26.35Zm1.12-5.3a4.27,4.27,0,0,1-.3-.44c-.64-1.33-1.26-2.68-1.91-4a1.62,1.62,0,0,0-1.12-.88c0,.2,0,.33.09.46a7.38,7.38,0,0,1,.33,1.35,4.72,4.72,0,0,0,.65,2c.85,1.63,1.74,3.23,2.57,4.86s1.53,3.15,2.29,4.72l.21.46a.38.38,0,0,0,.1-.27c0-2.59.06-5.17.08-7.76a1.36,1.36,0,0,0-.12-.52A4.13,4.13,0,0,0,45.72,19c-.19-.12-.37-.28-.56-.42a3.17,3.17,0,0,0-.36-.21,17.28,17.28,0,0,1,1.75,3.86.14.14,0,0,1-.11-.1c-.1-.19-.19-.39-.29-.58-.7-1.25-1.1-2.67-2.17-3.71a9.65,9.65,0,0,0-1.25-1,.61.61,0,0,0,.08.28,29.66,29.66,0,0,1,1.6,3.6,3.38,3.38,0,0,1,.08.34ZM42.19,45.17a3.34,3.34,0,0,1-.25-.4c-.36-.77-.71-1.55-1.07-2.32,0-.09-.11-.18-.22-.36,0,.28,0,.44,0,.6,0,1.25,0,2.5-.08,3.75a37.35,37.35,0,0,0,.13,4.49,2.52,2.52,0,0,0,.31,1.2,26,26,0,0,1,2.43,5.69c0,.11.05.22.08.33-.6-.93-1.1-1.9-1.66-2.84a32.35,32.35,0,0,0-1.57-3c0,.29-.07.46-.07.64,0,1.23,0,2.47,0,3.7a2.1,2.1,0,0,0,.31.91l.12,0V55a3.09,3.09,0,0,1,.59,1.75c0,.61,0,1.23,0,1.85a2,2,0,0,0,.17.76c.61,1.28,1.25,2.54,1.86,3.82,1.52,3.21,3,6.46,4.2,9.79a7.49,7.49,0,0,1,.23.81,9.8,9.8,0,0,1-.73-1.3c-1.7-4.08-3.5-8.1-5.37-12.11-.07-.16-.16-.3-.24-.46a.5.5,0,0,0-.09.31c0,2.85,0,5.7,0,8.55a2.32,2.32,0,0,0,.15.73c.72,1.74,1.47,3.47,2.19,5.21q1.73,4.17,3.44,8.36c.17.41.26.85.39,1.27l-.14,0c-2-4.78-4.06-9.54-6-14.35,0,1.11,0,2.21,0,3.31a2.25,2.25,0,0,0,.21,1c.23.49.43,1,.69,1.58-.37-.28-.44-.72-.89-.82,0,.59,0,1.13,0,1.68a1.36,1.36,0,0,0,.2.76,107.55,107.55,0,0,1,5.16,9.87,17.49,17.49,0,0,0,1,1.67,2.1,2.1,0,0,0-.12-1.5c-1.33-2.52-2.64-5-4-7.58-.08-.15-.14-.31-.21-.46l.09,0c1.51,2.52,2.8,5.17,4.26,7.73.06-.78.06-1.56.08-2.33s0-1.6.06-2.4,0-1.57,0-2.35.06-1.58.09-2.37a2,2,0,0,1,0,.48c0,1.08,0,2.16,0,3.24,0,.86,0,1.73-.06,2.6l0,3.25a1.21,1.21,0,0,0,.48,1c.1-1.65.07-14.18,0-14.62-.08.06-.19.1-.21.17a2.22,2.22,0,0,0,0,.45v2.76a1.08,1.08,0,0,1-.08-.5c0-.81,0-1.63,0-2.45,0-.16.07-.39-.22-.41a1.18,1.18,0,0,0,.23-.88c0-.32,0-.64,0-1a4.73,4.73,0,0,1,0,.75c0,.25-.06.52.09.77.31-.06.24-.27.24-.44,0-1.2,0-2.4,0-3.6,0-.26,0-.53,0-.8,0-.06-.09-.13-.14-.19l-.08,0v2a11.47,11.47,0,0,1,0-1.55,3.32,3.32,0,0,0-.31-1.45q-1.2-2.75-2.37-5.51a3.29,3.29,0,0,1-.16-.44,1.17,1.17,0,0,1,.31.46,16.65,16.65,0,0,0,1.61,2.69c.33.47.62,1,.91,1.48a3.4,3.4,0,0,1,.21.56l.1,0v-1.9a1,1,0,0,0,0-.24c-.17-.36-.35-.71-.51-1.07l-1-2.59c-.13-.33-.25-.66-.39-1q-1.57-3.45-3.17-6.9l-.18-.42a.78.78,0,0,1,.3.36c.6,1.23,1.21,2.45,1.8,3.68a31.34,31.34,0,0,0,1.94,3.67c.09.13.18.31.32.36s.28.25.36.43c.18.48.37,1,.55,1.43a24.52,24.52,0,0,0,.09-3,2.33,2.33,0,0,0-.26-.69c-.28,0-.27-.23-.34-.38-.25-.56-.49-1.13-.72-1.7,0-.11-.13-.25-.1-.33.14-.27,0-.48-.11-.7l-.58-1.44c-.06-.13-.09-.27-.14-.41.8,1.42,1.44,2.92,2.25,4.46,0-1.4,0-2.67,0-3.93a2.08,2.08,0,0,0-.17-.82,12.28,12.28,0,0,1-.79-2.2,26.85,26.85,0,0,0-1.89-5.31c-1-2-2-4.08-3-6.11,0-.09-.07-.22-.14-.26-.37-.2-.43-.57-.58-.9s-.31-.74-.48-1.1a3,3,0,0,0-.2-.31,25.94,25.94,0,0,1-.3,3.3l-.19-.27a1.62,1.62,0,0,0,.16,1.27c.39.93.76,1.88,1.13,2.82a5.54,5.54,0,0,1,.18.67Zm-.95-31.6c-.25,0-.41-.36-.71-.2-.11.21,0,.34.11.5.35.47.88.76,1.26,1.19a5.64,5.64,0,0,0,1.88,1.11l-.19-.46a5.35,5.35,0,0,0,1.62,1.52c.13.08.27.13.39.22.91.73,1.81,1.47,2.71,2.21a.44.44,0,0,1,.12.15c.19.39.26.44.65.39.7-.07,1.39-.18,2.09-.23.86-.06,1.72-.09,2.59-.12a37.19,37.19,0,0,0,5.47-.49c.54-.1,1.09-.17,1.64-.22.84-.07,1.69-.1,2.54-.15,2.1-.14,4.19-.34,6.29-.4,2.73-.09,5.45-.37,8.18-.58l6.63-.56L89.79,17l5.67-.53c2.2-.2,4.39-.4,6.58-.56,1.84-.14,3.68-.37,5.52-.49,1.49-.09,3-.33,4.47-.52s2.93-.41,4.41-.59c.77-.1,1.56-.13,2.34-.19l.47-.07a3.64,3.64,0,0,0-.85-.53,16.42,16.42,0,0,1-4.26-2.67,1.94,1.94,0,0,0-.34-.21c-1.54-.79-3.08-1.59-4.63-2.37a1.53,1.53,0,0,0-.48-.11.82.82,0,0,0,.35.3c.71.4,1.44.78,2.14,1.19a4.66,4.66,0,0,1,.73.6c.07.06.09.18.13.27a1.3,1.3,0,0,1-.48-.19c-.35-.23-.69-.47-1-.68-.7-.41-1.43-.79-2.13-1.21a1.17,1.17,0,0,0-.75-.16c-.6.06-1.2.09-1.78.13-.24-.29-.26-.31-.58-.35a1.71,1.71,0,0,0-.39,0c-1.32.05-2.64.08-3.95.18-1.91.16-3.81.37-5.72.56l-3.93.41a6.2,6.2,0,0,1-.74.08c-.19,0-.48.17-.56-.19-.22,0-.47,0-.63.25.31.33.72.2,1.09.32a2.8,2.8,0,0,1-.58.09l-4.74.22c-2.3.11-4.6.21-6.9.34-2.77.17-5.55.37-8.33.55-2,.12-4,.21-5.94.34-2.28.15-4.55.32-6.83.51-1.61.13-3.22.32-4.83.44-1.33.11-2.64.35-3.95.58-.31.05-.62.08-.94.1l-5.33.45c-.31,0-.62,0-1,.06Zm25.11,40h0c.07,0,.13-.14.21-.15L69.09,53c.6-.09,1.21-.15,1.83-.23a1.38,1.38,0,0,0,0-.26,8.29,8.29,0,0,1,.24-2.58.68.68,0,0,0,0-.25q.06-7.92.11-15.86c0-.14,0-.28,0-.44l-.53.07,0,0,.57-.32a2,2,0,0,0,0-.27c0-3.25,0-6.5,0-9.75a14,14,0,0,0-.46-3.3c0-.17-.06-.32-.27-.37a3.41,3.41,0,0,0-1.52-.15,5.85,5.85,0,0,1-.6,0c-1.9.18-3.82.09-5.73.4-1.49.24-3,.3-4.51.53a26.87,26.87,0,0,1-3.69.3c-.58,0-1.16,0-1.75.07a1.5,1.5,0,0,0-.29.06v.11L57,21v.12l-3.87.27c-.89,0-1.77,0-2.65.12-.6,0-.77.27-.77.87a.84.84,0,0,1,0,.39,3.32,3.32,0,0,0-.26,1.56l-.06,4.9c0,.11,0,.28,0,.33-.25.2-.17.45-.17.69,0,.9,0,1.8,0,2.7a20.44,20.44,0,0,1,.06,2.71s0,.09.06.14c2.44-.33,4.87-.66,7.32-.77a34.85,34.85,0,0,1-3.69.52c-1.23.15-2.46.33-3.69.58l.14,19.68c.8-.16,1.56-.33,2.33-.46S53.19,55.07,54,55l2.38-.34c.77-.11,1.55-.23,2.32-.31a12.41,12.41,0,0,1,2.27-.18,10.35,10.35,0,0,1-1.56.35l-8.56,1.21c-.51.07-1,.17-1.46.25V73.33c7.37-1.08,14.71-1.77,22-2.85,0-.33,0-.61,0-.89,0-.74-.07-1.47-.08-2.2,0-1.27,0-2.54-.06-3.8,0-.12,0-.28,0-.35A1.65,1.65,0,0,1,71,62c0-2.8,0-5.61,0-8.41v-.64C69.38,53.1,67.86,53.24,66.35,53.53ZM49.46,98.45l.65-.06L53.59,98c2-.24,4-.47,6-.77A62.77,62.77,0,0,0,67,95.68c.27-.08.55-.11.83-.17a4.23,4.23,0,0,1-1.59.72,70.42,70.42,0,0,1-10.16,1.89c-1.81.22-3.61.41-5.42.62-.39,0-.77.12-1.15.18v.92c1.09-.24,2.13-.52,3.2-.71,2.47-.45,5-.89,7.44-1.28,2.32-.35,4.65-.63,7-.95l3.62-.49c.41-.06.4-.07.43-.56A17.73,17.73,0,0,1,69.4,96l1.71-.38V95c0-1.18,0-2.36,0-3.55,0-.21,0-.43.14-.57,0,.45,0,.92,0,1.38a3.23,3.23,0,0,0,.14,1.41.59.59,0,0,0,.14-.3,50.69,50.69,0,0,0-.2-6.91v1.31h-.1V86.14c0-1.5,0-3,0-4.5,0-1.18-.1-2.37-.15-3.55a6.89,6.89,0,0,1,0-.72l.22.42.08,0-.12-.51a.65.65,0,0,0-.18,0l-2.83.31c-2.73.31-5.47.6-8.2,1-3.17.42-6.33.88-9.5,1.34a1.2,1.2,0,0,0-1.19,1.28,2,2,0,0,0,0,.25q0,8.07,0,16.16C49.39,97.82,49.44,98.12,49.46,98.45ZM71.25,71.21,49.39,73.76v5.77c7.27-1.25,14.53-2.19,21.86-2.94ZM41.27,31a.54.54,0,0,0-.06.18c0,1.73,0,3.47,0,5.2a1.76,1.76,0,0,0,.14.58,31.26,31.26,0,0,0,1.92,3.84A59,59,0,0,1,47,48.43c.44,1.17.81,2.37,1.21,3.55,0,.11.1.2.19.39a1.27,1.27,0,0,0,0-.27q0-4.07.08-8.15a1.15,1.15,0,0,0-.1-.48c-.52-1.25-1.07-2.48-1.57-3.73-1.56-3.84-3.54-7.47-5.41-11.15a2.5,2.5,0,0,0-.21-.25c0,.6,0,1.12,0,1.64a1.62,1.62,0,0,0,.16.61c.19.35.45.66.62,1q1.56,3.3,3.08,6.61c.8,1.76,1.57,3.53,2.34,5.31.14.33.25.68.38,1-2.14-4.31-3.95-8.76-6-13.14l-.14.24ZM43,90.24a3.75,3.75,0,0,1,.38.51c.51.85,1,1.7,1.5,2.59s1,2.09,1.53,3.14a2.53,2.53,0,0,0,1.24,1.17c0-.39,0-.77,0-1.16a3.36,3.36,0,0,0-.54-2c-1.91-3.15-3.83-6.28-5.55-9.54a.76.76,0,0,0-.13-.17l-.1,0c0,.93-.06,1.86-.06,2.78a2.1,2.1,0,0,0,.2.81c.3.7.64,1.39.94,2.09s.52,1.27.78,1.9A2.87,2.87,0,0,0,44,93.58l.25-.68A22.76,22.76,0,0,1,43,90.24Zm4.3-59.08.17,0a2.71,2.71,0,0,0-.14-.71c-.71-1.56-1.4-3.14-2.18-4.66-1.11-2.17-2.3-4.29-3.46-6.43-.08-.16-.18-.31-.3-.51a1.24,1.24,0,0,0,.12,1C42.65,22.21,43.8,24.62,45,27,45.72,28.4,46.51,29.78,47.26,31.16ZM41.42,77.81l-.11,0a5.42,5.42,0,0,1,0,.57,2.4,2.4,0,0,0,.33,1.38c1.1,2,2.41,3.83,3.66,5.72l.17.13C44.21,82.91,42.8,80.37,41.42,77.81Zm1.79,17.88.58.66c.07-.28.11-.51.17-.73a.74.74,0,0,0-.19-.73c-.49-.52-.94-1.07-1.42-1.6-.33-.37-.67-.73-1.08-1.17a1.72,1.72,0,0,0,.07.39c.3.79.6,1.58.91,2.37a3.92,3.92,0,0,1,.44,1.68l.43.16Zm8.19,8.63a13.38,13.38,0,0,0,.44-3.41l-1.76.35a2,2,0,0,0,0,.28c.26.82.53,1.64.79,2.47A.45.45,0,0,0,51.4,104.32Zm-11.19-82c-.05.33-.1.62-.13.92s0,.63,0,.94c0,1.43.05,2.87.05,4.3q0,5.45,0,10.89v.57h.1l0-.54c0-2.76,0-5.53.07-8.29,0-1.83.07-3.67.09-5.5a5.91,5.91,0,0,0,0-1.83s.06-.09.07-.14A1.29,1.29,0,0,0,40.21,22.31Zm8.19,9.53v-.61c0-1.08,0-2.16-.06-3.24,0-1.6-.1-3.2-.17-4.79a4.08,4.08,0,0,0-.09-.61.33.33,0,0,0-.11.25c0,2.7.05,5.39.07,8.09A1.35,1.35,0,0,0,48.4,31.84Zm0,11.22h.12c0-.36,0-.72,0-1.08s-.09-.73-.11-1.09,0-.77,0-1.15-.1-.73-.14-1.09.09-.71-.13-1a2.12,2.12,0,0,0-.06.44c0,.66,0,1.33-.06,2a1.38,1.38,0,0,1-.29,1ZM40.18,57.62c0,1.31,0,2.62,0,3.93a.87.87,0,0,0,.32.68c0-.19,0-.3,0-.42,0-1,0-2.09,0-3.13A1.39,1.39,0,0,0,40.18,57.62Zm0,9.24c0,1.3,0,2.6,0,3.9a4,4,0,0,0,.2.81l.1,0c0-1.17,0-2.33,0-3.5A2.06,2.06,0,0,0,40.19,66.86Zm.14,5.48-.14,0A31.17,31.17,0,0,0,40.36,77a.55.55,0,0,0,.12-.31c0-.26,0-.53,0-.79,0-.91,0-1.83,0-2.74A4.61,4.61,0,0,0,40.33,72.34Zm.09-5.56a1.11,1.11,0,0,0,.09-.23c0-1.08,0-2.15,0-3.23a1,1,0,0,0-.3-.71,1.72,1.72,0,0,0,0,.44c0,1,0,2,0,2.94A4.2,4.2,0,0,0,40.42,66.78Zm7.9,29.39a2.88,2.88,0,0,0-.49-2A2.1,2.1,0,0,0,48.32,96.17ZM40.51,20.24a1.82,1.82,0,0,0,0,2ZM41.19,90l1.4,1.79A10.21,10.21,0,0,0,42,90.35C41.81,90.08,41.61,90,41.19,90Zm-1-4.29a12.77,12.77,0,0,0,0-3.44Zm8.18,4.42a2.08,2.08,0,0,0-.42-1.69A1.68,1.68,0,0,0,48.34,90.12Zm0-55c-.37.34-.27.87.33,1.59-.05-.28-.09-.47-.12-.66a.34.34,0,0,1,0-.2C48.65,35.48,48.66,35.48,48.3,35.15ZM41.21,20.86c.52-.09.41.5.81.64L41.37,20l-.1,0Zm-1,66h-.11c-.06.52-.13,1-.18,1.56,0,.17.09.27.29.28ZM40.26,78H40.2v3.68h.06ZM54.6,11.57v.08L56,11.54l1.43-.14v-.09ZM44.91,94c-.18.52,0,.9.63,1.28Zm3.28-61.78-.12,0c-.06.42.27.69.43,1l.1,0Zm-.33,59.16a2.32,2.32,0,0,0,.47,1A1.76,1.76,0,0,0,47.86,91.39Zm1.23-79.21v.09l1.27-.16v-.06Zm-2.91,18.7-.1.07.41.84.12-.06Zm3-9.87.74-.2v-.06h-.78ZM48,21.55c.09-.23.19-.47-.07-.67Zm-7.76,68.3a.85.85,0,0,0-.43-.59A.7.7,0,0,0,40.23,89.85Zm1.4-.06-.29-.52C41.26,89.74,41.26,89.74,41.63,89.79Zm-1.5-48h0V41.1h0Zm4-14.54.07,0-.3-.58-.06,0Zm9.69-15.6v0l.31,0v0Zm-2.71.3h0Zm1.86-.2v0l.15,0Z"/><path d="M94.14,92.64a.9.9,0,0,1-.35,0,3.78,3.78,0,0,1-.53-.37l3.29-.59c0-.57,0-1.1,0-1.63.07-1.35.15-2.7.23-4,.16-2.84.33-5.69.21-8.54,0-.42-.07-.84-.07-1.25a2.34,2.34,0,0,0-.41-1.21.63.63,0,0,0-.36-.22c-.33-.1-.67-.19-1-.27a1,1,0,0,0-.3,0l-6.26.68c-1.93.21-3.85.44-5.77.66l-4.61.55-.34,0-.22-.67,19.22-2.27c.06-.64.13-1.27.16-1.9,0-1,0-1.93.08-2.9a1.23,1.23,0,0,0-.25-.9c-6.81.58-13.57,1.66-20.39,2.56v-.67c6.81-.93,13.59-2,20.44-2.59a48.14,48.14,0,0,1,.32-5.28c.14,1.72.19,3.45.22,5.22l7.49-.77v.06l-4.82.85c-.08,0-.2,0-.23.06-.18.37-.53.28-.83.32s-.89.09-1.33.14V73a7,7,0,0,0,2.69.06c3.93-.63,7.86-1.27,11.8-1.84,2.07-.3,4.06-.92,6.11-1.31.29,0,.58-.12.91-.19q0-1.06.09-2.1c0-.3,0-.61.19-.85,0,0,0-.1,0-.15V64.19l-2.5.43c-1.55.28-3.08.61-4.63.84-1.15.17-2.32.22-3.48.34-.73.07-1.45.18-2.2.2a5.84,5.84,0,0,1,.64-.2l4.38-.8c2-.36,4.07-.71,6.11-1,.54-.1,1.09-.15,1.67-.23V46.43l-.6.11c-3,.62-6,1.19-9,1.52-2.38.26-4.78.47-7.16.72-1.25.13-2.49.29-3.73.44l-.74.06c-.27,0-.54,0-.73.29-.08.12-.36.11-.57.17A1.75,1.75,0,0,0,97,50c0,2.33,0,4.67,0,7,0,.62.06,1.23,0,1.85,0,.77-.07,1.53-.11,2.3a.66.66,0,0,1-.13.32c-.07-1.94-.31-3.87-.29-5.81s0-3.89,0-5.91c-.55,0-1.11,0-1.67.09-2.44.21-4.84.75-7.26,1.1-.9.13-1.82.19-2.73.28a.54.54,0,0,1-.35-.09,1.82,1.82,0,0,1,.3-.11l8.64-1.37c.44-.07.89-.1,1.34-.15a1.9,1.9,0,0,0,.8-.21,3.32,3.32,0,0,1,1-.2c0-.16,0-.3,0-.45,0-1,0-2,0-3,0-1.24,0-2.48.07-3.72l.09-7.4c0-1,0-2,0-3a1,1,0,0,1,.09-.5.94.94,0,0,1,.1.23,2.64,2.64,0,0,1,0,.4q0,6.1,0,12.21c0,.2-.08.44.16.51a1.47,1.47,0,0,0-.15.41c0,1.37,0,2.74.07,4.1a.44.44,0,0,0,.51.46l.56-.15-.74-.27a1.53,1.53,0,0,1,.9.13.78.78,0,0,0,.37.05c3.16-.52,6.34-.88,9.53-1.16,3.39-.31,6.74-.89,10.08-1.52l1.09-.19c.18,0,.33-.07.22-.36l-.88.07c-.19,0-.33,0-.25-.33l1.1-.1a43.24,43.24,0,0,0,.07-5.89c0,.56,0,1.12-.07,1.68a7.37,7.37,0,0,1-.2,1.81,110.59,110.59,0,0,1,.1-13l.11.15V28.43a6,6,0,0,0-1.8.09c-1.23.22-2.45.47-3.68.68a14,14,0,0,1-1.94.22,19.25,19.25,0,0,0-3.2.53,44.58,44.58,0,0,1-5.4.71c-1.89.17-3.79.32-5.68.46a4.24,4.24,0,0,1-.62,0l0-.11a.71.71,0,0,1,.26-.13l3.33-.39c2.27-.24,4.55-.43,6.81-.72.89-.12,1.79-.14,2.68-.28l5.63-.9a6.47,6.47,0,0,0,.63-.16l-.47-.08,0-.45a24.78,24.78,0,0,0,3.53-.15c.06-2,.14-3.95.18-5.93s0-3.93,0-5.93l.66-.22c0,.19,0,.32,0,.45,0,2.78.11,5.57,0,8.35-.2,4.07,0,8.14,0,12.21q0,16.19.06,32.37a1.33,1.33,0,0,0,.17.91c.06.07,0,.25,0,.37a3,3,0,0,0-.13.56c0,3.35-.06,6.71-.06,10.06,0,.9.1,1.8.12,2.69,0,1.25,0,2.51,0,3.76v.52l.38,0a67.48,67.48,0,0,1-.18-8.55,82.66,82.66,0,0,1,.33,8.49l.51.15c-.11.33-.11.33-1.12.67,0,.17,0,.34,0,.52s.07.46-.18.57-.32-.17-.48-.26l-.15,0c-1,.22-1,.22-1.24,1.2s-.54,1.92-.78,2.89a.66.66,0,0,1-.64.54,1.36,1.36,0,0,1-1.09-.39,1.72,1.72,0,0,1-.54-1.34c0-.58,0-1.16,0-1.81-.63.1-1.2.21-1.77.29-1.56.2-3.11.44-4.67.57a13.35,13.35,0,0,0-1.88.29c-1.87.41-3.75.77-5.64,1.1s-3.68.58-5.52.89a1.19,1.19,0,0,1-1.07-.25c-.24-.2-.52-.36-.79-.55,0-.09,0-.18.08-.26a3.74,3.74,0,0,0,1.85-.1c.14,0,.27-.09.4-.13l0-.1-.47.06Zm25.1-22-4.79.91a30.52,30.52,0,0,1-3.63.69,74.33,74.33,0,0,0-8.27,1.12,37.84,37.84,0,0,1-4.22.81c-.27,0-.55.07-.83.11,0,.28,0,.51,0,.74a8.94,8.94,0,0,1,.09.89c0,1.15-.1,2.3-.15,3.45-.07,1.91-.12,3.83-.22,5.75,0,1-.18,1.92-.27,2.88a3.37,3.37,0,0,0,0,.55c0,.19.09.38.1.57,0,.5,0,1,0,1.5a2.09,2.09,0,0,0,0,.35h.06l.14-1.53c.35.77,0,1.49.19,2.17l2.66-.32c.79-.1,1.6-.13,2.38-.29,5.32-1.11,10.66-2.11,16-2.78.33,0,.65-.1,1-.16a22,22,0,0,0-.09-4.07h-.11v2.21a.8.8,0,0,1-.21-.71l0-12.76ZM116,90.43c.06.72.1,1.4.15,2.08,0,.18,0,.36,0,.54a.53.53,0,0,0,.46.38c.19,0,.25-.13.3-.28s.11-.38.16-.57c.22-.73.43-1.47.65-2.2,0-.1,0-.21.08-.35Zm3.61-59.74h-.07v7.17h.07Zm-17.5,61.06,0-.08-.44.08v.07Z"/><path d="M96,31.19c-.08.25-.31.23-.49.26a8.26,8.26,0,0,1-1,.08c-.88,0-1.77,0-2.64.12-1.3.1-2.59.24-3.88.36l-3.41.35c.1-.33.31-.34.52-.36.73-.07,1.46-.12,2.19-.2,1.52-.15,3-.33,4.56-.46.93-.09,1.86-.11,2.79-.17.3,0,.6-.05.89-.09S95.74,31.06,96,31.19Z"/><path d="M74.19,33c.08-.05.16-.13.24-.14l6.22-.52,2.74-.2h.4c-.08.3-.3.27-.48.29l-3.14.2L74.33,33a1,1,0,0,0-.14,0Z"/><path d="M38.6,52.68c.07,2.19.13,4.39.19,6.58a3.44,3.44,0,0,1,0,.45s-.06.07-.09.12A26.39,26.39,0,0,1,38.6,52.68Z"/><path d="M110.19,66.35a.69.69,0,0,1,.64.33.84.84,0,0,1,0,.81,1.09,1.09,0,0,1-1.09.43.83.83,0,0,1-.48-.89.58.58,0,0,1,.4-.53A5.29,5.29,0,0,1,110.19,66.35Zm-.24.42c-.19,0-.33,0-.34.26a.37.37,0,0,0,.38.42c.2,0,.31-.13.31-.36S110.16,66.77,110,66.77Z"/><path d="M86.15,70.33a.93.93,0,0,1-.87.8c-.38,0-.76-.46-.77-.95a.82.82,0,0,1,.8-.68A.9.9,0,0,1,86.15,70.33Zm-.62-.44c-.24,0-.5-.09-.58.2a.44.44,0,0,0,.1.39.43.43,0,0,0,.41,0C85.72,70.38,85.61,70.15,85.53,69.89Z"/><path d="M95.68,75.76a3,3,0,0,1,.15.57,2.16,2.16,0,0,1-.08.67.38.38,0,0,1-.57.21c-.62-.28-.67-.61-.51-1.16a.47.47,0,0,1,.49-.35A4.12,4.12,0,0,1,95.68,75.76Zm-.21.4c-.39,0-.46,0-.45.34s0,.3.25.29S95.54,76.65,95.47,76.16Z"/><path d="M96.88,25.22a42.92,42.92,0,0,1,0,5.06h0a0,0,0,0,1,0,0c0-1.58,0-3.16,0-4.74a1.2,1.2,0,0,1,0-.2.16.16,0,0,1,.07-.07Z"/><path d="M120.88,19.89a21.61,21.61,0,0,1,0-3.86A11.4,11.4,0,0,1,120.88,19.89Z"/><path d="M78.16,52c.24-.34.24-.34,2.16-.39l-1,.2Z"/><path d="M97.8,24.75l-.8.1C97.23,24.56,97.52,24.68,97.8,24.75Z"/><path d="M96.87,24.07v.47a.39.39,0,0,1-.1-.47Z"/><path d="M74.19,33h-.58V33l.58.05Z"/><path d="M72.44,71.38c-.07-.21,0-.3.2-.26Z"/><path class="cls-1" d="M41.34,89.27l.29.52"/><path d="M63.35,34.44l-3.49.38A6.74,6.74,0,0,1,63.35,34.44Z"/><path d="M67.77,33.71l-4.44.48v-.1A26.47,26.47,0,0,1,67.77,33.71Z"/><path d="M64.24,53.72l.46.09v.06l-.49,0Z"/><path d="M66.35,53.53l-.46,0v-.09l.47,0Z"/><path d="M43.19,15.31l-.51-.67Z"/><path d="M42.7,14.66l-.63-.51Z"/><path d="M68.39,80.2a6.87,6.87,0,0,1,.16-.87.71.71,0,0,1,1.13-.22.94.94,0,0,1,.08,1.22.83.83,0,0,1-1.15.19A1.41,1.41,0,0,1,68.39,80.2Zm1-.71a1.3,1.3,0,0,0-.44.1.37.37,0,0,0-.1.49.36.36,0,0,0,.22.16c.2,0,.29-.13.32-.31A3.14,3.14,0,0,0,69.4,79.49Z"/><path d="M43.26,62.67a37.4,37.4,0,0,1-1.91-5.73l.1,0h0a.94.94,0,0,1,.09.12c.6,1.87,1.19,3.74,1.79,5.61Z"/><path d="M44.13,49.47a7.71,7.71,0,0,1,.59.82,1.76,1.76,0,0,1,.1.58l-.13,0-.61-1.4Z"/><path d="M47.8,73.79v.45h0l-.07-.46Z"/><path d="M42.18,45.18l.21.33-.09,0-.11-.38Z"/><path d="M61.35,73.51c0,.69-.37,1-.94.85a.79.79,0,0,1-.41-.91,1.13,1.13,0,0,1,.71-.64c.28-.11.48,0,.58.31A2.9,2.9,0,0,1,61.35,73.51Zm-.4-.26c-.48-.09-.58,0-.47.61C60.92,73.85,61,73.74,61,73.25Z"/><path d="M49.86,74.4l-.19,4A9.42,9.42,0,0,1,49.86,74.4Z"/><path d="M46.64,77.92l-5-12.08.06,0a4.49,4.49,0,0,1,.29.53c.59,1.32,1.18,2.64,1.78,4,.18.41.38.81.56,1.22.62,1.42,1.26,2.83,1.84,4.27a20.91,20.91,0,0,1,.61,2.09Z"/><path d="M42.94,37.36a18.36,18.36,0,0,1,1.55,3.51A12.34,12.34,0,0,1,42.94,37.36Z"/><path d="M44.49,21.06l.78,1.38-.1,0a4,4,0,0,1-.67-1.44Z"/><path d="M42.88,25.4l.52,1Z"/><path d="M45.73,88.41c.26.08.28.33.37.53Z"/><path d="M117.46,72.33a1.21,1.21,0,0,1,.37.23c.27.33,0,.67,0,1a.59.59,0,0,1-.58.4.55.55,0,0,1-.66-.51A1,1,0,0,1,117.46,72.33Zm0,.36c-.2.09-.37.12-.42.21a.46.46,0,0,0,0,.41c.08.09.27.08.45.12Z"/><polygon points="77.23 76.54 77.87 76.47 77.65 75.8 77.01 75.9 77.23 76.54"/><polygon points="93.26 92.32 92.13 92.57 94.32 93.88 95.63 93.73 93.99 92.46 93.26 92.32"/><polygon points="75.84 70.47 76.47 70.39 76.47 69.72 75.84 69.82 75.84 70.47"/><polygon points="77.56 51.99 78.16 51.95 78.59 51.67 77.53 51.86 77.56 51.99"/></svg>