<svg id="Layer_1" data-name="Layer 1" xmlns="http://www.w3.org/2000/svg" viewBox="0 0 160 112" width="160mm" height="112mm" ><defs><style>.cls-1{fill:#fff;}</style></defs><title>sketch</title><path d="M32.27,25.73,33.48,27a.54.54,0,0,0,.26.17c1.85.06,3.7.14,5.55.14,2.08,0,4.17-.13,6.26-.12,1.78,0,3.56.15,5.34.21a106.59,106.59,0,0,0,11,.14c1.55-.1,3.12,0,4.68-.06s3.4-.1,5.1-.21c.58,0,1.15-.28,1.73-.36a42.18,42.18,0,0,1,6.83-.25c3.37.06,6.74.21,10.11.34a2.37,2.37,0,0,0,1.38-.37.91.91,0,0,1,.46-.13c1.64-.06,3.29-.12,4.93-.14,2.4,0,4.79,0,7.18,0,.52,0,1,.08,1.55.12l0,.12-.89.25c.71,0,1.33,0,2,0l9.74-.32,11.15-.33c1.31,0,2.62-.09,3.93-.12.31,0,.63.12.94.12,1,0,2.06,0,3.09,0l2.93,0c.17,0,.35,0,.53,0,.36,0,.72.05,1.09.05s.7,0,1.06,0c.2,0,.4-.07.69-.12-.29-.18-.52-.33-.77-.47q-6.84-3.81-13.69-7.6c-3.82-2.1-7.68-4.1-11.33-6.49-1.25-.82-2.44-1.71-3.66-2.57-.09-.06-.21-.12-.25-.21a2.5,2.5,0,0,1-.1-.49c.16,0,.36-.08.48,0,.38.23.72.51,1.08.76a106.76,106.76,0,0,0,9.59,5.76L127,16.62a1.22,1.22,0,0,0,.43.15l-1.92-1.36.09-.14a1.43,1.43,0,0,1,.34.14A155.41,155.41,0,0,0,140.62,24c.84.45,1.63,1,2.46,1.45.44.26.88.57,1.46.27.11-.06.47.11.52.24a.68.68,0,0,1-.17.59c-.76.55-1.54,1.07-2.33,1.59-.29.2-.32.45,0,.75-.26.15-.52.29-.75.45s-.53.13-.54.5c0,0-.21.09-.33.11-1.13.23-1.14.22-1.12,1.38q.18,13.14.36,26.26c0,2.93.14,5.86.17,8.79,0,1.39-.08,2.79-.12,4.18l-.05.3a1.44,1.44,0,0,1-.08-.25c-.08-3.63-.17-7.27-.25-10.9,0-.41,0-.83,0-1.24,0-.11-.16-.31-.25-.31-.31,0-.32-.18-.32-.4,0-.49,0-1,0-1.45h-.12a14,14,0,0,1,0,1.45c-.06.66-.25,1.32-.28,2a68.26,68.26,0,0,0,0,8.7c.1,1.46.1,2.93.2,4.39.07,1.14.24,2.28.32,3.42.07,1,.08,2,.11,2.94a4.36,4.36,0,0,0,.08,1c0-1,0-2,0-3,0-2.56,0-5.12-.1-7.68,0-1-.15-1.92-.19-2.89a6.67,6.67,0,0,1,.12-1.54c.72,3.72.51,7.48.42,11.23l.14.07.15-.29a.33.33,0,0,1,.05.12q.07,4,.14,7.92a5.69,5.69,0,0,0-.22,2.21c0,1.16,0,2.32,0,3.48a1.67,1.67,0,0,1-.29,1.2h-1c0,.26-.06.52-.08.78s.06.69-.34.89c-.07,0-.09.19-.13.29-.6,1.63-1.18,3.28-1.82,4.89a11.14,11.14,0,0,1-1,1.9,7.35,7.35,0,0,1-.87,1c-.08.08-.2.17-.2.26,0,.54-.4.49-.75.5-1.53,0-1.78-.21-1.86-1.73a8.59,8.59,0,0,0-.22-1.68,2.2,2.2,0,0,0-2-1.79c-.8-.09-1.61-.24-2.41-.31-1.05-.11-2.1-.13-3.13-.26a2.71,2.71,0,0,1-1.77-1,2.66,2.66,0,0,0-.5-.36,7.74,7.74,0,0,1-2-2.33.57.57,0,0,0-.56-.31c-3.58.08-7.16.12-10.74.21-5.16.12-10.31.25-15.46.43-2.07.07-4.14.28-6.21.4a9.58,9.58,0,0,1-2.27,0c-2.49-.46-5-.06-7.45-.06-3.4,0-6.81,0-10.2.22-2.47.13-4.93,0-7.39.13s-4.94.24-7.42.34a.6.6,0,0,0-.58.38,10.68,10.68,0,0,1-2.33,2.69,5.71,5.71,0,0,0-.51.58,14.2,14.2,0,0,1-1.17,1.28,1.74,1.74,0,0,1-.83.32c-1.31.26-2.62.5-3.94.73-.27,0-.59-.08-.83,0-.6.24-1.16.56-1.74.85-.08,0-.18.14-.24.12-.3-.1-.33.1-.36.3-.08.61-.17,1.22-.23,1.84a4,4,0,0,1-.4,1.87l-.31-.18,0,.22c-.52.12-1,.26-1.43.33a.58.58,0,0,1-.49-.17,11,11,0,0,1-2.49-5.81,41.38,41.38,0,0,0-.61-4.31c-.22-1-.13-2.1-.4-3.12a2.62,2.62,0,0,0-.33-.83c-1.35-2-2.75-3.92-4.07-5.91-.74-1.11-1.37-2.3-2-3.47-.15-.27-.32-.36-.56-.21s-.43,0-.57-.17l-2-3.18a7.18,7.18,0,0,0-.85-1.16L23,77.5l-.05.06c-.07-.07-.17-.13-.2-.22a10,10,0,0,1-.31-1.07,8,8,0,0,0-1.54-2.6,4.54,4.54,0,0,0,.84,2.76c.95,1.2,1.72,2.54,2.59,3.8.39.58.41.57,1.2.66a.68.68,0,0,0,.23.87c.25.18.16.51,0,.74a1.82,1.82,0,0,1-1.43.73A3.22,3.22,0,0,1,22.83,83a2.85,2.85,0,0,1-1-1.17c-.42-.89-.7-1.86-1.09-2.77-.22-.51-.55-1-.8-1.46-.06-.11-.07-.35,0-.4.25-.2.13-.42.1-.64-.22-1.7-.44-3.39-.65-5.09a7,7,0,0,0-.16-1.39,4.08,4.08,0,0,1-.33-1.46.32.32,0,0,0-.2-.27c-.31-.07-.37-.31-.49-.55a3.55,3.55,0,0,0-.61-.88,1.67,1.67,0,0,1-.42-1.32c0-2,0-3.92,0-5.89,0-1,0-2,.06-2.94l.06.39h.06v-.63c0-2.45.08-4.9,0-7.34-.06-4.21-.21-8.42-.26-12.63,0-4,0-8.07,0-12.1,0-2.53.1-5.06.14-7.59a.91.91,0,0,0-.06-.4c-.45-1-1-2-1.35-3.07a16.09,16.09,0,0,1-.44-1.88c-.12-.48-.29-.95-.44-1.42l-.1,0a.17.17,0,0,1,0-.07c.36-.79.36-.77,1.25-.75s2,0,3,0c.37,0,.72-.09.84-.54,0-.07.25-.14.38-.14l5.43.12c.8,0,1.6,0,2.4,0,.21,0,.45,0,.54-.27,0-.07.24-.11.36-.12a64.6,64.6,0,0,1,7.62.23c1.95.16,3.91.31,5.87.34,3.09,0,6.17,0,9.25-.07,3.87,0,7.74-.07,11.61-.15,1.75,0,3.5-.21,5.25-.31l.17.07-.59.21V8.8h.55c7.51-.25,15-.54,22.55-.73,2.44-.07,4.89.13,7.33.19,2,.05,3.92.08,5.89.11l5.51.09.45,0-.16-.39a7.1,7.1,0,0,1,.94.43c1.64,1.06,3.26,2.13,4.89,3.2a3.65,3.65,0,0,1,.32.26l0,.14a2.68,2.68,0,0,1-.64-.12c-.9-.48-1.79-1-2.67-1.49a1.8,1.8,0,0,1-.56-.63.68.68,0,0,0-.68-.36c-4.45.37-8.9.21-13.35.25-2.46,0-4.92.09-7.38.07-3.07,0-6.13-.13-9.2-.17-2.38,0-4.76,0-7.13,0-4.29.07-8.57.18-12.86.28-3.63.09-7.27.2-10.9.27a9.32,9.32,0,0,1-2-.2c2.66-.44,5.36-.42,8-.66H55.89l-20.06.6c-1.44.05-2.87.1-4.31.18-1.29.08-2.58.26-3.87.29-2.13.07-4.26.06-6.39.07a3.15,3.15,0,0,1-.79-.15,4.72,4.72,0,0,0-1.91,0v1.14h-.09v-1h-2.3a4.75,4.75,0,0,0,.43,1.12,40,40,0,0,0,4.67,5.71l1.52,1.44-.07.13-.6-.19c.28.32.49.58.72.82.63.67,1.26,1.32,1.88,2,.25.27.47.57.72.85s.89.69,1.18,1.2c.06.11.26.14.39.22a.81.81,0,0,1,.24.21c.37.43.7.9,1.1,1.31.69.71,1.43,1.39,2.15,2.08.12.12.27.22.39.32l.12-.95c-4.16-4.47-8.53-9.59-8.49-10.09.2.21.37.35.51.52,2.51,2.87,5,5.76,7.53,8.62.41.47.9.86,1.35,1.29a.64.64,0,0,1,.23.33l-.41-.13-.05.1c.13.06.26.19.39.19.43,0,.87-.07,1.44-.12-.23-.26-.4-.48-.59-.67a5.24,5.24,0,0,1-.54-.51,1.38,1.38,0,0,1-.1-.52ZM54.21,63.44a1.91,1.91,0,0,1,.32-.24L56.69,62c-.15-.51-.43-.1-.72-.14l.22-.66-1.7-2.41-5.9,3.3c.3.46.59.87.84,1.3s.38.83.62,1.22c.11.17.38.38.51.35.53-.17,1.12,0,1.64-.4a17,17,0,0,1,2-1.1l-3.1,2.51L53,68.85l6.1-3.45-1.86-2.71a4.59,4.59,0,0,1-.7.05,3.6,3.6,0,0,0-1.9.49C54.51,63.31,54.35,63.37,54.21,63.44ZM85.68,35.6h.09c0,.19,0,.38,0,.57,0,1,0,1.93,0,2.9,0,2.06,0,4.12,0,6.18s0,4.15,0,6.22.12,4.08.11,6.11c0,1.7,0,3.41,0,5.11,0,.19,0,.39-.06.59H85.8c-.26-1.92-.25-3.87-.33-5.85L76.67,62l1.9,3c1-.51,1.92-1,2.88-1.52s1.93-.95,2.9-1.42a1.62,1.62,0,0,1,.38-.09l.07.16c-1,.59-1.9,1.19-2.87,1.76s-2,1.12-3,1.69l2.31,3.82,1.45-.7L84.08,68a7.14,7.14,0,0,1,1.39-.54l.08.2-4,2.21c.08.16.16.29.22.43.5,1.15,1,2.3,1.49,3.46a3.1,3.1,0,0,1,.09.69l-.14,0-.49-.75L75.83,77.5l1.83,3.17.5-.27C80.6,79,83,77.57,85.48,76.26a1.63,1.63,0,0,0,1-1.7c-.08-3.16-.11-6.33-.11-9.5,0-2.33.08-4.67.12-7a2.33,2.33,0,0,0-.44-1.8s0,0,0-.1l.38.29v-.37c0-4-.09-8-.07-12.07,0-2.23.16-4.47.24-6.71,0-1.5.09-3,.15-4.51a.39.39,0,0,0-.25-.4,9.25,9.25,0,0,1-1.46-1,.69.69,0,0,0-.55-.23l-1.66.07-13.22.49-9.32.37a2.22,2.22,0,0,0-1,.23q-5.15,2.77-10.27,5.59A.64.64,0,0,0,49,38l2,2.72,4.1-2.49,0,.09L51.2,41,53,43.39l6.23-3.84-1.65-2.64.16-.11,2,2.47.23-.12a62.77,62.77,0,0,1,6.79-3.46c.07,0,.17-.07.2-.14.17-.36.52-.41.86-.49a3,3,0,0,0,.65-.24,1.44,1.44,0,0,1,1.6-.09,2.74,2.74,0,0,1,.89,1.86.42.42,0,0,0,0-.14,3.48,3.48,0,0,0-.65-.85c-.16-.11-.45,0-.6-.31a.47.47,0,0,0-.44,0c-.34.2-.66.46-1,.7a.8.8,0,0,0-1,.32c-.07.27.15,1,.41,1.07a1.16,1.16,0,0,0,.64,0c.12,0,.22-.21.3-.29l-.16-.55a2.32,2.32,0,0,1,.65.09c.34.13.58.51,1,.46A6.3,6.3,0,0,1,71,37a12.3,12.3,0,0,0,.32,1.75c.13.43.37.8.47,1.26a2.76,2.76,0,0,0,2.37,1.65s0,0,0,0c-1.39-.57-2.26-1.4-2.19-2.21.37.29.69.56,1,.82a1.3,1.3,0,0,0,.49.29A3.35,3.35,0,0,0,77,39.3a.49.49,0,0,1,.29-.21,1.36,1.36,0,0,0,1.13-.87c.28-.67.51-1.37.74-2.06.09-.26.17-.5.51-.43,0,.33.07.64.1,1,0,.13.08.28,0,.38-.47,1-.94,2.09-1.44,3.12a2.81,2.81,0,0,1-.57.76c-.35.34-.55.31-.89,0l-1,.68a2.63,2.63,0,0,0,2.94-1.3,11.82,11.82,0,0,1,1.71-3,2,2,0,0,0,.21-.51l1,.31c.25.08.47,0,.53-.27a1.34,1.34,0,0,0-.6-1.39c-.09-.06-.22-.14-.22-.22,0-.31-.21-.3-.43-.29l-.36,0c0-.41.09-.56.44-.5a3,3,0,0,1,.58.19A2,2,0,0,1,83,36.88a1.25,1.25,0,0,1-.8.93A1,1,0,0,1,81,37.5l-.26-.28c-.24.55-.45,1.07-.67,1.59A1.46,1.46,0,0,0,80,39c-.22.69-.41,1.38-.66,2A2.4,2.4,0,0,1,78,42.44a5.1,5.1,0,0,1-2.16.29,9.27,9.27,0,0,0-2.63,0,1,1,0,0,1-.41,0,2.8,2.8,0,0,1-2-1.77,8.56,8.56,0,0,1-.69-2.53c0-.55-.3-.52-.76-.46a4.28,4.28,0,0,1-1.67,0,1.22,1.22,0,0,1-.9-1.64l-6.65,3.54,2.33,3.08.6-.31,6.35-3.06a6.36,6.36,0,0,1,.66-.2.37.37,0,0,1-.17.28,10.19,10.19,0,0,1-3.08,1.52,17.9,17.9,0,0,0-3.44,1.49,6.18,6.18,0,0,0-.79.48c.91,1.18,1.8,2.32,2.67,3.48a.45.45,0,0,0,.65.18c.41-.2.84-.36,1.26-.53l.06.11-1.44.91c.71.91,1.41,1.8,2.09,2.71a.37.37,0,0,0,.58.12c1.3-.76,2.62-1.49,3.93-2.23a2.07,2.07,0,0,0,.27-.2l-4.4-5.39.13-.11a42.68,42.68,0,0,1,4.81,5.23,44.37,44.37,0,0,0,4.94-3.14l-.58-.74.08-.08a5.14,5.14,0,0,1,.54.37.56.56,0,0,0,.74,0c.62-.36,1.27-.69,1.91-1a7.52,7.52,0,0,1,.78-.32l.06.09a13.74,13.74,0,0,1-2.49,1.85c.81,1.2,1.59,2.38,2.38,3.54a.41.41,0,0,0,.28.19c.55,0,1.11,0,1.69-.07l-1.38.69.1,1.7-.84-1.35-4.86,2.64,2.24,3,.51-.24c1.93-1,3.85-1.93,5.78-2.88.25-.12.26-.28.26-.49.06-3.81.11-7.61.18-11.41C85.56,38.41,85.63,37,85.68,35.6Zm45.94,17.87-6.56,3.39L127.37,60l.46-.2c.49-.19,1-.39,1.47-.56a1.4,1.4,0,0,1,.45,0,2.8,2.8,0,0,1-.25.41.9.9,0,0,1-.28.18l-1.38.78c.62.9,1.23,1.78,1.83,2.68.16.24.29.29.56.16.93-.44,1.86-.84,2.8-1.25a1.67,1.67,0,0,1,.4-.1l.07.16-3.19,1.86,4.52,7.16,1.61-.66.07.14-1.5,1c.08.17.16.31.22.46.26.65.54,1.3.76,2a.76.76,0,0,1-.26.91l-1.42-2.9-11.39,6.2.34,1-.13.08-.76-.86-5.61,2.94c.15.5.3,1,.41,1.42,0,.13-.08.29-.12.43a1.09,1.09,0,0,1-.33-.27c-.22-.39-.42-.8-.64-1.23l-5,2.67c.29.68.88,1.12,1,1.84-.82-.21-1-1-1.55-1.55l-4.54,2.44c.21.39.41.72.57,1.07a.51.51,0,0,0,.59.31c1.47-.09,2.93-.17,4.39-.22,6.34-.23,12.69-.35,19-.24a.69.69,0,0,0,.71-.42,10,10,0,0,1,1.57-2.21,8.09,8.09,0,0,0,1.58-2.12,6,6,0,0,1,1-1.18l.16.12-4.11,5.72.07.12c.33,0,.66,0,1,0a.81.81,0,0,0,.76-.37c1.11-1.43,2.23-2.86,3.38-4.25a1.59,1.59,0,0,0,.4-1.12q-.18-10.17-.33-20.35c0-.58,0-1.16,0-1.8-.41.4-.53.37-.73,0-.53-1-1-2-1.65-3C133.43,56.1,132.52,54.81,131.62,53.47Zm-43.83-16-.06-.1c0,.22,0,.44,0,.66,0,2.39-.11,4.78-.09,7.17,0,4.26.14,8.52.22,12.78a1,1,0,0,0,.07.48c.39.62.81,1.21,1.23,1.84l4.65-2.78-2.07-3.26-.41.21-2.6,1.37a2,2,0,0,1-.44.12l-.06-.17,3.24-1.91-1.23-2,.09-.06,1.48,1.86,5.14-2.91L94.39,47l-6,3.23-.07-.11a4.45,4.45,0,0,1,.71-.59c1.56-.92,3.13-1.81,4.7-2.71l.37-.23-.89-1.72.14-.08,1.1,1.63,12.09-6.75-1.27-2.47.17-.1c.56.75,1,1.61,1.51,2.37l11.37-5.7c-.76-1.14-1.5-2.22-2.2-3.33a.92.92,0,0,0-.89-.44c-2.76.13-5.52.25-8.28.32a4.43,4.43,0,0,0-2.47.75c-1.55,1.05-3.14,2.06-4.74,3.05-1.09.68-2.21,1.3-3.33,1.93a3.58,3.58,0,0,1-.81.22l-.07-.18,7.89-5.29L98.61,31a.49.49,0,0,0-.3.1c-.33.24-.63.53-1,.77-.87.61-1.74,1.21-2.64,1.79-.12.09-.34,0-.51.05a5.36,5.36,0,0,1,.14-.54s.1-.09.15-.13l2-1.39.77-.51c-.07,0-.09-.06-.11-.06l-6.22.19a.55.55,0,0,0-.37.2c-.87,1.09-1.8,2.15-2.56,3.32a3,3,0,0,0-.1,2.39l.08,0c.35-.35.7-.74,1.09-1.08a11.87,11.87,0,0,1,1.36-1,.57.57,0,0,1,.52.12c.07.07,0,.39-.1.49a4.14,4.14,0,0,1-.86.65C89.24,36.76,88.51,37.1,87.79,37.47Zm37.88-5.42.17-.09,1.34,2.19A9.89,9.89,0,0,1,129.66,33c-.47.88-1.4,1.2-2.12,1.81l1.67,2.78c.19-.1.33-.16.46-.24L136,33.88a6.46,6.46,0,0,1,.6-.27l.11.14a4.83,4.83,0,0,1-.53.57,25.18,25.18,0,0,1-4.5,2.72c-.69.33-1.38.69-2.11,1.05l2.47,4c.52-.25,1-.47,1.43-.66a1.45,1.45,0,0,1,.47,0,1.1,1.1,0,0,1-.27.36c-.4.28-.83.53-1.28.81l.27.39c.38.51.78,1,1.13,1.54a.66.66,0,0,1,0,.58c-.17.24-.42.11-.61-.06a2.35,2.35,0,0,1-.33-.37c-.41-.55-.82-1.1-1.24-1.68-1.55.81-3.1,1.62-4.68,2.43.18.26.34.47.48.69.38.57.79,1.13,1.12,1.73.43.82.73,1.71,1.2,2.51a17.27,17.27,0,0,0,1.43,1.91,1.09,1.09,0,0,0,.46.26c.21.08.44.13.74.22a9.81,9.81,0,0,0,1.26-.84,5.71,5.71,0,0,1,1.87-.84.21.21,0,0,1,.17.06.25.25,0,0,1-.06.21,2,2,0,0,1-.39.24l-2.77,1.52c1.36,2.27,3.19,4.24,4.19,6.74-.16-4.89.13-9.77-.05-14.67a14.3,14.3,0,0,0-1.35.87,16.59,16.59,0,0,1-3.78,2.14,1.78,1.78,0,0,1-.52,0,2.25,2.25,0,0,1,.36-.39c1.35-.82,2.71-1.61,4-2.44s1.28-.83,1.29-2.38q0-2.55.06-5.1c0-1.84.09-3.68.11-5.51a.65.65,0,0,0-.22-.44,5.19,5.19,0,0,0-2.14-1.06.91.91,0,0,1-.46-.23c-.06-.07.06-.28.11-.47h-.58c-1.23,0-2.46,0-3.69,0-.42,0-.84-.13-1.26-.14s-1,.06-1.49.06L116.92,30h-.46l2.46,3.46.66-.32c.69-.32,1.37-.64,2.08-.92a1.86,1.86,0,0,1,.67,0l0,.18c-.91.72-2.07,1-3.06,1.69l2.19,3.31,5.21-2.92ZM34.45,31h.28l8.89-.3c.87,0,1.74-.08,2.61-.1,4.26-.1,8.52-.16,12.77-.28,1.63-.05,3.3.17,4.85-.58.06,0,.16,0,.34,0l-.64.49h.68c3-.08,6.08-.17,9.12-.22C77.07,30,80.79,30,84.51,30a17,17,0,0,1,1.74.12c.09,0,.17.12.25.19s.19,0,.26,0a1.1,1.1,0,0,1,1.08-.12.51.51,0,0,0,.33.14,5.48,5.48,0,0,0,1.07-.21c.36-.12.65.13,1,.12.82,0,1.63-.09,2.45-.12l8.19-.35c.64,0,1.26-.08,1.89-.12-.24,0-.49,0-.74,0h-.75l-.66-.06,0-.21c4.82-.05,9.64.13,14.41-.25v-.43c.12.06.27.09.33.18.2.28.48.24.75.23,3.39-.12,6.77-.26,10.15-.37,1.26,0,2.52,0,3.78,0v-.05l-2.43.22V29c.68,0,1.36.12,2,.12,1.74,0,3.48,0,5.22-.07s3.48-.16,5.22-.25a.68.68,0,0,0,.3-.11l2.79-2,.24-.19a4.13,4.13,0,0,0-1.07-.18c-.36,0-.63,0-.58.5h-1.31c-.11,0-.3,0-.32,0-.14.34-.42.2-.64.21-1.81.07-3.62.11-5.43.19-2.15.1-4.3.27-6.45.33-4.07.13-8.15.21-12.23.3l-15.46.32a4.85,4.85,0,0,1-.85-.13,24.22,24.22,0,0,0-2.8-.41c-1.13-.05-2.26.07-3.4.07-8.4,0-16.8.08-25.21.38s-16.91.36-25.37.53a33.66,33.66,0,0,1-7-.47,1.78,1.78,0,0,0-.6.06,5.28,5.28,0,0,1-.66.16c-.55,0-1.09,0-1.64,0l-.06.12L33.81,30c.44-.35.85,0,1.31-.11C34.84,30.3,34.32,30.46,34.45,31Zm58,48.61c-1-1.75-2-3.44-2.89-5.15A12.62,12.62,0,0,1,89,73l.16-.08,3.89,6.44,5.28-3.13L96,72.39a17.42,17.42,0,0,1-4.84,1.9L95.72,72l-2-3.3L88,71.91a.29.29,0,0,0-.13.23V75l.57-.07c-.05.13-.06.21-.09.22-.59.22-.46.7-.43,1.15.27,3.5.54,7,.82,10.49.07.92.17,1.83.25,2.77l9.17-.44-1.18-1.94a3.4,3.4,0,0,0-.37.16l-2.63,1.31a1.17,1.17,0,0,1-.38,0,4,4,0,0,1,.24-.33.74.74,0,0,1,.21-.13l2.68-1.51-1.8-2.89a13.88,13.88,0,0,1-4,1.65l-.06-.13,3.78-1.91c-.65-1.14-1.25-2.22-1.88-3.3a.39.39,0,0,0-.37-.09c-.6.17-1.18.37-1.78.56a2.84,2.84,0,0,1-.31.06l0-.11Zm9-21.83-1.87-2.94-5.12,2.95,2.42,3.76,4.8-2.86a.57.57,0,0,0,.18-.28,16.53,16.53,0,0,0,2-.43,10.63,10.63,0,0,0,3.06-1.8c.15-.12.34-.26.38-.43.11-.42.45-.56.77-.74l.38-.21c-1.54-2.41-3-4.79-4.59-7.19L97.61,51l2.08,3.12L105,51v.13l.84.13L100,54.61l1.65,2.57Zm-64,.2c-.87.48-1.69.95-2.52,1.38a.67.67,0,0,0-.42.7c0,2.89-.11,5.77-.1,8.66a24.68,24.68,0,0,0,.14,4.38,26.68,26.68,0,0,1,.37,4,5.46,5.46,0,0,0,.91,2.34l5.19-3.39L37.3,70.28a12.63,12.63,0,0,0-.76,1.52,11.25,11.25,0,0,0-.29,1.55,1.45,1.45,0,0,1-.12-1.43c.26-.52.6-1,.9-1.48.06-.11.13-.28.09-.35-.24-.39-.52-.76-.81-1.17l-.58.81-.07,0,.54-1c-.67,0-.88-.13-.7-.53a.43.43,0,0,0-.06-.49c-.15-.25-.31-.49-.45-.75a1.8,1.8,0,0,1-.12-.35l.14-.08,1.3,1.62.55-.48a.79.79,0,0,1,.23-.14,4.89,4.89,0,0,0,.68-.21c.81-.42,1.61-.86,2.41-1.3l1.66-.91-1.78-2.72-.53.29c-1.41.76-2.82,1.53-4.23,2.28-.1,0-.27,0-.4,0a1.29,1.29,0,0,1,.25-.27c1.25-.73,2.51-1.45,3.77-2.17l.87-.54ZM33,52.28l-.43-.05-.1-.07c.75-.3.42-.89.45-1.37.05-.76,0-1.52,0-2.28V43.62c0-2.26,0-4.53,0-6.8,0-1.57.09-3.14.15-4.72,0-.35-.08-.55-.47-.5l.69-.05a12.52,12.52,0,0,0-1.17-1.4c-.78-.69-1.62-1.32-2.44-2a2.88,2.88,0,0,1-.23-.21c0,1.14,0,2.27,0,3.4,0,.81.66,1.26.91,1.93l.16,0V29.51c.47.6.83,1.23,1.25,1.81a1.5,1.5,0,0,1,.26,1c0,3.36.07,6.72,0,10.07,0,3.55-.15,7.11-.27,10.66-.06,2.13-.26,4.27-.27,6.41,0,6.24,0,12.47.05,18.7a2.23,2.23,0,0,0,.32,1.34,5,5,0,0,1,.23.58l-.51-.36v.85h1.22C32.9,71.1,32.94,61.71,33,52.28Zm86.62-2.93,2.4,3.4.74-.41L128,49.53a2.67,2.67,0,0,1,.46-.2.24.24,0,0,1,.2.07s0,.13,0,.17a1.54,1.54,0,0,1-.3.22l-5.11,3.1-.73.42,2.27,3.08,6.75-3.2L126.35,46a.41.41,0,0,0-.36-.07c-.39.18-.77.39-1.14.59C123.12,47.43,121.4,48.37,119.61,49.35ZM107,40.25l-12.2,6.54,2.56,3.76,6.18-3.4-1.83-3.3.11-.05,2,3.18,5.43-2.93C108.46,42.77,107.72,41.53,107,40.25ZM102.79,59l4.41,7.26,6.17-3.34-2.11-3.54-2.54,1.31,0-.07,2.41-1.51c-.77-1.23-1.51-2.4-2.26-3.58C106.79,56.68,104.81,57.83,102.79,59Zm30.84,32c.05.52.07,1,.14,1.37a2,2,0,0,1-1.12,2.14.54.54,0,0,1-.45,0c-.07,0-.08-.33,0-.39.34-.33,0-.6-.06-.86s-.29-.59-.68-.58l-1.6.12a10,10,0,0,1-2,0,1.78,1.78,0,0,1-1.38-1.08c-.09-.21-.21-.4-.51-.38l-3.89.18s0,0-.11.07a4.7,4.7,0,0,0,.84,2.28,1.49,1.49,0,0,0,1,.67,12.86,12.86,0,0,0,1.52.18c1,0,2.08,0,3.1.12a6.33,6.33,0,0,1,2,.56,7.19,7.19,0,0,1,1.34,1.06c0,.15-.06.35,0,.43a4.85,4.85,0,0,1,.88,2.46c.09.44.25.53.67.34.78-.35,1.53-.7,1.77-1.66.08-.31.42-.55.61-.84A9.62,9.62,0,0,0,137.3,91ZM62.19,69.85l-2.93,1.24a10.41,10.41,0,0,0-3.21,2,7,7,0,0,0-.51.59c-.22,0-.4,0-.53.06-1.55.86-3.08,1.73-4.62,2.61l-.35.22,2.14,3.18,5.21-3-1.48-2.27a.7.7,0,0,1,1,.39,7.24,7.24,0,0,0,.58.9c.65,1,.67,1,1.72.47,1.45-.77,2.87-1.6,4.3-2.41.31-.17.61-.36.94-.56ZM73.77,88.37a9.41,9.41,0,0,1,.49,1.09c.11.34.31.4.64.4l7.42,0a.85.85,0,0,0,.55-.27q1.56-1.64,3.08-3.3a.89.89,0,0,0,.21-.51c0-1,0-2.07.07-3.11,0-.32,0-.65,0-1-.1,0-.15,0-.18,0l-5.76,3.11c-.12.07-.2.22-.28.3a1.5,1.5,0,0,0-.39.08Zm36-44.57,4.46-2.42-1.51-2.89.17-.09,1.65,2.82,6.38-3.53-2.16-3.36L107.34,40Zm-48,25.35-1.53-2.24c.46-.13.72-.08.94.28.35.57.75,1.11,1.14,1.67L68,65.78,66,62.56l-5.34,2.87c-.23.13-.52.19-.49.58a2,2,0,0,1-.17.54l-.46-.49c-1.22.64-2.42,1.26-3.61,1.91-.84.46-1.66,1-2.53,1.45l2.08,3.21Zm42.45-21.67,4.69,7.18L114.18,52c-.83-1.32-1.61-2.58-2.4-3.83-.41-.66-.22-.6-.92-.3l-.3.11,0,0,.8-.48-1.76-2.83ZM22.08,27l.21,33h.11l1.49-14.64h.21L24.23,51c.05-.32.1-.53.11-.73.12-2.27.26-4.53.33-6.79.1-3.39.14-6.78.22-10.16,0-.9.13-1.79.19-2.69a.47.47,0,0,0,0-.27c-.32-.39-.65-.76-1.05-1.23,0,.21,0,.3,0,.39-.06,3.33-.08,6.66-.19,10,0,1.21-.26,2.41-.42,3.62a2.25,2.25,0,0,1-.13.42l-.13,0v-.78c.11-4.34.19-8.68.33-13a2.49,2.49,0,0,0-.81-2.17A6.18,6.18,0,0,1,22.08,27Zm6.5,47.52h.1l.15-39.06h-.1c0,.43-.05.85-.08,1.27q-.39,5.81-.79,11.62c-.24,3.52-.45,7-.71,10.55a126.15,126.15,0,0,0-.48,12.75.78.78,0,0,0,.09.43C27.36,72.84,28,73.65,28.58,74.47ZM85.35,51.89l-6.07,3.55.28.38c.46.65.93,1.3,1.38,2a2.61,2.61,0,0,1,.22.63L81,58.5a31,31,0,0,1-2.33-2.77L74.09,58.2l2.17,3.17.29-.12c2.89-1.41,5.77-2.82,8.67-4.22a.39.39,0,0,0,.24-.46l-.09-4.18C85.37,52.23,85.36,52.07,85.35,51.89Zm21.29,14.63-4.34-7.25-5.1,2.82,2,3a2.77,2.77,0,0,1,2.26-.61l-1.95,1,2.2,3.25.81-.44a9.31,9.31,0,0,1,2.79-1.23A6.19,6.19,0,0,0,106.64,66.52Zm-71,27.12a8.42,8.42,0,0,0,.07.91c.55,2.78,1.12,5.57,1.68,8.36,0,.17,0,.45.3.38a.54.54,0,0,0,.29-.36c.15-.8.24-1.61.41-2.41a1.78,1.78,0,0,1,1.36-1.62,7.09,7.09,0,0,0,1-.44,3.23,3.23,0,0,1,1-.34,6.91,6.91,0,0,0,2.12-.5,2.34,2.34,0,0,0,.71-.39c1.05-.84,2.06-1.71,3.13-2.52.6-.45.64-.41.5-1.28-.32,0-.63.12-.94.15s-.6.1-.66,0c-.25-.4-.59-.26-.92-.29l-.07.26a2.33,2.33,0,0,1-2.45,2.06c-.81,0-1.63,0-2.44,0a7.75,7.75,0,0,0-1.32.27c.29.37.57.67.29,1s-.58-.24-.93-.18c-.09.24,0,.65-.51.61.38-.2.41-.54.21-.75a1.9,1.9,0,0,1-.4-1.3c0-.59,0-1.18,0-1.83Zm-.11-8.91-.06-.16,2.06-1.28L35.74,79.9a4.4,4.4,0,0,1-.57.29c-.45.16-.56.44-.56.91,0,2.38,0,4.76,0,7.13,0,.88.13,1.76.22,2.64a.57.57,0,0,0,.26.41c.52.17.76,0,.78-.57a1.6,1.6,0,0,1,0-.27,39.34,39.34,0,0,0,5.6.58l-1.8-3.51c-.66.32-1.26.63-1.87.92a3.26,3.26,0,0,1-2,.47L39.48,87,39,86c-.4.42-.74.79-1.1,1.15-.06.06-.18.06-.28.09s0-.21.06-.28c.3-.42.62-.81.92-1.23a.44.44,0,0,0,.09-.32c-.3-.6-.62-1.19-.94-1.8ZM52.59,32.45s0,0-.11,0l-5,.21a2,2,0,0,0-.75.2,59.09,59.09,0,0,0-6.79,4,21.4,21.4,0,0,0-4.18,3c-.16,0-.29-.07-.38,0-1.23.6-1.22.6-1.15,1.86a1.44,1.44,0,0,0,.58,1.12l6-4.09-.29-.77.07,0,.41.6ZM56.29,88l-1.85-3.43-5.63,3c.31.54.61,1,.87,1.52.12.25.42.59,0,.79s-.48-.22-.63-.45c-.32-.47-.62-1-.94-1.48L43,91a.38.38,0,0,0,.27.1l8.53-.17a.89.89,0,0,0,.43-.12C53.53,89.87,54.87,89,56.29,88ZM20.49,20.92v1.93q.07,20.46.12,40.94A1.63,1.63,0,0,0,21.26,65c0-.12,0-.17,0-.23,0-2.9.07-5.8.09-8.71q.09-14.43.19-28.86A2.49,2.49,0,0,0,21,25.35c-.05,0-.06-.11-.09-.17l.06-.05.53.42c0-.07.06-.1.06-.13,0-1,0-1.94,0-2.91a.75.75,0,0,0-.13-.38C21.18,21.75,20.86,21.38,20.49,20.92ZM87.83,71.68l5.66-3.47L91.56,65,88.88,66.2l-.06-.12,2.53-1.4c-.8-1.3-1.57-2.56-2.34-3.79-.68.25-.68.25-.83,0l.6-.36-.86-1.35-.09,0ZM78.31,65.9l-7,3.91,2.23,3.66,7.09-3.79ZM116.77,45l2.6,4,6.36-3.89-2.46-3.66ZM34.25,39.71l.42-.23c1.53-1,2.87-2.17,4.44-3.08a9.26,9.26,0,0,0,1.15-.94l.13-.06-.14.3a18.12,18.12,0,0,0,3-3.16,9.74,9.74,0,0,1-1.21,0,2,2,0,0,0-1.88.75,10.83,10.83,0,0,1-1.24,1.1l-.12-.13,1.74-1.64,0-.12c-.61,0-1.21,0-1.82,0a1,1,0,0,0-.86.36c-.6.62-1.23,1.21-1.84,1.81l-.09-.08,1.73-2a7.23,7.23,0,0,1-1,.1,2,2,0,0,0-2,.85,1.3,1.3,0,0,0-.25.61c0,1-.06,2-.08,3S34.25,38.78,34.25,39.71Zm24.25,11,6.42-3.52L62.1,43.43l-6.28,3.69Zm5.34,7.49,6.83-3.54-2.75-3.58-6.43,3.73Zm16,26.1c.17-.1.31-.18.46-.25,1.91-1,3.82-2,5.72-3a.51.51,0,0,0,.22-.4c.05-.83.07-1.65.1-2.48,0-.6,0-1.19.08-1.88L78,81.22ZM48.44,37.56l-.17-.49.33.34,9.28-5.23c-1.3.07-2.51.13-3.71.21a.77.77,0,0,0-.27.11c-.66.35-1.3.72-2,1-3.41,1.66-6.81,3.32-10.08,5.24l-.46.28L42.67,41Zm3.83,16.95L58,51c-.44-.61-.88-1.22-1.32-1.81l-1.34-1.82a26.59,26.59,0,0,0-5.72,3.53Zm23.39,7.22c-.67-1-1.32-1.92-2-2.87-.17-.27-.32-.29-.59-.14l-5.88,3.16-.74.41,2.07,3.22ZM66.92,77.21l-2.3-3.69L58.33,77l2.44,3.55Zm9.15-14.85L69,66.14l2.08,3.29,7-4ZM52.53,90.84a.61.61,0,0,0,.18,0c2.64-.24,5.28-.47,7.92-.72a2,2,0,0,0,.65-.24c1-.58,2-1.19,3-1.78l.55-.33-2-3.13L58,87.53c-.88.53-.87.53-.51,1.48a1.46,1.46,0,0,1,0,.54c-.18-.08-.42-.12-.53-.26a4.34,4.34,0,0,1-.42-.8Zm-27-20.35c0-.23,0-.35,0-.47,0-5.9,0-11.8.06-17.71a12.92,12.92,0,0,1,.17-1.51,18.75,18.75,0,0,0,.24-2.1q0-3.86-.06-7.71c0-1.49-.21-3-.24-4.47s0-3.26,0-4.89a3,3,0,0,0-.21-.73l-.14,0a1.58,1.58,0,0,0,0,.31c0,1.64.07,3.29,0,4.93,0,4.13-.06,8.27-.22,12.39-.13,3.47-.53,6.92-.67,10.38-.14,3.29-.09,6.58-.11,9.87a.56.56,0,0,0,.06.32C24.84,69.57,25.18,70,25.57,70.49ZM49.21,51.34l-5.65,3.22,2.5,3.68,5.67-3.38ZM71,55.07,64.24,58.8l1.84,2.83A17.9,17.9,0,0,0,73,57.84Zm42.51,8.06-6.14,3.3L109.66,70l5.87-3.27Zm-42.72,7-5.62,3.17,2.28,3.65L73,73.78ZM40.09,87.32c.52,1.12,1,2.22,1.56,3.31.25.51.38.52.86.22l5-3,.38-.25-2.05-3.34ZM67.53,50.59l-2.31-3-6.38,3.6,2.24,3Zm-22,8L43,54.86l-5.19,3,2.39,3.87Zm37,14.75-1.59-3.14L73.84,74l1.65,2.87Zm27.29-3.11,2.31,3.46,5.53-3.25-2-3.51ZM57.13,61.32c.11.37.29.26.48.15l4.83-2.57.86-.46L61,55.09l-5.94,3.33c.56.8,1.09,1.54,1.6,2.3a.37.37,0,0,0,.54.15,3.15,3.15,0,0,1,.62-.17l0,.12ZM62,43.2l-2.23-3.06L53.43,44l2.1,2.78Zm70,25-2.37-3.7-5.24,2.86L126.19,71ZM70.53,69.71l-2.1-3.3-5.77,3.08L65,73ZM129,38.34l-5.08,2.72c.08.14.12.23.17.3l2.15,3.15c.29.43.52.49,1,.27a1.46,1.46,0,0,1,.49-.55c1-.54,2.09-1,3.14-1.57l.42-.23Zm-64,49.87L61.88,90c.67,0,1.31,0,2,0,1.88,0,3.75,0,5.63,0a1.82,1.82,0,0,0,.85-.08c.91-.49,1.79-1,2.72-1.61l-1.72-3.35-5.65,3.05.71,1.78-.15.08C65.7,89.36,65.47,88.73,65.05,88.21ZM103.11,84l-5.52,2.87,1,2.27,7.29-.33-.58-1-.38.08c.31-.17.25-.37.09-.59s-.19-.34-.28-.51C104.19,85.84,103.66,84.92,103.11,84ZM63.8,59.21l-1.52.27a3.31,3.31,0,0,0-.84.18c-.79.39-1.57.81-2.33,1.25-.25.15-.59.38-.64.61a1,1,0,0,1-.69.79l1.91,2.8,5.88-3.17Zm9.71-11.43,2.71,3.56L81,48.47l-2.33-3.69ZM58.38,51.46,52.6,55l2.15,3,5.87-3.43ZM52,80.73l-5.59,3.18,2.15,3.29,5.59-3.11ZM42.17,65.58,36.6,68.44,39.08,72l5.2-3.17ZM54.79,83.74l5.41-2.86-2.4-3.52-5.19,3ZM39,48.27l5.62-3.46-2.06-3.1-5.81,3.6Zm77.61,7.5-2.23-3.44-5.16,3,2.26,3.56Zm17.43,16-1.86-3.16-5.69,3.07c.48,1.15.94,2.28,1.42,3.42ZM42.6,54.28l-1.73-2.47a44.3,44.3,0,0,1-4.67,2.7,2.21,2.21,0,0,0-1.44,2.19c-.06.82-.15,1.63-.22,2.45l.12,0,2.55-1.68-.52-1.1.13-.08c.4.17.42.69.76,1Zm61.2,18.64-2.2-3.43-5.09,2.64,2.38,3.77Zm10-10.23,5.28-3L117,56.31l-5.29,2.83ZM65.4,87.46,71,84.29l-1.82-3.22-5.86,3.26ZM44,80l2,3.34,5.5-3.21L49.4,76.92Zm72.38-34.8L112,47.36l2.75,4.34L119,49.28ZM100.72,80.08l-2.07-3.33-5.4,3,2,3.38ZM77.51,81.47l-5.66,3.07,1.71,3.35,5.8-3.33ZM43,41.44l2.14,3.09L50.71,41l-2-2.87Zm9.1,13.87-5.69,3.38c.41.63.79,1.19,1.16,1.75.73,1.1.75,1.14,1.92.52,1.43-.75,2.83-1.56,4.24-2.35.17-.09.32-.19.5-.3ZM89.36,60.7l2.38,3.74,4.7-2.67-2.36-3.72Zm-43.84,23-2-3.38-5.46,3.18,1,1.79a4,4,0,0,1,1.67-1.16,1,1,0,0,1-.23.39c-.34.35-.69.68-1,1a.4.4,0,0,0-.11.35c.13.31.31.61.48.93ZM116,66.39l5.24-3.17-2-3.23-5.35,2.9Zm2.16,3.73,5.26-3-1.86-3.36-5.4,2.9Zm-73.44-.69-5.33,3,2.17,3.4,5.16-3.19Zm32.53,11.5-1.87-3.19c-1.89,1-3.74,2-5.62,3.05L71.56,84Zm-5.94-26.6,4.52-2.56L73,48.09l-4.52,2.64ZM49.65,76a2.61,2.61,0,0,1,.91-.42,3.3,3.3,0,0,0,1.68-.72L54.83,73s0,0,0-.09l-2-3.12-5.22,3.06ZM116.5,44.57,123,41l-1.72-2.68-6.4,3.52ZM43.24,79.8l-1.93-3.23L36,79.77l1.81,3.32Zm73.33,1.38,5.5-2.94-2-3.23-5.34,2.81ZM50.12,65.56,48,62.38l-5.38,2.94,2.17,3.22Zm70.23,8.51,5.13-2.7c-.6-1.22-1.17-2.4-1.78-3.63l-5.23,3ZM92,54.09l2.11,3.22c.78-.36,1.5-.76,2.26-1a11.28,11.28,0,0,0,2.83-2l-2-3.08ZM26.67,32.25l-.18,0q.06,11.22.14,22.45c.1-2,.19-4,.29-6a43.05,43.05,0,0,1,.46-6c.17,4.22-.09,8.43-.19,12.65a.08.08,0,0,0,0-.08c.43-6.55.83-13.1,1.3-19.65.08-1.08-.68-1.55-1.09-2.28l-.1,0L27.2,36.1h-.11c0-.15-.06-.31-.07-.47,0-.82-.05-1.65-.11-2.48A4.79,4.79,0,0,0,26.67,32.25ZM47,73.17,41.81,76.3l1.93,3.22L49,76.34ZM118,71l-5.5,3.2,1.87,3,5.43-2.87Zm-16.64,8.7L106.21,77l-2.07-3.54-4.93,2.92C99.92,77.53,100.61,78.62,101.33,79.74Zm9.45,4.61,5.12-2.83L114,78.18l-5.13,2.75Zm-48.33-.17-1.9-2.79-5.41,2.84L56.9,87.6Zm49-10.15-2.26-3.49-4.64,2.69,2.08,3.56ZM61.12,81.1,63,83.84l5.87-3.32-1.65-2.76ZM49.25,50.36,55.08,47l-2-2.77-5.69,3.55Zm1.29,15.85-5.3,2.92,2,3.16,5.2-3.11Zm48.54-.48-4.87,2.7,2,3.28,5-2.7C100.54,67.91,99.83,66.84,99.08,65.73ZM29.67,38.86h-.12V40.1q.07,17.82.13,35.63a1.79,1.79,0,0,0,.57,1.19c0-.17,0-.26,0-.35q0-13.21.08-26.42a2.7,2.7,0,0,0-.05-.41,14.37,14.37,0,0,1-.35-2c-.09-2.31-.1-4.62-.16-6.93C29.78,40.14,29.72,39.5,29.67,38.86Zm92.5,24.57c.63,1.12,1.24,2.21,1.86,3.3L129.25,64l-2-3ZM109,70.19l-2.22-3.47L102,69.25l2.17,3.39C105.8,71.83,107.16,70.63,109,70.19Zm-6.23,13.23L101,80.54l-5.49,3,1.79,2.91Zm3.08,3.78,4.49-2.58c-.64-1.17-1.27-2.3-1.9-3.47l-4.67,2.47ZM38.88,49l-.22.11c-1.54.86-3.09,1.7-4.63,2.58a.59.59,0,0,0-.21.46c0,1.74,0,3.48.06,5.22,0,.12,0,.24,0,.36a20.35,20.35,0,0,0,.53-2.11c0-.12-.07-.26-.11-.41a4.45,4.45,0,0,1,.39-.62c.07-.09.33-.18.35-.15.19.22.32.05.46,0l4.56-2.79.46-.3ZM75,77.19l-1.68-2.85-5.6,3.13,1.65,2.77Zm47.63.76,4.72-2.59L125.72,72l-5,2.66Zm-3.42-28.38L114.94,52l2.24,3.42L121.59,53Zm5.34,7.54-4.72,2.54,1.94,3.15,5-2.55ZM45.81,59l-5.34,3.1,1.84,2.7,5.34-3Zm1.06-10.94-5.5,3.4L43.14,54l5.58-3.29ZM93.94,68l4.81-2.72-2-3L92,64.8Zm30.2-11.46-2.13-3L117.54,56l2.11,3.33ZM111.82,74.61l-4.89,2.72,1.63,3,5.08-2.72Zm-61-33.45L45.43,45,47,47.27l5.61-3.62Zm22.8,16.43,4.61-2.45-2.22-3L71.55,54.7ZM127.11,35,121.88,38l1.72,2.65,5.11-2.78ZM103.42,83.06l4.7-2.52-1.63-3-4.86,2.64ZM39.36,48.74l1.7,2.31,5.48-3.47L45,45.35ZM114.52,42l-4.45,2.39,1.79,2.81,4.28-2.4ZM41.05,39.24l-6,3.86,1.41,1.82,5.81-3.66Zm-2.52,9.32-2.16-3c-.68.38-1.32.77-2,1.09a.93.93,0,0,0-.58.94c0,.62,0,1.24,0,1.86s0,1.24,0,1.86l.12.08ZM23.42,67.75l.09,0,.3-18.89a3.47,3.47,0,0,0-.2.89c-.27,2.47-.55,4.94-.8,7.41a39.62,39.62,0,0,0-.45,6.44,13.71,13.71,0,0,1,0,1.57,6.16,6.16,0,0,1-.18.83c0,.08,0,.2,0,.25C22.59,66.73,23,67.24,23.42,67.75ZM45.14,93.31c-1.38,0-2.76,0-4.14,0a3.14,3.14,0,0,0-1,.1,1.54,1.54,0,0,0-.78,2A11.5,11.5,0,0,1,40.8,95a17.49,17.49,0,0,1,2.4,0A1.89,1.89,0,0,0,45.14,93.31Zm-21.76-22,.13,0c0-.91,0-1.82,0-2.73a.6.6,0,0,0-.14-.37c-.62-.74-1.25-1.47-1.87-2.2-.08-.1-.12-.25-.19-.36l-.58-.84a16.92,16.92,0,0,0-.07,2.55,1.43,1.43,0,0,0,.25.75c.74,1,1.51,2,2.27,3Zm109.9,16.86.07.17c.72,0,1.44,0,2.15,0a1.12,1.12,0,0,0,1-.47,1.87,1.87,0,0,0,.49-1.46c-.05-.78,0-1.57-.05-2.36a3.55,3.55,0,0,0,0-.41ZM19,19.1l.15,15.08a.4.4,0,0,0,.18-.28c.08-.74.22-1.48.24-2.22.08-2.69.13-5.38.17-8.07,0-1-.09-2.08-.05-3.11A1.72,1.72,0,0,0,19,19.1ZM31.2,31.47a3,3,0,0,0-.1.49C31,33,31,34.08,31,35.14c0,1.35.12,2.7.13,4.06,0,3.3,0,6.6,0,9.9,0,.3,0,.61.06.91.13-2.15.19-4.31.24-6.46L31.64,32C31.64,31.72,31.67,31.44,31.2,31.47Zm-2.51,47a5.07,5.07,0,0,1,0-.68,5.11,5.11,0,0,0-1.37-4.29c-.22-.25-.39-.54-.62-.85-.08,1-.16,1.83-.23,2.7a.34.34,0,0,0,.07.15Zm4.43,9.29.07,0c0-.53,0-1.06,0-1.6,0-.06-.06-.11-.08-.18a2.34,2.34,0,0,1-.28-.73c0-1.12,0-2.24-.06-3.36V81.3H31.62c0,1-.19,2,.53,2.75a.46.46,0,0,1,.11.22c0,.24,0,.49,0,.73l-.67-.17h-.08c-.29.37-.26.5.08.84a6.81,6.81,0,0,1,.74.87C32.64,86.92,32.87,87.33,33.12,87.72ZM27.36,25.85a9.19,9.19,0,0,1,0,1.19,3.77,3.77,0,0,0,1,3.21,5.72,5.72,0,0,1,.45.61c.07-1.13.13-2.13.18-3.14a.35.35,0,0,0-.06-.27C28.45,26.94,28,26.44,27.36,25.85Zm100.5,66.51c.25,0,.46,0,.66,0,.9-.1,1.81-.19,2.7-.33a1.38,1.38,0,0,1,1.46.72l.24.33V91.13c-.12,0-.15-.07-.17-.06-.9.12-1.83-.11-2.7.36a3.58,3.58,0,0,1-1.21.17c-.17-.36-.68-.42-1.31-.17C127.79,91.68,128.12,91.9,127.86,92.36ZM83.22,89.79l.09,0c.21,0,.52,0,.48.29,0,.11-.32.21-.5.28a.92.92,0,0,1-.37,0,1.3,1.3,0,0,0-1,.52h1.69a.28.28,0,0,0,.18-.13,7.72,7.72,0,0,1,2.13-2.28c.09-.07.22-.18.22-.27.05-.57.07-1.14.09-1.73Zm55.95-.14h.16c0-.14,0-.29,0-.43,0-2.25.08-4.51.11-6.76a9.39,9.39,0,0,0-.06-1.19c0-.12-.19-.21-.29-.32-.1.11-.27.21-.29.33a8.69,8.69,0,0,0-.13,1.24c0,.85,0,1.7,0,2.52l.52-.06c-.17.32-.41.57-.4.8C138.91,87.08,139.05,88.36,139.17,89.65Zm-7-.37-20.6.54v.11C114.08,90.07,131.88,89.6,132.12,89.28ZM25.74,30c.32-1.51.13-2.32-.68-3.13-.39.15-.51.09-.56-.35A1.31,1.31,0,0,0,24,25.42c0,.85,0,1.66,0,2.47a.44.44,0,0,0,.13.24Zm-2.31-2.62c0-.9,0-1.7,0-2.49a.47.47,0,0,0,0-.24l-1.33-1.8c0,1.12,0,2.1,0,3.08a.5.5,0,0,0,.15.32C22.58,26.56,23,26.9,23.43,27.34ZM68.18,91.08l0,.14h.39c4.25-.08,8.51-.17,12.77-.24.32,0,.46-.15.55-.48-.77,0-1.49.12-2.22.14-3.59.12-7.19.21-10.78.32A6.52,6.52,0,0,0,68.18,91.08ZM24.6,74.63l-.14.06a4.82,4.82,0,0,0,.36.87c1.72,2.56,3.46,5.1,5.19,7.65l.27.32c0-.25,0-.42,0-.52-.4-.62-.82-1.22-1.23-1.83a1.53,1.53,0,0,1-.17-.27,6.28,6.28,0,0,0-.29-.76c-.33-.56-.68-1.11-1-1.65-.57-.85-1.15-1.7-1.73-2.54l-.1.06,2.53,4-.11.06Zm1-.41c0-.89-.05-1.67,0-2.43.08-.93-.64-1.38-1.09-2.11v3a.54.54,0,0,0,.09.27Zm9.1-30.94c-.21.22-.5.38-.51.56,0,.81,0,1.63,0,2.49l1.92-1.16Zm55.48-12a7.06,7.06,0,0,1-.8,0,.79.79,0,0,0-.87.46,2.29,2.29,0,0,1-.36.4L88,32.09l.1-.8c-.11,0-.22.08-.22.15,0,.89,0,1.78,0,2.7ZM23.39,73.61a1.35,1.35,0,0,0-.28-1.25c-.76-1-1.48-2-2.22-3-.06-.08-.13-.15-.23-.26a2.61,2.61,0,0,0,.81,2.1c.52.66,1.06,1.31,1.59,2Zm11.71,20c.22,3,.32,5.93,1.56,8.68C36.19,99.41,35.39,96.57,35.1,93.64Zm11.1,3.5,0,.09-2.32,1.32a3.65,3.65,0,0,0,2.17-.88,16.53,16.53,0,0,0,1.64-1.8,5.7,5.7,0,0,0,.59-1.09l-.07,0-2.79,2.47Zm-18.75-67-.09,0c0,.32,0,.63,0,.95s-.07.61.06.81a18.93,18.93,0,0,0,1.15,1.52l.12,0a4,4,0,0,0,0-1.48A11.9,11.9,0,0,0,27.45,30.14Zm19.69,1.29a1.54,1.54,0,0,0,1.42.45l3.06-.18,2-.13v-.14Zm-15-22.29-.1.13c.15.09.29.27.43.26,1.87-.06,3.73-.13,5.59-.21.47,0,.94-.07,1.4-.1V9.14ZM23,75.48l-.09.07,3.25,5c0-.51.07-1-.31-1.38s-.79-1.12-1.2-1.66-.75-.91-1.12-1.37C23.36,76,23.2,75.72,23,75.48ZM21.36,77a7.36,7.36,0,0,0,2.94,4.73c0-.11.09-.2.07-.21A26.52,26.52,0,0,1,21.36,77ZM70.79,89.83h3.08l-.64-1.19Zm16,0c.24,0,.37-.06.36-.37,0-1.8-.07-3.61-.11-5.42,0-.14-.14-.28-.25-.5ZM30.27,80.59c0-.8,0-1.53,0-2.26a1.41,1.41,0,0,0-.58-1.16c0,.93-.07,1.85,0,2.77A.65.65,0,0,0,30.27,80.59Zm-4.4-53.94c0-.68,0-1.28,0-1.88s-.29-.83-.7-1.19a9.64,9.64,0,0,1,0,1.43A1.7,1.7,0,0,0,25.87,26.65ZM30.12,36c.66-.25.3-1.88-.61-2.72A3.62,3.62,0,0,0,30.12,36Zm-3.21-7.93c0-.85,0-1.58,0-2.31a.92.92,0,0,0-.5-.85c0,.74,0,1.44,0,2.14A1.26,1.26,0,0,0,26.91,28.08ZM19,16.07a14.23,14.23,0,0,1,0,1.61c-.05.57.28.87.66,1.21A3.6,3.6,0,0,0,19,16.07Zm5,6.12c.13.84-.34,1.78.46,2.5C24.26,23.85,24.8,22.9,23.93,22.19ZM49.34,95l.1,0,1.21-1.56c-.45,0-.75,0-1,.08a.4.4,0,0,0-.25.27C49.32,94.17,49.34,94.56,49.34,95Zm88.81-50.9-.07.06V48.8c.15-1.48.22-3,.27-4.44C138.35,44.26,138.22,44.15,138.15,44.05ZM63.64,91.16l0,.08c1.24,0,2.48,0,3.72,0a2.85,2.85,0,0,0,.63-.14l0-.16Zm-36.8-60a2.56,2.56,0,0,0-.38-2.36C26.27,30.15,26.39,30.84,26.84,31.18Zm-.21,32h.13c-.11-1.4.48-2.81-.13-4.17ZM20.53,18.9c-.22.94.13,1.63,1.13,2.36C21.56,20.31,20.87,19.74,20.53,18.9ZM34.94,78.56l-.13,0-.2,1.66,1-.63ZM79.15,27.34l0,.11c1.31.07,2.62,0,3.92,0v-.13Zm41.93,64.27-.89,0,1.14,1.54Zm11.33-2.13h2.69c.1,0,.2-.11.39-.21A8.13,8.13,0,0,0,132.41,89.48Zm5.38-59.28c-.23,1.27-.23,1.27.23,1.43C137.9,31.14,138.21,30.61,137.79,30.2ZM85,90.32c1-.22,1.09-.32.95-1ZM64.89,31.09v0h4.74v0Zm72.16,57.84c-.34.34-.82.08-1.09.52l1.09,0ZM22,19.73l-.13.07.79,1.35C22.78,20.4,22.24,20.15,22,19.73Zm1.21,1.55c0,.46-.14.87.25,1.26C23.43,22.09,23.69,21.66,23.2,21.28Zm114.3,5.77a5.5,5.5,0,0,0-2.21-.11c.71.06,1.42.1,2.13.13C137.45,27.08,137.47,27.06,137.5,27.05Zm.37,8.61h-.08v1.72h.08ZM86,90.88v-.11c-.44,0-.88-.2-1.31,0v.12Zm.88-59.25c-.06-.24-.07-.49-.14-.5a3.35,3.35,0,0,0-.71,0v.08Zm-65.36,42,.1-.08-.86-1.25-.14.1Z"/><path d="M140.87,32.35c.07,1,.18,2.06.2,3.09.07,4.53.14,9.07.16,13.6a14.65,14.65,0,0,1-.32,2.63C140.61,51,140.54,32.94,140.87,32.35Z"/><path d="M42.14,7.29l22.58.15v.18c-7.52.27-15,.29-22.57-.18Z"/><path d="M32.27,25.73h0a4.35,4.35,0,0,0-.33-.42A15.16,15.16,0,0,1,29.25,22c0-.08-.12-.14-.12-.22a1.25,1.25,0,0,1,.05-.32c.1,0,.23,0,.28.11a5.67,5.67,0,0,1,.45.64,19.67,19.67,0,0,0,3.43,3.63c.21.2.45.37.64.59a1.7,1.7,0,0,1,.18.46,1.35,1.35,0,0,1-.47-.1c-.35-.25-.67-.53-1-.79C32.55,25.9,32.41,25.82,32.27,25.73Z"/><path d="M40.12,26.26c-1.19.35-6.55-1.05-7.35-1.88a4.62,4.62,0,0,1,.57.07c1.41.39,2.82.79,4.24,1.17.58.16,1.18.25,1.77.39A7.66,7.66,0,0,1,40.12,26.26Z"/><path d="M41.57,25.12c-.66-.2-1.33-.38-2-.61s-1-.39-1.53-.62c-.12-.05-.2-.2-.29-.3.15,0,.32-.09.44,0,.62.22,1.23.48,1.84.73s1.06.43,1.59.65Z"/><path d="M117.92,10.3l1.82,1-.08.16-1.83-1Z"/><path d="M17.18,50.57V49h.13Z"/><path class="cls-1" d="M129,80.84c.13.23.27.44.37.66.42.86.81,1.73,1.23,2.58.25.51.52,1,.79,1.5a.47.47,0,0,0,.64.23.49.49,0,0,0,.19-.68,1.55,1.55,0,0,0-.12-.22l-1.48-2.49c-.35-.62-.69-1.25-1-1.89a6.47,6.47,0,0,0,1.71-1.34l-.08-.15-2,.93c-.23-.39-.44-.76-.68-1.12a1.62,1.62,0,0,0-.39-.28,1.48,1.48,0,0,0,0,.47c.17.41.37.82.56,1.22l-13.11,7.51c.13,0,.19,0,.23,0a19.45,19.45,0,0,0,2.22-.9c2.7-1.46,5.37-3,8-4.45Zm7.18-5.7-.08-.09a11.31,11.31,0,0,0-3.21,3.5C134,77.41,135.11,76.28,136.21,75.14Zm-5.47,10.31-.17-.07a3.62,3.62,0,0,1-.22.32c-.44.59-.75,1.31-1.54,1.55a.24.24,0,0,0-.16.12c0,.1-.12.26-.07.32s.25.21.31.18a1.23,1.23,0,0,0,.49-.38c.19-.26.3-.58.49-.84s.47-.54.7-.82A1.9,1.9,0,0,0,130.74,85.45Zm-4.51,1.42a3.33,3.33,0,0,0,1.32-1.28Z"/><path d="M73.67,36.68c.11-.17.14-.26.2-.3a19.77,19.77,0,0,1,6.73-3.61,5.13,5.13,0,0,1,1-.1l0,.13Z"/><path d="M67.83,32.75c-.29.14-.57.3-.87.44-1.36.62-2.72,1.28-4.12,1.82a3.78,3.78,0,0,1-1.57,0c2.11-1,4.16-2.1,6.51-2.4Z"/><path d="M129,80.84l-2.89,1.59c-2.68,1.49-5.35,3-8,4.45a19.45,19.45,0,0,1-2.22.9s-.1,0-.23,0l13.11-7.51c-.19-.4-.39-.81-.56-1.22a1.48,1.48,0,0,1,0-.47,1.62,1.62,0,0,1,.39.28c.24.36.45.73.68,1.12l2-.93.08.15a6.47,6.47,0,0,1-1.71,1.34c.35.64.69,1.27,1,1.89l1.48,2.49a1.55,1.55,0,0,1,.12.22.49.49,0,0,1-.19.68.47.47,0,0,1-.64-.23c-.27-.49-.54-1-.79-1.5-.42-.85-.81-1.72-1.23-2.58C129.3,81.28,129.16,81.07,129,80.84Z"/><path d="M136.21,75.14c-1.1,1.14-2.2,2.27-3.29,3.41a11.31,11.31,0,0,1,3.21-3.5Z"/><path d="M130.74,85.45a1.9,1.9,0,0,1-.17.38c-.23.28-.49.53-.7.82s-.3.58-.49.84a1.23,1.23,0,0,1-.49.38c-.06,0-.26-.08-.31-.18s0-.22.07-.32a.24.24,0,0,1,.16-.12c.79-.24,1.1-1,1.54-1.55a3.62,3.62,0,0,0,.22-.32Z"/><path d="M126.23,86.87l1.32-1.28A3.33,3.33,0,0,1,126.23,86.87Z"/><path d="M97.36,38.57l-.89.21a2.18,2.18,0,0,0,1.09,1,3.37,3.37,0,0,0,3.5-.71c.79-.89,1.49-1.85,2.24-2.77a1,1,0,0,1,.28-.2l.47-.26,0-.13a1.7,1.7,0,0,1-.34-.07c-.24-.12-.3-.32-.07-.48a1.08,1.08,0,0,0,.56-1c0-.56.86-1.18,1.5-1.17a9.42,9.42,0,0,1,1.84.19c.18,0,.39.31.44.51a2.48,2.48,0,0,1-1,2.27,1.68,1.68,0,0,1-.71.16,3.58,3.58,0,0,1-.73,0c-.1,0-.18-.12-.3-.21l-.18.55c0,.09,0,.23-.09.27-.46.29-.38.83-.6,1.22a8.32,8.32,0,0,1-1.08,1.6,24,24,0,0,1-2.28,2,3.56,3.56,0,0,1-4.86-.78c-1.44.87-2.9,1.74-4.34,2.63a12,12,0,0,1-3.7,1.81c-.12,0-.23.06-.35.09l-.08-.13.22-.11a2.52,2.52,0,0,0,.34-.15c1.63-1,3.25-2,4.89-2.94C94,41.43,95,40.91,96,40.34c0-.52-.43-1-.74-1.48a11.4,11.4,0,0,0-1.14-1.36.55.55,0,0,0-.32-.21,3.65,3.65,0,0,1-2.43-1.59,1.38,1.38,0,0,1-.12-1c.15-.63.7-1,1.17-1.54v.58a1.62,1.62,0,0,1,1.64.51,5.15,5.15,0,0,1,.49.93,5.77,5.77,0,0,0,.27.56c.25.41.52.81.77,1.22a2.59,2.59,0,0,1,.17.38c.17.35.25.8.52,1S96.94,38.5,97.36,38.57Zm7.26-4.35c.4-.24.84-.49,1.25-.13a1.24,1.24,0,0,1,.37,1.5,3.25,3.25,0,0,0,.83-1.48c-.22-.18-.36-.3-.51-.41a.71.71,0,0,0-.29-.14,8.22,8.22,0,0,0-1.11,0C104.74,33.61,104.57,33.83,104.62,34.22ZM93.85,35.34c-.28-.23-.49-.43-.73-.6a.61.61,0,0,0-.88.35,2.23,2.23,0,0,0-.06.77.58.58,0,0,0,.32.38c.21.09.37,0,.47-.27a1,1,0,0,1,.33-.36A4.73,4.73,0,0,1,93.85,35.34Zm10,1.88a6.85,6.85,0,0,0-2,2.6A7.2,7.2,0,0,0,103.81,37.22ZM93.09,36l1.54,1.39A1.44,1.44,0,0,0,93.09,36Zm4.5,5a2.72,2.72,0,0,0,2.86-.25C99.55,41.32,98.58,41.07,97.59,41.05Zm8-5.62c.09.06.12-.16,0-.42a3.37,3.37,0,0,0-.22-.35l-.48.32Z"/><path d="M108.1,33.48c.49-.34,1-.72,1.47-1,.9-.54,1.83-1,2.75-1.53a2.27,2.27,0,0,1,.62-.21c.11,0,.23.09.35.14-.07.11-.12.27-.21.32-1.57.8-3.15,1.58-4.73,2.37a.53.53,0,0,1-.18.05Z"/><path d="M92.58,37.72a18.37,18.37,0,0,1-4.68,2.75C88.07,39.91,91.91,37.66,92.58,37.72Z"/><path d="M102.87,36.57c-1.56,1-2.9,2.28-4.9,2.65.08-.11.09-.16.12-.17a28.51,28.51,0,0,0,3.84-2.37,5.62,5.62,0,0,1,.83-.36Z"/><path d="M91.05,36.33V38H91V36.33Z"/></svg>