<svg id="Layer_1" data-name="Layer 1" xmlns="http://www.w3.org/2000/svg" width="296.05mm" height="187.47mm" viewBox="0 0 839.2 531.42" >
<g opacity="0.2">
    <path d="M53.43,80.11l1.62,37.17,1.07,0c.16-1,.38-2,.46-3a519.19,519.19,0,0,0,.7-69.67c-.16-2.79-1.48-5.57-1.05-8.55.05-.37-.86-1.08-1.44-1.29-1.76-.64-3.57-1.1-5.37-1.63l0-.77a46,46,0,0,1,5.55-1.59C57,30.44,57.2,29,57.18,27.51c0-1.93-1.67-1.2-2.66-1.28-4.07-.32-8.14-.55-12.22-.77-1.73-.1-3.07-.8-3-2.63s1.37-2.63,3.28-2.65c4.41,0,8.82-.27,13.23-.34,1.65,0,2.34-.66,2.41-2.37.07-2.13.44-4.26.69-6.39l.64,0,.8,5.58.44.05a17.75,17.75,0,0,1,.69-3.54,12.29,12.29,0,0,1,1.89-2.55,11.71,11.71,0,0,1,2,2.71c.47,1.3.31,2.83.73,4.16a2.4,2.4,0,0,0,1.71,1.45c14.32-.22,28.64-.62,43-.82,13.58-.19,27.16-.25,40.75-.26,16.91,0,33.83.11,50.74.17h4l.09-.65a22.42,22.42,0,0,0-2.88-.54c-8.65-.57-17.29-1.1-25.94-1.65l-59.34-3.72a24.46,24.46,0,0,1-4.47-.3c-.84-.2-1.49-1.18-2.22-1.81.75-.51,1.49-1.43,2.27-1.46,2.49-.11,5,.08,7.49.22,22,1.2,44.08,2.71,66.14,3.51,15.9.58,31.83.2,47.74.26,1.4,0,3.11-.54,3.34,1.82,0,.31.91.68,1.44.78,2.61.51,5.23,1.33,7.85,1.34q52.85.27,105.71.28c7.07,0,14.14-.63,21.21-1,1.49-.08,3.31.17,3.58-2.18,0-.29,1.08-.64,1.66-.64q23.86.31,47.73.7c.42,0,.83.05,1.25.07,19.55,1,39.1,1.85,58.64,2.89,9.64.52,19.26,1.3,28.89,1.94a8.53,8.53,0,0,0,2.87-.26c-23.08-1.9-46.27-2.61-69.05-7.08l0-.93a11.83,11.83,0,0,1,2.39-.45c23.24.21,46.49.35,69.73.72,25.49.41,51,1,76.48,1.58,35.15.78,70.31,1.48,105.46,2.45,15.81.44,31.62,1.4,47.43,2.21,7,.36,14,.9,20.92,1.4a3.63,3.63,0,0,0,3.63-1.5c1.56-2.09,4-1.69,5.66.43a4.55,4.55,0,0,0,2.57,1.8c8.51,1,17.07,1.64,25.56,2.8a70.82,70.82,0,0,0,18.17-.36,72.48,72.48,0,0,1,8.47-.44c.7,0,1.4.77,2.1,1.18-.71.37-1.43,1.06-2.14,1.05-5.33-.08-10.65-.39-16-.47-6.89-.09-13.79,0-21,0,.28.82.4,1.26.58,1.68,1.45,3.34-.2,6.8-3.8,7.44a48.19,48.19,0,0,1-7.22.41c-3.34.08-5.82,2.55-5.23,5.79,1.83,10,1,20.11,1.28,30.17.06,2.5,0,5,0,7.5,0,1.9-.11,3.71,1.48,5.3.7.69.8,2.16.87,3.3.53,8.48,1.25,17,1.4,25.45.4,23.07.7,46.16.75,69.24q.23,109,.14,218c0,11.3-1.35,22.6-2.15,33.89a19.44,19.44,0,0,1-1.08,3.83l-.9-.12V358.29l-.91-.08c-.08.8-.23,1.6-.24,2.4q-.33,23.86-.62,47.74c-.3,24-.49,48-1,72-.12,6.31-1.1,12.6-1.6,18.91-.06.65.41,1.93.64,1.93,1.46,0,1.86,4.23,4.07,1.05.2-.28.92-.33,1.37-.27a47.84,47.84,0,0,1,6.89,1.14c1,.27,1.65,1.51,2.46,2.31-.82.71-1.57,1.88-2.48,2-4.18.68-8.4,1.18-12.62,1.52a2.33,2.33,0,0,0-2.52,2.11c-.93,4.12-1.94,8.23-3,12.33a7.08,7.08,0,0,1-1.67,3c-3-5.15-2-11-3.21-16.3-.13-.08-.29-.25-.41-.23-11.54,2.25-23.26,1.46-34.86,1.59-55.08.61-110.16.78-165.24,1.09-1.89,0-3.48,0-5,1.89-.91,1.19-3.44,1.49-5.26,1.58-9.48.45-19,1-28.46,1q-73.74,0-147.49-.33c-8.73,0-17.47-.75-26.19-1.37-2.71-.19-5.36-1.16-8.05-1.71-2.41-.49-4.84-1.27-7.26-1.28-65.41-.24-130.83-.32-196.24-.63-21.41-.1-42.82-.75-64.23-1.23-5.49-.12-11-.46-16.47-.82-1.48-.1-2,.32-2.37,1.75A20.07,20.07,0,0,1,62.29,515l-.88-.12c-1-5.75-2.23-11.47-2.88-17.26-.93-8.26-1.39-16.58-2.11-24.88-.14-1.62-.54-3.22-.88-5.15l-1.73,1.23c-.13-.19-.36-.38-.38-.58-.26-3.65-.67-7.3-.7-11-.34-42.57-1-85.15-.84-127.72.2-77.58.85-155.15,1.3-232.73,0-5.58,0-11.16,0-16.74Zm713.13,255.2c-4.63-8.12-3.55-238.49,1.06-249.87,2.2,43.68,2.28,87.42,2.83,131.15a26.11,26.11,0,0,0,.28-4.49q.81-81,1.64-162c0-2.41.2-4.83.4-7.23.29-3.69.66-7.37,1-11.29h-2.63c-13.75.1-27.5.29-41.25.28q-141.74-.06-283.49-.28c-12.1,0-24.2.38-36.33-1a307.46,307.46,0,0,0-32.42-1.59c-27.07-.11-54.15.14-81.22.26-7,0-14,.12-21,.22-2.05,0-4.1.23-6.15.36a5.24,5.24,0,0,0,3,.85c7.75.21,15.49.5,23.24.55q49.11.33,98.23.55c2.08,0,4.17-.17,6.24-.08a7.25,7.25,0,0,1,2.24.88c-11.4,1-22.53,1.56-33.65,2.2-6,.35-11.95.76-17.92,1.18-8.7.62-17.41,1.8-26.11,1.8-12.23,0-24.45-1.25-36.69-1.29-32.15-.11-64.3.15-96.45.27-18.29.07-36.54.53-54.84,1.52A432.78,432.78,0,0,1,69.91,37.1a15.87,15.87,0,0,0-2.08.1v2.87q.21,79.49.37,159c0,16.42-.12,32.84-.65,49.24-.67,21-2.16,41.94-2.67,62.92-.59,24.16-.45,48.33-.72,72.49-.42,37.33-1.56,74.65.09,112,.1,2.21.53,3,3,2.89,9.23-.54,18.47-1.06,27.71-1.21q26.86-.44,53.74-.43c24.58,0,49.17.25,73.75.38,3.87,0,7.74,0,11.61,0v-.45l-29.91-1.57v-.73c1.21-.09,2.42-.2,3.64-.25q20-.9,39.94-1.79c6.08-.28,12.14-.7,18.22-.87.87,0,1.78,1,2.67,1.59-.77.69-1.44,1.78-2.33,2a33.76,33.76,0,0,1-5.7.69c-4.71.37-9.43.71-14.14,1.06a1.6,1.6,0,0,0,1,.36l26.74.26c.41,0,.82-.13,1.23-.17,4-.35,7.92-1.06,11.87-1,14.58.28,29.15.81,43.72,1.24,1.18,0,2.37,0,3.55,0l0-.67c-1.61-.27-3.24-.45-4.81-.85a7.31,7.31,0,0,1-1.92-1.26c.62-.46,1.18-1.21,1.86-1.32,3.19-.56,6.45-1.46,9.63-1.29,10,.52,19.9,1.47,29.84,2.26,7.89.62,15.76,1.62,23.65,1.78,8.31.17,16.64-.5,25-.73q30.36-.86,60.71-1.59a43.15,43.15,0,0,1,6.43.81l0,1.15c-11.54.93-23.12,1.33-34.68,2,5.64.17,11.27-.17,16.89-.36,15.4-.5,30.81-.74,46.19-1.49a173.57,173.57,0,0,0,21.53-2.62,96.07,96.07,0,0,1,17.58-1.86c19,.16,38,0,57,.18,26.24.23,52.48.66,78.72,1,5.2.06,6.52,1.94,4.17,6.56.61.06,1.16.14,1.72.15l48.48.72q13.74.21,27.47.51c1.38,0,2-.36,1.93-1.81-.09-3.25,0-6.5-.12-9.75-.47-12.23-1.39-24.46-1.45-36.7-.21-42.25-.15-84.5-.17-126.75,0-21.9,0-43.8,0-61.84-.15,4.55-.4,13-.68,21.37s-.47,16.83-.87,25.23S768.32,327.14,766.56,335.31Zm14.21-187.74h-.64a18.43,18.43,0,0,0-.4,2.07c-.35,4.82-.94,9.63-1,14.45-.13,21.05-1.5,42,.16,63.16,1.52,19.23.88,38.63,1.19,57.95,0,1.83,0,3.66,0,5.49h.66c.39-4.89,1.11-9.78,1.11-14.66q.07-59.37-.14-118.73A97,97,0,0,0,780.77,147.57Zm-724.2,56,.83.05c.22-2.2.63-4.41.65-6.61q.24-25.44.32-50.89c0-.75-.64-1.49-1-2.24-.36.72-1,1.44-1,2.16q-.12,26.33-.11,52.64C56.27,200.31,56.47,201.94,56.57,203.57Z"/>
    <path d="M76.42,518.5c2.1-.66,4.16-1.66,6.31-1.93a169.49,169.49,0,0,1,18.64-1.74q47.61-.5,95.21-.55,56.11,0,112.23.52c6.3.05,12.89.24,18.81,2.1,6.39,2,12.62,1.28,18.91,1.45,12.24.34,24.49.25,36.74.41,4.66.06,9.32.32,14,.5,1.7.06,3.71.11,3.65,2.39s-2,2.34-3.74,2.35c-23.58.16-47.17-.07-70.73.54-60.64,1.55-121.28,0-181.92,0-17.06,0-34.13-.84-51.18-1.65-5-.24-10-1.71-14.92-2.67a9.31,9.31,0,0,1-2-.9Z"/>
    <path d="M51.16,311.91c-.72,46-1.31,84.57-1.92,123.14q-.1,6.38-.37,12.74a39.18,39.18,0,0,1-.54,5c-.07.43-.69.77-1,1.16-.32-.43-.88-.83-.92-1.29-.26-2.56-.53-5.14-.55-7.71-.26-28.33-.62-56.66-.66-85q-.09-70.37.22-140.74c0-10.23.78-20.47,1.34-30.7,0-1,1-2,1.59-2.95.64,1,1.79,2,1.83,3.08.45,11.48.94,23,1,34.47C51.24,255.16,51.16,287.24,51.16,311.91Z"/>
    <path d="M797,273.23c-2.94-6-2.29-157.07.4-162.38a12.65,12.65,0,0,1,.74,2.76c.06,26.07.63,52.16-.1,78.21-.38,14,.73,28,.55,41.94-.16,12.32-.74,24.64-1.16,37A18,18,0,0,1,797,273.23Z"/>
    <path d="M54.2,483.26c2.47,3.31,2,24.1-.46,27.84a4.47,4.47,0,0,1-.46-1.46c.14-1.92-1.06-2.34-2.6-2.59-2.62-.43-5.25-.86-7.82-1.5a13.15,13.15,0,0,1-3-1.61,14.87,14.87,0,0,1,3.12-1.55c2.74-.65,5.53-1.16,8.32-1.57,1.55-.22,2.06-.92,2.1-2.44.1-4.07.34-8.14.54-12.2C53.94,485.33,54.07,484.49,54.2,483.26Z"/>
    <path d="M353.05,351l35.36,17.23L388,369.4a11.88,11.88,0,0,1-2.91-.45c-6.49-2.8-13.08-5.43-19.4-8.59-10.64-5.33-21-11.26-31.68-16.5-14.49-7.11-29.07-14.05-43.83-20.58-6.82-3-14.14-4.91-21.22-7.34-.89-.3-1.72-.75-2.59-1.14l.14-.73a9.21,9.21,0,0,1,2.35,0c3.61,1,7.2,2.09,10.78,3.2,7.49,2.33,15,4.7,22.62,7.1-.68-.37-1.25-.74-1.87-1-5.42-2.3-10.85-4.56-16.26-6.89-.9-.39-1.61-1.39-2.52-1.57-3.63-.74-6.58-2.94-9.89-4.35s-6.92-2.88-10.38-4.3a13.43,13.43,0,0,0-9.19-.83c-.36.11-.92-.43-1.36-.72-.72-.46-1.46-1.44-2.11-1.38-3.9.37-5.56-2.45-7.28-5-.82-1.23-1.61-2.14-2.88-1.19-.45.34-.34,1.92,0,2.7,1,2.25,2.35,4.38,3.55,6.56l-.36.68c-2.34-1.32-5.44-2.1-6.85-4.08-3-4.27-7.59-6.4-11.27-9.69-.31-.27-.8-.43-1-.76-4.47-7.89-10.58-15-11.47-24.58l2.4,3.26.43-.2a5.6,5.6,0,0,0-.08-1.09c-3.45-10.7-6.94-21.39-10.36-32.1-.52-1.63-1.21-2.77-3.35-2.32,0,.55-.11,1.22-.18,1.89-1.82-2-.87-5.58-4.24-7.72,1-11.6,1.81-24,5.08-36.14-1.13,10.48-2.32,21-3.33,31.45-.13,1.38.65,2.84,1.55,4.28a9.1,9.1,0,0,0,.29-2.94c-1.44-6,0-11.92.91-17.81.48-3,1.21-6,1.95-9a3.15,3.15,0,0,1,1.3-1.86c3.71-2,7.45-3.94,11.24-5.77a39.18,39.18,0,0,1,6.16-2.42c4.47-1.29,8.81-2.5,12.61-5.62,3.43-2.82,7.63-4.71,11.48-7a1.41,1.41,0,0,0,.64-.76c-11.11,4.72-22.11,9.71-34,12.24l-.35-.7a30.91,30.91,0,0,1,3.73-2.14c6.4-2.61,12.87-5,19.26-7.68,15.36-6.33,29.9-14.28,44.24-22.61a19.36,19.36,0,0,1,5.74-2.37l-2.8,2.56.2.47a20.2,20.2,0,0,0,2.5-1c4.38-2.42,8.84-4.71,13-7.42,1.36-.88,2.22-2.78,2.89-4.39,1.12-2.71,1.9-5.56,2.82-8.34l.71.23c-1.16,3.4-2.31,6.81-3.63,10.68l5.52-1.83.21.49-6,3.28.21.5c1.52.27,3.08.92,4.53.72,1.92-.28,3-1.67,3.28-3.82.86-6.5,1.91-13,2.87-19.48.21-1.4.36-2.85,2-1.73,1.35-2.34,2.66-4.79,4.14-7.14,2.88-4.57,5.79-9.14,8.87-13.59.68-1,1-3.82,3.44-1.64,17.6-.35,21.2.15,44.47,6.07,2.34.6,4.71,1.08,7,1.73,2,.56,3.75.66,5.07-1.31.24-.35.81-.47,1.89-1l-1.27,3.66c4.65,1,9.22,1.89,13.75,3,12.89,3,25.74,6.22,38.67,9.07,4.91,1.09,10,1.42,15,2.09l.14-.67-49.08-14.13c.1-.37.21-.74.31-1.11l60.83,16.72h-3.65l.08-.2,63.12,17.86c-4.74-4-11.28-3.53-16.46-6.46l0-.72a17.09,17.09,0,0,1,3.12,0c9.4,1.81,18.86,3.4,28.15,5.66,4.24,1,8.1,3.54,12.22,5.17,7.58,3,15.23,5.88,22.85,8.8.59.23,1.2.39,1.8.59.08-.2.17-.39.26-.59L565,149.07c0-.18.09-.36.14-.54a31.07,31.07,0,0,1,5.58,1.79c4.75,2.57,9.28,5.56,14.08,8.05a67.57,67.57,0,0,0,11.22,4.7c3.46,1.06,6.17,2.4,7.44,6.12,1,2.88,2.67,5.53,3.79,8.38a4.12,4.12,0,0,1-.11,3.31c-3.49,5-1.52,10.26-1.41,15.44l.62.23c.53-1.1,1.07-2.19,1.6-3.28l.25,0c-.5,3.16-1.53,6.35-1.35,9.48s1.56,6.07,2.42,9.1l.76-.1V175.71h1q.45,22.56.89,45.13h.7V197.07h.57c0,6.41-.16,12.83.06,19.23.14,4.28.93,8.52,1.25,12.8.17,2.21-.11,4.46-.09,6.68,0,.66.15,1.65.58,1.91,4.55,2.77,7.91,6.81,11.53,10.58.09.1.3.08.75.17-.37-4.63-4-6.86-6.6-9.84l3.15,1.61c-.3-1.14-.5-1.92-.7-2.7l-.22.26c2.89,3.46,5.85,6.88,8.67,10.41,5.83,7.31,8.69,15.1,6.47,24.87-2,8.88-2.75,18.11-3.43,27.23a78.5,78.5,0,0,1-6.33,25,36.5,36.5,0,0,0-2.34,7.56l3-3.95.65.4c-1.77,3.42-3.59,6.82-5.28,10.28s-3.15,7.33-5.08,10.79c-1.74,3.14-4,6-6,9l-.65-.37v-1.69c-.29.13-.56.16-.67.31-2.44,3.32-5.8,6-6.82,10.3a4,4,0,0,1-1.14,1.62c-7,7.1-13.92,14.33-21.13,21.23-6.42,6.15-13.28,11.83-19.75,17.93-1.69,1.59-2.61,4-3.91,6-1.09,1.68-1.39,1.7-3.14,0-3.39,3.38-6.78,6.77-10.21,10.13-.42.41-1.24,1-1.5.89-3.22-1.88-4,1.2-5.58,2.53a12,12,0,0,0-8.33-3.44c-7.76.16-13.11-3.82-18-9.18-2-2.19-3.83-4.75-7.44-4.86-1.31,0-2.58-1.42-4.16-1.75l16.55,15.66-.64.71c-1.58-1.4-3.07-2.91-4.75-4.17a21.19,21.19,0,0,0-5.45-3.35c-22.24-7.55-44.52-15-66.77-22.47a61.67,61.67,0,0,1-6.56-3l.27-.55L506.29,416c-1.09-1-2.74-2.06-3.72-3.54-2.66-4-6.67-4.94-11-5.82a157.32,157.32,0,0,1-37-12.82c-5.45-2.64-11.27-4.54-16.91-6.78-1.29-.52-2.56-1.09-3.84-1.63l.19-.58,8.06,2.5.22-.49c-2-1.14-4-2.36-6-3.39-3-1.5-6.08-2.87-9.13-4.28-5.75-2.66-11.51-5.28-17.25-8-2.38-1.11-5-1-7.43-1.6a133,133,0,0,1-17.5-5.83c-10.59-4.22-21.06-8.75-31.58-13.15ZM243.63,292.24a4.74,4.74,0,0,0,.79-.48c-.67-1.67-1.4-3.32-2.12-5l-.87.38q1.14,2.61,2.29,5.22c-.77-.91-1.33-1-1.55.37-.29,1.94.49,2.58,3.61,2.66Zm248.8,45-2.87,2.51.44.65a20.75,20.75,0,0,0,2.44-.86c1.54-.76,1.65-1.56-.08-2.25.19-1.23.38-2.47.68-4.4a24.51,24.51,0,0,0-4,2.25,2.35,2.35,0,0,0-.47,2.16c.19.43,1.33.6,2,.59A5.8,5.8,0,0,0,492.43,337.24ZM231,270.24c-.39.31-1.14.69-1.1.92.76,4,1.61,8,2.44,12,2-.13,2.2-1.09,1.79-2.42q-1.66-5.33-3.29-10.64c.26-.15.78-.36.76-.44-.77-3.08-1.15-6.35-3.81-8.59l1.83.33c-.23-1.79-.43-3.28-.62-4.76l.66-.06,2.7,9a8.14,8.14,0,0,0-.33-3.66c-1.46-4.86-3-9.68-4.37-14.57-.35-1.27-.46-3.07.2-4,.77-1.14,1.56-2.16.68-3.19-.53-.61-1.92-.53-2.93-.66-.33,0-.69.24-1.13.4-1.53-7-3.27-13.73-4.42-20.58-.62-3.69-.3-7.54-.24-11.32,0-.63.88-1.24,1.35-1.85.49.58,1.32,1.12,1.41,1.76.27,2,0,4.16.43,6.16,1.1,5.47,2.42,10.89,3.68,16.32a6.23,6.23,0,0,0,.71,1.38l.44-.13c-.29-2.45-.59-4.9-1-7.94,2.22,2.91,1.24-.64,2.13-.45.4,3,.79,6,1.19,8.93l.59,0c.36-2.53.72-5,1.09-7.58l.67.07V234l.78.19a11.78,11.78,0,0,0,1.07-2.85c.25-2.4.18-4.83.4-7.23.18-2,.57-4,.87-6l.83.07V229.6l1,0c.61-2.91.17-5.92.32-8.88s.2-6,.3-9h1.18v18.07l1.13,0V207.07a8.54,8.54,0,0,1-2.27-1.6c-2.16-2.93-4.23-5.94-6.23-9-1.26-1.91-.88-2.69,1.31-3.45,2.42-.85,5-1.42,7.21-2.7C249,185.28,257.53,180,266,174.79c1.83-1.14,3.45-2.63,5.16-3.95l-.33-.5-5.12,2.34q7.1-4.38,14.2-8.76c1.15-.71,2.33-1.39,3.44-2C277,173.56,266.85,181,255.17,186.6l6.66-1.36.2.84c-3.84,3-8.55,4.13-13.08,5.59s-9.16,2.72-14,4.15l3.79,6.17.53-.28a8.16,8.16,0,0,1-.75-1.69,4.75,4.75,0,0,1-.13-2.49,2,2,0,0,1,1.88-.66,4.89,4.89,0,0,1,1.93,2.24,18.17,18.17,0,0,1,.47,3.44,18.43,18.43,0,0,0,4.42,9.17c1.66-8,1.66-8,3.2-9-.31,1.53-.64,2.89-.83,4.26a3.06,3.06,0,0,0,.31,1.8c1,1.75,2.2,3.4,3.23,5.14.22.37,0,1,0,2.08l-2.27-3.56-1,.33a35.28,35.28,0,0,0,1.17,4.74c.63,1.6,1.74,3,2.44,4.59a6.61,6.61,0,0,0,4.75,4.31,9,9,0,0,1,3.68,2c1.88,1.7,3.77,2.92,6.44,2.13.34-.1.82.26,1.53.51l-2.79,1.64c1.78.8,3.27,1.51,4.78,2.14a10,10,0,0,0,2.32.68c1.23.18,2.58-.07,3.69.37,5.32,2.1,10.58,4.37,15.52,6.44l-3.12,1.73,0,.65c.81.15,2,.73,2.37.39,2.13-1.87,4.87-3.51,4.22-7.05-.32-1.78.61-2.5,2.11-3.1a51.6,51.6,0,0,0,6.74-3.14c4.83-2.76,9.52-5.77,14.35-8.53,2.66-1.53,5.36-3.44,8.26-4,3.81-.72,5.85-3.47,8.76-5.29-3.49-3.15-6.63-6.23-10-9-4.52-3.64-9.47-6.78-13.79-10.64a5,5,0,0,0-5.28-1.24,4.64,4.64,0,0,1-.92.07c2.51-1.39,1.71-3,.56-4.76a25.28,25.28,0,0,1-1.61-3.1c-3.35-7.24-6.73-14.48-10-21.77-.32-.7.22-1.78.36-2.69-.09-1.14-1-2.26-1.46-3.53-.65-1.68-1.55-2-3.08-1.22-4.41,2.12-8.91,4.07-13.24,6.33-6.49,3.38-12.88,7-19.3,10.49a11.22,11.22,0,0,0-1.54,1.23l.39.84,7.81-2.59c-2.68,1.65-5.3,3.41-8.05,4.93q-22.4,12.38-44.84,24.67c-.16.08-.19.39-.37.8a28,28,0,0,1,4.31.3c1.17.25,3.2.9,3.21,1.42.05,2-1.87,1.68-3.19,1.74-2.29.1-4.58,0-6.84,0L208.44,214c3.59,1,4.91,2.39,5.16,5.33l-3.75-2.75c-.73,5.34-.51,9.93,2.09,14.23a7.36,7.36,0,0,1,.4,2.64c-1-.45-2.28-.65-2.81-1.4a16.56,16.56,0,0,1-1.83-4.34c-.44-1.35-.69-2.77-1-4.16-.84,3.08-1.64,6.1.9,8.7a4.42,4.42,0,0,1,.73,1.58q7.35,19.35,14.68,38.72a13.93,13.93,0,0,1,.27,1.46c.71,2.73,1.33,5.49,2.18,8.17.63,2,2.28,2.89,4.74,3.5-.14-1.33-.2-2.34-.35-3.34-.56-3.66-1.1-7.33-1.74-11-.86-4.93-1.84-9.84-2.7-14.78-.26-1.52-.31-3.08-.45-4.63l.71-.06c.45,1.82.92,3.64,1.37,5.46.3,1.25.56,2.51.87,3.77Q229.45,265.67,231,270.24ZM478.14,392.55c-.49-.58-1.23-1.1-1.43-1.77-.77-2.61-1.35-5.28-2-7.92-.17-.69-.46-1.35-.69-2-.7.56-.9,1-.82,1.42.5,2.85,1,5.71,1.63,8.54.4,1.86,1.69,2.3,3.41,1.72l2.35,2.19a96.72,96.72,0,0,0,0-10.37c0-2.34-1.13-2.81-3.46-2.36.54,2.88,1.11,5.62,1.52,8.38A6,6,0,0,1,478.14,392.55ZM282.67,247.93c0-.56.07-1.55-.14-1.62a6.09,6.09,0,0,0-2.78-.41,16.32,16.32,0,0,0-3.19,1l-12.22,4.51c3.37,1.88,5.89.54,8.53-.42,3.25-1.18,6.58-2.13,9.87-3.18l-19.07,7.49-.05.66a10.31,10.31,0,0,0,3.22.08c7.08-2.17,14.12-4.45,21.17-6.73.88-.28,1.72-.72,2.87-1.22-4.37-2.63-8.27-5.14-12.34-7.35-1.43-.77-3.26-.8-4.91-1.17l-.24.88c4.57,2.13,9.69,3.28,14,7.44ZM507.3,265.54c-3.39.21-6.67.57-10.07-.78q-18.32-7.26-36.85-14c-5.5-2-11.22-3.42-16.85-5.11l-.22.62c3.61,1.64,7.16,3.44,10.85,4.88q23.5,9.16,47.1,18.14a4.15,4.15,0,0,0,6-3.75,10.23,10.23,0,0,0-2.53-2.08c-2.17-.84-4.46-1.37-6.71-2l-.33,1.16c1.55.54,3.08,1.14,4.66,1.62S505.64,265.1,507.3,265.54Zm4.47,120.78-3.68-2.69-.57.27c.82,2.49.09,5.35,2.28,7.51l18.67,18.41c.58.59,1.07,1.27,1.61,1.9l-1,.94L517.28,400.2a79.87,79.87,0,0,0,6.7,8.69c3.18,3.38,6.67,6.48,10.09,9.63,1,.92,2.25,1.53,3.61-.15-2.54.14-3.53-1.43-3.93-3.37-.83-4-1.45-8-2.29-12a13.55,13.55,0,0,0-1.48-3l-.77.16c.53-2.73,1-5.46,1.61-8.36l-2.57.4c.18-1.16.32-2,.45-2.93.59-4,1.65-8.05,1.65-12.08,0-7-.47-13.9.28-20.9.91-8.47-1-16.73-3.17-24.89a5.54,5.54,0,0,0-2.07-2.93c-2.67-1.83-5.51-3.44-8.34-5a2.86,2.86,0,0,0-2.3-.33,53.85,53.85,0,0,0-4.78,3.57c6.82,1.41,8.91,6.43,10,12.12.67,3.61.51,7.17-2.41,9.62a69.64,69.64,0,0,0,.74-8.1,14,14,0,0,0-4.71-10.15c-2.64-2.47-6.19-1.49-6.9,2a21.6,21.6,0,0,0-.08,6.67,58.48,58.48,0,0,0,1.48,6.59l-.57.25c-1-1.64-1.91-3.29-2.82-4.84-2.05.35-3.1,1-2.75,3.18,1.17,7.49,2.43,15,3.11,22.51a23.22,23.22,0,0,0,7.48,15.75c3.31,3.08,6.27,6.56,9.38,9.86l-.48.47-14.49-14.19-.58.32c.95,1.64,1.84,3.33,2.9,4.89a23.33,23.33,0,0,0,2.47,2.71Zm-.49-79.52c1.45,1.3.35,5,4.39,3.91-2.83,2.23-2.16,3.12,5.48,8.6A12.87,12.87,0,0,1,517,318c-1.88-1.06-3.57-2.45-5.45-3.52-.57-.32-1.5-.05-2.26-.05l-.06.76c5.59,3.1,11.14,6.28,16.79,9.27a7.79,7.79,0,0,1,4.18,6.41,50.18,50.18,0,0,0,1.82,7.42c2.86-3.44,4.64-7.22,8.6-9.11a99.1,99.1,0,0,1-6.31,11.33c-1.54,2.28-1,4.26-.32,6.86l2.89-4.22a14.84,14.84,0,0,1-1.42,6.34c-1.88,3.4,0,6.34.18,9.48l.64.1,5.4-13,.46.21q-2.7,7.43-5.41,14.87l.51.22c.71-1.29,1.41-2.58,2.46-4.48-.67,3.83-3,6.52-2.48,9.95a6.2,6.2,0,0,0,1.5-2.17L546,349.37c2.63-5.48,5.36-10.91,7.88-16.44,2.17-4.77,4-9.72,6.22-14.45,1-2,2.73-3.71,4.53-6.08L541,365.17l.92.43c10.58-15.17,17.41-32.25,24.41-49.26a1.12,1.12,0,0,1,.24,1.06c-5.63,16.08-12.13,31.75-21.7,46-1.39,2.05-2.55,3.95-.69,6.4,5.42-9.74,10.9-19.39,16.18-29.14s8.87-20.55,15.18-29.84l.81.4-27.17,54a33.48,33.48,0,0,0,7.43-5c2.07-2,3.61-4.56,5.69-7.26.23,1.06.44,2.08.82,3.81,1.52-1.82,3.06-3.19,4-4.89,5.59-9.62,11-19.31,16.56-29L573.45,349l1,.54c1.23-1.78,2.86-3.41,3.62-5.37,3.4-8.76,6.55-17.61,9.8-26.43.55-1.48,1.14-2.95,1.71-4.43l.75.27-7.14,23.09.77.32c1.27-2.91,2.76-5.75,3.77-8.75,1.14-3.39,1.79-6.93,2.79-10.36.19-.62,1-1.05,1.55-1.57l.53.34c.61-2.7,1.21-5.4,1.93-8.59a19.54,19.54,0,0,0-8.5,9.4l1-3.84-5.79,3-.61-.83c5.05-5.22,10.77-9.89,13.36-17.09l.84.55-1.66,4.05c6.08-4.85,13.28-8.79,12.5-18.35l.73.39-.54,6.45,1,.64a16.93,16.93,0,0,0,1.77-2.7c.91-2.17,1.63-4.41,2.67-7.28-.1,1.91-.17,3.15-.23,4.39l.56.12,3-12,1,.22c-.38,2.81-.75,5.62-1.21,9.06,3-3.11,1.68-7,3.67-9.82-.22,2-.43,4.09-.7,6.6,3.85-2.46,3.37-6.78,5.92-9.49-.24,1.3-.49,2.6-.73,3.91l.67.26a19.08,19.08,0,0,0,1.22-2.89c2-7.92-3.66-11.86-8.95-16.21l1.62-.1c.06-.18.11-.36.17-.54l-18.87-9.6.52-1c6.93,3.29,14.43,5.4,20.66,10.5a2.44,2.44,0,0,0-1-1.88c-3-1.69-6-3.26-9-4.92a20.36,20.36,0,0,1-2.15-1.57l.46-1,14.73,4.57c-1.17-1.83-2-3.22-2.94-4.6a14.6,14.6,0,0,0-1.14-1.57c-1.15-1.33-2.11-3-3.55-3.86a34.34,34.34,0,0,0-6.69-2.71c-2.18-.75-5-.71-6.51-2.11-2.12-1.93-3.64-1.19-5.23-.07-7.3,5.09-14.85,9.88-21.65,15.57-8,6.72-15.39,14.26-23,21.44-.62.58-1.31,1.08-2,1.61l-.42-.49L570,255.07a1,1,0,0,0-1.2.14c-10,8.53-19.91,17.18-30,25.57-6.24,5.17-12,11-19.26,14.89a23.79,23.79,0,0,0-5.11,4,40.32,40.32,0,0,0-3.45,4.32l.5.44c9.17-6.52,16.88-15.15,27.05-19.57-8.05,6.27-16.4,12.73-24.7,19.27a19.67,19.67,0,0,0-2.43,2.77c-.69.42-2,1-2,1.23a24.89,24.89,0,0,0,1.61,3.68l.64-.28Zm2.88-155a29.7,29.7,0,0,0-2.94-1.8c-20.23-9.24-41.07-15.64-63.73-13.65a5.1,5.1,0,0,0-4.05,2.37c-3.14,4.32-6.44,8.54-9.68,12.8-.06-4.74,2.47-8.44,4.52-12.45a15.77,15.77,0,0,1-1.81-1.07c-3.57-2.83-7.51-5.33-10.53-8.66a11,11,0,0,0-5.84-3.6c-3.71-.91-7.47-1.62-11.19-2.49a72.68,72.68,0,0,0-23.56-1.81,21,21,0,0,0-3.43.59c-1.19.33-2.34.84-3.51,1.27l-.25-.54-1.72,2.9c-.66-1.73-1.53-2.93-1.45-4a2,2,0,0,0-1.59-2.35c-4.81-1.87-9.6-3.79-14.44-5.56-12.19-4.44-23.89-3.18-35.18,3a6.45,6.45,0,0,0-3.55,4.76c-1.85,9.7-2.17,19.52-2.1,29.35a8.71,8.71,0,0,0,1.37,3.93c2.54,4.48,5.21,8.89,7.81,13.33a8,8,0,0,1,.5,1.47c-6.74-5.78-9.86-13.89-14.23-22-1.21,5.79,3.13,8.45,5.33,12.51-3.59-.59-4.5-3.5-6.29-5.25-2.06,5.74-4.12,11.32-6.05,16.94a8.66,8.66,0,0,0,.73,7.87,79.75,79.75,0,0,1,4.37,8.66,5.76,5.76,0,0,0,4.16,3.37c-.3-1-.5-1.63-.71-2.29,1.47,2.32,2.52,4.9,5.8,6.46l-4.46-8.74.74-.41c1.41,2.55,2.64,5.23,4.29,7.62a33.09,33.09,0,0,0,5.08,5.63,54.91,54.91,0,0,0,5,3.33,9.27,9.27,0,0,1,1.51,1.72c-5-8.56-11.61-16-14.3-25.71a2.68,2.68,0,0,1,.65,1c3.66,8.35,8.95,15.62,14.47,22.81,2.18,2.86,5.2,3.54,8.15,4.38a7.71,7.71,0,0,1,2.55.9c2.55,1.75,4.81.73,5-2.29a20.35,20.35,0,0,0,0-4c-.73-6-1.65-11.93,1.72-17.49a12.23,12.23,0,0,0,.63-1.63c.7-1.63,2.21-3.44,1.89-4.84s-2.56-2.38-3.7-3.75a53.69,53.69,0,0,1-9.7-17.07,45.64,45.64,0,0,1-1.1-5.12c2.85,4.68,5.09,9.54,7.73,14.18s5.74,9.15,10.68,11.5c-.89-3.13-1.84-6.18-2.61-9.28a5.6,5.6,0,0,1,.2-2.65c.36-1.42,1.06-2.76,1.33-4.2q1.59-8.58,3-17.2c1.1-6.7,6-11.06,9.88-16.08a6.71,6.71,0,0,1-.71,2.7c-2,4.3-4.41,8.45-5.92,12.91-2.06,6.12-3.51,12.46-5,18.75-.19.79.79,1.93,1.36,2.82a5.29,5.29,0,0,0,1.28,1l2.86,2.31.58-.61-1.83-5.94a2.3,2.3,0,0,1,1.54,1.36q2.76,7.35,5.44,14.72a4.59,4.59,0,0,1-.07,1.64c-.69,0-1.39-.06-2.07-.15-2.61-.33-5.21-.69-7.81-1-.07,0-.14.09-.22.12-5.61,2.19-10.14,11.85-7.76,17.61a172.82,172.82,0,0,0,7.87,15.84c.59,1.1,2.09,1.7,3.17,2.53l.22-.45q-4.68-8.72-9.37-17.41l.74-.39c.37.73.72,1.46,1.13,2.17,2.87,5,5.71,10,8.63,14.89,1.65,2.78,4.6,3,7.45,3.45-2-2.41-4.46-4.32-6.31-6.71a39.7,39.7,0,0,1-4.55-8c-1.2-2.63-1.94-5.47-2.88-8.22l.63-.18c7.54,14.18,15.23,24.48,18.16,24.61l-11.41-17.49.69-.44c.6.87,1.22,1.75,1.82,2.63,3.09,4.64,6.26,9.24,9.26,13.94,1.87,2.93,4.54,3.79,7.68,3.79l-4.7-11.33.87-.39,1.38,2.78c1.48,3,2.86,6,4.48,8.92.5.89,1.63,1.43,2.48,2.13l.44-.52-3.91-10.49.61-.23c1.34,3.2,2.54,6.48,4.1,9.57a6.08,6.08,0,0,0,3.1,2.82c7.75,2.57,15.57,4.92,23.37,7.32a6.32,6.32,0,0,0,1.31.1,48.38,48.38,0,0,1-.87-5.31,33.18,33.18,0,0,1,3-15.29c2.23-5,4.28-10,6.49-14.94,1.71-3.81,1.06-8.65,1.6-13,.72-5.68,1.58-11.34,2.37-17l.92.11c0,4.54-.12,9.08,0,13.61.08,1.83.83,3.63,1.19,5.46a9.83,9.83,0,0,1,.18,2.86c-.36,3-1.69,6,.12,9.11-2.83.39-5.25.88-6.32,3.88-3.47,9.76-3.42,19.77-2.24,29.85.46,3.88,2.49,5.39,6.34,5.36A8.3,8.3,0,0,1,433,237c6,1.82,12.06,3.7,18.09,5.54a7.44,7.44,0,0,0,1.57.11l-6-12.05.59-.28c2,3.8,4.1,7.59,6.12,11.41.73,1.38,1.64,2.34,3.52,2l-3.05-6.07.6-.3c1,1.87,2,3.82,3.17,5.58a6.1,6.1,0,0,0,2.71,2.31c5.6,1.87,11.26,3.55,16.91,5.29,4.26,1.31,8.54,2.59,12.9,3.92a6.91,6.91,0,0,0,.26-1.25,50,50,0,0,1,5.34-26.38c.32-.63-.13-1.69-.27-2.54-.38-2.35-.88-4.69-1.14-7.05-.1-.93.51-1.91.5-2.86-.09-6.57-.45-13.15-.33-19.71.06-3.06,1-6.11,1.5-9.16.61.35.68.64.7.93q.5,12.57,1,25.14c0,.67,0,1.34.12,2,.2,1.86,1.06,2.69,3,1.81l-2.29-10.23,1.1-.35c1.5,4.25,2.49,8.78,4.63,12.67s5.46,7.21,8.48,11.06c-3.67-.91-5.84-3.45-8.22-5.82.23,1.25.89,2.23,1.14,3.3a6.87,6.87,0,0,1-.35,2.44,9.08,9.08,0,0,1-2.6-.72c-.63-.4-1-1.26-1.64-2.18-3.74,2.84-3.67,7.2-5.44,10.86l2.08.6c0,5.51.14,10.74-.05,16-.1,2.7.37,4.41,3.4,5.07a101.7,101.7,0,0,1,9.73,3.14l-2.25-4.65a15.4,15.4,0,0,1,2.41,3.48,2,2,0,0,0,1.5.94c2.73-.41,4.7-3.94,3.84-6.61-.69-2.15-1.32-4.32-2-6.49a9.2,9.2,0,0,1,1.91,3.29c.51,1.31.66,3,1.61,3.85,1.84,1.54,4.13,2.55,6.41,3.89.33-.4.72-.84,1.07-1.3,1.56-2,2.73-4.62,4.74-6,9-6.19,18.14-12,27.28-18,.33-.22,1,.13,1.54.21a6.16,6.16,0,0,1-.38,1.52c-.64,1.22-1.68,2.31-2,3.59-1.4,5.05-2.39,10.22-3.93,15.22s-3.55,9.78-5.35,14.67a7.59,7.59,0,0,0,3.28-3.31c1.79-4.71,3.27-9.55,4.89-14.34.33-1,.72-1.94,1.08-2.9l.47.18c-.81,2.92-1.63,5.84-2.63,9.37,6-6.63,4.6-14.37,4.79-21.72l1-.1,5,11.73c6.57-2.44,12.72-5.1,17.8-9.66-.12-.21-.23-.42-.35-.62l-16.77,9.11-.33-.6c3.59-2.18,7.14-4.43,10.79-6.52,2.18-1.25,2.46-2.92,1.66-5l-1.35-3.6.42-.31,2.91,1.72a60.85,60.85,0,0,0,5-6.31c4.27-7,8.27-14.25,12.49-21.32,2-3.36,3.26-6.72,1.76-10.62-.16-.43.06-1,0-1.49-.38-4-.79-8.07-1.22-12.44-1.45,6.17-2.6,12-4.21,17.63a48.77,48.77,0,0,1-8.19,16c-.15-.48-.27-.66-.23-.76.6-1.28,1.15-2.6,1.85-3.82,4.75-8.2,7.2-17.15,8.72-26.42.42-2.53.56-5-1.92-6.91a34.62,34.62,0,0,0-13.14,17.85c-3.29,9.92-3.07,20-1.27,30.65,9.1-8.23,13.26-18.89,18.68-28.73-4,11.62-8.49,22.88-18.94,30.65-1-2.11-2-3.62-2.32-5.28a25,25,0,0,1-.08-5.2c0-.16-.07-.32-.09-.49A46.44,46.44,0,0,1,578,193.65c1.75-5.56,2.39-11.7,7.52-15.85-.79-.64-1.24-1.11-1.78-1.45a156.72,156.72,0,0,0-30.57-15.27c-8.14-3-16.43-5.48-25.18-5.93-2.53-.13-5.12.29-7.6-.08-4.44-.66-4.6-.74-7.21,4l4,3-.41.42-4.47-2.84-9.2,8.41,6.7-10.89c-6.7-3.32-13-6.8-19.64-9.67-9.66-4.18-19.86-6.71-30.17-8.78a27,27,0,0,1-3-1l.16-.61a7.81,7.81,0,0,1,1.59-.1c18.65,2.58,36.13,8.34,51.9,19.23Zm-89.64,95.32v.32a6.45,6.45,0,0,1-1.59-.09c-3.11-.91-6.3-1.65-9.3-2.86-22.18-8.9-44.3-17.93-66.48-26.82-3.46-1.38-7.08-3.13-10.1,1.4-1,1.48-3.38,2.1-5.2,3-.82.39-2,.14-2.73.6-8.05,4.87-16.17,9.65-24,14.86-3.79,2.52-7,5.91-10.73,9.11l2.12,1L268,257.66c2.58,2.08,4.91,2.42,7.86.78,4.13-2.31,8.57-4.06,12.89-6a7.31,7.31,0,0,1,1.36-.33l0,.28-15.93,7.83.26,1a17.33,17.33,0,0,0,3.63-.33c5.12-1.58,10.2-3.29,15.3-5l.25.71-15.83,5.91c1.82.69,3.16.88,4.06,1.61,2.25,1.81,3.88,1.05,5.61-.73a122.23,122.23,0,0,1,17.92-14.64c10.49-7.27,21.28-14,33-19.11A16,16,0,0,1,340,229a11,11,0,0,1,1.39-.26c-19.68,10.51-38.64,21.91-55,37.57,1.35.53,2.79,1.1,3.93.73,4.66-1.51,9.22-3.34,13.84-5a13.43,13.43,0,0,1,2.93-.36l.23.92-15.57,6c.8.42,1.15.64,1.52.79,15,6.14,30,12.39,45.11,18.4,21.74,8.65,44,16,64.92,26.66,1.85.95,3.73,1.84,5.59,2.75l-.27.6-15.25-5.31a3,3,0,0,0,1.67,1.61c6.46,2.69,12.83,5.63,19.41,8,17.72,6.35,35.52,12.49,53.3,18.64,4.22,1.46,8.53,2.68,12.81,3.95a2.42,2.42,0,0,0,1.64-.23c1.54-.81,3-1.73,4.51-2.63.08-.05,0-.28.05-.53H486c-.36-1.15-.44-2.3-1-3-.35-.41-1.56-.22-2.34-.08-1.24.23-2.45.63-3.67,1l-.22-.59,5-2.7c-4.14-8.54-8.14-16.82-12.14-25.09,5.59,7.18,8.74,15.75,13.28,23.55a2.47,2.47,0,0,0-.27-1.37c-2.58-5.69-5.31-11.31-7.68-17.09a15.48,15.48,0,0,0-4.41-6.11c-3.56-3.06-6.88-6.39-6.94-11.64,0-.6-.68-1.2-1.28-2.18,10.37-7.67,23.4-11,33.26-19.52a26.62,26.62,0,0,1-3.67-.79c-5.37-2-10.76-4-16-6.27-9.58-4.09-19.08-8.33-28.6-12.55a12.14,12.14,0,0,1-2.05-1.51l.44-.65c.65.26,1.32.5,2,.77,14.75,6.16,29.49,12.36,44.26,18.47,3.65,1.51,5.2.81,7.51-3-.62-.24-1.2-.49-1.79-.69-9.22-3.16-18.54-6-27.62-9.55-10.94-4.23-21.63-9.13-32.51-13.53-12.42-5-24.94-9.83-37.42-14.73-.52-.2-1.08-.33-1.62-.49l-.17.52,44.11,20.72-.27.73a19.37,19.37,0,0,1-3-.85c-11.8-5.43-23.58-10.92-35.37-16.36-4.84-2.23-9.79-4.25-14.55-6.64-2.2-1.1-3.9-3.29-6.15-4.22-7.59-3.13-15.32-5.92-23-8.83a4.6,4.6,0,0,0-1.18-.09c0,.52-.05.91-.09,1.67a11.41,11.41,0,0,0-2.26-1.77c-2.12-.82-4.42-2.21-6.45-1.94a5.8,5.8,0,0,1-4.19-.8c-1.41-.79-3.24-.83-4.89-1.2l-.38,1.31ZM293.63,292.72l.56-.44c3.94,4.75,9.61,6.18,15,8.19,20.5,7.71,41.15,15,61.48,23.19,27.14,10.86,54,22.33,81,33.53a14.12,14.12,0,0,0,1.83.5l.11-.47L448,354l.53-1.05c5.21,2.35,10.35,4.89,15.66,7s11,3.87,16.61,5.82c-1.25-4.34-2.43-8.45-3.62-12.57a1.5,1.5,0,0,1,1.1,1.07c1.32,3.77,2.57,7.57,4,11.31a13.12,13.12,0,0,0,1.92,2.73l.64-.39-3.75-17.15.77-.17c.17.52.36,1,.49,1.56,1.25,5.18,2.45,10.37,3.78,15.54a11,11,0,0,0,1.51,2.62l.72-.35a66.49,66.49,0,0,0-3.42-18.52,1.57,1.57,0,0,0-.6-.77,103.87,103.87,0,0,0-9.09-5.57c-1.79-.88-4.08-.67-6-1.32-10.76-3.55-21.46-7.27-32.21-10.83-18.68-6.2-37-13.19-54.59-22.15-3.18-1.63-6.13-3.78-9.44-5.06-20.49-8-41.05-15.75-61.58-23.64-2.32-.89-5-1.32-6-4.25-.15-.46-.82-.83-1.33-1.09-4.28-2.22-8.44-4.75-12.91-6.52-10-4-20.22-7.57-30.36-11.27a16.08,16.08,0,0,0-3.25-.36c4.26,6.14,8.07,11.61,11.87,17.08l-.69.47c-2.68-3.26-5.58-6.37-8-9.82-3.75-5.37-6.53-11.58-13.4-13.93a3.63,3.63,0,0,1-1.07-.63c-1.95-1.57-3.83-2.86-5.53.34-.23.43-1,.5-1.48.86s-1,.91-.94,1.24c.72,3,1.1,6.2,2.5,8.85,1.89,3.56,4.55,6.73,7,10a11.16,11.16,0,0,0,2.7,1.9l.39-.54-3.58-7.16.34-.12q4.92,5.81,9.85,11.62l.61-.5c-1.42-2.45-2.83-4.91-4.25-7.37l.63-.47a21.36,21.36,0,0,1,2.15,2.43c1.28,1.95,2.35,4,3.69,5.94a7.71,7.71,0,0,0,2.68,2.47c4.09,2,8.25,3.91,12.41,5.79,1.75.78,3.56,1.42,5.7,2.26l-4.39-7.56.75-.46c1.18,1.84,2.46,3.63,3.53,5.54s1.75,4.15,5,4.11l-6-8.11.64-.53c1.59,1.92,3.72,3.6,4.65,5.8,1.7,4,4.8,5.41,8.67,6.26Zm147.64,67.87c-.14-2.32-.59-3.83-2.82-4.72-17.64-7-35.19-14.27-52.85-21.25-18.9-7.48-37.82-14.91-56.84-22.07-24.48-9.21-49.05-18.13-71.83-31.24-2.83-1.63-5.51-3.93-9.14-3.45a15.63,15.63,0,0,0-2.8.94,13.64,13.64,0,0,0,1.15,3.12c1,1.5,2.45,2.71,3.42,4.23,2.87,4.49,5.6,9.07,8.35,13.64,1.1,1.83,2.46,3.18,4.85,3.36l-10.09-15.61.85-.6a25.62,25.62,0,0,1,1.89,2.16q4.95,7.06,9.82,14.17a5.57,5.57,0,0,0,4.95,2.73l-8.42-11.43c4.68,2.05,6.47,6.64,9.79,10.66-.22-1.18-.33-1.76-.53-2.86,2.78,2.53,3.39,6.94,7.9,6.58-.08-.72-.15-1.36-.22-2,2.05,3.78,5.6,4.83,9.46,5.48l-9.61-8.14.42-.51c.92.68,1.83,1.36,2.75,2,5,3.65,9.75,8,15.23,10.8,11.25,5.77,22.93,10.74,34.43,16,3.07,1.41,6.14,2.8,9.22,4.2l.26-.48-29.07-18.28a1.54,1.54,0,0,1,1.54.17c6.61,4,13.24,8.06,19.82,12.14,10.84,6.72,21.73,13.32,34,17.2,8,2.53,16,5.15,24,7.8,1.62.54,3.13,1.43,5.3,2.43l-3.07,1.62,22.23,6.78-.17.57L410,365.58l-.14.49,8.41,3.36c-.61-3.1-1.12-5.7-1.78-9,2.1,1.89,1.14,6.19,5.12,4.68-.26-2.85-.52-5.63-.77-8.41l1.12-.15c.41,2.14.84,4.27,1.21,6.42.61,3.49,1.2,4,5.3,3.88-2.23-3.42-.46-8.24-4.79-10.71l.37-.55Zm29.14-60.11.42-.58a21.09,21.09,0,0,0,2.27,1.44c2.91,1.39,5.84,2.75,8.8,4,1.44.62,2.1.08,2.2-1.56a25,25,0,0,1,.89-4l.3.2.83,7.5c4.46,2.49,8.43.11,12.59-.52a25,25,0,0,1-7.64,3.44c-2.64.57-5.44.37-8.32.51a7.93,7.93,0,0,0,10.31,1,185.1,185.1,0,0,0,16.32-11.24c9.78-7.75,19.3-15.85,28.88-23.85,1.16-1,3.08-1.51,2.64-3.79-.08-.37,1-1.35,1.57-1.39,2-.14,2.54-1.62,3.24-3,4.48-9,7.29-18.58,9.63-28.31a6.12,6.12,0,0,0,0-1.54c-5.15,3.28-10.23,6.3-15.06,9.67a102,102,0,0,0-8.31,7,51.44,51.44,0,0,0-4.11,3.83c-1.2,1.3-2.19,2.8-3.27,4.21-.34.45-.62,1.16-1.06,1.29-3.76,1.13-5.41,3.93-6.37,7.47a4.63,4.63,0,0,1-1.81,2.18c-5.68,4.08-11.46,8-17.09,12.17-1.38,1-3.54,3-3.26,3.85.78,2.38,2.62,4.43,4.13,6.55.3.42,1.06.49,1.52.83,1.51,1.13,3,2.3,4.48,3.45l-.41.7c-1.28-.16-2.72,0-3.84-.54-3.69-1.72-6.84-4.05-8.16-8.24a12.45,12.45,0,0,0-1.84-2.81c1.38-3.27,5.74-7.4,9.33-9.66,6.43-4,13.08-7.92,17.25-14.66.61-1,1.36-1.89,2.1-2.92L518.16,260a39.67,39.67,0,0,0-2.31,3.81c-2,4.52-6.88,6-10.08,9.25a59.05,59.05,0,0,1-11.35,9.22c-7.74,4.69-15.82,8.81-23.8,13.1a25.48,25.48,0,0,1-3.92,1.35c4,8.83,12.72,14.47,20.12,12.8l-4.08-1.07.13-1.44C477.85,306.14,474.09,303.38,470.41,300.48Zm68.17,118.06.88-.07a10.5,10.5,0,0,0,.47-1.33c1.32-6.26,2.66-12.52,3.9-18.79.61-3.09.76-6.29,1.6-9.31a76.58,76.58,0,0,1,3.85-10.31c2-4.51,4.26-8.9,6.41-13.33a12.61,12.61,0,0,0-4,1.73c-.79.45-1.67,1.19-2.44,1.12-2.57-.21-2.5,1.62-2.76,3.2-.13.81,0,1.65-.06,2.48-.65,10.81-4,21-7.2,31.24-1.11,3.48-2.82,6.79-1.16,10.57A11.08,11.08,0,0,1,538.58,418.54Zm-.83-264.13A132.91,132.91,0,0,1,587,176.11l5.14-3.71c-2.66-4-6.66-5.84-10.83-7.4,2.82,2.52,6.67,3.77,8.65,7.41A132.23,132.23,0,0,0,537.75,154.41Zm29.51,211.25c-4.07,4.2-16.37,32.61-16.12,37.34,6.44-9.07,8.81-19.78,13.51-29.48l-2.28,7.12.61.2,6.44-13.47Zm13.13-9.36-.91-.57a33.82,33.82,0,0,0-3.62,4.81c-.78,1.52-.71,3.46-1.38,5.07-3.52,8.45-7.17,16.84-10.73,25.26-2.59,6.1-5.12,12.22-7.67,18.33l.78.47a43,43,0,0,0,3.14-5.22c5.22-12.33,10.31-24.72,15.48-37.07C577.05,363.66,578.75,360,580.39,356.3Zm-98.14-39.82L488.54,332l-.55.26c-.56-1.15-1.19-2.28-1.69-3.46-1.6-3.83-3.12-7.69-4.74-11.51-.84-2-2.38-3.17-4.92-3.92,3.68,7.22,7.12,14,10.56,20.71,1.48-.52,2.72-.92,3.92-1.41,1.43-.57,1.54-1.57.37-2.42-2.52-1.83-3.29-4.41-3.58-7.32A6.78,6.78,0,0,0,482.25,316.48Zm50.39,103.44.28-.61a194.37,194.37,0,0,1-24-27.09c-.62,4.6-.38,6,2.66,9.11q7.42,7.55,15.17,14.76C528.47,417.65,530.67,418.66,532.64,419.92Zm88.6-125.23-1-.63c-2.4,3.11-5.34,6-7.1,9.4-3.19,6.28-5.68,12.92-8.45,19.41a5.38,5.38,0,0,0-.24,1.22C612.52,315.61,615.37,304.32,621.24,294.69ZM427,357.87c1,2.59,1.77,4.4,2.43,6.25,1.48,4.15,4,5.78,8.74,5.39-.51-2.51-1-5-1.54-7.5a1.67,1.67,0,0,0-.91-1.05C433.05,360,430.4,359.07,427,357.87ZM588.7,225.35c5.88-3.4,14.88-13.63,11.16-20.73Zm1.41,109.84c4.81-9.95,6.23-20.88,9.24-31.47-1.59,1.35-3.28,2.81-3.71,4.58-1.24,5.05-1.9,10.24-2.92,15.35C592,327.52,591,331.35,590.11,335.19Zm-88.45-4.61,11.28-9.09c-3.59-3.18-4.35-3.2-7.37-.3-.9.86-1.69,1.82-2.57,2.7C501.24,325.66,501.05,327.75,501.66,330.58Zm-12.28,53.34a8.59,8.59,0,0,0,.23,1.61c1.33,3.66,2.7,7.3,4,11a9,9,0,0,1,.25,1.82c-.66-.07-1.33-.13-2-.24a3.19,3.19,0,0,1-.77-.31c.89,2.21,2.77,2.32,4.62,2.6-.6-4.28-1.25-8.36-1.73-12.45C493.56,384.07,493.63,384.06,489.38,383.92Zm-26.76,2.52c.58-6.61-1.45-9.3-6.69-8.89C455.7,384.05,457,385.74,462.62,386.44Zm-10.11-13.21c-1.1-7.64-2-8.72-7.75-9,.46,1.57.92,3,1.33,4.53C447.18,372.78,447.8,373.22,452.51,373.23Zm8.35,2c-.68-6.89-2.13-8.51-7.4-8.4C454.33,374.2,455.07,375.05,460.86,375.26Zm-16.54-3.82c.1-.32.21-.49.18-.62-.41-1.6-.85-3.19-1.27-4.79-.89-3.32-2-4.13-5.8-4a26.64,26.64,0,0,1,1.59,5.17C439.35,370.51,441.34,371.39,444.32,371.44ZM398.73,228.75l-.36.68,28.19,11.78.45-.82a24.32,24.32,0,0,0-3.33-2.25c-1.64-.78-3.42-1.29-5.14-1.93ZM236.31,239.12c5.71,1.52,11.42,3.06,17.17,4.43,1.05.26,2.29-.24,3.45-.39l0-.85m191,133.07c-.21,5.46,1.74,7.6,6.63,7.51C453.44,375.54,454.26,376.41,447.86,375.38Zm39.67-23.17c2,5.67,3.89,11.28,5.82,16.89L494,369c-.18-1.68-.25-3.37-.58-5-.58-2.85-1.51-5.64-1.93-8.52C491.13,353,489.93,352,487.53,352.21Zm22.75,50.58-.47.2a11.93,11.93,0,0,0,1.21,2.23c2,2.35,4.1,4.55,6,6.95,2.38,3.06,2.63,3.26,6.64,2.57Zm32.05,16.8.72.19q3.88-10.56,7.76-21.11l-.63-.29c-1.84,3.34-4.1,6.53-5.42,10.08S543.1,415.87,542.33,419.59Zm52.45-49.26,1.1.49q5.48-14.29,11-28.61l-1-.39ZM494.53,331.79l1.13-.14q.81-7.87,1.63-15.76a11.13,11.13,0,0,0-3.93,3.8c-.4.75.51,2.13.63,3.25s-.1,2.14,0,3.2C494.1,328,494.34,329.91,494.53,331.79ZM357,348.87l-.24.73,32.27,14,.48-1.12ZM247.3,286.64c-.4,6.12,3.69,12.11,8.8,13.16Zm-39-85.73c.71.35,1.34.86,1.54.73,5.62-3.75,11.2-7.55,16.79-11.35C220.37,193.38,213.19,194.79,208.26,200.91ZM494.89,345.57c-3.48,1.32-3.65,2-1.37,4.24a2.21,2.21,0,0,1,.69,1c.5,2.58.94,5.17,1.41,7.84l-2.14.17c.66,2.47,1.28,4.77,1.89,7.07A59.32,59.32,0,0,0,494.89,345.57Zm65.75-96.8-2.31,6.74,1.28.51c-2,3.27-6.35,4-6.91,8.29l11.18-9.78C560.11,253.79,562.23,250.55,560.64,248.77ZM500.18,400.06c-1.06-4.95-2-9.52-4.29-13.69a5.42,5.42,0,0,0-.19,2.74c.4,3.14.78,6.27,1.25,9.4a18.72,18.72,0,0,0,.81,2.68Zm66-18.94-1.13-.43-11.19,26.16,1,.41Q560.52,394.2,566.21,381.12Zm-21.74,38.8.49.61c.79-.37,2-.55,2.3-1.15,1.64-3.9,3.06-7.9,4.72-12.34C546.91,410.44,546,415.32,544.47,419.92ZM421.25,229.61h.62l1.53-21.47A39.17,39.17,0,0,0,421.25,229.61Zm118.2,154.3c-4.86,3.94-6.26,9.44-3.83,14.47C537,393.29,538.21,388.6,539.45,383.91Zm-223-238.78c.59-6.65,1.11-12.61,1.64-18.57C315.86,132.41,313,138.2,316.49,145.13Zm112.44-16.48-.67,1c3,2.52,6.05,5.1,9.17,7.53.52.4,1.52.17,2.3.23-.14-.87,0-2.2-.49-2.53C435.88,132.7,432.38,130.71,428.93,128.65Zm125,245.86c5-3.36,5.85-9.21,8.64-13.9C557.13,363.68,556.69,369.81,553.92,374.51Zm-114.79,2.27c.1-4-2.15-5.78-7-5.59C432.48,375.05,434.19,376.45,439.13,376.78ZM321.82,115.53l13.47-6.24C330.32,107.87,322.39,111.75,321.82,115.53Zm118.71,258c-.69,4.28.4,5.46,5.46,6.14C446.49,375.15,445.37,373.87,440.53,373.48Zm-176-131.82c4.34.71,8,2.66,12.78,2.41C271.51,240.05,269.38,237.91,264.56,241.66ZM451,132.48H466.7a92.4,92.4,0,0,0-12-2.54A3.28,3.28,0,0,0,451,132.48ZM504.74,330.3c-3.62,2-4.57,5.17-2.85,9.47,2.66-.35,2.58-.35,2.57-2.74C504.45,334.83,504.64,332.63,504.74,330.3ZM304.33,236.43l16.89-10.55-.33-.53C315.08,228.58,308.49,230.56,304.33,236.43Zm321.44,53.12-9,20.2.61.27C621.66,303.85,623.72,296.68,625.77,289.55Zm-179-160.29-9.82-2-.09.45,6.19,5.12C444.2,131.79,445.36,130.65,446.8,129.26ZM548.53,394.75l.85.4q5-10.53,10.1-21.07l-1-.48Zm55.18-81.43L603,313c-4.34,2.64-5.44,7-6.1,11.53l.67.35Q600.66,319.08,603.71,313.32ZM442.26,357.86c1.1,3.68,3.2,5,7.79,5.05C449.93,360.2,447.71,358.72,442.26,357.86ZM262.46,248.21c-5.9-2.43-10.28-2.74-12.07-.74C254.33,248.37,258,250.12,262.46,248.21ZM430.63,373.78c-.13-3.61-1.65-4.88-6.3-5.16C424.14,372,425.14,372.83,430.63,373.78ZM489,359.6l-.48.2c.43,3.61.72,7.25,1.37,10.82.19,1.05,1.38,1.92,2.11,2.87l.89-.49Zm20.82-47.33-1.84-3.41-5.36,3.34C506.63,314.71,507.42,314.71,509.78,312.27Zm94-113.29c-.09-6.25-.34-12.46-3-18.34a2.63,2.63,0,0,0-.56,2.07c.8,3.19,1.8,6.33,2.53,9.54C603.25,194.45,603.45,196.73,603.79,199Zm-18.61,41.48c.13.21.25.42.37.63l10.81-7.16-.39-.61C591,233.54,588.74,238,585.18,240.46ZM476.56,372.87c-.24,5.72.34,7,3.39,6.1C480.33,375,479.31,373.17,476.56,372.87Zm120.69-17.53.69.28,5.83-14.74-.66-.27C599.58,344.88,599.3,350.47,597.25,355.34Zm-113.56-9.7c2.12,2.05,4.33,2.42,5.7.7.58-.73.09-2.31.09-3.5l-.87-.22ZM239.36,242.09c-3.7-.08-6.07-3.15-9.74-1.89.45,1.4.84,2.6,1.33,4.14C233.05,240.15,236.3,244.29,239.36,242.09ZM608,296.28a8.85,8.85,0,0,0-3.79,9.39C606.92,303.25,607,299.87,608,296.28ZM257.7,244.67l10.33,1.8C265.62,243.67,260.09,242.74,257.7,244.67Zm340.89-69.78c.53,1,.8,2.35,1.37,2.5,2.84.74,2.33,3.66,3.75,5.27,0,.05.15,0,.22.06C604.63,177.49,603,174.66,598.59,174.89Zm21.66,159.58-6.84,15.42C617.68,345.62,618.67,339.92,620.25,334.47Zm3.49-53-.86-.39c-3.3,2.27-4.06,5.85-5,9.32l.76.41ZM469.12,377.07c.56-4.68-.46-6.83-3.21-6.8Q466.23,376.47,469.12,377.07ZM600.82,323l-.61-.3-5.34,11C599.2,331.25,599.45,326.82,600.82,323Zm-36.09-69.17,7.4-6.52C565.64,248.71,564.62,249.62,564.73,253.78Zm45.81,44.54c3.2-2.51,4.38-5.4,3.87-8.63C611.39,291.64,611.59,294.88,610.54,298.32Zm-152,67.08c-.42-2.13-3.37-3.79-6.4-3.61C452.59,364.33,454.59,365.46,458.52,365.4ZM238.15,248.71l-6.44-3.13C232.23,249.87,233.54,250.56,238.15,248.71Zm21.45-8.41c-3-3.61-6.68-4.39-9.05-2.16C253.48,238.85,256.32,239.52,259.6,240.3ZM580.13,368.11l.73.33q2.11-4.86,4.24-9.71C580.9,360.73,581.58,364.9,580.13,368.11Zm-31.65,20.34,4.79-9C550,380.79,548,384.81,548.48,388.45Zm23.94-4.19-.72-.3-6,14.63.84.33Q569.49,391.6,572.42,384.26Zm-87.72-1.38c1,4.49,1.84,8.54,2.82,13.09C488,390.88,486.71,384.21,484.7,382.88ZM595,349.78c-4.39,2.1-2.88,6.54-4.71,9.65l.62.25ZM491.58,345c3.13-1.06,3.4-1.72,1.94-4.73C489.88,341.7,489.81,341.86,491.58,345ZM423.3,370.83c-.2-2.53-1.09-4.07-3.75-3.9C419,369.8,419.76,370.66,423.3,370.83Zm149.42,20.4.89.37q2.37-5.69,4.76-11.36l-.8-.34ZM243.64,284.58c.19-5.49-.87-7.52-3.78-6.9Zm258,38.93,5.5-5.34C505.41,317,502.08,320.11,501.61,323.51Zm-244.95-90.4.09-1.15-8.05-.62-.1,1.12C251.42,231.45,253.77,234.77,256.66,233.11Zm371.15,43.82c-3.34,1.17-3,3.8-3.31,6.21l.84.33Zm-385-32.19c3.61,2,5.55,2.12,7.28.23C247.65,245,245.64,243,242.83,244.74ZM471.29,371.56c.55,2.22.18,4.71,2.09,7C474.06,375,473.27,372.26,471.29,371.56Zm19.79,4.53-.7.33c-.78,3.31-.25,4.24,3.27,4.95Zm-25.94,4.41c-.3,6.57,0,7.48,2.41,7.87C466.72,385.67,465.93,383.08,465.14,380.5Zm4.5-.48-1.13.38q1.29,4.31,2.56,8.62l.59-.17C471,385.89,471.19,382.72,469.64,380ZM248.08,236V235a8.63,8.63,0,0,0-7.62.92Zm284.43,149h.94c1.4-2.43-.35-4.74-.18-7.12h-.76Zm-31-70v4.5l.49.22c.82-1,1.63-2,2.58-3.17Zm130.77-33.54-.89-.28-2.1,7.06.61.2C630.65,286,631.45,283.71,632.24,281.38Zm-30.66,24c.62-1.5,1.24-3,2-5C600.67,301.54,600.69,303.33,601.58,305.41ZM242.24,228.65l1-.11-.66-5.46-.39.06Zm24.52,20.52-.3-.9-4.81,1.52.34,1Zm359.18,19.2v4.17C628.3,270.46,628.27,270,625.94,268.37ZM484,391.15c-1,3.59-.82,4.28,1,4.59C484.67,394.16,484.34,392.65,484,391.15Zm-219.19-151,.11-1.17-4-.62-.17,1Z"/>
    <path d="M362.69,65.93c.12,2.22-1.31,2.23-2.82,2.23q-72.36,0-144.71.06-48.12,0-96.24-.08h-9.25l1.2,36.17-3.36-1.89c0-6.72-.07-13.61,0-20.5.06-4.08.33-8.16.61-12.23.1-1.38-.44-1.77-1.69-1.75-2,0-4,0-6-.07a21.34,21.34,0,0,1-2.23-.31l-.08-.79a9.44,9.44,0,0,1,2.3-.77c8.53-.67,17.08-1.83,25.62-1.81,30.16.06,60.32.56,90.48.84,8.41.08,16.84.21,25.24-.15,9.86-.42,19.69-1.38,29.54-2,5.56-.37,11.13-.8,16.7-.9,16.08-.26,32.16-.28,48.23-.6,4.61-.1,9.21-1.31,13.81-1.29q154.33.54,308.68,1.29c23.33.12,46.65.61,70,1.05,4.14.08,8.28.73,12.42,1.17a4.54,4.54,0,0,1,2.56,1.06l-2.69.75a13.47,13.47,0,0,1,.87,3.41q-.4,47.12-.95,94.22a21,21,0,0,1-.63,3.31c-2-2.85-2.49-94.41-.91-100.47-4.8.18-9.6.51-14.39.53-37.41.14-74.82.38-112.23.31q-122-.24-244-.74Z"/>
    <path d="M462,456.8,455.54,458v.21h5.77q123.49.51,247,1.08a6.82,6.82,0,0,0,6.72-4,3.45,3.45,0,0,1,.35-.66c.85-1,1.73-1.91,2.59-2.86a21.76,21.76,0,0,1,.17,4,19.8,19.8,0,0,1-1.3,3.72l6.2,1.66c0,.28,0,.56,0,.84-3,.47-6,1.32-9,1.33-20.56.1-41.11.06-61.67,0-44.08-.12-88.17-.09-132.25-.46-57.06-.49-114.13-1.4-171.2-1.93-23.07-.21-46.17-.35-69.23.28-41.84,1.13-83.63-.66-125.44-1.1q-16.74-.17-33.49-.55c-1.61,0-2.32.45-2.4,2a2.48,2.48,0,0,1-1,1.82,23.12,23.12,0,0,1-.83-4.44q.35-54.11.82-108.22a55.11,55.11,0,0,1,1.07-10.36c.17,3.65.47,7.29.47,10.94q0,52.13,0,104.24c0,3.26-.06,3.21,3.3,3.17,16-.21,32-.44,48-.58,23.92-.22,47.83-.47,71.74-.52,41.42-.08,82.83,0,124.25,0,.83,0,1.66,0,2.49.07l-36.47-1.14C343.78,454.1,456.2,454.61,462,456.8Z"/>
    <path d="M74.56,47.38a13.84,13.84,0,0,1,.79,2.38c2.17,14.71,2.45,29.54,2.46,44.37a5.57,5.57,0,0,1-.13,1.74c-3,9-2,18.3-2.62,27.48-.85,12.88-1.38,25.78-2,38.67-.06,1.33-.14,2.66-.17,4-.32,16.5-.55,33-1,49.48-.21,7.81-1,15.62-1.22,23.44A267.14,267.14,0,0,0,74,289a59.33,59.33,0,0,1,.23,12.22c-.59,13.89-1.35,27.77-2,41.66a2.38,2.38,0,0,1-.72,1.72c-.11-1.22-.27-2.45-.34-3.67-.66-11.64-1.87-23.27-1.86-34.91q.08-90.48.71-181,.17-28.11,1.08-56.22c.21-6.64,1.35-13.24,2.1-19.86a5.81,5.81,0,0,1,.64-1.51Z"/>
    <path d="M736.77,80q0,7.23,0,14.46c0,49.58.29,99.17.07,148.75-.13,26.82-1.11,53.63-1.59,80.46a114.19,114.19,0,0,0,.53,17.46c2.62,19.49.83,39,1,58.52.17,19-.54,38-.92,57a61,61,0,0,1-.78,6.29l-.82,0a9.63,9.63,0,0,1-.46-1.87c-.39-8.65-1.09-17.31-1-26q.53-101.49,1.31-203,.51-69,1.16-138c0-4.72.29-9.44.45-14.16Z"/>
    <path d="M111.14,473.45c-.22-3-.63-6.05-.63-9.07,0-14.5.11-29,.19-43.49q.85-147,1.72-293.93c0-7.5.24-15,.37-22.49a2.66,2.66,0,0,1,.81-2,25.19,25.19,0,0,1,.32,2.84c.08,25,.22,50,.17,75q-.24,138-.61,275.93c0,4.58-.12,9.16-.29,13.73a22.79,22.79,0,0,1-.74,3.6Z"/>
    <path d="M729.11,225.08c-1.36-47.79-.63-95.58.49-143.37l1.13-.06c.2,1.74.51,3.47.57,5.21.23,5.91.54,11.82.52,17.73q-.15,52-.48,104c0,4.82-.39,9.65-.63,14.47a14.44,14.44,0,0,1-.45,2.21Z"/>
    <path d="M727.85,473.21c-.17-1.58-.34-3.15-.52-4.78a42.81,42.81,0,0,1-4.75-.66c-.66-.17-1.17-.94-1.75-1.43a8.82,8.82,0,0,1,1.84-1.39,4.51,4.51,0,0,1,2.22-.23c2,.25,2.51-.6,2.5-2.55q-.1-20.24,0-40.47.27-40.59.67-81.19a30.45,30.45,0,0,1,.73-6.52c.1,1.15.29,2.29.29,3.43q.06,46.33.06,92.68c0,10.4,0,20.82-.23,31.22,0,2.47.59,3.7,3.08,3.94a4.42,4.42,0,0,1,2.59,1.39,16.32,16.32,0,0,1-3.08,1.07c-2.07.29-3.15,1.18-2.86,3.41a9.4,9.4,0,0,1-.23,2.08Z"/>
    <path d="M501.91,70c-35-.07-69.92,1.72-104.87-.3l-.09-1a15.86,15.86,0,0,1,2.36-.37c12-.2,24-.6,36-.49,21,.19,42,.69,63,1.07,1.23,0,2.46.13,3.69.2Z"/>
    <path d="M107.32,254.72c-.43-32.32,1.39-64.59,2.82-96.86-.33,32.3,1.19,64.64-1.3,96.91Z"/>
    <path d="M573.73,41.26c-2.49,0-5-.1-7.46,0-12.52.64-25,1.2-37.55,2-9.59.66-19.16,1.76-28.74,2.59a16.26,16.26,0,0,1-4.46-.26c-.73-.14-1.34-.93-2-1.42.7-.48,1.36-1.28,2.11-1.38A97.12,97.12,0,0,1,505.81,42c22.37-.43,44.75-.76,67.12-1.12a4.57,4.57,0,0,1,.73.1Z"/>
    <path d="M196.89,239c6.94,14.17,12,29,17.39,43.73l-1.25.48C206,269,201,254.14,196.89,239Z"/>
    <path d="M552.74,422.85c21.46-17.87,39.2-39.53,59.45-58.65C593.19,384.57,574.94,405.68,552.74,422.85Z"/>
    <path d="M465.85,120.29c5.48.85,11,1.34,16.41,2.63,8.36,2,16.32,5.58,25,6.46.45,0,.87.35,1.3,1.14a10.52,10.52,0,0,1-2.61.15c-7.31-1.45-14.65-2.82-21.91-4.52-5.74-1.35-11.37-3.12-17-4.71a13.29,13.29,0,0,1-1.32-.51Z"/>
    <path d="M301.14,491.06c5.63-1,11.26-1.94,16.89-2.89,3-.5,6.06-1,9.11-1.37.62-.07,1.33.61,2,.95-.54.51-1,1.4-1.62,1.47-8.4,1-16.82,1.87-25.23,2.76a3.92,3.92,0,0,1-1.14-.23Z"/>
    <path d="M624,454.4c1.23-.14,2.11-.29,3-.34l24.43-1.18c1.36-.06,3-.15,3,1.66,0,.57-1.62,1.69-2.45,1.65C642.78,455.7,633.59,455,624,454.4Z"/>
    <path d="M546.53,139l-24.64-4.77c8.7-1,16.71,1.8,24.82,4.1Z"/>
    <path d="M417.8,106l18.43,5.5c-.1.35-.2.7-.31,1l-18.48-5.35Z"/>
    <path d="M626.18,343.47c1.75-4.64,3.28-8.67,4.92-13C632.64,335,631,339.42,626.18,343.47Z"/>
    <path d="M616.38,217.56V199.82l.57,0v17.77Z"/>
    <path d="M623.53,235.48q-2.91-4.29-5.81-8.57l.8-.55,5.6,8.67Z"/>
    <path d="M507.11,318.17l-5.5,5.34" style="fill: #fff"/>
    <path d="M328.82,152.42c-.47-2.66-.86-4.89-1.26-7.11l.81-.25c.78,2.2,1.71,4.35,2.31,6.59,1.6,6,3.09,12,7,17,1.65,2.13,3.61,4,5.32,6.52-2.53-1.37-5.71-2.17-7.46-4.2-4.57-5.3-6.91-11.88-8.7-18.62a9.7,9.7,0,0,1,0-1.79Z"/>
    <path d="M445.62,185.93c1.14,1.89,2.28,3.78,3.4,5.69,2,3.36,4,6.73,5.88,10.12,2.55,4.51,7.42,6.42,10.92,9.87,2.92,2.88,6.14,5.46,9.22,8.16l-.45.68c-1.11-.71-2.24-1.39-3.32-2.15-3.19-2.23-6.37-4.46-9.52-6.74-5.75-4.14-9.67-9.78-12.79-16-1.51-3-2.74-6.15-4.1-9.23Z"/>
    <path d="M386.78,129.54c1.67-.56,3.25-1.46,4.89-1.59,9.66-.79,19.08.71,28.38,3.22a2.91,2.91,0,0,1,.68.44Z"/>
    <path d="M320.78,129.57c0,4.23-.2,8.47.08,12.67a24.52,24.52,0,0,0,1.72,7.93c2.32,5.34,5.08,10.48,7.66,15.7a2.9,2.9,0,0,1,.29,2.1,39.63,39.63,0,0,1-3.15-4.43c-2.66-5-5.23-10-7.67-15.13-.66-1.37-2-3.09.34-4.47.33-.19.19-1.24.19-1.9q0-6.24,0-12.47Z"/>
    <path d="M395.38,191.66a38.85,38.85,0,0,1-5.52-3.76c-5.15-4.94-8.7-11.06-12.22-17.19a47,47,0,0,1-3-5.73c7.22,8.56,11.47,19.51,21.13,26.06Z"/>
    <path d="M521.44,229.92c-6.32-1.44-14.34-13.73-15.75-24C509.86,214.63,513,224,521.44,229.92Z"/>
    <path d="M511.17,210.45l15,21C519,226.14,514.51,218.92,511.17,210.45Z"/>
    <path d="M462.91,201.17,478.48,217C471.2,213.43,467.34,206.93,462.91,201.17Z"/>
    <path d="M334.59,155.59q4.38,7.22,8.77,14.43l-.93.57c-4.47-3.82-5.4-9.87-8.9-14.29Z"/>
    <path d="M386.26,172.57l12.3,15.51C393,184.08,388.55,179.19,386.26,172.57Z"/>
    <path d="M454.83,208.26c-7.77-3.68-11.21-10.28-13.75-17.58A107.09,107.09,0,0,0,447,200C449.21,202.85,452,205.32,454.83,208.26Z"/>
    <path d="M373.52,174.27c4.12,5.64,8.6,10.94,14.64,14.66C381.3,186,376.87,180.69,373.52,174.27Z"/>
    <path d="M439.38,150.54,432.18,162l-.78-.5q3.68-5.72,7.37-11.42Z"/>
    <path d="M371.34,125.42c1-1.37-1.17-4.59,1.64-4.86l.9.54Z"/>
    <path d="M409.55,275.62a7.29,7.29,0,0,1,1.27-.86c9.39-3.63,18.73-7.37,28.21-10.76a12.72,12.72,0,0,1,6.82-.12,5.34,5.34,0,0,1,2.92,8.26c-1.76,2.58-3.69,4.7-7.14,5.59-5,1.28-9.83,3.47-14.91,5.07l5.41-3.17-.18-.42-10.84,3.42-.32-1c3.57-1.44,7.1-3,10.72-4.31,4-1.44,8-2.75,12.08-4,2-.59,3.12-1.63,2.91-3.71a4.5,4.5,0,0,0-3.31-4.18,8.24,8.24,0,0,0-5.74.35c-8.34,3.08-16.75,6-25.12,9a25.86,25.86,0,0,0-2.44,1.16Z"/>
    <path d="M410,277.47l6.72,6.19a2.94,2.94,0,0,1-3.68.23C410.61,282.38,409.34,279.67,410,277.47Z"/>
    <path d="M436.43,263.89l-12.1,4.37-.22-.63,12.09-4.38Z"/>
    <path d="M450.34,278.6l-10.1,2.5-.15-.57,10.1-2.56Z"/>
    <path d="M558.11,355.5q8.25-19.06,16.48-38.14l.69.3C570.15,330.53,565.42,343.56,558.11,355.5Z"/>
    <path d="M580.47,315.2q-4,9.44-8,18.88l-.65-.27q3.88-9.49,7.75-19Z"/>
    <path d="M271,276.48l-6.77-13,.73-.38,6.79,12.93Z"/>
    <path d="M291,291.82,287.58,285l.85-.42,3.39,6.84Z"/>
    <path d="M262.89,272.48l2.74,5.93-.67.32L262,272.84Z"/>
    <path d="M273.8,215.38l-.22-1.61-3.74,5.11c-.2-.87-.35-1.48-.53-2.22l-4.74,1.45-.44-.66a13.28,13.28,0,0,1,1.56-2.3,9,9,0,0,1,2.62-1.89c6-2.57,10.44-7.31,15.76-10.77,5.11-3.32,10.8-5.76,16.28-8.51a6.06,6.06,0,0,1,3.07-.34C292.23,199.1,283.43,207.64,273.8,215.38Z"/>
    <path d="M266,227c7.09-8.23,15-15.68,24.76-20.88Z"/>
    <path d="M428.53,354.47c-4.07-1.61-8.17-3.14-12.2-4.84-22.21-9.36-45.19-16.51-68.1-23.88q-12.72-4.1-25.39-8.37a11.87,11.87,0,0,1-3.8-2.58c37.22,11.31,74.63,21.95,109.77,38.91Z"/>
    <path d="M506.08,284.46l24.09-19.3.5.62L506.52,285Z"/>
    <path d="M511.72,386.37q4.26,3.54,8.53,7.07c1.14.94,2.31,1.86,3.46,2.79l-.62.7-11.32-10.61Z"/>
    <path d="M526.94,385.35l2.37-10.87.36.07-2.28,10.88Z"/>
  </g>
</svg>
