<svg id="Layer_1" data-name="Layer 1" xmlns="http://www.w3.org/2000/svg" width="600mm" height="600mm" viewBox="0 0 1700.79 1700.79">
  <title>sketches frames</title>
  <g>
    <path d="M1281.37,730.79c-.33.71-.65,1.42-1,2.12l-1.25-.3,1.37-5.68q-141.66-2.17-284.17,4.77l25,2.23c0,.42.07.83.11,1.25a31.22,31.22,0,0,1-4.56.76c-15.51.25-31,.77-46.54.58-76.72-.92-153.43-2.31-230.16-2.95-47.29-.4-94.58.28-141.88.41-4,0-8-.5-12-.77l0-1.43c2.31-.13,4.62-.37,6.93-.37,36,0,72.05.2,108.07-.12,9.6-.09,19.21-1.65,28.77-2.83,2.06-.26,4-1.77,5.58-3.65a9.24,9.24,0,0,0-2-.17c-10.42,1.07-20.81,2.7-31.26,3.16-20.31.9-40.66,1.23-61,1.54-2.81,0-6.69,1.91-8.48-2.44-.16-.4-1.92-.26-2.93-.26l-130,0c-28,5.28-56.29,2.17-84.45,2.8-2.53.06-3.38,1-3.21,3.29.3,4.22.56,8.44.68,12.67.09,3.14-1.24,6.09-1.88,9-1.2,5.32.34,11.23.93,16.88.21,2,1.44,3.93,1.45,5.9.47,72.48,1,145,1.21,217.44.19,69.52,0,139,0,208.56v11.53c-3.84-1.1-8.26,2.41-9.66-2.82-11.65,0-23.17,0-34.68,0a5.49,5.49,0,0,1-3.43-1.11c-3.56-3.39-6.92-7-9.64-9.76-2.78,1.09-5.49,2.87-6.24,2.29a7.91,7.91,0,0,1-2.83-5.55c-.17-18.3,0-36.6-.09-54.89,0-2.25-1-4.48-1.53-6.74a14,14,0,0,1-.72-4.46c.62-5.42,2.16-10.8,2.18-16.2.19-40.74.44-81.48,0-122.22-.56-53.57-1.92-107.13-2.56-160.7-.33-27.9.2-55.8.24-83.7,0-2.59-1.09-5.2-.91-7.75a8.33,8.33,0,0,1,2.47-5.27c2.62-2.31,2-3.22-.86-4.37-9.05-3.72-18.05-7.56-27.61-11.58l3.67-.84c-.22-.43-.29-.9-.56-1.06q-42.85-26.08-85.74-52.12c-4-2.41-7.91-4.84-11.78-7.37a18.47,18.47,0,0,1-2.76-2.76l.8-1.24,8.58,3.3.79-.67c-1.7-1.56-3.15-3.52-5.13-4.61-21.31-11.81-43-23.07-64-35.38-9.25-5.43-19.63-7.08-29.24-11.06-2.66-1.1-5.43-2-8.95-3.19,1.17,123.94,4.09,247.4-.08,370.4-13.18,6.15-26,2.5-38.94,2.64,1.62,2,3.27,3.36,4,5.09.46,1.11,0,3.36-.89,4s-3,0-4.13-.74a13.31,13.31,0,0,1-3.33-3.88c-1.27-2-1.25-4,1.39-4.75,3.36-1,2.21-2.74,1-4.41a44.63,44.63,0,0,0-4.73-5.54c-3.9-3.73-5.27-8.38-5.47-13.41-.37-9.58-.81-19.17-.79-28.75q.38-170.7.86-341.4c0-8.69-.44-17.39-.78-26.09,0-1-.39-2.5-1.13-2.93-3.33-2-6.84-3.59-10.61-5.5-.46,3.91-.89,7.63-1.41,12.09-5.29-5.74-6.11-49.81-2-59.68,5.26,10.42,14.57,17.5,25,21.87,29.61,12.44,55.89,30.08,82.75,46.86,6.48,4.06,12.7,8.5,19.05,12.77l-.73,1.29-48.37-24.12c2.66,4.54,5.25,8.5,7.37,12.69,4.41,8.72,8.56,17.56,12.83,26.34a3.23,3.23,0,0,0,.94,1.37c4.42,2.89,8.88,5.72,13.33,8.57l.91-.77-16.48-24.35.61-.51a81.92,81.92,0,0,1,6.21,6.74c4,5.4,8,10.81,11.43,16.53a41.33,41.33,0,0,0,13.54,13.54c5.53,3.58,10.79,7.56,16.17,11.37l1.06-.81-29-45.17.77-.55c2.37,2.72,5,5.26,7,8.22,6.66,9.77,13.48,19.48,19.46,29.64,4.24,7.22,12,9.51,18.79,15.32-2.92-11.43-9.77-20.72-7.29-32,1.57,4.13,3,8.3,4.72,12.37,2.9,6.92,6.1,13.73,8.92,20.69,2.53,6.26,8.35,9.28,13.53,13.1q-4.1-8.65-8.2-17.3l1.25-.67c5.52,10.93,10.61,22.2,22.84,27.88.17-3.56-5.6-5.49-3.69-10.37,8,6.23,8.71,17.05,18.76,21.15l-9.09-17.85,1.36-.81c8.85,13.85,15.84,29.32,33.48,35.79l-16.21-29.91,1.47-.93c2,2.72,4.22,5.32,6,8.2,4.26,7.06,8.61,14.11,12.31,21.45,2.48,4.92,5.65,8.73,10.79,11.11,2.73,1.28,5.25,3,8.81,3.86L304.4,670.11l1.82-1c1.68,2.15,3.69,4.13,5,6.48Q318.26,688.7,324.9,702c2.47,5,3.43,6.19,9.58,9.13-.66-3.3-2.7-6.92,1.17-9,.93-.5,3.28,1.5,5.45,2.58,1.43-7-5.61-11.86-5.62-19.41l6.33,9.72,2.71-2.25c4.36,4.92,4.43,10.69,4.54,16.47.18,9.24.2,9.25,10,9.07,15.07-.28,30.15-.45,45.22-1,2-.06,4-1.84,6.26-3,1.05,3.76,4.77,3,8.36,3q38.43-.18,76.87-.21c44.22-.09,88.44-.26,132.66-.24,66.92,0,133.83.24,200.75.29,43.62,0,87.23-.14,130.85-.15q112.46,0,224.92.08,63,0,126,0c3.8,0,8.48,1.6,9.08-5l3.55,5,2.65-3.36,1.24,3.39h95.14l.06-.27-10.13-1.22c0-.39,0-.79,0-1.18,2.54-.24,5.08-.64,7.62-.7,37.32-.88,74.65-1.58,112-2.62,11.79-.33,23.55-1.53,35.6-1.75-4.5,1.25-8.93,3.2-13.51,3.61-11.65,1.05-23.35,1.68-35,2-25.31.7-50.63,1.11-76.08,2.33a16.1,16.1,0,0,0,2.45.42c30.45.47,60.9,1,91.35,1.34,15.49.17,31,.08,46.47-.06a99.7,99.7,0,0,0,13.48-1.07c1.48-.21,2.77-1.7,4.43-2.79.18.19.6.66.89,1l11.35-15,1.61,1.05-9.35,15.59c4.63.8,7.29-.34,9.31-4.21,3.21-6.15,7.13-12,10.78-17.88.94-1.52,2-3,3-4.48.74.52,1.47,1,2.2,1.58-3.5,7.48-7,14.95-10.7,22.83l7.36-.78v3.37l1,.3c.48-1.21,1.28-2.39,1.38-3.63.63-7.58,1.26-15.17,1.48-22.77,0-1.25-1.68-3.07-3.06-3.75-16.63-8.3-33.38-16.37-50-24.63-30.7-15.23-61.48-30.31-92-45.88q-59.16-30.18-117.9-61.14c-16.4-8.67-32-18.66-48.23-27.73-8.84-5-18.73-8.4-27-14.11-7.78-5.4-15.68-5.52-24.37-5.22-16.81.58-33.64.71-50.46,1a10.1,10.1,0,0,0-4.53.8l3.76,2.16-.15.85c-2.64-.6-5.26-1.31-7.93-1.76-4-.67-8-1.72-12-1.64-101.6,1.95-203.21,2.69-304.84,1.64-78.33-.81-156.68-.54-235-.3-106.3.33-212.6,1.32-318.91,1.58-42.75.1-85.53-2.06-128.25-1.13-29.84.65-59.25-3.72-88.94-3.86-10.1,0-20.22.06-30.3-.43-9.31-.46-18.57-1.62-27.86-2.47L63,504.66c1.61-1,3.18-2.88,4.83-3,17.06-.77,34.14-1.9,51.19-1.64,17.39.27,34.75,2.36,52.14,2.89,9.45.3,19-1.11,28.44-1.52,20.33-.88,40.65-2,61-2.31,44.65-.63,89.31-.78,134-1.14q91.57-.74,183.17-1.5c49.49-.46,99-1.1,148.46-1.64,6.28-.07,12.56,0,18.87.48-7.71.76-15.44,1.38-23.14,2.31s-15.21,1.75-22.09,5.24c0,.43-.09.85-.14,1.27,3.72.84,7.41,2.31,11.15,2.41,13.89.36,27.8.43,41.7.3,43.49-.39,87-1.43,130.45-1.25,43.31.18,86.61,1.7,129.92,2.3,44.5.62,89,.86,133.52,1.15,4.26,0,8.53-.76,12.8-1.17.09-.63.19-1.25.28-1.87-1.52-.54-3-1.49-4.57-1.56-11.53-.58-23.08-1.27-34.62-1.39-48.75-.51-97.51-.69-146.25-1.31C948,501.43,922,500.68,896,499.7c-24.05-.9-48.07-2.34-72.1-4.09,10.67,0,21.34,0,32,0,66.63.27,133.25.89,199.87.73,65.6-.15,131.19-1,196.78-1.73,11.32-.12,22.52,0,33.74,4.35-2.38,10.16,7.83,10,13.92,13.45l-3.35-2.39-3.58-2.65.66-1.08c4.82,2.2,9.81,4.12,14.45,6.65,46.61,25.41,93.09,51.06,139.78,76.34,23.84,12.92,48,25.24,72.1,37.77a31.54,31.54,0,0,0,5.09,1.65l.72-1.33c-2.67-1.73-5.22-3.69-8-5.16-16.87-8.76-33.82-17.4-50.71-26.12-3.48-1.8-6.84-3.81-10.5-5.86.31-1.62.61-3.2,1-5.37,3.76,2,7.18,3.82,10.59,5.65q73.24,39.33,146.47,78.71c8.93,4.82,17.7,9.94,26.34,15.24,1.48.91,2.53,3.41,2.68,5.25.87,11.24,1.45,22.51,2,33.77a16.29,16.29,0,0,1-.74,3.88l-1.15-.05c-.22-2.95-.43-5.91-.67-9.24a39.41,39.41,0,0,1-1.56,5.7c-1.7,3.79-5.12,4.72-9.07,3.28-3.13-1.15-6.51-1.63-9.89-2.43.41,24.16,1,47.33,1.17,70.51q.72,123.06,1.09,246.14c0,5.73-1.16,11.47-1.75,17.21a95,95,0,0,0-.88,10.07c.12,27.36.46,54.72.51,82.07,0,12.68-.32,25.35-.75,38a26.07,26.07,0,0,1-2.09,8.57c-.52,1.31-2.37,3-3.53,3s-2.69-1.86-3.39-3.22c-.83-1.58-.94-3.51-1.44-5.6l-25.56,1.18c-.24.93-.21,2.53-1,3.51-1.16,1.45-2.75,3.11-4.43,3.46a6.48,6.48,0,0,1-5-1.74c-4.42-4.41-8.6-9-12.7-13.76a35.67,35.67,0,0,1-5.63-8.71c7.94,1,10.89,8.54,17.3,11.91V988.78c-4.65,1.47-4.65,1.47-14.13-9.26v6.9c0,2.26.17,4.53,0,6.77-.76,8.5-.36,16.58,7.88,22.09a1.23,1.23,0,0,1,.26.33c1.72,2.48,5.09,5.09,1.59,8-3.24,2.67-5.49-.58-7.69-2.54-.39-.35-.79-.68-2-1.73,0,2.55,0,4.17,0,5.79-.34,42.3-.61,84.6-1.13,126.9-.07,5.85-1.29,11.69-2.12,17.52-.14,1-1,1.84-1.89,3.43-.9-1.39-1.72-2.09-1.81-2.87-.76-6.28-1.91-12.57-2-18.87q-.77-94.76-1.2-189.51-.48-80.58-.86-161.15c-.06-16.64.36-33.28.7-49.92.11-5.2.81-10.39,1-15.59.2-5-.47-5.49-5.69-5.48-35.87.06-71.74.29-107.61,0-10.92-.1-21.83-1.78-32.75-2.72-2.19-.19-4.38-.49-6.57-.46-21.81.25-43.62.62-65.43.78-4.16,0-5.77,1.32-5.4,5.44.45,5.18-.21,10.51.69,15.6,1.22,6.95-.13,13.78.14,20.66.29,7.33.1,14.67.14,22s.14,14.38.15,21.57q.09,76.79.13,153.56c0,8.18-.49,16.35-.88,24.52-.06,1.1-.64,2.67-1.48,3.09-.69.34-2.13-.7-3.22-1.15a7.05,7.05,0,0,0-2.13-.9c-7.27-.17-14.7-1.24-21.76-.12-10.12,1.6-14.85-6.13-21.89-9.83-.66-.35-.85-2-.85-3,.14-42.84,0-85.67.65-128.5.31-20.83,2.16-41.63,3.1-62.45.37-8.14,0-16.31.28-24.45.31-10,.92-20,1.36-29.92a16.11,16.11,0,0,0-.23-2.38ZM406.15,813c0-3.88,0-6.82,0-9.75.06-7.51,0-15,.26-22.53.09-2.77-.6-4.31-3.53-5.35a82,82,0,0,1-11.41-5.4c-6.45-3.49-12.79-7.17-19.36-10.88-1,3-.18,4.6,2.43,6.1,5.63,3.24,11,6.9,16.47,10.39l-.39.54-18.16-7.69-1.17.89c.5,2.67.47,5.59,1.65,7.94s3.55,4.14,6,6.85l-6.36-2.45q.78,181,1.53,360.48c1.17,1.12,2.92,2.07,2.84,2.85-1.17,11,2.66,22.17-1.6,33.35-1.6,4.2.59,9.93,1.71,14.83.75,3.3,2.63,6.37,4.41,10.48,1.93-.37,5.05-.24,7.27-1.53,3.71-2.17,6.93-5.16,10.21-8,4.37-3.73,7.71-7.91,5.14-14.33L392.4,1190.1l-1.39-1.4,11.65-10.9c.66-.61,2-1.13,2-1.71.14-6.93.09-13.86.09-22l-24.89,25.36-1.13-1a22.58,22.58,0,0,1,1.83-2.53c7.11-7.48,14.39-14.82,21.29-22.48a11.88,11.88,0,0,0,2.84-7.08c.29-11.83.15-23.68.13-35.52,0-1.18-.2-2.35-.36-4.17l-8.45,9.63-1.11-1c1.86-2.3,3.36-5,5.65-6.81,3.94-3.05,4.34-6.81,4.35-11.24q.42-138.93,1.05-277.85c0-1.38,0-2.76,0-4.41-10.31-.69-18.72-4.76-26.26-10.73Zm1183.76-70-1.78.08c-.88,3.69-2.44,7.36-2.55,11.07q-.76,26-.85,52-.13,53.3.21,106.59c0,2.71,1.86,5.37,2.49,8.13.41,1.81.68,5.21.1,5.4-3.37,1.15-2.68,3.59-2.68,5.85q0,38.7,0,77.4v176.59h25.71c0-5.91,0-12.19,0-18.48.3-52.7-1.26-105.44,3.78-158,.09-.93.25-2.53.71-2.65,5.63-1.49,4.58-6.16,4.66-9.75.25-10.15.28-20.32-.25-30.44-.56-10.54-1.83-21-2.92-31.53-.13-1.26-1.12-2.44-1.7-3.65l-1.95.21q-1.68,16.74-3.37,33.49h-.84V838.59c3.16.7,6.71,3.83,10.5-.05a22.17,22.17,0,0,0-2.37-2.11c-6.51-4.18-10.74-9.39-9-17.52.29-1.36-.08-2.83.09-4.22.56-4.49-.4-8.28-4.37-11.21-1.62-1.19-2.75-3-4.1-4.55l.58-.51,7.25,6,1-.93c-1.66-8.72-12.74-10.94-15.59-18.84l.83-.94,14.11,9.73,1-.91c-3.45-9.1-13.86-12.63-19.13-20.27l.8-.91,17.29,14.05c.08-8.15-8.46-10.5-11.81-17.55l12.24,8.47c1.51-6.19.6-10.57-5-14-4.87-3-9-7-13.51-10.54l.69-.91,17.94,12.1,1.08-.43c-.48-2-.26-4.81-1.57-5.93C1602,751.87,1595.87,747.53,1589.91,743ZM86.24,852.69c-.07-1.1-.19-2.06-.2-3-.26-22.69-.61-45.38-.71-68.08-.13-28.33-.08-56.67,0-85,0-3-.39-5.48-4.52-6.32v5.32q.2,106.15.35,212.3c0,14.23.22,28.51-.89,42.68-.45,5.76.9,9.27,6.08,12.53V860.86c3.14,3.14,5.24,5.59,5.19,9.77-.29,24.53-.31,49.06-.33,73.58,0,6.48.22,13,.46,19.44.16,4.37,1.78,5.51,6.23,5a18.33,18.33,0,0,1,5.23.15c5.84,1,11.66,2.26,17.38,3.39-.6-10.82-1.77-21.05-1.56-31.27.15-7.42-1.43-13.19-7.93-17.68-3-2.08-5.15-5.31-7.68-8,6.78-.45,9.78,4.77,14.77,7.58.14-1.08.22-1.72.31-2.36.54-3.94-1.59-8.16,2.3-11.82,1.06-1-.17-4.43-.65-6.69-.39-1.81-1.55-3.49-1.78-5.3a38.58,38.58,0,0,1-.07-7.6c.19-2.84-.84-4.27-3.61-5.81C109,880.13,104,876.1,98.78,872.45l.94-1.34c7.3.73,11.37,7.41,18.38,10.18a95.9,95.9,0,0,1,.07-9.66c.43-4.13-1-6.49-5-8.63-5.45-2.94-10.22-7.06-15.28-10.67l1-1.36c7.53.73,12.57,6.38,18.74,9.94,1.68-7.93.68-14.33-7.08-18.41-2.52-1.33-4.53-3.54-6.84-5.27-3.82-2.88-7.69-5.71-12.43-9.21v24.67Zm278,336.3c.68-4.41,1.78-8.12,1.7-11.8-.16-6.88-1.52-13.74-1.5-20.6q.74-187.36,1.64-374.72c0-9.72,1.54-19.5-2.2-29.16-1.66-4.28-.67-9.48-1.13-14.24-.11-1.12-1-2.78-1.94-3.05a4.32,4.32,0,0,0-3.68,1.11,6.71,6.71,0,0,0-1.38,4.18c.16,39.89.73,79.79.55,119.68-.17,38.76-1.08,77.52-1.7,116.28,0,2.61-.42,5.22-.63,7.83H352.8q-.69-7.69-1.4-15.39c-.38,23.88-.38,47.76-.37,71.65a19.32,19.32,0,0,0,.21,2.52c1,8,2.77,16.07,2.95,24.13.76,33.83,1.36,67.66,1.31,101.49C355.49,1177,358.89,1182.79,364.22,1189ZM1298.68,923.6c.79,6.92,1.45,13.41,2.28,19.88.44,3.42,1.19,6.81,1.74,10.22.2,1.22.83,3,.25,3.61-3.59,3.6-1.58,7.65-1.43,11.55.08,2.44,1.41,3.18,3.88,3.56s4.93,1.81,7.42,2.67c3.17,1.09,6.38,2.07,9.73,3.14,0-9,.06-17.27,0-25.57,0-2.79,1.06-5.94-2.57-7.85-.68-.36-.48-2.27-.73-3.76l2.73.93c2.55-9.51-1.16-18.72.26-28.19,1.36-9.1.41-18.52.42-27.79,0-10.1-.07-20.2,0-30.3,0-14.23.15-28.47.12-42.7,0-1-1.1-1.9-1.4-2.92a13.88,13.88,0,0,1-.37-3.35c-.28-8.73-.19-17.49-.88-26.19-1.06-13.28-2.65-26.52-4-39.78-.06-.55-.25-1.37,0-1.62,4.08-3.64.9-8.12,2.29-12.24h-12.58l6.29,6.65-3.08,3.18-6-3.43c.45,6.25,1.21,12.13,1.25,18q.63,79.27,1,158.56c0,2.81-.09,5.64-.32,8.44C1304.74,921.56,1303.63,924.19,1298.68,923.6Zm-1196.23-364,.75-.51-7.55-15.69,1-.46c2.63,5.22,5.47,10.36,7.81,15.69,1.94,4.43,5.83,6.14,10.24,8.54L110.36,556c6,7.75,8.35,17.68,17.56,24V577.2c2.86,2.91,5.41,6.79,9.06,8.83a45.28,45.28,0,0,1,8.41,5.68c.07.07.45-.17.32-.12-4.58-9.24-9.27-18.44-13.68-27.77-1.12-2.38-1.31-5.17-2-8.07-10.37-6.21-21.29-12.75-32.23-19.27-1-.58-2.3-1.63-3-1.36-4.44,1.72-7.15-1.45-10.3-3.15a74.21,74.21,0,0,1-6.62-4.44c2.84,7.84,6.18,15.13,9.61,22.39a5.46,5.46,0,0,0,1.94,2.21C93.72,554.7,98.1,557.15,102.45,559.64ZM92,749.93c0,11.45-.07,21.56.1,31.67,0,1.13,1.18,2.48,2.18,3.31,4.45,3.64,9.07,7.09,13.55,10.69,3.19,2.57,6.25,5.28,10.34,8.75,0-4.88-.17-8.62.05-12.33.18-2.88-.88-4.52-3.45-6.11-4.53-2.81-8.67-6.22-13-9.39l.89-1.23,15,8.77c1.71-9.8,1.89-18.37-8.87-22.83-1.29-.54-2.27-1.76-3.47-2.56C101.21,756,97.14,753.33,92,749.93Zm4.94-29.21.77-1.22,10.67,4.32.55-3.56c2.38-1.15,5.78-2.16,5.71-2.86a16.38,16.38,0,0,0-2.78-7.09c-.95-1.42-2.89-3-4.5-3.1-5.08-.42-7.78-4.12-11.33-6.67-1.08-.78-2.14-1.58-3.71-2.75v33L110,742.25c-1.32-3.56-1.3-6.33,2.62-7.59.25-.08.35-2.19-.14-2.57-3.06-2.37-6.33-4.48-9.49-6.75C100.91,723.86,98.92,722.27,96.9,720.72ZM1559.09,866.58l-1.45.72c0,10.35,0,20.71.06,31.06a3,3,0,0,0,1.46,2.24c5.26,2.5,10.61,4.84,16.21,7.36,0-9,0-18,0-27a4.22,4.22,0,0,0-1.24-3C1569.16,874.12,1564.1,870.38,1559.09,866.58ZM80.43,583.34c0,3.87,0,7.37,0,10.88q.16,44.85.31,89.68c0,2.74,0,5.22,4.28,4.25.09-1.29.24-2.53.25-3.77.1-16.2.28-32.39.23-48.59,0-5.89,1.82-12.11-2.58-16.71,1.19-1.55,2.71-2.61,2.73-3.7.18-10.13.11-20.27.11-30.41ZM1557.86,829c0,10.83,0,22.44,0,34a2.32,2.32,0,0,0,.94,1.71c5.39,3.15,10.84,6.22,16.29,9.32,1-3,.38-5.5-3.05-7.44-4.45-2.52-8.61-5.5-13.46-8.65,7.75-3.9,11.33,3,16.85,5.44,0-6.79,0-13.11,0-19.42a3.6,3.6,0,0,0-1.14-2.53C1568.84,837.24,1563.3,833.12,1557.86,829Zm17.85-19.89c-.9-7.19,2.2-13.61-3.25-18.92,3.63-1.58,3.83-4.17,1-6.43-2.7-2.13-5.29-4.41-7.76-6.79-1.83-1.77-3.37-3.81-5.62-6.39l4.83-.39-7.09-8.56c0,11.44,0,21.53,0,31.61a3.16,3.16,0,0,0,1,2.22C1564.07,799.81,1569.41,804.06,1575.71,809.12ZM1283.8,932.48l-1.15.2a6.9,6.9,0,0,0-.41,1.44c-.55,10.53-.71,21.1-1.73,31.58-.65,6.61,1.37,10.73,8.08,12.58,1.08.3,2,1.34,3,1.61a54.37,54.37,0,0,0,6.3.79c-4.15-8.52-12.26-13-14.93-20.83l1.28-1.29,11.45,9.44,1.09-.29c-.48-4.48.43-9.75-1.73-13.26C1290.75,947.38,1284.45,941.41,1283.8,932.48Zm12.27-1c0-4.22,0-8,0-11.75,0-2.56-.64-5.22-.1-7.65,2-9-1.07-17.11-10.17-22.81,0,11.87.85,23-.26,34-.94,9.23,5.36,13.68,9.63,19.68l1.86-.75-4.78-12.15Zm-1186-317.06c-.07-5.93,2.2-11.45-4.64-15.24-3.93-2.19-7-5.8-10.47-8.77l.68-.73,14.08,10.94,1.21-.48c-.26-2.93.65-7.18-1-8.56-5.54-4.6-12-8.17-18.42-12.34,0,7.34,0,14,0,20.74a2.55,2.55,0,0,0,.83,1.87C98,606,103.74,610,110.06,614.46Zm8,208.08c0-5.2.14-9.51-.11-13.8-.06-1-1.37-2-2.33-2.72-4.13-3.11-8.4-6-12.5-9.16-3.5-2.66-6.85-5.5-10.27-8.26l-1.15.41c0,4.57-.06,9.14,0,13.71a3.11,3.11,0,0,0,1.18,2.12C101,810.58,109.1,816.25,118.05,822.54Zm-.11,1.44c-11.69-.77-17-10.85-26.39-15.87,0,4.78-.13,9,.1,13.13,0,1,1.14,2.13,2.07,2.76,5.58,3.8,11.26,7.46,16.89,11.19,2.28,1.51,4.51,3.09,7.33,5Zm1440,77.57c-.53,1.17-.88,1.56-.84,1.91.84,7.39,1.71,14.77,2.66,22.14a3,3,0,0,0,1.2,1.64c4.61,3.54,9.27,7,14.27,10.8,0-6.14,0-12.12,0-18.11a2.92,2.92,0,0,0-.69-1.92C1569.14,912.58,1563.68,907.21,1558,901.55ZM93.87,670.34,94.8,669l14.35,6.71c-.49-3.16,0-6.3-1.37-7.57-4.66-4.31-10-7.95-15.85-12.45,0,6.81.28,12.41-.08,18-.32,4.85.18,8.38,6.11,9.86,3.61.9,6.8,3.4,10.25,5.22,1.52-5.61.49-9.44-4.84-12C100,675.13,97,672.51,93.87,670.34ZM1574.2,834.05l1.33-.71c0-4.06,0-8.12,0-12.18a4.87,4.87,0,0,0-.9-3.12c-5.47-5.28-11.09-10.43-16.81-15.76,0,3.9.14,8,0,12s0,7.6,4.44,10.21S1570.23,830.81,1574.2,834.05ZM92.07,734.52c0,3.66.14,6.71,0,9.75-.15,2.44.79,3.65,3,4.89,5.32,2.91,10.38,6.26,15.47,9.53,2.37,1.51,4.58,3.24,7.47,5.31V743.35l-4.39,3.06,2.85,4.63-.76.79C107,747.7,100.88,740.1,92.07,734.52Zm0-129c-1.42,9.3-1.35,17.12,7.66,22.31,3.33,1.91,5.94,5,8.88,7.53l1.23-.6c0-4.44.07-8.89,0-13.34a3.82,3.82,0,0,0-1.21-2.55C103.3,614.45,97.94,610.19,92.06,605.47ZM372.61,746.26c-1.14,5.42-.29,8.58,4.45,10.53,3.73,1.54,7,4,10.56,6,6,3.39,12,6.74,18.58,10.41,0-3.56,1.58-6.51-1.86-8.64-4.17-2.59-8.18-5.45-12.44-7.89C385.68,753.14,379.3,749.86,372.61,746.26Zm923.54,88.93c-.4-7-6.27-9-9-13.18-.51,7.42,0,14.71-.65,21.91-.66,7.42,4.06,11.41,9,15.7-.55-9.36,3.83-19.37-4.36-27.71Zm-889.55-93c-13.11-.36-22.31-9.92-34.79-12.48.54,1.94,1.32,3.89,2.78,4.72,9.33,5.26,18.8,10.29,28.24,15.36,1,.56,2.2.93,3.77,1.57ZM1562.55,933.29l-2.08,1.63c0,4.62-.06,9.23.06,13.85a3.34,3.34,0,0,0,1.23,2.47c4.32,2.72,8.76,5.27,13.51,8.08,0-2.3.07-4.4,0-6.49-.09-1.93.37-4.37-.66-5.7C1570.86,942.31,1566.6,937.87,1562.55,933.29Zm-1.91,24.3c0,3.93-.09,7.39,0,10.85a5.31,5.31,0,0,0,1.1,3.44c4.32,4,8.84,7.76,13.46,11.75,0-4.79.07-9.56-.06-14.32a3.88,3.88,0,0,0-1.36-2.73C1569.75,963.65,1565.53,960.89,1560.64,957.59ZM860.06,720.32c0-.6-.07-1.19-.11-1.79-25-2-49.9,1.34-74.84,2.15l.07,2.15Zm42.22,9c-2.14-1-3.94-2.63-5.76-2.65-20.73-.18-41.47-.14-62.2-.07-1.06,0-2.11.8-3.16,1.23l.35,1.49Zm253.27-8.86-.22-1.88L1043,723.44c0,.43,0,.86,0,1.29ZM372.94,735.79l-1.72,1.08c.83,2.38.93,6,2.62,7,10.46,5.63,21.29,10.64,32,15.86.37-.43.74-.87,1.12-1.3a21.75,21.75,0,0,0-3.2-3.1c-3.24-2.09-6.7-3.87-9.95-5.95C386.81,744.88,379.89,740.31,372.94,735.79ZM92.44,629.67l-1.55.07c.55,3.12,0,7.42,1.87,9.12,4.58,4.09,10.34,7,15.8,10.45,2-9,1.42-10.35-5.79-14.19C99.34,633.29,95.88,631.48,92.44,629.67Zm1108,92.91a10.13,10.13,0,0,0,1.85.49q22.11.06,44.21.06a13.85,13.85,0,0,0,4.3-.67,9.78,9.78,0,0,0,2.5-1.83,21.67,21.67,0,0,0-2.69-1.43c-.49-.18-1.15.07-1.73.08q-16.17.21-32.33.4C1211.24,719.73,1205.74,718.77,1200.45,722.58ZM108.05,662.72l1.29-.48c-.55-3.56.22-8.44-1.92-10.41-4.15-3.84-9.94-6.05-16.19-9.58.55,4.29-.25,8.6,1.57,10.26C97.24,656.57,102.89,659.4,108.05,662.72Zm.08,41.54c1.52-6.21.53-10.5-4.82-13.39-2.65-1.43-4.93-3.48-7.46-5.14a33.42,33.42,0,0,0-4.45-1.88c.68,4,.15,7.77,1.85,9.4C97.51,697.33,102.79,700.43,108.13,704.26Zm-41-184.49c2.71,8.14,4.68,15.62,7.79,22.64,1.22,2.75,5,4.46,7.59,6.65l.81-.92c-2.18-5.64-5.14-11.14-6.29-17C75.91,525.52,72.1,523.07,67.13,519.77Zm1228.93,241c2.19-10.73-3.9-17.22-9.37-24.23C1282.57,747.28,1289.57,753.48,1296.06,760.72Zm312.54-8.52c1.89-8.81.54-10.7-11.76-17l-4.26,4.69Zm-312.84,23.53c3.77-9.94-4.58-14.81-8.77-22C1283.74,763.86,1289.06,770,1295.76,775.73Zm277.44-11,.92-.92c-2.46-8.64-11.33-12.06-16.82-18.42-.08,3-.39,6.61,1.3,8.22C1563,757.74,1568.27,761,1573.2,764.69Zm-285.86,39.23c-3.18,8.92,2.05,14,8,18.91C1298.65,814.15,1293.15,809.14,1287.34,803.92Zm8.41-1.32c1.32-6.62-2.36-13.56-9.17-16.81,0,3.34-.06,6.53,0,9.73a2.91,2.91,0,0,0,.91,2.11C1290.21,799.39,1293,801,1295.75,802.6Zm-10.54-75.45c1,6.52,7.55,7.2,11.44,11.14C1298.74,726.63,1297.1,725.09,1285.21,727.15Zm10.1,150.3c3-9.05-3.1-13.56-8-18.89C1284.15,867.24,1290,871.93,1295.31,877.45ZM1572,752.59l1.14-.46c-.41-1.53-.3-3.57-1.3-4.52-5-4.8-10.35-9.32-15.57-14-.25,2.19-.3,4.67,1,5.89C1562,744.12,1567.07,748.28,1572,752.59Zm-285,20.11c-3.26,8.89,3.93,12.27,8.7,17.25C1296.86,784.55,1295.05,781,1287.08,772.7ZM70,539.75,62.9,519.23C60.45,531.46,62.27,536.61,70,539.75Zm1217.4,335.47c-1.37,9.63-.53,11.11,8.41,15.27C1297.26,883.1,1288.73,881,1287.35,875.22ZM945.66,722.3l-.21,2.09h32.61l0-.15ZM223.54,644.08c-3.26-6.8-10.3-9.35-16-13.35C210.33,638,217.58,640.32,223.54,644.08Zm27.66,26.11,1-1L236.6,657.56C236.15,661.63,240.75,665.29,251.2,670.19Zm1348.54,59.67c1.88,4.14,5.92,5.86,9.72,8.31C1610.72,732.44,1609.52,731.4,1599.74,729.86ZM1301,980.11l9.53,1.21.36-1-9.18-4.45C1301.38,977.6,1301.2,978.63,1301,980.11ZM398.07,1203.4l6.43,1v-6Zm-47.73-462-1.51-.11.71,14h.8Z"/>
    <path d="M1114.8,692c163.33-7.24,326.69-2.76,490.05-1.07v2.14C1441.52,694.94,1278.18,699.83,1114.8,692Z"/>
    <path d="M749.62,683c-7.61,5.32-267.52,5.14-283.69.27,2.18-.24,4.35-.63,6.53-.69,31-.75,62-1.83,93-2.07,40-.31,79.9-.06,119.86.19,19.89.12,39.79.76,59.68,1.24A22.81,22.81,0,0,1,749.62,683Z"/>
    <path d="M921.93,487.34c6-2.57,309.4-1.17,322.07,1.48-106.62-1-213.25,4.13-319.86-.79A10.91,10.91,0,0,1,921.93,487.34Z"/>
    <path d="M400.62,654C355.8,633.87,314.1,608.18,270.46,586l.88-1.57,130.26,67.9C401.27,652.86,400.94,653.44,400.62,654Z"/>
    <path d="M387.25,667.29c-4.17,1.34-105.82-50.61-108.68-55.31Z"/>
    <path d="M286.09,644.51c7.24,4.38,14.53,8.68,21.7,13.16,9.8,6.12,19.46,12.45,29.33,18.48,1.69,1,4.12.93,6.15,1.52a5.45,5.45,0,0,1,2.4,1.46,41,41,0,0,1,4.29,5.33c.64,1,.61,2.38.88,3.59-1.5.16-3.11.73-4.45.37a4.66,4.66,0,0,1-2.64-2.62c-1.52-4-5-6-8.41-8.12Q310.14,662,285,646.35C285.36,645.73,285.73,645.12,286.09,644.51Z"/>
    <path d="M1289.13,576.51l-79.87-35.1.53-1.13c27.86,9,53.65,22.52,80.17,34.46Z"/>
    <path d="M1227.67,533.05l62.56,24c-.2.48-.39,1-.59,1.45l-62.77-23.66C1227.14,534.22,1227.41,533.63,1227.67,533.05Z"/>
    <path d="M1331,547.65c-4.48.85-33.52-9.84-41.41-15.24C1294.43,531.82,1328.28,544.28,1331,547.65Z"/>
    <path d="M301.07,643.43l-27-16c5.4-2.24,21.38,6.84,27.93,14.74Z"/>
    <path d="M1280.2,541.3l-49-20C1235.42,520.1,1268.09,533.28,1280.2,541.3Z"/>
    <path d="M1361.09,581.2c.39.89,1,2.25,1.56,3.62l-.46,1.14-39.11-15.14.37-1.25c1.26.27,2.54.49,3.78.83a41.56,41.56,0,0,1,4.13,1.36c8,3.13,15.88,6.37,23.9,9.36C1356.69,581.66,1358.53,581.2,1361.09,581.2Z"/>
    <path d="M1583.59,673.47l30.81,13.9-.93,1.92-30.85-14.07Z"/>
    <path d="M401.44,1128.08l-11.95,15.41-1.44-1,11.79-15.56Z"/>
  </g>
</svg>
