<svg id="Layer_1" data-name="Layer 1" xmlns="http://www.w3.org/2000/svg" width="600mm" height="600mm" viewBox="0 0 1700.79 1700.79">
  <title>sketches frames</title>
  <g>
    <path d="M1326,594.06l-12.8-11.39.76-.88c4.37,3.46,8.8,6.84,13.09,10.41a13.72,13.72,0,0,0,9.23,3.39c30.26,0,60.52.1,90.77,0,4.43,0,8.85-1.2,13.29-1.76,3.32-.42,6.66-.75,10-1.06,2.14-.2,4.28-.29,7.06-.47-1.63-3.67-4.79-2-7.19-4l7.24-2.16c1.58-6.52,3.2-13.18,5-20.67-2.41-.18-4.52-.47-6.62-.49q-48.75-.44-97.49-.85a28.84,28.84,0,0,1-8.56-1.34c42.91-1.91,85.84-1.83,129.11-2.73-21-22.9-43.53-43.89-66.55-64.27s-46.51-40.3-69.79-60.43l.66-1.4c1.41.54,3,.79,4.21,1.64,12,8.49,24,16.95,35.85,25.69,6.35,4.7,12.34,9.92,18.92,15.25.54-3.67-1.67-5.12-3.55-6.75-11.65-10.14-23.32-20.24-34.93-30.42-5.64-4.94-11.24-9.93-16.68-15.08a10.45,10.45,0,0,0-8.43-3.1c-7.47.36-15,.92-23.44-2,7.48-3.39,14.43-2.17,21.39-2.71l1.69-4.8c5.08,4.39,9.65,8.39,14.26,12.34q30.48,26.18,61,52.32c3.6,3.09,6.91,6.2,9.09,10.82,1.69,3.58,4.88,6.62,7.92,9.27,7.35,6.41,15,12.5,22.54,18.65,16.18,13.14,32.43,26.19,48.57,39.37,3.19,2.6,6,5.64,9.43,8.86l-5.34,3.22c1.57,13.13-.2,26.18-4.7,39.18-5.13-2.18-3.72-7.1-5.15-10.94-2.3,5.18-6.93,3.63-10.65,3.75-10.63.35-21.27.12-31.87.12,0,6.4-.09,12.11,0,17.82.21,9.94.61,19.87.78,29.81a15.14,15.14,0,0,0,3.17,9.56c14.59,18.75,28.75,37.81,45.49,54.69,20.85,21,39.41,44.26,58.17,67.26,9.81,12,19.84,23.85,30.18,35.38,11.82,13.21,24,26.07,36.21,38.92,5.43,5.73,9.09,13.13,16.11,17.43,1.35.82,1.7,4.11,1.78,6.29.26,6.7.19,13.41.19,20.12q.07,74.22.12,148.46.15,86.37.51,172.73c.07,13.36.7,26.74,1.89,40,.37,4.23.66,8.12-1,11.85-.77,1.7-2.43,3.76-4,4.11a59.18,59.18,0,0,1-12.6,1.31c-4,0-8-1.11-11.94-1-51.08,1.14-102.18,1.84-153.24,3.84-41.41,1.62-82.76,4.88-124.14,7.33-27.5,1.63-55,3.13-82.53,4.65-2.44.13-4.89,0-7.28,0-2.64-5.07-4.62-10-7.58-14.3-5.27-7.57-7.57-16.34-11.1-24.68a797.54,797.54,0,0,0-49.54-98.37c-1.51-2.54-3.18-5.21-3.82-8.06-3.23-14.2-10.84-26.3-17.27-39-17.25-34-34.73-67.79-52.08-101.69-12.44-24.31-24.57-48.79-37.36-72.9-5.58-10.51-13-20-18.62-30.45-4.92-9.15-9.87-18.54-11.17-29.9l4.35,2.34c0-3.94,0-7.33,0-10.72q.12-54.45.25-108.91c0-3.87.24-7.63-1.91-11.35-1.24-2.17-1-5.39-1-8.14q-1.05-53.4-1.94-106.8c-.09-5.75.4-11.51.63-17.27l1.44-.06c.63,11.91,1.31,23.83,1.89,35.74.61,12.47,1.33,24.94,1.61,37.42.28,12.12.06,24.25.06,36.37h1.38c0-1.35,0-2.71,0-4.06q-.43-53.4-.88-106.82c-.07-7.6-.55-7.92-8.4-7.91-52.22.08-104.45.26-156.67.18-9.37,0-18.75-1-28.12-1.66-11.61-.81-23.22-1.73-34.91-3.1,4-.17,7.93-.5,11.89-.5q71.61,0,143.23.09c20.84,0,41.68.13,62.53.06,4,0,8-.68,12-1a13.39,13.39,0,0,1,2-.18c49.88,2.45,99.79,1.26,149.69,1.72q19.14.18,38.27.19,36.28,0,72.56,0h13.21C1325.79,594.94,1325.88,594.5,1326,594.06Zm38.74,77.57c1.93.38,3.51.41,3.51-2.41,0-6.67.17-13.34.18-20,0-3.05-2-4.21-5.15-5.27.16,9.65-.35,18.71,1.54,27.7-.28,6.14-.66,12.27-.81,18.4,0,2.34.78,4.39,4,5C1367.3,686.9,1370.15,678.72,1364.72,671.63Zm-252,29.79c-3.6-7.92-10.24-16.54-15-19,.41,4-.29,8.27,1.37,11.05,4.62,7.74,10.22,14.85,16.12,23.17-.93-5.3-1.63-9.32-2.33-13.33,2.74,6.62,5.25,13.32,6,20.73-8.35-7-12.51-17.41-20.87-26.4,0,12.38-.57,23.19.24,33.89.41,5.38,4,10.16,8.56,15.19.72-10.06,1.34-18.78,2-27.49l1.29.09c-.1,9.16,1.53,18.29-.62,27.51a13.22,13.22,0,0,0,1.15,8.58c5.43,9.82,11.32,19.37,17.19,28.92,1.33,2.17,2.8,4.48,6.2,5.72-1.58-11.37-6.62-20.81-8.88-31.23l11.2,24.31c1-16.22,1.07-32.14.85-48.06a13.08,13.08,0,0,0-2.59-6.84c-6.12-8.53-12.48-16.89-18.86-25.23C1115.11,702.18,1113.78,701.93,1112.77,701.42Zm333.68-89.74.14.17a13.16,13.16,0,0,0-.66-10.8,107.29,107.29,0,0,0-23.73,11.2c-2.58,1.67-2.73,3.88-2.69,6.51.11,9.46.16,18.92.2,28.38q.19,52.35.38,104.7c0,1.75.33,3.51.49,5.1l26.89,1.56c.21-2.28.45-3.64.45-5q-.09-67.95-.28-135.9C1447.64,615.62,1446.86,613.65,1446.45,611.68Zm-240.83,444.23a45.88,45.88,0,0,1,5,5.28c7.7,11.09,15.2,22.32,22.89,33.42,4,5.71,8.17,11.25,12.26,16.86l1.44-.56c0-2.21,0-4.43,0-6.64q-.72-44.05-1.43-88.1a30,30,0,0,1,.64-7.53c1.83-7.43,2.13-14.43-2.88-20.91-3.63-4.69-6.77-9.78-10.26-14.59-10.74-14.81-21.65-29.49-32.29-44.37-18.63-26-37.11-52.21-55.68-78.29-1.35-1.89-3-3.57-4.46-5.35-1.2,6.86-.91,13.06-1.29,19.23-.34,5.65.92,10.47,4.59,14.67.34.39.28,1.15.47,2.08l-4.94-1.45c0,5.31,0,10.15,0,15s.34,9.75-.09,14.57c-.42,4.61,1.9,9.53-1.43,14.55l-26.84-64.06c-.73,1.14-1.14,1.49-1.14,1.82.28,16,.48,31.9,1,47.84a26.38,26.38,0,0,0,2.29,9.27c6.24,14.59,12.7,29.08,19.09,43.6.7,1.57,1.49,3.1,2.89,6,1-5.94.8-10-.81-14.28-1.43-3.79-1.83-8-2.64-11.79l6.36,4.4c1.91,4.11,3.13,7.81,5.16,11,13.07,20.19,26.32,40.25,39.5,60.37a33.13,33.13,0,0,1,3,5.37c.33.8,0,2.53-.55,2.9a3,3,0,0,1-2.94-.33,55.37,55.37,0,0,1-5.2-7.2c-6.44-10.57-12.72-21.24-19.17-31.8-4.75-7.78-9.67-15.44-15.35-24.46-1.16,3.52-2.5,5.68-2.5,7.84,0,22,.08,43.94.45,65.9a28.59,28.59,0,0,0,2.5,11.3c2.49,5.38,6,10.23,8.91,15.42,17.12,30.65,34.31,61.25,51.2,92,7.83,14.27,15,28.92,22.56,43.37,1.09,2.07,2.47,4,3.71,6l1-.65c.06-1.11.11-2.22.23-4.52l15.09,24.15c.73-1.26,1.12-1.62,1.12-2,0-28,.1-56,0-84,0-1.88-1-3.87-1.89-5.62-2.86-5.64-5.88-11.19-9.26-17.55,7.32-.86,6.61,6.8,10.66,8.56,1.39-3.29-.11-5.66-1.83-8.16q-19-27.74-37.9-55.56a13.76,13.76,0,0,1-1.16-3.11Zm384.79-222.17a40.36,40.36,0,0,1-4.93-4.25q-27.42-32.38-54.71-64.89Q1512.5,742.85,1494.4,721c-1.27-1.52-3.38-4-2.93-5,1.43-3.24-.69-4.73-2-6.61-4.92-6.89-10.15-13.54-14.85-20.58-5-7.47-13.19-10.53-19.79-17.51-.31,2.5-.55,3.58-.57,4.66-.34,24.5-.62,49-1,73.5-.06,3.72-.25,7.26,4.3,9l-7.12,6.4c-2.72-2.33-5.46-5.49-8.8-.91-.31.43-1.64.05-2.5.06a87.75,87.75,0,0,0-9.18.13c-4,.45-7.92,1.68-11.91,1.91a9.17,9.17,0,0,1-6-2c-6.17-5.33-12.07-11-18-16.61a5.74,5.74,0,0,1-1.88-2.7c-1-5.77-2.35-7.93-7.18-10.67.14,1.61.25,3,.4,4.73l-4.17-2.9c-.61,1.07-1.13,2-1.78,3.08-8.07-4-17.56-4.33-24.34-13.4l21.07,7.86.27-.72-20.65-21.51c-5.17,2-7,1.56-6.67-2.19.37-4.54-2.17-6.75-4.69-9.33-13.2-13.51-26.55-26.88-39.52-40.62a30.82,30.82,0,0,0-14.21-9.06c-14.81-4.48-29.32-10-43.9-15.22-3.08-1.11-5.84-1.58-8.29.87-6.59-6.36-15.05-7.78-22.69-11.35l14.25,3c-2.1-5.61-5.48-7.73-10-8.7s-8.68-2.27-13-3.52c-1.45-.42-3.14-.76-4.2-1.73-4.51-4.12-10.1-5.26-15-6.93-1.93,3.12-3.5,5.63-5,8.12l2.55,2.27c-6.61-2.74-13.08-1-19.52-.93-12.54.15-25.09-.2-37.63-.29a45.58,45.58,0,0,0-5.53.7l6.82,4.44h-13.16c1.85,2.4,5.68,3.48,4.24,8.12-16.16-1-29.16-12.29-45.09-13.24l47.38,19.8-.49,1.36c-3.91-1.45-7.84-2.84-11.73-4.36-4.19-1.63-8.31-3.46-12.51-5.05-3.73-1.41-7.23-3.79-11.66-3.14a13.92,13.92,0,0,0,5,4.09q32.41,13.39,64.88,26.6c2.51,1,5,2,7.55,3a146.37,146.37,0,0,1-25.1-7.31c-8.39-3.2-16.62-6.86-24.92-10.34-7.86-3.29-15.41-7.44-24.51-10.68a41.36,41.36,0,0,0,1.56,3.89c7.33,13,14.8,25.81,23.68,37.8,13.73,18.54,27,37.45,40.25,56.36,7.6,10.84,13.64,22.7,22,33.1,28.23,35,56,70.4,83.74,105.83,4.31,5.51,9.76,6.85,15.89,7.46,5.57.55,11.24,1.65,15.08-4.3.24-.39,1.07-.38,2.71-.89-1.21,1.68-1.86,2.48-2.39,3.35s-.93,1.8-1.59,3.11c11.32,1.41,21.93,2.6,30.75-2.08,3,.94,4.8,2.08,6.63,2q24.52-.6,49-1.56c29.55-1.13,59.09-2.62,88.65-3.46,44.8-1.27,89.61-2,134.41-3.23,8.17-.22,16.32-1.49,24.89-2.32a16.72,16.72,0,0,0-1.27-2.84,19.31,19.31,0,0,0-1.9-1.94c-11.46-11.3-22.74-22.74-29.59-37.89a15.4,15.4,0,0,0-2.54-3.21q-18.63-21.88-37.29-43.74a38.64,38.64,0,0,0-3.79-3.3c0,2-.27,3,0,3.72,2.78,6.48,5,13.05,9.94,18.56,10,11.23,19.31,23.11,28.84,34.78a46.64,46.64,0,0,1,3.17,5.08ZM1263.68,984c5.89-9.95,11-19.11,16.59-27.91,8.84-13.85,15-20.05,22.5-22.49-2.3,3.23-3.68,5.75-5.58,7.75-12.68,13.35-21.94,29.14-30.94,45.18-4,7.16-3.1,14.33-2.55,23.18,10.26-16.11,15.92-33.79,30.37-45.13a12.66,12.66,0,0,1-2.1,5.4c-8.33,12.87-16.57,25.81-25.12,38.51a22.81,22.81,0,0,0-3.87,13.61c.16,19.65.3,39.31.19,59,0,5.88-.92,11.75-1.43,17.8l-4.47-1.57c.33,6.89.44,13.13,1,19.33.5,5.67-.8,11.61,2.29,17,.32.56-.32,1.68-.44,2.55a41.68,41.68,0,0,0-.7,6.06c.27,23.35.77,46.71.9,70.06.08,12.48-.35,25-.73,37.44-.08,2.73-.26,5.84-1.54,8.09-3.35,5.87-.7,10.91.77,16.52,10.85-1.12,21.3-2.45,31.78-3.23,19.44-1.43,38.9-2.89,58.37-3.66,16.33-.64,32.8-1.48,49,0a262.34,262.34,0,0,0,41.56.68c9.84-.68,19.64-1.77,29.47-2.57,2-.16,4.85-.65,5.76.42,2.58,3,5.72,2.38,8.65,2.35,12.77-.13,25.54-.5,38.31-.87,4.29-.12,8.57-.49,12.85-.75,0-.46,0-.91,0-1.36-10.73-2-21.69-1.15-31.62-1.55,10.25-.83,21.33-2,32.43-2.55,13.21-.61,26.44-.78,39.66-.88,19.27-.15,38.55-.06,57.83-.12,2.15,0,4.29-.26,6.62-.41v-21l-4.74,7.9c-1.15-4.54-2.49-7.73-2.69-11-.6-10.15-1.09-20.33-1-30.49.15-31.25-.65-62.47-4.4-93.47-2-16.15-2-32.22-1.76-48.38.48-28.2,1-56.41,1.4-84.62,0-2.8-.81-5.61-1.31-8.86,2.49-1.42,1.69-4.66,1.75-7.58q.69-32.6,1.36-65.19c0-1.85.42-3.69.64-5.54a6.33,6.33,0,0,1,1.93,4.45c.14,3.23-.37,6.58.27,9.69,2.89,14.15,2.6,28.48,2.89,42.79q.8,38.51,1.58,77c.05,2.68.36,5.35.55,8a6,6,0,0,0,1.18-4q-.42-46.83-.87-93.66c-.16-13.86-.61-27.73-.79-41.59,0-2.25.09-4.8,1.07-6.68,1.81-3.48,1.62-6.94,1.72-10.8-5.82,0-11.16.18-16.48-.07-2.85-.13-7,0-8.23-1.76-2.36-3.27-4.82-2.46-7.55-2.33-7.16.35-14.32.91-21.49,1.09q-80.65,2.06-161.31,4c-19,.5-38.08,1.38-57.12,2a7.24,7.24,0,0,0-6.6,3.59q-28.48,42.5-57.29,84.76c-1.15,1.69-2.58,3.18-3.88,4.76l-1.06-.95c19.58-31,40-61.42,61.89-91-10.73,0-20.74-.16-30.75,0-11.62.24-11.6.39-19.14,9.64-16,19.71-29.36,41.39-43.21,62.71-5.9,9.07-9.18,18.21-8.47,29,.26,4,0,8.05,0,12.07,5.49-6.64,2-14.6,4.41-22.72C1262.59,976.06,1263.06,979.52,1263.68,984ZM1139.23,736.86a17.32,17.32,0,0,0-.37,2.6q.32,45.06.74,90.13a16.33,16.33,0,0,0,1.62,6.6c3.24,6.83,6.57,13.58,11.61,19.35a201,201,0,0,1,12.51,16.3c16,22.57,31.65,45.38,47.85,67.79,9.77,13.51,20.3,26.43,30.5,39.6.88,1.14,1.87,2.19,3.83,4.46.19-34.53.1-67.4-4.45-99-2.83-2.72-6.5-.93-7.83-4.91l5.69-2.59c-1.37-2.64-2.59-5.32-4.09-7.82q-8.29-13.86-16.76-27.6c-7.7-12.47-15.08-25.17-23.32-37.26-12-17.57-24.58-34.69-36.94-52a12.78,12.78,0,0,0-2.74-3C1151.31,745.35,1145.46,741.27,1139.23,736.86Zm119.69,220.75,1.54.36c14.67-26.22,29.76-52.16,49.42-75.67h-15.79c-2.39,9.92-9.47,2.6-13.94,4.65q-2.94,3.56-5.83,7.08l-.71-.52c1.33-2.49,2.66-5,4.61-8.61-2.86.5-5.45.14-6.4,1.26-5.09,6-10.89,11.44-11,20.57-.2,12.66-1.26,25.31-1.83,38C1258.76,949,1258.92,953.31,1258.92,957.61Zm-123.24,72.17c-.35-3.37-.68-5-.65-6.55.22-12.93.42-25.85.81-38.77a30.47,30.47,0,0,0-2.55-13.4c-6.43-14.74-12.56-29.63-18.83-44.44-.57-1.33-1.38-2.54-2.08-3.81-1,9.29-.77,18.27-1,27.23a48.58,48.58,0,0,0,3.44,20.25c3.46,8.52,6.6,17.18,9.82,25.79.61,1.62,1,3.33,1.47,5-7.48-7.09-8.67-17.57-14.29-27.06-.39,5.94-.94,10.36,1.43,14.74,6.77,12.5,13.29,25.15,19.94,37.72A37.54,37.54,0,0,0,1135.68,1029.78Zm-.12-119.48c.72-1,1.14-1.38,1.14-1.71.06-10.63.14-21.27,0-31.9a13,13,0,0,0-1.24-5.3q-11.58-24.63-23.38-49.16a28.26,28.26,0,0,0-2.45-3.57,156.19,156.19,0,0,0-.17,25.84,28.46,28.46,0,0,0,1.79,8.71c5.9,14.49,12,28.89,18.09,43.29C1131.29,901,1133.38,905.45,1135.56,910.3Zm-26.78-128.2c0,8.77-.1,16.58.08,24.38a13.66,13.66,0,0,0,1.61,5.21Q1122,836,1133.59,860.2a28.37,28.37,0,0,0,2,3.12,122.24,122.24,0,0,0,1.05-22.74c-.13-3.46-.51-7.24-2-10.24-7.72-15.64-15.82-31.07-23.81-46.56C1110.64,783.42,1110.17,783.22,1108.78,782.1Zm298.84-37c3-1.46,3.73-3.66,3.63-6.45-.63-17.54-1-35.1-1.85-52.63-.88-17.75-2.23-35.48-3.42-53.21a32.69,32.69,0,0,0-.86-4.23l-1.58-.24c-.68,1.73-1.75,3.42-2,5.2a88.72,88.72,0,0,0-.53,11.75c.37,14.32,1,28.63,1.37,43,.41,15.71.61,31.42,1,47.13C1403.49,739,1403.38,742.86,1407.62,745.08ZM1095.43,876.86l1.08-.14q1.11-11.79,2.21-23.6a60,60,0,0,1-.42,16.3c-2.3,12.26,2.49,22.29,8.17,32.51.56-.72,1-1,1-1.35.08-15.71.29-31.42.08-47.12-.07-5.33-3-9.76-6.69-14.94-.27,3.38-.44,5.58-.61,7.78-.81-6.64,1-13.76-5.47-20-.15,16.47-.32,32-.39,47.63A9.2,9.2,0,0,0,1095.43,876.86ZM1073.18,646l-1.43.66c0,12.24-.12,24.49.1,36.72a16.5,16.5,0,0,0,2.26,7.09c4.38,8.07,9,16,13.54,24a40.08,40.08,0,0,0,3,3.75c.64-7.21,1.17-13.24,1.7-19.39-5.65-1.83-5.93-2.14-7.33-8.6-.2-.9-.24-1.84-.46-2.73-2.89-11.63-5.75-23.27-8.75-34.86A55.39,55.39,0,0,0,1073.18,646Zm319.51,84.8,1.44-.14a31.16,31.16,0,0,0,.68-4.47q.35-34.18.54-68.38c0-1.24-.93-2.49-1.71-4.44-.84,6.36-1.79,11.63-2.18,16.94s-.09,10.61-.36,15.91-.85,10.34-1.3,15.5a12,12,0,0,1-.94-5.62q0-14.88,0-29.77c0-2.77-.05-5.51-3.3-5.56v63l5.08-2.59Zm-311.9,65.31-1.76.58c0,1.82,0,3.65,0,5.47.41,12.7.82,25.39,1.3,38.08.23,6.35,5.13,18,10.12,23.77V814.78c-4.33,1.27-5.56-1.16-6.06-4.5a67.22,67.22,0,0,0-1.16-6.81C1082.59,801,1081.62,798.55,1080.79,796.1Zm29.47-33.7-1.61.58c0,4.95-.51,9.79,2.12,14.6,7.79,14.24,15.23,28.67,22.84,43,.66,1.24,1.56,2.35,3.2,4.77v-29c-7.82-2-11-9-15-14.91C1117.67,775.31,1114.08,768.77,1110.26,762.4Zm-11.57,128.08-1.69.37a90.48,90.48,0,0,1-.73,10.18,50.12,50.12,0,0,0,5,33.3c2,3.7,3.24,7.79,4.84,11.7l1.5-.32c0-8.6-.53-17.24.13-25.79C1108.56,908.54,1102.33,900.05,1098.69,890.48Zm-25.31-196.11-1.61.49c1.31,8.7-2.85,18.2,4.58,27.69.29-5.67.49-9.72.75-14.7.82,7.34.39,14.16,2.57,19.93s6,11.11,12,16.56c-.79-7.74,0-14.46-2.31-19.82C1084.92,714.07,1078.8,704.38,1073.38,694.37Zm187.82,306.39-2-.31c-.71,2.06-2,4.12-2,6.19-.1,26.82-2.88,53.71,1.77,80.44,1.13-14.35,4.94-28.34,3.9-42.93C1261.8,1029.72,1261.7,1015.23,1261.2,1000.76ZM1476.58,583l-1.71.2c-.34-5.89-.68-11.78-1-17.79h-8.28c-1.17,7.14-2.27,13.85-3.4,20.79h21.46V565.58h-5.94C1477.29,571.7,1476.94,577.37,1476.58,583Zm-118.11,693.49c-32.4-1.41-64.87.27-97.55,1.78.64,4.39,3.23,3.75,5.31,3.72,11.78-.17,23.59,0,35.35-.76C1320.56,1280,1339.51,1278.14,1358.47,1276.53ZM1098.79,827.29l1.85-.47q.42-4.68.86-9.36c.58,8.43-1.56,17.44,6.22,25.3,0-10,.23-18.89-.13-27.79-.11-2.75-1.83-5.43-3.07-8.85l-2,2.16c.48-6.53-2.43-11.76-7.13-16.35a172.79,172.79,0,0,0-.44,24.89C1095.17,820.39,1097.44,823.81,1098.79,827.29Zm-19.2-65.56c.45,11.18-3.47,22.7,2.55,33.11,6.23,0,6.24.11,6.8,5.38.28,2.6-1,5.68,2.21,8.83,0-6.65-.55-12.25.11-17.68C1092.76,779.12,1085,771,1079.59,761.73Zm1.61,90.92c0,11.1-.55,20.81.18,30.42.57,7.46,4.62,13.94,8.37,20.44.78-6.57.22-13,.91-19.33C1091.93,872.58,1086.88,863.29,1081.2,852.65Zm24.69,122.93c1.73-8.37,2.28-16.13-1.28-23.69-3.37-7.16-5.34-15-9.54-22.57-1,5.58-1.81,10-2.44,14.48a7.06,7.06,0,0,0,.72,3.31c2.49,6.39,4.93,12.81,7.63,19.11C1102.36,969.45,1104.24,972.47,1105.89,975.58Zm-15.13-203.35c0-7.34,1.45-14.82-.41-21.29s-6.06-12.37-11-17.58C1075.38,748.91,1081.9,760.7,1090.76,772.23ZM1219.13,608.3c1.65,4.7,4.47,5.93,7.5,6.93q22.92,7.59,45.84,15.17a28.35,28.35,0,0,0,3.65.66c-2.21-4.19-5.56-5.52-8.91-6.74-8.83-3.21-17.65-6.46-26.55-9.45C1233.92,612.6,1227.07,610.7,1219.13,608.3ZM1081.89,897.69c-1,5.36-2.16,10.18-2.7,15.08-.62,5.58,5.45,19,10.23,23.67C1091.36,922.66,1089.94,909.61,1081.89,897.69Zm248.23-289.26-1.56.48c1.56,6.43,1,12.91.7,19.32-.33,7,3.55,10.15,9,13.82.16-3,.42-5.27.37-7.48-.12-4.8-1.43-9.86-.33-14.32s0-6.45-3.23-8.43C1333.37,610.77,1331.77,609.57,1330.12,608.43Zm-39,39.61c-10.1-7.8-52.86-24.52-59.26-24.26,1.78,4.12,5,6.1,9.09,7.39,8.53,2.71,17,5.74,25.45,8.61C1274.59,642.56,1282.83,645.29,1291.07,648ZM1098.9,764.67c-1.2,4.73-2.44,9.09-3.37,13.51a7.73,7.73,0,0,0,.29,4.73c3.45,6.78,7.17,13.42,11.53,21.45C1108.53,789.1,1109.61,775.53,1098.9,764.67ZM1329.64,638.9c0,5.09-.05,9.2,0,13.31.09,6.58,1.37,8.34,8.8,11.64,0-3.27-.35-6.26.07-9.14C1339.55,647.55,1336.46,642.91,1329.64,638.9Zm-255.9,144-1.77.3c-.33,13.51-.76,27-.88,40.53,0,2,1.39,3.93,2.31,6.35.93-1.2,1.39-1.52,1.4-1.85.36-13.12.77-26.23.9-39.35C1075.72,786.88,1074.43,784.88,1073.74,782.88Zm295.43-154c.34-6.44.78-12.32.93-18.21.14-5.14-.54-5.57-7-5.17,0,5.67,0,11.4,0,17.12C1363,626.37,1365.24,627.71,1369.17,628.91ZM1098.73,741.52c-2.45,11.63.24,20.28,8.67,27.28C1109,758.46,1104.3,750.51,1098.73,741.52Zm164.81,135.75c-2.92-2.59-5.7-4.5-7.77-7a157,157,0,0,1-9.61-13.26,81.73,81.73,0,0,0-12.73-14.93c6.51,10.92,13.45,21.46,20.56,31.88C1256.3,877.32,1259.39,879.17,1263.54,877.27ZM1075,779.77c0-10.21,3.91-20.64-2.08-30.26C1072.64,759.7,1070.11,770,1075,779.77Zm272.09-148.64c0,6.22,0,12.14,0,18.06,0,2.79,1.41,4.47,4.73,5.62.2-6.09.23-11.51.61-16.9C1352.68,633.94,1350.87,632.08,1347.06,631.13Zm-9.89,49.09c1-10.91.17-12.63-7-15.58C1328.44,671.48,1330.72,676.47,1337.17,680.22Zm-35.24-71.71-2-.37c-.18,5.61-.48,11.21-.51,16.82-.07,13.9,0,13.9,2.47,17.11ZM1075.79,747.2c1.81-16.75,1.37-19.63-3.91-24.18C1072.7,731.15,1069.69,739,1075.79,747.2Zm-25.32,30.56c2.85-9.89,2.18-25.65,0-29.25Zm21,55.08c.13,10.28-2.43,20.83,1.65,30.92C1075.19,851,1074.56,837.69,1071.43,832.84Zm.47,69.22c3.28-10.72,2.65-25.14-1.09-29.66C1071.05,882.75,1070.42,892.44,1071.9,902.06Zm314.2-279.59-2,.37c.24,5.64.36,11.29.85,16.91.08.84,1.91,1.51,4.25,3.24C1387.69,635.25,1392.21,628.09,1386.1,622.47Zm-190-19.34-.56,1.5,21.55,7.15C1211.77,603.82,1204,603.4,1196.11,603.13ZM1359.21,686c2-13.61,1.61-16.44-2.36-19.07C1357.72,673.62,1354.83,680.17,1359.21,686Zm-10.31-9.88,2.39-.2c0-4.81,0-9.62,0-14.43,0-2.52-1-4.25-4.6-4.49C1348.36,663.55,1345.23,670.27,1348.9,676.11Zm-32.75-67.93v13.64l4.91-2v-11.6Zm120.45-8.54c-5.9-.57-14.36,2.93-16.7,6.53-.76,1.18-.41,3.12-.67,5.73ZM1050.47,811.21c1.62-9.39,2.76-18.68,0-28.07Zm11.74.85c-2.1,12.62-1.61,21.45,1.39,25.32C1065,825.61,1064.46,816.69,1062.21,812.06Zm285.12-205.72c-.63,8.36-.63,8.36,5.41,11.1.18-3.8.35-7.31.54-11.39Zm12.21,58c1-9.27.48-20-1.07-23.61C1357,648.91,1357.21,659,1359.54,664.3Zm102.3-73.49c6.62,2.42,17.4,1.86,22.51-.93C1476,589.85,1469,589.66,1461.84,590.81ZM1063,806.46c1.81-8.12,1.5-13.14-1-16.83C1061.82,795.23,1060.63,800.46,1063,806.46Zm297.31-200.77c-2.83,4.58-2.62,12.1,0,16.1Zm32.9,24.32c-.11,5.16-2,10.43,1.06,15.32C1394.62,640.16,1396,635,1393.16,630ZM1061,844.25c-.85,10.07-.79,10.38,2.49,14.23C1064.77,853.62,1064.05,849.5,1061,844.25ZM1377,683l.37.27V657.4H1377Zm-16.82,20.87c-.2-4.88,2-9.49-3.37-12.13C1355.65,699.49,1355.65,699.49,1360.15,703.85Zm-11.07-11.06c2.11-7.82,2.11-7.82-1.37-10.85C1346.2,690.34,1346.2,690.34,1349.08,692.79Zm-32.89-50.1c2.74-10.69,2.72-11.31,0-15.15Zm323,289.28c1.63-13.94,1.51-16-1-20.33C1638.58,918.93,1638.9,925.45,1639.23,932ZM1090,670.62c1.07,4.91,1.92,8.79,2.77,12.67l1.32-.31C1093.9,678.92,1095.62,674.42,1090,670.62ZM1620.16,872c4,.15,8,1.52,12.78-.92C1627.66,868.78,1624,871.77,1620.16,872Zm-306-218.06c-.3-2.44-.59-4.88-1.06-8.84C1310.49,649.28,1309.34,651.82,1314.2,653.92Zm176.65-67.54a37,37,0,0,0-.85-13.58C1489.94,577.35,1488.91,582,1490.85,586.38ZM1377,631.14h.33V617.23H1377Zm-64.78,9.21.72-.29V626.28l-.72,0Zm103.49-17.86h.87v-14h-.87Zm84.5-62.64-5.87-5-.83,1.11C1495,557.8,1495.2,561.5,1500.23,559.85Zm-204,60.24h.79V608.85h-.79Zm-201.75,273h.6c.14-2.85.28-5.69.43-8.54l-1,0Zm-28.45,10.19,1.41-.72-3.34-7.08-1.58.81Zm252.28-241.85c.61-.37,1.22-.74,1.84-1.1l-3.41-6.41-1.48.77C1316.3,656.94,1317.32,659.18,1318.34,661.43Zm92.31-4.2.36,0v-8.62l-.36,0ZM1072,910.44l-1.56.81q1.81,3.3,3.65,6.6l1.22-.68Zm195.25-23.53c-3.6-.48-4.1,1.53-4.5,5.53Zm46.24-277.12-.82,0v6.33l.52,0Zm-233.13,9.91-1.11,1.32c1.13,1.62,2,3.63,6.38,2.88C1083.09,621.91,1081.7,620.81,1080.32,619.7Zm271.1,6.5c.29-.58.59-1.16.89-1.74l-4.82-3-.9,1.53Zm-97.72-20.26.42-1.62-4-.67c-.07.28-.13.57-.19.85Zm133.84,46.45c.41-.47.83-.94,1.25-1.4l-3.47-2.6-.89,1.12Z"/>
    <path d="M185.14,1081.58l35.7,3.12-.1,1.08c-15.46-.37-30.91-.86-46.37-1-5.36-.06-10.72.94-16.08.92-14.35-.07-28.69-.45-43-.68-3.93-.07-7-1.34-7.88-6.07-1.07-.15-2.16-.28-3.24-.47-4.65-.84-5.32-1.62-5.32-6.2,0-31.19,0-62.38-1.11-93.68l-2.58,12.14-1.51-.17a28.48,28.48,0,0,1-.41-3.42q.24-42.66.54-85.31c.14-15.93.42-31.86,1.7-47.8l2.13,48.43h.6c.27-21.09.23-42.2.91-63.28.5-15.66,2.88-31.24,2-47a3.55,3.55,0,0,1,.24-2c4.07-6,2.76-12.92,2.75-19.51,0-25-.22-50-.44-74.93,0-3.13-.59-6.25-1.05-10.78-3.52,6.29-2,11.73-2.42,16.88S99.91,712,99.87,717a124.29,124.29,0,0,1-.73,15.89c-2.1-10.63-1.48-21.36-1.32-32.09.18-11.33.12-22.66.15-34q0-16.65.07-33.3c0-11,0-22.1,0-34.08-3,0-6.3,0-9.59,0-4,0-8.14-.62-12.09-.05-8.32,1.19-14.8-3.72-22-6.3-.5-.18-.78-1-1.82-2.45l11.22-.81V563.38C75.5,550.77,86,538.8,97.26,527.56,105.61,519.21,115,512,123.67,504c11-10.17,22-20.45,32.65-31a397.42,397.42,0,0,1,41.37-35.38c5.07-3.79,9.81-8.07,14.84-11.94a10,10,0,0,1,5.18-2.33c20.6-.69,41.21-1.16,61.81-1.72,7.83-.22,15.64-.84,23.31,1.83,2.21.76,4.9.4,7.32.09,45-5.86,90.27-6.65,135.52-7.29q53.79-.75,107.59-.57c43.26.17,86.52,1.23,129.78,1.19,34.06,0,68.12-1.29,102.19-1.79,27.34-.4,54.69-.58,82-.69q171.48-.72,342.94-1.25c29.36-.06,58.71.82,88.07,1.33a66.15,66.15,0,0,1,12.07,1.27c-4.75.26-9.5.71-14.24.74q-109.95.69-219.89,1.23c-46.84.18-93.72-1.09-140.53.29-44.82,1.32-89.57-2-134.34-.15a270.2,270.2,0,0,0-29.54,2.44l98.46,2q-184.47,3.11-369,1.57l106.8-2.71v-.53c-7.32-.35-14.63-.93-22-1-27.35-.24-54.7-.56-82-.35-18.36.14-36.72,1.28-55.08,1.69-11.88.27-23.76,0-35.64.06-9,0-17.72-1-26.8,2.2C378.3,426.09,369,426,360,426.77c-23.48,1.93-47,1.91-70.55,1.56-22.18-.32-44.37.39-66.56.63-2.72,0-5.32.3-7.31,3.32h50.81l.08,1.42c-5.88.51-11.75,1.32-17.63,1.46-10.31.23-20.67.62-30.92-.18-5.95-.47-9.2,2.36-12.4,6.38-2.66,3.34-5,7-7.93,10.08Q149.43,500.81,101.08,550c-1.94,2-4.59,3.69-4.33,7.59,3.75.15,5.42-2.61,7.35-4.5,6.85-6.66,13.34-13.72,20.29-20.26,11.92-11.21,23.8-22.49,36.24-33.05,7.53-6.39,16.09-11.49,25-16.24-1.44,1.44-2.83,2.94-4.33,4.31q-27.67,25.3-55.37,50.6c-5.56,5.08-9.16,10.57-13.47,20.36,4.06,0,7.78-.11,11.49,0,8,.3,16.1,0,23.64,3.94,1.82,1,4.4.44,6.63.44,39.46.07,78.91,0,118.36.19,13.45,0,26.89.44,40.34.71,2.2.05,4.39.3,7,.49-1.25,3.61-3.86,2.51-5.73,2.54q-28.57.47-57.15.67c-17.71.12-35.42,0-53.13.08a15.14,15.14,0,0,0-6.71,1.31c5.22,3.36,10.78,6.28,15.58,10.19,7.13,5.82,15,7.28,23.81,7.2,9.84-.08,19.69.68,29.53,1.27a16.55,16.55,0,0,1,6.71,2.26c-6.32,4.5-13.48,3.57-20.31,4.85,5.81,0,11.63,0,17.44,0,47.3-.2,94.6-.62,141.9-.53,26.43,0,52.91,2.14,79.3,1.22,85.79-3,171.58-.36,257.37-1.32a17.82,17.82,0,0,1,8.11,1.28c-1.91.18-3.82.4-5.74.54-70.73,5.21-141.57,4.07-212.4,4.09-9.19,0-18.38,0-27.57,0-2.19,0-4.38.19-7.33.33,0,2.38,0,4.38,0,6.38.11,7.63.36,15.26.28,22.89a31.42,31.42,0,0,1-1.77,9.25c-4.1-9-1.7-18.6-3.82-27.93a19.22,19.22,0,0,0-.57,3.32c.13,62.21.4,124.42.4,186.63,0,22.18-1.31,44.39-.68,66.54.33,11.76-1.74,22.77-3.73,34.12-3.36,19.11-10.92,36.62-18.07,54.26-7.05,17.37-11.8,35.36-16.17,53.54-1.4,5.8-3.48,11.42-5.36,17.08-5.45,16.4-11.05,32.74-16.38,49.17-2.24,6.89-5.24,9.56-12.41,9.65q-8.73.1-17.48,0c-13.66-.15-27.26.76-40.9,1.65-19.88,1.29-39.88.49-59.82.67-26.28.25-52.33-3-78.47-5-14.49-1.12-29-1.61-43.55-2.39ZM445.77,675.65a26.27,26.27,0,0,0-2.11,4.12c-1.65,5.17-2.86,10.38.89,15.24-.49,2.68-1.42,5.35-1.4,8q.19,30.68.78,61.33c0,1.84,1.22,3.66,1.88,5.49-2.8,7.57-2.17,15.23-1.44,23.63,9.84-8.56,9.45-18.43,7.17-29.14l-6,5.76c6.69-9.59,6.76-20.46,5.74-31.53,0-.23,0-.47,0-.69-.45-2.84-1.27-5.67-1.26-8.5,0-3.09,1.13-6.18,1.19-9.27.18-9.35.1-18.71.07-28.07a22,22,0,0,0-.49-3.11l-2.41.64c2.83-5.6,4.31-11.34,2.05-17.85l-4.92,4.19c8.54-8.51,5.61-19.6,6.78-31.09-5.53,6.13-13.64,9.34-9.82,19.23.26.69-.62,1.76-.6,2.65.08,3.3.32,6.6.5,10.17ZM476.61,720c3.91-8.22,2.23-16.75,2.26-25.62l-10.37,7.79c2.87-4.34,5.93-8.56,8.55-13.06a18.45,18.45,0,0,0,2.09-6.93c.47-4.09.39-8.24.71-12.36a35.47,35.47,0,0,1,1.08-4.92l.8.14c.29,2.24.58,4.49.88,6.84l3.42-.16c-2.14,3.27-4.15,6.51-3.39,10.83a58.86,58.86,0,0,1,.49,7.41c.27,5.73.51,11.46.77,17.19-2.92,9-3.62,18.36-3.09,27.82.13,2.28.14,4.58.14,6.86,0,4-1.17,8.1,2.49,11.27a4.89,4.89,0,0,1,1,3.19c.24,6,.41,12,.42,18,0,1-.93,2-1.43,3l-1.22-.27V765.13l-1,0-1.18,5.69H475.4c.72-2.2,1.35-3.9,1.73-5.66,0-.17-1.45-.69-2.22-1.06,1.69-4.62,4.17-9.1,2.53-14.63a7.22,7.22,0,0,0-1.65,1.28c-5.63,8.6-11.14,17.28-16.86,25.81-1.93,2.88-2.71,5.72-1.71,9.09.16.53-.18,1.22-.35,2.25l-4-2.11c-2.32,3.33-4.24,6.46-6.53,9.27-3.27,4-2.69,8.58-2.07,13.14.06.44,1.34.7,2.05,1-2,4-2.51,8.22-2.54,12.7q-.18,26.67-.79,53.33c-.13,5.64-.94,11.27-1.55,18.12a14.68,14.68,0,0,1-.7-1.93q-1.29-33.21-2.56-66.42c-.1-2.54-.32-5.07-.51-7.61a5.6,5.6,0,0,0-.33-1.31c-.06-.19-.2-.45-.37-.5s-.43,0-1.11.18a11.24,11.24,0,0,0-.77,2.84c-.31,18.92-1,37.86-.71,56.77.28,20.77,1.78,41.52,2.08,62.29.38,27,.13,54,.07,81,0,2.11.51,3,2.55,2.59l-.14-.13c.6,2.86-2.57,6.19,1.7,9.46.89-2.13,1.77-3.83,2.32-5.64,1.67-5.51,2.87-11.2,4.86-16.58,9.65-26.13,19.69-52.11,29.2-78.29,5.67-15.61,9.9-31.62,10.28-48.52.4-18,1.21-35.91,1.85-53.87,1.12,15.5,1.63,31,2.26,46.46a73.29,73.29,0,0,0,1,7.47l1.48-.21c-.48-15.82-1.17-31.64-1.38-47.46-.24-18.64-.06-37.28-.06-56.17-.84,13.43-1.67,26.59-2.5,39.75h-1.57c-2.31-11.25-.86-23-2.54-34.88l-5.39,5.09.14.13c7-8.87,5.33-19.42,5.44-29.63,0-1.84,0-3.68,0-5.52,0-13.58,0-27.16-.07-40.74,0-1.82,1.05-4.42-2.1-4.9.73-3.78,1.94-7.54,2.08-11.33.3-8,0-16,0-24,.06-6.57.1-13.13.21-19.69.08-4.83-.39-9.79.52-14.46,1.8-9.22-.77-18.18-.68-27.27a13,13,0,0,0-.75-2.9c-2.83,1.83-4.21,3.18-4,6.72.55,9.54.39,19.14.39,28.71,0,.92-.82,1.84-1.63,3.53-.47-3.21-.78-5.39-1.17-8l-4.81,3.17A15.58,15.58,0,0,0,479.31,628c-.32-4.5-.07-9-.07-13.84-.85.36-1.58.43-1.94.85-6.47,7.58-12.94,15.15-19.28,22.85a8.06,8.06,0,0,0-1.67,4.29c-.35,4.8-.54,9.63-.44,14.44,0,1.27,1.36,2.5,2.1,3.76-3.9,5.15-2.47,10.84-2.08,16.69l3.39-1.35-.13-.13a28.34,28.34,0,0,1-1.83,4.25c-2,3.08-2.07,6.26-1.23,10l3.1-1.74-.15-.13c-5,8.66-3.22,17.95-3.14,28.38l12.8-14.47c-1.78,4.41-4,8.69-5.23,13.25-1.21,4.38.16,9.27-1,13.74l-1.7,0V716.52c-4.06,2.72-5.1,5.72-5,9.39.07,4.85,0,9.69,0,14.53,0,2.15.25,4.3.37,6.28l12.69-14.38a61.49,61.49,0,0,1-3.47,5.68c-8.15,10.65-11.19,22.49-8.11,36.71,1.55-2,2.79-3.52,3.84-5.12,4-6.09,7.6-12.49,12-18.26a25,25,0,0,0,5.34-17.83c-.28-3.61.14-7.27,0-10.9C478.32,721.71,477.22,720.86,476.61,720ZM412,981.07l-.25,1.32c-2.12,0-4.25.11-6.36,0-7.16-.46-14.3-1.13-21.46-1.49-20.14-1-40.3-1.82-60.43-3-8.08-.46-16.11-1.63-24.17-2.48a13.28,13.28,0,0,1,6.82-1.17q28.89,1,57.77,2.07c1.79.06,3.91.7,5.31-.05,7.51-4,15.59-3.3,23.54-3.43,9.6-.16,19.2,0,28.8,0l-.51-1.66L429,964c-.85-1.49-2.44-3-2.38-4.4.29-5.87-1.08-12.06,2.64-17.42a5.88,5.88,0,0,0,.79-3.28c-.11-5.31.49-10.84-.73-15.89-2.69-11.2-2.16-22.5-2.16-33.79,0-38.15.27-76.3.42-114.45,0-2.7,0-5.4,0-8.8a91.85,91.85,0,0,0-9.17-1.16c-14.34-.32-28.68-.47-43-.75a25.43,25.43,0,0,1-4.35-.82l.26-1.92h53v-8.4q0-29.48,0-58.95a9.47,9.47,0,0,1,.88-2.23c.43,2.76.69,4.48,1.14,7.38,1.34-9,1.08-32.3-.27-37.55a25.49,25.49,0,0,0-3.92-.2c-6.64.61-13.26,1.54-19.91,1.92-8.94.52-17.91.94-26.87.87-22.16-.17-44.32-.84-66.48-1-49.31-.29-98.61-.38-147.91-.52a41.22,41.22,0,0,0-4.43.42c.09,1.5.15,2.56.22,3.68a35.12,35.12,0,0,1-19.24-2.54,21.8,21.8,0,0,0-14.3-.94q.59,99.11,1.19,197.83c5.47,0,10.34.1,15.22,0,34.27-.82,68.52-2.12,102.62-6,4.43-.5,8.38-.39,12,3.34-43.11,5.53-86.2,6.54-129.87,7-.67,3.84-1.65,7.16-1.77,10.51-1.15,30.68-2.14,61.36-3.17,91.83,1.86,1.83,5.4-2.85,6.13,2.12,0,.29,1.63.51,2.5.48,7.54-.17,15.08-.41,22.63-.63a92.85,92.85,0,0,1-12.31-3.9,3,3,0,0,1,2-.83c10.28.33,20.56.85,30.85,1,17.69.29,35.4.24,53.09.59,9.84.2,19.67,1.36,29.5,1.34,36.52,0,73-.43,109.56-.57,3.6,0,7.2.81,10.8,1.25,0,.57,0,1.13-.05,1.7-2.8.18-5.6.5-8.4.51-17.7.05-35.41-.3-53.11.15-13.86.35-27.72,1.33-41.54,2.62-23.92,2.23-47.68,2.9-71.71,0-24.89-3-49.93-2.12-74.66,4.37-.28,3.43-.52,6.48-.76,9.53l-.36,0q-.43-4.79-.85-9.57c-4.09,6.67-1.79,14.07-3.88,21.1l-6.13-.63c-1.4,6.51,2.13,11.56,3.06,17.12,1.55,9.3,2.13,18.79,3,28.21.35,3.85.4,7.74.6,11.85,4.09.6,7.6,1.39,11.15,1.61,23.71,1.45,47.41,2.88,71.13,4.14,29.06,1.55,58.15,2.56,87.18,4.52,16.08,1.08,31.88,2.67,48.13,0,15.4-2.5,31.25-2.13,46.9-2.88,14.32-.68,28.65-1.17,43-1.77.4,0,.78-.37,1.88-.91.13-2.93.29-6.23.47-10.25-9.73,1.43-18.62,2.24-27.54.86,8.81-4,18.4-2.48,28-4.5V978.79H409.5ZM118.74,640.67c3.39-3.35,6.1-6,8.79-8.71,2.88-2.91,5.7-5.89,8.61-8.77,2.76-2.71,5.55-5.39,8.41-8,5.69-5.15,5.72-5.13,9.84-5.64-1.5,2-3.52,3.41-5.28,5.13q-12.95,12.63-25.78,25.38c-5.45,5.42-6.11,9.65-3.14,16.66,1.1,2.6,2.79,3.44,5.32,2.79,1.69-.43,3.37-1.36,5-1.33,9.39.21,18.78.91,28.17.93,17.48,0,35-.3,52.44-.47-12.75-1.78-25.66-1.63-38.13-5.28,19.55,2.25,39.17,2.14,58.78,2.44,23.51.36,47,.51,70.5,2.63,18.95,1.72,38,1.85,57.07,2.59a22.59,22.59,0,0,0,5.22-.86c3.89-.8,7.76-2.31,11.67-2.39,14.34-.3,28.68-.13,43-.13H427c-.46-19.6-.9-38.18-1.34-57-2.36-.15-4.11-.34-5.86-.36-14.79-.13-29.59-.27-44.38-.34q-70.53-.33-141.06-.57c-32.27-.07-64.54.11-96.82.08a8,8,0,0,0-6.52,2.81q-5.22,5.88-10.56,11.65c-1.89,2-2.4,4.16-.9,7.26l8.47-7.79c3.21,3.38.09,4.59-1.34,5.67C119.88,624.17,116.79,630.69,118.74,640.67ZM99.22,567.89l-.17,1.71c5.27,3.4,10.85,6.38,15.72,10.31,5.48,4.43,11.26,4.23,18.58,3.41-6.37-5.22-13.8-6.65-18.69-12.28a20.51,20.51,0,0,1,7.57,2c5.43,2.71,10.69,5.81,16.15,8.45a19.54,19.54,0,0,0,7.58,2.17c8.95.3,17.91.19,26.86.19.35,0,.7-.43,1.28-.82l-3.24-2.55a9.82,9.82,0,0,1,7,1.45,20.81,20.81,0,0,0,13.29,3.85c6-.13,12.05,0,18.07,0,1.69,0,3.37-.25,6.43-.5-2.78-2.1-4.48-3.42-6.22-4.69-4.2-3.06-8.61-5.86-12.57-9.23a14,14,0,0,0-9.8-3.52c-19,.12-38.06,0-57.09,0ZM258.88,1072.3c-15-2.6-133.06-3.06-138.78,0ZM114.59,583.47c-.35-.9-.4-1.48-.68-1.67-6.8-4.36-13.59-8.72-20.45-13-2.95-1.83-6.08-1.29-10.41-.89,2.92,2.8,5.25,4.35,6.69,6.53C95.82,583.62,104.34,585.29,114.59,583.47Zm-5.8,386.74,1.49.15c.18-6.59.5-13.18.5-19.77q0-23.24-.29-46.48a38.41,38.41,0,0,0-.9-5.67l-.8.17Zm48.31,95.27.05-1-37.82-5.91c.14,3,.23,4.91.33,6.88ZM108.49,844.11l1.29.11c.33-4.23.78-8.46,1-12.7s0-8.79,0-13.18c0-4.62.14-9.25-.07-13.87-.18-4,.89-8.35-2.22-12.83ZM108,1020.56c2.94-5.85,3.9-40.1,1.25-44.88C107.5,986.31,106.72,1014.54,108,1020.56ZM441.06,629.88c4.51-6.14,12.56-9.69,12.56-18.73C448.82,617,440,620,441.06,629.88Zm11.19-7.43c-3.44,6.24-13.18,8.44-10.84,18.3C445.31,634.8,452.87,631.33,452.25,622.45ZM108.45,884.11l1.61.08c.34-2.19.81-4.36,1-6.56a42.76,42.76,0,0,0,0-6.2c-.11-2,.73-4.57-2.66-5.35ZM85.52,551.92l-1.21-1.4L71,563.28,72,564.51C78.41,562.57,81,556.1,85.52,551.92Zm16.92,434.4-.53.22v30h.53Zm-15-403.11c-3-2.44-5-5-9.28-6l1.93,8.66ZM78.8,569.63c1.22,5.07,7.43,10.3,13.25,12.2C87.79,577.92,83.9,574.33,78.8,569.63Zm358.26,470.16v10.72C440.36,1046.91,440.14,1043.52,437.06,1039.79ZM109.37,858.15h1.86c-.88-3.16,1.57-6.87-3.18-10.67Zm306.88,222.34h8.47C421.32,1077.21,418.72,1080.08,416.25,1080.49ZM125,600.24l-.43-.92-3.69,1.35c.43.86.85,1.72,1.52,3.1Z"/>
    <path d="M747.84,566.38h542.28l.06,1c-5.08.29-10.16.8-15.24.83-32.72.15-65.44.3-98.16.27q-141.54-.15-283.06-.47c-41.91-.1-83.82-.48-125.73-.72-6.72,0-13.44,0-20.16,0C747.84,567,747.84,566.7,747.84,566.38Z"/>
    <path d="M477.82,565.89c-4.44.34-8.88,1-13.32,1-35.13,0-70.26-.12-105.39-.16-2.81,0-5.61.37-8.56-.41,2.43-.53,4.87-1.52,7.31-1.53q58.72-.13,117.47,0c.89,0,1.77.16,2.66.24Z"/>
    <path d="M281.09,575.09l24.37,14.73C299.78,589.78,289.15,583.88,281.09,575.09Z"/>
    <path d="M1214.59,576.44c6.74,1.64,11.43,6.37,16.19,11C1224.13,585.82,1219,581.68,1214.59,576.44Z"/>
    <path d="M94.13,811.51V787.43l1.46.05q-.53,12-1.07,24Z"/>
    <path d="M1241.15,580.72l-5.43-3.7.69-1.11,5.61,3.73Z"/>
    <path d="M1175.48,967.17c.59,3.68,1.21,7.28,1.75,10.91.31,2.14.79,4.58,3.19,4.51a7.92,7.92,0,0,0,5-2.56c3.93-4.37,4.29-15.82,1-20.87-2.74-4.16-7.5-4-9.5.62C1176,962,1175.94,964.64,1175.48,967.17Zm14.1,100c1.2-1.24,2.49-2,2.71-2.93.86-3.77-2.66-10.86-6.16-12.11-1-.35-3.08.56-3.69,1.54-1.93,3.11-.55,12.79,2.28,16.93.47-3.36.88-6.34,1.52-11Zm3.31,3.21c-4.29,3.62-4.35,3.75-4.08,8.62C1193.21,1075.13,1193.21,1075.13,1192.89,1070.39Z" style="fill: #fff"/>
    <path d="M1104.28,785.7l-.22,0v4.67h.22Z" style="fill: #fff"/>
    <path d="M186.25,578.13l1-1.07-5.35-3.81-.59.87Z" style="fill: #fff"/>
    <path d="M1579.74,1144.91c-6.56,10.66-12.89,21.47-19.77,31.91-3.42,5.2-6.37,10.84-12.4,14.1-3.06,1.65-4.76,6-7.11,9-4,5.21-9.1,9.47-11.36,16-.49,1.44-2.28,2.4-3.47,3.58l-1.37-.91c1.08-2.32,1.83-4.9,3.32-6.91,3.25-4.4,7-8.37,10.33-12.75q17.25-23,34.29-46.16c2.16-2.92,4.07-6,6.1-9Z"/>
    <path d="M1527.17,1178.93l41.9-58.11C1566.65,1128.14,1536.8,1170.79,1527.17,1178.93Z"/>
    <path d="M1568.29,1219.07a49.4,49.4,0,0,1-8.91,15.51C1560.44,1228.22,1564.22,1223.56,1568.29,1219.07Z"/>
    <path d="M1490.34,1264.8c-1.26.08-1.7.14-2.13.12-1.08-.06-2.16-.16-3.24-.25a9.12,9.12,0,0,1,.91-.17c1.09-.06,2.19-.12,3.29-.15A6.51,6.51,0,0,1,1490.34,1264.8Z"/>
    <path d="M1345.11,706.84c-35.93-12.1-71.29-24-106.63-35.93-.71-.24-1.25-1-3-2.48,3.07.45,4.82.54,6.48,1,6.28,1.67,12.67,3,18.73,5.34,6.56,2.49,13.62,2.76,20,6.08s13.43,5,20.16,7.51,13.48,4.95,20.15,7.6c6.88,2.73,13.69,5.64,20.49,8.55A24.67,24.67,0,0,1,1345.11,706.84Z"/>
    <path d="M1201,626.83c33.22,9.54,66.14,20,98.13,33.53-16.66-3.8-32.4-10.83-49.49-14.36q7.47,9.35,15,18.67l-1,1c-3.18-3-6.55-5.89-9.47-9.16a55.24,55.24,0,0,1-6.3-8.88c-2.38-4.06-5.85-5.95-10.12-7.24-10.51-3.18-20.92-6.71-31.36-10.13-1.9-.63-3.75-1.41-5.62-2.12C1200.79,627.72,1200.88,627.27,1201,626.83Z"/>
    <path d="M1214.62,646.52,1133.09,624C1142.15,622.54,1192.85,636.35,1214.62,646.52Z"/>
    <path d="M1266.36,660.25l33.45,12C1289.66,673.4,1278.54,668.09,1266.36,660.25Z"/>
    <path d="M1610.08,856.34l-7.14-7,.74-.76,6.88,7.59Z"/>
    <path d="M1590.35,833.81c3.7,1.84,5.47,5.42,7.83,8.47l-1.19,1q-3.29-4.75-6.58-9.52Z"/>
    <path d="M1271.36,674.11l-4.29-4.83.12-.14c1.55,1.56,3.1,3.13,4.66,4.69Z"/>
    <path d="M1289.17,701.77l6.71,2.26-.53,1.59-6.78-2.52Z"/>
    <path d="M1175.48,967.17c.46-2.53.48-5.18,1.44-7.39,2-4.6,6.76-4.78,9.5-.62,3.33,5.05,3,16.5-1,20.87a7.92,7.92,0,0,1-5,2.56c-2.4.07-2.88-2.37-3.19-4.51C1176.69,974.45,1176.07,970.85,1175.48,967.17Z"/>
    <path d="M1189.58,1067.18l-3.34-7.54c-.64,4.63-1,7.61-1.52,11-2.83-4.14-4.21-13.82-2.28-16.93.61-1,2.71-1.89,3.69-1.54,3.5,1.25,7,8.34,6.16,12.11C1192.07,1065.23,1190.78,1065.94,1189.58,1067.18Z"/>
    <path d="M1192.89,1070.39c.32,4.74.32,4.74-4.08,8.62C1188.54,1074.14,1188.6,1074,1192.89,1070.39Z"/>
    <path d="M1202.09,1049.85l-4.22-3,1-1.13,3.1,4.26Z"/>
    <path d="M1201.93,1050q1.85,3,3.7,5.91l.13-.12c-2.31-1.26-4.25-2.76-3.68-5.93Z"/>
    <path d="M1189.33,864c-5.23,3.67-6.89,3.24-7.94-2.9a129.43,129.43,0,0,1-1.59-17c-.15-4.18,1.58-6.36,4.37-6.62,3.24-.3,5,1.81,5.84,4.58,2.21,7.48,4.24,15-.9,22.24-.16-4.36-.34-8.72-.49-13.08-.1-2.91-1.17-5-4.22-6.17-2.37,6.45-1.14,12.51-.43,19Z"/>
    <path d="M1423.82,618.09l6.79-5.31.93,1.3-6.67,5.11Z"/>
    <path d="M1423.1,629.77l3.76-2.65.6,1-3.8,2.6C1423.47,630.37,1423.28,630.07,1423.1,629.77Z"/>
    <path d="M1446.45,611.68l-3.58,3.84-1-1.64,4.77-2Z"/>
    <path d="M1104.28,785.7v4.65h-.22v-4.67Z"/>
    <path d="M167.66,868.64c6.17-.39,12.35-.63,18.5-1.2,20.51-1.91,41.06-3.5,61.5-6.05,23.48-2.93,47-2.87,70.44-1.19,26.18,1.88,52.35.85,78.51,1.82,7.58.28,15.17.59,22.75.88l.16,1.52a62.54,62.54,0,0,1-6.88,1.06c-5.37.22-10.75.24-16.12.29-54.43.51-108.86.82-163.28,1.62-15.43.22-30.84,2-46.27,2.75-6.41.34-12.85.06-19.29.06Z"/>
    <path d="M133.84,763.52c70.86-1.8,141.8-2.31,212.73-.22C336.25,766.75,151.77,767,133.84,763.52Z"/>
    <path d="M247.71,929.91c0-9.68,5.89-16.43,14-16.68,7-.22,11.25,6.75,8.16,13.33-.94,2-1.57,4.16-2.46,6.19a16.54,16.54,0,0,1-2.3,4.12c-3.07,3.59-9.19,5.38-12.82,3.65C247.55,938.26,247.92,933.57,247.71,929.91Z"/>
    <path d="M269.6,806.73l-3.09,5.53c1.48,2.24,3.07,4.42,4.44,6.74,2.16,3.67,1.77,6.44-1.4,9.11-4.21,3.57-9.14,3.65-13.93,1.88-4.23-1.56-5.57-6.32-3.06-10.22C256.57,813.51,261.78,808.6,269.6,806.73Zm-8.23,11.63c-.51,1.28-1.15,2.11-1,2.65a2.34,2.34,0,0,0,1.77,1.3c.61,0,1.19-.91,1.78-1.41Zm5.42,7.08-.54-1.42-4.07,1.72.51,1.33Z"/>
    <path d="M274.74,712.62c.08,6.4-7.36,13.83-13.65,13.62-2.82-.1-4.51-1.52-5.12-4.45-1-4.59,3-14.66,7-17,2.44-1.45,5-1.83,7.65-.32S274.69,708.81,274.74,712.62Zm-10.64,5c4.46-4.35,4.46-4.35,1.74-7.51Z"/>
    <path d="M267,1022.73c0,5.52-3.75,9.46-9.17,9.59-4.78.12-7.26-2.22-7.27-6.84,0-5.83,4.72-11.25,9.65-11.09C264.63,1014.54,266.94,1017.37,267,1022.73Z"/>
    <path d="M314.88,852.84h-30v-.69H315.1Z"/>
    <path d="M250.62,628.64c.36-5.9,6.18-11.73,11.28-11.31,4.72.39,9.3,6.93,9,12.82-.31,5.58-5.53,9.63-12,9.3C253.1,639.15,250.2,635.37,250.62,628.64Zm10.69-4.88a25.45,25.45,0,0,0-3.27,3.93c-.54,1-.92,2.81-.41,3.53a4,4,0,0,0,3.4,1.1C264.61,631.58,264.77,629.26,261.31,623.76Z"/>
    <path d="M439.12,1021.24c.1-12.71.24-25.41.29-38.11,0-12.48,0-25,1.16-37.44.21,22.91.5,45.82.55,68.73,0,2.23-1.39,4.46-2.14,6.69Z"/>
    <path d="M479.12,813l-10,16.08C468.84,824.63,472,818.92,479.12,813Z"/>
    <path d="M467.27,777.68q3.42-6.34,6.82-12.69Q470.69,771.34,467.27,777.68Z"/>
    <path d="M459.2,790.17q2.73-5,5.47-9.91Q461.92,785.21,459.2,790.17Z"/>
    <path d="M476.61,794.86l-2.34,6c-.31-2.56.26-4.7,2.47-5.93Z"/>
    <path d="M480.53,787.73a7.21,7.21,0,0,1-3.92,7.13l.13.12,3.94-7.11Z"/>
    <path d="M457.83,660.44c.59-1.2.94-2.62,1.79-3.55,4.76-5.2,9.64-10.29,14.48-15.41C470.73,649.67,464.88,655.6,457.83,660.44Z"/>
    <path d="M463.35,682.57a19.09,19.09,0,0,1,8.09-11.06l-.15-.14-8.08,11.07Z"/>
    <path d="M471.44,671.51c.82-1.74,1.65-3.48,2.47-5.21.57,2.63-.2,4.43-2.62,5.07Z"/>
    <path d="M459.32,675.68q1.23-2.56,2.44-5.14c.36,2.45-.26,4.31-2.57,5Z"/>
    <path d="M459.23,688.09l4.12-5.52-.14-.13L459.09,688Z"/>
    <path d="M186.25,578.13l-5-4,.59-.87,5.35,3.81Z"/>
    <path d="M476.84,719.86q-4.12,6.38-8.27,12.75A22,22,0,0,1,476.84,719.86Z"/>
    <path d="M444.33,695.14l4.28-5.81Z"/>
  </g>
</svg>
