<svg id="Layer_1" data-name="Layer 1" xmlns="http://www.w3.org/2000/svg" width="600mm" height="600mm" viewBox="0 0 1700.79 1700.79">
  <title>sketches frames</title>
  <g>
    <path d="M1545.26,1017.46c-3-.67-5.79-1.38-8.57-1.85a35.43,35.43,0,0,0-6.57-.58q-341.31,7.1-682.62,14.22-200,4-400,7.25a110.62,110.62,0,0,1-14.17-1.06c-.82-.09-1.53-1.26-2.29-1.93.72-.6,1.36-1.62,2.15-1.75a74.52,74.52,0,0,1,10.59-1.3q406.17-9.21,812.33-18.31,136-3.06,272-6.18c12.45-.28,24.91-.52,37.62-.79-.32-6-5.08-6.93-8.73-9.13a36.33,36.33,0,0,1-5.57-4.77c-1.61-1.49-2.91-3.45-4.74-4.56-14.83-9-29.74-18-44.65-26.86-17.09-10.21-34.09-20.57-51.32-30.51-33.1-19.11-66.32-38-99.51-56.91-14.33-8.17-28.78-16.12-43-24.39-2.73-1.59-4.5-1.33-7.18.14-12.5,6.86-23.27,15.91-33.79,25.36a63.36,63.36,0,0,1-10.41,7.38c14.06-13,27.82-26.44,46.25-35.71-6.06-3.69-11-8.87-16.34-9.32a24.63,24.63,0,0,1-12.8-4.31l-12-8.24-2.13,5.1-.59.09a14.26,14.26,0,0,0-.14-3.47,19.2,19.2,0,0,0-1.73-3.49c-.86.85-2.14,1.55-2.52,2.59-1.86,5-4,10-5,15.16-1.37,7.23-6.71,10.68-11.67,14.91-7.21,6.15-14,12.75-20.89,19.29-.7.66-.71,2.2-.75,3.34-.08,2.16.06,4.33.1,6.5h-1.23q.65-20.21,1.3-40.43l-2.08-.08c-3.66,19.16-4.3,38.59-4.9,58.14-.26-3.53-.72-7.06-.76-10.6-.11-9.95-.34-19.92.06-29.86.22-5.47,1.68-10.89,2.44-16.35.25-1.75,2-4.18-1.59-4.88-.31-.06-.39-1.9-.37-2.91.09-7,.31-14,.31-20.95a50.74,50.74,0,0,0-.88-6.78l-1.66-.24c-.59,2.09-1.53,4.16-1.71,6.28-.65,7.69-1.11,15.4-1.49,23.11-.18,3.49-.75,6.23-5.15,6.4-1.1,0-2.18,1.41-3.22,2.24l-57.42,46a3.58,3.58,0,0,1-2.58.85c.91-1,1.8-2,2.74-3,17.88-18.58,37.67-35,58.14-50.57a9.6,9.6,0,0,0,4-7.38c1.43-13.44,3.22-26.84,4.87-40.26.16-1.3.22-2.62.37-4.58-5.88.31-11.24-.41-16.57,3.29-53.91,37.47-103.45,80.45-154.32,121.75-17.07,13.86-34.67,27.08-52,40.57-1,.77-2.12,1.35-3.18,2l-.87-.9a35.91,35.91,0,0,1,2.7-2.68c32.11-25.73,64.42-51.23,96.29-77.26,15.87-13,30.57-27.38,46.51-40.25,18.15-14.64,37.09-28.28,55.69-42.36,1.12-.85,2.21-1.74,4.3-3.39l-5.47.11Q866.21,795,553.66,801.58c-6.09.13-12.2.06-18.28-.21-3.18-.14-4.66.89-5.72,4a305.67,305.67,0,0,1-44.14,85.06c-3.53,4.75-7.81,8.93-11.68,13.43-10.44,12.15-21.93,23.57-31,36.67-12.86,18.59-16.74,40.34-16.93,62.72,0,.87-.11,2.16.39,2.56,7,5.55,3,13.17,3.72,19.85.71,6.84.94,13.75,1,20.63.06,5-.47,10-.78,15.59l-8.18-3.78c1.05,1.39,1.24,1.86,1.6,2.08,6.38,4,7.33,10,7.49,17.12,1.17,50.46-5,99.86-20.29,148-.91,2.9-2.43,5.61-3.24,8.53-1.16,4.16-4,4.51-7.71,4.69-13.92.67-27.83,1.74-41.74,2.61-4.75.29-6.33-1.23-5.38-6,1.23-6.11,3-12.1,4.57-18.14,6.4-24.45,12.45-49,12.68-74.44.17-17.94-.94-35.94-2.55-53.82-1.63-18.2-4.09-36.5-10.83-53.58-4.63-11.74-9.15-23.36-11.39-35.8a5.6,5.6,0,0,0-2.25-3.13c-4.32-3-8.79-5.69-13.17-8.57a51.56,51.56,0,0,1-4.62-3.47c-31.6-26.37-63.34-52.57-94.75-79.18-23-19.49-45.58-39.5-68.33-59.31a10.35,10.35,0,0,1-3.08-4.41c8.07,3.84,14.87,9.56,23.29,14-.37-1.22-.36-2.92-1.18-3.57-8.6-6.82-17.33-13.47-26.44-20.48-.33,4.88-2.92,5.62-6.08,4.08-4.2-2-8.16-4.61-12.71-7.24,0,1.8.05,3.36.1,4.91.86,26.75,1.87,53.52-1.26,80.18-3,25.84-7.51,51.46-15.8,76.23-1.72,5.14-3.9,10.13-6.12,15.08-1.07,2.41-3.55,4.26-5.57,1.79-2.71-3.31-5.63-2.3-8.75-2-7.82.87-15.61,2-23.45,2.52-7.19.46-9.76-3-8-10,3-12.09,6.69-24.06,9-36.27,3-15.74,5.13-31.66,4.48-47.8-.06-1.55,1.12-3.16,1.75-4.73.21-.52.75-1,.71-1.5-.56-7.48.41-14.91-2.13-22.43-5.65-16.7-11-33.56-15-50.71-2.23-9.55-1.08-19.84-2.14-29.73s-3-19.84-4.54-29.75l-2,.23q1.66,14.13,3.32,28.25c-6.14-22.12-4.8-44.78-4.88-67.29-.07-22,.89-44,1.39-66,0-.69,0-2-.17-2-3.89-.71-2.3-3.8-2.13-5.69.75-8.71,1.89-17.4,2.87-26.09.16-1.43.25-2.87.27-3.14l.6,28.6.53.2a8.67,8.67,0,0,0,.94-2.39c.69-9.48,1.41-19,1.92-28.44.82-15.13,2-30.27,2-45.4a197.25,197.25,0,0,1,2.84-31.76c.31-1.81-3-4.21-4.59-6.35l-1.58.72-.24,8.06c-2.82,1.33-4.08.29-4.34-2.37-.42-4.28-.78-8.57-1.19-13.19-5.19,1.58-6.5-1.7-7.12-5.62-1.51-9.55-3.55-19.06-1.06-28.81.26-1-1-2.95-2.07-3.73-5-3.66-10.19-7.06-15.32-10.55l.48-1L44.55,497c1.08.5,2.51,1.76,3.15,1.44,4.94-2.49,5.7,1.05,6.71,5.44.79-3,1.3-5,2.09-8,1.89,6.83,6.26,10.32,10.6,14,8.41,7.12,18.45,11,28.21,15.79,15.6,7.59,30.71,16.26,45.6,25.19,14.65,8.77,28.78,18.43,43.13,27.71a5.32,5.32,0,0,1,2.42,2.86c-4.89-2.13-10-3.92-14.65-6.44-24.71-13.31-49.32-26.82-74-40.18-1.21-.65-2.93-.31-4.33-.71a34.71,34.71,0,0,1-7-2.42c-3.07-1.65-5.89-3.76-8.94-5.75,2.69,12.34,10.26,19.92,22.2,24.3l-3.59-8c4.52,5.95,7,13.6,15.51,15.83a7,7,0,0,0,.12-1.3,19.62,19.62,0,0,0-.38-2.16c.67.57,1.09.74,1.21,1,1.8,4.51,5.33,7.24,9.33,9.74,8.66,5.42,17.14,11.11,26.31,17.08l-5.6-17.22,1.39-.62c1.1,1.95,2.27,3.87,3.28,5.87,1.55,3,3.39,6,4.4,9.24,2.29,7.33,7.87,11.18,15,15L163,585.3l1-.79c2.53,11.69,11.33,17.2,20.7,22.35l-4.79-20.58,2.22-.73c2.5,5.83,4.92,11.69,7.53,17.46s3.75,12.45,11.49,15.12c-2.08-8.7-7.24-16.33-6.85-25.23l1.13-.49,8.65,17.83c.09-2.63.13-4,.18-5.37l.93-.19c1.18,4.58,2.38,9.15,3.52,13.73,1.2,4.82,2.55,9.5,9.08,11.66-.54-7.38-4.53-13.12-6.27-20.26L235.28,645l.81-.43-3.45-6.65,1.08-.85c2.72,3,5.41,6.08,8.17,9.08a115.79,115.79,0,0,0,8.86,9.26,48.53,48.53,0,0,0,11,7l-10.18-15.11c7.5,4.18,11.64,11.06,16,17.87,2.12,3.31,5.29,5.94,8,8.88l1.1-.91q-4.7-9-9.38-18.09l1.37-.91c9.2,14.47,16.85,30.41,34.82,37.15-5.8-10.61-11.5-21-17.21-31.47l1.55-.92c2.3,3.21,4.85,6.27,6.86,9.66,5,8.42,9.58,17.11,14.78,25.41,1.63,2.6,4.55,4.51,7.17,6.32a37.94,37.94,0,0,0,10.43,5c-1-2.47-2.07-4.94-3.42-8.2l6.12.34c-.42-3.36-.94-7.41-1.6-12.61,7.1,6.66,8.74,15,12.63,23,.63-1.86,1-2.91,1.55-4.61l6.4,4.18c1.3-7.6-5.74-12.51-6.14-20.55,2.5,3.76,4.46,6.7,6.63,10l2.68-2.22c5.12,5.1,4.54,11.88,5.36,18.61,4.21-.3,8.17-.78,12.13-.83q49.49-.69,99-1.22c7.42-.09,14.88.42,22.28,0,15-.93,29.92-2.85,44.91-3.45,26.56-1.06,53.15-1.93,79.73-2,29.27-.07,58.55.82,87.82,1.36,8.62.16,17.24.4,25.84.94,1.76.11,3.43,1.69,5.14,2.59l-.46,1.5c1.77,0,3.53,0,5.29-.12q102.93-4,205.85-8c64.91-2.62,129.8-5.48,194.71-8.14,25.84-1.07,51.68-2.3,77.53-2.76,40.85-.72,81.72-1.56,122.48,3.08,7.58.86,15.41-.64,23.13-1,42.77-1.88,85.52-4.77,128.3-5.21,22.12-.22,44.23,0,66.32-1.34,12-.71,23.86-2.21,36.16-3.38l-4,2.75c2.79,0,4.77,0,6.75-.14,10.83-.53,21.66-1.21,32.5-1.55,3-.09,4.91-1,6.46-3.61A16.41,16.41,0,0,1,1641,677a17.57,17.57,0,0,1-.59,2.53c-1.33,3.44-4.6,6.1-3.84,10.47.17.93-1.65,2.22-2.76,3.6,3.82.44,6-1,7.73-4.32,3.42-6.58,7.31-12.91,11-19.32.88-1.51,1.94-2.91,2.91-4.37l1.89,1.22c-1.55,4-2.95,8.07-4.68,12s-3.75,7.64-6,12.15l7.66-.9c.13,1.2.24,2.23.36,3.39.6-.18,1.3-.22,1.35-.43a33.3,33.3,0,0,0,1.31-6c.41-6.51.47-13.06,1-19.57.22-2.89-.9-4.12-3.41-5.31q-25.58-12.11-51-24.55c-31.49-15.39-63.07-30.62-94.38-46.38q-60.91-30.66-121.41-62.13c-16.71-8.72-32.69-18.84-49.18-28-9.22-5.11-18.83-9.52-28.26-14.25a2.79,2.79,0,0,1-.79-.4c-6.42-6.87-14.63-5-22.56-4.71-17.51.74-35,1.42-52.53,2.14-1.4.06-2.79.24-5.4.47l5.09,2.7c-.08.31-.17.63-.26,1-2.78-.64-5.55-1.36-8.35-1.88-3.33-.62-6.71-1.61-10-1.5-59.57,2-119.14,4.29-178.72,6-12.42.35-24.39,2.3-36.44,4.79A102.63,102.63,0,0,1,983,497.27c-18.72.59-37.45.64-56.17,1.34q-34.05,1.26-68.08,3.27c-16.58.95-33.12,2.48-49.69,3.61-15,1-29.93,1.85-44.89,2.76-6.66.41-13.32.93-20,1.2a16.9,16.9,0,0,1-7.47-1.5l90.52-10.54v-1.53c-5.52-.51-11.06-1.6-16.56-1.45-100.75,2.67-201.48,5.92-302.24,8.16-95.85,2.13-191.74,2.69-287.58,5.1-33.2.83-66.18-2.05-99.27-2.19-10.4,0-20.82.48-31.21.17-9.27-.28-18.52-1.35-27.77-2.07l-.49-1.53c1.52-1.1,3-3,4.58-3.16,11.34-1.13,22.72-2.7,34.08-2.62,23.9.16,47.8,1.54,71.71,1.79,9.45.1,18.91-1.66,28.39-2.29,20.6-1.37,41.21-3,61.84-3.73,45.31-1.61,90.63-2.73,136-4.06q92.94-2.73,185.88-5.48c50.21-1.55,100.42-3.27,150.64-4.9,6.33-.2,12.67-.27,20.12-.43-16.3,3.54-32.41,2.38-46.86,9.32l-.21,1.44c3.88.82,7.75,2.32,11.64,2.35,14.25.08,28.52-.16,42.77-.59,44.43-1.35,88.84-3.2,133.27-4.16,34.45-.75,68.92-.41,103.39-.64q80.91-.53,161.83-1.24c4.56,0,9.11-1,13.67-1.5.06-.72.13-1.44.19-2.16-1.62-.5-3.22-1.38-4.86-1.43-11.57-.35-23.15-.82-34.72-.7-49.49.5-99,1.36-148.47,1.74-26.74.21-53.49,0-80.23-.5-24.19-.43-48.37-1.45-72.57-2.78,10.74-.23,21.48-.49,32.22-.67,66.88-1.12,133.77-1.85,200.64-3.43,69.55-1.63,139.07-4.2,208.61-6,9.19-.25,18.44,1.44,28.23,2.29-2.46,12.55,8,11.89,14.12,15.43l-7.19-5.15.53-1c3,1.23,6.21,2.21,9.1,3.73q26,13.68,51.94,27.59c42,22.63,83.87,45.46,125.92,68,15,8.06,30.46,15.45,45.73,23.09a34.17,34.17,0,0,0,4.83,1.6l.7-1.13a18.12,18.12,0,0,0-3-2.49c-9.81-5.26-19.63-10.53-29.53-15.62-12.8-6.58-25.68-13-38.56-19.52.36-2.17.62-3.72,1-6,2.19,1.08,4.12,2,6,3q72.66,38.52,145.3,77.09c12.59,6.71,25,13.83,37.3,21a6,6,0,0,1,2.45,4.33c.46,13.49.67,27,1,40.89l-5.26,1.35c.37,4,.84,8,1.1,12.08,1.31,20.15,2.8,40.26.33,60.49-1.88,15.46-1.86,31.17-4.06,46.57-3,20.84-6.9,41.56-11.11,62.2-3.43,16.87-7.57,33.61-12,50.25-2,7.42-5.48,14.43-8.12,21.69-1.11,3-3.51,5.93-1.57,9.61.32.61-.56,1.91-1,2.85a151.57,151.57,0,0,0-9.47,25c-7.32,27.76-14,55.58-18.25,84a295.61,295.61,0,0,0-2.87,59.14c.31,5.76,1.92,11.43,2.43,17.19.41,4.66,0,9.38.11,14.07a6.64,6.64,0,0,0,.93,3.66,104.62,104.62,0,0,0,6.74,8.26c3.46,3.87,3.24,7.5-1.47,9.71a57.63,57.63,0,0,1-14.63,5c-7.45,1.24-15.15.92-22.6,2.16-7.94,1.32-14.76-2.78-22.22-3.62-1.14-.13-2.56-3.14-2.83-5a636.83,636.83,0,0,1-6.44-91.92c0-9,.94-18.1,1.29-27.15.45-11.39.39-22.81,1.23-34.17C1542.28,1030,1544.12,1023.52,1545.26,1017.46ZM140.21,662l2.24,3.48,18-21.21-1-1c-6.67,3.22-14.93,3.7-19,11.2l8.44-.9.87,2.15c-3.17,2.13-6.34,4.25-9.5,6.39l-18,6.26c1.18.81,1.61,1.32,1.85,1.25,4.6-1.51,9.22-3,13.72-4.73C138.92,664.57,139.46,663,140.21,662ZM1509.77,775.19l-18.32,9.58c.76,2.59,1.78,6,3,10,5.26-3.33,9.77-6.78,14.78-9.18s6.19-5.7,4.21-10.82l-3.78.51c1.32-1.36,3.76-2.73,3.76-4.09a105.5,105.5,0,0,0-1.4-15.45c-.28-1.88-1.6-3.6-2.16-4.78-6.25,3.55-11.78,6.61-17.2,9.87a3.89,3.89,0,0,0-1.67,3c.39,3.31,1.21,6.58,2,10.73l14.06-12.07.82.9c-4.06,4-8.22,7.86-12.14,12-1.4,1.46-2.23,3.47-3.32,5.23.4.41.8.81,1.21,1.21,2.3-.81,4.65-1.51,6.91-2.45C1503.65,778.05,1506.7,776.58,1509.77,775.19Zm-285.19,70.2c-5.16,5.82-7.24,12.62-6.7,20.61a11.39,11.39,0,0,0,1.51-.82c6.82-5.74,13.19-12.15,20.57-17,6.77-4.48,7.42-10.62,8.15-18.28-4.62,3.88-8,8.51-14.18,7.64,3.81-2.81,7.41-6,11.5-8.35,4.51-2.58,5.06-6.87,6.1-11.14l-31,25.74-1.18-.86c1.13-1.85,1.88-4.14,3.45-5.47,9-7.65,18.16-15.08,27.43-22.72l-4.81-3.59L1221,831.82c-1.72-9.7,3.17-19.9-3.5-28.62-4.91,1.76-4.51,5.65-4.64,9.8l4.23-2.59c-.26,7.05-.64,13.42-.68,19.79s-.58,12.83,3.84,18.31ZM372.7,770c6.13-4.14,12.19-8.37,18.38-12.4,7.65-5,15.4-9.79,24.14-15.33-6.58.14-11.91-.13-17.13.5a23.06,23.06,0,0,0-9.73,3.42c-6.16,4.13-11.83,9-17.82,13.36-.93.68-2.46.53-4.92,1-8.62,9.54-9.76,12.1-10,24.62l17.24-15.33ZM194.55,861.83c-2.25-1.63-4.41-3.43-6.8-4.82-1.21-.7-2.85-.67-4.3-1l-.3,1.34L220,886.66l22.3-21.77,1,1-18.85,21.18,20.26,14.75c9.83-8.75,18.06-18.91,28.93-26l1.14,1.21-26,27.64c1.05.82,2.31,1.84,3.62,2.79,19.94,14.35,39.14,29.53,55.45,48.09a172.18,172.18,0,0,0,13.3,13.17c1.22,1.12,3.25,1.54,5,1.84,4.39.78,9.42-3.23,13.75,2.18C324.2,917,323.6,860.21,323.22,803.49c-1.25-.14-1.69-.24-2.12-.23q-45.69,1.26-91.38,2.58a8.72,8.72,0,0,0-4.47,1.45c-5.34,3.77-10.46,7.85-15.8,11.61-9,6.32-18,12.59-27.22,18.62-1.36.9-3.68.34-5.56.46.94-1.42,1.57-3.27,2.87-4.18,12-8.46,24.16-16.75,36.25-25.11a27.48,27.48,0,0,0,2.45-2.13l-.29-1-81.66,1.72c-.11,1.81-.22,3.83-.29,5.13,4.44,3.15,8.4,6,12.41,8.79,13.19,9.15,27.83,16.36,38.38,29.1l9.66-7,1,1-9.4,9.57,6.42,8ZM1475.31,749.55l-.81-38.84a13,13,0,0,0-2.21-.32c-9.5-.29-19-.36-28.49-.88-7.55-.4-15.07-2-22.59-1.91-23.3.17-46.59.74-69.87,1.43-16.19.48-32.35,1.5-48.53,2.08-3,.11-4,1.3-4.76,4-2.16,8.17-4.31,16.37-7.06,24.35q-12.24,35.6-25,71c-1.23,3.4-.53,5,2.4,6.74,15.71,9.32,31.11,19.18,47,28.14,33,18.59,66.41,36.41,99.3,55.19,18.94,10.82,36.88,23.39,55.79,34.25,18.41,10.56,37.54,19.85,56.24,29.9,8.72,4.68,17.19,9.82,25.06,14.34,2-3.15,4.08-6.18,6-9.33a9.24,9.24,0,0,0,.94-3.4,86.33,86.33,0,0,0,1.17-10.6c.06-8,.27-16-.44-24-1.7-19-11.29-34.52-23.78-47.86-15.87-17-26.1-37.46-38.12-56.78-13.6-21.84-18.35-46.74-20.64-72.11A28.7,28.7,0,0,0,1475.31,749.55ZM533.62,793.91l5.19-.11c22.43-.63,44.86-1.43,67.3-1.88q145.35-2.94,290.7-5.74c97.64-2,195.28-4.14,292.93-5.9,8.07-.15,12.43-5.44,18.11-9.15a2.09,2.09,0,0,0,.75-1.53c-.4-7.34.52-15.11-1.63-21.91-3.29-10.38-9-20-13.11-30.14-1.71-4.19-3.88-5.33-8.25-5.11-47.35,2.38-94.7,4.54-142.06,6.8-9.68.46-19.34,1.11-29,1.68,0,.19,0,.38,0,.58l25.51,1.86.06,1.36a39.47,39.47,0,0,1-5,.82c-18.42.58-36.83,1.44-55.25,1.55-57.68.35-115.36-.11-173,.73-62.42.9-124.83,3-187.25,4.33-11.17.23-22.38-1.49-33.57-1.48-11.88,0-23.75,1.08-35.63,1.51-3,.11-4,1.29-4.51,4.15q-3.32,18.18-7.14,36.26C537.25,779.53,535.42,786.39,533.62,793.91Zm-156.4,435.63,7.88-.84c2.5-.27,5-.68,7.52-.81,4.17-.21,6.4-1.85,7.61-6.29,12.66-46.72,19.41-94.14,18.37-142.63-.67-30.88-1.42-61.77-1-92.64.33-22.65,7.37-43.87,21.65-61.58,11.9-14.75,25.27-28.39,38.63-41.88,10.92-11,18.4-23.4,20.12-39.61-5.19,6.89-9.91,13.48-15,19.8s-10.29,12.15-15.45,18.2l-1.17-1a12.71,12.71,0,0,1,.91-1.85c14.08-19.51,28.27-38.94,42.19-58.57,2.85-4,4.66-8.75,7-13.16l-.69-.36c-1.22,1.72-2.45,3.43-3.68,5.15l-1-.41c9.93-25.05,19.09-50.31,22.37-77.7l-37.62,2.82c-2.2,10.79-3.38,21.51-6.61,31.57-10.86,33.85-26.1,65.68-46.59,94.84-4.77,6.78-9.17,14-16.89,18-3.11,1.62-4.63,3.33-3.4,7.26.46,1.45-1.34,4.6-2.93,5.48-2.58,1.42-4.83-.39-5.89-3.07a51.88,51.88,0,0,1-1.67-5.53c-3-10.89-1.64-22.69-6.8-33.15a2.24,2.24,0,0,1,.05-1.3c.83-3.94,1.81-7.86,2.52-11.83,1.22-6.83,2.94-13.64,3.31-20.52,1.34-25.23,5.21-49.89,14.57-73.5.31-.79.43-1.65,1-3.94-3.67.89-6.86.94-9.16,2.4-3,1.92-5.12,5.28-8,7.46-13.28,10-26.7,19.83-40.12,29.65-.74.54-1.94.46-4,.91-2,2.63-4.6,6.47-7.68,9.87-3.84,4.26-5.26,9.21-5.3,14.7-.15,19.47-.79,39-.2,58.41.68,22.54,2.44,45,3.8,67.56q1,16,2.17,32c1.13,14.65,2.33,29.3,3.68,43.93.36,3.91,1.38,7.76,2.09,11.64l.81-.15q-1-7.26-1.91-14.53l.41,0q3.17,14.07,6.32,28.15a6.2,6.2,0,0,0,.28-3.65c-1.25-9.41-3.26-18.8-3.6-28.25-.87-23.91-1.08-47.84-1.36-71.76-.08-7.12.47-14.26.8-21.38a13.33,13.33,0,0,1,.8-2.9l1.14.13c.15,1.52.38,3,.43,4.57.65,19.61,1.19,39.23,1.93,58.83.44,11.58.44,23.25,2,34.71,2.63,19.85,6.38,39.56,9.48,59.36.87,5.56,1.11,11.22,1.64,16.83l-1.19.23-2.69-3c.22,2.78.27,4.71.54,6.61,3.61,25.38,3.44,51,4,76.51,0,1.37-.91,2.76-1.4,4.13l-1.77-.29q-1.07-13.71-2.14-27.42l-1.35,0c.33,15.82,2,31.75.63,47.43s-5.62,31.18-8.61,46.76l1.32.29c.71-2.81,1.47-5.61,2.12-8.43,3.85-16.63,7.66-33.28,11.57-49.9a19,19,0,0,1,2-4l1.47.6C386.13,1189,381.61,1209.07,377.22,1229.54Zm1220.52-45.37c-5.54-4-4.12-12.49-12.11-13.17-.45,0-1-1.11-1.19-1.79-1.25-4.09-3.11-8.14-3.49-12.32-2-22.07,0-44,4.57-65.54,3.4-15.95,8-31.65,12.19-47.42,3.46-12.94,7.14-25.83,10.79-38.72.76-2.69,1.81-5.31,2.78-8.13l-3.58-2.27c3.6-7.56,7.47-14.93,10.68-22.58q7.65-18.29,14.47-36.89c1-2.59,1.59-7,.19-8.43-2.84-3-1.42-5.39-.76-8.08s1.77-5.35,2.41-8.09c7.34-31.38,14.48-62.81,18-94.92.4-3.66,1.52-7.82.26-10.91a11.84,11.84,0,0,1-.26-8.43c1.74-6.14,3.77-12.22,5.17-18.44,4.7-20.89,2.44-42,1.06-63-.21-3.16-2.85-6.16-4.37-9.23l-1.19.61c1.78,17.45,4.79,34.87,2.23,52.39l-2.46.16c-3.24-17.74-5.18-35.61-4.34-54.34-11.5.66-23.23-1.39-33.39,6.21-.1,3.37-.62,6.81-.24,10.14,2.33,20.29,3.4,40.59.46,60.89-1.6,11-4.07,21.91-5.58,32.94-1.57,11.56-8.78,20.11-14.78,29.39,0,0-.43-.05-.57-.25-4.25-6.41-7.94-13.3-15.36-16.84-.45-.22-.72-.94-1-1.47-2.83-6.2-6.53-12.17-8.26-18.66-3.85-14.45-7.23-29.08-9.83-43.8-2.9-16.48-5.25-33.11-3.36-49.05l-40.43,8.22c-.3,4.1-1.17,9.51-1,14.89.44,13.47,1.33,26.93,2.12,40.39.13,2.21,1.08,3.5,3.83,3.8,4.4.49,5.68,4.19,3.15,7.85-.49.71-1.06,1.37-1.24,1.59,1.38,3.42,3,6.31,3.73,9.4,6.09,25.11,14,49.4,29.67,70.51a191.21,191.21,0,0,1,14.4,22.5c3.67,6.7,7.31,13.76,9,21.1,2.07,9.11,3.65,18.35.89,28.15-2.63,9.34-2.92,19.36-3.94,29.11-1.29,12.22-5.29,24.14-4.23,36.64.06.61-.76,1.25-1,1.93-1.24,4.2-2.54,8.39-3.5,12.66-.15.68,1.34,1.72,1.81,2.29-.59,1.31-1.72,2.76-1.87,4.3-2.45,25.55-5.45,51.08-6.9,76.69-1.07,18.81,0,37.73,0,56.61,0,3.4-.52,6.79-.71,10.2-.22,4-.34,8-.49,11.84C1573,1186.52,1584.7,1187.47,1597.74,1184.17ZM208.57,648.76c-12.19,25.08-26.46,48.55-46.95,68.09-16.53,15.76-25.6,35.89-28.35,58.64-.74,6.09-.87,12.24-1.32,18.92,9,.43,17,1.27,24.92,1.12,23.46-.46,46.91-1.39,70.37-2,3.89-.09,7.81.71,11.72,1.09l-.09.66-78.59,3.32.05.73,162.91-3.43c1.44-24,1.36-47.65,8.19-70.6l-3.09-1.94,2.8-1.86Zm-94.74,31.88c-10.27,4.77-19.74,9.3-29.36,13.54-2.71,1.2-3.85,2.68-3.86,5.63-.08,12.78-.36,25.55-.51,38.33,0,1.61.3,3.22.54,5.72,1-1.87,1.28-3.1,2-3.53,4.11-2.4,8.42-4.47,12.51-6.9,19-11.33,37.76-23.12,57-34a66.27,66.27,0,0,0,22.53-20.94c3.37-4.9,6.85-9.71,10.23-14.59,1.38-2,2.61-4.08,3.91-6.12-13.24,4.3-25.52,10.08-38.37,13.92-10.19,3-18.49,8.36-26.3,15-1.34,1.15-3.51,2-4,3.36-1.19,3.41-3.31,3.12-6.12,2.63ZM418.71,836.1c6.83-5.29,10.19-12.49,14.4-19.43l-3.78-.45c3.46-4,7.16-7.36,9.78-11.45s4.35-9.1,6.46-13.69c-3.24.67-5.57,2-8,3-1,.41-2.35.09-3.54.1.59-1,.94-2.4,1.82-3,3.07-2.08,6.43-3.73,9.46-5.85,1.61-1.13,3.45-2.65,4-4.38,3.31-9.68,6.45-19.42,9.25-29.25,1.1-3.87,1.2-8,1.84-12.65-8.26.57-15.78,1.32-23.31,1.53-3.54.09-5,1.35-6.26,4.66C422,768.9,419,793.53,418.38,818.59,418.26,824.16,418.58,829.73,418.71,836.1ZM124.25,773.64c-11.43,6.68-21.87,13.59-33,19-7.92,3.85-10.62,8.6-9,17.16,2,10.89,3.08,21.95,4.54,32.87l38-25.33c-2.59-2.65-5.11-5.56-8-8a4.88,4.88,0,0,0-4.34-.67c-3.3,1.65-6.25,4-9.47,5.84-5.21,3-10.53,5.75-15.79,8.61l-.6-1.09,25-18.08c-2-2.49-4-4.8-5.73-7.37-.68-1.05-.51-2.65-.72-4a25.15,25.15,0,0,1,3.77-.16c5.14.51,10.27,1.12,15.78,1.74ZM81.77,793.85c.92-.43,1.45-.62,1.93-.9,13.08-7.62,26.19-15.21,39.2-23a6.89,6.89,0,0,0,2.59-3.68c3-9.6,5.88-19.24,8.76-28.88a6.78,6.78,0,0,0,.23-1.5q-26,12.34-51.85,24.68c-.83.39-2,1.26-2,1.93-.11,4.19.08,8.4.18,13.42,5.83-3.67,10.6-7,15.62-9.77,8.39-4.72,16.92-9.2,25.46-13.64,1.38-.72,3.12-.72,4.69-1a3.92,3.92,0,0,1-1.93,2.3q-16.28,9.23-32.56,18.4C79.88,779.06,79.88,779.05,81.77,793.85Zm339.18,87c14-11.49,46.63-73.44,49.89-88.84-7.68,5.12-15,10.88-23.06,15.13S437,818.85,432,826.65c8.22-4.84,13.45-12,22.14-13.54-10.43,14.81-28.54,21.13-39.55,35.7l3.33.66c-5.43,5.06-.8,9.84-1,16.1l14.68-10.41-.73-1.13a55.17,55.17,0,0,1-7.9,2.66,5.32,5.32,0,0,1-4.1-1.53c-.43-.44.4-2.8,1.27-3.66a69.06,69.06,0,0,1,6.49-5.15c.23,1,.38,1.6.54,2.29a46.12,46.12,0,0,1,6.36-1.72c3.64-.47,5.42,1.56,4.4,5.09a9.87,9.87,0,0,1-2.77,4.39c-3.33,2.94-6.9,5.61-10.39,8.35C420.87,867.78,418.88,876.19,421,880.89ZM1577.39,805l2-.23c6.58-30.82,1.9-61.78.63-92.09-1.78-1.23-3.46-1.79-4.1-2.93-2.65-4.7-6.46-.61-9.6-1.29-.27-.06-1.78,3-1.73,4.6.2,6.31.66,12.63,1.27,18.92,1.41,14.44,2.47,28.95,4.62,43.29C1572,785.28,1575,795.08,1577.39,805ZM86.44,628.84,85.5,628c-5.26,3.23-10.58,6.35-15.7,9.78-1,.66-1.52,2.5-1.64,3.85-.46,5-1,10.07-.92,15.11.24,30.81-2.55,61.68,1.78,92.42.89,6.32,1.4,12.69,2.16,19,.74,6.12,1.57,12.22,2.37,18.33-.78-42.15-1.07-84.2,5.15-126.62L71.47,664,70,662.9c12.41-6.52,11.15-18.26,12.74-28.79ZM1249.07,750.42l.74,1.18c-3.68,2.7-7.34,5.43-11,8.1-6.66,4.8-6.67,4.78-4.66,13.33,2.33-1.07,4.64-2,6.85-3.16q16.36-8.45,32.68-17a5.14,5.14,0,0,0,2.19-2.6q4.1-11.06,7.89-22.21a3.34,3.34,0,0,0-.74-3c-.55-.41-2.1.06-2.93.58-3.75,2.36-7.28,5.07-11.1,7.29-11.39,6.63-22.79,13.22-34.35,19.52-4.16,2.27-4.44,4.85-2.07,8.78ZM85.67,964.55l1.25.7c2.11-1.49,4.18-3.06,6.34-4.46,7.56-4.9,14.21-11.33,23.42-13.44.9-.2,1.82-2.08,2-3.31q2.53-15.62,4.77-31.28c.41-2.8.48-5.65.76-9.1L103,914.7c.7,3,1.3,5.59,1.9,8.2l9.41-3.49,1.22,1.8c-2.21,2.08-4.19,4.52-6.69,6.13s-3.09,3-2.43,5.79c.61,2.55.49,5.28.69,7.94l-1.12.17-4-10c-3.79,3-8.63,4.86-9.85,8.11C89.11,947.43,87.72,956.12,85.67,964.55Zm1142-183.25c.46,3.11-1.67,5.83,2,8.32s6.22,3,9.93.66c4.62-2.95,9.53-5.47,14.41-8,2.92-1.5,6-2.64,9-3.95l.54,1.1c-6.69,7.46-15.86,11.37-24.84,16.38l16.75,12.39,18.61-52.89c-2.08,1.07-3.12,1.59-4.13,2.14-9.16,4.91-18.24,10-27.51,14.68-4.7,2.38-10,3.78-11,10.11,0,.18-.47.3-.72.44Zm-1066-82.07c.27-.06,0-.06-.26.06q-39.52,22.73-79,45.5c-.9.52-2,1.62-2.07,2.49-.16,3.64.05,7.3.13,11.12a7.83,7.83,0,0,0,1.66-.32q27.45-14.22,54.87-28.49a8.61,8.61,0,0,0,2.71-2.19C147.09,718,154.43,708.51,161.65,699.23ZM133.13,610.7c-6.76,5.23-5.51,13.46-8.43,20.63l8-.93.81,1.25c-6.32,3.16-13.46,5.78-10.8,15a13.11,13.11,0,0,0,2-.62,5.86,5.86,0,0,0,1.81-1.25c10-11,19.74-22.19,24.64-36.58.36-1.07-.3-3.34-1.16-3.82-4.77-2.65-9.75-4.91-15.34-7.64C134.49,601.62,129.38,605.36,133.13,610.7ZM101.92,909.59c5.52-2.61,10.38-5.79,15.71-7.18,5.69-1.48,7.89-4.08,7.49-9.84-.32-4.56.13-9.18.25-13.83L98,894.19C99.24,899.16,100.55,904.26,101.92,909.59Zm18.53-291.74c-1.4.63-2.2.95-3,1.33-8.71,4.38-17.43,8.74-26.1,13.2a4.74,4.74,0,0,0-2.3,2.44c-1.35,4.8-2.45,9.68-3.72,14.84,10.65-5.2,20.73-10.09,30.77-15.06a3.3,3.3,0,0,0,1.62-1.93C118.71,627.94,119.51,623.18,120.45,617.85ZM85,594.21C81,599,72.67,599.32,72.26,608l5.29-3.36,1.61,3.2c-3.8,2.95-10,3.84-8,11,4.63-2.45,9.15-4.94,13.76-7.24a8.68,8.68,0,0,0,5-6.78c1.23-6.94,3.19-13.62,7.1-19.61,1.39-2.12,2.58-4.36,3.86-6.55-.25-.29-.5-.58-.74-.88-8,4.63-16.1,9.19-24,14-.9.54-1.07,2.31-1.58,3.51l.74.46,6.32-4Zm39.66,231.21L88,847.48c.54,2.95,1.32,7.11,2.22,11.94,1.74-1.36,2.94-2.41,4.26-3.29,7.53-5,14.85-10.36,22.69-14.83,8.62-4.92,8.82-4.56,7.94-14.71C125,826.45,125,826.31,124.64,825.42Zm74.72-183.94-23.39-17L160.85,654.7c6.64-3.61,13.53-7.32,20.39-11.09,7.1-3.89,9-3.69,14.9,1.91Zm332.72,69.68c0,1,0,1.94-.07,2.91,5.89.52,11.78,1.56,17.66,1.49,35.36-.47,70.72-1.19,106.08-1.85,11.06-.2,22.11-.46,33.17-.69v-.73Zm1058.31,67.9c12.15-7.56,15-14.38,10.63-24.51l-9.34,4.22-.82-.78c4.8-5.67,14.45-9.71,6.86-19.51a23.29,23.29,0,0,1-4.1,1.95c-3.68,1-4.66,3.17-4.25,6.89.57,5.3.53,10.66.68,16C1590.2,768.42,1590.28,773.53,1590.39,779.06ZM1230,752.2l50.28-28.57c-2-3.51-4.14-3.66-6.8-2.22-4.3,2.33-8.71,4.45-13,6.72-10.59,5.52-20.52,12.45-32.57,15.26C1228.65,746.58,1229.41,749.7,1230,752.2ZM114.22,967.62c-2.27,1.71-3.5,2.68-4.76,3.59-6.39,4.57-12.51,9.6-19.28,13.52-4.15,2.41-5.43,5.22-5.18,10,7.11-.92,14-1.73,20.83-2.78a3.61,3.61,0,0,0,2.34-2.22C110.19,982.83,112,975.84,114.22,967.62ZM123.92,603c-9.91,4.3-19.83,8.54-29.68,13a4.13,4.13,0,0,0-2,2.88c-.07.69,1.35,1.53,1.77,2l-3.73,7.43,1,.84a43.31,43.31,0,0,0,4.29-1.9c6.32-3.59,12.38-7.77,19-10.73C120.71,613.66,123.6,609.38,123.92,603Zm-7,349.67a15.7,15.7,0,0,0-1.87.79c-9.55,5.69-19.09,11.36-28.59,17.12a4.18,4.18,0,0,0-1.7,2.39c-.73,3.08-1.22,6.22-1.9,9.89,2-1.2,3.42-2,4.74-2.91,7.89-5.53,15.52-11.49,23.73-16.49C115.74,960.76,116.72,957.36,116.91,952.67ZM749.63,722l-.29-1c-14.41,1-28.82,2-43.21,3.16s-28.9,3-43.39,3.84-28.73.72-43.09,1c13.08.36,26.15.24,39.21-.22,26.25-.92,52.62.5,78.69-3.8C741.63,724.27,745.61,723,749.63,722Zm843.69,91.26-1.77-1.52q2.81-6.47,5.6-12.92l-1.16-.93-15,15.51c2.15,3.95,4.18,7.65,5.84,10.7,4.91-2.54,9.3-4.78,13.66-7.09a2.26,2.26,0,0,0,1-1.3c.83-3.3,1.58-6.63,2.44-10.35Zm-1497.43,72c9.62-4.77,19-9.39,28.32-14.12a3.31,3.31,0,0,0,1.48-2.37c.15-2.45,0-4.92-.1-8.35L94.53,879.57C94.87,881,95.41,883.24,95.89,885.26ZM84.36,663.2c4.09-1.39,8.25-2.05,11.56-4.09a182.81,182.81,0,0,0,17.62-12.78c1.45-1.15,1.9-3.56,2.8-5.39a7.39,7.39,0,0,0-4.42.68c-7.51,3.86-14.91,8-22.55,11.55C85.2,655.13,83.93,658.09,84.36,663.2ZM1232.57,800.9c-8.44,5-11.73,13.42-9.69,24.34l19.8-16.43Zm-745-52.62c-6.6,4.1-11.89,7.65-17.43,10.75-4.73,2.64-8.4,9.65-7.36,15.49,4.57-2.91,8.77-6.48,13.61-8.48C484.18,762.82,484.79,755.83,487.53,748.28Zm-6.69,19.3c-5.12,3.58-8.77,7.11-13.14,9-8.6,3.67-9.44,11.49-11.81,18.38,5.86-3,11.7-6,17.49-9.1a3.29,3.29,0,0,0,1.26-1.72C476.59,779,478.47,773.93,480.84,767.58ZM1560.36,1032c-3.27.32-6.07.46-8.8,1a3.4,3.4,0,0,0-2.36,1.93c-1.18,7-2.14,13.93-3.31,21.8,3.74-2,6.69-3.36,9.35-5.13a6.42,6.42,0,0,0,2.51-3.71C1558.78,1042.77,1559.46,1037.65,1560.36,1032Zm-12.92-2.47c5.88-1.87,11.69-2.2,15-5.24,2.75-2.54,2.55-8.27,3.8-13.12-5.41,1.26-9.89,2.22-14.3,3.41a3.73,3.73,0,0,0-2.39,2.11C1548.71,1020.52,1548.23,1024.44,1547.44,1029.51Zm-1170.71,85a452.85,452.85,0,0,0-12.78-79l-2.4.43Zm470-394c.12.64.25,1.29.38,1.93l72.2-1.52c-2.73-1.12-4.74-2.68-6.74-2.66-20.75.25-41.5.74-62.24,1.23A15.08,15.08,0,0,0,846.69,720.57Zm328.92-14.33c0-.66,0-1.32.05-2l-113.82,7.51.09,1.42Zm-1107-69.32c5.07-3.62,9.45-7.1,14.19-10a8.06,8.06,0,0,0,4.3-7.5c.1-3.7-1.45-4.23-4.31-2.81-3.71,1.85-7.39,3.75-10.95,5.86a4.89,4.89,0,0,0-2.2,3C69.05,629.06,68.91,632.7,68.56,636.92ZM1528.39,840l-4.79-15.49-12.89,4.83,10,14.54a10.26,10.26,0,0,0,1.41-.37C1524.08,842.46,1526,841.37,1528.39,840ZM65.54,759.16l-1.2.15c-1.85,24.05,5.74,46.91,10,70.19Q69.94,794.33,65.54,759.16Zm1150-17.6c4.31,12.72,5.75,25.13,1.32,37.89,3.75-.68,7.52-1.37,8.39-5.83.27-1.43-.71-3.08-1-4.65-1.55-9.5-3.06-19-4.66-29ZM340.18,867.15c-1-21.84,2.88-43.65.22-65.47C338.15,823.49,336.82,845.31,340.18,867.15ZM1494.22,733c1.8-1.17,3.56-2.41,5.41-3.5a31.72,31.72,0,0,1,5.86-3c6.83-2.26,6.87-2.17,7-9.43,0-1.27,0-2.54-.08-3.89C1501.24,715,1497.34,723.54,1494.22,733Zm17.85,4.9c-6.4,3.45-11.94,6.21-17.24,9.37s-5.51,4.28-3.8,10.05l20-11.11.7,1C1511.86,744.54,1511.94,741.9,1512.07,737.93ZM92.2,869.22c10.67-6.75,21.17-13.31,31.51-20.1,1.12-.73,1.31-2.88,1.93-4.36l-1.23-.86L91.14,864.42C91.58,866.41,92,868.12,92.2,869.22Zm1410.26-54.81c1.38,2.64,2.56,5.2,4,7.56.48.76,2,1.6,2.69,1.38,4.32-1.37,8.54-3,12.89-4.63l-2.46-9.28Zm100.06-39.29c-11.15,6.1-15.24,13.18-12.39,21.89C1596.05,790.59,1607,787.5,1602.52,775.12ZM91.73,915.58c4.51-1.67,4.8-3.87,3.81-7.32C92.07,896.17,89,884,85.76,871.83c-.29-1.11-.72-2.19-1.09-3.28l-1.42.35C86.07,884.4,88.88,899.89,91.73,915.58ZM195,655.36l-24,33.8c6.08-4.31,12.19-8.88,17.37-14.34A24.76,24.76,0,0,0,195,655.36ZM1516.77,795c-4.87,2.5-9.41,4.63-13.75,7.12-3.8,2.18-4.21,5.26-2.09,8.25l17.79-5.12Zm-291.49-61.3,20.25-13.85c-7.84,1.19-16.08-.83-23.52,3.09C1223.21,726.91,1224.23,730.28,1225.28,733.72ZM114.82,664.43l-1.26-.73c-9.91,5-19.88,9.83-29.64,15.07-1.36.73-1.66,3.41-2.45,5.18,11-4.78,21-9.82,31-15.16C113.65,668.13,114,665.92,114.82,664.43Zm374.73,74-1.23-1.33c-2.49.06-5.24-.53-7.41.34s-3.82,3.19-5.84,5l-.08-4-.82-.12c-1.51,5.09-3,10.19-4.84,16.3,5.67-3.87,10.6-7,15.24-10.5C486.54,742.63,487.91,740.36,489.55,738.45Zm833.5-39.53.2,2.34,91.69-6.45,0-.69Zm232.06,406.47c-5.49,2.37-7.58,5.07-7,7.85,1.91,9.54,3.29,19.11.59,28.79a39.47,39.47,0,0,0-.75,6.28l.89.15c.38-.78.77-1.55,1.63-3.3.51,6.9.94,12.74,1.38,18.57.41-13.52,0-27-.06-40.51,0-3.55,1.21-7.11,1.89-10.66C1554.09,1110.29,1554.57,1108,1555.11,1105.39ZM75.6,586.88,101.74,573c-6.42-5.13-18.49.7-23.66,11.44l-2-1.65C76,584.17,75.81,585.29,75.6,586.88Zm1489,314.92-1.34.55c1.44,5.07,3.15,10.09,4.24,15.25s1.56,10.44,2.37,16.16c2.24-1.87,7.06-1.4,5.63-5.45C1572.35,919.31,1568.31,910.62,1564.62,901.8Zm-8.78,156c-10.67,3.81-12.94,7.58-9.91,16.11C1553.4,1071.24,1558.08,1066.66,1555.84,1057.75Zm21.54-121.44c-10.59,1.72-8.48,10.4-11.44,16.48l9.84-2.1C1576.3,946,1576.82,941.37,1577.38,936.31Zm-32.22,154c10.63-3.14,11.81-5.06,9.36-14.64C1542.72,1082.1,1544.46,1079.37,1545.16,1090.3Zm17.61-119.92c6.93-3.14,14-5.79,11.61-15.32C1564.77,958.75,1562.76,961.34,1562.77,970.38ZM67,518.43c5.18,16.64,4.82,17.58,12.35,19C74.37,522.64,74.37,522.64,67,518.43ZM82,676.58l1.55,1.25L111,663.12a6.71,6.71,0,0,0,1.94-1.07,21.69,21.69,0,0,0,1.84-2.91,3.78,3.78,0,0,0-3,.49c-8.37,5.44-17,10.37-26.78,12.88C83.72,672.83,83,675.17,82,676.58Zm80.6-54.32c-1.43,2.16-2.88,4.38-4.94,7.51,4-.85,6.88-.89,9.1-2.1,1.74-.94,2.71-3.32,4-5.07l-3.6-2.59L163,615.85l-1.53,1ZM1589.3,739.34c8.72-5.2,9.13-6.45,5.08-14.59C1587.06,728.16,1587.06,728.16,1589.3,739.34Zm-17.43,231.8c-8.92,2.76-12.06,6.06-11.22,11.77C1571.79,979.14,1571.79,979.14,1571.87,971.14Zm-26.44,125.79c.22,3.18.42,6.1.62,8.93l9.29-5.09-.14-7Zm-14-238,1.41.8c.65-1.42,2.16-3.13,1.8-4.22-1.33-4-3.28-7.76-5.11-11.87l-6.34,3c.93,6.1,6.09,6.93,10.18,9Zm79.37-97.1,1.62-42-1.42-.06C1609.21,733.71,1609.56,747.75,1610.84,761.82Zm-397.61,24.49c-.62,5.08-1.17,9.5-1.84,15C1222.51,794.17,1222.77,792.07,1213.23,786.31ZM151.16,641.93c11.36-2,15-4.8,15.38-12.29C161.31,633.89,153.79,634.69,151.16,641.93Zm189.67,86.14-1.56.68q-.69,11.85-1.4,23.7a152.64,152.64,0,0,0,5.18-20.66C343.24,730.72,341.61,729.32,340.83,728.07ZM97.88,917.67c-5.89,2.22-6.19,3.11-4.16,11.86C101.32,926.43,101.47,926,97.88,917.67Zm1112.63-80.62,1.12.19c2.4-7.33,3.1-15,3.45-22.91a10.85,10.85,0,0,0-3.32,5.09c-1.43,5.37,1.59,11.21-1.6,16.47C1210,836.12,1210.38,836.66,1210.51,837.05ZM370.43,754.38c4.12-3.5,8-6.75,12.32-10.43C370.71,744,372,741.68,370.43,754.38Zm626-40.17c-11.81-.59-22.76-1.67-33.71-1.21,0,.64,0,1.28,0,1.92ZM120,685.35c3.1-2.75,6.09-5.35,9-8.05a2.32,2.32,0,0,0,.42-1.86c-.07-.36-.82-.84-1.28-.86C122.52,674.33,118.87,679,120,685.35ZM1592.71,834.89l7.64-12.34-1.07-.65C1590.45,826.7,1589.18,828.83,1592.71,834.89ZM402.62,729.67c-5.29.36-11.14-2-16.61,3.63C392.39,732.19,398.05,734,402.62,729.67ZM1546.36,876.36l.47-.36L1536,858.57l-1.18.07c-.1,1.36-.81,3.2-.19,4C1538.39,867.34,1542.43,871.81,1546.36,876.36ZM62.72,518.61c-1.5,11.32-.59,12.09,4.23,12ZM1562.49,988l5.69,7c.66-4,1.08-6.53,1.65-10Zm-349-263.28c-2.33,4.74.39,8.18.63,12C1217.84,734.55,1217.71,730.7,1213.54,724.7Zm-1089.31,81c2.08-6.51,1.27-7.27-6.56-6.92Zm287.07-76,.34,1.37,15.57-1.3c-.06-.44-.11-.88-.16-1.32Zm-45.64,26.37c-5.85-.32-6.85.68-7,6.52ZM234.23,898.24l.55-.67-11.54-10.35-1.09,1.33Z"/>
    <path d="M1133.67,676.93a51.92,51.92,0,0,1,6-.85c36.52-.9,73-1.52,109.57-2.69,19.88-.65,39.72-2.2,59.58-3.39,4.29-.26,8.57-1,12.86-1q95.4-1.12,190.8-2.13c31.66-.36,63.31-.9,95-1.25,7.85-.08,15.7.31,23.54.48,0,.41,0,.83,0,1.25-6.93.51-13.84,1.28-20.78,1.49q-149.07,4.66-298.14,9.11c-26.54.77-53.11.62-79.66,1-4,.06-7.94,1-11.92,1.17-2,.1-4.12-.51-6.18-.76a40.63,40.63,0,0,0-4.4-.4q-35.43-.45-70.87-.86c-1.78,0-3.55-.22-5.32-.34C1133.75,677.48,1133.71,677.21,1133.67,676.93Z"/>
    <path d="M475.16,683c13.73-6,282-11.56,288.55-6a45,45,0,0,1-6.21,1.25c-29.09,1.14-58.18,2.64-87.29,3.21-55.4,1.08-110.82,1.68-166.22,2.33C494.38,683.88,484.77,683.28,475.16,683Z"/>
    <path d="M1206,956.31c5.4-3.73,1-8.95,2.89-13.07l-1-.53-3.06,2.55-.64-.31a13.09,13.09,0,0,1,1.55-2.86c1.59-1.74,3.57-3.16,5-5,2-2.53,3.7-2.7,3.78-1.71,7.36-6.7,14.8-13.32,22-20.2,1-1,1-3.24,1.09-4.93a55,55,0,0,0-.08-5.59l1.22,0,.17,7.81,5.37-.64c-7.08,6.12-1.87,10.65.39,15.94,6.75-5.22,13.19-10.39,19.82-15.3,6.47-4.8,13.14-9.34,19.72-14l1.17,1c-1.06,1.55-1.84,3.45-3.24,4.58-3.57,2.88-7.45,5.38-11.14,8.11-7.51,5.56-14.93,11.23-22.47,16.75-3.69,2.71.46,5,.17,8.31-11.19-2.57-16.8,5.91-23.62,12.66,4.08-.09,8.17,0,12.23-.37.84-.07,1.91-1.5,2.25-2.5.43-1.31.23-2.83.35-5.33,3.86,3.94,7,7.15,11.11,11.31l-29.32,4.67.06,1.49c7.39,5,15.66,1.11,23.53,1.27,0,.37,0,.74,0,1.1-7.64.53-15.28,1.13-22.93,1.54-3.58.19-7.31-.7-9.55,3.58-.38.73-3.23.17-5-.39-15.48,12.51-28.31,28.63-44.76,40.71l-1-.92a7,7,0,0,1,1-1.48c7.92-7.08,16-14,23.74-21.25,5.72-5.4,11-11.3,16.42-17C1207.62,961.81,1207.62,961.81,1206,956.31Zm11.27-9.5c6.76-4.28,10.31-12.15,18.58-15.59-.29,2.35-.43,3.5-.62,5,4-3.25,4.77-10.06,2-17-6.47,6.67-12.66,13.24-19.08,19.57C1215.66,941.28,1215.11,943.64,1217.27,946.81Z"/>
    <path d="M933,465.74c6.56-3,314.85-8,327.41-5.46C1151.58,461.05,1042.91,469.82,933,465.74Z"/>
    <path d="M967.43,941.8c15.89-11.95,32.16-23.43,47.58-35.95,21.75-17.66,42.85-36.11,64.25-54.19,18.37-15.52,36.66-31.14,55.24-46.42,5.51-4.54,11.86-8.06,18.33-11.35-59.94,51.69-120,103.18-184.29,149.33Z"/>
    <path d="M1202.31,860.67c.21,10.07.18,20.16.75,30.21.24,4.35.35,9.89,2.92,12.69,7,7.66,4.2,16.53,4.33,24.83.06,3.5-3.69,7.06-5.72,10.59l-1.32-.28c-.73-5.92-1.46-11.84-2.17-17.63l-4.74-.64c.78-1.47,1.65-2.89,2.32-4.41.77-1.77,2-3.65,1.93-5.45-.21-7-.86-13.89-1.41-21.73l-90.15,71.54-.59-.68c5-4.42,9.77-9.1,15-13.21,18.56-14.6,37.27-29,55.9-43.52a87.28,87.28,0,0,0,7-6.15c1-1,2.48-2.49,2.36-3.61-.54-5.09,3.11-7.14,6.38-9.29,3.08-2,4.34-4.5,4-8.16a59.51,59.51,0,0,1-.21-10.59c.14-1.73,1.51-3.35,2.32-5Z"/>
    <path d="M1191.26,815.75c-2.31,1.93-4.56,3.93-7,5.75-24.49,18.8-49.48,37-73.39,56.52-19.77,16.13-38.26,33.83-57.37,50.78A95.43,95.43,0,0,1,1040,939c47.18-45,94.46-89.91,150.06-124.67Z"/>
    <path d="M1189.81,935.81c-4.1,3.71-7.81,8-12.36,11-15.18,10.19-27.41,23.6-40.51,36.07a208.24,208.24,0,0,1-16.18,13.24,7.55,7.55,0,0,1-5.38,1.19c22.58-23.28,44.43-47.2,73.53-62.51Z"/>
    <path d="M407.94,652.3c-45.88-20.3-88.7-46.5-133.5-68.88l.89-1.72L409,650.45Z"/>
    <path d="M394.79,666.57c-3.91,1.61-107.87-50.59-111.58-56Z"/>
    <path d="M1013.83,876.61c-28.64,22.83-55.85,47.51-87.23,66.74L925.54,942l87.34-66.38Z"/>
    <path d="M990.56,869.28c-24.07,23.7-49.92,45.15-78.64,63l-.91-1.17Z"/>
    <path d="M291.61,644.74c7.43,4.46,14.92,8.84,22.29,13.39,9.46,5.85,18.78,11.93,28.28,17.7,2.55,1.55,4.83,4.73,8.66,2.61.31-.17,1.44.86,2,1.49a34.76,34.76,0,0,1,4.15,5.21c.72,1.24.69,2.92,1,4.4-1.88-.23-4.28.17-5.53-.84-2.07-1.67-3-4.92-5.13-6.34-8.27-5.47-16.93-10.33-25.28-15.68-9.86-6.32-19.55-12.91-29.3-19.4a17.65,17.65,0,0,1-1.81-1.55Z"/>
    <path d="M1226.49,515.85c28.73,8.25,55.2,21.9,82,34.69C1280.43,540.73,1253.82,527.45,1226.49,515.85Z"/>
    <path d="M1216,892.44c-1.15-3.71-.47-5.89,2.31-7.86,7.5-5.3,14.85-10.85,22.1-16.49a10.74,10.74,0,0,0,2.88-4.56c.82-2.07,1.18-4.33,2.1-6.4a14.8,14.8,0,0,1-5.2,16.61c-7,5.28-13.83,10.76-20.74,16.15C1218.4,890.68,1217.34,891.42,1216,892.44Z"/>
    <path d="M1091.93,933.45l-48.34,42.49-.75-.86C1057.6,959.45,1072,943.37,1091.93,933.45Z"/>
    <path d="M1244.71,507.17l64.13,23.93-.58,1.55L1244,509.05C1244.25,508.43,1244.48,507.8,1244.71,507.17Z"/>
    <path d="M1349.93,520.55c-5.21.62-36-10.7-42.34-15.54C1313.71,504.73,1347.78,517.23,1349.93,520.55Z"/>
    <path d="M280.51,625.67c10.68,2.51,19.26,8.67,27.58,16C302.78,642.14,284.05,631.6,280.51,625.67Z"/>
    <path d="M1236.56,887.06l-20.08,19.75c-1.28-3.87-1.16-6.17,1.56-8.23,5.69-4.33,11.2-8.9,16.79-13.37C1235.41,885.82,1236,886.44,1236.56,887.06Z"/>
    <path d="M1249.36,493.26a342.92,342.92,0,0,1,49,21.5L1248.77,495C1249,494.41,1249.16,493.84,1249.36,493.26Z"/>
    <path d="M1381.5,555.68c.17.37.83,1.88,1.49,3.39l-.56,1.06-40.08-15.25.72-1.94c10.32,3.88,20.61,7.84,31,11.6C1376.06,555.27,1378.37,555.23,1381.5,555.68Z"/>
    <path d="M1609.08,647.59,1641.67,662c-4.54,1-27.23-8.71-33.07-13.26Z"/>
    <path d="M1049.67,1006.26c8.88-6.45,14.79-16.79,27.74-19.9l-26.81,21.12Z"/>
    <path d="M1234.54,898.94l-17.22,18.9-1.64-1.5c4-7.84,11.67-12.42,17.72-18.42Z"/>
    <path d="M1074.32,827q-4,3.76-8.09,7.54l-1.07-1.11,7.92-7.71Z"/>
    <path d="M1240.54,881.08l-2.07,13.13-1.28-.19q.93-6.59,1.87-13.18Z"/>
    <path d="M433.09,841.68c-.22-.57-.44-1.15-.67-1.73-4.42-1-6.75,2.57-9.8,4.55.16.36.32.73.49,1.09Z" style="fill: #fff"/>
    <path d="M286.72,850.41C274.21,866.53,259,879.75,241.8,891l43.72-41.84Z"/>
    <path d="M194.47,861.94q10.2-7.44,20.4-14.89a29.61,29.61,0,0,1,7.67-4.41c-7.25,8.57-16,15.41-25.4,22.25l-2.59-3.06Z"/>
    <path d="M233.54,817.63l-31.34,23-1-1.3,31.19-23.29Z"/>
    <path d="M433.09,841.68l-10,3.91c-.17-.36-.33-.73-.49-1.09,3.05-2,5.38-5.51,9.8-4.55C432.65,840.53,432.87,841.11,433.09,841.68Z"/>
    <path d="M372.86,769.78,368,773.22c-.92-4.38,1.64-7.87,10.26-14.05l1.06.7L372.7,770Z"/>
  </g>
</svg>
