<svg id="Layer_1" data-name="Layer 1" xmlns="http://www.w3.org/2000/svg" width="600mm" height="600mm" viewBox="0 0 1700.79 1700.79">
  <title>sketches frames</title>
  <g>
    <path d="M504,1268.43c2.22.18,4.33-.07,6.09.61,1.46.57,2.51,2.22,3.74,3.39-1.26,1.14-2.51,3.25-3.78,3.27-11,.16-22-.11-33-.14a26.77,26.77,0,0,0-7.44.74c-3.31,1-6.16,1.3-8.34-2a3.79,3.79,0,0,0-.83-.95c-1.41-1.07-2.84-2.11-4.26-3.15,1.2-1.06,2.46-2,3.57-3.2a4.21,4.21,0,0,0,.77-1.89c1.92-8.05,3.89-16.08,5.67-24.16.33-1.48-.11-3.12-.19-4.47,1.93-4,3.89-7.88,5.77-11.85,7-14.84,14.15-29.62,20.92-44.57,7.1-15.67,17.55-29,28.49-42a19.47,19.47,0,0,0,1.56-2.87c1.57,5.52,5.38,6.94,9.6,4.2,5.26-3.4,10.16-7.35,15.27-11,8.36-5.92,16.22-13,25.36-17.24,6.18-2.89,13.3-4.49,19.71-7.42q11.68-5.34,23.23-11c16.84-8.27,26.61-22.59,34.12-39.18,8.51-18.77,12.16-38.54,14-58.82.75-8.39,2.14-17.11,8.08-23.06,7.45-7.47,7.68-17.69,12.86-25.82l-1.16-.75-13.72,19c2.75-7.68,4.91-14.74,7.77-21.5,5.56-13.18,11.54-26.15,22.71-35.86,8.25-7.17,18.17-10.56,28.47-13.21a3,3,0,0,1,2.09.06c5.25,3.44,10.1.81,15.06-.81,4-1.32,8.16-2.47,12.7-3.83l-3-2,.47-1.4L778,891.09c-2.55-7.25-5.32-14.72-7.75-22.3a20.65,20.65,0,0,1-1-8.19c1.08-10,4.79-18.75,12.5-25.77l-13,9.35c.43-5.64,9.78-14.1,25.39-23.82-4.37-3.23-9.33-5.94-13-9.85a260.31,260.31,0,0,1-18-21.65c-1.38-1.82-1.13-4.89-1.6-7.39-.92-4.87-1.7-9.78-2.83-14.6-.26-1.12-1.59-2.07-2.59-2.92-6.7-5.71-13.53-11.27-20.12-17.11-2.89-2.55-2.59-7.51-6.83-9.33A92.55,92.55,0,0,1,715.92,731a33.53,33.53,0,0,1-9.41-8.26c-3.8-5.3-6.55-11.35-9.94-17-2.52-4.17-5.14-4.9-8.49-1.55-2.93,2.94-6.09,2.94-9.64,3.32-5.63.6-11.16,2.34-13.93-5.27-1.25-3.43-5-4-8.63-4.17-13.83-.67-27.67-1.48-41.48-2.52a68.66,68.66,0,0,1-18.58-4c-7-2.55-14.68-3.3-22.13-4.43-11.42-1.73-22.89-3.11-34.34-4.66-12.21-1.65-24.47-3-36.62-5-21.81-3.68-43.72-7.07-65.28-11.92-15.94-3.59-31.39-9.31-47.06-14.07l-2-.62c-3.1,3.83-4.43,4-8.74,1.29a5.33,5.33,0,0,1-1.72-1.26c-4.16-6.19-10.17-6.37-16.69-5.43-10.27,1.47-19.2-3.57-28.6-6.25a161.41,161.41,0,0,1-47.34-22.61c-5.1-3.5-11.2-5.57-16.83-8.31-10.26-5-17-13.55-23.47-22.55-4.86-6.81-10.19-13.27-15-20.11a58.59,58.59,0,0,1-5-9.87,42.44,42.44,0,0,1-3.66-19.16c.21-6-.42-11.94-.39-17.92,0-1.88.34-4.57,1.57-5.48,3.14-2.32,3.47-5.66,4.66-8.82q4.5-12,9.41-23.86c3.2-7.71,9.36-12.35,16.77-15.62a17.47,17.47,0,0,0,4.72-2.83,73.72,73.72,0,0,1,33.27-17.67c7.17-1.68,13.86-5.68,21.06-6.88,18-3,35.93-6.55,53.49-11.66a8.58,8.58,0,0,0,3.75-1.9l-27.92,3c56.37-16.72,113.22-31.12,172-36.56l-83.82,18.13.28,1.32c6.94-1.46,13.86-3,20.83-4.38,41.37-7.91,82.64-16.42,124.17-23.41,26.71-4.49,53.76-7.08,80.73-9.82,29.11-3,58.27-5.51,87.46-7.49,25.07-1.69,50.21-2.59,75.33-3.37,27-.83,54-1,81-1.65,30.06-.73,59.84,1.8,89.58,6,17.66,2.5,35.5,3.72,53.25,5.6,22.42,2.38,44.92,4.25,67.23,7.43,41.56,5.93,83,12.64,124.49,19,2.11.32,4.19.78,7.06,1.33l-3.19.95,20.82,4.63.17-.55-5.3-2.36.25-1c8.59,2.08,17.25,3.92,25.76,6.31,9.2,2.57,18.21,5.84,27.41,8.36,2.23.61,4.94-.68,7.43-.81a13.78,13.78,0,0,1,4.49.67c22.39,6.8,44.75,13.73,67.17,20.43,6.84,2,13.87,3.42,20.8,5.15a9.27,9.27,0,0,1,4.13,2.09c-5,1.08-9.8-.47-14.59-1.27-5-.85-10-2.14-15.22-2.87,1.12.57,2.21,1.19,3.36,1.7,24.94,10.93,48.89,23.64,69.59,41.57,7.53,6.52,13.42,14.15,14.69,25.08.72,6.32,4.44,12.48,7.62,18.27,2.24,4.08,3.65,7.92,3,12.55-.9,6.06-1.38,12.19-2.54,18.2a52.42,52.42,0,0,1-3.87,12.62c-7.24,15.13-16.13,29.05-31.29,37.57-7.35,4.13-15.46,5.65-23.86,5.88a18.86,18.86,0,0,0-6.18,1c-14.67,5.63-29.31,11.3-43.89,17.17-4.61,1.86-9,4.34-13.44,6.54l1,1.21c-1.25,1.45-2.24,3.65-3.81,4.21-13.57,4.82-27.18,9.55-40.93,13.85-7,2.21-14.4,3.48-21.61,5.49l17.79-1.33c.09.61.18,1.21.26,1.81a26.72,26.72,0,0,1-4.08,1.51c-15.27,3-30.57,5.81-45.84,8.81-16.1,3.15-32.06,7.94-48.31,9.19a282.75,282.75,0,0,0-41.28,6.52c-30.83,7-62.15,10.61-93.41,14.73-7.07.93-14.24,1.11-21.31,2-2.58.33-5,2.07-7.53,2.66-1.17.27-2.62-.7-2.85-.77-4.29,1-8.8,3.63-11.15,2.34-6.85-3.76-13.43-.11-20.07-.84-5-.55-10.17.72-15.27,1.19-1.13.1-2.38.57-3.38.25-6-1.93-8.22,2.4-10.75,6.28a1.57,1.57,0,0,0-.22.37C979,727.9,969,732.68,961.05,739.16c-8.16,6.69-17.14,12.38-27.45,15.53-1.07.32-1.81,1.68-2.75,2.51-8.12,7.18-4.31,17.43-6.73,26.08-1.34,4.8-2.37,9.73-4.13,14.37-2.61,6.91-7.63,11.51-14.69,14-4.26,1.52-8.33,3.58-13.22,5.72,3.6,1.84,6.81,3.4,9.94,5.11s6.57,3.57,5.89,8.34c-.18,1.28.67,2.7,1.22,4.68l-9.28-6.18,5.32,11.21c1.36-3.16,2.35-2.28,3.45-.19,3.6,6.88,5,14.25,5,21.92,0,2.41,0,4.83,0,7.24l1.41.19c.38-3.68,1.42-7.46,1-11-.69-5.49-2.53-10.83-3.63-16.29-.26-1.31.44-2.82.7-4.23,1.13.87,2.65,1.5,3.3,2.64,2.62,4.55,6.2,9,7.09,14,1,5.52-.35,11.51-1.08,17.24-.26,2-1.63,3.91-2.68,5.75a6.71,6.71,0,0,1-2.4,2.72c-3.87,2-5.49,5-4.11,9.31.24.75,2.39,1.45,3.49,1.26,3.5-.6,6.88-2,10.39-2.39,2.23-.23,4.6.82,6.9,1.31,1,.23,2.29,1,3.1.65,6.52-2.7,12.72-.57,18.76,1.4,9.08,3,18.12,6.16,27,9.79,15.36,6.29,23,18.92,27.1,34.27q14.43,53.36,29.08,106.64c2,7.44,4.52,14.76,6.37,22.24,1.15,4.65,4,7.32,8,9.34,9.54,4.86,19,9.92,28.62,14.59,12.66,6.15,24.51,14,38.54,17.33,3.47.82,6.32,4.23,9.49,6.4,16,11,32.55,21.45,45.27,36.43,11,13,20.13,27.25,25.72,43.65,4,11.75,9.33,23,13.61,34.69,3.57,9.75,6.43,19.76,9.71,29.62.82,2.5,2,4.87,3,7.14-1.73,1.49-3,3.18-4.66,3.87a17.85,17.85,0,0,1-6.66,1.13c-2.89,0-5.79-.77-8.68-.78-10.71,0-21.43.25-32.14.14-3.61,0-4.18-2-3.53-5.48a51.45,51.45,0,0,0,.74-12.27c-.47-8.26-1.31-16.49-2.19-24.72a11,11,0,0,0-2-4.67c-7.59-11.15-16.2-21.5-27-29.67-5.93-4.5-13.54-7-18.8-12.1s-11.17-3.66-16.83-5.12c-7.3-1.89-14.44-4.44-21.57-6.91-10.26-3.55-20.19-8.59-30.72-10.69-23.28-4.66-41.58-18.24-60.2-31.32-15.12-10.63-29-22.87-40.35-37.54-7.27-9.39-13.18-19.37-12.46-32.3.63-11.46-1.26-22.83-6.95-33.14-.7-1.28-2.34-2.93-3.52-2.91-4.14.1-6.74-1.93-8.84-5.06-5.25-7.85-12.57-12.56-21.69-14.79-3.12-.76-5.67-1.18-6.28,3.5l-3.08-3.43v16.33l5.62-1.82c-.47,12.34,3.78,23.95-.3,36.24-6.79,20.44-12.36,41.3-18.47,62-1.06,3.58-2.67,6.71-7.33,6.68.33,5.06-4.41,11,5.29,13.84l-6.31,1c-.1,1.59-.19,3.1-.29,4.73l5.16,2.42c-5.15.43-5.36,3.55-5.17,7.32.73,14.38,1.23,28.78,2,43.16s-.27,28.73-4.21,42.83c-3.45,12.37-6,25-8.94,37.51a16.22,16.22,0,0,0-.64,5.05c1.6,16.76,3.36,33.51,4.93,50.27A7.8,7.8,0,0,1,860,1332c-4,6.3-9.34,9.94-17.35,8.55a25.62,25.62,0,0,0-8.53.43c-6.23,1.1-9.8-2-13.53-6.58-3.88-4.77-4.76-8.79-3.52-15.08,2.4-12.12,2.85-24.62,4.08-37,.2-2,.18-4,.44-6a33.63,33.63,0,0,0-1.35-15.95c-8-22.54-8.77-45.78-6.17-69.33,1.37-12.47,2.32-25,3.5-37.47.42-4.39.31-9,1.59-13.12,2.7-8.72.23-17-1-25.45-.17-1.2.42-2.5.31-3.72a11.56,11.56,0,0,0-1-4.78c-5-8.32-11.15-16.09-14.86-24.91-3-7.14-3.22-15.49-4.44-23.34a53.42,53.42,0,0,1-.4-12.1q1.05,2.76,2.12,5.52l1.14-.26c-1.54-6.52-3.11-13-4.63-19.56a31.47,31.47,0,0,1-.87-5c-.52-7.78-.94-15.58-1.4-23.49-16.25-.6-29.2,5.29-40.06,16.24a5,5,0,0,0-1,2.66c-1.95,13.51-3.41,27.11-5.87,40.53-3.37,18.41-13.83,33-26.9,45.84-6.41,6.3-13.42,12-20.11,18-14.13,12.72-31.07,20.06-48.72,26.51-16.88,6.17-33.18,13.88-49.87,20.59-8.71,3.5-17.69,6.29-26.55,9.4-5.38,1.89-11.24,3-16.06,5.81-26.5,15.55-46,36.93-54.38,67.26a13.74,13.74,0,0,0-.51,3.37C504,1262.48,504,1265.32,504,1268.43ZM782.69,916.29l-10.12,6.26,4.62.2c.18.37.35.75.53,1.12-4.3,2.62-8.43,5.58-12.92,7.83-27.15,13.61-54.39,27-81.55,40.64a7.39,7.39,0,0,0-3.55,3.75c-1.51,4.67-2.5,9.5-3.9,15.1,2-1.66,3.58-2.77,4.94-4.07s2.08-3,3.48-3.87c10.25-6.73,20.7-13.17,30.9-20,21.47-14.36,42.9-28.76,67.21-38.12a3.5,3.5,0,0,0,1.74-2.78,36.77,36.77,0,0,0-1.42-6.09c-1.27-1.24-2.63-2.41-3.79-3.74-3.79-4.35-10.26-7.22-15.21-2.74a15.94,15.94,0,0,1-3.37,1.87c-21,11.06-41.78,22.43-63,33-8,4-9.78,11.41-14,19.07,1.89-.78,2.66-1,3.38-1.39Q730.14,941,773.6,919.7C776.5,918.29,779.66,917.41,782.69,916.29Zm167.19-545-.07-.81c-15-.66-30-2.1-44.92-1.84q-70,1.25-140.08,3.67c-28.38,1-56.81,2.4-85.06,5.19-44.91,4.45-89.84,9.15-134.47,15.71-40.66,6-80.93,14.59-121.37,22.07-1.07.2-3,.88-3,1.19.37,3.78-2.76,3.06-4.64,3.63a66.11,66.11,0,0,1-7.95,1.72A610.49,610.49,0,0,0,300.19,451.1c-14,5.17-28.27,9.89-39.71,20.41a38,38,0,0,0-10.15,15c-.8,2.14-.87,3.82.8,5.82,2.23,2.68,3.89,5.86,5.79,8.82l-.71.53-6.34-3.58a33.62,33.62,0,0,0,4.2,11.41c6.88,10.79,14.69,21.13,25.71,27.78,10.61,6.39,22.16,11.24,33.39,16.56a66.32,66.32,0,0,0,9.76,3.2c10.74,3.13,21.49,6.2,32.24,9.3l.36-1.09c-1.24-.54-2.46-1.1-3.71-1.6-16.45-6.55-33-12.85-49.3-19.74-9.73-4.11-19.21-8.94-25.42-18.16-.7-1-1.42-2.06-2.12-3.1l1-1a18.5,18.5,0,0,1,3.09,2.24c6.82,7.56,15.81,11.62,24.95,15.33,44.75,18.15,90.74,32.28,138.44,39.91,29.27,4.68,58.85,7.51,88.34,10.77,15.46,1.71,31,2.48,46.5,3.89,1.7.16,3.26,1.8,4.89,2.75-.17.54-.34,1.07-.5,1.61,37.06,1.94,74.11,4.48,111.2,5.65s74.3,1.1,111.45,1.3,74,0,111,0l0,.19-88.75,9.54c32.72,3.21,145.43,3,160.89.47h-109c8.3-.9,16.63-1.5,25-2.16,35.43-2.8,70.83-6,106.28-8.31,31.63-2.06,63.32-3.18,95-4.69,18.26-.88,36.57-1.12,54.77-2.69q45.43-3.93,90.76-9.28a477.93,477.93,0,0,0,114.44-28.5q27-10.32,54.1-20.48a69.29,69.29,0,0,1,7.44-1.9l.42,1.11a59.84,59.84,0,0,1-6.35,4.12c-9.74,4.77-19.42,9.67-29.36,14-56.77,24.79-116.3,38-178,42-8.54.57-17.09,1-25.61,1.67-1.16.1-2.22,1.46-3.32,2.24,1,.71,2,1.92,3.11,2.05a32.67,32.67,0,0,0,8.93.27c36.11-5.73,72.26-11.21,108.25-17.58,19.51-3.45,39.22-6.61,57.63-14.52,6.15-2.64,11.86-6.27,18-8.94,8.89-3.87,18-7.28,27-10.89,14-5.58,27.35-12,39.12-21.73a35.58,35.58,0,0,0,10.67-13.87c3.06-7.08,1.19-13.25-2-19.12-5.65-10.41-15.62-16.86-25.13-22.78A513.11,513.11,0,0,0,1380.73,449c-15-7.24-30.72-13.07-46.14-19.47-1-.43-3-1-3.17-.65-2.25,3.51-4.92,1-7.05.36-5.7-1.82-11.22-4.21-16.85-6.26-6.56-2.39-13-5.36-19.76-6.89-50.2-11.35-100.94-19.65-151.89-26.74-42.47-5.92-85-10.46-128-10.25-13.12.06-26.25-.62-39.36-1.31-8.25-.43-16.47-2.1-24.72-2.18-29.29-.26-58.58-.14-87.88,0-5.8,0-11.6.62-17.41.95l-.06-1.5Zm515.2,152.69a52.15,52.15,0,0,1-2.53,5.78,19,19,0,0,1-3.4,4.31c-20.5,18.77-45.68,29.54-71.3,38.08-27.95,9.31-56.66,16.8-86,21.27-31.2,4.77-62.36,9.78-93.59,14.29-11.85,1.72-23.84,2.38-35.78,3.39-1.46.12-3.93-.11-4.32-.94-1.3-2.73-3.33-2-5.37-2-20.25,1-40.53,1.66-60.76,3.14s-40.73,1.07-61.11,3.4c-32.32,3.7-64.84,6-97.35,7.63-44.84,2.2-89.72.73-134.53-1.91-25.81-1.52-51.57-3.91-77.39-5.21-22.1-1.12-44.27-1-66.39-1.86-21.4-.87-42.79-2.29-64.17-3.59-12.25-.74-24.48-1.72-37.64-2.66l-7.56,19.29V606.09c-2.4-.21-4.41-.23-6.35-.59-4.72-.88-10.32.73-13.47-4.92-.58-1-2.64-1.26-5-2.25-1.35,8.13-2.58,15.55-3.81,23l-1.46-.22c.76-7.38,1.52-14.77,2.28-22.22-22.5-2.77-44.78-4.91-66.85-8.4s-43.95-8.31-65.91-12.54l-.12.28,54.32,15.41-.1.36-39-5.49a7.22,7.22,0,0,0-.59,1.76c-1.06,21.7,3.1,41.85,17.95,58.64,1.53,1.74,4.09,2.56,6.17,3.81l1-1.14c-5.19-8.36-8.72-17.09-9.85-27.06-1.08-9.57-2.87-19-2.81-28.69.82.27,1.19.57,1.28.94a11,11,0,0,1,.37,2.54c0,17.54,6.14,33.24,14.28,48.37,3.58,6.67,5.78,7.86,13.89,7-5-7.28-9.69-14.57-5.15-23.81A38.68,38.68,0,0,0,457.16,654a9.83,9.83,0,0,0,5.3,3c11.52,2,23.09,3.79,34.67,5.51,9,1.33,18,2.44,27.23,3.68.33-3.76.61-7.07.91-10.44,6.4,1.42,6.3,1.43,7.08,8,.16,1.34,1.27,3.57,2.17,3.69,8.27,1.09,16.59,1.81,24.81,2.63,1.17-3.79-.21-4.88-3.45-4.74-1,0-2.1-.8-3.15-1.24l.63-1.22,6.94,1.12c1,6.63,1,6.6,7.26,7.19q6,.57,11.93,1.27c22.24,2.68,44.48,5.43,66.73,8,4.46.53,9,.55,13.41.8.33-2,.58-3.54.73-4.42,10.88-1.06,21.33-2.87,31.78-2.9,14,0,27.94,1.14,41.88,2.2,4.43.33,8.7,2.53,13.13,2.91,7.79.66,15.64.63,23.47.79q27.12.58,54.24,1.06c4.91.1,10.12,2,13.88-2.19,4,5.14,10.36.92,14.54,4.52a11.42,11.42,0,0,1-2.37.56c-12.57.12-25.13.4-37.69.2-11.26-.17-22.5-1.09-33.76-1.25-4.09-.06-8.21,1.12-12.31,1.73,0,.51.06,1,.1,1.54,44.65,4.59,89.48,4.35,134.35,4.38l-8.73-1c0-.43,0-.85,0-1.28,3.72-.8,7.41-2.08,11.17-2.32,20.51-1.28,41-2.51,61.57-3.33,13.28-.52,26.58-.52,39.86-.32,5,.08,10,1.43,15,2.11a33.93,33.93,0,0,0,4.28,0c.06-.51.12-1,.19-1.55-7.08-3.74-16.24.66-22.86-5.2,7.44,1.82,14.81-2.89,22.65,1.17,4.24,2.19,10.28,1.69,15.4,1.21,9.21-.86,18.29-3.09,27.5-3.91,29.14-2.59,58.32-4.76,87.49-7.15,13.08-1.07,26.3-1.43,39.21-3.59,24.33-4.08,48.54-8.94,72.69-14,21.34-4.48,43.06-8,61.93-20.22,1.28-.83,3.27-.57,4.92-.81-1,1.35-1.91,2.7-2.84,4.06-.1.16,0,.43-.07,1.08,7.88-2.64,15.7-4.91,23.22-7.92,5.63-2.25,11.36-4.8,16.23-8.34,16-11.68,31.72-23.87,47.55-35.87l3.82-2.89a4.14,4.14,0,0,1-1.16,2.91c-9,9.89-17.81,20-28.4,28.29-1.09.85-2.12,1.77-3.17,2.66a7.25,7.25,0,0,0,3.8-.62c9-3.9,17.84-8.41,27.11-11.62,10.48-3.63,17.63-10.93,23.94-19.29,6-7.92,11.37-16.26,17.3-24.82-4.54,12.43-11.66,22.92-19.23,33.15C1460.47,575.73,1471.84,548.47,1465.08,523.94Zm-250.77,736.93,1.11-1c-.67-2.56-1.28-5.15-2-7.69q-4.44-15.18-9-30.34c-.24-.81-.37-2.13-.89-2.33-5.69-2.21-5.16-7.75-6.48-12.15-6.18-20.47-15.16-39.78-29.22-55.72-10.29-11.67-23.13-21.16-35.25-31.1-3.94-3.24-9-5.44-13.92-7.08-14.45-4.83-29.15-8.88-43.59-13.76-6.87-2.31-13.3-5.89-20-8.7-1.94-.81-4.33-.57-6.21-1.45-2.64-1.23-4.84-3.5-7.53-4.55-5.3-2-8.13-5.6-9.48-11.12-9.27-38-16.41-76.57-33.75-112.11a23.73,23.73,0,0,1-1.22-4.56l.93-.52,4.25,3.11a13,13,0,0,1-.23-2.72c.24-1.72.65-3.42,1-5.12,1.53.89,3.76,1.43,4.46,2.76a119.51,119.51,0,0,1,5.1,12.24c3,7.76,5.88,15.54,8.81,23.32-2.92-14.45-6.12-28.79-13.29-41.82-1.52-2.77-2.43-6.33-7-5.53-.62.11-1.8-1.54-2.33-2.58-2.9-5.74-5.25-11.8-8.62-17.23-3.1-5-6.46-10.54-11.17-13.6-5.7-3.71-12.93-5.11-19.54-7.39a5.68,5.68,0,0,0-3.07.16c-1.51.39-2.94,1.49-4.42,1.51-8,.11-16,0-24,0a41.38,41.38,0,0,0-4.14.39c7.07,2.19,14.12,3.1,21,4.58S958.25,912,965,914s12.87,5.16,17.59,10.67a8.24,8.24,0,0,1-3.6-.68c-9.43-3.22-18.7-7.08-28.33-9.47-11.18-2.77-22.59-5.46-34.29-3.74-5.22.76-10.32,2.33-15.48,3.53,7.37,17.77,4,35,2.89,51.9l16.72-5.74c-3.77,3.2-7.65,6.33-12.08,8-6.91,2.56-9.48,8-10.82,15.17l37.15-25.71v9.69l-2.35-1.86L910.93,983.1a17.08,17.08,0,0,0,8.53-1.8c9.15-5,18.11-10.34,27.21-15.43,2.46-1.37,5.15-2.33,7.74-3.48l.93,1.74L932,979l6.67,7c9-4.44,16.57-10.89,25.87-13.77l1.08,1.8-24.13,15.75L947,998l15.28-6.85c.24.48.47,1,.7,1.44l-14,9.1,4.55,7.92,13-7.15.55,1-12.33,8.85,2.86,5.73,14.07-6.21.87,1.73c-3.47,2.36-7,4.63-10.37,7.14-.92.69-2,2.22-1.8,3.14a44.65,44.65,0,0,0,2.45,6.87l11.24-5.94L975,1026c-2,1.7-3.91,3.5-6,5.1-5.18,4-5.2,4-2.34,10.54,6.21-2.76,11.06-8.34,19.29-9.67-5.2,8.74-15.11,10.22-19.64,16.51,1.5,3.85,3.43,7,3.93,10.37,3,19.87,11,36.76,27.73,48.78,1.23.88,2.82,2.33,2.87,3.58.19,4.84,4.11,6.47,6.94,9.12,3,2.83,6.33,5.49,8.73,8.79,5.06,6.94,13,9.29,19.84,13.52-9.64-8.5-19.08-17.09-24.71-29l6.34,5.83a1.75,1.75,0,0,0-.4-1.78,99.38,99.38,0,0,1-17.92-29.51c-.49-1.2-.12-2.74-.15-4.13a13.46,13.46,0,0,1,2.92,2.5c1.69,2.64,3.1,5.46,4.66,8.19,12.41,21.81,29.55,38.31,53.19,47.6,6.78,2.66,13.48,5.53,20.11,8.53,2.38,1.08,4.45,2.81,6.67,4.25-.28.54-.56,1.08-.83,1.63-8.81-3.2-17.75-6.06-26.37-9.7-8.46-3.58-16.59-8-23.63-11.39,17.89,21.85,45.84,24.78,71.81,32.23l-7.47-5.64.64-1.22a22.6,22.6,0,0,1,3.72,1.13c5.88,2.91,11.64,6.07,17.59,8.84a58.56,58.56,0,0,0,8.8,2.81c4.35,1.24,9.32,1.42,13,3.72,22,13.84,38.74,32,44,58.48,1.64,8.34,2.79,16.77,4.22,25.51,3.94,0,7.94.19,11.9-.09,1.58-.12,3.08-1.3,5.53-2.41Zm-353.5-151.21c14.92-35.66,22.79-72.41,22.25-110.83-.07-5.28.5-10.58.17-15.83-.52-8.06-2.24-16.09-2.17-24.12.06-6.65-2.08-11.83-6.73-15.9-3.22-2.82-4.15-5.76-4.41-9.9a10.64,10.64,0,0,0-4.64-7.32c-3-1.76-6.95-1.71-10.42-2.71-10.6-3-20.64-1.46-30.1,3.84a6.12,6.12,0,0,0-2.5,4.87c.41,4.3-1.56,6.74-4.62,9.29-3.56,3-6.86,6.44-6.51,11.62l3.83-.62.52,1.05c-3.14,3.8-6.29,7.59-9.41,11.4-1.83,2.23-1.9,4.1,1.16,5.29.91.36,1.77.82,2.61,1.21-.34,2.71-.66,5.16-1,7.55,7,1.86,7.8,5.1,3,10-1.19,1.23-2.71,2.23-3.62,3.63s-1.95,3.28-1.79,4.83c1.36,13,2.75,26.09,4.63,39.06,1.12,7.79,3.14,15.45,4.76,23.18a2,2,0,0,0,.72-1.85,257.31,257.31,0,0,1-1.27-51.31,27.18,27.18,0,0,1,1-4.25l2,.12c1.17,25.88,1.55,51.86,8.46,77q.76-17.18,1.54-34.34l1.83,0q.75,31.92,1.52,63.78C842.18,1105.16,851.62,1103.16,860.81,1109.66ZM822.28,863.93c-1.76-6.57-.18-12.74,1.39-18.9,1.61-6.33,3.29-12.63,5-19.21-4.62-.67-9.8-4.11-13.5.71s-10.18,9.05-6.28,17.82l11.19-12.28c-2.91,5.41-6.74,10-10.17,14.87a12.1,12.1,0,0,0-2.25,6.49c.07,9.13.46,18.27,1,27.39.32,5.83.5,11.76,1.7,17.43a25.27,25.27,0,0,0,10.07,15l1.39-22.39,1.32,0A26.8,26.8,0,0,0,827.8,914h22c2-6.39-.38-5.26,10.89-5-.15,2.93-1.25,4.08-3.93,1.95-.86,1.64-1.62,3.09-2.37,4.54l.61,1.27c2.89-.9,5.79-1.76,8.67-2.71,6.23-2,12.47-4.09,18.66-6.28a7.61,7.61,0,0,0,3.38-2.42c7.65-10.3,11.14-21.57,8.77-34.57S887.1,845.9,881,834.39c-.75-1.41-1.41-2.87-2.12-4.3l1.4-.54c12.73,16.5,19.69,35.09,18.95,56.8,9.93-8.89,11-24.85,5.84-34.36q-6.63-12.25-13.56-24.33c-3.06-5.33-13.05-8.09-18.81-5.77-4.3,1.74-8.78,3.77-13.29,4.09-9.05.64-18.17.19-27.48.19A147.8,147.8,0,0,1,822.28,863.93Zm-89.36,199.38a265.48,265.48,0,0,1-42.55,19.39c-21.51,7.77-42.16,17.87-63.35,26.56-20.61,8.44-41.45,16.33-62.16,24.55a28.92,28.92,0,0,0-7.47,4c-6.14,4.94-10,12.27-16.81,16.57-.29.19-.39.7-.68,1.26L630,1119.28c-2.45,3.17-4.66,6.71-7.76,7.88-26.58,10.06-53.32,19.7-80,29.43-1.5.54-3.69.21-4.6,1.18-6,6.42-11.78,13.09-17.62,19.68a7.2,7.2,0,0,0,3.92-.62c6.81-2.55,13.44-6.18,20.48-7.4,12.36-2.15,24.09-6,35.75-10.26,3.89-1.43,7.83-2.73,11.74-4.1a17.91,17.91,0,0,1-6,3.39q-31,11.36-62,22.64c-6.44,2.33-13.71,9.64-16,16.59.6-.26,1.11-.46,1.61-.69q24.68-11.94,49.37-23.85c2-.93,4-1.6,6-2.39l.7,1.57c-3.36,2.34-6.49,5.16-10.12,6.93-16.42,8-33,15.7-49.5,23.55-1.52.72-3.41,1.36-4.29,2.62-3.11,4.5-5.86,9.26-8.74,13.92,2.67-.58,4.67-1.87,6.77-2.95,9.14-4.68,18.3-9.3,27.45-14a30.49,30.49,0,0,0,4.4-2.28c8.18-6,16.1-12.32,24.51-17.93,9.82-6.56,20.48-11.39,31.69-15.43,14.75-5.32,29-12.13,43.41-18.31,8.16-3.48,16.93-5.33,23.74-12.06,4.35-4.3,10.62-6.61,15.88-10,7-4.6,13.93-9.43,20.89-14.16l-.55-.92c-27.62,14.2-57.62,21.57-87,30.85a6.91,6.91,0,0,1,3.64-2.64c29.88-10.54,60.35-19.56,88.73-34a43,43,0,0,0,9.78-6.63C717.05,1088.86,725.23,1076.82,732.92,1063.31Zm110.82,259.8c4.74,2.44,6.73,2,6.72-1.69,0-15.1,1.29-30.28-2.41-45.19a10.25,10.25,0,0,1,0-4.61c2-9.19,4.41-18.31,6.33-27.53,2.91-14.06,8.47-27.65,7.52-42.39-.42-6.54-.59-13.12-1.35-19.62-1.34-11.48-1.88-11.77-14-11.12l-11.2.62-.06-1.08c7.81-2,15.6-4.26,24.19-.76v-12.55a48.47,48.47,0,0,0-26,4.3c-2.14,1-3,2.18-2.87,4.55.2,2.88,0,5.78,0,9.79l-3.17-5.78c-4.46,6.53-5.64,13.15-5.11,20.29.56,7.54,1.29,15.08,1.34,22.63.1,16.89,5.51,32.56,10.81,48.22,2.77,8.18,2.9,9.13-4.59,13.9,3.32,19.18,2.11,39,6.13,58.59C841.55,1331.73,843.25,1327.83,843.74,1323.11Zm-186-184.41a16.76,16.76,0,0,0,3.61-1c5.72-3.22,11.29-6.72,17.07-9.81,16-8.55,30.7-18.69,42.31-32.87a8.49,8.49,0,0,1,2.64-2.12,23.23,23.23,0,0,0,10.94-12.14c6.34-15.09,8.39-31.09,9.67-47.2.12-1.58-2-3.79-3.66-4.87-1-.67-3.32-.19-4.63.53-3.22,1.78-6.21,4-9.3,6-.28-.41-.57-.81-.86-1.21,9.84-13.92,25.15-22.25,37.32-35.5-8.3,3-14.71,7.15-21.54,10.29-20.22,9.29-39.53,20.51-59.4,30.59-5.31,2.7-9.67,5.26-9.12,12,0,.12-.42.26-1,.58l-3.51-5.39c-1.9,1.14-4.3,1.75-5.12,3.24-3.11,5.65-5.7,11.58-8.88,18.21,19.36-10.19,38-19.63,58.11-25.69a6.65,6.65,0,0,1-2.69,2.07c-8.34,3.76-16.69,7.46-25,11.21-12.07,5.44-24.72,10-32.29,22a19.34,19.34,0,0,1-2.12,2.42c14.6-5.59,28.78-11.84,43-17.95q16.13-6.93,32.38-13.52c1.48-.61,3.29-.43,4.94-.62.14.49.27,1,.4,1.46-40.28,16.07-78.09,36.83-115.85,59.71a8.39,8.39,0,0,0,1.87,0q49.2-20.58,98.37-41.2c7.73-3.24,15.47-6.45,23.51-9.81C723.63,1096.65,693,1119.84,657.74,1138.7ZM887.09,712.09c2.56,2.79,5,5.33,7.31,8s5.46,5,3.17,10.06c-4.49-5-8.52-9.12-12.21-13.56-2.13-2.56-4.42-3.9-7.73-3.19-1.9.4-4.3-.78-5.23,2.36-.85,2.83.55,4.13,2.41,5.7q8.82,7.47,17.4,15.23c.76.69.79,2.18,1.15,3.3-1.18,0-2.64.59-3.49.08-3.28-2-6.79-3.84-9.42-6.53-3.37-3.46-6-7.67-8.81-11.45-3.54,8-1.88,14.53,5.92,19.23a29.56,29.56,0,0,1,5.24,4.39c1.6,1.57,3.06,3.67.69,5.39-.78.56-3.38-.44-4.46-1.46-3.8-3.57-7.29-7.45-11.9-12.27,0,3.75-1.08,7.29.19,8.66,5.47,5.92,11.63,11.2,17.91,17.07,8.7-10.7,16.9-20.8,25.78-31.71.26,1.91.46,2.36.35,2.71a12.59,12.59,0,0,1-1.18,2.74c-5.66,9.06-11.3,18.14-17.09,27.12-1.45,2.25-3.05,4.84-5.26,6.09-3.16,1.79-2.4,3.5-.91,6.73,3.34-2.85,6.83-5,9.17-8,7.18-9.23,13.93-18.8,20.82-28.26,1.93-2.65,2.88-6.37,7.38-6,.74.06,1.76-.95,2.35-1.7,4.73-6,6.11-13.19,7.58-20.69H908.55a16.92,16.92,0,0,1,.69,2.12,16.52,16.52,0,0,1,0,2C902.5,709.1,894.24,714.67,887.09,712.09Zm-516.2-132c1.67,9.68,3.23,18.48,4.66,27.3a33.54,33.54,0,0,1,0,5.4l-1.44.29-4.6-6.45c0,2.86-.33,5.34.06,7.69,1.15,6.84,2.47,13.66,4,20.42a5.13,5.13,0,0,0,3.06,3c3.64,1.18,7.42,1.9,11.16,2.76.36.08.78-.17,1.17-.27l-.18-3.63c6.62-2.4,3.32-8.87,5.63-12.61,1.53,5,3,10.12,4.7,15.19,1.88,5.59,4.8,7.31,10.49,6.93-1.29-19.44-7.95-38.45-3.51-58.55ZM368,633.88c-1.55-17.24,1.41-34.39-2-51.38-.54-2.72-1.19-3.94-3.89-4.38-6.93-1.13-14-2-19.75-6.63a4.43,4.43,0,0,0-2-.61c-3.15-.54-5.19.23-5.38,4-.43,8.39-1.38,16.76-1.52,25.14-.08,5.07.33,10.35,5.55,13.6.9.55,1.26,2.45,1.33,3.76.29,5.79,3.64,9.28,10,9.9-6.45-12.66-6.64-25.89-4.13-39.37a32.89,32.89,0,0,1,.59,8.22c-.3,9,1.7,17.47,5.14,25.8C354.94,629.11,359.78,633.18,368,633.88ZM864,709.4l-.24-1.13c-10.36.59-21-2-31,3.34-2.1,1.11-3.08,2.07-2.65,4.49.84,4.63,1.21,9.36,2.26,13.93,3,13.17,6.31,26.28,9.49,39.41.45,1.84.92,3.68,1.48,5.91C856,757,864.26,737,866.84,714.48l-19.66,1.75-.19-1Zm6,50.6c-1.93,1.31-3.3,2.08-4.48,3.07-4.94,4.13-8.94,9.21-9.73,15.58-1.58,12.7-2.37,25.49-3.52,38.54,1.87-.24,4.36-.6,6.87-.88,4.89-.54,8.68-2.58,10.49-7.45,3.53-9.46,7.19-18.88,10.53-28.41,2.48-7.07,2.11-13.63-4.78-18.41a7.67,7.67,0,0,1-1.9-2.31c-2.14-3.47-4.48-3.53-7.38-.27Zm34.54,8.65c-2.18,2.39-4.7,4.55-6.47,7.21-4.32,6.46-4.76,6.76-11.5,4.17-2,7.06-3.87,14.19-6.06,21.22-1.58,5.12-1.77,5,3.8,5,.83,0,1.68.47,2.51.42,5.49-.34,11.17.67,15.77-4,8.2-8.37,10.38-18.72,11.14-30.05-2.3-.11-4.27-.25-6.24-.26C905.15,772.27,903.05,772.2,904.52,768.65Zm-86.18-11.48c-1,.89-1.91,1.64-2.71,2.52s-2,1.81-2,2.75c-.17,6.28-1.21,12.17-5.94,16.82a1,1,0,0,0-.32.76c1.07,4-1.93,4.69-5.5,5.71,1.33,3.68,2.3,7.21,3.86,10.46a48.76,48.76,0,0,0,5.56,8.94c2.18,2.77,5.22,7.44,7.32,7.16,4.45-.61,5.12,5.41,9.14,3.81-.25-1.18-.92-2.44-.67-3.5a24.92,24.92,0,0,0-2-16.63c-3.56-7.55-5.35-15.24-2.72-23.53a7.35,7.35,0,0,0-.19-4.12C821,764.42,819.55,760.59,818.34,757.17ZM497.49,1268.23c-2.47-14.45,3.57-26.71,9.74-39.09-8.45,4-16.48,8.22-24.5,12.5a2.73,2.73,0,0,0-1.23,1.14c-3.25,8-6.45,16.12-10.05,25.16l5-2.37C477.41,1269.27,484.3,1270.13,497.49,1268.23ZM725.32,705.91c5.21,6,10.47,12,15.65,18.06,5.67,6.62,12.69,11.46,20.38,15.3,2.43,1.22,5.45,1.28,8.52,1.94.12-7.09-.1-12.17-3.69-18.08-5.25-8.64-12.77-13.5-20.45-18.79a2.51,2.51,0,0,0-1.68-.06c-2.61.51-5.21,1.08-8.4,1.76L767.82,732l-1,1.54a27.92,27.92,0,0,1-4.39-1.7c-11.42-6.71-21.09-15.54-30-25.28C730.43,704.29,728.58,702.13,725.32,705.91ZM750.22,987c-1.93,1.49-3.72,3.1-5.73,4.37-12.69,8.08-26.75,13.69-38.54,23.57-8.31,7-18.55,11.68-28.1,17.11-3.19,1.82-4.05,3.92-3.13,7.19.51,0,.84,0,1.06-.07q35.87-19.62,71.7-39.29a4.07,4.07,0,0,0,2.06-2.37C750,994,750,990.54,750.22,987Zm106.59,141.52c.74-3.92,1.18-7.59,2.18-11.1.71-2.49-.21-3.5-2.12-4.74-5.06-3.25-10.72-2.55-16.2-2.63a13.76,13.76,0,0,0-7.33,1.76c-1,.65-.6,3.58-.83,5.48,0,.28,0,.67-.14.83-.83.85-1.62,2.05-2.63,2.29-.6.15-1.92-1.11-2.28-2a15.61,15.61,0,0,1-.64-4.19c-.25-2.36-.46-4.73-.69-7.09l-1.25-.1c-.62,1.64-2,3.46-1.72,4.89,1.61,7.26,3.68,14.41,5.73,22.14C837.13,1126.31,847.16,1128.77,856.81,1128.49Zm74-390.91c2.51,2.52,5.08,2.1,7.73-.15,6.4-5.46,12.74-11,19.35-16.2,3-2.37,5-4.74,4-8.9l-7.21-.51,2.06-2.52c-6.29,1.05-11.54,1.82-16.73,2.9-.93.19-1.86,1.58-2.32,2.62-1.68,3.77-3,7.72-4.77,11.43-3.39,7-7,13.88-10.55,20.81l.91.71C925.72,744.5,928.13,741.24,930.83,737.58ZM896,914.92l-.24-1.4c-2.54.69-5.13,1.26-7.62,2.11-3.23,1.09-6.37,3.33-9.59,3.41-3.95.09-6.5,1.25-8.34,4.69.91,1,1.9,2,2.82,3.07,6.6,7.7,13.45,15.26,16.93,25,.64,1.81.73,4.47-.19,6-.73,1.18-3.39,1.18-5.37,1.76l1.49,5.88c5.3-1,8-4.21,9-8.65,1.44-6.3,1.93-12.6-.64-18.88a147.27,147.27,0,0,1-4.73-14.08c-.25-.84.73-2,1.14-3.08.8.84,1.93,1.54,2.34,2.54a70.59,70.59,0,0,1,2.14,6.75l.91-.16c-.22-3.4-.45-6.79-.7-10.58h-10.3ZM315.35,565.68c0,1.7.27,2.9,0,3.91-3.11,10,0,19.75,1.65,29.5.19,1.12,2.33,2.83,3.42,2.73,4.41-.4,5.41,1.66,5.27,5.51-.09,2.59.81,4.75,4.25,3.72a87.5,87.5,0,0,1,2.76-39.88ZM828.11,779.07c2.62,11.66,5.25,23.42,7.91,35.17.92,4,4.19,2.85,6.9,3.11s3.28-1.26,3.58-3.51c1-7.34,2.14-14.65,3.17-22,.5-3.59.86-7.2,1.29-10.8l-1.24-1c-2.52,1.37-5.13,2.61-7.54,4.16a8.47,8.47,0,0,1-10.26-.87A50.48,50.48,0,0,1,828.11,779.07ZM811.82,753c1.68-2.74,4.11-4.86,3.93-6.72a135.57,135.57,0,0,0-3.6-20.6c-.77-3-2.75-6.91-5.21-7.92-2.61-1.07-4-1.83-3.88-4.71l-10.76,1.61c5.73,8.85,13.63,15.6,18.58,24.65a10.56,10.56,0,0,1-5.68-2.78c-5.84-6.23-11.49-12.65-17.23-19-.92-1-2-1.94-3-2.91l-1,.89C789.59,730.19,800.5,741,811.82,753ZM782.5,935.47,781,934.28c-8.6,6.79-19,10.4-27.53,17.82s-19.55,12.19-29.6,17.88c-9.86,5.59-18.14,14-30.24,15.69-4.67.67-8.89,4.26-13.39,6.34-2.86,1.32-3.64,3.27-2.65,6.31a19.35,19.35,0,0,0,2.9-.94c11.91-6.13,24-11.89,35.64-18.54,14.35-8.22,28.29-17.17,42.39-25.83,6.93-4.25,13.9-8.43,20.68-12.9C780.69,939.14,781.42,937.05,782.5,935.47Zm-106.76,93.34q14.88-7.59,29.67-15.15a3.59,3.59,0,0,0,1.05-.73c8-9.43,18.94-15,29.09-21.5,3.46-2.23,7.08-4.78,11-5.64,5.59-1.24,7.07-5.19,9.28-9.94-8.81,4.78-17.18,8.83-25,13.73-7.29,4.56-14.9,8.17-21.5,14.54-8.52,8.22-20.22,13.16-30.59,19.45C676.65,1024.82,674.7,1025.93,675.74,1028.81Zm-364.23-428,.86-1c-1.36-7.08-2.67-14.18-4.16-21.24a3.9,3.9,0,0,0-2-2.42c-4-1.77-8.08-3.3-12.49-5.06a37.34,37.34,0,0,0,6.19,22.55C302.16,597.1,307.54,598.49,311.51,600.82ZM755,995.52c8.9-.64,24.35-10.76,36.88-24-.55-1.26-1.11-2.51-1.63-3.68-9.8,6.1-19.5,12.29-29.37,18.21C757.23,988.26,755,991,755,995.52Zm75.79,162.83c9.18-5.15,18.77-6.42,29-5.81v-9.06a84.3,84.3,0,0,0-28.23,5.58,2.5,2.5,0,0,0-1.29,1.86C830.27,1153.28,830.55,1155.63,830.76,1158.35Zm-36.51-404.8-5.15-5.7c4.11,6.71,7.36,14.12,15.55,17.11,2.69,1,4.44.29,5.62-1.89.71-1.31.73-3,1.17-5-4.14,1.25-7.54-1.29-15-11.43-3.84-5.2-6.89-11-10.05-16.13C782.81,739.72,790.62,745.75,794.25,753.55Zm-309.31,482c6.72-3.44,13-7.73,19.9-9.93,9.18-2.92,12.22-11.19,17.9-17.26-9,4.36-17.51,9.46-26.36,13.89C490.65,1225.15,486.77,1229.17,484.94,1235.57Zm376.52-102.13c-10.59-.68-20.53-2.44-30.12,1.86-1,.45-2.34,1.54-2.37,2.37a33.76,33.76,0,0,0,.71,6.06l30.92-5.87C860.73,1137.17,861,1135.68,861.46,1133.44ZM698.3,939.54,759,908.16c-3.67.29-7.46.59-10.73,2.06-11.41,5.15-22.42,11.25-34,15.9C707.36,928.87,704.42,935,698.3,939.54Zm-444-392.7c.75,4.41,1.55,8,1.93,11.65.62,6,5.58,12,11.89,13.83,0-4.68.1-9.35-.07-14a4.53,4.53,0,0,0-1.62-3.09C262.69,552.45,258.78,549.9,254.31,546.84ZM768.59,970.62,784.89,960l-3.47-7.23-18.35,10.74c5.92.31,2.4,3.2,2.29,5.08ZM284,584.46c0-5.38.06-10.89-.06-16.4a4,4,0,0,0-1.19-2.92c-2.8-1.86-5.8-3.42-8.91-5.19C273.21,572.13,277.56,582.08,284,584.46Zm297,589.1.34,1c8.42-2.39,16.77-5.07,25.28-7.08,9.66-2.29,17.71-7.25,24.87-14.17ZM803.39,812.2l1.57-1.35c-7.49-5-9.7-12.85-12.3-20.5-2.07-6.08-3.85-12.26-6-18.29a77.53,77.53,0,0,0-4.22-8.46,2.46,2.46,0,0,0-.68,2.36c4.28,12.24,8.23,24.62,13.13,36.61C796.38,806.32,800.47,809,803.39,812.2ZM930.83,979.67l-14.14,7.1c7.69,7.81,10.42,7.89,19.18.47ZM294.28,558.79l-1.49.82c.65,2.67.43,6.36,2.13,7.82,3.45,3,7.92,4.73,12.18,7.1V563ZM1259.6,664.35c-7.76-1-46.09,6-48.3,8.84C1227.42,670.46,1243.88,669.71,1259.6,664.35ZM954,1042.93l-2.1-.16c-.21,1.47-.94,3.11-.53,4.37,2.94,8.92,6.09,17.78,9.23,26.63a33.69,33.69,0,0,0,2,3.93l1.43-.51c-2.14-8-4.22-16.11-6.52-24.11-.29-1-1.78-1.66-2.71-2.48l1-.17Zm-70.36,18.62c3.62-11.85,7-23,10.44-34.12l-1.32.55c-1.38-2.11-2.77-4.22-4.1-6.22C887,1034.74,885.36,1047.8,883.62,1061.55ZM974.8,712.63l-1.32-1.43c-1.56,1.09-3.39,1.94-4.66,3.31-5.76,6.28-11.37,12.69-17,19.06L949.56,736c5.21-2.8,10.49-5.44,14.54-9.35S971.29,717.37,974.8,712.63ZM704.87,999l.76,1.72L741,981.16l-1-1.82C727.37,984.25,716,991.43,704.87,999ZM798,861.62c-2.86,3.69-4.91,6.22-6.8,8.86a3.55,3.55,0,0,0-.71,2.67c1.75,4.83,3.7,9.58,5.59,14.36A208.86,208.86,0,0,0,798,865.32C798.06,864.52,798,863.72,798,861.62ZM928.35,996.24c7.75,8.49,9.38,8.78,15.24,2.87l-5.11-7.82ZM595.8,1110c-2.28,1-5.31,2.17-8.18,3.64a13.12,13.12,0,0,0-3.3,2.9c-1.79,1.9-3.21,4.28-5.27,5.77-3.25,2.36-6.9,4.15-10.38,6.18a181.53,181.53,0,0,0,19.86-7.73,3.1,3.1,0,0,0,1.39-.94C592,1116.5,593.91,1113.15,595.8,1110Zm98.52-108.73c-.12-.22-.23-.44-.34-.67a43,43,0,0,1-4.71,1.63c-1.79.4-3.85.06-5.43.8-6.86,3.23-7.81,2.1-6.21,10.6.9-.56,1.75-1,2.5-1.57Q687.24,1006.67,694.32,1001.25ZM248.79,512c.5,9.89,2.21,15.94,13.62,19.08ZM798.52,848.31c-8.26,8.31-10.58,13.27-8.81,19C793.42,861.27,800,857,798.52,848.31ZM945.7,1003l-6.4,3.33c2,3.19,3.77,6,5.67,9l5.6-3.82ZM312.56,612c-.41,5.11,1.81,6.5,4.95,7.47,4.48,1.39,8.8,3.25,13.25,4.74a18.79,18.79,0,0,0,4.28.4c-.32-1.46-.63-2.93-1-4.51-6.46,2.72-10.55,1.59-14.77-3C317.6,615.25,315.24,614,312.56,612Zm355.05,65-1.16,1.08c.93,1.1,1.79,3.07,2.81,3.16,4.18.36,8.4.15,12.67.15,1-2.48.1-3.66-2.52-3.79C675.48,677.42,671.55,677.2,667.61,677Zm149.71,417.61c.6-9.93-3.18-17.31-10.5-20.64ZM284.06,561.79c.82-2.22,1.38-3.76,1.93-5.27l-12.81-6.46C273,558.09,280.66,557.4,284.06,561.79Zm-31.51-23.95-.92,1.23,17.15,12.76,1.4-.92c-.47-1.25-.58-3.08-1.48-3.64C263.41,544,258,541,252.55,537.84ZM947.21,893.33c-8.61-2.29-11.19-1.75-14.32,3.09l9,1.08ZM919.69,750.82l-11.37,16.33A16.75,16.75,0,0,0,919.69,750.82ZM286,598.67l-1.08,1c2.54,8.51,3.45,9.41,10.68,8.9ZM685,677.79c1,4.67,4.86,5.64,14.35,4.32C695.33,676.78,689.73,680.33,685,677.79Zm267.2,348.76,4.78,8.54c4-4.37-.4-7.24-.17-11.11Zm-2.37-3.73c5.42-2.86,5.46-3.18,1.36-8.34l-4.5,3.22ZM322,627.86l-.51,1.09,22.55,7.74.44-1.28ZM704.17,916.32l1.15,1.47,12-9.44-1-1.35Zm279.3-205.4-1.44-1.2c-4.2,2.61-5.06,7.61-7.93,11.17l1.29.94ZM809.85,1063.13l1-.19-4.41-24.32-1.06.2Q807.63,1051,809.85,1063.13Zm-15-163.83-7.52-14.55C788.41,892.87,791.51,899,794.81,899.3Zm151.34,131.32c.86,2.94,1.71,5.89,2.69,9.26C951.19,1037.2,950.46,1034.78,946.15,1030.62ZM811.51,824.47c-3.34.89-7.06,1.42-6.53,7.16ZM721.88,706.38l-.79.74c2.4,2.35,1.65,7.28,7.22,8.12C725.85,711.84,723.86,709.11,721.88,706.38Z"/>
    <path d="M494.68,678.32a5.56,5.56,0,0,1,1.5-.16c44.23,7.68,87.63,20,132.55,23.89a20,20,0,0,1,3.58,1c0,.47,0,.93,0,1.39-3.75.08-7.57.67-11.24.17-18.92-2.58-38-4.67-56.67-8.4-21.93-4.37-43.56-10.25-65.31-15.51a46.93,46.93,0,0,1-4.58-1.61C494.57,678.82,494.63,678.57,494.68,678.32Z"/>
    <path d="M750.13,776.7q8.34,16.35,15.13,29.64C761.17,804.27,751.77,787.42,750.13,776.7Z"/>
    <path d="M1140.33,1115.5l-10.77-6C1133.89,1110.22,1137.92,1111.42,1140.33,1115.5Z"/>
    <path d="M676.85,1101.18c-.14-.44-.29-.88-.44-1.32l-21.95,8.8.41,1Z" style="fill: #fff"/>
    <path d="M731.05,936.9l.74,1.33,31-18.71c-.29-.49-.59-1-.89-1.46C750.06,921.74,741.65,931.13,731.05,936.9Z" style="fill: #fff"/>
    <path d="M860,829.43c6.85,5.73,14.87,23.37,13.28,29.44Q866.58,844.16,860,829.43Z"/>
    <path d="M863.22,910.32c.79-2.48,1.59-5,2.38-7.43l1.88.6c-.74,2.49-1.49,5-2.23,7.47Z"/>
    <path d="M676.85,1101.18l-22,8.52-.41-1,21.95-8.8C676.56,1100.3,676.71,1100.74,676.85,1101.18Z"/>
    <path d="M731.05,936.9c10.6-5.77,19-15.16,30.88-18.84.3.49.6,1,.89,1.46l-31,18.71Z"/>
  </g>
</svg>
