<svg id="Layer_1" data-name="Layer 1" xmlns="http://www.w3.org/2000/svg" width="600mm" height="600mm" viewBox="0 0 1700.79 1700.79">
  <title>sketches frames</title>
  <g>
    <path d="M1048.57,639.93c-5.55-2.4-11.26-4.51-16.64-7.25-19.87-10.15-39.9-20-59.38-30.9-23.66-13.19-46.86-27.21-70.18-41C881.92,548.7,861.8,536,841.12,524.37c-18.08-10.2-36.77-19.32-55.13-29-6-3.2-12-6.69-17.91-10l.49-.92c3,1.54,6.06,3.06,9.08,4.6,29.23,14.92,58.56,29.66,87.64,44.9,7.32,3.84,13.66,9.5,20.7,13.93,14.34,9,28.7,18,43.35,26.52,18.9,11,37.88,21.8,57.2,32,19,10,38.49,19.08,57.77,28.56a9.25,9.25,0,0,1,1.63.72c5.62,4.41,11.59,3.25,18,1.85q61.06-13.35,122.23-26.18c9.21-1.92,18.64-2.78,28-4.11a2.84,2.84,0,0,1,2.4.74c-7,1.63-14.06,3.3-21.11,4.86q-62.78,13.89-125.57,27.68c-1.44.32-3-.13-4.51.14a45.15,45.15,0,0,0-5.87,1.7c-1,.33-1.85,1.11-2.85,1.34-17.81,4-35.64,8-53.45,12.06q-87.33,19.76-174.64,39.52c-12.81,2.89-25.67,5.59-38.49,8.42-1.82.4-3.6,1-5.39,1.51l.18.84,74.63-14.39c.15.44.29.88.43,1.33-3,1.1-5.89,2.58-9,3.25-22.5,4.91-45,9.87-67.58,14.4-55,11-110.13,21.68-165.11,32.9-13.16,2.68-26,7.07-39,10.53-4.84,1.29-9.77,2.23-14.69,3.2-2.26.45-3.31,1.61-3.29,3.9,0,3.47-.12,6.93,0,10.39a31,31,0,0,0,1.12,5.14c5.36-1.16,11.28-2.37,17.16-3.75,44.52-10.48,88.88-21.63,133.57-31.3,47.61-10.31,95.5-19.3,143.29-28.7,35.5-7,70.61-15.59,105.62-24.66,35.24-9.13,70.53-18.07,106-26.27,27.9-6.46,56.13-11.46,84.12-17.53,13.29-2.88,26.36-6.78,39.54-10.15,4.14-1,8.33-1.88,12.5-2.81.12.41.25.82.38,1.22l-33.88,11.4.1.56c1.92-.31,3.84-.56,5.75-.93,15.71-3,31.4-6.12,47.13-9,13.68-2.53,27.41-4.82,41.11-7.23a5,5,0,0,0,3-1.43l-29.52,5.76c59.49-14.35,119.64-25.79,178.51-42.65l-.21-1-110.86,24.59-.08-.36c14-3.5,27.88-7.44,42-10.4,42.05-8.86,84.19-17.33,126.29-26,17.66-3.62,35.31-7.27,53-10.77,2.93-.59,4.65-1.71,5.23-4.85.8-4.28,2.06-8.47,3.12-12.7l1.42.13q-.39,7.17-.8,14.35l.73.15,4.09-20.21,1.62.26q-.83,9.55-1.66,19.12l.71.5c.68-.67,1.83-1.26,2-2,1.14-6.43,2.09-12.9,3.23-20.24l-13,1.57c1.42,4.38,1,5.32-2.31,6-21.86,4.56-43.73,9.06-65.58,13.66-43.39,9.11-87.07,16.56-131.07,22-1.87.23-3.65,1.13-5.52,1.4a42.36,42.36,0,0,1-5.57,0c.48.84.78,1.38,1.59,2.82l-110.16,18.53-.14-.83c13.7-3.07,27.38-6.29,41.12-9.18s27.55-5.42,41.32-8.32h-14.3l-.11-.73a36,36,0,0,1,3.6-.94c25.24-4,50.45-8.17,75.71-12a734.93,734.93,0,0,0,74.44-14.79c18.8-4.89,38-8.23,57-12.4,4-.89,7.93-2.51,12-3.56,6.22-1.63,12.49-3.05,18.74-4.58,1.09-.27,2.16-.68,4-1.26a11.86,11.86,0,0,0-2.14-1.1c-34.9-6.62-68.89-16.74-102.79-27.15-16.88-5.18-33.73-10.49-50.39-16.34-5.27-1.85-9.85-5.65-14.52-9.08,63.08,20.76,126.55,39.74,191.89,52.29,0,2.79,0,5.46,0,8.14-.1,4.54-.12,9.08-.47,13.6-.23,3,.47,4.42,3.71,3.62.39-.1.87.15,1.3.24l1,1.15a10.76,10.76,0,0,0-2.76,1.43c-1.21,1.17-2.16,2.62-3.26,3.9-.51.59-1.32,1.62-1.68,1.5-3.14-1.05-4,.94-4.79,4.17-.59-1.65-.91-2.52-1.26-3.48-.3,0-.77-.14-.93,0-2.94,3-7.12,2.85-10.7,4.2-4,1.51-8,3-12.16,4.25q-15.63,4.57-31.35,8.85c-2.13.59-3,1.39-3.08,3.88-.33,19.1-1.06,38.18-1.33,57.28-.64,46-2.44,92-1.25,137.89,1.13,43.58,1.41,87.15,1.2,130.72-.18,38.34-1.42,76.66-1.54,115-.07,19.21,1.35,38.42,2.05,57.63a89.48,89.48,0,0,1-.07,12.79,6.52,6.52,0,0,1-3.44,4.35c-7,3-14.15,5.71-21.35,8.21a6.58,6.58,0,0,1-5-.72c-6.51-4.21-12.82-8.72-19.22-13.09-2.22-1.52-3.38-3.26-2.08-6a7,7,0,0,0,.21-2.83c0-47.41.09-94.82-.08-142.23-.27-75.23-.84-150.46-1-225.69,0-13,1.37-26,1.92-39,.27-6.43.4-12.9.12-19.33-.71-16.21-1.8-32.41-2.49-48.63a126.83,126.83,0,0,1,.67-15.33c.28-3.62-.35-4.27-3.91-3.47-36.57,8.22-73.12,16.53-109.74,24.5-7.3,1.59-14.92,1.71-22.34,2.84-6,.92-11.94,2.31-17.88,3.55-23.73,5-47.46,9.86-71.16,14.92q-79.68,17-159.35,34.19c-1.14.25-2.26.56-3,.75-.65,4-1.7,7.63-1.74,11.23-.26,24.12-.27,48.24-.42,72.36q-.39,65.55-.9,131.1c-.08,9.53-.88,19.06-1.32,27.91,1.54,1.36,3.55,2.35,3.52,3.26-.11,3,1.86,6.7-2.36,8.81-5.45,2.71-10.7,5.8-16.12,8.57-4.32,2.21-8.52,2.47-12.75-.72-4.74-3.58-9.88-6.63-14.63-10.19a5,5,0,0,1-1.69-4.15,44.82,44.82,0,0,0,.65-16.93,151.92,151.92,0,0,1-1-20.36q-.09-87.24-.11-174.49c0-2.08-1.25-4.13-1.78-6.24a24.86,24.86,0,0,1-.88-5.17c-.12-4.39,0-8.78,0-13.68-1.29.22-2.54.35-3.73.65-10.4,2.67-20.77,5.5-31.2,8-20.88,5.08-41.76,10.14-62.69,15-29.09,6.71-58.19,13.34-87.36,19.68-7.19,1.56-14.76,1.3-22,2.81-10.82,2.26-21.43,5.53-32.21,8-8.48,2-17.14,3.17-25.64,5q-36.36,8-72.65,16.4c-5.08,1.16-5.9,2.31-5.88,7.32q.33,125.34.68,250.69.32,135.24.48,270.5c0,5.47,0,11-.18,16.42s0,5.58,7.14,6.17c-1.4,1-2.31,1.58-3.18,2.23s-2,1.16-2,1.8c-.24,4.1-3.44,4.6-6.32,5.78-7.82,3.19-15.4,7.08-23.41,9.68-3.7,1.2-8.08,3.26-12.33-.72-4.5-4.21-9.92-7.43-14.83-11.22-1.82-1.41-4-2.75-3.49-5.76.08-.47-.71-1.11-1.13-1.65-.71-.92-1.44-1.82-2.17-2.73l4.48-2.23c-.2-4.32-.16-9.38-.72-14.37-2-17.16-.56-34.34-.46-51.5,0-7.64.57-15.27.57-22.91,0-29.73.1-59.46-.16-89.19-.21-23.87-1-47.74-1.32-71.61-.18-11.82-.29-23.65,0-35.47.25-9,1.37-18,1.82-27,.39-7.74,1.29-15.62.26-23.21-.79-5.76.11-11.3-.12-16.93-1-24.32-1.38-48.67-1.77-73-.2-12.17,0-24.35.08-36.53q.18-31.67.4-63.33c0-1.14,0-2.29,0-3.94-4.16.85-7.74,1.63-11.33,2.32-5.86,1.13-11.75,2.14-17.59,3.36a9.19,9.19,0,0,0-3.64,1.91c-2.36,1.87-4.65,2.14-7.22.47-13.6-8.83-27.11-17.81-40.85-26.4-18.11-11.33-36.48-22.26-54.6-33.57-4.17-2.61-7.8-6.08-11.68-9.16l.57-1.06,5.92,2.18.42-.71L422.6,704.11c-.33,1-.53,1.61-.85,2.61-7.55-3.39-15.31-6.24-22.47-10.18-20.06-11.06-40.28-21.93-59.7-34-27.32-17.06-54-35.19-80.94-52.85-.66-.43-1.39-.75-2.22-1.2v7.28c0,26.26.16,52.53,0,78.79-.37,61.37-1,122.74-1.32,184.12-.09,16.1.51,32.21.45,48.32-.17,43.09-.51,86.18-.8,129.28,0,3.24-.15,6.49-.19,9.74a4.65,4.65,0,0,1-3.7,4.93c-4,1.13-7.87,2.45-11.84,3.55a79.76,79.76,0,0,1-9.7,2.27A8.39,8.39,0,0,1,224,1076c-6-3.84-11.84-8-17.73-12.11l-3.87-2.67c3.32-5.25,2.48-10,2.67-14.56.11-2.51.11-5,.12-7.55.07-16.41.22-32.82.15-49.24-.06-14-.33-28-.6-42-.2-10.23-.77-20.46-.77-30.7,0-31.13.42-62.26.27-93.39-.08-15.09-1.23-30.16-1.57-45.25-.23-9.89.17-19.8.21-29.7.08-15.37.09-30.74.13-46.11,0-11.21.19-22.42.09-33.62Q202.7,622,202,574.91a6.07,6.07,0,0,0-2.33-4.28c-14.83-9.83-29.8-19.43-44.64-29.24A92.66,92.66,0,0,1,146,534a3.23,3.23,0,0,1-.84-2.24c-.05-10.95,0-21.9,0-33l5-2.38c3.09,0,5.48.35,7.75,0,30.21-5.37,60.36-11.05,90.6-16.24,23.88-4.1,47.84-7.76,71.81-11.34,8.49-1.26,17.1-1.69,25.66-2.47a30.81,30.81,0,0,1,3.56.16c-1,.72-1.36,1.14-1.79,1.26a338.94,338.94,0,0,1-41.42,9.46c-30.79,4.71-61.47,10.22-92.2,15.34-18,3-36.07,5.82-54.08,8.84-1.66.28-3.18,1.44-4.76,2.19l0,1.25c4.19,2.38,8.37,4.8,12.6,7.14,13.78,7.63,27.83,14.81,41.3,23,14.17,8.58,27.71,18.21,41.69,27.13,10.15,6.47,20.66,12.4,30.86,18.82,11.21,7.06,22.23,14.42,33.35,21.62,1.45.93,2.69,2.82,4.9.8.45-.42,2.57.68,3.73,1.39,9.38,5.71,18.69,11.53,28.08,17.22a11.63,11.63,0,0,0,3.16,1c3.77,2.67,6.95,5.28,10.46,7.35,29.91,17.65,60,35.05,89.8,52.86,12.59,7.52,24.61,16,37.07,23.76,6.57,4.09,13.53,7.58,20.34,11.28,9.87,5.34,20.07,10.14,29.55,16.09,8.2,5.15,16.65,5.33,25.47,3.82,14-2.39,27.94-5.13,41.92-7.64a17.43,17.43,0,0,1,6.94.24,8.28,8.28,0,0,1-1.84.86c-15.09,3.07-30.15,6.27-45.3,9-4.13.75-8.5.12-13.22.12.79,1.85,1.26,3.29,2,4.59a4.4,4.4,0,0,0,5.32,2.41C619,736.16,674.53,724.78,730,713.14c21.39-4.48,42.55-10.06,64-14.17,74.37-14.24,147.47-34,221.36-50.35,9.56-2.11,19.07-4.42,28.61-6.65,1.48-.35,2.94-.76,4.41-1.13Zm395.89,16.15c.52-1,1.45-2,1.48-3,.21-7.39.06-14.79.38-22.18.22-4.87-3.34-6.73-6.56-10.3,0,7.17,0,13.22,0,19.27,0,5.67-.89,11.57,4.55,15.66.16.12.19.43.28.65l-4.43-2.58c-.61,6.27.21,7.94,5.32,10.58C1446,661.26,1446.41,658.58,1444.46,656.08Zm-440,243.29c-.68.57-1.87,1.07-2,1.72-.46,3.28-1.07,6.63-.79,9.89s-2.11,7.48,2.27,9.83l-2.41,3.09,13.35,6.91-11.3-19.7.76-.48q5.34,7.32,10.67,14.63c.64-3.62,1.43-7.43,0-10.07-2.47-4.64-6.33-8.53-9.5-12.8a13.93,13.93,0,0,1-1.25-3.12c2.59-1,2.38-5.85-.83-8.64C1003.27,893.87,1001.55,896.75,1004.42,899.37Zm14.19-40.6c-.26-1.82-1-3.7-.72-5.44.93-6,.52-7.21-5.14-10.82,0,3.53-.66,7.12.21,10.28.68,2.5,1.42,6.34,5.75,5.89.26,1.26.6,2.51.75,3.78a18.76,18.76,0,0,1-.06,2.8c-1-.25-2.15-.24-2.85-.81a34.68,34.68,0,0,1-3.69-4.13c0,4-.63,7.23.18,10.06s2.84,5.45,4.81,7.76c.52.61,2.79-.28,5.56-.66-5.68,4.29-3.14,9.28-2.85,14,.4,6.43,1.35,12.83,1.49,19.26.16,6.9-.37,13.81-.57,20.72,0,1,.08,1.91.14,3.05,4.19-2.62,7.93-4.89,11.58-7.31a3.23,3.23,0,0,0,1-2.16c.94-9.49,2.48-19,2.58-28.5.38-36.88.23-73.76.4-110.64.09-19.56.44-39.11.66-57.58-1.13-2.31-2.46-3.8-2.52-5.34-.37-8.22-.44-16.46-.57-24.69,0-3.63,0-7.26,0-10.54-3.38,1.63-6.71,3.86-10.36,4.77-2.86.72-3.71,1.75-3.73,4.44q-.23,25.53-.6,51.06c-.14,9.73-.18,19.45-.55,29.17-.41,10.56,1.14,21.12,0,31.68-.11,1.09-.2,2.19-.3,3.28l-1.24.25c1.69-7.45-.88-13.16-6.62-18-.43,8.74-1,17,7.24,22.67.7.47.87,1.74,1.28,2.64l-1.07.81-7-6.45c.56,6.1-1.19,11.75,3.42,16.26a13.85,13.85,0,0,1,4.15,12c-.15,1.49.88,3.1,1.16,4-.47,2-.94,3.55-1.15,5.09C1019,853.78,1018.87,856.27,1018.61,858.77ZM644.94,1300.86l.95-.13q.6-232.8,1.19-465.61l-1.33-.39a71.88,71.88,0,0,0-5.81,5.48c-5.57,6.52-10.64,13.51-16.58,19.66-4.54,4.69-3.48,9.76-3.65,14.93l.87.43,12.95-11.7c-3.4,5.94-7.26,11.46-10.85,17.15a18,18,0,0,0-2.18,6c-.32,1.59.11,3.32.12,5,.12,25.09,2.65,50.21-1.28,75.25a84.08,84.08,0,0,0-.51,12.51c-.05,16.6,0,33.19,0,49.79h-1.63V980.42l-1.7-.09a32.78,32.78,0,0,0-.6,4.14c-.41,16.71.27,33.42-.41,50.13-.2,4.88-.2,9.77-.32,14.65-.08,3.06,1.4,5.26,3.86,7.61.19-1.91.32-3.29.46-4.67a97.82,97.82,0,0,1,3,11.71c.07.31-.14.68-.22,1-.45,2-1.28,4-1.28,6q-.24,67.71-.31,135.42c0,4.8,0,9.6,0,14.41h-1.15c-1.64-16.59-.19-33.35-1.31-50l-1.79,0c.23,24.18,2.25,48.36.9,72.56a9.27,9.27,0,0,1-1.26-4.44c-.25-7.16-.95-14.36-.45-21.47.36-5.28-3.59-7.29-6.06-10.6l1.71,30.73,1.23,0c.26-1.32.51-2.64.76-4l1,0q.68,14.64,1.34,29.27l1.14-.07v-7.3l.22,0q1.44,9.56,2.88,19l-1.81-.13c1.47,18.21,2.91,36.13,4.39,54.46,1.47-.51,2.6-.8,3.64-1.27,5-2.27,9.93-4.7,15-6.86,2.59-1.11,3.4-2.79,3.4-5.55,0-10.26.25-20.53.43-30.8,0-1,.19-1.92.29-2.89l.79.06Zm-396.75-666,.84.62c-.67,1-1.27,2.15-2,3.15-6.54,8.81-13.05,17.65-19.7,26.39-2.24,2.94-1.77,5.87-.72,10,5.49-7.55,9.08-15.85,17.69-19.43-5.45,7.73-8.42,17.14-16.23,23.26-1.5,1.17-3.6,2.77-3.71,4.29a130.94,130.94,0,0,0,.18,16.09c0,.75,1.44,1.94,2.29,2,1.25.12,3.63-.47,3.69-1,.58-4.76,4.38-7.29,7-10.57,3.44-4.3,7.2-8.35,10.83-12.51l1.19,1c-2.43,3.14-4.85,6.29-7.29,9.43-1.31,1.68-2.81,3.23-4,5-3.6,5.59-7.06,11.27-10.64,16.87-.41.64-1.31,1-1.87,1.53-.87.91-2.43,2-2.32,2.89,1,7.93-2.29,16.3,2.27,23.88.15.26,0,.7,0,1.05-.38,8.56-.83,17.12-1.14,25.68-.34,9.64-.59,19.28-.8,28.92a23.86,23.86,0,0,0,.66,4.22c.66,4.06,1.85,8.12,1.88,12.19.14,19.21,0,38.42-.07,57.63,0,1.69.43,3.38.36,5.06a40.1,40.1,0,0,1-.75,6,52.13,52.13,0,0,1-1.38,5.33c-.38,1.27-1.31,2.51-1.3,3.75.08,10,.32,20.06.54,30.09,0,1.57.19,3.14.29,4.71l.61,0c.31-1.4.61-2.81.92-4.22a6.39,6.39,0,0,1,1,3.43c.37,19.67.85,39.35,1.06,59,.29,27.58.4,55.15.53,82.73,0,2.89.93,3.55,3.7,2.47a147.79,147.79,0,0,1,15.22-5.24c2.56-.69,3.48-1.55,3.47-4.24q-.27-84.66-.36-169.33,0-83.82.38-167.64c.07-12.86,1.48-25.72,1.59-38.59.19-22.55-.15-45.11-.28-67.67a19.3,19.3,0,0,0-.42-2.64c-4.4,4.71-8.64,8.89-12.46,13.42-4.27,5.06-8.79,10.07-12.06,15.76-4,7-.76,14.82-1.08,22.46C233.43,653,239.83,643.1,248.19,634.86Zm1226.9-41.07a6.5,6.5,0,0,0-1.44.51c-5.26,3.73-10.53,7.43-15.73,11.24-2.37,1.73-3.29,9-1.45,12,5-6.61,8.55-14.62,17.22-17.33a4.59,4.59,0,0,1-1.34,2.86c-4.63,5-9.49,9.75-13.84,15-1.51,1.81-2,4.6-2.54,7-.3,1.32.34,2.82.32,4.24-.17,11.3-.59,22.6-.55,33.9.06,14.92.68,29.84.65,44.76-.06,26.09-.47,52.17-.66,78.25-.1,15.13,0,30.26-.1,45.38-.08,19.73-.24,39.46-.34,59.18,0,7.74,0,15.47,0,23.2-1.54-7.95-.91-16-2.45-23.94a11,11,0,0,0-1.25,4.36c-.63,3.87-.48,8.2-2.28,11.44a10.14,10.14,0,0,0-1.38,6.11,37.08,37.08,0,0,1,.26,5.36c-.34,3.92,1.34,6.87,3.9,9.6.81.87,1.09,2.23,1.61,3.36l-3.75-1.13-1-.33c-1.38,5.44,1.08,9.71,4.48,13.73l-.78.49-2.46-.58c0,8.91.22,18-.09,27-.16,4.33,2.19,6.63,5.8,9.74V946.62l1,0c.21,2.1.59,4.19.62,6.28.31,16.67.7,33.33.76,50,.09,20.65-.12,41.3-.18,62,0,2.67.08,5.34.24,8,0,.46.67.85,1,1.33.87,1.44,2.27,2.84,2.46,4.38.77,6.27,1.38,12.58,1.61,18.89.12,3.47,1.68,4.94,4.78,4.64a70.22,70.22,0,0,0,8-1.74c3.73-.81,4.65-3,4.37-6.77-.94-13-1.9-26-2-39-.54-45.61-.73-91.22-1.06-136.83a32.71,32.71,0,0,0-.19-3.57c-.88-7.43-2.52-14.85-2.56-22.29q-.29-62.14.13-124.3c.09-15.39,1.34-30.77,1.33-46.16,0-20.65-.7-41.3-1.12-61.95,0-.91-.14-1.82-.23-2.89-5.62,1-9.6,6.6-15.88,4.85a37.21,37.21,0,0,1,8.53-7c5.76-3.24,8.09-7.54,7.83-14.43C1474.7,624.76,1475.09,609.48,1475.09,593.79Zm-1227.75-12-5-17.74a5.77,5.77,0,0,1,2.33,3.05c1.65,4.35,3,8.82,5,13a13.39,13.39,0,0,0,4.38,5.2c4.81,3.3,10,6.13,14.86,9.29,3.14,2,6.12,4.27,10,7l-5.44-17.22a7,7,0,0,1,2.65,3.11c2.33,5.24,4.57,10.51,6.88,15.75,2.05,4.67,6,7.28,10.71,10.43-1.94-6.13-3.56-11.29-5.18-16.45l1.1-.33c2.58,5.85,4.19,12.45,8,17.32s9.74,7.83,14.75,11.63l.83-.84c-.28-.86-.5-1.74-.83-2.57-2.38-6.12-5.19-12.1-7.06-18.37-1.45-4.85-4.8-7.53-8.63-9.92-9.17-5.73-18.53-11.17-27.67-17-11-6.95-21.83-14.16-32.75-21.23-3.18-2.06-6.42-4-10.33-6.48,3.79,8.37,7.48,15.62,10.34,23.18C238.22,577.86,242.55,579.19,247.34,581.77Zm355,506.9-.88.25a45.62,45.62,0,0,1-.71,4.54c-1.08,4.22-.09,7.59,2.58,11.24,4.56,6.23,8.26,13.1,12.34,19.69,1.11,1.79.95,3.09-1.31,3.78-5.09-6-7.07-14.2-13.56-19.6v14.78l.49,0c.39-1.35.77-2.7,1.37-4.84,1.61,6.75,2.25,12.82,4.57,18.16s6.31,9.92,9.75,15.12a5.88,5.88,0,0,0,.5-1.21c0-28.41.1-56.81,0-85.22,0-2-1.59-4-2.43-6l-1,.38q-.64,6.93-1.27,13.86h-1.22c-.42-5.52-1.27-11.06-1.14-16.57.15-6-4.1-9.51-7-14-.6,4.19-.45,8.29-.64,12.39-.17,3.78.26,7.22,2.34,10.58a86.52,86.52,0,0,1,5,10.31,9.6,9.6,0,0,1,.36,2.66l-1.23.42q-2.86-5.74-5.72-11.5l-.89.37c.13,7.55-2.24,15.29,2.84,22.42,1.8,2.55,2.56,5.84,3.8,8.78l-1.1.49ZM307.55,602.07l-.65.64c3.11,6.8,6.82,13.4,9.18,20.45,2.43,7.31,8.7,9.08,14.73,13l-3.17-12.23.86-.28c1.46,3.35,3,6.69,4.37,10.07.56,1.4.38,3.55,1.34,4.25,3.15,2.3,6.68,4.08,10.84,6.51l-6.95-19.07,1.15-.44c2.14,4.63,4.79,9.09,6.32,13.91,3.5,11,14,12.95,22.33,18.09a200.12,200.12,0,0,0-7.27-20.08,5.15,5.15,0,0,0-2-1.93q-17.44-11.22-34.92-22.39C318.28,609.06,312.92,605.55,307.55,602.07Zm331,176.75.62.72-3.48,2.79c-4.18,3.35-8.57,6.48-12.43,10.15a9.82,9.82,0,0,0-2.59,6.2c-.27,6.55,0,13.12.08,19.68a20.69,20.69,0,0,0,.31,2.42c4.88-3.62,9.56-7,14.11-10.54a31.84,31.84,0,0,0,6-5.55c2.14-2.83,5.07-6,5.26-9.16.47-7.66-.45-15.4-.85-23.11,0-.4-.4-.79-.67-1.28-2.27.79-4.46,1.39-6.5,2.32-4.29,1.95-8.78,3.66-12.62,6.3-2,1.39-2.84,4.54-4.66,7.68Zm8.19,23.93-1-.23c-5.08,4.83-10.13,9.7-15.27,14.48-2,1.85-4,3.92-6.38,5.1-2.72,1.36-3.42,3.1-3.41,5.93.06,8.67-.14,17.34-.21,26a12.4,12.4,0,0,0,.6,2.34c1.8-2,3.19-3.6,4.66-5.14,6-6.23,10.92-13.63,19.06-17.62,1-.49,1.75-2.49,1.82-3.84.23-4.4.1-8.83.11-13.24Zm-247-146.54c2,8.42,5.8,13.5,12.49,17.64,4.56,2.81,9.12,5.64,13.69,8.44l26.38,16.14c.3-1.2.49-2,.73-2.87,4.15,8.48,12.76,10.27,19.64,14.61-.64-2.16-1.42-4.34-3-5.48-4.79-3.53-10.1-6.38-14.78-10-4.36-3.4-8.89-7-12-11.42-2.91-4.12-7.15-5.2-11-7.45l1.33,3C424.46,667.52,410.63,664.07,399.74,656.21Zm-166.15-82a4.17,4.17,0,0,0,0-1.28c-3.25-8.06-6.5-16.14-9.85-24.16a5,5,0,0,0-2-1.94,116.1,116.1,0,0,0-11.25-7c-3.91-1.95-8.18-3.18-12.86-4.93a16,16,0,0,0,.66,1.85c4.77,7.83,9.4,15.75,14.43,23.42,1.54,2.35,4.16,4,6.29,5.95l.82-.82c-.53-1.64-1.06-3.29-1.6-4.93l.87-.55C221.29,567.44,226.81,571.33,233.59,574.25Zm141.92,66.87-.58.63c3.46,7.56,7.16,15,10.26,22.73,1.57,3.9,4.34,5.63,8.16,7.17l-.14-2.47c2.47,5.92,8.5,6.81,13.33,9.61-1.37-3.33-2.87-6.65-5.35-8.9-3-2.67-6.85-4.27-10.14-6.61-1.75-1.25-3.07-3.1-4.58-4.68l.65-.59,13.37,8.57c-1.76-7.16-3.08-13.53-10.4-16.72C384.94,647.62,380.35,644.08,375.51,641.12ZM200.59,553.47c-7-9.34-9-22.4-21.57-27.44a21.05,21.05,0,0,1-3.63-2.29l-12.58-8.38-.93.8c2,3.17,3.77,6.43,5.91,9.47,2.38,3.4,5,6.65,7.62,9.86a45,45,0,0,0,4.08,3.84l3.68,4.48.87-.58-.63-4,.77-.65C187.82,545.62,193,550.88,200.59,553.47Zm402.67,407a26.37,26.37,0,0,0-.25,2.65c0,5.49-.5,11,.17,16.44s-.34,10.66-.07,16c.12,2.34,1.81,5.24.92,6.88-3.55,6.52,1.84,9,5.1,13.56.19-1.77.36-2.54.35-3.32,0-13.12-.35-26.24,0-39.35C609.6,967.75,606.17,964.46,603.26,960.45Zm852.25,89.39c.11-1.87.21-2.89.21-3.91q0-9,0-18c0-6.8.18-13.59-.09-20.38-.1-2.48-1.14-5-2-7.35a2.65,2.65,0,0,0-2.09-1.47c-.64.1-1.27,1.24-1.59,2a7.8,7.8,0,0,0-.48,2.81c-.11,9.76-.32,19.53-.17,29.29,0,2.59,1.79,5.15,1.81,7.74C1451.16,1044.18,1452.5,1046.77,1455.51,1049.84ZM561.83,779.32l.25.9c42.56-8.79,85.63-15.33,127-29.48Zm44.56,379.4c.06,5.23-1.53,10.66,1.77,15.5,1.18,1.74,3.26,3.85-.71,5.11-.38.11-.51,1.46-.51,2.24,0,2.26-.31,4.67.32,6.76,1.69,5.53,3.82,10.92,5.77,16.36l1.12-.35a7.53,7.53,0,0,0,.24-1.31q0-15.54-.1-31.09a5.15,5.15,0,0,0-.6-2.71C611.34,1165.68,608.84,1162.22,606.39,1158.72ZM381.33,665.21l.75-.54c-.49-1.28-1-2.55-1.47-3.84-2.21-5.92-4.55-11.8-6.59-17.78-1.27-3.71-8-9.38-11.63-9.71,2.85,7.31,6.3,14.67,8.54,22.39C372.64,661.61,377.57,662.44,381.33,665.21Zm-152.52-42.9,17.76-20c-1.93-2.71-3.43-2.83-5.26-.44-1.49,2-3.32,3.65-5,5.46l-.72-.67,5.85-8.21-5.06-2.94c-2,3.6-4.33,6.68-5.63,10.13C228.88,610.69,226.87,615.87,228.81,622.31ZM221,1028.83l.72-.21c0-5.3.09-10.6-.11-15.89,0-.77-1.79-2.27-2.15-2.11-2.85,1.27-2.95-1-3.57-2.55a34.94,34.94,0,0,1-1.11-3.69c-.69,12.47-3.91,25.36,6.75,35.78,1.79-7.25-5-11.66-5.38-18.15Zm795.29-232.75.92-.37c.06-1,.18-2,.18-3,0-6.31-.51-12.67,0-18.93.52-5.94-4.09-8.17-7.05-11.87a80.17,80.17,0,0,0,.5,16c.36,2.36,4,4.34.09,6.91-.48.32-.27,2.45.25,3.39C1012.78,790.91,1014.62,793.46,1016.33,796.08ZM512.7,736.48c-.5-3.64-1.45-6.53-4.73-8.45-10-5.85-19.78-12-29.66-18-1.25-.77-2.54-1.47-3.82-2.2l-1,1.17c1.8,2,3.32,4.37,5.47,5.82,6.8,4.6,13.85,8.82,20.77,13.23C504.06,730.78,508.37,733.65,512.7,736.48Zm927.85,173.45,1.15-.11c0-13.93,0-27.85,0-41.77,0-3.75-2-6.08-4.72-8.36-.25.55-.5.85-.51,1.15-.32,11.43-.68,22.87-.86,34.3,0,2.14.67,4.29,1,6.44l1.07-.09V879.85l1.16,0Zm8.92,165.8-1.29-.09c-4.63-6.51-2.54-14.84-5.31-21.91-.67,3.88-.29,7.69-.75,11.38-.82,6.53,1.42,11.77,5.46,16.65a98.93,98.93,0,0,1,5.61,8.24c0-7.52.07-14.75-.07-22,0-1.11-1-2.2-1.57-3.3l-.83.35C1450.3,1068.62,1449.89,1072.17,1449.47,1075.73ZM608.34,945.25l.88-.27c0-9.28.21-18.56-.16-27.82-.08-2.19-2.12-4.3-3.26-6.45l-1.25.45c-.55,7.07-1,14.16-1.68,21.22C602.31,937.86,605.76,941.31,608.34,945.25Zm-395.88-153c1.2-6.14.34-37.31-1.52-42.3-1.07,2.57-2.32,4.23-2.38,5.93-.34,9.23-.66,18.48-.38,27.71C208.28,786.58,207.71,790.76,212.46,792.22Zm803.85-52.83c.26-5.73.41-10.87.77-16,.24-3.47,1.25-6.78-3.6-8.41-2.3-.77-4-3.43-5.89-5.2C1004.24,721.3,1011.46,729.74,1016.31,739.39ZM229.9,631.83c7.4-8.42,14.47-16.37,21.32-24.51.39-.46-.64-2.73-1.57-3.46-.55-.44-2.6.11-3.26.85-5.19,5.89-10,12.08-15.35,17.88C228.56,625.3,228.4,627.86,229.9,631.83Zm786.8,132.66c.34-.6.67-.9.67-1.19-.08-6.8-.17-13.6-.34-20.4a3.27,3.27,0,0,0-.92-1.73c-1.07-1.29-2.35-2.42-3.32-3.77a53.72,53.72,0,0,1-2.76-4.71l-.93.28c.15,3.14-.26,6.46.62,9.39s3.06,5.6,5.27,9.41l-4.73-2.48C1008.12,756.28,1012.82,760.06,1016.7,764.49ZM498.64,731.56c1.8,10.86,11.52,20.08,22.61,21.6-2.15-3.69-3.47-7.9-6.3-10.39C510.2,738.58,504.49,735.48,498.64,731.56Zm946.79-30.11c0-7.72,0-14.8,0-21.87a12.84,12.84,0,0,1-.08-2.69c1.28-5.58,0-9-4.34-11.85,0,9.33.06,19.05,0,28.76C1440.93,697,1442.24,699.24,1445.43,701.45Zm-1224,359c1.73-10.66-1.29-21.68-7.41-26.76-1.16,4.64.26,8.59,2.69,12.52l-2.46-.91C213.44,1054.74,211.43,1053.71,221.43,1060.5Zm-8.79-440.94,1.68-.46c0-5.76.21-11.53-.09-17.28-.15-3,1.09-6-1-9.07-1.32-2-2.26-2.92-4.67-2.69.53,8.76.94,17.29,1.65,25.79C210.34,617.15,211.8,618.33,212.64,619.56ZM607.25,868.41l-1.49.36c0,4.36,0,8.72,0,13.08,0,3.52-.83,7.14,1.49,10.36a2,2,0,0,1-.08,1.9c-3.5,2.79-1.85,6.56-1.67,9.86.09,1.74,1.78,3.41,2.74,5.1l1.06-.45c0-12,.07-24-.09-36C609.19,871.24,607.93,869.83,607.25,868.41Zm-1.53,270.35c-.4,5.63-1.23,11.08,2.33,16,3.11,4.27,5.71,8.9,8.54,13.37l1.5-.77A134.63,134.63,0,0,0,605.72,1138.76Zm-90.1-405.6c.78,1.87,1.28,3,1.75,4.21,2,5,6.69,7.28,10.86,9.22a20.79,20.79,0,0,1,5,3.45c2.64,2.27,5.43,4.35,8.16,6.5C535.77,745.78,527.14,738.47,515.62,733.16Zm-37-14.49c2,8.57,11,17.57,19.37,19.7-1.48-3.53-2-7.53-4.27-9.57C489.47,725,484.2,722.3,478.62,718.67Zm530.5-24c-4.08,8-.47,14.19,7.9,18.78,0-4.08,0-8.07,0-12.05a2.81,2.81,0,0,0-1.09-1.78C1013.66,697.92,1011.36,696.31,1009.12,694.69Zm433,166.74c-1.18-13-2.29-25.24-3.4-37.47h-1c-.39,9.36-.66,18.72-1.25,28.07C1436.26,856.1,1437.76,858.87,1442.13,861.43ZM607.61,1314.12c-.29-.87-.61-1.74-.87-2.62-2.28-7.81-5.44-15.34-3.86-23.93.94-5.09.45-10.46.48-15.7a22.86,22.86,0,0,0-.7-4.13l-.66.15q-1.57,17.25-3.15,34.48l1.82-.89C605.4,1304.77,602.07,1311.59,607.61,1314.12ZM478,725.71l1-.69c-1.38-2.8-2.1-6.4-4.3-8.23-4.66-3.89-10.09-6.84-15.74-10.54C461.17,717.86,471.51,719.77,478,725.71ZM212.82,848.51l-.79.39c.22,4.85.36,9.71.68,14.56.26,3.86,2,5.3,5.65,4.75l1.06,5.2,1.22-.13c-.2-3.1.26-6.46-.79-9.24s-3.66-5.18-5.58-7.73l.72-.65,5,4.31.94-.83Zm396.67,187.76c.54-8.64.87-16.59-6.13-23.1C602.64,1021.64,601.92,1029.67,609.49,1036.27ZM1452.07,618l-1.06.28c0,1.12,0,2.23,0,3.34.1,4.9.27,9.8.33,14.7.13,10.39.2,20.77.36,31.16a20.7,20.7,0,0,0,.88,3.87c.62-.88.87-1.07.87-1.26.07-16.45.15-32.91.11-49.36C1453.57,619.82,1452.59,618.91,1452.07,618ZM615.31,924.69a5.83,5.83,0,0,0-.4,1.37c0,13.93-.06,27.86,0,41.79,0,1,.8,2,1.23,3C618.19,960.36,617.29,927,615.31,924.69Zm-195.68-243c1.34,5.32,3.81,8.5,7.9,10.57,2.74,1.39,5.2,3.32,7.93,4.74.84.44,2.14,0,3.23,0-.25-1.25-.07-3.14-.82-3.65C432.1,689.45,426.16,685.82,419.63,681.7Zm21.85,14.21c1.39,9.27,10.18,10.56,16.27,16.19C456.09,701.7,447.72,699.94,441.48,695.91ZM1453.42,829.07l-.75,0v45.23h.75Zm-10.93,151.78-1.41.17c0,9.52-.06,19.05.07,28.57,0,1.3,1,2.59,1.51,3.89l1.16-.33C1443.66,1002.37,1443.87,991.56,1442.49,980.85Zm-2.53-374c-2,7.89.18,13.52,6.08,15.84C1447.63,614,1446.45,610.91,1440,606.84Zm17.1-25.57c.08.5.17,1,.25,1.49,14.33-1.15,28-5.45,41.67-9.78ZM536.22,763.82c-1.61-7.56-7.37-13.71-13.88-15.41C523.24,756.68,530.63,759,536.22,763.82Zm907.27-24.68-.53.3c0,7.61-.06,15.21.07,22.81,0,1,1,2.08,1.56,3.12a182.32,182.32,0,0,0,.69-22.66C1445.25,741.51,1444.11,740.33,1443.49,739.14ZM602.35,806.07l-.63.38c0,7.72,0,15.44.06,23.16,0,.77.89,1.53,1.36,2.29a230,230,0,0,0,.61-23C603.73,807.92,602.84,807,602.35,806.07ZM608.87,961c1.88-7.29-1.38-12.58-5.38-18.24C601.82,950.09,603.57,955.84,608.87,961ZM616,878.38l-1.12.1c0,12.48,0,25,0,37.45a10.81,10.81,0,0,0,.9,3l1.26-.22ZM220.14,852.77c.32-4,.63-7.83.93-11.65L220,842.37c-1.23-1.68-2.45-3.37-3.58-4.93C214.07,843,213.77,848.49,220.14,852.77Zm-9.28-56.11c-4.26,3.68-2.85,13,2.73,15.78-1.71-6.3,2.16-13.23-4.34-18.06C209.74,795.08,210.23,795.78,210.86,796.66Zm397.08,41.19,1.45-.14c0-6.81.09-13.63-.1-20.44,0-1-1.35-2-2.07-3l-.91.48C607.45,822.39,604.85,830.36,607.94,837.85ZM212.13,641c2.83-4.75,1.65-18.47-1.51-20.51C209.3,627.61,211,634.28,212.13,641Zm1229.34,61.43c.1,15.07-.71,15.5,3.55,18.16C1447,712.79,1445.75,705.81,1441.47,702.44ZM608.85,810.18l1.33-.09c0-4.8-.38-9.64.13-14.39.37-3.41-1.16-4.91-4.15-6.2a102.89,102.89,0,0,0,1.18,11.68c.17,1.29.71,3.05.1,3.85C605.24,807.89,607.5,808.8,608.85,810.18Zm832.91,122.66h-1.08c.18,1.94.52,3.87.52,5.81,0,11.68-.18,23.35-.2,35a15.9,15.9,0,0,0,.81,3.51l1.25-.25Zm-.36,82.17c-1.22,10.66-.36,18.68,2.12,20.57C1445.07,1029.81,1444,1017.75,1441.4,1015Zm-428-135.48c.73,6.64-1.89,13.69,2,19.9C1016.39,892.6,1017.81,885.72,1013.43,879.53Zm438.84-170.16h.81V674.13l-.81,0ZM562.53,752.93l.51,2.15,28-5.51c-.07-.37-.13-.75-.2-1.12Zm891.07,348.72,1.25-.48c-.44-1.44-.86-4.11-1.34-4.12-3.66-.09-4.21-3.12-5.59-5.32-1.86-2.92-3.58-5.94-5.36-8.92l-1,.63C1442.48,1091.53,1449.29,1095.78,1453.6,1101.65Zm-12.1-379.79c1.37,5.89-1,11.6,3.29,16.48C1446.82,731.72,1445.68,724.61,1441.5,721.86ZM221.26,626c1.24-6.65.54-18.52-1.13-20.67C218.67,608.85,219.3,623.8,221.26,626Zm1231.07,148.2.66,0V745.3l-.66,0Zm1,287.65c3.4-6.64,3-9.57-2.19-13.16C1451.86,1053.27,1449.67,1057.81,1453.32,1061.83ZM218.92,824.74l-1.37-.12c-.5,3.53-1,7-1.52,10.87C222.26,833.76,223.24,829.09,218.92,824.74Zm793.69,5.94c-.91,5.61,1.16,9.8,5.23,11.63C1020.67,836.6,1015.1,834.76,1012.61,830.68Zm-409-36.45c1-8,.1-10.25-4.16-11.49C598.45,787.28,599.52,791,603.65,794.23ZM221.37,659.38c1.53-4.27.81-18.11-1-19.76C219.22,644.54,219.89,657.5,221.37,659.38ZM1450.8,977.63c-1.29,7-.76,8.21,4.62,11.16C1456.35,983.24,1456,982.44,1450.8,977.63ZM220.24,596l.9-.22c-.34-2.17.06-5.35-1.2-6.28-2.06-1.52-5.2-1.58-7.89-2.26l-.38,1.2Zm325,174.19c-.34-7.23-1-8.3-7-10.9C539.35,764.93,541.78,768.74,545.26,770.15ZM209.58,820.92c-1,19-1,19,2.11,20.7C211,834.79,210.29,827.86,209.58,820.92ZM608.9,864.54c-.27-4.8,2.11-10-2-14.14C607.18,855.2,604.32,860.45,608.9,864.54Zm-6,379.29-1.4.11c.39,5.87-.65,11.82,1.4,17.58Zm-262-624.72-.52.74,18,12.9.75-1C354.05,626.1,347.05,623.19,340.88,619.11ZM220.31,668.55c0,3.7,0,7.4.05,11.09,0,.38.91,1.12,1.1,1,.67-.3,1.61-.8,1.74-1.39C224.1,675.37,223.52,671.71,220.31,668.55Zm1233,127.3h-.64v24.66l.64,0ZM416.85,685.29c-.48-4.7-3.63-8.64-7.57-9.33C410.67,680.06,411.92,684.09,416.85,685.29ZM212.81,659l-.65.12v14.45l.65-.06Zm535.67,80.41-.23-1-20.11,4.42c.11.48.23,1,.34,1.45ZM1443.64,1050c0-4.29,2-8.86-1.58-12.67C1442.46,1041.58,1440.73,1046.05,1443.64,1050Zm-.09-280.36c-.78,7.7-.36,10.89,1.56,12.36C1446.16,775.86,1445.7,771.57,1443.55,769.65ZM609,1044.16l1.56-.94-6.47-10.1-1,.6C603.5,1038.07,606.88,1040.75,609,1044.16ZM602.4,857.1c2.34-3.39,2-9.94,0-11.8Zm430-173.41c-4.66-.53-9.5,2.68-10.27,6.75ZM214.17,869.76l-1,.14v12.74C213.21,878.34,217.06,874,214.17,869.76Zm1235.42,232.46-6.63-7.9C1441.67,1098.42,1442.89,1099.94,1449.59,1102.22ZM1013,902.45c-2.65,3.15-1.86,5.23,3.15,8.35Zm440-186.73-.58,0v13.33l.58,0Zm-448.1,95.5-.48.2v15.25l.48,0ZM1452,990l-1.23.61c-.38,3.55,2.42,5.17,4.18,7.42l1.38-.82Zm13.88-396.75c-5.66.51-8.07,2.52-8.25,6.45ZM603,803.58l1.47-.87q-2.52-4.17-5.05-8.35l-1.51.89Q600.46,799.41,603,803.58Zm.4,61.15h-.68v17.64h.68Zm-366,204,.27.94,11.9-2.65-.27-1.15Zm365.17,159.7-.47.06v10.64l.47-.07Zm-442.42-710,1.28-1-4-6.09-1.67,1.2ZM611.39,1241H610.3v10.51h.14C610.76,1248,611.07,1244.45,611.39,1241ZM1006,885.61l-1.27-7.11-.92.16C1002.87,882.91,1003,883.28,1006,885.61Zm-391.1,393.94.45,0V1270l-.93,0ZM1453.21,781h-.67v8.16h.67Zm-.76,106.06,1.56-.2-.63-5.67-1.32.16Z"/>
    <path d="M648.07,422c-20.41,7.14-43.49,9.38-66,14.47,11.57-1.52,23.19-2.81,34.72-4.61,11.19-1.76,22.33-3.91,33.45-6.12,29.35-5.85,58.58-12.41,88-17.61q64.89-11.44,130.05-21.25c19.09-2.92,38.46-4,57.64-6.43,9.07-1.16,17.94-3.83,27-5.5,16.67-3.07,33.38-5.89,50.07-8.83,1.16-.2,2.3-.52,4.26-1L1003,362c4.14.73,8.76-.38,11.92,3.43a5.13,5.13,0,0,0,2.25,1.68c10.31,3.24,20.74,6.15,31,9.61,17.74,6,35.35,12.38,53,18.53,31.12,10.8,62.26,21.54,92.52,34.63a18.07,18.07,0,0,1,5.49,3.35c-5.33-1.54-10.73-2.91-16-4.65-33.79-11.08-67.67-21.92-101.3-33.51-19.84-6.83-39.28-14.87-58.88-22.41a40.54,40.54,0,0,1-6.11-3c-2-1.19-3.87-1.84-5.84,0-.33.31-.94.65-1.28.54-7-2.23-13.47,1.3-20.09,2.35-24.48,3.9-48.87,8.29-73.29,12.52-1.93.34-3.81.92-5.71,1.38l.06,1.11,9.08.44c0,.23,0,.45,0,.67-3.07.61-6.11,1.47-9.21,1.79-16.72,1.74-33.46,3.36-50.19,5a13.86,13.86,0,0,1-3.91-.2c-.46-.08-.78-.9-1.16-1.38.08-.43.17-.86.25-1.29l-197,34,5.57,3.14-.15.45a9.2,9.2,0,0,1-2.46-.54c-5.42-2.9-11-1.93-16.67-1-29.18,4.89-58.33,9.92-87.57,14.4-23.47,3.6-47.05,6.49-70.59,9.71q-47.53,6.5-95.08,13a25.05,25.05,0,0,1-6.49.18l5.84-1.44c12.84-3.18,26.05-5.3,38.63-8.86,14.11-4,28.54-4.66,42.64-7.87,14.3-3.25,28.87-5.42,43.42-7.35,20.34-2.71,40.82-4.33,61.13-7.18C601.13,429.84,625.32,425.6,648.07,422Z"/>
    <path d="M1190.08,425.36c7.6,2.72,15.18,5.52,22.81,8.15,41.53,14.33,83.11,28.5,124.56,43,6.3,2.21,12,6.07,17.83,9.52C1344.83,486.92,1200.61,433.92,1190.08,425.36Z"/>
    <path d="M551.64,734.15c-57.3-33.25-113.4-68.36-166.55-108.06,27.52,18.39,54.77,37.2,82.62,55.06s56.31,34.77,84.5,52.1Z"/>
    <path d="M669.29,432.12l23.12,11.82c-8.59-1.94-16-6.18-23.2-11C669.14,432.92,669.24,432.63,669.29,432.12Z"/>
    <path d="M1190.3,422.55l-23.64-7.24c.09-.3.17-.59.26-.88l23.6,7.42C1190.44,422.08,1190.37,422.31,1190.3,422.55Z"/>
    <path d="M229.7,815.31V753.52h.79v61.91Z"/>
    <path d="M234.4,1013.65c.8,10,1.49,20-1.08,29.88l-1.1,0,1.26-29.77Z"/>
    <path d="M229.55,732.48c3.15-6.75,8.59-11.77,13.3-17.34l1,.73-13.1,17.34Z"/>
    <path d="M250,662.72l-11.32,16.52-1-.72c2.29-6.52,6.65-11.63,11.62-16.32Z"/>
    <path d="M1458.45,744.7c.44,25.45,3.12,50.87,1,76.35C1459.42,795.6,1457,770.17,1458.45,744.7Z"/>
    <path d="M1467.84,621.06l-8.88,7.18-.77-.9,8.55-7.63Z"/>
    <path d="M638.5,826.75l-14.87,16.36-.72-.73C626.93,836.05,632.38,831.14,638.5,826.75Z"/>
  </g>
</svg>
