<svg id="Layer_1" data-name="Layer 1" xmlns="http://www.w3.org/2000/svg" width="600mm" height="600mm" viewBox="0 0 1700.79 1700.79">
  <title>sketches frames</title>
  <g>
    <path d="M689.24,1261.65l-7.81-7.18-.57.52c.52.91,1.61,1.9,1.48,2.7-.38,2.33-.6,5.32-2.12,6.62-1.21,1-4.88.78-6.31-.35-5-4-9.44-8.67-14.28-12.87q-16.25-14.1-32.7-28c-3-2.54-4.64-4.36-3-9.3,2-6.17,1-13.25,1.67-19.89.46-4.67,1.55-9.26,2.35-13.89a14.25,14.25,0,0,0,.22-2.06c.25-36,1.53-72,.35-108-.75-22.88-.82-45.76-1.31-68.63-.34-15.86.54-31.75.73-47.63,0-2.12-.85-4.24-1.28-6.37a50.18,50.18,0,0,1-1-5.66c-.75-9-1.33-18-2.16-27-.29-3.16-1.75-5.46-5.53-5.64a5.11,5.11,0,0,1-3.3-2.22c-6.54-9.79-16.1-16.23-25.77-22.18a269.65,269.65,0,0,1-48.6-38.76c-6.12-6.08-12.77-11.64-19.41-17.17-17-14.2-34.18-28.25-51.27-42.37-1.47-1.21-2.91-2.46-4.35-3.68-.52.56-.87.76-.86.93,1.28,13.91-3.53,27.36-2.75,41.32s-.06,27.9.1,41.85.64,27.89,1,41.83a14.45,14.45,0,0,0,1.08,5.33,234.49,234.49,0,0,0,1.33-47.9l1.58,0v68l-.76.35-2.16-11-1.41-.15c-1,4.25-2.68,8.45-2.95,12.75-.73,11.95-.82,23.95-1.39,35.92-.06,1.32-1.34,2.93-2.51,3.77a56,56,0,0,1-6.77,3.72l.39,1.16c1.33-.33,2.68-.6,4-1,5.05-1.56,10.05-3.38,15.18-4.64,1.49-.37,3.36.83,5.06,1.31-1.09,1.4-1.89,3.41-3.32,4.09a73.13,73.13,0,0,1-12.12,4.55,8.84,8.84,0,0,0-6.6,6.23,79.12,79.12,0,0,1-3.74,8.86c-.66,1.35-1.82,2.46-3.49,4.66-.34-3.49-.55-5.61-.88-9l-41.82,18.72c.54.55,1.72,1.72,2.84,2.94s2.33,2.17,2.91,3.5.89,3.38.23,4.07-2.9,1-4.16.59a18,18,0,0,1-5.42-3.07Q371,1001.2,344.43,979.9c-5.58-4.47-6-7.23-2.78-15.18,1.56,2.56,2.57,4.79,4.11,6.56,1,1.18,2.82,1.7,4.27,2.51.58-1.53,2-3.26,1.61-4.55-1.38-5.24-3.45-10.3-4.95-15.52a40.55,40.55,0,0,1-2-10.55c-.28-28.18-.25-56.36-.51-84.54-.1-11.84-.67-23.67-1.06-35.5a7.72,7.72,0,0,0-.95-3.57l-.72,5.53c-3-21.54-5.14-43.05-3.37-64.93l2.2,5.74,1.23-.11c0-3.82.18-7.65,0-11.45-1.61-28.23-3.53-56.45-4.83-84.69-.42-9,.73-18.09,1.2-27.14a3.44,3.44,0,0,1,1.54-2.7c.27,2.38.67,4.74.78,7.12.52,12.13,1.13,24.25,1.42,36.38.73,30.54,1.27,61.08,2,91.61,0,1.88,1.14,3.74,1.74,5.6l1.52-.3a27.73,27.73,0,0,0,.31-3c0-9.91-.13-19.81-.05-29.72,0-1.14,1.12-2.24,1.62-3.41a6.21,6.21,0,0,0,.72-2.55c-.56-8.75-1.29-17.48-1.81-26.23-.61-10.13-1.25-20.27-1.55-30.42-.44-14.75-.62-29.52-.85-44.28,0-2.77.54-5.58.29-8.32-.29-3.09-1.6-6.1-1.74-9.18-.28-6.49-.06-13-.08-19.49,0-12-.22-23.91,0-35.85.05-2.62.7-6.76,5.25-3.11.4.31,1.35.09,2-.1a137.39,137.39,0,0,0,17.76-6.25c-3.68.53-7.33,1.17-11,1.54a44.83,44.83,0,0,1-9.11.22c-1-.11-1.72-2.1-2.57-3.23,1.19-.76,2.31-2,3.59-2.21,5.7-.89,11.55-1,17.16-2.26,28-6.19,56-12.94,84-18.92,35-7.46,70.24-14.21,105.31-21.57,17-3.57,33.86-7.84,50.79-11.8.46-.11.9-.31,1.14-1.41l-35,5.64-.46-1.4a18.39,18.39,0,0,1,3.65-1.56q39.45-7.32,78.91-14.52c27.82-5.05,55.68-9.89,83.47-15.05s55.32-10.56,83-15.89c5.34-1,10.64-2.24,16-3.33a12.13,12.13,0,0,1,4.12-.57c11.83,1.83,22.87-2.45,34.18-4.4,24.59-4.24,49.13-8.78,73.7-13.16,2.44-.44,4.93-.63,7.76-1l-1-2.85c3.64.88,7.24,1.44,10.59,2.69,2,.73,3.36,2.8,5.24,3.86,12.26,6.88,24.49,13.85,36.92,20.42a404.88,404.88,0,0,1,53.34,33.69,5.71,5.71,0,0,0,3.08,1.28,24.58,24.58,0,0,1-2.6-2.13,17.74,17.74,0,0,1-1.72-2.46l.63-.89a13.91,13.91,0,0,1,2.77.84c43,23.05,86.73,44.88,127.75,71.49,30.5,19.79,63,35.86,95.57,51.84,14.65,7.19,29.1,14.78,43.75,22,2,1,4.66.66,7,1.07,2.07.36,4.66.27,6.08,1.48a216.07,216.07,0,0,1,16.68,15.77c1.31,1.38,1.26,4.37,1.25,6.62,0,3.58-.72,7.16-.8,10.74-.26,11.15.83,22.48-.77,33.42-4.69,32.12,0,64.25-1.12,96.35-.38,10.86,0,21.77.34,32.64,1.19,33.88,3,67.75,3.71,101.64.57,28.86-.09,57.74-.37,86.61a133,133,0,0,1-1.48,17.47,9.66,9.66,0,0,1-3.13,5.94,67.9,67.9,0,0,1-12.18,7.21c-13.06,6-26.25,11.67-39.37,17.51a8.65,8.65,0,0,0-3,2.09c-3.13,3.71-7.8,3.08-10.13-1.14-1.37-2.47-3.09-5.14-5.36-6.64-10.89-7.22-22-14.08-33.08-21.06-1.53-1-3.1-1.88-4.68-2.77-6.34-3.56-9.52-8.93-9.46-16.25a6.6,6.6,0,0,0-1.26-3.59c-3.13,4.29-1.51,9.65-3.92,14.46-.48-1.42-1.32-2.81-1.39-4.25-.29-6.26-.52-12.54-.47-18.81q.18-27,.65-54a98.42,98.42,0,0,1,.92-10.4c.12-1,.55-2.66,1.24-2.92,3.7-1.38,2-3.87,1.82-6.81l-8.71,4.83V786.05c-4.32,1.29-8.52,2.6-12.76,3.81-31.52,8.95-63.09,17.69-94.54,26.88-30.21,8.83-60.29,18.12-90.43,27.2-3.26,1-5.54,6.8-4.58,10.09.57,2-.11,4.32-.5,6.45-.09.49-1.64,1.29-2,1.08-4.21-2.7-7.48.49-10.85,1.86-6.32,2.58-12.3,6-18.67,8.43a190.14,190.14,0,0,1-20.92,6.46c-1.31.33-3.21-1.7-4.9-2.67-5.33,3.51-8.5,4-13-1.36-6.12-7.34-12.4-6.62-19.84-3.47-3.06,1.3-7,3.54-9.46,2.6-4.84-1.85-8.67.29-12.78,1.14-35.21,7.29-70.55,14.1-105.52,22.43-20,4.77-39.45,12.08-59.14,18.26-.38.12-.69.43,0,0,0,5.78,0,10.82,0,15.85-.15,27.91-.23,55.81-.54,83.71-.07,6.4-1.18,12.78-1.36,19.18-.24,8.87-.06,17.76-.06,26.65l1.13,0,.72-3.43c6.63,1.86,7.05,2.33,7,8.37-.09,44.37-.12,88.73-.38,133.09,0,6.24-1.16,12.48-1.85,18.72a5.15,5.15,0,0,1-1.51,3c-5.42-19.85-2.34-40.35-5.42-60.45a40.6,40.6,0,0,0-.43,4.24c0,13.25-.29,26.51.13,39.75.3,9,1.71,18,2.37,27a97.94,97.94,0,0,1,0,13.38c-.36,5.73-2.38,7.06-8.09,6.46-1.22-.13-2.57.77-3.81,1.32-12.49,5.51-24.92,11.14-37.47,16.51a18,18,0,0,1-8.14,1.52c-2.33-.19-4.54-1.89-6.8-2.92C687.29,1265.34,688.29,1263.46,689.24,1261.65ZM431.87,757.26c1.37-5.16-4.44-4.61-5.22-7.23l-7.36,2.52-.72-1.4c1.48-1.24,2.95-2.49,4.79-4l-6.91-5.76V769.8l2,1.21c.52-1.11.77-2.53,1.6-3.3,3.89-3.62,8-7.05,11.94-10.56-4.06,4.46-7.86,9.19-12.24,13.3-4.61,4.31-2.79,9.17-2.88,13.94l1.22.65,22.08-23.58C437.48,759.69,436.19,755.61,431.87,757.26ZM604,875.79a15.49,15.49,0,0,0-1.38-1.53q-18.71-15.71-37.45-31.37c-3.23-2.68-6.63-5.15-10-7.72l-.82.87a51.12,51.12,0,0,0,4.11,4.21q19.56,16,39.23,31.82c1.88,1.51,4.23,2.43,6.36,3.62,3.87,4.47,8.13,8.18,14.43,8.8a8.81,8.81,0,0,1,4.31,2.24c4.68,4,9.37,7.92,13.75,12.21a10.42,10.42,0,0,1,3.14,6c.65,9.25.91,18.53,1.13,27.8.36,14.64.57,29.29.87,43.94,0,1.41.25,2.81.38,4.22a9.91,9.91,0,0,0,1.3-4.54c.81-10.71,1.58-21.41,2.4-32.11a12.14,12.14,0,0,1,.7-2.27c2.53,3.9-1.57,9.82,4.32,11.33,0,4.29,0,8.19,0,12.09.28,28,.77,56,.78,84,0,19.86-.65,39.72-1,59.57,0,1.63,0,3.26,0,4.88-.84-10.17-1.26-20.34-1.54-30.51-.19-6.52-2-8.86-9.43-11,2.95,46.32,5.88,92.36,8.82,138.39l-1.65.11q-2.81-43.39-5.6-86.78h-.7v87.21c15.11,6.19,26.51,18.08,40.89,25.71.13-1.18.24-1.73.24-2.27.45-61.23,1-122.47,1.27-183.7,0-10.12-1.47-20.26-2-30.32-1.67-31.6-1.7-63.29-2.46-95a93.81,93.81,0,0,0-1.22-9.95l-1.12.06-1.89,5.27-1.27-.06q0-10.11,0-20.23c0-14.79,0-29.58-.1-44.37,0-8.2-.23-16.4-.44-24.6a3.92,3.92,0,0,0-1.16-2.45,101,101,0,0,0-9-8.08c-17.44-13-34.81-26.08-52.52-38.7C585,765,559.39,748.85,536.47,728.93c-9-7.86-18.08-15.84-27.85-22.73-26.33-18.59-52.38-37.51-77-58.34-1.68-1.42-3.19-3.05-4.77-4.58l.65-.61,71,52,1.13-1.53c-22.11-21.33-49.21-36-73.62-54.66l-3.36,4.87c13,11.28,27.65,20.12,38.23,33.63-18.59-9.41-34.16-23.09-50.78-35.27s-33.24-24.53-50.26-37.1c-.13,1.29-.25,1.82-.24,2.36,1.93,62.65,1.22,125.35,3.55,188,1.32,35.26.91,70.57,1.29,105.86a61.11,61.11,0,0,0,.38,9.19c3.19,19.83,2.7,39.77,1.42,59.68-.23,3.6,1,5.34,3.48,7.24,6.06,4.69,12,9.55,18,14.32.81.65,1.69,1.2,3.5,2.47,0-5.65.21-10.32-.05-15-.34-5.81-1.57-11.59-1.53-17.38.16-26.08.69-52.16.91-78.24,0-2.62-1.31-5.22-1.67-7.88a47.42,47.42,0,0,1-.61-9.5c.42-5.89,1.9-11.76,1.84-17.63-.14-13.35-.95-26.7-1.5-40.19l4.36.91c0-8.43-.1-16.36,0-24.29q.33-22.17.91-44.35c0-1.41.32-3.32,1.25-4.12,3.15-2.74,3.69-10.6.75-13.51a35.34,35.34,0,0,1-3.29-4.34l1.07-.85c.72.54,1.45,1.07,2.17,1.62,9,6.81,17.8,13.91,27.08,20.32,4,2.78,9,4.29,13.64,6.08,1.23.47,2.88-.14,4.33-.25-.26-1.45-.23-3-.86-4.32a72,72,0,0,0-4.38-6.71c1.42,1,2,1.36,2.47,1.76,19.46,15.41,39,30.76,58.35,46.27q47.52,38,94.92,76.23c5.21,4.19,10.37,8.47,15.38,12.9,1,.84,1.1,2.6,1.62,3.93ZM410.09,617.64l-.08-.09c.58,1.09.89,2.54,1.79,3.19,4.71,3.4,9.58,6.59,14.48,9.92,7.13-8.36,11.66-18.2,19.72-25.11l1.39,1L430.1,632.72C458,656.33,486.41,679.48,518,698.38c-5.1-5.75-10.66-11-16-16.43-3.53-3.56-6.89-7.31-10.17-11.11-.64-.74-.54-2.1-.79-3.18a30.45,30.45,0,0,1,3.3.78c.48.16.81.75,1.2,1.14,17.26,17.25,34.07,35,53.63,49.75C571.31,736,593.68,752.44,616,769a25.17,25.17,0,0,0,3.45,1.83c-22.38-19.74-45-39.08-66-60.17,5.1,3.65,9.41,8.19,14.23,12.12,13,10.57,26.25,20.74,39.2,31.33,24.33,19.88,49.2,39,76.84,54.13,4.45,2.44,4.44,3.48.91,7.31,2.51,2.63,5.22,3.6,9,2.46,10.26-3.15,20.52-6.4,30.94-8.92,70.36-17,140.88-33.31,211.1-50.82,53-13.23,105.69-27.91,158.51-42,3.16-.84,6.24-2,9.36-2.94-.13-.44-.25-.88-.37-1.31-93.53,25.26-187.29,49.61-282,70.08a24.32,24.32,0,0,1,6.77-3.1c23.64-6.57,47.25-13.26,71-19.54,29.63-7.84,59.4-15.15,89-23,46.08-12.19,92.08-24.69,138.16-36.92q68.29-18.13,136.65-36c.9-.24,2.38-.6,2.49-1.14.81-3.64,4-3.4,6.5-4.31q14-5.09,28-10.2l-.43-1.22c-32.25,6.17-62.86,18.41-94.79,25.79,34.41-12.94,69.21-24.56,105.65-30.73l.06-1.43-11.83-5.44c4.69.71,9.33,1.7,13.18,4,4.43,2.65,8,1.61,12.91-.74-6.9-3.8-13-7.41-19.25-10.57-24-12.09-48.38-23.6-72.17-36.16-28-14.79-55.48-30.53-83.31-45.64-5.06-2.75-11-3.86-16-6.7-16.72-9.52-33.12-19.61-49.78-29.22-17.51-10.11-35.2-19.92-52.79-29.88-1.09-.61-2.82-1.3-3-2.16-.8-5.11-5.39-5.93-8.75-7.94-12.67-7.6-25.59-14.79-38.16-22.54a15.78,15.78,0,0,0-10.93-2.61q-31.56,3.69-63.19,6.9c-3.31.34-6.84-.88-10-.26-21.75,4.22-43.5,8.48-65.14,13.23-22.88,5-45.5,11.07-67.32,19.84-3.89,1.56-8.33,1.73-12.51,2.55l-.32-1.28,8.76-5.7c-115.26,21.95-230.18,44.41-344.34,70.83l12-3.89-.42-1.2c-6,1.8-12.62,1.69-18.08,5.23l.37,1.38,3.75-.49.55.93c-1.91,1.33-3.65,3.16-5.77,3.9-6.3,2.22-12.78,4-19.15,6-1.54.49-3.36,1.1-4.32,2.26-5.61,6.71-11,13.61-16.75,20.82l12.28,9.52,25-32.47,1.23.94-25,32.77c8.52,7.07,17.06,14.19,25.69,21.21C408.14,618.08,409.27,617.67,410.09,617.64Zm924,42.42c-2.82.41-5.39.89-8,1.15-6.79.66-13.67,2.2-20.34,1.55-5.88-.57-11.11.69-16.31,2.32-13.55,4.25-26.82,9.38-40.41,13.45-47.3,14.18-94.68,28.08-142,42.05-5.48,1.62-10.93,3.47-16.53,4.51-7.49,1.39-15.22,1.58-22.66,3.17-20.37,4.38-40.8,8.67-60.93,14-25.53,6.79-50.77,14.67-76.18,22-22.85,6.55-45.64,13.34-68.64,19.29-20.65,5.33-41.53,9.8-62.36,14.42q-52.26,11.59-104.59,22.88c-6.46,1.41-9.31,5.09-8.94,11.6.24,4.31.3,8.64.33,13q.63,110.68,1.27,221.36c.34,45.89,1,91.78,1.54,137.67.13,11.86.35,23.72.23,35.58,0,3.78,2.62,5,4.91,6.6.66.46,2.31.08,3.19-.44,6.84-4,13.52-8.3,20.41-12.24,6.59-3.78,13.55-6.5,22.3-4.94,0-4.44.22-8.54-.05-12.61-.36-5.38-1.53-10.73-1.6-16.1-.12-8.72.67-17.46.55-26.18-.21-15.29-.76-30.58-1.28-45.86-.17-5-.71-10-1.08-15l-1.51,0V1128c0,5.16,0,10.32,0,15.48s0,10-.23,15.06-.78,9.84-1.19,14.76c-3.94-5.25-5.14-120-2.54-126.49,3.09.46,3.85,2.33,3.83,5.31-.1,16.88,0,33.76,0,50.64,0,1.63.29,3.25.45,4.88l1-.12v-57.19l3.58-.62c-.5-22.7-1-45.15-1.51-67.6,0-1.51,0-3.9-.89-4.35-4.17-2.24-2.63-5.94-2.68-9.1-.12-8.08,0-16.18.14-24.27,0-1.58.3-3.16.46-4.74l1.28-.06c.27,2.08.43,4.18.84,6.23.36,1.85-1.1,4.61,2.37,5.73-.74-14.21-1.45-27.76-2.17-41.52-1,0-2.24.34-3.13-.08-1.61-.74-3.75-1.65-4.28-3-.38-1,1.16-3.76,2.38-4.17,3.94-1.34,6.66-3.52,7.84-7.54,0-.11.51-.08,1.08-.15l2.2,3.48,56-17.07-3.71,3.05c.1.25.21.5.32.75L886.17,865l-1.5-3.41c10.31-1.71,20.21-3.11,30-5,9.29-1.84,18.9-2.16,27.72-6.52,4.59-2.27,9.86-3.33,14.93-4.46,14-3.12,27.92-6.53,42.05-8.77,11.31-1.79,20.19-10.81,32.57-9.59,4.56.45,9.46-2.54,14.2-4l-.18-.79-11,2a36.35,36.35,0,0,1,8.09-3.36c6.1-1.65,12.9-1.35,17.67-6.6.32-.36,1-.4,1.56-.52,7.2-1.6,14.41-3.23,21.63-4.76,10.9-2.31,22-3.9,32.69-6.94,46.92-13.34,93.72-27.09,140.58-40.65a12,12,0,0,1,3.17,0c.1.45.2.89.31,1.34-6.73,4.54-15.13,5.52-22.27,9.46a5.78,5.78,0,0,0,3.93.26c11.72-3.62,23.4-7.35,35.12-11a98.41,98.41,0,0,1,11.28-2.94c3.78-.7,6.12,1,6.37,4.77.84,12.51,1.66,25,2.08,37.57.15,4.39-1.44,8.85-1.27,13.23.62,15.55,2.07,31.07,2.43,46.62s-.23,30.91-.35,46.36c0,3.58-.47,7.24,2.39,10.26.74.77.88,2.35.88,3.55,0,8.76-.23,17.53-.07,26.28q1,55.86,2.19,111.7c0,1.58,0,3.17,0,4.17l50-23.27L1351.2,1029c-3.8,2.38-5.23,1.65-5.81-3.15a41.06,41.06,0,0,1-.26-5.43c.09-11.16.13-22.32.36-33.48.37-17.71.86-35.42,1.37-53.13a21.87,21.87,0,0,1,1-4.27l1.48.1q.73,8.07,1.49,16.13l1.22-.11c-.81-9-2.22-18.06-2.32-27.11-.31-27.46-.16-54.93-.08-82.39.07-24.84.05-49.67.49-74.5.5-28.17,1.57-56.32,2.13-84.49.14-7-.72-14.05-1.12-21.07-7.55.37-8,.88-8.37,7.31a29.12,29.12,0,0,1-1,7.42c-.47,1.46-2.11,2.55-3.22,3.8-1-1.31-2.68-2.48-3-3.95A98.53,98.53,0,0,1,1334.08,660.06Zm-43,265.44c-.63-3.17-.3-6.46-1.78-8.1-8.14-9-16.71-17.55-25.18-26.21-2.63-2.69-5.35-5.3-8.18-7.77a3.72,3.72,0,0,0-3-.62c-.55.14-1.09,1.46-1.15,2.28-.26,4-.48,8.08-.49,12.12,0,10,.23,20.11.07,30.16-.07,4.38-1.27,8.74-1.32,13.12-.28,27.61-.38,55.21-.56,82.82,0,6.12-.07,6.12,7,7.18l-2.76-4.1.53-.88a109.34,109.34,0,0,1,10.12,5.17c2.54,1.63,4.16,1.57,6.53-.42s5.46-3.21,8.23-4.76l1.11,1.47-7.33,8.43c2.26,3,4.69,3,7.59,1,3.66-2.54,7.59-4.71,11.19-7.33a5.92,5.92,0,0,0,2.27-4c.53-31.37.9-62.74,1.34-94.11C1295.44,927.77,1295.23,925,1291.12,925.5ZM443.5,844.86l1,.78a19.21,19.21,0,0,1-2.26,4c-5.51,5.89-11.26,11.56-16.71,17.5-5.71,6.22-11.21,12.65-16.73,19-1.42,1.65-2.58,3.53-3.86,5.31-1.63,32.29,1.33,65.27-6,98.12a9.2,9.2,0,0,0,2.55,0c10.95-3.73,21.94-7.34,32.78-11.36a12.44,12.44,0,0,0,8.56-11.42c.4-9.3.49-18.63.32-27.93s-.83-18.69-1.32-29a61.92,61.92,0,0,1-5,4.43,22.6,22.6,0,0,1-4,1.81l-.66-1.5c2.36-1.92,4.54-4.12,7.11-5.7,3.42-2.11,3.4-4.9,2.56-8.88l-11.65,13.53-1.2-.93c.88-1.25,1.71-2.55,2.67-3.75,2.78-3.48,5.83-6.78,8.33-10.45a14.09,14.09,0,0,0,2.21-6.53c.36-4.27.17-8.59.16-12.89,0-1-.24-2-.47-3.81l-5.27,5.63-1.34-.5c9.15-7,7-16.73,7.84-25.68,1.33-1.11,2.54-2.41,2.61-3.76q.9-17.55,1.44-35.1c.18-5.76,0-11.54,0-17.31l-.95-.53c-4.8,9-14,14-19.14,22.71l9.23-6.76,1.59,1.84a40.38,40.38,0,0,0-5,3.61c-5.11,4.95-10.24,9.88-15,15.12-3.79,4.13-3.6,6.08,1.06,10.7l11.39-12.6a6.89,6.89,0,0,1-1.68,4.2c-3,3.5-6.8,6.52-8.94,10.46-2.65,4.87-4,10.48-5.83,15.78,0,.06.17.19,1.12,1.22l14-19.51.69.52-2,3.76,5.1-1.86.51,1.22c-4.81,4.57-9.64,9.11-14.41,13.72-2.35,2.27-2.35,5-1.4,8.56C426.31,861.66,433.15,851.39,443.5,844.86ZM449.37,775l1.17,1c-.2.74-.17,1.68-.63,2.19-3.51,4-7,7.93-10.71,11.71-6.89,7-14,13.88-20.84,21a17.42,17.42,0,0,0-4.25,6.59c-.57,1.87-.28,5,.95,6.21,2.35,2.4,4-.28,5.66-2,9.4-9.93,18.65-20,28.4-29.58a11.49,11.49,0,0,0,3.76-9.13c0-3.46.18-6.92.18-10.38,0-.41-.64-.88-1.06-1.23-2.46-2-4.93-4-7.37-6-11.64,8.23-21.93,17.48-28.54,30.21q3.44-3.15,6.88-6.29c.31.38.63.75.95,1.13-2.54,3.1-5.06,6.21-7.63,9.29-3.66,4.39-3.58,4.86,1.75,7.5C428.16,796.19,437.23,784,449.37,775Zm838.14,96.26c0-4.12-.42-7.76.11-11.26.6-4-2.5-5.25-4.13-7.76s-.36-6.49-1.77-9.09c-1.67-3.06-4.58-5.64-7.4-7.85-4.28-3.35-8.94-6.23-16.07-3.65l-9.61-10.4c-1.55,5.53-1,10.47,1.53,13C1262.4,846.44,1274.67,858.56,1287.51,871.26Zm-35.24-14.44-1.08.51c.64,5.63,1.2,11.26,2,16.87a5.07,5.07,0,0,0,1.79,2.62q15.84,13.9,31.75,27.72c.93.81,2,1.47,3.78,2.76-.36-4.18-1-7.24-.8-10.25a11.74,11.74,0,0,0-4.17-9.94Q1268.86,872,1252.27,856.82Zm-830.18-220c-20.8-14.6-41.32-29-62.28-43.71-.37,3.79-1,6.56,2.59,8.88,10.88,7,21.53,14.41,32.21,21.75,8.12,5.59,16.14,11.33,24.5,17.21ZM998.26,853.72c-3.84.82-6.92,1.41-10,2.14-8.86,2.11-8.85,2.13-8.66,11.23.09,4.67.54,4.95,4.79,2.92,12.9-6.17,25.78-12.36,38.11-18.27a10.84,10.84,0,0,0-3.1-1.81,9.89,9.89,0,0,0-4.59,0c-5.17,1.25-10.52,2.1-14.33,6.53-.82,1-2.54,1.12-4.85,2.06Zm290.15,32.42a10.22,10.22,0,0,0-3.12-9.67c-11.64-11.57-23-23.4-34.55-35.11-.3-.31-.87-.35-2.06-.78,2.21,7,.13,15.11,8.94,18.24,1.23.44,2.2,1.68,3.24,2.6C1270,869.57,1279.05,877.74,1288.41,886.14Zm-1.6-45.65,1.08-.88L1261.15,802l-8.92,10.63c3.41,1.83,6.3,2.82,8.46,4.66,4.53,3.88,8.54,8.36,13,12.3,3,2.68,6.59,4.78,9.79,7.29A29.07,29.07,0,0,1,1286.81,840.49Zm-.44-9.18,1.18-.18c-.57-4.6-1-9.23-1.78-13.79a10.34,10.34,0,0,0-2.13-5.17c-4-4.29-8.17-8.37-12.45-12.35-1-.92-2.66-1.12-4-1.65.06,1.56-.46,3.48.27,4.61C1273.63,812.37,1280,821.82,1286.37,831.31ZM361.48,908.85c-.36.73-.48.85-.47,1,.12,19.62.23,39.25.44,58.88,0,.91.91,1.8,1.39,2.71C365.13,950.4,366.25,929.78,361.48,908.85ZM378.29,566.6l-.56-1c-6.66,1.84-13.35,3.57-19.92,5.69-.85.27-1.87,3.33-1.42,3.82,2.9,3.16,6.18,6,9.5,9C370.46,577.68,374.37,572.14,378.29,566.6Zm23.34,161v20l1.09.5c2.78-2.76,5.68-5.42,8.25-8.38a3.59,3.59,0,0,0-.27-3.45C407.89,733.25,404.8,730.55,401.63,727.59Zm525.42-282,.19.67,43.49-4.83c-3.82-3.62-7.59-5.21-13-3.12-5.64,2.17-11.79,3.06-17.73,4.44C935.69,443.77,931.36,444.66,927.05,445.61Zm357,360.36.86-.28c-.55-4.72-1.09-9.44-1.68-14.5l-10.75,1.34a13.25,13.25,0,0,0,1.08,2.3C1277.08,798.56,1280.59,802.26,1284.09,806Zm-875.72-39.8A15.28,15.28,0,0,0,403.64,785C409.2,780.12,410.49,775,408.37,766.17Zm.31-16.44c-6.48,1.33-8.31,6.43-5.73,16.09C409.35,762,409.71,756.12,408.68,749.73Zm-4,89c2.63-4.16,7.72-7,6.87-12.78a4.87,4.87,0,0,0-2.49-3.31c-.79-.31-2.63.8-3.31,1.76a8.78,8.78,0,0,0-1.59,4.59C404,832.24,404.44,835.49,404.64,838.74Zm876.81,202c3.72,6,7.65,1.77,10.59.46,4-1.77,1.34-5.85,1.92-8.89l-.93-.48ZM353,702.27l-.65,0v37.86H353Zm50.37,96.31c5.87-4.73,6.78-7.6,4.86-14.59C402.56,786.79,401.81,788.94,403.37,798.58Zm1.94,71.9c4.93-3.31,6.77-6.63,5.48-10.07-.39-1-1.81-2.4-2.72-2.37a3.69,3.69,0,0,0-2.64,2.45A98.79,98.79,0,0,0,405.31,870.48Zm558.87-8.56L971.9,870V858.94Zm-552.26,8.87c-7.42,4.3-8.48,6.32-7,13.26C408.24,880.15,411.85,876.8,411.92,870.79Zm-22.33,129.67.66-.87L366.2,978.7,365,980.08ZM411,807.21c-7.63,8.13-8.76,11.16-5.43,14.23C408.48,817.49,410.92,813.51,411,807.21Zm-2.84,39.46c-4.78,2.61-5.73,6.2-3.22,10.78C409.17,854.93,408.92,851.14,408.12,846.67Zm-46.79,17.7-.6,0v19.14h.6Zm42.12-51.24,5.68-9.36-1.42-.82C404.89,805.13,402,807.29,403.45,813.13Zm-53.2-210.42h.93V586.5h-.93ZM640.45,1220c.88,5.29,5.44,6.74,9.38,8.85ZM668.9,804.74c2.93,5.4,6.61,7.68,10.76,6.8Zm624.71,247.46v-8.51l-4.31,3.53ZM403.17,846.46l1.88,1,3.57-6.35-1.57-.94C405.76,842.25,404.46,844.35,403.17,846.46Z"/>
    <path d="M732.2,465l-44.57,9.53-.59-1.4c.74-.56,1.42-1.45,2.23-1.61,14.2-2.75,28.42-5.41,42.63-8.09Z"/>
    <path d="M1229.91,611.31c-11.84,20.91-28.45,38-44.64,55.34C1198.9,647.19,1212.43,627.64,1229.91,611.31Z"/>
    <path d="M953.37,733.45c-33.15,8.64-66.72,15.4-100.22,22.5l-.34-1.49,100.1-23.22Z"/>
    <path d="M1216.14,605.06c-18.88,25.69-38.53,50.74-60.55,73.84-.3-.24-.6-.48-.89-.73q30.16-37,60.34-74Z"/>
    <path d="M1218.68,657.6c4.47-12.11,22.26-35.77,31.11-39.74l-30,40.56Z"/>
    <path d="M1184.62,609.72l-42.87,47.94-1.24-1.11a483.12,483.12,0,0,1,43.13-47.88Z"/>
    <path d="M1242,655.22c8.86-10.77,13.07-24.88,24.62-33.72C1261.34,634.84,1252.79,645.83,1242,655.22Z"/>
    <path d="M403.7,593l33-41.46,1.08.86A328.78,328.78,0,0,1,404.86,594Z"/>
    <path d="M410.09,617.64l24.44-30,1,.69c-2.09,3.14-3.95,6.48-6.33,9.39-5.27,6.47-10.76,12.76-16.27,19-.56.64-1.89.6-2.88.86C410,617.55,410.09,617.64,410.09,617.64Z"/>
    <path d="M1282,624.14l-36.27-19.63.74-1.38q17.84,9.72,35.65,19.46C1282.21,622.63,1282.12,623,1282,624.14Z"/>
    <path d="M708.3,897.61c-2.23-17.16-.85-34.09,2.77-50.88C716.29,853.89,714.43,890.37,708.3,897.61Z"/>
    <path d="M1311.64,782.38V733.25l1.11,0c1.39,16.37,3,32.73.71,49.14Z"/>
    <path d="M701.73,997.75c-2.82-19.71-2.34-39.54-2.12-59.36l1.12,0Q702,968,703.2,997.69Z"/>
    <path d="M700.08,855.59c.87,1.57,2.59,3.2,2.48,4.7-.89,12.45-2.11,24.88-3.57,37.36V856.37Z"/>
    <path d="M1320.24,745.72V718.39h1.44c1.41,9.1.41,18.21,0,27.32Z"/>
    <path d="M430.94,732,395,704.78l1.07-1.41,35.78,27.51Z"/>
    <path d="M649.06,894.66c.08,6.7.18,13.39.15,20.09,0,.46-1.09.92-1.67,1.38-.52-.81-1.52-1.63-1.49-2.41.29-6.35.77-12.68,1.2-19Z"/>
  </g>
</svg>
