<svg id="Layer_1" data-name="Layer 1" xmlns="http://www.w3.org/2000/svg" width="600mm" height="600mm" viewBox="0 0 1700.79 1700.79">
  <title>sketches frames</title>
  <g>
    <path d="M663.28,925a24.67,24.67,0,0,0-3.3,3.15C652.2,939,641.75,948,638.24,961.55c-19.84,28.17-46.17,45.46-81.1,48.11-9.46.72-19,.82-28.45,1.34-18.47,1-33.64,10-48.25,20.28a8.26,8.26,0,0,0-2.32,3c-12.42,24.2-21.55,49.4-25.14,76.58-4,30.58-2.71,61.25-2.63,91.9a389,389,0,0,1-4.87,62.78q-6.74,41.77-14.16,83.46c-.93,5.23-3.17,10.22-4.66,15.37-.29,1,.11,2.18.2,3.28.11,1.5.66,3.13.28,4.49-3,10.47-5.92,21-9.38,31.26-.63,1.9-3.32,4-5.38,4.38-15.27,3.19-30.65,5.84-45.93,9-7.28,1.49-12.88-1.71-14.38-9.13a3.55,3.55,0,0,1,.64-2.92c.64-.55,2-.29,3-.31.28,0,.56.27.85.4,7.08,3.38,7.66,3,8.48-5.3-1.1.47-2,.85-2.9,1.25-2.78,1.25-5.36,1.16-7-1.7s-.25-5.37,2.22-6.86a43,43,0,0,1,9-4.18,9.56,9.56,0,0,0,6.88-7.55c4.37-18.26,10.88-36.29,12.78-54.79,2.54-24.77,2.11-49.91,1.88-74.88-.18-19.1-1.91-38.2-3.26-57.27-.29-4.18-1.81-8.29-2.88-12.4-3.68-14-7.27-28.1-11.13-42.09a462.94,462.94,0,0,1-14-72c-1.67-15.07-2.41-30.26-4.29-45.3-4-32.27-4.59-64.66-3.73-97.08.42-15.63,2-31.24,2.82-46.86.11-1.86-1-3.75-1.29-5.66-.47-3.22-1.19-6.5-1-9.7.89-13.23,2.19-26.43,3.13-39.66.33-4.63.05-9.31.05-14l-1.41.62c-2-.51-4.13-.67-5.89-1.58q-49.18-25.65-98.25-51.56c-3.23-1.71-5.53-2.05-8.51.21-4.52,3.43-8.91,7.78-14.09,9.46-12.52,4.06-20,14.07-28.54,22.6-9.84,9.79-19.65,19.88-27.74,31.09a152.86,152.86,0,0,0-24.35,51.11c-2.63,10.22-1.72,21.36-2.33,32.08a77.43,77.43,0,0,0-.1,10.44c.17,2.08,1.25,4.1,2.26,7.2-3.45,4.66-4,20.25-.71,24.16-.69,4.05-1.68,7.21-1.68,10.37,0,13.76.75,27.54.31,41.29-.45,14.13-1.64,28.27-3.08,42.35-1.91,18.56-4.42,37-6.54,55.58-.14,1.23.87,2.58,1.24,3.9a22.06,22.06,0,0,1,1.24,5.32c.26,22.81-4.37,44.89-10.28,66.75-1.57,5.79-3.57,11.48-4.89,17.33-1.78,7.86-5.76,13.75-12,19.08-6,5.13-12,7.54-19.65,6.76-6.76-.69-13.56-1-20.29-1.85-3-.37-7.4-.27-7.23-4.38.09-2.16,3.49-4.18,6-5.92-.27-2.95,4.83-6.58,0-10.12,8.24-6.34,8.48-16.49,12-25.09,1.35-3.33,2.12-6.88,3.33-10.92l-11.48,3.34-.9-1.68c3.1-2.11,6-4.55,9.36-6.26,4-2.05,6-4.92,7.2-9.24,4.58-16.18,7.84-32.55,8.69-50-1.66.87-2.89,1.87-4.25,2.13-1.17.22-2.49-.4-3.74-.65.33-1.11.35-2.93,1-3.22,8.67-3.75,7.49-11.28,7.33-18.46-.06-2.84.09-5.7-.06-8.54,0-.9-.56-2.36-1.2-2.57-3.84-1.29-2.76-2.71-.77-5A9.63,9.63,0,0,0,94.2,1049c.33-34.16-4-67.82-10.83-101.24C76.29,912.87,68.64,878,66.84,842.38c-1.42-28.23-1-56.62.06-84.9.45-12.46,4.36-24.8,6.7-37.19.36-1.88,1.68-3.81-1.49-4.94-.77-.27-1.08-3.16-.83-4.72,2-12.94,4.25-25.85,6.42-38.76l1.94.23q-2.16,18.17-4.31,36.34c2-16.47,10.3-31.83,8.82-47.69,1.94-2.64,4-4.29,4.48-6.31,2.31-9.48,4.49-19,6-28.63.38-2.41.6-7.16-3.55-6.16-1.32-2-1.9-3.63-3.06-4.41-3.52-2.33-7.42-4.12-10.86-6.56A7.4,7.4,0,0,1,74.45,604c-3.06-26.28-1.66-52.68-2.1-79,0-1.47-.87-2.91-1.17-4.4A15.34,15.34,0,0,1,70.7,516c.4-3.69,1.68-7.37,1.55-11q-1.09-31.27-2.79-62.52c-.33-6.11-1.62-12.16-2.49-18.4l-24-9.74c.19-.56.37-1.12.55-1.68l6.24,1c-.73-1.64-1.39-3.11-2.45-5.5,3.79,1.38,7.2,1.46,7.19,5.91a2.07,2.07,0,0,0,1.05,1.64c3.71,1.17,7.46,2.19,11.87,3.44-.63-4.77.68-8.43-5.13-10.82-6.87-2.8-12.67-8.16-19.09-12.17a7.42,7.42,0,0,1-3.82-7.45c.39-7.57.67-15.16.65-22.75,0-4.36-.72-8.72-1.12-13.25,7.41-2.73,14.52-2.53,21.8-2.28,13.56.47,27.15.4,40.72.14,2.47,0,4.89-2.1,7.37-3.16a10.77,10.77,0,0,1,2.94-.91c6.91-.79,13.82-1.5,20.8-2.77l-12.77-2.05.27-2.11,38,2.56c-.79,4.21.36,6.32,5.25,6.31a186.49,186.49,0,0,0,22.64-1.54c12.84-1.62,25.56-4.2,38.42-5.51,27-2.76,54-5,81.08-7.38,21.85-1.92,43.71-3.71,65.57-5.56,31.48-2.66,62.94-5.7,94.46-7.87,45.11-3.12,90.23-6.42,135.41-8.1,41.21-1.53,81.78-8.43,122.7-12.12,38.11-3.44,76.17-7.53,114.34-10.08,43.22-2.9,86.54-4.43,129.82-6.51,3.65-.17,7.32,0,11,0l.09,1.75c-5.46.66-10.9,1.61-16.38,1.93-45.31,2.65-90.66,4.66-135.92,7.92-46.51,3.36-92.93,7.9-139.38,12a82.91,82.91,0,0,0-12.63,2c14.27-.59,28.53-1.22,42.8-1.77,35.88-1.38,71.77-2.36,107.63-4.17,39.78-2,79.55-4.53,119.3-7.26,33.43-2.29,66.81-5.36,100.24-7.76,22.23-1.6,44.5-2.62,66.75-3.88,1.69-.1,3.39,0,5.08,0l.23,1.83-32.3,4.84c10.72,4.8,19.17,11.83,30.67,11.16a60.93,60.93,0,0,1,10.89.32c4.54.56,5.15,2.27,2.13,6.8,16,3.84,31.86,7.45,47.57,11.44,17.15,4.35,34.35,8.62,51.29,13.69,40,12,79.92,24.2,118.43,40.55.29.12.58.24.88.34,8.6,2.86,8.18,2.84,7.75,11.93-.48,10.23-.11,20.5-.11,30.92-5,1.09-9.15,2.44-13.33,2.77-5.3.41-7,3.14-6.75,7.95.06,1.09,0,2.19,0,3.7-6.14.23-5.65,4.17-5.52,8.79.88,31.14,1.34,62.3,2.26,93.44.12,3.83,2.24,7.58,3.32,11.39.45,1.56.62,3.19,1.13,6,15.28,5.81,31.12,12.64,47.47,17.9,54.17,17.42,108.53,34.23,162.77,51.41,4.49,1.42,8.65,3.84,13,5.8a1.72,1.72,0,0,1,1.26,1.53c-51.12-13.59-101-30.64-151.46-45.54,64.51,23.82,129.16,47.19,197.63,60.95l-7.34-5c.14-.3.27-.61.41-.91,2.59.85,5.2,1.66,7.77,2.55,4.28,1.48,8.32,4.22,13.19,2.33q20.88,9.47,41.75,19c.19.09.21.56.67,1.9l-15.51-2.61c-.62,7.15-1.34,14.13-1.66,21.14,0,.84,2.16,1.74,3.25,2.69s1.9,1.81,2.84,2.72c-1.06.72-2,1.86-3.19,2.07-5.37,1-10.78,1.67-17.05,2.6,1.69,6.83,3.22,13,4.74,19.16l.66-.09q-.72-8.17-1.43-16.34l1.17-.1c6.83,36.8,6.2,74.23,8.18,111.63a16.93,16.93,0,0,1-1.19-2.06,8.12,8.12,0,0,0-.76-2c0,12.58-.08,25.16,0,37.73.12,13.92.47,27.84.5,41.76,0,1.44-1.72,2.81-2.23,4.34a41.62,41.62,0,0,0-2.34,8.92c-1.1,12-1.13,24.09-3,35.91-2.09,13.06-5.71,25.88-8.82,38.77-1.93,8-4.2,15.85-6.18,23.8a19,19,0,0,0-.05,4.47l1.19.31a30.63,30.63,0,0,0,1.54-4c4.42-18.91,8-38.06,13.45-56.67,3.51-12.05,4.37-24.28,6-36.5l1.14.1c-.84,10.81-.74,21.81-2.72,32.41-4.52,24.2-9.2,48.43-15.49,72.21-4.13,15.63-11.53,30.38-16.82,45.74-4.62,13.44-9.39,27-12.2,40.84-3.24,16-4.33,32.52-6.49,48.78-1.22,9.09-3.11,18.09-4,27.2-2.14,21.22-2.15,42.41,4.72,62.89,1.53,4.57,6.1,8,8.29,12.48,1.87,3.82,2.47,8.31,3.27,12.58.13.73-1.45,2.34-2.5,2.65-7.41,2.24-14.84,4.41-22.37,6.22a10.91,10.91,0,0,1-6.37-.8c-16.68-7.25-16.24-7.45-21.94-24.66-8-24.27-8.67-49-6.19-74.07,2.77-27.93,6.44-55.81,7.87-83.8,1.85-36.19,2-72.56-7-108-4.24-16.64-10.31-32.82-15.71-49.15-.33-1-2-1.6-3.15-2.3s-2.73-1.1-3.54-2.09a130.07,130.07,0,0,1-9.79-12.73c-3.75-5.91-9.53-8.21-16.11-5.63-1,.4-2.11,1.28-3,1.12-9.72-1.72-19.91-1.52-28.6-7.4-4.3-2.91-9-5.26-13.34-8.07-15.43-9.9-31-19.69-41.82-35-2.41-3.43-4.92-3.84-8.7-3.62q-44.52,2.63-89.06,4.77c-3.41.16-6.86-.69-10.3-1.07-.1-.72-.21-1.45-.32-2.17,2.28-.92,4.5-2.4,6.86-2.65,10.36-1.12,20.74-2.24,31.14-2.71,20.38-.93,40.78-1.42,61.17-2.1.58,0,1.16-.17,2.08-.31-1.07-3.17-2.27-5-6-4.75-34.52,2.79-69.06,5.41-103.59,8.12-2.81.22-5.59.78-8.25,1.15,0,7.66.16,15,0,22.39-.65,24.89-5,49.32-10.14,73.58-2.7,12.64-6.46,25.07-9.6,37.63a31.77,31.77,0,0,0-.89,8c0,10,.16,19.94.51,29.9.8,23.1,6,44.94,18.3,64.86a18.87,18.87,0,0,1,2.59,10.18c-.11,2.5-2.22,6.53-4.17,7-6.88,1.77-14.33,3.93-21.1,2.91-8.54-1.28-13.07-8.61-15.42-16.93a274.14,274.14,0,0,1-8.81-46c-1.78-17.08-5.24-34-7.72-51-2.62-18-5-36-7.39-53.94-3-22.57-9.57-43.76-23.39-62.28-2.08-2.78-4.06-3.86-7.89-3.35q-56.61,7.44-113.31,14.28a33.92,33.92,0,0,1-12-.92c20.84-5.61,42.24-6.77,63.44-9.31s42.32-4.81,63.62-7.22c-3.82-6.65-5.39-7.51-12.17-6.64-46.11,5.87-92.17,12.06-138.32,17.56-48.83,5.81-97.74,10.9-146.58,16.58-4.57.53-9.14,2.57-13.3,4.69a45.61,45.61,0,0,1-18.12,4.62c-2.66.17-5.29.72-8.11,1.12.6,1.39,1.61,2.62,1.45,3.67a7,7,0,0,1-2.14,4.32c-.69.54-2.76-.25-3.95-.91a25.48,25.48,0,0,1-3.82-3.11l-1.2.71a25,25,0,0,1,1.59,4.88c.53,4.61,1.54,9.35,1,13.86-.8,6.3-5.52,9.74-11.5,9.83-6.48.09-10-2.63-11.62-9.52-1.91-8.23-5.32-16.32-2.23-25.11.52-1.46-1-3.63-1.69-5.88-5.91,1.57-12.79,4-19.88,5.15-13.07,2.05-26.26,3.32-39.4,4.91a7.35,7.35,0,0,0-1.42.15c-12.58,4.36-26,3.06-38.84,5.84-7.06,1.53-13.82,3.63-21.45,2.81-11.18-1.21-21.23,3.83-31.1,8.57-2.64,1.28-2.71,1.13-3.6-1,3.05-1.75,6.11-3.5,9.56-5.46C665,918,664.05,918.6,663.28,925ZM172.65,579.64c6.16,3.2,12.44,6.18,18.43,9.66,4.94,2.86,9.5,7.81,14.91.57L202.12,596l5.13,3.17,9.26-11.67.68.56-8,12.51L222,608.37c.75-2.85,1.8-5,1.81-7.17q.09-43.85-.08-87.71a10.88,10.88,0,0,0-.33-1.94c-6.5,8.72-12.74,17.37-19.28,25.78-3.48,4.48-7.79,8.31-11.2,12.83-6.28,8.32-12.2,16.91-18.19,25.44a23,23,0,0,0-1.91,4.18c-.57.25-1.34.33-1.69.76-7.07,8.82-14.09,17.67-21.4,26.86l8.29,5.14,17.13-20,1.53,1.11c-4,7.59-8,15.18-12.23,23.06l7.77,4.44L198,596.88c-2.65-1.74-4.48-2.9-6.27-4.13Q182.16,586.21,172.65,579.64Zm22.22-87.94c-2.3,3.74-4.54,7.52-6.91,11.22-13.56,21.18-27.36,42.19-44,61.15-2.61,3-6.29,5.7-7.31,9.18-1.76,6-6.12,9.73-9.41,14.4-.61.86-1.14,1.76-1.88,2.91l9.11,6.33c11.05-17.56,21.8-34.75,36.11-49.3-9.63,18-18.47,36.49-34.76,50.35l8.26,5.53c4.13-5.86,8-11.38,12.07-17.13.63,1.49,1,2.46,1.54,3.62.73-.57,1.21-.77,1.42-1.13,10.77-18,26.56-32.48,34.93-52.26,4.83-11.41,12.21-21.74,18.27-32.66.91-1.64,1.7-4.21,1.06-5.7-2.4-5.57-5.42-10.87-8.26-16.37l-10.39,10,8.36-13.16L189.7,465.07l-1.12,1c-.06,1.19-.12,2.39-.16,3.3-5.82,1.45-8.29-1.5-9.9-6.28-.44-1.33-2.26-2.49-3.72-3.14-11-4.9-22-9.67-33.55-14.69-2.85,4-5.83,8.17-8.82,12.36l.75.61,8.95-5.87c0,3.5.61,6.26-.15,8.56-.91,2.77-2.81,5.3-4.59,7.69-7.59,10.14-17,18.73-23.07,30.27-4.88,9.3-11.92,17.47-18.11,26.06-2.76,3.84-5.67,7.6-8.75,11.19-.76.89-2.43,1-4.51,1.78.24,2.41.58,5.9,1,10.54,3.32-2.42,6.59-3.81,8.37-6.27,10.49-14.47,20.51-29.27,30.92-43.79q13-18.12,26.54-35.83c2.37-3.1,5.63-5.51,8.49-8.24l1.67,1.18c-.63,1.76-.93,3.74-1.95,5.23-4.25,6.28-8.74,12.4-13.09,18.61a12,12,0,0,0-1.56,3.07c3.54,2.38.56,4.69-.38,6.41A68.63,68.63,0,0,1,136,499a405.27,405.27,0,0,0-39.45,59.66c-3.92,7.13-3.87,7.16,2.67,11.87a15.83,15.83,0,0,0,1.74.85L142.85,507l1.55,1-38.92,67.46,4.5,3.61c1.22-1.57,2.22-3,3.33-4.27,5.27-6.3,9.9-13.37,16.09-18.59,4.75-4,8.09-8.62,11.37-13.53q21.58-32.36,43.12-64.75a35.08,35.08,0,0,1,3.14-3.56l1.2.79a25.54,25.54,0,0,1-1.56,3.49q-28.36,43.79-56.84,87.51a44.55,44.55,0,0,1-6.39,7.6c-2.88,2.78-6.14,5.17-9.78,8.19l7.64,5.43C140,562.06,158.18,537,176.79,512.22,182.25,505,188.81,498.52,194.87,491.7ZM244.7,630.62c-.93,9.21-.87,9.11,6,12.57,31.48,15.85,63,31.58,94.34,47.75,12.75,6.58,24.43,15.42,37.53,21.08,33.5,14.5,67.52,27.8,101.36,41.51a10.86,10.86,0,0,0,4.62.75c15.46-.89,31-1.56,46.39-2.91,62.3-5.44,124.21-15,186.88-16.92,25.87-.8,51.67-4.31,77.5-6.62,33.86-3,67.72-6.12,101.58-9.07q52.23-4.56,104.47-8.9,82.48-7,165-14,47-4,94.08-7.9,71.38-5.87,142.79-11.57c16.87-1.34,33.8-2,50.64-3.65,16.48-1.61,33-1.88,49.39-5.94,15.44-3.81,32-3.16,48-4.55,4.21-.37,8.4-1,12.6-1.56l.3-2.08c-17.12-7.28-34-15.27-51.41-21.71-45.67-16.86-91.57-33.09-137.42-49.48-14.86-5.31-29.74-10.6-44.79-15.32-9.47-3-19.3-4.82-28.94-7.3a62.61,62.61,0,0,1-6.59-2.49c.12-.31.24-.62.35-.93l7.27,1.09c-.5-1.36-.75-2.66-1-2.66-4.89-.13-9.79-.09-16.17-.09,2.41-1,3.68-1.18,4.58-1.87a23.29,23.29,0,0,0,2.93-3.24c-1.41-.68-2.83-2-4.22-1.94a67.63,67.63,0,0,0-9.35,1.23c-18.31,3-36.54,6.68-55,8.72-22.71,2.52-45.39,5.59-68.48,4.19-13.63-.83-27.42,1.1-41.15,1.53-24.65.79-49.31,1.17-74,2.13-16.24.64-32.47,1.81-48.68,3-26.93,2.06-53.82,4.45-80.74,6.52-22.06,1.71-44.15,3-66.21,4.76-30.86,2.4-61.71,4.86-92.54,7.6-11.74,1-23.71,1.15-34.85,6a20.62,20.62,0,0,1-6.47,1.28q-36.83,3-73.66,5.82c-30,2.3-59.88,4.88-89.86,6.72-57.14,3.5-114.31,6.56-171.47,9.8-37.89,2.14-75.79,4.22-113.67,6.45C259.38,629,252.59,633.49,244.7,630.62ZM255,467.86c3,.72,5,1.66,7,1.61,12.8-.33,25.61-.64,38.38-1.41,44.06-2.64,88.07-6,132.15-8.1C502,456.68,571.35,451,641,452c39.35.58,78.76-1.11,118.12-2.52,50.74-1.83,101.5-3.72,152.17-6.87,35.65-2.22,71.18-6.4,106.72-10,64.73-6.61,129.6-10.1,194.65-10.94,26.54-.35,53-2.35,79.56-3.86,12.3-.69,24.54-2.36,36.83-3,10.64-.52,10.66-.13,12.28-10.49,0-.26-.19-.55-.36-1-6.52.67-13.1,1.23-19.63,2.11-1.14.16-2.09,1.71-3.13,2.61a8.36,8.36,0,0,1-6,.36c-1.39-.48-3.17-2.14-3.27-3.4s1.61-2.74,2.87-3.67a7.25,7.25,0,0,1,3.62-.89c8-.64,16.06-1.15,24.08-1.88,1.13-.1,2.17-1.2,3.25-1.84l-.81-1.44c-10.77,1.4-21.53,2.9-32.32,4.1-1.6.18-3.35-1-5-1.61,1.45-1.17,2.73-2.92,4.38-3.38a68,68,0,0,1,9.82-1.52c7.26-.95,14.53-1.86,21.8-2.78.09-.44.19-.89.29-1.33-1.82-1-3.52-2.36-5.46-3-68.05-21.21-136.07-42.51-204.23-63.39-18.1-5.54-35.7-13.22-55.79-10.52-11.08,1.48-22.66-1.21-34-1.2-27.19,0-54.39.34-81.58.86-10.42.2-20.82,1.26-31.22,2q-25.29,1.74-50.58,3.54c-14.5,1-29,2-43.49,3.13-17.79,1.41-35.55,3.32-53.36,4.32-7.13.39-14.39-1.79-21.55-1.57-19.44.61-38.86,1.94-58.29,2.86q-59.25,2.77-118.5,5.39c-23.19,1-46.39,1.77-66.11,2.51h59.1l0,.78L385.57,341.2c0-.38,0-.76-.05-1.14l26.63-1.69-.06-.79-35.33,1.72.06,1.35,4,.76c-5.59,0-9.81-.24-14,0-28.73,1.95-57.48,3.63-86.15,6.15s-57.53.64-85.79,7.31c-5.3,1.26-11,1-16.52,1.17q-56,1.89-111.92,3.65c-5.39.17-6.65,1.15-5.62,6.4.34,1.69,2.36,3.48,4.06,4.4,8.58,4.64,18.29,6.24,27.23,10.18,19,8.37,38.41,15.7,57.62,23.52,5.27,2.15,10.33,4.83,15.69,6.69C177,415,187,423.33,200,423.58c.4,0,.81.43,1.2.7,3.39,2.33,6.77,4.69,10.18,7,1.28.88,2.6,1.68,3.9,2.51l-.58,1.43-10.61-2.17c1,4,2.14,7.62,2.6,11.31s2.4,5.78,5.75,7.23,6.67,3.56,10,5.38l-.7,1.65-12.27-3.53c-.56,7.16-.56,7.15,5.14,6.3.6-.09,1.27.26,1.88.17,5.42-.75,6,5,8.95,6.73,6-6.06,5.87-14,5.74-21.9l1.91.28v22.88c2.91-.14,5.35,1.32,7.12-2.35.54-1.1,6.63-1.28,7.1-.34C250.29,472.82,253.18,468.7,255,467.86ZM369.53,1109l-1.57.49c.21,1.76,0,3.68.68,5.27,7.56,18.76,14.6,37.77,23.1,56.1,6.66,14.39,8,29,6.44,44.33-.1,1-1.57,1.86-2.51,2.9v44.12l1,0q1.65-19.64,3.28-39.28h2.25c.25,7.26.53,14.53.74,21.79.1,3.31-.11,6.63.13,9.93.44,6.09,2.2,12.3,1.48,18.23-2.85,23.66-6.46,47.23-9.78,70.83-.89,6.28-1.78,12.56-2.86,20.24,4-3.31,6.88-5.45,9.43-8,15.84-15.55,27-33.8,30.88-55.89,1.88-10.62,4.4-21,4.72-32,.49-16.7,3.9-33.32,4.38-50,.4-14-2.07-28-2.49-42a348.63,348.63,0,0,1,3.38-62.42c1.83-12.15,3.82-24.27,5.45-36.45,1.57-11.8,3.72-23.38,9.12-34.16a23.42,23.42,0,0,0,2-7.27,50,50,0,0,1,9.73-24.05c5.27-7,10.79-11.58,19.91-10.18a4.39,4.39,0,0,0,1.4-.22c17.06-3,34.1-6,51.54-6.25,14.37-.25,28.51-1.62,40.58-11.25,6.26-5,13.62-8.59,20.46-12.85a23.28,23.28,0,0,0,3-2.33c.81-.73,1.52-1.57,2.27-2.36-26.83,16.54-57.43,18.75-87.18,24a167.18,167.18,0,0,1,20.33-4.92c30.51-5.63,59.78-13.92,83.05-36.25,8.18-7.85,11.85-18.21,17.89-28.16-1.84.13-2.61.22-3.39.22-2.63,0-6,1.94-7-2.07-.11-.41,4.06-2.55,6.4-2.92,9.8-1.54,19.85-1.7,28.94-6.56,7.77-4.15,15.73-8,23.6-11.92a42.25,42.25,0,0,0-11.6.95c-14.19,2.72-28.45,4.19-42.88,2.44-2.45-.29-5.71-.48-7.06-2-3.05-3.52-6.9-4.34-11.06-5-.13-.79-.29-1.39-.33-2-1-15.29-1.93-30.59-3-45.87-.14-2-1.11-3.92-1.7-5.88l-2.25.33c-.39,6.68-.94,13.34-1.13,20s-.05,13.5-.05,20.24c-3.22-24.81-5-34,.61-57.91.26-1.13-.59-2.61-1.15-3.82a38.92,38.92,0,0,0-2.27-3.74l-124,7.2c-.08-.62-.15-1.24-.22-1.85,19.36-8.34,40.78-6.82,60.9-11.9s40.91-7.51,61.41-11.11c-.08-.48-.17-1-.25-1.44-5.58.88-11.16,1.78-16.75,2.63-24.77,3.79-49.38,8.78-74.72,7.25-12-.72-24.05-.46-36.06-.05-7.67.25-14-1.2-18.2-8.25a3.57,3.57,0,0,0-1.92-1.27c-6.26-2-12.54-3.86-18.88-5.79-3.21,5.95-3.18,5.91,2.32,9.54,2.14,1.42,4.15,3,6.22,4.56l-.68,1.24-12.27-4a7.55,7.55,0,0,0-1,1.34c-15.42,36-29.48,72.37-31.32,112.17-.09,1.94-1,3.84-1.48,5.76-4.77-11-2.26-21.75-1.6-32.5-10.33,31.87-19.08,139.77-12.87,158.9.42-4,.54-7.62,1.24-11.12,1.2-6.07,3.38-12,4.07-18.12,2.7-23.71,4.73-47.48,7.57-71.17.66-5.56,3.49-10.87,5.32-16.29l1.38.4c-8.81,58.54-12.59,117.35-8.76,176.59l-1.95,0c-1-7-2.05-14-3-20.61-2.29,7.25,3,16.4-5,23.25-1.71-8.83-3.26-17.49-5.07-26.1-1.94-9.27-4.05-18.52-6.26-27.73-.27-1.1-1.64-1.94-2.5-2.9-.68,1.23-1.41,2.43-2,3.7-.18.37,0,.93.07,1.4q4.51,32.13,9.07,64.24c.4,2.82,1.25,5.58,1.89,8.37l-.92.29Q374.86,1120.5,369.53,1109ZM774.59,466.24c-8,0-16.45-1.06-24.58.19a865.87,865.87,0,0,1-97.15,9.72c-53.42,2.14-106.87,3.49-160.32,5.05-34.15,1-68.32,1.58-102.47,2.7-21.48.71-42.93,2.07-64.4,3.14-17.21.85-34.41,2-51.62,2.39-5.67.13-6.9,3.37-7.77,7.43-2.86,13.43,1.05,26.34,3.4,39.36q.57-11.62,1.16-23.25l-.8-.07-2.56,4.21,6.23-22.42,1.18,0a20.86,20.86,0,0,1,.66,3.8c-.06,4.9-.34,9.8-.41,14.7-.28,19.53-5.2,38.75-2.73,58.56,1.49,11.92.28,24.17.28,37.2,63.65-2.31,127.77-5.7,191.77-11.86-6.4-4-14.07-5-19.79-10.1a10.66,10.66,0,0,1,5.29.57c5.78,2.11,11.4,5.71,17.3,6.22,11,1,22.17.19,33.26,0,3-.05,6-.72,9-.79,8.81-.21,17.64.13,26.42-.47,8.46-.57,16.82-2.5,25.28-3.06,54.92-3.6,109.86-7,164.79-10.51a144.24,144.24,0,0,0,17.28-2.43c6.65-1.24,13.18-3.12,19.85-4.29,5.2-.92,5.75-1.4,4.11-6.17a12.94,12.94,0,0,1-.49-2.79c-.79-6.43-1.51-12.87-2.34-19.3-1.29-10-2.65-20-3.93-29.54l6.6-2.82c1.86,12,3.81,24.57,5.75,37.11l1.78-.15Zm488-26c-16.53.49-33.77.75-51,1.56q-39.09,1.83-78.14,4.34c-21,1.38-41.91,3.23-62.86,5q-36.84,3.12-73.65,6.5c-27.09,2.5-54.2,4.79-81.22,7.83-37.4,4.22-74.67,9.74-112.39,10.39-1.82,0-3.64.24-5.59.37,2,33.34,1.35,66.09-3.81,99.22l25.11-1.94-17.8-28.25,1.18-.8c.91,1.15,1.9,2.25,2.72,3.46,3.55,5.24,7.67,10.21,10.41,15.85,4,8.31,10,11,18.6,8.55.26-.07.45-.38.83-.72l-2.11-3.69c4.79,4.4,15.19,5.15,23.28,2.19-13.35-11.9-22.51-26.7-30.66-42.22,4,4.33,7,9.35,10.76,13.75,7.28,8.49,14.89,16.69,22.51,24.87,1.64,1.76,2.37,4.29,6.07,4.21,38-.88,75.92-1.38,113.87-2.1,10.75-.21,21.56-.2,32.23-1.35,39.06-4.18,78.07-8.81,117.1-13.27-10.9,1.14-21.88,1.81-32.84,2.63-38.8,2.91-77.56,6.61-116.4,8.55-24.59,1.22-49.3-.12-74-.47-2.38,0-4.74-1.18-7.11-1.82a57.16,57.16,0,0,1,8.74-.66c33.14-2,66.3-3.68,99.41-6.08,35.31-2.55,70.55-6,105.84-8.64,31.52-2.39,63-4.76,94.61-6.33,24.93-1.23,49.91-1.13,74.58-5.78,7.06-1.33,14.25-2,21.16-2.86,1.63-19.16,3.2-37.7,4.76-56.15h-6c0,6.92.09,13.55,0,20.18-.12,6.8-.16,13.62-.86,20.37-.2,2-2.3,5-4,5.3-3.3.67-4.27-2.46-4.6-5.29a28.81,28.81,0,0,1-.07-4.26c.28-7.58.67-15.16.88-22.74.36-13.44.53-26.88,1-40.32.09-2.56,1.2-5.1,1.93-7.62.07-.26.78-.33,1.38-.57l2.66,3.43c.43-1.36.45-2.31.94-2.8,1.25-1.26,2.69-3.16,4.08-3.18,1.12,0,2.75,2.15,3.31,3.67.89,2.37,1.07,5,1.55,7.53l1.33-.17c-.35-3.43.58-8.1-1.31-10.07-5-5.17,6-5.3,2.3-9.32-.2-.22-.34-.5-.81-1.18l-24.81,2.18c0,.23.11.45.17.68l6.74,1.86c-7.63,6.37-16.89,4.2-25.4,6.53,9.5,8.12,13.76,19.11,19.87,28.81,1.2,1.91,1,4.05-2.33,4.12-12.26.27-20-7.32-27.32-15.62-.29-.33,0-1.12,0-3.12l18.08,12.11.81-1c-4-6.6-8-13.17-11.9-19.85C1263.53,444.6,1263.35,442.75,1262.61,440.22ZM1597,709.88c-6.23-5.75-13.1-8.81-22.08-8.29-24.15,1.39-48.35,1.77-72.52,3-16.55.83-33.07,2.39-49.6,3.62l.76,1.54c-1,1.06-1.76,2.66-3,3.07a97.37,97.37,0,0,1-11.45,3c-5.05,1-10.17,1.82-14.31,2.55C1425.92,749,1427,779,1428,808.91l13.74-1.39.33,2c-11.67,5-24.65,5.74-36.6,10.24a33.3,33.3,0,0,0,16.62.19,12.42,12.42,0,0,1,6.32.23c1.76.58,3.15,2.26,4.46,3.26,1.4,6.42,2.36,13.11,4.38,19.47,3.53,11.16,10.23,20.15,20.52,26.14q12.21,7.1,24.51,14.05a10.85,10.85,0,0,0,3.91,1.56c7.15.78,14.31,1.84,21.47,1.9a13.31,13.31,0,0,1,11.57,6A193.8,193.8,0,0,1,1547.57,948c1.83,5.73,3.85,11.39,5.78,17.09-.95-23.75-10.38-46.27-8.66-70.25a9.17,9.17,0,0,1,1.81,3.85c5.72,26.23,12.21,52.3,14.84,79.13,1.44,14.68,4.22,29.25,5.39,43.95a235,235,0,0,1-.11,32.17c-.68,11.65-2,23.28-3.61,34.84-1.29,9.38-3.57,18.61-5,28-.48,3.17.93,6.6.55,9.8-.73,6.26-2.17,12.44-3.19,18.68-.45,2.8-.67,5.65-.89,8.49-.19,2.62-.25,5.26-.37,7.89,4.41-11.36,8.71-22.5,12.08-33.92,2.8-9.53,4.34-19.43,6.77-29.08a138.42,138.42,0,0,0,4.09-39.92q-1.36-31.28-2.64-62.55-.75-18.95-1.19-37.92c0-1.42.66-2.85,1-4.27l1.73.18c.66,7.13,1.78,14.25,1.9,21.38.51,30.37,1.24,60.75.81,91.11a325,325,0,0,1-4.35,47.62c-2.46,15.09-8.15,29.67-10.3,44.77-2.79,19.53-3.73,39.34-4.94,59.06-.62,10-.18,20,0,30.06,0,1.08,1.69,3,2.69,3,7.9.5,15.68,0,22-3.48-1.31-4.81-2.5-9.13-3.67-13.46-1-3.73-2-7.45-2.92-11.21-.72-3-1.67-6.14-1.75-9.23-.14-5.84.15-11.7.47-17.54,1.39-25,1.57-50,4.74-74.78,2.35-18.36,8.56-36.23,13.19-54.29,4.5-17.58,9.28-35.1,13.74-52.7,2.89-11.4,5.3-22.92,8.17-34.33,2.74-10.87,6-21.61,8.65-32.5,8.53-35.4,6.42-71.7,8-107.6,1.06-24.86-1.55-49.89-2.83-74.83-.8-15.75-.95-31.67-7-46.66-.53-1.33-1-2.68-1.55-4l-1.36.19c-.25,1.91-.58,3.81-.72,5.73-.87,11.41,3.27,22.11,4.79,33.17,3.7,27,6.9,54.13,3.64,81.51-.68,5.63-.69,11.33-1,17H1625c-.18-3.08-.34-6.16-.54-9.25-1.16-17.81-.87-35.86-3.86-53.37-4.1-24.07-10.72-47.71-16.15-71.57-.81-3.58-2.81-4.45-6.14-4.06-9.89,1.13-19.82,2-29.7,3.22q-35.74,4.42-71.46,9.09c-14.69,1.91-29.36,4-43.72,5.92v28.44c8.58-4,14.75-10.89,23.66-12.75a10.41,10.41,0,0,1-3.42,5c-4.84,3.56-9.75,7-14.77,10.32-6.89,4.52-7.31,5.31-5.67,13.88l18.45-10.5c.8,1,1.6,1.95,2.41,2.92a35.87,35.87,0,0,0-4.78,2.22c-4.77,3.09-9.56,6.18-14.1,9.6a13.53,13.53,0,0,0-3.54,5,50.53,50.53,0,0,0-2.2,6.49l-1.21-.35c-.55-2.08-1.11-4.16-1.78-6.67l-11.21,4.62c-1-4.46-1.72-7.84-2.59-11.17-3.2-12.19-5.39-24.39-.89-36.75a11.52,11.52,0,0,1,1.55-2.33l1.63.24V773.6c4.07-3,6.77-4.9,9.3-7,1.15-.93,2.7-2.19,2.82-3.42,1-10.16,1.62-20.34,2.41-30.94h-18c0-.43,0-.86,0-1.29Q1514.27,720.43,1597,709.88ZM832.24,810.74c2.22.24,5.9.1,6,.73,1.18,5.51,5.9,8,9.18,11.69,7,7.77,11.44,16.65,12.57,27.05.32,2.92.05,5.91.05,10L978,842c.21,2.53.44,5.48.65,8l-60.4,23.27c11.57.43,21.11-2.26,30.4-6.43q13.62-6.12,27.45-11.79c1.46-.6,3.32-.22,5-.3,0,.36,0,.72,0,1.08l-26.74,12.56.46,1.37,46.78-5.21,0-.42-13.47-1c0-.46,0-.92-.07-1.37,1.27-.28,2.53-.66,3.81-.82,9.72-1.24,19.45-2.37,29.16-3.68,7.12-1,7.1-1.07,7.16-8.61.14-20.4.25-40.81.47-61.22,0-4.73.47-9.45.72-14.18a8.06,8.06,0,0,1,1.64,5q.24,10.68.35,21.35c.16,12.65.2,25.31.52,38,0,1.46,1.21,3.79,2.34,4.14a21.36,21.36,0,0,0,8.41.83c11.31-1.3,22.59-2.85,33.86-4.44a63.78,63.78,0,0,0,7.48-2,23.32,23.32,0,0,0-6.75.18c-11.52,1.48-23,2.87-34.55,4.49-5.13.72-8.6-1.68-8.68-7.32-.35-23.89-.37-47.78,3.13-71.5a26.13,26.13,0,0,1,2.94-8.46c.63-1.17,2.73-1.88,4.28-2.16,3.77-.69,7.62-1,11.44-1.47-5.79-1.4-11.4-1.37-16.89-2.16-7.72-1.09-15.56,4.68-23.13-.56-.1-.08-.31,0-.47,0l-15.85,2.26c1.44,2.45,3.49,4.35,3.64,6.4,2,27.72-.85,55.27-3.39,82.83-.28,3.12-1.65,6.34-1.17,9.29a7.32,7.32,0,0,1-3.35,7.63c-1.44,1-4.27.18-6.44-.1a17.25,17.25,0,0,1-3.47-1c2.34-27,4.65-53.68,7-80.83-3-.25-5.29-.45-7.62-.63-14.81-1.08-29.62-2.2-44.44-3.23-6.42-.45-13-1.58-19.28-.94-31.13,3.19-62.23,6.77-93.32,10.4Q752.83,788,678.17,797c-11.27,1.33-22.55,2.64-34,4l-.85-5.2C680.1,788.92,717,784.66,753.82,780s73.69-9,110.54-13.56l-.15-1.25-229.1,26c1.15,2.8,2.62,4.63,2.45,6.28-1,10.05-3.06,20-3.62,30.09-.8,14.5-1.28,29.08-.69,43.58.45,11.28,1.27,11.2,12.81,10.77a59.2,59.2,0,0,1,10.82.33,4.71,4.71,0,0,1,3,3.46c0,1.2-1.66,3-3,3.52-2.17.79-4.64.75-7,1-4.12.39-8.24.71-12.35,1.06l.09,1.15c5.19-.24,10.46,0,15.56-.81,30.72-5,61.41-10.18,92.11-15.29,7-1.16,14-2.46,21-3.31,2.8-.34,5.82.93,8.6.51,7.78-1.18,15.49-2.86,23.26-4.34-5-16.26-5-19.41.37-33.61a10.33,10.33,0,0,1,2.59-3.72c1.54-1.44,3.52-2.4,5-3.87a44.19,44.19,0,0,0,3.82-4.84,26.17,26.17,0,0,1-.42,8.89c-1.88,10.59-2,20.61,6.12,29.32,5.74,6.15,10.76,7.24,17.73,2.51a8,8,0,0,1,3.13-.94,93,93,0,0,1,10.33-1.44c3.63-.17,4.69-2,5.12-5.3,1.78-13.64-4.92-24.13-12.21-34.58.21,5.28-2.61,8.15-7.25,8.62-6.28.64-12.41-.26-16.79-5.64-2.63-3.23-5.31-5.88-9.93-6.41-1.73-.2-4-2.76-4.48-4.62-.34-1.46,1.33-4.28,2.87-5.16,5-2.87,10.21-5.77,15.7-7.49C831.14,797.46,833.88,800.14,832.24,810.74ZM1415.31,720c-58.74,6.57-117.41,13.89-176.25,19.5S1121,749,1061.4,753.72c.11,2.4.25,5.39.4,8.87l7.84-4.43c-1.38,5.24-9.45,5.48-7.11,12.46l6.22-3.94.34.53-6.92,7.59.52.32,18.68-9.92.74,1.31c-5.61,4-11.34,8-16.76,12.25a8.61,8.61,0,0,0-2.82,5.25c-1,8.62-1.3,17.34-2.58,25.91-1.2,8.05-3.34,16-5.32,25.07,52.77-8.23,106.06-10,158.53-18.2-2.56-17.17,4.17-36.25,17.13-47.18-8.5-1.49-8.77-1.94-6.27-6.74-.71-2.52-2.15-4.94-1.48-5.9.9-1.3,3.4-2,5.26-2q9.46-.42,19-.19c9.29.23,10.7,2.88,6.08,10.85-.1.16.15.52.24.79,5.89-2,6.59-1.38,6,4.64a6.4,6.4,0,0,0,1.9,4.72c8,7.06,12.42,15.43,10.43,26.4,0,.21,3,4.34,3.39,4.82,47.39-1.52,92.1-12.16,139-13.14C1414.31,769.14,1414.81,744.69,1415.31,720ZM805,755.6l-.09-1.49,18.27-2.22c37-4.46,74-9.06,111.09-13.31,22.29-2.56,44.64-4.7,67-6.81,27.69-2.6,55.42-4.81,83.1-7.5,25.48-2.48,51-4.93,76.37-8.2,34.81-4.49,69.52-9.78,104.28-14.65,12.72-1.79,25.47-3.36,38.21-5a2.2,2.2,0,0,0-1.87-.6c-14.65,1.21-29.28,2.89-43.95,3.56-32.68,1.5-65.43,1.87-98.08,3.85-41.47,2.51-82.92,5.54-124.27,9.48-47.51,4.53-94.87,10.58-142.35,15.47q-68.64,7.05-137.38,13c-38,3.33-76,5.81-114,9-40.67,3.43-81.3,7.24-121.94,10.94a18.09,18.09,0,0,0-4.88,1.39c-8.08,3.21-16.44,2.68-24.78,1.78-3.84-.41-7.6-1.48-11.39-2.25-.24.5-.48,1-.71,1.5l4.92,13c29.12-4.38,58.48-8.84,87.84-13.2q17.8-2.64,35.67-4.9c1.88-.24,3.88.42,5.82.67,0,.73,0,1.46,0,2.19-20.68,8.34-42.78,10.87-64.63,14.19-22.08,3.34-44.29,5.73-66.71,4.34,0,8.39.22,8.61,8.56,7.77,5.66-.57,11.32-1.22,17-1.8,2.39-.25,4.73-.24,5.28-3.55.14-.8,2.07-1.77,3.24-1.87,7.72-.62,15.46-1,23.19-1.49.75,0,2.06-.12,2.2.21,1.58,3.71,4.57,1.94,6.9,1.68,7.38-.84,14.73-1.93,22.08-3Q594.81,774,620.53,770l.27,1.09-10.67,3h21L533,785.81c5,1.66,10.14,3.15,15,2.58,14.6-1.72,29.1-4.25,43.65-6.44q31.19-4.69,62.37-9.38c10.12-1.54,20.2-3.4,30.36-4.66,3.32-.41,6.88,1.19,10.24.89,20.64-1.82,41.24-4.08,61.88-5.88,30.1-2.61,60.22-4.91,90.32-7.43,19-1.59,38.13-2.94,57.12-5.12,25.88-3,51.69-6.6,77.52-10q22.68-3,45.34-6C952.69,739.64,879,749.6,805,755.6Zm-619,4c-27.76,13.14-55.18,26.45-84.41,35.49,27.2-14.21,54.67-27.83,82.24-41.22,3.75-1.83,5.71-4,5.11-8.72-22.44,4.91-43.55,13-64.92,20.25,20-9.71,40.95-16.56,63-22.14-4.15-5.26-7.82-9.6-11.13-14.21-2.32-3.24-4.76-4.28-8.81-3.27-5.67,1.41-11.54,2-17.33,2.91-.11-.63-.23-1.25-.35-1.88L169.49,722l-5.25-6.77-3,5.21-4-9.68-4.94,2.44-.82-1.06c1.31-2,2.62-4,4.21-6.46-3.62-.92-6.77-1.89-10-2.5-6.89-1.3-8.47-2.8-8.76-9.85-.26-6.16,0-12.34-.21-18.5-.13-4-.63-7.94-1.07-13.06L98.59,691.67c.47-4.18.88-7.84,1.28-11.5l-2.43-.6c-1,2.45-2.51,4.81-3,7.36-3.62,21.16-7.41,42.3-10.4,63.56-1.55,11-1.6,22.24-2.32,33.37,4.77-24.35,8.86-48.76,17.18-72.18a6,6,0,0,1,0,2.74c-.44,2.33-.85,4.67-1.38,7C88,762.51,82.17,804,84.94,846.37c.39,6,1.56,12,2.37,17.93l1.38-.22c-.12-2.35-.21-4.71-.38-7.06s-.59-4.41-.58-6.61c0-2-1.36-4.86,2.75-5.37.6,5.9,1.18,11.57,1.77,17.42a13.27,13.27,0,0,0,2.1-.66c14-8.38,28.53-15.65,44.23-20.42a5.64,5.64,0,0,0,3.07-2.59c4.36-8.85,8.53-17.79,13-27.28l-46.56,23.82c-1.48-3.65-.49-5.34,2.37-6.64,15.1-6.84,30.14-13.82,45.17-20.82a11.19,11.19,0,0,0,3.72-2.67c4.63-5.4,9.06-11,13.66-16.38C180.2,780.4,183.17,770.14,186,759.57Zm1063.23,248.48-1.16-.48c.52-2.56,1.12-5.11,1.54-7.68,1-6,2.23-12,2.79-18.12,1.3-14,.29-28.54,3.77-41.94,7.46-28.67,8.67-57.72,9.3-87,0-.85-1.11-1.74-1.63-2.49-1.4,3.6-2.76,6.21-3.43,9-1.37,5.68-2.27,11.46-3.56,17.16-1.47,6.52-7.57,9.66-13.92,7.14-1.34-.53-3.18-1.87-3.32-3-.62-5-3-9.69-.55-15.16,2-4.48,2.23-9.79,3.16-14.31l-41.5,7.49c4.5,6.47,10.28,9.3,18.2,7.43,3-.71,6.2-.48,9.31-.68l.06,2.06h-18c3.07,7.5,6.11,13.89,8.31,20.56a141.54,141.54,0,0,1,5.32,20.62c4.26,24.89,8.38,49.8,12.09,74.77,1.66,11.22,2.44,22.59,3.23,33.91.46,6.62-.08,13.29.23,19.92.66,14,2.33,27.8,9.84,40.1,1.45,2.36,3.32,5.64,5.51,6.13,4.39,1,5,4.11,6.51,7.14.89,1.73,2.84,4.19,4.24,4.14,4.53-.16,9-1.33,14.48-2.28-10.73-7-16.22-16.52-19.63-27.3-5.73-18.17-9.66-36.65-8.09-55.91a22.47,22.47,0,0,0-.19-3Zm387.16-345.61c-22.88,1.8-45.85,3.15-68.71,5.64-8.45.92-16.61,4.52-24.92,6.83-5.09,1.42-10.15,3.28-15.36,4q-18.29,2.39-36.71,3.74c-8.8.65-17.72-.12-26.46.85-22.41,2.49-45.07,1.27-67.31,7.18-16.28,4.34-33.47,5.28-47,7.26,92.61,1.56,187.59-10.31,282.78-18.15C1633.9,673.92,1635.18,668,1636.37,662.44ZM203.83,697.93h2.41c1,4.4,2.06,8.8,3,13.22,1.38,6.67,3.66,8.71,10.82,9.47.64-3.12,1.27-6.24,1.91-9.36l1.75-.06c.55,2.95.91,5.95,1.72,8.82.52,1.83,1.26,4.31,2.67,5,6.37,3.36,13,6.21,19.8,9.36,1.49-4,1.66-7-2.29-9.23a39.79,39.79,0,0,1-6.15-4.43,15.75,15.75,0,0,1-2.33-3.28l.91-1.07a31.55,31.55,0,0,1,4.44,1.82c3.1,1.83,6,4.33,9.92,2.16,1.63,3.33,3.26,6.38,7,8.24,5.21,2.6,10,6,15,9,2,1.24,4.14,2.39,6.48,3.73.53-6.88.21-13.06,1.68-18.78,1.36-5.29-.71-7.16-4.51-10.06-11.82-9-26.71-14-35.69-26.75-.16-.23-.54-.31-.84-.42l-19.3-7.31,37.68,27.82-1.21,2L184,670.05c.87,8.48,2.06,16.74,2.5,25,.58,11,5,16.17,16.37,17.86Q203.35,705.43,203.83,697.93Zm260.39,56.26c-2-.84-3-1.27-3.93-1.65-11.46-4.53-23.07-8.73-34.36-13.65-23.62-10.28-47.07-21-70.63-31.38-1.5-.66-4-1.17-5.05-.4-5.65,4.14-11,8.71-16.82,13.43,3.57,1.79,6.91,3.22,10,5.06,2.55,1.53,4.44,1.18,6.8-.51,3.18-2.3,6.74-4.08,10.14-6.09l.87,1.38-10.74,7.88-.51,2c8.5-3.2,11.55,3.87,16.84,6.72,1.09.59,3.24.1,4.47-.63,5-3,9.79-6.34,14.82-9.28,1-.6,2.8,0,4.22.07-.76,1.19-1.25,2.77-2.33,3.51-4.65,3.2-9.47,6.15-14.33,9.25,9.6,7.57,11.08,7.55,19.14.09a52.66,52.66,0,0,1,5.07-4.28c1-.72,2.35-1,4.73-1.94-2.67,8.39-9.11,10.54-15.17,13.71l16.85,8.72c3.39-5.14,6.3-9.84,9.53-14.3.95-1.31,2.8-2,4.24-2.92.16,1.84.92,3.88.37,5.46-1.75,5-4,9.83-6.11,14.92l8.77,3.78c-.44-3.69-.82-6.95-1.21-10.21l1-.26c1.5,3.34,3,6.68,4.58,10.23l9.44-7.31,1.06.74c-1.54,4.5-3.08,9-4.79,14,11.68,4.36,21.52,12.79,35.42,12.08l3.09-19.17c-5.36-.57-10.59-.68-15.61-1.77s-10.82-.56-14.43-6.71C447.88,750.7,455.5,755.6,464.22,754.19ZM400.65,863.9l1.78.47c-.15,1.3-.29,2.6-.43,3.9l-.34-.24,26.78-68.33L416,793.24c-2.38,6.89-4.73,13.23-6.76,19.68-5.43,17.3-12.69,34.08-14.68,52.38-1,8.78-2.54,17.5-4.12,26.2-.41,2.24,0,5.6-4.91,6.11-.71-38.13,15.45-71.49,26.77-106.29l-17.23-10c-2.64,7.32-5.11,14.2-7.93,22l4.34-2.93a690.82,690.82,0,0,0-15.38,133.89,8.74,8.74,0,0,0,2.64-3.92c1.21-4.08,2.1-8.26,3.34-12.34.38-1.23,1.48-2.25,2.26-3.36,1-1.41,2.48-2.68,2.88-4.23,2.17-8.41,3.79-17,6.15-25.32C395.39,878,398.19,871,400.65,863.9ZM131.05,983.15l-6.74,3c-8.14,3.61-8.18,3.61-7.17,12.64.55,4.9,1.24,9.78,1.88,14.8,7.54-2.49,8-2.46,10.92.53-1.93.87-3.72,1.84-5.62,2.51-4.14,1.45-5.77,4-5.33,8.59.6,6.27,1.49,12.73.62,18.88-2.87,20.44-6.3,40.8-9.89,61.12-1.43,8.09-3.83,16-6,24.9,8.74-8.91,15.47-18.06,17.52-29.63,3.08-17.42,5.17-35,8.43-52.41s.31-34.85,2.28-52.2C132.4,991.92,131.42,987.8,131.05,983.15ZM247,621.49a23.81,23.81,0,0,0,0-4.09c-.58-3-1.89-5.92-2-8.89-.23-10.26.33-20.54-.12-30.78-.95-21.59-2.35-43.16-3.55-64.74-.39-6.94-.5-13.9-1.26-20.8-.17-1.5-2.35-3.42-4-4-2.66-.89-4,1.12-4.27,3.66-.3,2.83-.63,5.66-.74,8.49-1.44,36.84,1.51,73.51,4.14,110.19.25,3.57.38,7.15.57,10.93ZM84.14,1177l15-12.38.9,1a9.8,9.8,0,0,1-1.1,2.33c-4,4.66-7.6,10-12.37,13.69-6.25,4.89-9.42,10.58-8.93,18.16h18.9l18.79-72.57c-7.27,6.51-14.29,12.8-21.28,19.11a5.55,5.55,0,0,0-1.74,2.18C89.69,1157.52,87.12,1166.59,84.14,1177Zm1145-399a44.63,44.63,0,0,0-8,25.23c-.15,5.42,2.8,10.68,8.11,10,11-1.34,19.46-2.81,30.39-4.47,1.47-.22,3.62-6.48,4.14-8,3.39-9.7-2.2-16.79-7.18-24.15C1246.69,785.68,1239,786,1229.16,778ZM362.74,829.84c-.95,3.82-2.28,7.28-2.61,10.83-1.78,19.3-3.89,38.6-4.77,58-1,21.94-1.36,44-1,65.91.34,18.74,2.13,37.45,3.28,56.17l1.22-.05c.06-1.35.15-2.71.17-4.07.71-40.16,1.14-80.33,2.23-120.48.49-18.15,2.3-36.27,3.52-54.4C365.07,837.78,367.88,833.58,362.74,829.84Zm434.68-359.3.11,1.53c62.93-.87,125-10.65,187.21-18.9a49.73,49.73,0,0,0-7.9-.21c-24.29,1.79-48.57,3.55-72.84,5.48-25.34,2-50.92,1-76,6.61C817.92,467.31,807.63,468.74,797.42,470.54Zm-673.1,423a50,50,0,0,1-20.6,13.71c-1.45.54-3.49,2.25-3.49,3.41,0,2.88,1.06,5.76,1.72,8.81l28.68-9V876.65c-9.17,5.27-17.27,10.48-25.87,14.66-5.41,2.64-7.34,6-5.86,12.44Zm15.84-49.31-1.08-.76q-22,13.93-43.89,27.91a3.52,3.52,0,0,0-1.61,2.58c.58,4.59,1.45,9.14,2.25,13.85,9.37-4,17.8-8.62,26.8-11.25,6.81-2,9.62-5.38,9.75-12a48.69,48.69,0,0,1,.72-6.11,8.13,8.13,0,0,1,.62-2.73C135.81,851.84,138,848,140.16,844.21ZM290.24,720.72c-.7,2.18-1.35,3.72-1.7,5.32-1.12,5.21-2.26,10.42-3.08,15.67-.21,1.4.72,3,1.13,4.46l1.14-.14,2.69-8.52c.36,3.75-.28,7.42,1.21,9.69s5,2.8,7.95,4.23l7.51,6-7.86-1.73c.48,3.15,0,6.43,1.4,7.86,3.76,3.83,8.33,6.86,12.85,10.43.23-5.93-.41-11.61-.12-17.31.23-4.54-1.39-9.2-1-13.7.5-5.69-2.54-9.43-6.16-12.32C301.33,726.79,295.59,724,290.24,720.72ZM400.89,1398l2.65,1.32c5.71-9.72,7.69-21,11.15-31.58s6.25-21.66,9.33-32.5l-1.23-.48c-7.85,12.82-16.77,24.61-30.47,31.75a2.48,2.48,0,0,0-1.19,1.38c-2.2,8.49-4.34,17-6.66,26.17,11-5.19,18.2-14,26.66-22.2C407.46,1381.22,404.17,1389.6,400.89,1398Zm836.94-560.93.66-1.41c-5.74-4-11.44-8.15-17.27-12.06-.71-.48-2.18-.07-3.21.23-5.72,1.71-11.45,3.44-17.13,5.29q-25.23,8.22-50.42,16.56c-1.23.4-2.39,1-3.59,1.55,23.17.74,44.38-7.46,65.93-14l.33,1.19-13.67,5.77.27.41Zm94.32-28.45-.21-1.33c-4.77,1.06-9.73,1.57-14.26,3.26-11.51,4.3-22.74,9.35-34.27,13.61-3.86,1.42-8.27,1.35-12.42,2-.1-.53-.21-1.05-.31-1.58L1307,810.92c-10.2,0-20,1.75-29.91,1.83-9.18.07-13.48,4.62-16.54,12.35-3,7.48-3.29,7.35,2,12.81,5.52-3.81,9.62-4.7,18.22-5.54,2.65-.26,5.17-2.56,7.6-4.15,1.91-1.24,3.38-3.43,5.42-4.14,3.82-1.33,8.17-1.31,11.84-2.9C1314.6,817.31,1323.32,812.83,1332.15,808.6ZM256.82,620.54l40.68-3.94c-5.63-.65-11.27-.41-16.88-.73A105.41,105.41,0,0,1,268,614c-4.62-.82-5.78-3.86-5.72-8.3.19-16.08.15-32.17.06-48.26-.14-22.43-3.73-44.91.94-67.45-2.68,0-5.18-.55-5.21,3.87-.32,40.44-.83,80.89-1.29,121.34C256.8,616.76,256.82,618.31,256.82,620.54ZM266,661.15,243.2,677.54c9,4.19,16.56,7.77,24.19,11.15,1.07.48,3.07.52,3.81-.15,5.5-5,10.79-10.24,16.14-15.4-9.73-5.8-6.73-5.16-14.85.62-1.93,1.37-3.69,3-5.58,4.4s-3.8,2.73-5.7,4.1l-1.13-1.39,14.77-14.75Zm523.66,228,.78,1.7c-2.77,1.51-5.54,3-8.52,4.66,4.69,0,9.21.66,13.44-.16,6.65-1.27,13.11-3.49,19.6-5.48a3.24,3.24,0,0,0,1.65-2.42c.1-1.79-4.92-5.42-6.87-4.94-11.89,2.95-24.26,1-36.28,4.68-10.59,3.27-19.2,9.54-28.85,14.26,7.95-.79,15.9-1.43,23.43-3.58S782.43,892.08,789.62,889.11ZM161.33,658.19c.52,5.25,1,9.47,1.35,13.69s.68,8.51.9,12.77c.25,4.72-.07,9.42,5.17,12.26,4.19,2.26,7.95,5.28,11.9,8a345.84,345.84,0,0,0-1.38-35.78,4.28,4.28,0,0,0-2.07-2.82C172.36,663.66,167.41,661.26,161.33,658.19ZM111.09,430.73c-7.49,10.43-13.89,20.91-21.87,30-6.91,7.9-3.36,16-4.06,25.34l34-51.62ZM721.94,588.17c-.06-.76-.13-1.52-.19-2.28-71.88,4.69-143.88,7.82-215.61,14.73,0,.49.06,1,.1,1.47ZM105.88,681.51c8-6.51,15.34-13.14,23.37-18.86,4.49-3.2,6.69-6.35,5.77-11.95-.67-4.12-7.94-10.3-12.08-9.4a3.47,3.47,0,0,0-1.92,1.19q-7.18,9.71-14.22,19.5c-.28.39,0,1.16,0,2.25,3.82-3.24,7.21-6.27,10.76-9.09s6.76-5.77,11.69-5.91a10.31,10.31,0,0,1-2.76,4.18c-5.22,4.81-10.36,9.74-15.85,14.24C106.23,671.25,104.52,675.46,105.88,681.51Zm8.9-285c1.51,4.58,1.72,8.64,3.85,10.74,2.49,2.45,6.66,3.18,10.21,4.7,1.69-10.39,1.69-10.4-7.19-14.91-2.68-1.35-5.33-2.78-8.07-4-8-3.6-16.08-7.11-24.41-10.78-1.06,12.46,1.68,16.1,12,16.93.34-1.68.69-3.38,1-5.08,1.72,6.2,4.76,10.41,11.63,10.74C114.14,402.53,114.39,400.15,114.78,396.55Zm206,293.9c-5.17-2.7-10.29-5.45-15.5-8.05a3.64,3.64,0,0,0-3-.16c-6.24,4.36-12.38,8.87-19.19,13.82,6.49,3.14,11.83,5.83,17.28,8.26A4.26,4.26,0,0,0,304,704C309.58,699.7,315,695.19,320.79,690.45ZM711.26,463.74c-17.26-2.41-119.38.3-134.88,7.77ZM233.83,672.65c5.88,4.25,5.91,4.2,10.24-.84a17.5,17.5,0,0,1,4.25-3.72c4.83-2.85,9.8-5.48,15-8.36l-7.51-4.25c-3.82,3.22-4.78,2.89-7-2-1.1-2.43-1.86-5.43-5.66-2.71-7.83,5.6-14.61,12.92-25.35,14.7,9.26,5.55,9.19,5.45,16.73.14,3-2.12,6.4-3.7,9.62-5.52l1.1,1.65ZM199,636l20.48-25.32-11.79-7.59-19,27.37ZM111.67,959.27c6.13-3.73,11.76-7.1,17.32-10.6a3.22,3.22,0,0,0,1.36-2.23c.11-5.72.06-11.45.06-17.86-7.56,4.4-14.36,8.27-21,12.33a3.61,3.61,0,0,0-1.35,3C109,948.81,110.3,953.65,111.67,959.27ZM239.46,645.14c-7.12-4.29-13.65-8.16-20.08-12.18a27.93,27.93,0,0,1-3.89-3.59l4.27-4-1.6-2.4-13,15.87,22.65,14.95Zm-109,309c-5.24,2.94-9.55,5.93-14.3,7.83a6.18,6.18,0,0,0-4.2,6.93c.49,4.91,1.87,9.73,2.92,14.81,5.65-1.85,10.69-3.48,15.58-5.07Zm-24-16.56,1,1.3c5.73-3.48,11.48-6.93,17.18-10.45,6.36-3.92,7.35-6.8,4.82-14.76L103,924c1,3.83,1.84,7.27,2.75,10.89l6.5-2Zm596.36-30c21.78,1.2,38.15-9.26,55.89-19.48C736.35,885.72,721.31,899.78,702.86,907.55ZM224.31,656.43c-4.79-2.6-9.75-4.52-13.78-7.64-7.16-5.52-13.46-5.1-19.76,1-.11.11-.19.25-.92,1.25,6.6,7.43,16.75,8.47,24.2,13.33ZM1028.41,301h60.41c-6-4.28-10.77-10.26-19.17-8.76-7.59,1.35-15.38,1.56-23,2.56-3.41.45-8.08-1.37-9.33,4.25-.11.48-1.63.75-2.54.92C1032.28,300.47,1029.8,300.82,1028.41,301ZM316.28,777.7c0,.44-.11.88-.16,1.32l32.7,17.05-1.59,1.1a91.32,91.32,0,0,1-5-8.6c-3.4-7.54-7.91-13.84-16-17-1.22-.47-1.89-2.4-2.81-3.66l1-.87,6.11,2.93-6.17-9.3-.43,2.85c-1.6.74-2.71,1-2.76,1.32-.46,3.09-1.12,6.24-.93,9.33S319.35,778.23,316.28,777.7Zm614.18,87.4c-.16-.4-.33-.79-.49-1.19a16,16,0,0,0-2.31.31q-16.12,4.47-32.25,9c-2.32.65-4.9,2.06-4.67-2.45-3.4.59-6.53,1-9.58,1.68-8.11,1.87-16.23,3.76-24.25,5.94-1.46.4-2.51,2.26-4.53,4.17,18.5-2.66,35.49-5.09,52.47-7.6.77-.11,1.46-.86,2.16-1.36,1.49-1.08,2.81-2.67,4.46-3.19C917.75,868.45,924.12,866.84,930.46,865.1ZM84.39,394.62c.31-2.29.34-2.76.43-3.21,1.53-7.06-.63-11.25-8.22-13.18-5.8-1.48-11.14-4.77-17.54-7.64,1.12,5.16,1.9,9.3,3,13.36a4.33,4.33,0,0,0,2.48,2.37C69,388,73.45,389.4,78.05,391c.29-1.06.53-1.91.67-2.43ZM781.53,538l-2.59.07c.53,15.35,1.07,30.71,1.62,46.34l45.09-2.76.5-1.54c-1.92-.91-3.83-2.6-5.75-2.61-10.41,0-20.88-.16-31.22.88-5.47.55-6.76-1.84-7.39-6a45.59,45.59,0,0,1-.25-6.62Q781.51,551.87,781.53,538Zm-526.17,194c.16,3.54.09,6.22.46,8.85.25,1.75.63,4.3,1.81,5,7.19,4,14.61,7.59,22,11.32l1.56-1.21c-.59-3.15-.07-7.82-2-9.2C272,741.36,264,737.12,255.36,731.92ZM915.47,576c0-.37-.08-.74-.11-1.1l-89.2,1.47c.74,4.21,2.67,5.1,5.62,4.91Q873.62,578.59,915.47,576ZM95.52,1137.17l1.12.65c1.34-2.4,3.31-4.65,3.9-7.22,2.11-9.22,3.72-18.56,5.58-27.84,1.51-7.52,3.09-15,4.83-23.45-5.68,3.2-9.87,5.57-9.39,12.47.42,5.91-.66,12-1.51,17.92C98.73,1118.88,97.05,1128,95.52,1137.17ZM727.18,890.68c-21.12-.15-35.8,12.7-52.53,20.72,5.85-.3,12-.17,17.1-2.46C703.5,903.65,714.72,897.2,727.18,890.68ZM176.11,623.56l7.46,4.05,21.64-26.07-5.05-3.16Zm938.36,117.81c0,.53.08,1.06.13,1.59l150.52-15.51-.18-1.76Zm-795.29-27.9a69.58,69.58,0,0,1,6.71,3.49c2.71,1.81,4.66,1.22,7.06-.79,4.9-4.11,10.13-7.84,15.4-11.86-2.93-1.5-6.07-3.27-9.36-4.7a3.91,3.91,0,0,0-3.3.55C330.25,704.39,325,708.79,319.18,713.47Zm31.46,54.27c.53-3.83,1.1-7.39,1.46-11a2.75,2.75,0,0,0-1-2.28c-7.61-3.87-15.29-7.61-22.95-11.37C333.48,753.21,339,762.87,350.64,767.74Zm-51-88.78c-3.52-1.4-8-4.7-9.82-3.61-6.72,4-12.56,9.5-19.23,14.83,3.18,1.5,5.22,2.85,7.46,3.38a6.42,6.42,0,0,0,4.83-.82C288.36,688.54,293.57,684,299.66,679Zm33.46,17.09c-4.17-1.51-8.8-4.8-10.82-3.61-6.25,3.64-11.49,9-17.51,14a40.21,40.21,0,0,1,4.23,2.26c3.85,2.82,7,2.08,10.32-1.17C323.3,703.7,327.8,700.43,333.12,696.05Zm977.91,136v1.75q40.2-4.64,80.4-9.38c1-.11,1.76-1.6,2.64-2.44l-.75-1Zm-1203.46,221-1.5-.78c-1.39,1.45-3.9,2.82-4,4.35-.44,6.8-.19,13.65-.19,21.35,4-2.24,9.09-3.38,9.8-5.81,2.23-7.62,2.81-15.73,4.14-24.42-6.77,2.16-4.27,6.68-4.85,10-.63,3.59-1,7.22-1.56,10.83l-1.84-.24Zm937.76-299,1.08,5.39c.95-1.78,1.54-2.88,2.12-4l1.38.24V808l1.94.07c1-11,2-21.89,2.79-32.85.09-1.19-1.14-2.47-1.76-3.71l1,.28c.56-6.05,1.12-12.1,1.74-18.76Zm-32.16,119.16c-11.43-1.41-91.23,8.62-108.73,13.69ZM827.49,908.1c1.71,6.32,3.13,12,4.88,17.64.43,1.39,2,3.49,2.93,3.44a6,6,0,0,0,4.47-2.62c2.26-4.48,2.83-9.31.66-14.09a3.49,3.49,0,0,0-1.81-1.9C835.32,909.7,832,909.07,827.49,908.1Zm493.34-88.7,51.81-13.6C1353.66,803.83,1336.33,808.12,1320.83,819.4Zm-49,30.36a188,188,0,0,1-4,60.08,86.94,86.94,0,0,0-1.18,9.84c-.35,3.24-.64,6.49-1,9.73,5.54-26.45,10.32-53,10.55-80.08a6.59,6.59,0,0,0-1.69-.25C1273.8,849.19,1273.05,849.45,1271.85,849.76ZM62.54,390.55c-2,10.34.63,13.48,10.38,13.59v-6.08c1.45,5.16,1.62,9.8,8.49,9.54-1-3.87-.72-9.1-3-10.76C74,393.71,68.15,392.62,62.54,390.55ZM848,870.72c-4.44.38-8.36.68-12.27,1.06a7.46,7.46,0,0,0-6.49,9.21c.47,1.8,1.27,3.51,1.9,5.21C840.33,885.1,844.93,879.25,848,870.72ZM368.75,892.91q5.12-31.8,10.24-63.62l-1.45-.22C371.48,849.82,366.72,870.77,368.75,892.91Zm946.73-426.1-.17,0c-1.56,21-3.19,42-4.55,63.06-.08,1.23,2,2.6,3,3.9l1.71-.93Zm-1151.81-48c-3.48-1.9-6.33-3.53-9.25-5-3.09-1.6-6.26-3.07-9.68-4.73.14,10.81.62,11.58,8.13,13.63l1-6.55c3.19,10.12,3.69,10.71,10.7,11.75C164.28,424.66,164,421.56,163.67,418.78ZM87.28,454.93l18.43-26.15c-3.3-.57-7.38-1-8.41.54C92.28,436.94,84,443.46,87.28,454.93Zm1167.3,360.31c-7.13,1.89-14.6,0-20.76,4.91l13.71,11.35C1249.69,826.53,1252,821.26,1254.58,815.24ZM250.79,491.13c-3-.75-4.39-.25-4.37,3,.12,21.76.06,43.52.06,65.29h1.33C248.8,536.77,249.79,514.09,250.79,491.13Zm-137.73-19.5.94,1.44c2-1,4.58-1.57,5.73-3.17,6.22-8.65,12.07-17.57,18-26.39l-.58-1.3c-1.5.54-3.63.62-4.42,1.69C126.07,453,119.6,462.36,113.06,471.63ZM1249.5,762.18c-6.69,0-13-.19-19.19.14-1.53.08-3,1.86-5.25,3.39,5.88,2.36,10.44,4.46,15.17,6s6.06.5,7.37-4.41C1248,765.81,1248.67,764.39,1249.5,762.18Zm-192.25,84.2L1032,844.8v11.9ZM122.19,594.55c-4.91,3.71-6.31,8.33-5.55,13.62.1.65,1.89,1.44,2.94,1.51,6.21.45,8.58-4,11.1-8.91ZM1417.85,812.29l-.09-1.39c-9.32-.7-48.89,7.18-54.49,11.49ZM420.7,780.2c-3.61,7.38-3.62,7.39,3.06,11,2.61,1.39,5.25,2.73,8.14,4.22l4.18-6.43ZM91.92,568.08c-2.17,4-4.37,7.61-6,11.43-.71,1.66-.23,3.83-.29,5.76,2-.25,4.85.24,6-.91,2.66-2.67,4.53-6.13,6.69-9.23Zm682.56,11.31-38.54,6.84.2,1.09,39.3-2.68C775.11,582.85,774.84,581.36,774.48,579.39ZM162.7,633.19,176,641l4.65-7.82C167.64,625.11,171.34,625.73,162.7,633.19Zm981.74,203.7-40.79,10.72C1118.54,849.24,1125.12,847.51,1144.44,836.89Zm-43.79,5a79.42,79.42,0,0,0-40,10.33C1075.7,851.69,1087.76,845.27,1100.65,841.89ZM118.07,591.26l-6.44-4.89c-2.63,3-5.21,5.61-7.22,8.55-.83,1.23-.71,3.3-.48,4.91.06.43,2.47,1.18,3.21.75C111.16,598.25,117.3,598.5,118.07,591.26Zm10.24-163.94c1.8-9.72-1.25-13.56-10.93-14.12C117.05,423.47,117.8,424.47,128.31,427.32ZM91.31,402c-.54,11.31.52,12.77,10.33,14.13C102.35,404.9,101.45,403.67,91.31,402Zm96.44,37.33,1.64-.74c-1.56-4.07-2.63-8.45-4.89-12.09-1.1-1.77-4.42-2.15-7.05-3.3C178.4,436.2,178.71,436.67,187.75,439.28ZM398,777.35l16.86,9c1.2-2.87,2.19-5.26,3.2-7.69C402.08,773.51,402.08,773.51,398,777.35Zm1048.54-6c-10.46,2.69-11.6,4.74-8,14.24C1447.29,782.55,1447.88,781.49,1446.49,771.32ZM190.2,428.53c0,12.15.86,13.8,8.5,16C199.2,432.73,198,430.49,190.2,428.53Zm-79.29,614.74c3.27-.19,4.64-1.82,4.53-5.19-.19-5.17,0-10.36,0-15.54l-1.42,0C109.25,1028.74,108,1035.6,110.91,1043.27ZM141,619.1l9.79,6.64,4.36-8.15L146.47,612Zm-6.5-198.66c-1.46,9.43-1,10.07,10.06,13.79C144.52,424.46,143,422.42,134.53,420.44Zm6.57,187.85-8.54-6.16-5.67,6.93,9.69,7.05Zm53.06,31.8-9.94-5.32-5.66,7.53,8.07,4.67Zm-79.59-218.7c.84-9.81-.55-12.06-8.77-13.24.41,4.28.8,8.45,1.16,12.27ZM103,577.57c-3.59,5.45-8.49,8.51-7.71,14.73,5.52-.22,10.13-3.26,10.88-7.85C106.46,582.68,104.45,580.53,103,577.57Zm38.44-160.12c.81-9.53-.17-11.13-8.26-13.74C132.85,414.49,132.85,414.49,141.44,417.45Zm49.48,36.09c-1.28-8.53-2.22-9.5-10.72-11.49C179.82,450.59,181,451.85,190.92,453.54Zm-25.11-34.78c2.21,5.7-.27,13.3,8.58,14.26C175.72,423.75,174.42,421.42,165.81,418.76Zm712,477.2c-.7-.44-.78-.53-.86-.53l-25.79-1c-.32,1.7-.62,3.29-1.06,5.67ZM989.36,752.41l-.21-1.65-60.52,7.72.1.83ZM101.42,1024.24l2,0c.54-12.61-2.93-24.82-5.4-37.12Zm53.14-362.89-1.2-.2c-1,5.76-2.05,11.52-3,17.29-.54,3.31,1.06,5.16,4.19,5.92ZM1554.8,1215.71q1.48-18,3-36C1551.6,1191.3,1554.78,1203.62,1554.8,1215.71ZM52.05,368.47c-1.3,7.74,1.5,15.55,5.61,15.62C58.82,373.63,57.28,369.34,52.05,368.47ZM824.29,806.85l-19.15,5.53C816.35,816.07,825,813.56,824.29,806.85ZM102,1048.33c6.66-2.8,6.66-11.06,0-19.88Zm64.36-605c-.09-8.38-.07-9.95-8.65-11.75C158.11,441,158.18,441.08,166.31,443.3ZM1278.15,715.82l-.06-.74-57,4.53.09,1.12ZM1299,546.44l0-1.31-28.68,2.4C1283.23,550.13,1290.33,549.66,1299,546.44Zm-327.76,216c-.06.32-.11.64-.17,1,5.42.48,10.83,1.11,16.26,1.33,1.19,0,2.43-1.39,3.66-2.14-1.31-.85-2.68-2.52-3.9-2.42C981.75,760.66,976.49,761.65,971.21,762.45Zm342.15-198.81,17.61,3.9.24-.82-17.85-9.15ZM854.45,874.17l18.75-7.26C858.17,867.14,853.57,867.25,854.45,874.17ZM154.25,438.49c-.15-10.24-.22-10.38-6.79-11.94C148,431.44,146.83,437.06,154.25,438.49Zm-63,506.61c3.43-2,2.43-11.82-1.76-17.41C87.59,929.79,88.26,936.38,91.25,945.1Zm273.4-21.17.3,0V889.69l-.3,0Zm-189-476.61c.38-8.11,0-8.7-6-10.28C169.27,444.9,169.69,445.66,175.69,447.32Zm25.63,10.47c-.33-7.29-1.59-8.69-7.91-9.14C193.78,453.49,195.43,457.22,201.32,457.79ZM82.75,398.1c-1,10.13-.15,12,6,12.34C85.73,406.7,88.76,400.59,82.75,398.1ZM1094.4,744.82c0-.35-.09-.7-.13-1.05l-33.35,3.7.18,1.52ZM804.58,877.76l-.22-2.23c-7.36-.37-14.41,2.27-21.54,4.08ZM97.7,964.28c.67-9.63-2-16.61-6.78-16.64Zm544.66-30,1.26.36,4.72-13.55C643.77,921.27,641.16,928.25,642.36,934.29Zm-559.61-32c1.34,7.29,2.69,14.58,4.11,22.22C89.53,922.32,88,914.46,82.75,902.33ZM389.48,1399c9.18,1.13,9.61.76,10.91-8.54Zm864.64-531.58c.92-5.13,2.87-9.33-3.27-12.61C1252.44,859.15,1247.42,863.87,1254.12,867.39Zm-963-106.87,4.9,1c.35-2.41.64-4.36,1-6.58l-5.51-2C291.35,755.6,291.25,757.74,291.12,760.52Zm-130-139.11-2.76,9,1.47.63,7-6ZM820.82,819.19c7.21,3.86,9.55,2.61,10.16-4.42Zm-321.1-28.25c0-.42-.05-.85-.08-1.28l-18.36,1.89c.1.74.21,1.48.31,2.23ZM1328.44,373l-.51,1.47c6.73,3.61,14.92,5.77,17.73,4.33ZM626.28,863.8l-.7,0v20.17l.7.05ZM782.15,489.42l.76,0c.6-3.76.93-7.59,1.89-11.26.87-3.33-.79-3.22-3.37-3.17C781.68,480,781.92,484.69,782.15,489.42Zm-727-102.21,2.7,10.23,1.6-.49C57.91,394,61.11,389.5,55.16,387.21Zm96.13,310.12,1.29-1.16L149.39,691l-4.53,5.29Z"/>
    <path d="M224.89,331.2c37.53-3.09,75.19-3.32,112.89-3.31-4.16.46-8.32,1-12.49,1.35-22.29,1.94-44.58,3.89-66.88,5.71a183.21,183.21,0,0,1-20.79,1c-4.3-.14-8.54-1.8-12.81-2.78C224.84,332.49,224.86,331.85,224.89,331.2Z"/>
    <path d="M58.33,610.14c3.24-45,1.75-90,1.83-135.06q.92,8.85,1.82,17.7c3.37,33.6.69,67.25.79,100.88,0,5.59-1.75,11.18-2.7,16.76Z"/>
    <path d="M75.71,670.77c-5.9,19.4-10.45,38-9.82,57.56l-1.66.21c-.52-1-1.41-2.06-1.48-3.13-1.14-18.69,4-36.16,10.72-53.28C73.6,671.82,74.18,671.68,75.71,670.77Z"/>
    <path d="M591.24,307.77l65.69-5.23.06.83L591.3,308.5Z"/>
    <path d="M170.63,695.49c1.39-8.89,2.75-17.78-.49-26.5C168.63,677.87,166.54,686.75,170.63,695.49Z" style="fill: #fff"/>
    <path d="M1251.94,568.49l28.72,9.62c-.63,1.51-1.23,2.94-1.94,4.62C1269.55,579.16,1258.28,579.81,1251.94,568.49Z"/>
    <path d="M1283.3,570l61.29,15.32c-.12.45-.23.9-.35,1.36-20.46-5-41.27-8.54-61.2-15.56Z"/>
    <path d="M1224.38,573.29l30.95,11.15c-11.58-.19-21.78-4.27-31.45-9.83Z"/>
    <path d="M453.93,703.13,486,714.19C476.17,714.68,464.14,710.66,453.93,703.13Z"/>
    <path d="M998.07,585.52l-25.48,3.3-.24-2.1L998,584.48C998,584.83,998,585.18,998.07,585.52Z"/>
    <path d="M588.18,423.09c-.71,6.11.33,7.53,6.61,7.74,12.32.42,24.65.75,37,.59,14.37-.19,28.72-.93,42-1.4-2.32-1.32-5.2-3.08-8.2-4.6a7.42,7.42,0,0,0-3.19-.27c-13.13,0-26.26.26-39.39,0a203.56,203.56,0,0,1-25.38-2.32c43.42-4,87-4.82,130.6-5.5l-23.51,4.09.09.81c15.18-.69,30.39-1,45.52-2.19,14.76-1.19,29.41-3.67,44.16-5,14.15-1.28,28.38-1.59,42.55-2.73,15.42-1.23,30.79-3.27,46.23-4.31,9.73-.65,19.54-.12,29.3-.12l-.59,1.67c135.46-6,270.75-11.71,405.72-23.57l.18,1.91c-6.7,1-13.37,2.22-20.1,2.86q-54.09,5.1-108.2,9.94-43.69,3.84-87.42,7.21-35.69,2.78-71.41,5.06c-18.46,1.2-36.94,2.94-55.4,2.82-12.32-.09-24.53.15-36.81.91-30.58,1.9-61.21,3.06-91.79,4.93-25.35,1.55-50.67,3.58-76,5.59-45,3.58-90,7.42-135.22,7.84-58.19.54-116.37,2.72-174.56,4.09-16.44.39-33.12-1.23-49.3.94-34.64,4.63-69.4,1.42-104,3.45-19.4,1.14-38.89.58-58.34.69a27.22,27.22,0,0,1-5.33-1l.25-1.66c6.56,0,13.29,1,19.64-.16,32.16-5.81,64.9-4.58,97.23-8.29,11.27-1.3,22.73-1.13,34.11-1.35,22.45-.44,44.93-.26,67.36-1.12,25.56-1,51.09-2.73,76.63-4.3,15-.92,29.93-2.15,44.89-3.22C585.3,423,586.55,423.09,588.18,423.09Z"/>
    <path d="M1284.92,386.48c-3.31.54-6.6,1.42-9.93,1.57-23.85,1.08-47.71,1.82-71.55,3.05-29.36,1.53-58.7,3.44-88,5.18q-46.86,2.76-93.74,5.48a19,19,0,0,1-6.13-.73c13.09-.8,26.19-1.43,39.26-2.45,38-3,75.93-6.47,113.93-9.11,35.15-2.45,70.36-4.11,105.55-6,3.49-.19,7,.54,10.53.85Z"/>
    <path d="M219.36,443.24c-5.44-1.55-5.83-3.92-1.34-9.61C218.53,437.3,218.9,439.94,219.36,443.24Z"/>
    <path d="M224.69,438.67l.45-4.38h-2.68c0-.61-.22-1.57.06-1.75.66-.43,2.09-.88,2.28-.63a23.46,23.46,0,0,1,3.15,5.4c.19.49-1.34,1.62-2.08,2.46Z"/>
    <path d="M490.9,965.05c-4,7.52-3.41,9.29,4,14.11.83.53.68,2.55,1,3.88l-1.34.36-3.9-2.47c-.31,1.69-.55,3-1,5.42-1.65-2.49-3.23-4.16-4-6.16-8.45-21.78-3.73-33.62,12.44-43.82,3.75-2.37,8.42-3.25,12.65-5.77a21.59,21.59,0,0,1-4.26-.07,10.57,10.57,0,0,1-2.86-1.63c.77-.84,1.5-2.35,2.31-2.39,7.07-.41,14.16-.56,21.24-.75,2-.06,4.07.39,6,0,15-3.36,30.06-5.68,45.5-5.08,6.26.24,8.62,2.39,7.18,8.56C584.45,935,582,940.53,579.74,946c-1.48,3.56-3.64,6.83-5.45,10.26-2.55,4.85-12.24,8.9-17.6,9-6.55.06-13.05,2-19.61,2.42-11.31.64-22.66,1-34,.78C499.17,968.37,495.27,966.33,490.9,965.05Zm1.31-6.24a24.34,24.34,0,0,0,2.51.6,179.59,179.59,0,0,0,51.44-1.22c7.91-1.31,14.57-3.61,19.46-10.08a95.63,95.63,0,0,0,6.22-8.35c1.78-3,3-6.29,4.82-10.26-3.61.17-6,.2-8.29.4-20.74,1.78-40.68,7.12-60.48,13.25C499.9,945.62,494.76,950.35,492.21,958.81Z"/>
    <path d="M424.69,1171.05c-1.13-22.91-.86-49.69,5.72-76.27,3.17-12.83,4.22-26.21,10.43-38.15,4-7.75,8.66-15.19,13-22.77l1.26.65c-1,2.25-1.83,4.59-3,6.76-8.72,16.49-12,34.58-15.07,52.63C432.43,1120.81,428.39,1147.82,424.69,1171.05Z"/>
    <path d="M490.7,826.59c2.11-.62,4.22-1.79,6.31-1.76q35.5.61,71,1.64c1.37,0,2.7,1.33,4,2-1.48.59-2.95,1.66-4.43,1.67q-34.59.29-69.16.22c-2.58,0-5.16-1.24-7.73-1.9Z"/>
    <path d="M465.61,967.65c3.54-11.63,9.07-21.88,17.7-30.23a98.59,98.59,0,0,1,11.84-9.23c.85-.6,2.52,0,3.81,0-.23,1.14-.08,2.6-.74,3.37q-15.56,18.09-31.29,36C466.8,967.72,466.37,967.61,465.61,967.65Z"/>
    <path d="M529.25,835.38l23-1.72c0,.68.11,1.36.16,2-7.51,1.88-15.06,3.31-22.88,1.86Z"/>
    <path d="M527.94,977.54l20.65-3.42C542.33,980.33,535,978.47,527.94,977.54Z"/>
    <path d="M449,515.86l6.69-1.84c-3.51-3.92-6.83-7.62-10.14-11.33l-.93,1.35c.4,3.22,1.25,6.47,1.09,9.67-.2,4.11-3.08,5.26-6.66,3-2.56-1.6-5-3.32-7.56-5l1.29-1.64-2.16,4.32c-3.36-3.48-4.66-11.31-2.77-15.5,1.72-3.83,6-5.7,11.73-5.2a20,20,0,0,1,18.34,17.52,4.89,4.89,0,0,0,2.31,3.31c19.77,8.66,40.15,15.11,61.71,17.85,15,1.91,29-.82,42.51-6.75,8.22-3.61,15.88-8.47,23.78-12.79,3.39-1.85,4.83-4.56,4.51-8.59-.21-2.73.63-5.54.86-7.31l-7-1.09c1.24-2.52,1.89-5.7,3.85-7.4,3.42-3,12.82-.78,17.55,3.38,4,3.58,5.11,8.09,2,13.23-1.46,2.41-4.51,5.09-7.05,5.33a10.06,10.06,0,0,0-8.32,5.21c-6,9.72-14.65,15.32-25.69,17.92-3.43.81-6.56,3.05-9.69,4.87-.7.41-1.09,1.81-1.12,2.78a41.34,41.34,0,0,0,.39,5.19c1.28,14.94-7.65,21.53-21.36,15.3-.58,4.18-.94,8,2,11.51,2.2,2.55,1.44,4.21-2.86,5-2.32-10.06-4.64-20.1-7-30.53-17.1,4.51-33.86,1.81-50.45-2.84C463.94,540.69,453.43,531.79,449,515.86Zm8.61,1.73a28.7,28.7,0,0,0,14.55,14.32c12.06,5.7,25,7.51,38.16,8.14,2.21.11,4.45-.18,6.67-.29a3.58,3.58,0,0,0-2.62-1.54C494.24,534.34,474.11,530.61,457.56,517.59Zm81.21,28c1.92,6.53,5.63,10.19,8.91,9.19,3.58-1.09,4.11-4.88,1.63-12.53Zm59.7-49.94,2.21,8.1,5.7-4.77Z"/>
    <path d="M286.79,547.79a27.19,27.19,0,0,0,1.61,2.78c8.92,12.07,17.9,24.1,26.79,36.19a32.21,32.21,0,0,1,3.77,6.53c.33.8-.41,2.4-1.15,3.16-.34.35-2.29-.11-2.77-.75-8.2-11-16.49-21.91-24.27-33.2-2.75-4-4.17-8.91-6.2-13.4Z"/>
    <path d="M298.21,546.74c2.79,2.68,5.78,5.17,8.33,8.07Q320.73,571,334.61,587.4c1,1.18,1,3.21,1.41,4.84-1.64-.51-3.89-.51-4.83-1.62Q318,575.16,305.3,559.32c-2.94-3.65-5.41-7.69-8.09-11.55Z"/>
    <path d="M695.42,484.47c3.43,4.85,6.8,9.75,10.3,14.55q14.64,20.09,29.36,40.11a7.09,7.09,0,0,1,1.64,2.83,12.52,12.52,0,0,1-.65,3.74c-1.05-.49-2.54-.69-3.09-1.52q-19.25-29-38.28-58.13c-.15-.22-.08-.58-.1-.88Z"/>
    <path d="M737.36,530.67c.37-1.56.44-1.71.44-1.86,0-2.37.05-4.74.08-7.1,2,1.63,4.53,2.95,6.06,5a66.7,66.7,0,0,1,6.27,10.52c.75,1.5.53,3.48.76,5.24l-1.76.54c-2.19-3.62-4.37-7.25-6.72-11.17l-2,5.31c-1.52-1.19-3.59-2.07-4.45-3.62-3.58-6.38-6.79-13-10.13-19.48l1.37-.76C730.45,518.8,733.67,524.32,737.36,530.67Z"/>
    <path d="M686.81,488.73l35,50.55C715.7,537.15,688.66,498.08,686.81,488.73Z"/>
    <path d="M758.9,493c.81-4.75-.17-6.9-4.78-7.3-6-.52-6.19-1.47-3.08-6.56.64-1.05.61-2.57,1.36-3.48,1.06-1.28,2.83-3.24,3.81-3a7.06,7.06,0,0,1,4.1,3.7C762.51,481.56,761.54,486.81,758.9,493Z"/>
    <path d="M377,596.71l-59.43,8.41c-.09-.66-.18-1.33-.28-2L377,594.84C377,595.47,377,596.09,377,596.71Z"/>
    <path d="M1001.13,490.81c-1.43,1.65-2.25,3.5-3.48,3.83-2.82.77-6.22,1.81-8.67.88-3.6-1.35-2.69-8.56,1.62-14.33a4.88,4.88,0,0,1,7.91-.35c9.87,12.19,24.34,12.31,37.77,14.84,17.54,3.3,35.17,6.83,53.1,2.63,5.68-1.33,11.26-3.13,16.92-4.55A56.25,56.25,0,0,1,1113,493c-2.73,9-13.35,6.5-16.71,12.94l.88,1.29,26.26-13.86,1.29,1.53c-1.49,2-2.61,4.52-4.53,6a239.71,239.71,0,0,1-19.86,13.69c-2.94,1.78-3.78,3.5-3.63,6.69a47.73,47.73,0,0,1-.57,11.27c-.94,4.86-4,6.58-8.31,4-3.62-2.16-6.62-5.61-9.33-9-1.45-1.79-2.32-2.92-4.84-2.37-18.86,4.05-35.53-1.7-51.16-11.76A62.44,62.44,0,0,1,1001.13,490.81Zm72.78,16.91-56.6-8.82c13.79,13.9,43.47,23.35,57.66,16.05C1074.58,512.31,1074.18,509.55,1073.91,507.72Zm7.27-1.55c.58,2.5,1.06,4.56,1.53,6.6,6.37-1.2,6.77-1.79,5.21-7.59Zm3.51,15.85c1.68,2.21,2.89,3.8,4.09,5.4l1-.47c-.14-2.07-.29-4.14-.46-6.63Z"/>
    <path d="M1139.86,473.6a12.91,12.91,0,0,0-1.54-.49c-2.47,0-6.19,2-6.72-1.7-.27-1.92,2.46-4.85,4.54-6.37,3.77-2.77,10.34-2,13.12,1.17,3.19,3.61,1.56,7.29-.19,11a64.69,64.69,0,0,1-16.61,22.15,56.67,56.67,0,0,1-6,3.95l-1.25-1.29,13.24-16.8c-1.35-.9-3.06-1.47-3.74-2.63a13.41,13.41,0,0,1-1.59-5.71c0-.38,2.48-.87,3.77-1.44A29.25,29.25,0,0,0,1139.86,473.6Z"/>
    <path d="M822.33,537.75c1.5,2.07,2.92,4.21,4.53,6.19,5.58,6.82,11.28,13.53,16.79,20.4.91,1.13,1.08,2.85,1.59,4.3-1.33-.62-3.12-.89-3.92-1.92q-8.19-10.68-16-21.63a72.6,72.6,0,0,1-3.88-6.76Z"/>
    <path d="M1565,841c-1.18-5.72-2.17-11-3.38-16.19-1-4.43-3.85-6.56-8.56-6.5-17.4.22-34.8.4-52.2.38-5.28,0-10.56-.73-15.85-1.12-.14-.62-.28-1.24-.43-1.85,1.42-.75,2.77-2,4.26-2.16,14.53-2,29.06-4.08,43.65-5.52,7.52-.74,15.17-.22,22.76-.22,1.42,0,3.12-.22,4.19.45,6.1,3.81,13.06,4.51,20,5.67.56-1.37,1.24-3,2.46-6,4.15,13.9,4.2,26.32-.66,38.6-.27-.55-.6-1.19-1.21-2.4-2.52,4-4.45,8-7.21,11.22-2.25,2.66-5.17,5.48-8.34,6.5-10.35,3.32-20.93,5.93-31.47,8.61a24.78,24.78,0,0,1-8.22.66c-1.16-.1-2.68-1.77-3.06-3-.25-.83,1.29-2.15,1.89-3.32,1-1.95,1.91-3.95,2.86-5.93-1.66-.48-3.31-1-5-1.43a79.69,79.69,0,0,1-13.61-4.74C1528.33,855.41,1546.35,847.9,1565,841Z"/>
    <path d="M1484.58,713.87l95.44-9c0,.54.1,1.07.14,1.6-31.59,5.44-63.35,9-95.47,8.61C1484.65,714.69,1484.62,714.28,1484.58,713.87Z"/>
    <path d="M1485.78,830.08,1496.3,846l-13.37-.85a27.14,27.14,0,0,1-5.5-20.39,6.31,6.31,0,0,1,3.4-4.27c1.11-.39,3.23,1.16,4.49,2.3a72.14,72.14,0,0,1,5.4,6.08H1487Z"/>
    <path d="M1497.8,797.24c5.52-3.69,58.55-5.79,63.41-2.46C1540.13,796.57,1519.14,800.33,1497.8,797.24Z"/>
    <path d="M1020.08,768.36V753l1.43,0q-.56,7.75-1.12,15.5Z"/>
    <path d="M1401,756.39c-10.6,10.1-20.38,21.15-33.73,28.77C1368.35,778.66,1391.49,759,1401,756.39Z"/>
    <path d="M1394.19,776l-13.31,15-1.11-1.11,15-13.28Z"/>
    <path d="M114.26,813.72c1.64-2,3-4.44,5-6C135,795.44,153,787.59,171.94,781.6c.83-.26,1.94.37,2.91.59-.84,1.1-1.45,2.65-2.57,3.22-12.2,6.29-24.52,12.34-36.72,18.63-5.19,2.66-10.16,5.75-15.26,8.58-1.58.88-3.26,1.58-4.9,2.36Z"/>
    <path d="M157.65,487.25l-5.17-1.82,14.62-13.74,1.19,1.13Z"/>
    <path d="M399,792c2.29,15.23-3.95,29.08-8,43.31L397,791.66Z"/>
    <path d="M218.18,527.3c-3,18.39-15.34,31.1-26.93,44.25C199.11,556.12,207.59,541.07,218.18,527.3Z"/>
    <path d="M170.63,695.49c-4.09-8.74-2-17.62-.49-26.5C173.38,677.71,172,686.6,170.63,695.49Z"/>
  </g>
</svg>
