<?xml version="1.0" encoding="utf-8"?>
<svg version="1.1" id="Layer_1" xmlns="http://www.w3.org/2000/svg" xmlns:xlink="http://www.w3.org/1999/xlink" x="0px" y="0px"
	  width="600mm" height="600mm" viewBox="0 0 1700.79 1700.79" style="enable-background:new 0 0 1700.8 1700.8;" xml:space="preserve">
<style type="text/css">
	.st0{display:none;}
	.st1{display:inline;}
	.st2{display:inline;fill:#FFFFFF;}
</style>
<g id="Layer_2">
	<g id="Layer_1-2">
		<g>
			<path d="M1372,1156.1c-1.1-1.6-2.2-3.1-3.4-4.6c-34-37.6-67.1-76.1-103.4-111.7c-26.2-25.7-52.6-51.2-78.7-76.9
				c-8.1-8-15.8-16.4-23.7-24.7c-0.6-0.6-1.2-1.3-1.8-1.9c-3.7-4.6-8.2-6.7-14.2-5.6c-1.8,0.4-3.8-0.1-5.7-0.2
				c-3.4-0.2-7-1.4-9.5,2.4c-0.5,0.7-2.3,0.7-3.5,0.8c-2.3,0.1-4.6,0.1-6.8,0.1h-198h-6.4c-0.3,1.4-0.2,2.5-0.7,3.4s-1.3,1.9-2,1.9
				c-0.6,0-1.5-1.1-1.9-1.9c-0.4-0.8-0.4-2-0.6-3.1c-1.6-0.1-3-0.2-4.4-0.2c-42.8,0-85.7,0-128.5,0c-2.2,0-4.7-0.5-5.6,1.6
				c-2.8-0.6-5.2-1.5-7.6-1.5c-21.8-0.1-43.5,0-65.3-0.1c-19-0.1-37.9-0.4-56.9-0.6c-4,0-8,0-12,0c-1,0-2.1,0.3-3,0.8
				c-2,1.2-3.6,0.6-5.7-0.2c-4.2-1.5-8.8-1.3-12.8,0.6c-2.3,1.1-4.5,2.1-6.5-0.6c-0.5-0.7-2.2-0.7-3.4-0.7
				c-14.7-0.1-29.5-0.1-44.2-0.1c-1.7,0-3.5,0.2-5.2,0.6c-2.5,0.4-5.1,0.3-7.6-0.3c-4.7-0.9-9.8-0.6-14.7-0.3
				c-1.1,0.1-2.4,1.8-3.2,3c-6.3,8.4-12,17.4-18.9,25.3c-13.1,14.9-26.9,29.1-40.4,43.7c-2.8,3.1-5.6,6.2-8.4,9.3l0.8,0.9l6-5
				l0.6,0.3c-0.5,0.9-1,1.8-1.6,2.6c-38.6,44.3-76.9,89-116.1,132.9c-27.7,31-55.8,61.7-86.6,89.8c-3.8,3.5-7,7.7-11.3,12.4l4-0.3
				c-0.1,0.5-0.3,1-0.5,1.4c-7.2,8.4-14.5,16.7-21.7,25.1c-3.5,4.1-7.1,8.3-10.3,12.6c-2.4,3.3-4.2,7.1-6.7,11.4l-4.9,0.6
				c-0.2,0.7-0.4,1.5-0.6,2.3c-0.2,1.7-0.8,3.2-2.8,3.2c-1.9,0-2.7-1.4-2.8-3.2c-0.1-0.7-0.2-1.4-0.3-2.6l-4.8,3.7
				c0.1-0.6,0.2-1.2,0.4-1.8c0.3-0.6,0.6-1.2,1.1-2.2c-3-0.6-5.7-1.1-8.3,0.3c-2.1,1.1-4.1,0.7-5.8-1c-2.7-2.9-6.3-3.8-10-4.2
				c-8.2-0.8-16.4-1.5-24.7-1.9c-17.3-1.1-34.6-3.3-51.6-6.6c0.4-1.2,1.2-2.5,1-3.5c-0.3-1.2-1.2-2.1-2.3-2.6
				c-3.3-1.2-6.6-2.6-10-3.1c-15.3-2.1-30.6-4-45.9-5.8c-2-0.2-3.2-0.9-4.2-2.6c-1.2-2.3-2.6-4.6-3.8-6.8c3.3-2.8,5.4-5.7,5.4-10.4
				c-0.1-27.2,0.1-54.4,0.2-81.6c0-4.9,0-9.8,0-14.7h-1c0,8.5,0,17,0,25.5c0.1,20.4,0.3,40.7,0.4,61.1c0,2.4-0.7,4.8-1.4,7.1
				c-0.2,0.7-1.6,1.5-2.4,1.4c-1-0.2-1.8-0.9-2.2-1.9c-0.4-1.7-0.6-3.4-0.5-5.2c0-22.1,0-44.2,0-66.4c0-2.8,0.3-5.5-1.5-8.1
				c-0.7-1-0.6-2.7-0.7-4.1c-0.1-4-0.2-8.1-0.2-12.1c0-46.3,0-92.7,0-139c0-7.8-0.5-15.6-0.1-23.4c0.3-7.8,0.1-15.5-0.7-23.3
				c-0.6,5.2-1.2,10.4-1.7,15.6c-1.9,21.5-4.3,43-5.3,64.5c-0.7,14.1-1.7,28.4,1.5,42.5c0.4,1.8,1.2,4.3-1.4,4.8
				c-1.1,0.2-3-1.6-3.8-2.9c-0.8-1.5-1.1-3.3-1-5c0.9-9.6,2-19.2,2.8-28.8c0.6-7.1,1.2-14.3,1.3-21.5c0.2-11.4,0.1-22.8-0.1-34.2
				c-0.3-13.6-1.1-27.3-1.5-40.9c-0.1-4.5,0.5-9.1,0.8-13.7c1.9-27.8,3.9-55.6,5.8-83.4c2.2-32.4,2.8-64.9,2.5-97.4
				c-0.2-20.7,0-41.4,0-62.2v-6.4l-3,1c-0.3-2.8-0.9-5.5-0.8-8.1c0.5-9.6,1.3-19.3,1.9-28.9c0.7-10,1.8-19.9,1.9-29.9
				c0.4-37.4,0.5-74.8,0.7-112.2c0.1-12.1,0.2-24.2,0.2-36.3c0-2.3,0.9-4.8-1.7-6.7c-0.5-0.4-0.3-2.5,0.2-3.3
				c2.6-4.1,1.9-8.2,0.1-12.7c5.6-1.8,3.7-6.4,4-10.3l-5.4-3.6c3-1,5-1.9,7.1-2.2c23-3,45.9-6.1,68.9-8.8c16.4-1.9,32.8-3.3,49.2-5
				c2.9-0.3,5.9-1.3,8.8-1.4c2.6-0.1,5.3,0.9,7.9,0.9c9.5,0,18.9-1.5,28.1-3.7c0.7-0.2,1.6-0.2,2-0.6c2.5-2.7,5.8-2.5,9.3-2.4
				l0.6-4.8c0.7,0.3,1.3,0.4,1.6,0.8c4.6,6.8,11.9,8.2,19.3,9.1c12.5,1.5,25.1,2.8,37.6,4.3c18.6,2.2,37.3,4.6,55.9,6.7
				c3.4,0.4,6.8,0.1,10.2,0.1c0.5-1.1,1-1.8,1.6-2.9c1.8,4.2,1.8,4.2,6.1,4.7c27.6,2.9,55.1,5.9,82.7,8.6
				c15.9,1.6,31.8,2.7,47.7,4.1c3.1,0.3,6.1,0.9,9.2,1.4l0,1.1c-0.8,0.3-1.7,0.8-2.5,0.7c-5.6-0.3-11.2-0.7-16.8-1.2
				c-14.7-1.3-29.3-2.9-44.1-3.7c-7.2-0.4-14.5,0.5-22.8,0.8c2.2,2.5,4.3,2.8,6.2,3c10.6,1.4,21.2,2.8,31.8,3.9
				c12.6,1.3,25.1,2.5,37.7,3.5c2.9,0.3,5.9,0,9.1,0c-0.3-1.3-0.4-1.9-0.6-2.7c0.4-0.2,0.8-0.2,1.3-0.3c3.3,0.5,6.5,1,9.8-0.4
				c1.8-0.7,3.4-0.1,5.2,1.2c2.4,1.7,5.2,2.7,8.2,3c7.1,0.7,14.3,0.7,21.5,1.1c9.1,0.5,18.2,1.1,27.3,1.6c22.8,1.2,45.6,1.2,68.4,0
				c11.7-0.6,23.5-0.8,35.3-1.2c13.2-0.5,26.3-1.2,39.4-1.6c11.8-0.3,23.5-0.5,35.3-0.5c48.5-0.1,96.9-0.2,145.4-0.3h4
				c0.1-0.4,0.2-0.6,0.2-0.6c-0.1-0.1-0.2-0.2-0.4-0.3c-0.3-0.2-0.5-0.4-0.7-0.6c0.3-0.2,0.6-0.5,0.9-0.5c2.1-0.1,4.2-0.2,6.3-0.2
				c34.2-0.1,68.5,0,102.7-0.2c14.6-0.1,29.1-0.7,43.7-0.4c3.3,0.1,5.6-4.1,9.7-1.1c2.2,1.6,6.4,0.7,9.7,0.8
				c4.6,0.1,9.1,0.1,13.7,0.3c2.2,0.1,4.5,0.5,6.6,0.7c0,0.5,0.1,0.7,0.1,0.8c-0.1,0.1-0.3,0.2-0.4,0.3c-0.2,0.2-0.5,0.3-0.7,0.5
				c0.3,0.1,0.6,0.4,0.9,0.4c21.1,0.2,42.1,0.3,63.2,0.5c5.8,0.1,11.6,0.4,17.4,0.5c4,0.1,5-0.4,6.2-4.1c0.8-2.4,1.9-3.1,4.4-3.4
				c2.6-0.4,4.9-2.2,7.7-3.5c-1.1,3.5-6.7,3.9-5.6,8.9c8-1.8,15.8-3.7,23.7-5.4c8.5-2,17-4.2,25.7-5.8c10-1.8,20.1-2.9,30.2-4.3
				c29-4,58-8.1,86.4-15.7c18.1-4.8,36.4-8.9,54.7-13.2c1.7-0.4,3.6-0.8,5.2-0.4c9.4,2.3,18.6,0.5,27.6-1.8
				c9.7-2.4,19.1-5.8,28.6-8.7c10.3-3.2,20.7-6.4,31.3-9.7l2.7-18.1c3.1,4.5,2.3,9.7,4.3,14.6c8.5,0.2,17.1,0.6,25.7,0.6
				c10.4,0,20.7,0,31.1-0.4c16.2-0.6,32.2,1.3,48.2,3.7c18.9,2.8,37.9,5.2,57,5.9c4.3,0.2,8.7,0.8,13.2,1.3
				c2.4-4.3,1.1-9.4,4.4-13.4c0.6,3.7,1.3,7.4,1.7,11.2c0.3,2.4,0.6,4.4,3.1,5.6s2.4,3.2,1.7,5.5l-3.9-0.9c-0.1,1.7-0.2,3.2-0.2,4.7
				c0.3,45.3,0.6,90.6,1.2,135.9c0.1,7.8-0.4,15.6-0.1,23.4c0.3,7.9,0.1,15.8,0.2,23.7c0,7.9,0.1,15.8,0.1,23.7
				c0,7.9,0.1,15.8,0,23.7c0,3.1,0,5.9,3.8,7.6c-5.1,4.3-3.7,9.7-3.7,14.8c-0.2,32.8-0.2,65.7-0.4,98.5c0,6-0.4,11.9-0.4,17.9
				c0,3,0.4,5.9,0.5,8.9c0.2,3.9,0.5,7.7,0.6,11.6c0.4,12.8,0.8,25.6,1.2,38.7c-0.9,0.6-2,1.3-3.7,2.5v-32l-1.3-0.2
				c-0.5,2.4-1.2,4.7-1.3,7.1c-0.2,4.9-0.3,9.8-0.1,14.7c0.1,3.1,1.2,6.2,1.1,9.3c-0.5,24-0.9,48.1-2,72.1
				c-1.1,22.5-0.8,44.9-0.1,67.4c0.3-7.8,0.6-15.6,0.9-23.4h0.3V979l1,0c0.5-7.1,1.3-14.3,1.4-21.4c0.4-30,0.5-60,0.8-90.1
				c0-2.3,0-4.5,0-6.8h1.1c0,1.7,0,3.4,0,5.1c0.5,29,1,57.9,1.5,86.9c0.1,4.2,0.4,8.4,0.6,12.6c0.9,22.5-2.1,44.9-3.2,67.3
				c-0.7,16.3-0.8,32.7-0.9,49c0,4,0.8,8,1.3,12c0.2,1.6,0.6,3.1-1.6,3.8c-0.5,0.2-1,1.5-0.9,2.2c0.5,3.5-1.7,7.6,2.1,10.5
				c0.6,0.5,0.5,2,0.5,3c0.2,5.3,0.5,10.5,0.5,15.8c-0.1,20.5-0.5,41.1-0.5,61.6c0,22.1,0.4,44.2,0.7,66.4c0.1,0.6,0.1,1.1,0.3,1.7
				c4.2,2.5,10.5-1.7,14.7,4.5l-14.7,2c-0.2,1.6-0.3,3.2-0.6,5.2l-6.9,0.9c0.3-5.3,0.6-9.9,0.9-15.5c-4.4,3.8-3.4,8.5-5.2,13.1
				c-1.5-0.1-3.6,0.3-5-0.5c-2.7-1.6-5.3-1.4-8.1-0.9c-17.3,3.2-34.5,6.5-51.8,9.3c-20.6,3.3-41.3,6.1-62,9c-4,0.5-8.1,0.2-12.1,0.4
				c-4.1,0.2-8,0.7-12,0.9c-3.1,0.1-6.1,0-9.8,0c-0.6,4.6,5.1,6.5,5.7,11.4c-1.3-0.7-2.3-1.1-3.1-1.8c-1.9-1.8-3.5-3.9-5.6-5.6
				c-1.8-1.5-4.1-2.5-6.1-3.7c-1.2-0.7-3.1-1.1-3.5-2c-1.9-4.7-6.5-6.2-10.4-8.8c2.9,4.2,5.9,8.3,8.8,12.5l-0.9,0.7
				c-1.3-1.3-2.5-2.6-3.7-4c-11.9-15.9-25.8-30.1-38.5-45.4c-11.6-13.9-22.6-28.2-34.2-42c-5.6-6.7-11.9-12.9-17.9-19.3
				c-17.4-18.8-34.7-37.7-52-56.6c-1.6-1.7-3-3.6-4.4-5.5l0.9-0.8c1.6,1.5,3.4,2.8,4.9,4.4c10.4,10.9,20.8,21.9,31.2,32.9
				c1.2,1.3,2.6,2.3,3.8,3.5l4.3,5l0.8-0.7L1372,1156.1z M903.7,478.1c2.6-0.3,4.2-1.8,5.4-4.2c-0.6,0-1.3,0.1-1.9,0.2
				c-0.3,0.1-0.6,0.2-0.9,0.4l5.3-6.3H768.4c0.1,0.3,0,0.7,0.2,0.9c5.8,5.6,11.5,11.2,17.4,16.7c0.9,0.8,2.5,1.1,3.8,1.2
				c6.3,0.4,12.6,0.5,18.8,1.2c9.6,1,19.1,3,28.7,3.6c14.6,0.8,29.2-0.5,43.3-4c1.6-0.4,3.3-1.1,4.7,0.5c-0.5,2.8-2.9,2.7-4.6,3.1
				c-12.1,3.2-24.6,4.2-37.1,2.9c-14-1.3-27.8-3.6-41.8-5.2c-4.1-0.5-8.3-0.1-12.5-0.1c-2.2,4.6-0.6,8.9,0.8,13.7l14.7-9.8l0.6,1
				c-5.2,3.6-10.3,7.3-15.6,10.7c-2.3,1.5-3.3,3.3-3.2,6.1c0.1,5.3-0.1,10.5,0.1,15.8c0.2,4.9,0.8,5.4,5.7,5.4
				c29.6-0.1,59.3-0.3,88.9-0.4c4.3,0,8.6-0.4,12.8-0.7v-9.5l-2.7,0.3c1.1-1.8,2.7-3.3,2.8-4.9c0.3-7.1,0.1-14.3,0.1-21.5l-2.6-0.5
				l10.3-8.7l-0.4-0.5l-10.8,2.9l-0.5-1.1c1.7-1.1,3.4-2.1,5.1-3.2c2.6-1.8,5.1-3.6,7.6-5.5C903.3,478.4,903.5,478.2,903.7,478.1z
				 M792.5,621c-0.1,0.8-0.1,1.7-0.2,3.4l3.7-4.3l-3.6,1.1c-2.3-3.3,2.6-2.4,2.6-4.8l-4.3-0.4c-0.5,1.6-0.8,2.9-1.3,4.6
				C790.6,620.7,791.6,620.9,792.5,621z M336.8,599.8L336.8,599.8c0.2,1.9,0.5,3.8,0.5,5.7c0.1,6.7,0.1,13.3,0.2,20
				c0.1,1.1,0.2,2.2,0.4,3.3c0-9.2,0-18-0.1-26.7C337.9,601.4,337.2,600.6,336.8,599.8z M1456,611.8c-0.9-4.1-0.9-4.1-5.3-3.8
				l5.4,3.7c3.9,7.4,9.8,13.2,15.3,19.5c-0.5-1.8-1.3-3.4-2.3-5c-1.8-3-5-5.8-5.3-8.9c-0.3-3.9-2.1-4.2-4.9-4.5
				C1457.9,612.7,1457,612.1,1456,611.8L1456,611.8z M95.9,1273.6h-5.5c0,0.3,0.1,0.6,0.1,0.9L95.9,1273.6c0.6,0.5,1.1,1.4,1.8,1.5
				c12.2,1.9,24.5,3.8,36.8,5.6c3.8,0.5,7.7,0.8,11.5,1.1c-13.4-2.7-26.9-4.6-40.4-6.5C102.4,1274.8,99.2,1274.1,95.9,1273.6z
				 M1206.1,583.9l-3.7-3.4C1202.6,583.3,1203.8,584.3,1206.1,583.9c-0.2,4.1-1.2,8.4-0.4,12.4c1,5.5,1.4,11.1,1.4,16.7
				c0,14.5,0,29.1,0,43.6c0,1.2-0.2,2.5,0.1,3.7c0.2,0.8,0.9,1.5,1.4,2.2l1.1-0.2c0.6-7.1,0.1-14.2,0.1-21.2s0-14-0.1-21
				c0-7.2,0.1-14.4-0.2-21.5c-0.3-6.9,1.3-13.9-1.2-20.9C1207.5,579.6,1206.9,581.8,1206.1,583.9z M1375.1,589.4
				c-1.1,17.5-2.5,35.1,0.6,53.4c0.2-2.6,0.3-4.5,0.4-6.3c0.2-8,0.3-16.1,0.5-24.1c0.2-5.5,0.1-10.9,1.3-16.3c0.6-2.6-0.2-5.2-3-6.5
				l2.7-1.9c-0.6-5.1-1.6-9.9-1.6-14.7c-0.1-36.6,0-73.2,0-109.9c0-1.7-0.1-3.4-0.2-5.2h-1.3c-0.4,3.2-1.2,6.4-1.2,9.6
				c0,14.5,0.1,29.1,0.2,43.6c0.1,24.5,0.2,49.1,0.4,73.6C1373.9,586.3,1372.9,588.4,1375.1,589.4z M774,480.2L774,480.2
				c-2-2.3-4-4.6-6.7-7.6v59c6.3,1.8,12.3,0,18.3,0.3c-0.2-2.4-0.4-4.3-0.6-6.2c-0.9-12.2-0.2-24.6-5.6-36c-0.3-0.5-0.4-1-0.4-1.5
				C779.2,484.3,776.8,482.1,774,480.2z M893.8,560.6L893.8,560.6c0.2,9.1,0.4,18.2,0.5,27.3c0,1-0.3,2.1-0.6,3
				c-2.6,7.2-2.1,8.6,4.7,11.6c3.6,1.6,7.2,3.5,10.8,5.2c0.8,0.4,1.7,0.8,3,1.4v-65.3c-6.5,3.5-11.1,9.5-18.7,10.1
				C893.6,556.4,893.7,558.5,893.8,560.6z M770.5,691.3c1.9-0.2,3.7-0.3,5.6-0.5c19.2-1.6,38.5-2.1,57.8-1.7
				c10.9,0.2,21.7,0.2,32.6,0.3c10.3,0,20.7,0,31-0.1c0.4,0,0.8-0.4,1.5-0.8l-15.7-13l0.5-0.8l6.7,1.2c0-2,0-3.5,0-5.1
				c0-3.9,0-7.7-0.1-11.6c0-2,0.6-3.3,3.1-3.3v22.6c5,3.5,9.2,8.2,15.7,9c1-1.7,1.9-3.2,2.9-4.7c-2.6-1.1-2.4-3.3-2.4-5.4
				c0.1-8.1,0.1-16.1,0.3-24.2c0.1-5.1,0.3-10.1,0.5-15.2h0.8c0.2,4.7,0.5,9.5,0.7,14.2h0.2V613c-3.3,0-6.2-0.1-9.2,0
				c-0.9,0-1.7,0.3-2.4,0.8c-3,2.3-6,4.7-9,7.1c0.7,6.2,1.4,12.4,2,18.6l-1.4,0.2c-1.3-6.7-2.5-13.4-3.8-20.2c0-0.1,0.1-0.3,0.2-0.5
				l3.6-2.7l-5.9,0.6l4.9-4h-4.7c-19.6,0.1-39.3,0.4-58.9,0.2c-7.4-0.1-13.2,2.9-18.7,7.1c-4.8,3.6-9.3,7.5-14.4,10.7
				c-4.1,2.6-5.5,6-5.3,10.4c0.2,3.4,0.9,6.8,0.7,10.2c-0.4,7.1-1.5,14.2-1.8,21.3c-0.1,3-1.2,4.6-3.5,6.4c-4.2,3.2-7.8,7-11.7,10.5
				C772.2,690.3,771.4,690.8,770.5,691.3c0,1.7-0.1,3.5,0,5.2c0.3,8.1,0.6,16.1,0.8,24.2c0,1.4,0,2.8,0.1,4.2c0.4,3,2.1,4.6,5.2,4.7
				c4.2,0.1,8.4,0.1,12.6,0.3c26.5,0.9,52.9,2,79.4,2.8c12.8,0.4,25.6,0.3,38.4,0.3c0.8-0.1,1.5-0.2,2.3-0.5v-39.8
				c-3.6,0.2-6.7,0.6-9.8,0.5c-20.4-0.1-40.7-0.2-61.1-0.4c-9.7-0.1-19.3-0.4-29-0.4c-10.7,0-21.4,0.4-32.1,0.5
				C775,693,772.4,693.5,770.5,691.3z M445.9,859.1c22-18.6,47.4-32.1,72-47c-2-0.1-3.9,0.2-5.5,1.1c-15.7,8.6-31.2,17.6-47,26
				c-13,6.9-26,13.9-38.3,22.1c-24.8,16.3-50.9,30.4-77.7,43.1c-1.3,0.6-2.6,1-4,1.4c2.8-2.7,5.9-4.6,9.1-6.4
				c13.7-7.5,27.5-14.7,41.1-22.5c10.2-5.8,20.1-12.2,30.1-18.4c1-0.6,1.7-1.7,2.6-2.5c-0.2-0.4-0.4-0.8-0.5-1.2
				c-3.8,0-7.7-0.1-11.5,0c-9,0.2-17.9,0.8-26.8,0.5c-13.3-0.5-26.6-1.8-39.9-2.7c-1.9-0.1-3.7,0-6.1,0v6c0,13.3,0,26.7,0,40
				c0,1.2,0.2,2.5-0.1,3.7c-0.3,0.9-1.2,1.6-1.9,2.4l-1.1-0.4v-5.6c0-16.7,0-33.4,0-50c0-3.1,0.5-6.2-1.9-8.9
				c-0.8-0.9-0.4-3-0.3-4.6c0.4-4.4,1.4-8.7,1.4-13.1c0.1-18.2-0.2-36.5-0.2-54.7c0-14.6,0.1-29.1,0.2-43.7c0-2.8,0.2-5.5,0.4-8.2
				c-2.2-0.7-3.6-0.3-3.7,1.8c-0.1,1.6,0,3.2,0,4.7c0.2,53,0.4,106,0.6,159c0,8.4,0.5,16.8,1,25.2c0.5,7.9,0.6,7.4-6.5,9.7
				c-6.4,2.1-12.6,5-18.4,8.5c-28.2,17.2-58.5,30.5-88.8,43.5c-0.9,0.3-1.9,0.6-2.8,0.8c30.8-20,65.7-32.1,96.5-52.3
				c-1.7-1.2-10.8-4.2-12.5-4.4c-8.9-0.9-17.8-1.4-26.6-2.9c-16.2-2.8-32.4-6.2-48.6-9.3c-4.4-0.8-8.9-1.4-14.1-2.1
				c0,28.4,0,56.2,0,84.7c4.7-2.7,8.4-5,12.3-6.9c11.5-5.6,23.4-10.5,34.7-16.5c22.8-12.1,45.3-24.7,67.8-37.2
				c1.6-0.9,2.8-2.8,4.5-3.3c5.4-1.7,10.3-3.8,12.7-10.1c2.6,2.7,5,1.9,7.6,0.5c10.2-5.4,20.5-10.5,30.6-16.1
				c9.7-5.3,19.1-11.1,28.8-16.4c8-4.4,16.1-8.6,24.1-12.9c1.2,1.5,0.1,4.6,3.4,4.7c0.3,0,0.9,1.5,0.9,2.3
				c-0.2,7.9-0.4,15.8-0.8,23.6c-0.3,6.5-1.1,12.9-1.2,19.3c-0.1,4.9,0.4,9.8,0.5,14.7c0.4,26.1,0.7,52.3,1.1,78.4
				c0.1,5,0.4,9.9,0.7,15.2c5-2.7,5.5-6.8,5.5-11.1c0-27.4,0.1-54.7,0.1-82.1c0-16.1-0.4-32.3-0.6-48.4c-0.1-4.7-0.1-9.5-0.3-14.2
				c-0.1-2.4,0.9-3.9,3.6-4.5c0.3,6.2,0.7,12.3,0.9,18.4c0.3,6.1-0.1,12.4,0.4,19.2c23.6-17.3,45-35.9,68.7-51.9
				c1.4,3.1-0.8,4-2.1,5.2c-20,17.8-41.2,33.8-63.4,48.7c-2.4,1.6-3.7,3.3-3.6,6.3c0.1,2.7-0.8,5.5-0.9,8.2
				c-0.4,7.5-0.6,15-0.8,22.6c0,0.5,0,1.2,0.3,1.5c2.2,2.1,1.4,4.9,1.6,7.4c0.1,1.3,0.2,2.6,0.4,4.7c2.2-1.6,3.8-2.6,5.3-3.7
				c21.3-15,40.2-32.9,60-49.7c2-1.7,2.3-3.8,2.4-6.1c0.2-6.6,0.4-13.3,0.7-19.9l0.5-0.1c0.3,2.4,0.6,4.9,0.8,7.3
				c0.7-0.5,1.1-1.3,1-2.1c-0.6-20.7-1.1-41.4-1.7-62c-0.1-1-0.3-2-0.5-3l-32.3,19.7c3.1,1.3,5.6,2.5,4.6,5.9
				c-0.7,2.3-2.2,4.1-4.7,4.5c-1.6,0.3-2.6-0.7-2.3-2.9c1.7,0.1,3.8,0.8,4.6-1.6c0.5-1.4,0.1-3-1.3-2.7c-2.6,0.5-5.2-0.6-8,1.3
				c-10.4,7.1-21.2,13.7-31.9,20.4C449.2,858.1,447.5,858.5,445.9,859.1z M454,684.2l-0.1-0.1c-2.1,2.2-2.9,4.8-2.5,8l10.4-8.8
				l0.7,0.8c-2.1,2.3-4.2,4.5-6.2,6.8s-4.7,4.5-4.1,8.8c3.8-3.2,7.1-6,10.5-8.7c3.3-2.8,6.8-5.6,10.2-8.3c3.5-2.9,7-5.8,10.7-8.5
				c3.3-2.5,6.1-5.8,10.6-6.8c-0.7,1.3-1.9,2.1-3,3c-12.7,10.5-25.3,21.2-38.1,31.5c-2.9,2.3-3.8,4.4-3.5,7.9
				c1.1,13.1,2.2,26.2,2.5,39.4c0.3,16.3-0.2,32.7-0.3,49c0,1.3,0.1,2.6,0.2,3.9c2.1-0.5,3.9-1.5,5.3-1.1c1.4,0.4,2.3,2.2,3.5,3.5
				c14.2-0.8,28.2,1.8,42.3,3.4c6.1,0.7,11.3,0.1,16.3-3.6c2.4-1.8,3.5-3.5,3-6.5c-0.3-2.3-0.4-4.6-0.3-6.8
				c-0.1-18.6-0.3-37.2-0.2-55.8c0.1-13.3-0.4-26.6,0.3-39.9c0.9-15.4-0.2-30.9-0.5-46.3c-0.1-3.6-2-4.8-5.6-3.6
				c-2.3,0.8-4.6,1.7-6.8,2.8c-4.3,2-8.3,4.9-12.7,6c-17.1,4.3-30.3,10.4-43,20.9c-2.1,1.7-2.4,7.1-0.5,9.3
				C453.1,684.5,453.7,684.3,454,684.2L454,684.2z M400.1,892.2l1.2-1.8l-0.6-0.6l-15.3,9l2.1,3.3c1.6-1.4,3.1-2.6,4.6-3.8
				c2.2-1.6,4.6-3.1,6.9-4.6c-1.7,1.8-3.3,3.6-5.1,5.3c-7.9,7-15.8,13.9-23.7,20.9c-3.5,3.2-7.5,6.1-10,10
				c-2.7,4.2-6.1,7.5-9.6,10.9c-0.9,0.8-2,1.9-2.1,2.9c-0.4,4.8-0.4,9.6,0,14.4c9.5-7.8,7.8-6.3,11.9-6.3l-11.9,8.9
				c-1.6,12.8-1.5,52.3,0.2,58.7c3,0.5,2.5-1.7,2.5-3.3c0.1-5.7,0-11.4,0-17.1h1.2v18.8c2.8-0.2,4.9-0.5,6.9-0.4
				c1.7,0.1,3.8,0.4,4.7,1.5c1.6,1.8,3.3,1.6,5.2,1.7c8.7,0.4,17.5,0.8,26.2,1.2c0.8,0,1.6,0.6,2.3,0.9c-0.1,0.4-0.1,0.8-0.2,1.2
				c-3.7,0-7.3-0.1-11,0c-3.7,0.1-7.6-0.5-11.2,2.1c2.1,3,5,3.1,7.6,3.1c8.8,0.1,17.6,0,25.8-3.7c1.3-0.5,2.7-0.7,4.1-0.7
				c6.7,0,13.3,0.1,20,0.1c1.4-0.1,2.8-0.2,4.2-0.5c0.1-2.1,0.3-3.8,0.4-5.5c0.3-18.2,0.5-36.5,0.8-54.7c0.3-16.1,0.7-32.3,1.2-48.4
				c0.1-2.7,1-5.5,1.1-8.2c0.1-4.2-0.2-8.4-0.2-12.6c0-8.1,0-16.1,0-23.8c-2.2-1.6-3.7-1.9-5.7-0.7c-9,5.7-18.2,11.3-27.2,17
				C404.9,888.7,402.5,890.5,400.1,892.2z M327.5,562.4c1.5,1.3,3.1,1.6,4.7-0.3l-4.8,0.5c0.4-0.9,0.8-1.8,1.3-2.8l-3.1-1.1
				c0-0.3,0-0.5,0.1-0.8l10.5-2.4c-1-35.1-2.1-70.5-3.1-106c-39.2-5.4-78.5-9.9-117.1-19.6c-0.1,0.8-0.2,1.5-0.3,2.3
				c0.8,15.2,1.7,30.5,2.5,45.7c0.1,2.9,0.2,5.8-1.3,9.2c-0.6-4-1.1-7.2-1.6-10.4c-0.9,6.8-0.9,13.6-0.9,20.3
				c0,21.6-0.1,43.1,0,64.7c0,3.2,0.6,6.4,0.8,9.1c4.4,0.3,8,0.6,11.7,0.8c0.9,0,1.7,0,2.6-0.3c7.1-1.6,14.2-3.5,21.4-4.9
				c8.2-1.7,16.5-3.3,24.8-4.3c8.4-1.1,16.6-2.7,24.3-6.3c1.9-0.9,3.9-1.7,5.9-2.3c4-1.3,8.8-0.9,12,0.8c-4.4,4.1-10,4.9-15.4,6.1
				s-10.7,2.8-16,4.2c6.3,0.5,12.3-0.2,18.4-0.1C312.4,564.5,320,564.8,327.5,562.4z M447.1,844.9c-0.5-1.8-1.4-3.6-1.4-5.4
				c-0.2-11.8-0.2-23.5-0.4-35.3c-0.5-37.2,1.4-74.4-1.4-111.6c-0.1-1.4-0.4-3.2,0.4-4.1c2.5-3,1.6-6.2,1.6-9.3l-3.2-0.9
				c4-2,3.4-4.8,2.8-8c-1.8,0.9-3.5,2.5-4.6,2.2c-2.7-0.8-4.8,0.6-7.1,1c-3.1,0.6-6.2,1.5-9.3,1.7c-3.2,0.1-6.2,1-8.9,2.6
				c-11.4,7.2-22.8,14.5-34.3,21.4c-8.7,5.3-17.6,10.2-26.6,15.1c-2.3,1.2-3.5,2.8-3.3,5.4c0.1,1.8,0,3.6,0,6.3
				c5-3.2,9.2-6,13.5-8.7c4.2-2.6,8.4-5.1,12.6-7.6c4.2-2.5,8.1-5.7,13.2-6.8c-13.1,8.5-24.8,19-39.1,25.6v6.8
				c10.4-4.7,19.4-10.5,28.4-16.4c-2.7,3.7-6.2,6.5-10.1,8.7c-5.3,3.1-10.8,5.9-16.1,9c-1.1,0.6-2.5,1.8-2.6,2.8
				c-0.3,2.4-0.6,5,0.2,7.9c14.5-8.7,27.2-19.2,42-26.4c-2.2,2.3-4.6,4.3-7.2,6.1c-10.4,7.2-20.7,14.5-31.3,21.4
				c-4.8,3.1-6.8,7-7,12.6c-0.7,21.8-1.7,43.5-2.2,65.2c-0.2,7.8,0.8,15.7,1.3,23.5c0.9,0.2,1.8,0.3,2.8,0.4
				c24.1-0.6,48.1,1.3,72.1,2.6c4.9,0.3,9.8,0.2,14.5-1.5c2.3-0.8,3.5-1.9,3.3-4.5c-0.2-2.5-0.3-4.9-0.2-7.4
				c0.6-29.1,1.6-58.2,0.4-87.4c-0.3-8.1,0.1-16.1,0-24.2c0-1.7-0.1-3.9-1.1-4.9c-1.6-1.5-1.5-3.1-1.5-4.7
				c0.1-11.9,0.2-23.9,0.3-35.8c0-1.6,0.3-3.3,0.5-4.9c1.1,0.6,1.3,1.1,1.4,1.7c0.4,5.4,0.9,10.9,1,16.3c0.2,15.6,0.1,31.2,0.3,46.9
				c0.1,7.2,0.8,14.3,0.9,21.5c0.3,27.2,0.5,54.4,0.7,81.6c0,0.6,0.3,1.2,0.6,2.2c1.6-1.1,2.9-1.9,4.2-2.8
				c19.8-10,38.9-21.2,58.2-32.2c-0.7-0.5-1.6-0.8-2.5-0.8c-7.3-0.6-14.7-1-22-1.9c-6.1-0.7-12.1-2-18.2-2.8c-2-0.3-4.2-0.3-6.1,0.4
				c-2.4,0.9-4.5,2.6-6.9,4.2c0,1.9,0,3.8,0,5.7c0,6.1,0,12.3,0,18.4C449.7,839,448.9,842.2,447.1,844.9z M1456.9,638.1
				c2.1,4,16.3,18.7,19.9,20.4c2.8-7.6,0.4-13.4-5.9-18.2c-3.6-2.7-6.9-5.9-10.3-9c-0.7-0.6-1.1-1.5-1.8-2.5h3.3
				c-4.6-7.2-11-12.9-12.6-22l-48.4-5c-0.3,2.9,2.8,4.6,0.3,7.4c-1.7-0.9-3.5-1.8-5.2-2.8c-5.7-3.3-11.3-4.7-16.5,0.2v182.7
				c3.2-0.4,6-0.5,8.7-1.1c7.7-1.5,15.3-3.7,23.1-4.7c16.7-2.4,33.2-5.4,49.2-11c4.9-1.7,10.1-2.4,15.8-3.7
				c0.2-2.9,0.6-6.5,0.7-10.2c0.3-24.8,0.5-49.5,0.8-74.3c0-3.1-1-5.2-3-7.4c-16.5-18.4-32.9-37-49.3-55.5c-1.4-1.6-2.7-3.4-4.3-5.4
				c0.8,0,1.1-0.1,1.1,0c17.5,18.9,35.1,37.9,52.6,56.8c0.4,0.4,0.7,0.7,1.1,1.1c0.1,0.1,0.3,0.2,0.5,0.3c0.2,0,0.3,0,0.5,0
				c0.4-0.2,0.7-0.3,1.1-0.5c-0.4-1.8-0.4-4.1-1.5-5.6c-4.4-5.7-8.8-11.4-13.8-16.6c-9.6-10-19.4-19.8-29.3-29.6
				c-2.3-2.3-5.2-4.1-7.7-6.3c-3.4-3-7.1-5.8-9.7-9.6c4.2,2.2,8.3,4.7,11.9,7.7c6.6,5.5,12.9,11.4,19.4,17c1.8,1.6,3.9,2.8,5.9,4.2
				L1456.9,638.1z M1260.9,1014.3c-1.9,1.4-3-0.4-4-1.3c-3.9-3.5-7.8-7.1-11.4-10.9c-10.3-10.8-20.4-21.8-30.5-32.7
				c-1-1.1-2.2-2-3.6-3.2c-1.1,4.4-0.4,7.6,2.7,10.4c5.7,5.2,10.8,11.1,16.5,16.2c14.4,12.9,29,25.5,43.5,38.2
				c0.5,0.3,1,0.5,1.5,0.7c0.3-0.3,0.5-0.6,0.8-0.9c-4.2-6.3-9.6-11.6-14.9-17c0.1-0.5,0.1-1,0.2-1.6l3.1,1.6
				c-3-5.4-6.8-9.8-8.5-15.3c2.4,2,4.5,4.2,6.5,6.6c2.2,2.5,4.2,5.2,6.5,7.6c2.1,2.2,3.4,5.1,6.3,6.4c1.3-5.2,2-10.4,3.9-15
				c1-2.4,1.6-4.9,1.6-7.5c0.1-12.5,0.2-24.9,0.1-37.4c0-5.3,1.1-10.9-1.7-16c-0.4-0.7-0.2-1.7-0.1-2.6c0.3-19.1,0.6-38.3,0.9-57.4
				c0.2-13,0.5-26,0.9-38.9c0.1-3-0.9-4.9-3.4-6.5c-3.9-2.5-7.6-5.5-12.6-9.1c4.5,0.5,5.1-1.6,5-4.7l10.4,7.1v-84.1l-69.3-40.5
				c-0.2,1.4-0.3,2.2-0.3,3c0,23.2,0,46.3-0.1,69.5c0,2.4,0.7,4,2.7,5.2c6.9,4.2,12.8,9.7,18.7,15.3c6.9,6.5,14.4,12.3,21.6,18.5
				c2.2,1.8,4.2,3.8,6.3,5.8l-0.7,0.9c-3.9-2.8-7.8-5.6-11.8-8.4c-4-2.9-8-5.7-12-8.6c-4.1-3-8.2-6-12.4-9
				c-3.9-2.8-7.6-5.9-12.1-8.4c0,3.9,0,7.1,0,10.2c-0.1,15.4-0.2,30.9-0.2,46.3c0,35.6,0.2,71.3,0.2,106.9c0,3.6,0.6,6.5,3.5,8.8
				c2.3,1.8,4.5,3.8,6.5,5.9c1.9,2,3.5,4.3,5.3,6.4c7.7,8.9,15.5,17.7,23.2,26.5C1253.2,1005.7,1257.1,1010,1260.9,1014.3
				L1260.9,1014.3z M262.1,721.1l-0.2,0.1c-3.6,1.6-7.7,2.7-10.9,5c-11.1,7.9-22,16.3-33,24.4c-1.4,1.1-2.1,2.1-2.1,3.9
				c0.1,10.2,0,20.3,0.1,30.5c0,0.8,0.5,1.7,1,3.7c1-2.7,1.5-4.3,2.2-6.4c2.5,2.6,3.9,0.6,5.5-0.7c9-7.3,18-14.6,27-21.8
				c0.9-0.6,1.8-1.1,2.8-1.6c-1,1.9-2.4,3.6-4,5c-8,6.8-15.9,13.8-24.3,20.2c-4.3,3.2-5.8,6.6-4.3,11.6c0.3,1.1,0.5,2.2,0.8,4
				c3.2-2.4,5.8-4.3,8.4-6.3c2.8-2.1,5.5-4.4,8.3-6.5c2.5-1.8,4.7-4.2,7.9-4.9c-6.3,7.3-13.7,13.1-21.7,18.2
				c-2.4,1.5-3.2,3.2-3.2,5.9c0.4,24.6,0.6,49.1,0.9,73.7c0,3.6,0,7.3,0,11.1c1.8,0.4,3.2,0.6,4.5,1.1c1.4,0.6,3.3,1.4,3.7,2.5
				c1,2.8,3.3,2.9,5.4,3.3c20.3,3,40.6,5.9,60.9,8.9c3.1,0.5,6.5,0.3,9.3,1.5c6.3,2.8,12.6,2.2,19,1c3.5-0.7,6-2,5.7-7.5
				c-0.3-6-0.4-11.9-0.5-17.9c-0.6-27.9-1.3-55.8-1.8-83.7c-0.4-23.7-0.6-47.4-0.8-71.1c0-1.7-0.7-3.6,1.8-5.8
				c0.9,15.8,1.8,30.7,2.6,45.7c0.9-19.5,0.9-39,1-58.5c0-2.9-0.5-6.1,3.1-7.6c0.2-0.1,0.1-0.9,0.2-1.6c-0.5-0.1-1.1-0.1-1.6,0
				c-7.8,2-15.6,3.9-23.3,6.2c-3,0.9-5.7,2.6-8.5,3.9c-0.6,0.3-1.6,1-1.8,0.9c-2.9-3.4-5.5,0-8,0.6c-6.5,1.5-12.8,3.8-19.2,5.6
				c-2,0.6-3.7,1.5-6.3,0.2C266.7,716.7,263.4,717.8,262.1,721.1z M1389.5,1137.5c-0.5,0.7-1.6,1.6-1.5,2.2c0.4,2.4,0.9,4.8,1.6,7.1
				c0.9,3.3,1.4,3.9,6.2,6.8c-2.4-6-4.4-11-6.4-16.1c-0.2-1.5-0.2-3.1-0.6-4.6c-1.2-4.4-2.6-8.7-3.8-13.2c-0.7-3-1.1-6.1-1.6-9.1
				l1.1-0.2c1.4,3.8,3,7.5,4.2,11.3c3.9,11.8,7.8,23.7,11.5,35.5c1,3.2,2.8,6,5.2,8.3c19.6,19.4,39.1,38.8,58.5,58.3
				c0.9,0.8,1.9,1.5,2.9,2.1c0.7-6.9,1.6-13.2,1.9-19.5c1.2-24.4,2-48.7,3.3-73.1c0.4-8,1.3-16.1,3.2-23.9c1.2-4.9,1.2-9.6,1.2-14.5
				l-0.2-113.8c0-1.4,0.2-2.9-0.1-4.2c-0.3-1.4-0.8-3.1-1.8-4.1c-4.6-4.4-10.3-7.5-16.4-9c-5-1.2-9.6-3.8-13.2-7.4
				c-8.1-7.9-17.1-14.5-26.5-20.6c-12.6-8.2-25.4-16.3-38.1-24.4c-0.8-0.5-1.7-1-3.1-1.8v7.1c1.5,1.3,2.8,2,3.3,3
				c0.6,1.2,0.5,2.7,0.5,4.2c0.2,22.6,1.6,45.1-0.3,67.7c-1.4,16.6-0.9,33.3-1.1,50c-0.2,14.6-0.1,29.1-0.2,43.7
				c0,1-0.1,2.6-0.7,2.8c-2.3,1.1-1.5,2.9-1.5,4.5c0,9.1,0.2,18.2,0.1,27.3c0,3.4,1.4,5.5,5,7.5c-1.3-6.2-2.5-11.8-3.7-17.3l1.2-0.3
				c2,6.5,3.9,13,6.1,19.5C1386.6,1132.3,1388.2,1134.9,1389.5,1137.5z M916.6,469.7c-0.7-0.4-1.8-1.4-2.1-1.2
				c-1.5,1.1-2.9,2.3-4.2,3.6l0.6,0.5l5.8-3c-2.7,2.2-3.6,4.7-2.4,8.2c0.7,2.3,1.1,4.8,1.1,7.2c0.2,18.4,0.3,36.8,0.3,55.2
				c0.1,21.1,0.1,42.1,0.1,63.2c0,1.7,0,3.5,0,5.2l5.3,2.6l-5.1,2.6c-0.1,0.7-0.2,1.4-0.2,2.1c0.1,27-0.2,54,1.1,81
				c1.2,23.5,1.4,47.1-1.7,69.3c-0.5-3.8-1.3-8.8-1.8-13.8c-0.5-5-0.6-10-0.8-14.9c-24.2-2.7-47.9-0.3-71.5-2
				c-23.5-1.7-47.1-2.1-70.9-3c0.3,5,0.7,9.4,0.8,13.8c0.2,6.3,0.3,12.6,0.4,19c0.1,4.5,1.2,5.6,5.6,5.5c11.6-0.2,23.2-0.4,34.7-0.6
				c18.6-0.4,37.2,0,55.8,1.3c9.6,0.7,19.2,2.6,28.8-0.1c1.8-0.5,3.8,0.1,5,2.3c-0.9,0.4-1.8,1.2-2.3,1.1c-3.2-1.2-6.2,0.1-9.3,0.4
				c-4.5,0.5-9.1,1.1-13.6,1c-8.4-0.3-16.8-1.5-25.2-1.6c-25.4-0.3-50.9-0.3-76.4-0.4c-0.8,0.1-1.7,0.2-2.5,0.4v40.7
				c2.2-0.2,4.3-0.2,6.4-0.5c15.7-2.3,31.5-2.7,47.3-2.3c17.4,0.5,34.7,1.2,52.1,1.6c9,0.2,17.9,0,26.9-0.1c1.2-0.1,2.4-0.3,3.7-0.6
				c0-2.6,0.1-4.9,0-7.1c-0.3-8.1-0.7-16.1-1.1-24.2c-0.1-2.7-0.1-2.7,2.4-5.6c0.7,4,1.3,7.5,2.1,11.1c0.4,1.7,0.6,3.8,1.8,4.7
				c2.4,2.1,2.3,4.5,2.3,7.2c0,16.3,0,32.7,0,49c0,3.6,1.9,7.1,4.7,9.6c0.4,0.3,0.2,1.3,0.3,2.1l-5.1,0.9c0,2.3,0.1,4.4,0,6.4
				c-0.4,14-0.5,28-1.3,42c-0.3,6.2-1.1,12.1,2.9,17.5c9.3,1.1,95.7,0.6,100.1-0.8c-2.3-0.3-3.8-0.5-5.3-0.7
				c-22.8-1.8-45.5-3.1-68.4-2.6c-6.3,0.1-12.6,1-18.8,1.5c-1.2,0.1-2.5,0-3.7,0c0-0.4-0.1-0.8-0.1-1.1c0.9-0.3,1.8-0.5,2.7-0.6
				c9.4-0.6,18.9-1.7,28.4-1.6c20.9,0.2,41.7,0.9,62.6,1.6c3.5,0.1,6.4-0.1,9.1-2.7c3.4-3.3,7-6.5,10.9-9.1c2.7-1.8,3.1-3.9,3-6.6
				c-0.2-5.3-0.4-10.5-0.3-15.8c0.3-25.6,0.8-51.2,1.1-76.8c0.2-21.2,0.1-42.5,0-63.7c0-1.6-0.2-3.1-0.4-4.7
				c-0.4-2.9-1.3-5.8-1.3-8.7c-0.1-49.7,0.1-99.4-0.1-149c-0.1-18.8,1.3-37.5,2.5-56.2c0.6-9.3,0.4-18.6,0.5-27.9
				c0-1.4,0.4-3.2-2.3-4.3c-0.5,3.7-0.9,7-1.3,10.3l-0.5,0v-42.6H925.4c22.4,4.5,45.2,2.7,67.8,3.5c-19.7,0.1-39.3,0.1-59,0.1
				C928.3,468.2,922.4,467.6,916.6,469.7z M66.5,1259.6c3.7,4.5,9,3.2,14.9,4.2l-23.2-32.6l1-0.7c1.2,1.4,2.4,2.7,3.5,4.2
				c6.4,8.8,12.9,17.5,19.2,26.4c2,2.8,4.3,3.9,7.8,3.1c-1.5-4.7-5.6-8.2-5.9-13.3c2.6,3.1,5,6.3,7.1,9.8c2.1,3.6,5,4.7,9,5.2
				c19.9,2.1,39.8,4.2,59.6,7c14.3,2,28.6,1.4,43.4,0.2c0.9-71.6,0.2-143.1,2.6-214.6c0.7,6.1,1.1,12.2,1.2,18.3
				c0.4,56.4,0.8,112.7,1.2,169.1c0,2.3,0,4.6,0,6.9h1.1v-9.4c0-95.1,0-190.3,0.1-285.4c0-36,0.1-72,0-108c0-8.1-0.4-16.1-0.8-24.2
				c-0.7-14-1.7-28-2.3-42.1c-0.9-22.8-1.6-45.6-2.3-68.4c-1.6-48.8-1.2-97.6,0.6-146.4c0.6-15,1.7-30.1,2.3-45.1
				c1-21.8-0.6-43.8-1.1-65.7c0-0.8,0.4-1.7,0.4-2.6c0.4-6.4,0.8-12.7,1.2-19.3c-1.7,0.1-2.5,0.2-3.4,0.3
				c-14.9,2.1-29.8,4.5-44.8,6.2c-6.8,0.8-13.3,1.7-19.4,5.4c-8.1,4.9-16.9,8.6-25,13.4c-22.4,13.5-44.6,27.3-66.9,41
				c-0.7,0.4-1.4,1-2.3,1.7c0.4,5.1,0.7,10,1.1,15.9c3.5-2.3,6.2-3.9,8.8-5.6c4.3-2.8,4.3-2.8,8.8-1.9c-5.1,3.1-9.8,6-14.5,9
				c-1.2,0.8-2.7,2.2-2.8,3.3c-0.1,3.9-0.4,8,1.2,12.4l108.5-61.3l0.6,1.1c-35.4,22.7-72.1,43.2-108.9,62.8v30.5
				c3.8-1.9,6.8-3.2,9.6-4.8c2.8-1.6,5.7-3.5,8.5-5.3c21-12.7,42.1-25.4,63.1-38c2.2-1.3,5.1-1.7,7-3.3c8-6.8,17.2-11.3,26.9-14.8
				c1.8-0.7,3.7-1.4,6.6-0.4c-2.1,1.1-3.5,1.8-4.9,2.5c-7.4,3.7-14.9,7.1-22,11.1c-31.7,18-61.6,39.1-94.6,55.2
				c-0.8,7.2-0.5,15.9,0.9,19.8c5.3-3.3,10.4-6.7,15.6-9.7c26.7-15.5,53.4-31,80.2-46.4c8.8-5.1,17.7-9.9,26.8-14.6
				c4.7-2.5,9.8-4.4,14.7-6.6c-1.3,1.9-3,2.9-4.8,3.8c-5.4,2.9-10.9,5.7-16.2,8.7c-38.2,21.8-76.4,43.7-114.6,65.6
				c-1.1,0.6-2.6,1.8-2.7,2.8c-0.2,6.5-3.4,12.4-3.3,19c0.1,10.5-1,21-1.3,31.6c-0.6,25.4-2.3,50.8-1.5,76.2
				c1.4,48.8,2.3,97.6,3.3,146.4c0.5,26.2,0.8,52.3,1.2,78.5c0,1.6,0,3.1,0,4.8c-2.7-0.7-2.8,0.9-3.2,2.5
				c-2.2,10.4-0.4,20.8-0.9,31.4c11-3.7,12.5-6,10.7-15.4l-5.7,2.3l-0.7-0.9c6.7-1.9,7-6.8,7-12.5c-0.1-61.8-0.1-123.6,0.1-185.4
				c0.1-22.6,1.2-45.3,1.8-67.9c0.1-1.3,0.3-2.5,0.5-3.7l0.8,0.1v262.8c2.1-1.2,3.6-1.9,5-2.9c15.4-11,30.8-22.1,46.3-32.9
				c11.3-8,22.8-15.7,34.3-23.5c1.1-0.7,2.3-1.1,3.5-1.5c-0.3,0.9-0.9,1.7-1.7,2.2c-28.3,19.8-56.6,39.7-84.9,59.6
				c-1.1,0.7-2.4,1.9-2.5,3c-0.4,2.4-0.1,5-0.1,8.5l17.3-11.3l0.8,1.1c-2.3,2.2-4.6,4.5-7.1,6.4c-2.9,2.2-6.1,4.1-9.2,6.1
				c-1.6,1-2.8,2.1-1.6,4.4c6.4-3.3,11.1-9.4,18.4-10.7c5-5.8,12.4-7.7,18.7-11.4c6.1-3.6,12.3-6.8,18.5-10.3l0.6,1
				c-10.8,8.4-21.4,17-32.4,25.1c-6.9,5.1-14.3,9.5-21.4,14.3c-1.3,0.9-3,2.5-3.1,3.8c-0.4,5.1-0.1,10.3-0.1,16.1
				c1.4-0.8,2.1-1.2,2.8-1.7c17.6-12.5,35.2-25,52.8-37.4c4.3-3,8.8-5.8,13.3-8.6c0.7-0.4,1.6-0.5,2.5-0.7l1.1,1.5
				c-1,0.5-2,0.8-2.9,1.4c-4.5,3.6-8.8,7.5-13.5,10.9c-17.4,12.5-34.9,24.8-52.4,37.1c-2.9,2-4,4.2-4,7.8
				c0.1,14.7-0.1,29.5-0.3,44.2c0,1.7,0.7,3.7-1.8,5.5c0-5,0-9.3,0-13.7c0-4.2,0-8.4,0.1-12.6c0-4.4,0.2-8.8,0.2-13.2
				c-0.1-4.2,0.8-8.5-0.8-13.3c-2.6,2.5-4.7,4.6-6.9,6.5c-2.3,1.9-3.1,4-2.9,6.9c0.4,5.8,0.6,11.6,0.7,17.3
				c0.4,20.2,0.6,40.3,1.2,60.5c0.3,12.1,1.3,24.2,2,36.2c0.3,4.7,0.6,9.4,0.9,14.4l-5.3-0.9c0,1.7,0,3.2,0,4.7
				c0.1,29.1,0.3,58.3,0.3,87.4c0,2.6-0.9,5.3-1.6,9.1c3,7.8,11.5,5,17.9,6.9c-2.6-2.6-7-1.9-9.5-6c5.7-2,11.2-0.7,16.5-0.9v-2.4
				L66.5,1259.6z M1656.6,606.8l0.1,0.1c4.3-4.1,3.9-9.2,3.2-15c-3.5,1.8-7.1,2.5-8.3,5.4c-1.5,0.1-2.5,0-3.4,0.4
				c-5.1,2.2-10.2,4.4-15.3,6.7l0.1,0.1c0.8-0.8,1.6-1.8,2.5-2.3c5-2.9,10-5.7,15.3-8.7c0.5-2.8,1.1-5.8,1.6-8.6l0.8,4.9l7-3.6
				c-0.2-7,0.5-13.7-0.3-20.4c-0.8,0.2-1.3,0.1-1.4,0.3c-2.7,4.9-0.6,10.6-2.8,15.7c-0.2-0.3-0.6-0.5-0.6-0.7c0.2-6-1.2-12,0-18
				c0.4-1.7,0.7-4.2-0.2-5.1c-2.8-2.8-1.4-5.9-1.4-8.8c0-3.3,0.4-6.7,0.4-10c0.1-26.7-0.2-53.4-2.7-80c-0.6-6.3-1.1-12.6-1.2-18.9
				c-0.2-7.7,0-15.4,0.1-23.2c0-1.3-0.2-2.7-0.3-4.2c-0.9-0.1-1.6-0.3-2.3-0.3c-10.8-1-21.7-1.6-32.5-2.9c-12.5-1.5-25-3.8-37.5-5.2
				c-22.9-2.6-45.8-3.3-68.9-3.4c-5.9,0-11.9-0.8-17.8-1.2c-1.6-0.1-3.3,0-5.6,0c0.5,2.8,0.9,4.9,1.2,6.8c1.5,8.3,4,16.5,4.5,24.8
				c0.8,14.5,0.6,29.1,0.6,43.7c0,14.7-0.4,29.5-0.3,44.2c0,4.9,1.1,9.7,1.7,14.6c0.3,2,1.1,4,1.2,6c0.1,6.5-0.1,13,0,19.5
				c0,1.7,0.2,4.1,1.2,4.8c2.3,1.7,1.8,3.7,1.7,5.6c-0.6,13.7-1.3,27.3-2.1,41c0,0.7-0.5,1.4-1.2,3c-0.7-2-1.4-3.1-1.5-4.2
				c-0.5-5.1-1.1-10.1-1.2-15.2c-0.5-24-0.9-48.1-1.2-72.2c-0.2-14-0.1-28.1-0.3-42.1c-0.1-7.5-0.6-15-1-22.5
				c-0.9,2.3-0.9,4.5-0.9,6.8c0,21.2-0.1,42.5,0,63.7c0.1,25.6,0.3,51.2,0.4,76.9c0,2.4-0.2,4.8,1.6,7c1.4,1.6,1,3.7-0.6,5.2
				c-3.1,3-2.5,6.7-1.7,10.3c0.4,1.9,1.2,3.7,1.2,5.6c0,21.2,1.3,42.3,1.5,63.5c0.1,6.1,0.6,12.3,0.6,18.4c0.1,17.6,0.3,35.1,0,52.7
				c-0.1,9.4-1.1,18.9-1.6,28.3c-0.4,6.1-0.8,12.2-1.1,18.4c-0.1,1.2-0.1,2.8,0.6,3.5c2.2,2,1.2,4,0.6,6.2
				c-2.1,8.3-5.2,16.3-4.6,25.2c0.8,11.7,0.8,23.5,1.2,35.3c1.5,41.8,3.9,83.7,3.1,125.6c-0.2,11.6-0.1,23.2-0.2,34.8
				c-0.1,9.1-0.3,18.2-0.3,27.4c-0.1,30.4-0.1,60.7-0.1,91.1c0,1.1-0.1,2.2,0.2,3.1c2.3,5.9,4.7,11.7,7.2,17.5
				c0.5,1,1.1,1.9,1.7,2.8c0-13.8-0.9-27.4,1.3-40.8c1.3,14.9,2.1,29.8,3.1,44.7c0.3,4,0.5,8.2,2,11.8c7.3,16.7,15,33.3,22.5,49.9
				c0.6,1,1.2,2,1.9,3c1.3-0.1,2.4-0.1,3.4-0.2c22.7-2.1,45.4-4.2,68.1-6.2c9.1-0.8,18.2-1.4,27.3-2.2c1.9-0.2,4.5-0.1,5.5-1.2
				c3.7-4.1,7.8-8.3,8.1-14.2c1.3-24.2,2.5-48.4,3.8-72.6c1.5-29.1,3.1-58.2,4.7-87.3c0.3-5.4,1.1-10.8,1.7-16.2
				c0.4-2.9,1.4-5.8,1.4-8.7c0.4-27.4,0.5-54.8,0.9-82.2c0.2-14.6,0.3-29.2,1.5-43.7c1.7-21-0.6-41.6-3.1-62.4
				c-1.1-9.4-2.8-18.8-2.8-28.2c-0.3-38.6,0-77.2,0-115.9c0-1.9,0-3.8,0-5.9l-3.8-0.2c0.3-1.2,0.4-3,1-3.2c3.5-1.2,2.8-4,2.9-6.5
				c0-1.8,0-3.5-0.1-5.3c0-0.3-0.3-0.5-0.6-0.9h-2.7c0.4-2.8,0.4-2.8,3.6-4.6c0-5.9,0-12.1,0-18.2c0-2.1-0.1-4.3,3.3-4
				c1.8,16.9,4.1,33.8,4.2,50.8c0.1,51.1,0.1,102.2,0.1,153.3v8.8l1.2,0.1c1-11.7,2.8-23.3,2.9-35c0.3-39.9-0.3-79.7,0.1-119.6
				c0.1-11.7-0.4-23.4-0.2-35c0.1-6.5,0-13,0-19.5c0-3.5,0.8-7.2-2.6-9.9c-0.5-0.4-0.5-1.5-0.9-2.5h-7v-8.9
				c-5.9,3.4-11.1,6.5-16.4,9.6c-18.5,11-35.7,23.5-50.3,39.5c-2.9,3.2-5.8,6.6-9.3,9.2c-7.4,5.7-15,11-22.7,16.2
				c-2.8,1.9-6.1,2.9-9.2,4.3l-0.5-0.9c3.6-2.5,7.3-4.7,10.7-7.5c14-11.4,27.9-23,41.8-34.6c16-13.4,32.1-26.8,49.8-37.9
				c5.8-3.6,8.6-11.1,6.8-18c-1.6,0.9-3.1,1.6-4.5,2.6c-9.5,6.7-19.1,13.2-28.3,20.2c-23.1,17.5-45.9,35.3-71,50
				c-1.6,0.9-3.2,1.7-4.8,2.6c2.5-2.9,5.4-5,8.4-7.1c25-16.9,48.8-35.5,72.4-54.3c11.4-9,22.9-17.8,37-21.9v-13.2H1656.6z
				 M766.1,681.9l-1.2,0.1c-0.7,29.2-1.4,58.5-2,87.7c-0.7-1.4-0.7-2.8-0.7-4.2c-0.1-31.1-0.2-62.1-0.2-93.2
				c0-48.9,0-97.8,0.2-146.7c0.1-17.7,1-35.4,1.5-53.1c0-1.4,0-2.7,0-4.8c-2.2,0-4.1,0-5.9,0c-18.4,0.5-36.8,1.2-55.2,1.6
				c-14.7,0.3-29.5,1.2-44,3.6c-5.6,0.9-11.5,1-16.6,4c-0.4,9-1.1,17.8-1,26.6c0.1,19,0.7,37.9,0.8,56.9
				c0.2,77.8,0.3,155.5,0.4,233.3c0.1,1.9,0,3.9-0.3,5.8c-3.3,18-3.9,36.3-4.2,54.5c-0.1,4.1,1.1,8.2,1.2,12.4
				c0.4,16.5,0.6,33,1.1,49.5c0.1,2.9,0.7,5.7,1.1,8.7c5.6-0.5,10.5-1.1,15.4-1.3c10.5-0.5,21-1.2,31.5-1.1
				c13.8,0.1,27.7,0.9,41.5,1.4c0.6,0,1.3-0.1,1.9-0.1c0-0.2,0-0.4,0-0.6l-2.7-0.5l0.1-0.6l32.8,1.5c0.2-1.7,0.3-3.3,0.5-5.2
				c-1.1-0.3-1.9-0.4-2.7-0.6c-0.8-0.2-1.4-0.6-2.1-0.9l0.1-0.8l5.1-0.3V784.1l1.4,5.5c0.7-1.3,1.1-1.7,1.2-2.2
				c0.3-1.2,0.4-2.4,0.4-3.7c-0.1-1.6-0.3-3.1,1.9-3.6c0.5-0.1,1.1-1.5,1-2.1c-0.3-2-1-4-1.6-6.5c1.8-2.7,2.3-6.2,2.2-10
				c-0.3-8.8-0.3-17.5-0.6-26.3c-0.1-1.6-1.4-3.2-2.1-4.7c0.5-0.6,1.8-1.3,1.8-2.1c0.1-8,0-16-0.2-24c-0.1-4.5-1.3-8.8-0.7-13.4
				C767.2,688,766.4,684.9,766.1,681.9z M1042,602.7l1.4-0.1c0.1,2,0.3,4,0.3,6c-0.7,30.7-1.9,61.4-2.2,92.1
				c-0.5,53.5-0.4,107.1-0.5,160.6c0,1.4,0.1,2.8,0.3,4.2c0.6,3.6,1.6,7.2,1.8,10.8c0.8,13.3,1.4,26.6,2,40c0.1,2.6,0.3,5.2,0.5,7.8
				c1,0.1,2.1,0.2,3.1,0.2c18.9-1.1,37.8-2,56.8-3.2c1.7-0.2,3.4-0.8,4.8-1.7c14-9.5,26.8-20.4,37.7-33.4c1.4-1.5,2.2-3.5,2.3-5.6
				c0.1-4.4,0.3-8.8,0.6-13.2c0.1-1.8,0.5-3.5,0.7-5.3l1.3,0.1l0.7,49c1.3-2.3,1.3-5.3,2.8-6.8c1.8-1.8,1.8-3.6,1.8-5.6
				c0-47.2-0.1-94.5-0.2-141.7c0-2.4-0.9-4.8-1.2-6.3c0.5-2.9,1.1-5,1.2-7.1c0.6-12-0.5-23.9,1.9-36c2.8-14.1,2-28.7,1.5-43.1
				c-0.2-6.3-0.5-12.6-0.8-18.6c-0.1,2.7-0.3,5.6-0.4,8.6c-3.7-8.6-7.8-108.4-5.1-116.3c0.3,2.1,0.5,3.4,0.6,4.7
				c0.4,9.3,0.9,18.6,1.1,27.9c0.2,14.4,0.2,28.8,0.3,43.2c0,3.5,0.5,6.9,0.8,10.4l1.2-0.1c0.2-2.7,0.6-5.5,0.7-8.3
				c0.1-17,0.3-34.1,0-51.1c-0.2-11.9-1.2-23.8-1.5-35.6c-0.2-6.1,0.4-12.3,0.4-18.4c0.1-12.6,0-25.2,0-37.9l-3.5-1.5l4.2-2.2
				c-2.6-2.2-5.1-2.2-7.7-2.2c-11.2,0-22.3,0.3-33.6-0.6c-12.4-1.1-24.9-0.4-37.3,0.1c-6.7,0.3-13.8-0.5-19.9,3.8
				c-1.5,1.1-3.3,0.7-4.1-0.8c-1.7-3-4-1.6-5.9-0.8c-2.4,1.1-4.5,2.6-6.7,4.2c-1.5,1.1-1,2.3-0.1,3.5l4.7-2.7l1.4,1.7l7.9-2.9
				c0.2,0.4,0.3,0.9,0.5,1.3c-3.1,1.2-6.1,2.4-9.2,3.4c-3.2,1.1-5.7,2.5-5.5,6.5c0.1,1.9-0.3,3.8-0.4,5.7
				c-0.4,13.9-0.5,27.7-1.2,41.6c-0.4,8-1.7,16-2.2,24.1c-0.5,9.1-0.5,18.2-0.5,27.4c-0.1,18.8,0,37.5,0,54.3
				C1040.2,626.8,1041.1,614.7,1042,602.7z M523.5,495.2c0.3,6.7,0.6,13.2,0.8,19.7c0.6,15.4,1.5,30.8,1.7,46.3
				c0.5,33.9,0.6,67.7,0.8,101.6c0,5.8-0.1,11.6,0,17.4c0.3,12.5,0.7,24.9,1.1,37.4c0.1,3,0.4,5.9,0.6,8.9
				c1.4,17.2,2.1,34.3,1.1,51.5c-1.2,20.6-2.2,41.3-3,62c-0.6,12.5,0.1,25,2.1,37.4c2.3,13.6,2.3,27.6,3.3,41.4
				c0.1,0.9,0.1,1.9,0.2,2.9c3,0.3,2.6-1.6,2.6-3c-0.1-7.4-0.4-14.7-0.4-22.1c0-2.4,0.5-4.7,0.7-7.1l1.4,0
				c0.4,10.9,0.9,21.7,1.3,32.8c6.8,0.4,13.1,0.8,19.3,1.3c17.7,1.3,35.3,2.7,53,4c1.5,0.1,3.3,0,4.5-0.8c4.3-2.7,8.6-5.5,12.4-8.8
				c3.9-3.3,5.8-7.5,5.9-12.9c0.2-11.4,0.8-22.8,1.5-34.2c0.4-6.1,1.9-12.2,1.9-18.3c0.1-32.1,0-64.3,0-96.3c0-4.5,0.5-9.1,0.8-13.6
				c0.7-8.6,2.1-17.1,2.1-25.7c0.1-20.4-0.3-40.7-0.8-61.1c-0.3-12.8-1.7-25.6-1.9-38.4c-0.3-18.3-0.2-36.5,0.1-54.8
				c0.4-26.1,1.2-52.3,1.9-78.4c0.1-2.4,0-4.8,0-7.1c-3.6-1-6.5-2.5-9.5-2.5c-26.7-0.4-53.3-0.2-80-0.9c-8.6-0.2-16.1,0.5-22.8,6.4
				c-3.6,3.2-4,2.8-2.2,8.5l9.6-5.4l0.4,0.7l-9,8.2l4.2,1.8L523.5,495.2z M1369.5,1115.8c0.1-2.4,0.2-3.6,0.2-4.8
				c0.3-14.6,0.5-29.1,1.1-43.7c0.2-6.5,1.7-12.9,1.7-19.4c0.1-45.4-0.1-90.9,0-136.3c0-3.7-0.9-6.3-4.2-8.2
				c-3.3-1.9-6.4-4.4-9.5-6.6c-3.3-2.3-6.5-4.7-9.8-7.1c-3.1-2.3-6.3-4.5-9.4-6.8c-3.3-2.4-6.5-4.7-9.8-7.1c-3.1-2.3-6-5.6-9.4-6.5
				c-4.2-1.2-5.5-5-8.7-6.7c-0.1-0.1-0.3-0.2-0.4-0.3c-6.8-5-13.6-9.9-20.4-14.9c-1.2-0.9-2.5-1.7-4.1-2.8c0,4.4,0,8.1,0,11.9
				c-0.1,24.4-0.3,48.8-0.4,73.2c0,4.8-1,9.8,1.7,14.4c0.5,0.8,0.3,2.1,0.3,3.1c-0.3,6.7-0.3,13.3-0.9,20c-0.2,2.8-1.1,5.4-2.6,7.7
				c-0.8,1.2-1.4,2.1-1.4,3.5c0.2,16.1,0.3,32.3,0.7,48.4c0.1,1.9,0.8,3.7,2,5.1c6.6,7.5,13.1,15.1,20.2,22.1
				c19.4,19.3,39.1,38.3,58.7,57.4C1366.1,1112.7,1367.4,1113.9,1369.5,1115.8z M516.3,470.5c-3.1,0.2-5.7,0.4-8.2,0.5
				c-1.2,0.1-2.4,0-3.5-0.2c-3-0.7-6-2-9.1-2.4c-25.6-3.2-51.2-6.4-76.8-9.4c-17.4-2.1-34.8-4-52.3-6c-9.5-1.1-19.1-2.1-29-3.2
				c1.7,37.9,3.3,75.5,5,113.2l10-0.5c12.3-0.6,24.6-0.9,36.8-1.8c14.2-1,28.3-2.6,42.5-3.9c5.4-0.5,6.5-1.1,6.9-6.6
				c0.9-12.6,1.5-25.2,2.2-37.8c0.1-1.1-0.3-2.2-0.5-3.3c-2.9,11.3,0,23-2.8,34.3c-0.4-2.9-0.6-5.9-0.5-8.9
				c0.1-13.9,0.2-27.7,0.3-41.6c0-8.2,0-16.5,0-24.8c0-1.6-0.7-3.6,1.8-4.7c0.5,0.8,1.2,1.7,1.4,2.6c0.4,2.4,0.7,4.9,0.8,7.3
				c1.4,23.1,1.7,46.3,0.7,69.5c-0.2,4.2,0,8.3,0,12.8l61.2-5.2c-3.2,0.9-6.5,1.6-9.8,2.1c-3.3,0.5-6.6,0.9-9.9,1.5
				c-3.1,0.6-6.4-0.1-9.8,1.9c12.4,3.2,38.3-0.3,45.7-5.8c-0.5-10.9-0.9-22-1.5-33c-0.4-8.2-1.2-16.4-1.5-24.6
				C516.1,485.6,516.3,478.6,516.3,470.5z M248.4,719.9l87.3-27c-1.3-40.8-2.5-81.8-3.8-123.4l-82.8,4.2l2.5,4.8
				c-12.6,0.3-24.6-1.4-36.8,0.7c0.4,50.2,0.9,100.2,1.4,150.9c10.4-2.3,20.6-5.4,30.5-9.3c-1.8-4-4.9-6.7-5.5-10.9L248.4,719.9z
				 M1383,442.8c-4.1,0.8-3.9,3.4-3.7,5.9c0.2,2.1-0.9,4.6,1.4,6.3c0.2,0.4,0.2,0.9,0,1.3c-1.9,1.2-1.4,3.1-1.4,4.7
				c0,41.2,0.1,82.5,0.1,123.7c0,1.3,0.3,2.7,0.5,4.5c31.8,1.8,62.6-5.1,93.9-7.4c0.3-2,0.5-3.6,0.9-5.1c0.3-0.9,0.9-2.4,1.4-2.5
				c3.2-0.3,3.2-2.9,3.8-5c3.1-10.9,1.7-21.9,0.3-32.9c-0.1-0.6-0.8-1.2-2-2.8c0,6,0.1,10.7,0,15.4c-0.2,4.7,0.5,9.7-2,15
				c0-5.7-0.1-10.6,0-15.5c0.9-29.3,1.1-58.6-1.2-87.9c-0.2-2-0.9-3.3-2.1-5c-2.4-3.6-4.6-6.7-9-8.1c-1.1-0.3-1.6-2.1-2.4-3.2
				c-3.8-0.6-7.7-1.2-11.4-1.9c-21.2-4.1-42.3-8.2-63.5-12.4c-2.7-0.5-5.1-0.3-7.4,0.9C1378.8,439.6,1378.8,439.6,1383,442.8
				L1383,442.8z M1290.3,742l-0.1-0.9l74.9-12.8c2.1-7.5,2.9-15.2,2.5-23c-0.1-1.7,0.1-3.5,0.2-5.3c0.4-14.7,0.8-29.4,1.3-44.2
				c0.2-5.8-1.2-10.9-4.8-15.7c-3.2-4.2-5.6-8.9-8.3-13.4c-1.1-1.9-2-3.9-3-5.9c6.3,4.2,9.8,10.7,14.7,16.4c0.6-5.4,0.5-6.4-1.2-9.6
				c-4.4-8.4-9-16.8-13.9-26.1c7.4,3.2,9,10.2,14.3,14.3c-0.6-5.1-1.3-10.1-1.8-14.6l-80.6-11.1v152.7c11,7.5,78.2,42.1,86,44.2
				v-55.1c-10.5,1.2-20.8,2.1-30.9,3.6c-13,1.9-25.9,4.4-38.9,6.3C1297.2,742.4,1293.8,742,1290.3,742z M1381.6,799.6
				c-0.4,5.7-0.7,10-1.1,14.4c-0.2,1.7,0,3.9-1,5c-1.8,2-1.6,4.1-1.5,6.4c0.7,19.1,0.9,38.2-0.5,57.3c-0.1,1.8-0.1,3.5,0.1,5.3
				c0.1,1.9,0.2,3.5-0.7,5.5c-1.6,3.4-0.4,6,3.1,8.3c9.5,6.3,19,12.6,28.6,18.7c11.4,7.2,23.2,14,33.2,23c3.9,3.5,6.8,7.9,10.4,11.7
				c1.6,1.7,3.7,3,5.7,4.3c1.3,0.8,2.9,1.2,4.3,1.8c2.2,1,4.5,1.9,6.7,3c2.2,1.1,4.4,2.5,7.4,4.2c-0.9-35.9,3.3-70.8,0.8-106
				l-3.2,0.8c-2.6-7-1.6-14.3-2.4-22L1381.6,799.6z M441.9,562.8c-17.1,1.4-33.5,2.8-49.9,3.9c-16.4,1.1-32.8,1.8-49.4,2.7
				c1.5,40.6,2.9,80.5,4.3,121.1l91.6-26C442.2,630.7,440.5,597.1,441.9,562.8L441.9,562.8z M1360.7,578.5c0-5.2-0.1-9.9,0.1-14.6
				c0.1-1.6,0.7-3,1.7-4.2c2-2.1,2.5-4.5,2.7-7.2c0.2-2.7,0.6-5.2,1.1-7.8c2.8-15.1,3.4-30.3,1.1-45.5c-0.5-3.1-1.6-6.1,1.3-8.3
				c-1.1-1.6-2.6-2.9-2.6-4.1c0.3-7.6-1-15.5,2.2-22.5c-1.4-2.8-2.7-5.5-4.2-8.4c-26.5-4.5-53.6-5.6-81-8.9c0,11-0.1,21.6,0,32.3
				c0.3,31.9,0.7,63.8,1.1,95.8c0,1.7,0.2,3.4,0.3,5.5L1360.7,578.5z M334.3,1000.2c-6.5,4.5-12.4,8.6-18.3,12.5
				c-32.3,21.3-64.7,42.6-97.1,63.8c-2.5,1.7-2.8,3.6-2.8,6.2c0,27.4,0.1,54.7,0,82.1c0,1.3,0.3,2.6,0.5,4.5
				c1.8-1.4,3.1-2.2,4.2-3.3c27.8-25.6,57.7-48.5,86.9-72.4c7.3-6,14.7-11.9,22.4-17.5c2.8-2.1,4.1-4.2,4.1-7.7
				c0-21.2,0.3-42.4,0.4-63.7C334.6,1003.4,334.5,1002.2,334.3,1000.2z M327.1,935.4c-2.2,1.8-3.5,3.2-5,4.1c-3.2,1.9-6.4,3.6-9.8,5
				c-17.6,7.5-35.3,14.6-52.8,22.3c-11.2,4.9-22.1,10.7-33.1,16c-2.4,1.1-3.6,2.7-4,5.5c-0.8,5.2-2.4,10.2-3.5,15.4
				c-1,4.6-2.4,9.2-2.5,13.9c-0.3,15.6-0.1,31.2-0.1,46.8c0,1.1,0.2,2.3,0.3,4c3.7-1.9,6.9-3.7,10.2-5.2
				c22.9-10.4,44.2-23.3,64.6-38c12.5-9,25.7-17.1,38.7-25.3c3.2-2,4.7-3.7,4.7-7.6c-0.4-21-0.4-42.1-0.6-63.1
				c0-1.1-0.3-2.2-0.6-3.8l-24.1,13.3C315.2,938.3,320.1,935,327.1,935.4z M1372.4,896.6c0-5.2-0.1-9,0-12.8c0-1.2,0.1-3.2,0.7-3.4
				c2.4-0.9,1.8-2.7,1.9-4.4c0.1-3,0.1-6,0-9c-0.8-21.9-3.1-43.7-2.7-65.6c0-0.7,0-1.4-0.1-2.1c-0.8-3.1-2.1-5.4-5.4-7.1
				c-25.9-13.3-51.6-26.9-77.4-40.4c-1.5-0.8-3-1.5-4.7-2.3c-0.2,0.6-0.4,1.3-0.5,1.9c-0.2,26.3-0.4,52.6-0.6,78.9
				c0,1.1,0,2.3,0.5,3c1.6,2.4,3.1,5,5.2,7c6.8,6.3,13.7,12.5,20.7,18.6c0.5,0.4,1.8-0.1,2.7-0.1c4.4,7.2,34.8,28,43.6,29.8l1.6-2.2
				L1372.4,896.6z M216.3,1245.3c1.6-1.3,2.4-1.9,3.2-2.5c22.5-20.1,45-40.2,67.5-60.3c4.3-3.9,8.4-8,12.3-12.2
				c12.2-13.3,24.1-26.9,36.6-40c3.7-3.9,5.3-7.6,5.1-12.9c-0.4-10.8-0.1-21.7-0.1-32.9l-6.7-1.8l-1.1-3.3c-2.7,2.6-5.2,4.6-7.2,6.9
				c-8.2,9.4-17.7,16.9-29.3,21.7c-2.4,1-4.3,3.3-6.4,5.1l0.6,1.2l9.2-3c-13,12.2-26.7,23.1-40.9,33.4
				c-14.2,10.3-28.5,20.4-42.8,30.6L216.3,1245.3z M1269.2,586.7c2.4,3.7,4.2,6.2,5.7,9c0.4,0.7-0.3,2.1-0.5,3.2
				c-0.9-0.3-2.1-0.4-2.6-1.1c-2-2.7-4-5.4-5.5-8.3c-1.5-2.9-3.6-4.3-6.8-4.9c-13.4-2.6-26.8-5.4-40.2-8c-2.2-0.4-4.4-0.5-7-0.8
				v121.3c18.2-2.9,36-5.7,53.8-8.5c2.8-0.4,5.5-0.9,8.3-1.5c1.2-0.2,2.3-0.7,3.6-1.1v-97.6L1269.2,586.7z M444.8,636.2l1.2,0.1
				c0.3-10.2,0.6-20.5,0.9-30.7h1.2c0.1,6.1,0.2,12.2,0.3,18.3c0.1,6.3,0,12.6,0.2,18.9c0.2,6-0.7,12.1,0.4,18.8l70.9-23.5
				c1.5-25.2,0.7-50.4-0.5-75.3l-8.5-0.5l-0.2-1.2l8.5-3.1c-0.1-1.1-0.2-2.3-0.2-3c-25,4.5-50.2,4.2-75.5,7.8c0.2,3.1,0.2,6,0.5,8.9
				c0.4,3.5,1.6,6.9,1.5,10.3c-0.3,14-0.9,28-1.4,42C444.1,628.1,443.2,632.3,444.8,636.2L444.8,636.2z M1166.2,758.4v6.2
				c0,9,0,17.9,0,26.9c0,2.6-0.4,5.2-0.6,7.8c-1,11.5-3.6,22.8-2.1,34.4c0.2,1.7,0.3,3.5,0.3,5.3c0.6,18.4,3,36.7,2.4,55.2
				c-0.2,6.3-0.2,12.6-0.2,19c0,1.9-0.2,3.9,2.9,4.8c1.6-14.1-0.4-28.1,2.3-41.8c0.3,1,0.4,2.1,0.3,3.2c-0.8,13.1,1.7,25.8,4.7,38.5
				c0.3,1.2,1.3,2.3,2.2,3.4c3.4,4.2,7.4,8.1,10,12.7c2.3,4.3,5.3,8.2,8.9,11.5c2.2,2,4.2,4.2,6.4,6.3c0.8,0.8,1.7,1.3,3.4,2.6
				c0-2.8,0-4.7,0-6.6c0.1-44.8,0.3-89.5,0.4-134.3c0-7.5,0-15.1,0-22.6c0-1.8-0.2-3.3-1.9-4.6c-6.1-4.6-12.5-8.8-18.3-13.9
				c-4.1-3.6-9-6.6-13.3-10.1C1172,760.5,1169.4,759.9,1166.2,758.4z M889,549.1l9.1-6.1c-0.1-0.3-0.2-0.7-0.4-1.1
				c-4.7,0.6-9.5,1.3-14.3,1.8c-4.8,0.5-9.4,1-14.1,1.3c-4.9,0.2-9.8,0.3-14.7,0.2c-4.7-0.1-9.4,0.4-14-1.3
				c8.3-0.6,16.5-0.3,24.7-0.7c10.9-0.5,22-0.3,32.4-5.2c2.1-1,4.8-1,7.2-1.2c1.5-0.1,3.3-0.2,4.6,0.5c1,0.6,1.4,2.3,2.6,4.7
				c0.2-2.7,0.3-4.1,0.4-5.9c-43.9-0.4-87.4-0.7-130.9-1.1c-0.1,0-0.2,0.2-0.3,0.4c-0.1,0.2-0.1,0.4-0.2,0.6c3.9,3.1,8.2,5,13.5,4.3
				c4.9-0.6,9.8-0.7,14.7-0.9c9.1-0.4,18.3-1.2,28.2,0.2l-54,2.6c4.7,7.1,2.9,15.1,3.3,22.8c0.5,10.9,0.8,21.7,1.3,32.6
				c0.3,5.5,1.2,6.3,6.8,5.9c15.4-1.2,30.8-2.8,46.2-2.5c6.8,0.2,13.7,0,20,0c2-1,1.8-5,5-2.7l-1.1,2.5c4.2-0.3,8-0.4,11.8-0.7
				s7.6-0.7,11.2-1.1C890.3,590.6,891.1,555,889,549.1z M1213.3,567.4l63.8-3.2c0.3-3.5,0.7-6.6,0.7-9.7
				c-0.2-19.1-0.5-38.2-0.7-57.4c-0.1-4.9-0.1-9.8-0.2-14.7c0-1.6,0-3.3-0.7-4.6c-1.8-3.7-4-7.3-6.1-11.2
				c-18.8,0.4-37.7-4.1-56.7-5.2L1213.3,567.4z M766.4,817.3v34.6l1.1,0.1l0.9-29.5c1.1,7.7,1.2,15.4,1.4,23.2
				c0.1,2.8,0.2,5.6,0.4,8.4c0.1,1.7,1.1,2.5,3.2,1.8c0.4-2.5,0.9-5.1,1.3-7.7l0.7,0.1c0.3,2.5,0.6,5.1,0.9,7.8
				c1.4,0.1,2.5,0.2,3.5,0.2c29.1,0.1,58.3,0.1,87.4,0.2c5.1,0,10.2,0.5,15.2,0.6c9.2,0.3,18.3,2.9,27.9,1.3
				c0.1-1.1,0.2-2.3,0.2-3.5c0-5.4-0.2-10.9,0-16.3c0.2-6.4-1-13,2-19.2c0.3-0.7-0.1-1.7-0.1-2c-8.8,0-17.4,0-26,0
				c-13,0-26,0.2-38.9,0.1c-20-0.2-40-0.9-60-1.1C780.6,816.2,773.8,816.9,766.4,817.3L766.4,817.3z M909.1,860.9
				c-5.2,0-10.8,0.5-16.3-0.1c-14.3-1.6-28.7-1.3-43.1-1.2c-27.8,0.3-55.5,0.1-83.6,0.1c0.7,13,1.4,26,2.1,39.4c3.6,0,6.7,0.2,9.8,0
				c26.4-2,52.9-2,79.4-1.8c10.9,0.1,21.7,0.8,32.6,1.2c4,0.1,8-0.4,11.9,1.3c1.1,0.5,2.7,0.1,4.4,0.1v-29.3l1.2-0.1
				c0.6,9.6,1.2,19.2,1.7,28.8c3.5-0.1,4.4-1.6,4.2-4.1c-0.3-5.3-0.6-10.5-0.8-15.8C912.4,873.4,913.7,867.2,909.1,860.9
				L909.1,860.9z M1166.5,563.9v108.4c1.7-0.4,2.8-0.6,4-1c8.9-2.8,17.7-5.5,27.1-6.3c2.3-0.2,4.6-1.3,6.9-2v-5.8
				c0-15.6-0.1-31.2,0.1-46.8c0-3.9-0.4-7.3-3.4-10c-0.2-0.2-0.2-0.6-0.3-1.1l3.4-1.9c1.2-4.4,0.1-8.1-2.3-11.7
				c-1.8-2.8-3.2-5.8-4.7-8.8c-0.2-0.4,0-1,0-1.6c0.6,0.3,1,0.5,1.5,0.7c0.5,0.2,0.8,0.2,1.8,0.5c-0.5-1.2-0.7-2.4-1.2-2.6
				c-4.1-1.3-8.4-1.9-12.7-2c1.3,4.2,2.4,8,3.6,11.9l-1.1,0.4c-2.1-4.3-4.3-8.7-6.5-13.2l-13.4-2.8l0.2-1.2l35.3,4.3
				c0.2-3.2-1.8-3.4-3.7-3.6c-4.2-0.4-8.4-0.5-12.6-1C1181.1,566,1173.8,564.9,1166.5,563.9L1166.5,563.9z M1198.9,484.8
				c-3.7-2.2-4.6-5.9-5.3-9.4c-1.1-5.3-4.2-7.5-9.4-8c-5.2-0.5-10.3-2-15.7,0c-0.5,10.3-1,20.6-1.5,30.9h-0.9V482h-1.6
				c-0.6,12.8-1.2,25.6-0.8,38.4c0.4,12.8,1.9,25.7,3,38.8c13.2,0,25.8-2.7,38.8-5.1v-6.7c0-17.7-0.1-35.4,0.1-53.1
				c0.1-4.8-0.8-9-3.7-12.8c-1.8-2.4-3.5-5-3.5-8.4l6.7,10.2c0.9-5-1.6-8.1-2.3-11.9l-8.8-1.7L1198.9,484.8z M355.1,1052.5
				c-7.2,1.6-7.3,1.9-6.9,7.8c1,15.4,1.9,30.8,2.9,46.2c0.2,1.3,0.4,2.5,0.8,3.7c1.4-1.2,2.4-1.9,3.2-2.8
				c13.4-13.4,26.8-26.8,40.2-40.2c10.7-10.6,20.5-22.1,33.3-30.5c2.7-1.8,5-4.1,8.2-6.8c-5,0.1-9.1-1.6-12.6,2
				c-0.7,0.7-2.3,0.8-3.5,0.8c-3.1,0.1-6.3,0.1-9.4-0.2c-9.1-0.8-18.1-2.1-27.2-2.7c-10-0.7-20-0.8-29.9-1.1c-1.4,0-2.7,0.2-3.8,0.2
				c-2.7,4.9,3.2,5.1,3.6,7.3c13.2,0.4,26.7-2.7,38.7,5.8c-1.1,0.8-2.5,1.1-3.8,1.1c-4.9-0.6-9.7-1.5-14.6-2.1
				c-7.3-0.9-14.6-1.5-21.9-0.5c-0.2,1.6,0,3-0.6,4s-1.9,1.5-3.4,2.7C350.4,1048.9,352.3,1050.4,355.1,1052.5z M1166.8,680.2
				c-0.2,0.6-0.4,1.2-0.5,1.8c-0.1,23.1-0.2,46.3-0.3,69.4c0,2.7,1.2,4,3.4,5.3c11.5,7,23,14.2,34.5,21.2c1,0.6,2.1,1.1,3.1,1.5
				c0.3-0.5,0.4-0.6,0.4-0.8c0-23.5,0-47,0-70.5c0-0.8-0.2-1.7-0.7-2.3c-2.4-2.6-4.7-5.3-7.9-7.1c-9.3-5.2-18.4-10.9-27.6-16.4
				C1169.7,681.5,1168.3,680.9,1166.8,680.2z M1377.5,795.6c1.5,0.2,3.1,0.8,4.4,0.4c3.8-1.1,6.8,0.5,10,2
				c25.5,11.7,51,23.4,76.4,35c1,0.5,2.1,0.6,3.5,1c0.6-19.5,3.2-38.3,3.9-56.9c-8.2,1.2-15.8,2.3-23.4,3.3c-14,2-28.1,4-42.1,5.8
				c-9.9,1.2-19,6-29.1,6.1C1379.5,792.4,1377.8,792.9,1377.5,795.6L1377.5,795.6z M453.6,1007.4c1.3-1.1,1.8-1.4,2.1-1.8
				c16.9-19,33.8-38,50.6-57c5-5.7,9.6-11.6,14.4-17.4c1.2-1.5,2.8-3,1.6-5.4l-4.3,2.1l5.1-8.4c-3.5-1.3-2.7-4.1-2.7-6.7
				c0-3,0-6.1,0-9.9c-1.9,1.5-3.1,2.4-4.2,3.4c-9,7.8-17.9,15.8-27.1,23.3c-11.2,9.2-22.4,18.6-35.5,24.8L453.6,1007.4z
				 M1277.8,690.7c-22.1,2.5-44,5.9-66,10.2c4.2,4.2,61.4,36.7,66.1,37.7c0.2-2.4,0.4-4.8,0.7-7.1l4.5-0.9c0.1-1.3,0.3-2.5,0.3-3.7
				c-0.1-14.7-0.2-29.5-0.2-44.2c-0.1-17.9,0-35.8-0.1-53.7c-0.1-8.6-0.4-17.2-0.7-25.8c-0.1-1.4,0.5-3.3-1.9-4
				c0.4,42.8,0.7,85.5,1.1,128.1l-1.3,0.1C1276.1,715.4,1279.4,702.9,1277.8,690.7z M784.6,601.1c0.2-0.5,0.3-1.1,0.3-1.6
				c0-12.5,0.1-24.9,0-37.4c0-1.3-0.8-2.6-1.3-3.8c-2.7-5.9-5.7-11.6-8.1-17.6c-1.6-3.9-3.7-5.6-8.5-5.5c-1.5,5-1.9,62.3-0.6,74.9
				c8.5-0.9,17,0.1,25.4,1.3c3.3,0.4,6.6,1,9.8,0.7c3.8-0.3,7.4-2.2,11.2-2.3c15.6-0.5,31.2-0.5,46.8-0.7c0.9,0,1.8-0.1,2.6,0.2
				c7.3,3,14.7,2.3,22.2,1.3c2.3-0.3,4.4-0.8,6.5,0.6c0.9,0.6,3.1,0.8,3.4,0.3c1.9-2.8,5.1-2.1,8.2-3.2c-3-1.7-5.6-2.8-7.9-4.4
				s-4.5-1.6-7-1.5c-8.9,0.7-17.8,1.7-26.7,1.9c-10.5,0.2-21.1-0.8-31.6-0.4c-12.6,0.4-25.2,1.7-37.8,2.5c-1.7,0.1-3.1,0.3-3.8,2.1
				c-0.1,0.3-0.8,0.5-1.4,0.8l-2.3-2.7c-5.8,0.7-11.3,3.9-18,0.9C772.4,603.7,778.8,603.2,784.6,601.1z M826.7,908.4V908
				c5.7-0.3,11.5-0.8,17.2-1c13.8-0.5,27.7-0.9,41.5-1.4c1,0,1.9-0.6,2.9-0.9l-0.2-1.3c-2.4,0-4.8,0-7.2,0c-20.5,0.3-41,0.4-61.5,1
				c-10.7,0.3-21.3,1.4-32,2.2l0.1,1.1l27.2-1.1c-5.3,2-10.9,2.4-16.4,2.3c-6.3-0.1-12.6-0.2-19-0.2c-1.4,0-3.3-0.6-3.6,2.4
				c10.8,0.4,21.4-2.5,32.7-0.8l-33,2.6v4.1c9.5,0.8,18.9,2,28.3,2.3c10,0.3,20-0.2,30-0.2c2.7,0,5-0.3,6.4-4
				c1.3,3.7,3.5,3.8,6.1,3.8c15.4,0.3,30.8,0.7,46.2,1.2c3.6,0.1,7.2,0.8,11.4,1.3c0.2-3.5,0.4-6.4,0.6-9.3c0.1-1.8-0.7-3.1-2.5-3.5
				c-4.9-1-9.6-3-14.9-2.6c-12.8,0.9-25.5,1.6-38.3,2.1C841.4,908.6,834.1,908.4,826.7,908.4L826.7,908.4z M140.4,444.4
				c-2.7,0-5.5-0.2-8.2,0c-4.5,0.4-9,1.4-13.6,1.6c-6.5,0.3-12.3,2.7-17.7,6.1c-18.4,11.3-36.8,22.6-55.1,33.9
				c-0.5,0.3-0.9,0.7-1.4,1.1c0.2,4.2,0.4,8.3,0.7,13C77.4,481.6,108,461.7,140.4,444.4z M1481.5,1162.2v36.1l5.3,1.5
				c-0.3,11.9-0.8,23.9-1,35.9c-0.2,12,0,24.1,0,36.1h9.6c0.6-3.1,1.1-5.8,1.6-8.3c-2-2.1-5.8,1.3-7.4-2.9l8.8-1.3
				c0.3-8.7,0.3-16.9,0.8-25.2c0.3-6.3-0.7-12.1-3.7-17.7c-3.9-7.4-6.1-15.3-7.4-23.5c-0.2-1,0.1-2.1,0.2-3.1c4.6,7,5,15.5,10.5,23
				c0-5.9,0.5-10.8-1.2-15.5c-3.3-9-6.5-18.1-9.7-27.1c-0.6,0.5-1.5,1.3-2.5,2.1C1482.9,1169.3,1482.5,1168.1,1481.5,1162.2z
				 M771.3,620c-2-0.4-2.6,0.3-3.2,1.9c-2.6,6.5-1.3,13.1-1,19.7c0.4,8.2,0.5,16.4,0.7,24.7c0,0.9-0.4,1.9-0.1,2.6
				c2.5,5.2,2.1,10.7,1.6,16.2c-0.1,0.9,0.2,1.8,0.3,3l14.6-12.8c0.2-3.5,0.4-7.1,0.7-10.8c0.7-9.1,1.4-18.2,2.1-27.3
				c0.3-2.3-0.5-4.6-2-6.3c-3.1-3.6-5.9-7.4-9-11c-0.5-0.6-1.6-0.7-3-1.3c0.3,6.2,6,9.1,6,14.8l-6.1-7.7c-0.6,2.5-1.1,4.3-1.5,6.1
				l-1.1-0.2C770.7,627.8,771,623.9,771.3,620z M1478.7,405c-25.8,9-52.2,16.5-78.9,22.4c1.9,0.8,3.9,1.4,6,1.7
				c17.2,3.5,34.4,6.9,51.6,10.4c1.6,0.3,3.3,1.4,4.9-0.3c2.2-2.3,5-2.3,7.8-1.8c2.9,0.5,5.8,1.3,8.9,2v-3.9c-2.2-0.3-4.8,0.1-5.9-1
				c-2.1-2-3.8-1-5.8-0.6c-2.2,0.5-4.4,1.3-6.6,1.7c-3.7,0.6-7.3,0.8-10-2.1l28.3-7.4v-6.8c-16.4,4.3-32.1,10-48.7,12.1
				c15.9-6.6,32.8-10.4,49.8-16.4C1475.4,411.8,1480.3,408.7,1478.7,405z M341.3,921.8c-4.7,1-5,1.2-5.1,5.1
				c-0.4,20.7-0.9,41.4-1.1,62.1c-0.1,7.5,0.5,15,0.6,22.6c0.2,18.1,0.3,36.1,0.5,54.2c0,1.7,0.2,3.3,0.3,5.1c3-0.6,4.4-1.7,4.5-4.6
				c0.2-11.2,0-22.3,0.9-33.5c0.8-10.4-1-21-1.1-31.5c-0.1-9.2-2.9-18.4,0.3-27.6c0.2-0.7,0.2-1.4,0.1-2.1
				C341.3,955.1,341.3,938.7,341.3,921.8L341.3,921.8z M773.3,926.8h130.2c0.3-3.2-1.4-3.7-3.8-3.8c-8.8-0.4-17.5-1.2-26.3-1.4
				c-31.4-0.9-62.8-1.6-94.2-2.3c-1.5,0-3,0.1-4.5,0.2L773.3,926.8z M1204.3,667.7c-4.6,0.6-9,1.1-13.2,1.8
				c-4.3,0.7-8.6,1.5-12.8,2.6c-4,1.1-8.4,1.2-13.2,4.2l14,7.3c4.2,2.2,8.4,4.4,12.5,6.6c4.2,2.2,8.1,5,12.8,7.2L1204.3,667.7z
				 M1276.2,567.1l-59.4,2.3c-0.5,1.4-0.9,2.2-1.3,3.3c1.1,0.3,2.4,0.8,3.8,1.1c10.3,2.1,20.5,4.5,30.9,6.2
				c7.8,1.3,15.6,1.9,23.5,2.6c1.5,0.1,3.2-0.6,5.4-1.1C1274.8,576.7,1278,571.4,1276.2,567.1L1276.2,567.1z M907.2,486.4l-9.3,6.8
				c0.3,12.8,0.7,25.1,1,37.3h13.8v-42.1c-4.7,3.1-7.8,7.6-14,9.4C901.1,492.6,905.9,490.9,907.2,486.4z M1376,432.5
				c-3.6,0.9-6.7,1.8-9.7,2.3c-9,1.5-18,3.2-27,4.1c-9.1,0.9-17.8,4.7-27,1.6l-18.1,4c0.4,0.5,1,0.9,1.7,0.9
				c14.8,1.3,29.7,2.8,44.5,3.9c8.8,0.7,17.4,3.6,26.4,2.4c4.4-0.6,4.6-0.1,3.2-5.1c-4.8,0.2-9.4,3.2-14.7,0.6l10-3.1
				c-12.1-0.7-23.7,2.7-35.7,2.7c15.1-4.7,30.7-7.8,46.4-9.3L1376,432.5z M96.9,450.2l-0.3-0.7c-4.8,0.8-9.6,1.5-14.4,2.5
				c-3.2,0.7-6.5,1.4-9.5,2.7c-7.4,3.2-14.6,6.8-21.8,10.3c-2.5,1.2-4.9,2.5-7.6,3.9c0.4,4.5,0.8,8.8,1.2,13.8L96.9,450.2z
				 M1395.8,592.7c26.3,3,53.2,2.6,80.1,4.3c-0.8-4.5-1.4-8.2-2-11.6L1395.8,592.7z M1527.5,1270.4l65.4-15.3
				c-0.1-0.4-0.1-0.7-0.2-1.1l-62.2,5.3v3c-2.7,0.4-3.7-3.8-7.1-1.8C1524.6,1263.7,1525.9,1266.6,1527.5,1270.4L1527.5,1270.4z
				 M1281.4,446.7c-2,1.1-3.5,1.3-3.9,2.2c-0.6,1.1,0.4,1.9,1.5,2.7c0.9,0.7,0.5,3,0.8,4.6l-0.5,0c-0.2-0.5-0.4-1-0.9-2.1
				c-0.4,2-0.6,3.5-1.1,6.2c-1.2-2.6-1.9-4-2.5-5.3c-6,1.4-11.6,3-17.3,3.9c-5.5,0.9-11.1,1-16.6,1.4v1.2c1.7,0.2,3.4,0.6,5.1,0.7
				c8.7,0.4,17.5,0.7,26.2,1.3c2.6,0.2,4.6,0,6.7-3.3c0.3,2.6,0.6,3.9,0.6,5.2c-0.2,9.9-0.7,19.8-0.3,29.8
				c0.8,22.6,0.9,45.2,1.2,67.8c0,1.6,0,3.2,0,4.8c0.5-0.4,0.8-0.9,0.8-1.5c0.5-29.3,1.1-58.5,1.3-87.8
				C1282.5,468.3,1281.8,458.1,1281.4,446.7z M1149.4,888.7c-3.9,4.6-7,8.6-10.5,12.2c-3.4,3.5-7,6.9-10.8,10
				c-3.8,3.2-7.8,6.1-12.4,9.6c7.7,0.8,13.8,1.2,18.9-4.4c2.4-2.6,5.9-4.3,9-6.4c0.8-0.4,1.7-0.8,2.5-1.1l0.6,0.8l-9.7,10.8
				c2.1,0.1,3.5,0.3,4.8,0.3c4.9-0.1,5.3-0.5,5.8-5.4c0.7-6.6,1.3-13.3,1.8-19.9C1149.6,893.4,1149.4,891.5,1149.4,888.7z
				 M39.9,543.6c-1.4,3.1-1.3,3.1-1.3,5.3c0.1,14.5,0.5,29,0.2,43.5c-0.2,9.4-1.1,18.9-2.2,28.3c-2.1,18.3-3.4,36.6-2.8,55.1
				c0.1,1.6,0,3.3,0,4.9c1.7-11.5,2.3-23,3.3-34.5c0.6-6.9,0.4-13.9,2.9-20.6c1.8-5,2.7-10.5,3.2-15.8c0.4-4.7,0-9.5-0.6-14.1
				c-1.6-12.7-3.3-25.3-2.2-38.2c0.3-3.5,0-7-0.1-10.5C40.4,545.8,40.2,544.7,39.9,543.6z M1368.1,580c-8.5,0.7-16.6,1.6-24.8,1.9
				c-11.8,0.5-23.6,0.5-35.4,0.7c1.2,0.8,2.5,1.3,3.9,1.5c4.5,0.7,9,1.4,13.5,2.1c9.7,1.6,19.3,3.6,29.2,3.4
				c1.3-0.1,2.6-0.4,3.8-0.8c1-0.3,1.9-1.2,2.9-1.3c1.7-0.1,3.4-0.1,5.1-0.1l2.3,2.6l0.9-0.5v-25.4l-0.6,0
				C1368.7,569.4,1368.4,574.6,1368.1,580z M1654.5,1248.9c5.5-16.5,3.9-33.2,3.7-49.8c-0.1-0.1-0.3-0.1-0.5-0.1l-4,1.9
				c-3.9-6-0.3-12.6-2.7-18.4c-0.3,22.2-0.5,44.4-0.8,67L1654.5,1248.9z M1379.6,596.8c1.7,0.4,3.2,1.1,4.7,1.2
				c4.9,0.4,9.8,0.7,14.7,1c13.1,1,26.2,1.9,39.2,3c9.2,0.7,18.4,2.5,27.7,1.2c3.5-0.5,7.3,0.5,10.9,0.9c0.5,0,1,0,1.5-0.1
				c-0.6-1.3-1.2-2.5-1.7-3.6c-32.3-1.5-64.5-2.4-96.5-7.9C1379.9,594.2,1379.8,595.3,1379.6,596.8z M352.5,712l49.6-28.7l-0.4-1.3
				c-1.8,0.1-3.8-0.2-5.4,0.4c-5.7,2.3-11.4,4.5-16.7,7.4c-8.2,4.4-16,9.5-24.1,14.1C352.5,705.6,351.2,707.8,352.5,712z
				 M1367,594.3c-0.7-2.9-3-2.4-5.1-2.5c-8.6-0.4-17.1-0.5-25.7-1.4c-6.4-0.7-12.7-2.4-19.1-3.4c-7.6-1.3-15.2-2.5-22.9-3.4
				c-2.4-0.3-5.2-1.5-7.2,1.2c0.7,2.6,2.8,2.4,4.6,2.6c8.2,1,16.4,1.8,24.5,3c14.9,2.1,29.8,4.3,44.7,6.5
				C1363.5,597.2,1365.8,597.3,1367,594.3z M1206.3,968.4c1.6-5,0.4-8.1-2.7-10.8c-2.9-2.6-5.4-5.5-8.1-8.2
				c-0.9-0.9-1.8-2.4-2.7-2.4c-5.3,0-6.7-4.3-8.9-7.7c-3.4-5.1-12.9-14.6-18.4-17.9c0.6,5.5,3,9.5,7,12.1c3.8,2.4,6.7,5.6,9.6,8.8
				c4.5,4.9,8.9,9.9,13.4,14.8C1198.9,960.7,1202.4,964.3,1206.3,968.4z M263.7,1224.7l1.2,1.2c0.8-1.1,1.6-2.3,2.5-3.3
				c16.2-17.3,32.4-34.5,48.5-51.8c7.8-8.3,15.3-16.9,22.9-25.3c1.3-1.5,3-2.9,1.9-5.8C314.8,1168.2,289.3,1196.5,263.7,1224.7z
				 M1208.8,553.9l1.2,0c0.3-0.6,0.5-1.2,0.6-1.8c0.2-24.9,0.4-49.8,0.5-74.6c0-2.5-1.1-3.6-3.4-3.9c0,3.9,0,7.8,0,11.6
				s0.1,7.7,0.1,11.6s0,7.7,0.1,11.6c0,3.9,0,7.7,0,11.6c0,3.9,0,7.7,0,11.6s-0.2,7.7,0,11.6
				C1208.1,546.6,1206.9,550.5,1208.8,553.9z M78.9,446.5l-0.3-1.2l-43.8,4.1c0.2,2.8,0.3,5.6,0.5,8.8L78.9,446.5z M1464.4,1239.4
				c2.2-3.7,0.4-5.6-1.5-7.6c-18-18.2-35.9-36.5-53.9-54.8c-0.9-0.9-1.9-1.6-3.5-3c0.5,4.2,3.3,5.7,5.3,7.7
				c15,15.7,30.2,31.3,45.1,47.1C1458.9,1232.1,1461.4,1235.7,1464.4,1239.4z M43.3,1024.4c3.3-3,5.6-5.4,8.2-7.4
				c2.3-1.7,3-3.6,2.8-6.3c-0.2-3-0.1-6-0.1-9c0-1.4-0.3-2.9-0.5-5c-3.3,2.4-5.8,4.2-8.4,6c-1.4,0.8-2.1,2.4-2,4
				C43.3,1012.3,43.3,1017.9,43.3,1024.4z M1486.5,432.2l-1.2,0.2c-0.5,14.3-1.2,28.7-1.5,43c-0.3,14.2-0.7,28.4,1.3,42.5
				c0.7-1.7,0.7-3.4,0.7-5.1c0.2-12.3,0.4-24.5,0.7-36.8c0.3-10.5,0.8-21,1.1-31.5C1487.6,440.4,1487.8,436.2,1486.5,432.2z
				 M1517,1260.5l-15.4,1.9c-1.2,3.4-1.8,6.4-1.2,9.7c7.2,0.2,14.1,0.4,21.4-1.4C1520.2,1267.1,1518.7,1264,1517,1260.5L1517,1260.5
				z M381.5,907.4l-0.4-0.8c-1.5,0.7-2.9,1.5-4.4,2.2c-7.4,3.6-13.6,9.1-21.5,11.8c-1.3,0.5-3.3,1.9-3.3,2.9
				c-0.1,3.5-1.2,7.1,0.6,11L381.5,907.4z M1503.2,1211.5c-1.1,8.1-0.8,10.6,2,16c3.7,7,7.3,13.9,11.1,20.8c1.2,2.3,2.5,4.6,3.9,6.8
				c0.4,0.5,1.5,0.6,3.2,1.1C1516.5,1241,1510,1226.7,1503.2,1211.5z M1171.1,562c10.1,2.5,22.9,3,35.6,4.2
				c-0.6-3.1-1.2-5.8-1.7-8.3L1171.1,562z M1482.5,713.5c0,4.9,0.1,9.8,0,14.7c-0.3,16.8-0.7,33.6-0.9,50.4
				c-0.1,5.8-0.6,11.6,1.4,17.2C1484.7,768.4,1485.8,741,1482.5,713.5L1482.5,713.5z M1226.4,458.4l0.1,1.1c2.4,0.3,4.8,0.9,7.2,1
				c1.8,0,4-0.1,5.4-1.1c3.2-2.3,6.7-2.3,10.4-2.8c8.3-1.2,16.5-3.2,24.6-4.9c0.6-0.1,1-1.6,2-3.4L1226.4,458.4z M1658.2,562.7
				c0.8-0.4,1-0.5,1.2-0.5c0.2-0.1,0.3-0.2,0.4-0.3c0.2-0.3,0.3-0.6,0.4-0.9c0.1-0.5,0.1-1.1,0.1-1.6c0-29.8,0-59.7-0.1-89.5
				c0-0.2-0.1-0.3-0.2-0.5c-0.1-0.1-0.3,0-0.5,0c-0.3,0.2-0.8,0.4-0.8,0.6c0.5,30.2,0.8,60.3-1.1,90.4
				C1657.6,561.1,1657.9,561.8,1658.2,562.7L1658.2,562.7z M1504.4,1236l-1.2,0.1c-0.3,7.5-0.7,15-1.1,23l12.7-2.2L1504.4,1236z
				 M1369.3,1126.1c0.9-2.6,0.4-4.6-1.7-6.4c-8.6-7.8-17-15.7-25.6-23.5c-0.7-0.6-1.5-1.2-2.8-2.2
				C1342.1,1099.8,1361.5,1120.5,1369.3,1126.1L1369.3,1126.1z M1478.8,1183h-0.1c-0.2,4.7-0.4,9.4-0.7,14.1
				c-0.8,12.4-1.7,24.8-2.6,37.2c-0.2,2.5,0.9,4.2,3.5,5.4L1478.8,1183z M215.8,1258.7l1.4,0.6c12.5-11.9,25.3-23.3,36.4-36.6
				c-12.2,10.3-24,21-35.8,31.7C216.8,1255.5,216.5,1257.3,215.8,1258.7L215.8,1258.7z M1660.1,622.3c-8.5,4.5-8.5,4.5-8.2,12.6
				c0.1,1.2,0.2,2.4,0.3,4.1l7.9-2.1L1660.1,622.3z M1374.4,784.9l1.6-0.1c0-2.7,0.1-5.5,0.1-8.2c0-13.5,0-27,0-40.4
				c0-1.4,0.6-3.2-1.4-4c-1.3,3-1.9,30.2-1.2,49.6C1373.6,782.8,1374.1,783.8,1374.4,784.9z M211,711.3l1.1-0.1
				c-1-22-1.9-44.1-2.8-63.6c0,16.2,0,34.9,0,53.7c0,2.3,0.3,4.5,0.6,6.8C210.1,709.1,210.6,710.2,211,711.3z M1207.4,698.4
				c1.2-0.5,2.3-0.7,2.3-0.9c0.8-10.4,0.6-20.9,0-31.9c-1.2,0.6-2.3,0.9-2.3,1.2C1207.4,677.1,1207.4,687.4,1207.4,698.4z
				 M1660.1,641.3c-8.8,3.5-9,4.4-7.4,14.3l7.4-2.1V641.3z M1307.1,1066.5c-7.1-11.1-19-24.4-22.8-26.6c0.3,4.5,2.7,7.8,5.4,10.6
				C1295.3,1056.1,1301.3,1061.2,1307.1,1066.5z M37.9,885.7h-0.3v87.8h0.3L37.9,885.7z M1211.5,466.1v-4.6l-19.6,2.9l-0.2,1.1
				l13.8,4.2c0.5-1.6,0.9-2.7,1.2-3.8L1211.5,466.1z M1479.9,970.1c-2.1,17.8-2.6,42-1,45.9C1480.9,1011.8,1481.5,986,1479.9,970.1
				L1479.9,970.1z M217.5,805.1h-1.1v61.8c0.9-10.3,0.8-20.6,0.9-31C217.4,825.7,218.4,815.4,217.5,805.1z M666,923.7
				c-7.7,0.6-15.3,1.2-22.9,1.9c-0.8,0.1-1.5,0.7-2.2,1.1c0.1,0.2,0.2,0.5,0.2,0.7h26.4L666,923.7z M1164.1,760
				c2.2-12,1.3-23.9,0.4-35.9C1163.2,736.1,1163.1,748.1,1164.1,760z M815.5,614c-3.5-0.9-6-0.8-8.4,1.2c-4.4,3.7-8.9,7.2-13.5,10.6
				c-1.2,0.9-2.8,1.4-4.7,2.4c0.3,1,0.6,2.3,1.1,4.3C796.9,623.5,806.7,620,815.5,614z M1477.8,1260.7l1.2-0.3c0-3.3-0.1-6.6,0-9.9
				c0.2-3.5-1.5-5.4-4.3-6.3C1470.8,1250.9,1475.5,1255.5,1477.8,1260.7z M1384,424.5l0.3,1.2c15.2-2.5,30.2-6.2,44.8-11.1
				L1384,424.5z M1568.2,1274.6c0.1,0.3,0.1,0.7,0.2,1.1l46.9-8.7l-0.2-1.2C1599.2,1267.6,1583.7,1271.6,1568.2,1274.6z
				 M1037.4,909.5l-9,12.1c1.7,0.2,3.2,0.1,4.5,0.5c1.3,0.4,2.4,1.2,4.4,2.2L1037.4,909.5z M766.4,814.8l1.3,0
				c0.2-0.4,0.6-0.9,0.6-1.3c0-9.8-0.1-19.6-0.3-29.3c0-0.6-0.7-1.2-1.1-1.8l-1.1,0.2C766.3,793.3,765.5,804.1,766.4,814.8z
				 M240.5,729.2c-6.6,1.2-21.6,12.7-24.3,18.6L240.5,729.2z M43.2,996c3.5-2.7,6.5-5.1,9.5-7.4c1.6-1.3,1.7-2.7,0.7-4.7
				c-2.6,1.6-4.9,3.2-7.5,4.4C42.7,989.8,41.9,992,43.2,996z M363.9,1112.2c3-3.3,5.8-6.4,8.5-9.6c2.7-3.2,5.5-6.5,8.3-9.7
				c-6,4.7-11.4,9.9-16.8,15C362.7,1109.1,361.6,1110.2,363.9,1112.2L363.9,1112.2z M1347,432.9c6,1.4,23.2-2.6,28.1-6.1
				c-1.6,0.3-2.6,0.4-3.5,0.6C1363.4,429.2,1355.2,431,1347,432.9z M39.2,471.4c-4.1,0.3-3.1,2.8-3.1,4.7c-0.1,1.9,0,3.8,0.2,5.7
				c0.2,1.8-0.9,4.1,2.3,6.2C39.4,482.2,38.5,476.9,39.2,471.4z M216.8,1075.2l17.8-11.7l-0.5-0.9c-5.3,2.6-10.7,5.2-16,7.8
				C216,1071.4,215.8,1072.8,216.8,1075.2z M528.5,893.1c0,7.1,0,14.1,0,21.1c0,0.1,0.6,0.2,1.4,0.6
				C530.5,907.5,530,900.2,528.5,893.1z M38.4,507.1c-1.5,5.6-0.7,11.1,0.6,16.7C40.2,518.2,40,512.5,38.4,507.1z M522.9,479.6
				l9.1-6.4l-9.9-1.8C522.4,474.3,522.6,476.3,522.9,479.6L522.9,479.6z M645.6,468.7v0.8h8.4l-1.9,2.2l16.2-2.6c0-0.1,0-0.2,0-0.4
				L645.6,468.7z M912.4,710.6l-0.5,0c-0.5,4.3-1.1,8.5-1.5,12.8c-0.3,2.6-0.4,5.2-0.4,7.8c0,0.6,1,1.3,2.3,2.8L912.4,710.6z
				 M39.7,526.9c-2,3.3-2,9.7-0.5,14.3C40.6,538.5,40.8,534,39.7,526.9z M748,926.9c6.1,2.6,10.9,2.3,13.9-0.6L748,926.9z
				 M527,749.8l-0.8-0.1c-0.4,3.1-0.8,6.1-1.1,9.2c-0.2,3-0.1,5.9-0.1,8.9c0,0.1,0.2,0.2,0.7,0.6C526.2,761.9,526.6,755.9,527,749.8
				z M38.7,490.2c-2.4,3.7-2.4,9.8,0,14.9C39.6,499.7,39.4,495.3,38.7,490.2z M906.8,542.8c-7.6,2.8-12.6,6.3-13.3,9.5
				C898.7,549.6,902.7,546.1,906.8,542.8z M337,1079.5c4.6-2.2,4.6-2.2,3.2-7.3C337.9,1074,335.7,1075.7,337,1079.5z M909.1,926.5
				c3.5-1.7,3.8-5.1,1.6-9.6L909.1,926.5z M1209.4,564.7l1-0.4v-8.2c-3.7,1.4-2.3,4.2-2.5,6.3
				C1207.8,563.1,1208.8,563.9,1209.4,564.7z M788.4,903.4l0.1,1.3l14.9-1.6C798.3,902.4,793.1,900.8,788.4,903.4z M1375.6,454.3
				v-9.9c-1.4,1.5-2.5,2.2-2.5,2.8C1373.2,449.4,1372.2,452.1,1375.6,454.3L1375.6,454.3z M1377.2,798.1v14.7
				C1379.5,803.6,1379.4,799.9,1377.2,798.1z M1102.1,926.3c-6.5-0.5-13-0.8-19.5,0.2C1089.1,927.2,1095.7,927.2,1102.1,926.3
				L1102.1,926.3z M1477.9,630.1c1.9-4.7,0.8-6.4-5-7.7L1477.9,630.1z M36,466.6c3.2-0.7,4.7-2,3.8-5.4l-4.4,0.6c0,0.8,0,1.6,0,2.5
				C35.6,464.9,35.8,465.5,36,466.6z M217.5,791.8c-1.7,4.3-1.7,6.3,0,9.9V791.8z M1166.7,934.9l-0.7,1.1c2.5,2.1,5,4.2,7.5,6.2
				C1171.6,939.3,1170.9,935.1,1166.7,934.9z M209.2,447.3c0.7-7.5,0.6-7.8-0.8-11c-0.2,0.2-0.6,0.5-0.6,0.7
				C208.2,440.4,208.7,443.9,209.2,447.3z M194.1,1287.9l-5.6-1l-0.2,0.8l5.6,5.1C194,1290.7,194,1289.6,194.1,1287.9L194.1,1287.9z
				 M769.4,617.6c3.4,0.7,4.8-3.8,8.1-1.8C773.6,613,772.2,613.3,769.4,617.6z M42.6,463.6l7.9-4.2
				C43.9,459.4,43.1,459.8,42.6,463.6z M785.5,626.6c-1.4-5.2-3.3-7.5-6.9-8.1L785.5,626.6z M344.6,1136.6l1,1.1l6-7l0.4,0.5
				L344.6,1136.6z M540.8,926.9c0,0.3,0.1,0.7,0.1,1c1.9,0,3.8,0.1,5.7,0c1.7-0.1,3.4-0.3,5.1-0.5c0-0.2,0-0.3,0-0.5L540.8,926.9z
				 M911.2,483.8l1.2,0.1l1.4-5.3l-0.9-0.5L908,482C910.7,481.5,912.1,481.4,911.2,483.8L911.2,483.8z M445.1,655.9v6
				C447.1,660,446.4,658,445.1,655.9z M208.2,1272.5h0.4v-9h-0.4V1272.5z M336.3,712.4c4.4-2.9-0.1-4.5,0-6.5V712.4z M1383.6,1140.1
				l0.8-0.3l-1.9-7l-1.4,0.4L1383.6,1140.1z M1373.8,728.2l1.3,0.4c1.8-2,0.8-4.3,0.1-6.5C1374.7,724.1,1374.3,726.1,1373.8,728.2z
				 M1395.7,1163.8l-1,0.9l4.7,5.1l1-0.9L1395.7,1163.8z M1041.7,916.6l-1.1-0.2c0.1,2.1,0.3,4.2,0.4,6.3l0.6,0L1041.7,916.6z
				 M1659,410.7l-1.2-0.1v5h0.2C1658.4,414,1658.7,412.3,1659,410.7z M1381.9,1150.9c-0.3-3.9-0.3-3.9-4.1-5.5L1381.9,1150.9z
				 M1108.2,926.6h8.2C1113.6,924.7,1110.9,924.8,1108.2,926.6z M768.9,923.1l0.3-1.3l-4.5-0.9C765.7,924.2,767.5,923.3,768.9,923.1
				L768.9,923.1z M1377.8,1136.1l1.3-0.3c-0.4-1.5-0.8-2.9-1.1-4.4l-1,0.2L1377.8,1136.1z M359.5,694.6l-0.3-0.7l-4.8,2.1
				c0.2,0.4,0.3,0.7,0.5,1.1L359.5,694.6z M783.4,490l-1.3,0.3c0.4,1.1,0.8,2.3,1.1,3.4l0.7-0.2C783.8,492.4,783.6,491.2,783.4,490
				L783.4,490z M535.3,927.7c-1.3-1.5-2.6-2-4.7,0H535.3z M785.3,905.2c-0.1-0.3-0.1-0.6-0.2-0.9l-2.5,0.6c0,0.2,0.1,0.4,0.1,0.7
				L785.3,905.2z M1370.9,601.2h-1.2c0.2,0.8,0.3,1.6,0.5,2.3l0.8-0.1L1370.9,601.2z M348.4,746.5l-0.9-0.2
				c-0.2,0.9-0.3,1.8-0.5,2.7l0.7,0.2L348.4,746.5z M530.3,917.9l-1.2-0.6c-0.5,1-1,2-1.5,3l1,0.5
				C529.1,919.8,529.7,918.9,530.3,917.9L530.3,917.9z"/>
			<path d="M28.6,1169.6c2.6,28.5,0.6,57.2,2.3,85.9c-0.8,0.3-1.4,0.5-2,0.7c-0.5,0.1-1,0.2-1.5,0.3c-0.8,4.4-0.8,4.4,2.5,14.5
				c-2.8,0.1-4.4-0.9-4.6-3.7c-0.1-1.2-0.1-2.5-0.1-3.7c0.2-25.1,0.3-50.2,0.6-75.3c0.1-6.2,0.9-12.5,1.4-18.7L28.6,1169.6z"/>
			<path d="M793.7,460.5c-29.6,1.8-97,0.7-121-2.7c13.3,0.3,26.6,0.6,39.9,0.9c13.3,0.3,26.7,0.5,40,0.8
				C766.1,459.9,779.6,460.2,793.7,460.5z"/>
			<path d="M1672.9,749.5c-0.3-2.4-0.8-4.7-0.9-7.1c-0.4-18.9-0.6-37.8-1.1-56.7c-0.2-7-0.7-14-1-21c-0.1-1.3,0.1-2.6,0.3-4.7
				C1673.6,667.7,1676.4,741.9,1672.9,749.5z"/>
			<path d="M1346,423.2c-18.3,5.4-37.1,8.1-56,10.2C1308.1,427.2,1326.9,424.9,1346,423.2z"/>
			<path d="M1550.3,387.8c-16.1,3.3-31.8-0.6-47.6-3.1C1518.6,384.4,1534.3,388.3,1550.3,387.8z"/>
			<path d="M1673.5,956.9c1.6,12.4,1.9,24.8,1.1,37.3C1672.9,990.1,1672.4,969.7,1673.5,956.9z"/>
			<path d="M537.9,463.5h34v0.5h-34.1L537.9,463.5z"/>
			<path d="M79.7,1281.8c-5.9,1.7-11.4,0.2-16.8-2.1L79.7,1281.8z"/>
			<path d="M1378.7,413.8c4.6-1.5,8.7-4.4,13.8-4.6l0.4,1.2l-13.8,4.7C1378.9,414.7,1378.8,414.3,1378.7,413.8z"/>
			<path d="M262.1,721.1l1.5-0.5c-3.4,5.5-36.8,31.6-46.5,36.4c0.4-2.7,2.5-3.5,4-4.6c11-8.3,22.1-16.5,33.1-24.8
				c2.6-2,5.1-4.2,7.7-6.3L262.1,721.1z"/>
			<path d="M1453.4,635l-12-15.5l1-0.8c4.9,6.4,10.9,11.9,14.5,19.4L1453.4,635z"/>
			<path d="M905.7,475.8l-2,2.3c-0.2,0.2-0.4,0.4-0.5,0.6C902.5,477.1,903.1,476.4,905.7,475.8z"/>
			<path d="M1656.6,606.8c-13.7,6.9-26.1,15.7-38.5,24.7c-19.4,13.9-39,27.6-58.5,41.2c-4,2.8-8.4,5.1-13,6.8c1.1-1,2.2-1.9,3.3-2.7
				c25.4-16.4,49.4-34.6,73.6-52.7c8.6-6.4,17.5-12.3,27.7-16.1c1.7-0.6,3.7-0.8,5.5-1.1L1656.6,606.8z"/>
			<path d="M1614.6,696.9c-19.2,15.2-38.2,30.5-59.2,43.6c0.4-0.6,0.8-1.2,1.3-1.7c13.2-10.7,26.2-21.5,39.7-31.9
				c5.4-4.2,11.7-7.3,17.6-10.9L1614.6,696.9z"/>
			<path d="M1601.9,625.4c-2.9,2.1-5.9,4.2-8.9,6.2c-10.8,7.1-21.7,14.1-32.5,21.3c-8.4,5.7-16.6,11.6-25,17.4
				c-0.9,0.6-2,1.1-3.2,1.2c22.1-16.8,45.2-32.2,68.8-46.9L1601.9,625.4z"/>
			<path d="M1622.7,689.8c5.4-6.3,10.1-13.2,17.7-17c1.7-0.9,3.4-2.7,5.6-0.7C1644.6,675,1633.8,683.3,1622.7,689.8z"/>
			<path d="M1492.3,847.1v5.8C1490.4,851,1490.8,849,1492.3,847.1z"/>
			<path d="M1633,604.3l-4,3.2l-0.7-1.1l4.8-2L1633,604.3z"/>
			<path d="M58.1,550.7c-1.8-2-1.5-3.3,0-4.5c7.9-6.7,15.6-13.6,23.7-20c4.2-3.3,9.2-5.8,13.9-8.5c20-11.9,40.3-23.5,60.1-35.9
				c13.4-8.3,26.1-17.7,39.1-26.7c1.2-0.8,2.5-1.6,3.7-2.3c0.2,0.3,0.5,0.6,0.7,0.9c-2.4,2.2-4.6,4.5-7.2,6.4
				c-12.1,9.1-24.2,18-36.3,27c-2.9,2.2-5.8,4.3-7.1,8.1c-0.4,1.2-2.1,2.2-3.4,3c-7.7,4.5-15.5,9-23.2,13.4c-1.5,0.9-2.9,1.8-4.9,3
				c3.4,0.7,6.3-2.1,9.5,0.5C102.7,525.1,79.3,535.5,58.1,550.7z"/>
			<path d="M59.7,520.7c0.9-0.9,1.8-1.9,2.8-2.6c24.3-15.1,48.3-30.6,73-45c16.2-9.5,33.2-17.4,49.9-26c2.5-1.2,5.1-2.3,7.8-3.2
				c1.5-0.5,3.1-1,4.6-0.9c1.2,0.1,2.4,1.1,3.6,1.6c-0.8,1-1.3,2.4-2.4,2.9c-5.4,2.9-11,5.5-16.4,8.4
				c-20.6,11.2-41.4,22.3-61.8,33.8c-15.1,8.5-29.9,17.7-44.8,26.5c-3.3,1.9-6.8,3.7-10.3,5.2c-1.6,0.7-3.5,0.6-5.2,0.9
				C60.1,521.8,59.9,521.3,59.7,520.7z"/>
			<path d="M91.5,599c17.3-13.1,74-47,80.1-48.2c-2.4,2-3.9,3.7-5.8,4.8C143.9,568.8,122,582,100,595.2
				C97.4,596.8,94.3,597.7,91.5,599z"/>
			<path d="M138.8,463.9c-20.3,14.9-40.7,29.6-64.9,40.1C76.9,500.3,133.1,465.7,138.8,463.9z"/>
			<path d="M136.7,925.5c-13.3,9.5-26.8,18.8-40.5,27.6l-0.6-0.9l40.1-27.9L136.7,925.5z"/>
			<path d="M146.9,458.3c7.2-5.1,15.5-7.8,24-10.2c-6.2,3.5-12.4,7.1-18.7,10.5c-1.4,0.7-3.3,0.6-4.9,0.8
				C147.1,459,147,458.6,146.9,458.3z"/>
			<path d="M66.7,1259.5c-5.1-3.6-7.6-9.2-11.4-13.8c3.5,1.9,9,8.8,11.3,13.9L66.7,1259.5z"/>
			<path d="M51.1,1252.4l-1.3-3.2l0.6-0.3l1.4,3L51.1,1252.4z"/>
			<path d="M843.2,791.4c-0.2,2,0,3-0.4,3.7c-0.8,1.4-1.7,3.4-3,3.7c-1.2,0.3-3.3-0.7-4.5-1.7c-1.5-1.3-1.3-3.1-0.1-4.7
				c0.5-0.7,0.9-1.5,1.4-2.2c1.2-1.6,2.6-3.3,4.6-2.1C842.6,788.8,842.9,790.8,843.2,791.4z"/>
			<path d="M841.2,742.5c-2.8,2.5-2.3,4.9-0.4,7.2c-1.8,2.6-3.8,2.4-5.9,0.8c-1.8-1.4-1.9-4-0.4-6.7
				C835.8,741.2,836.5,741,841.2,742.5z"/>
			<path d="M914.9,773.8c-1.5,0-3.2,0.4-4.4-0.1c-1.5-0.7-2.6-1-4.3-0.4c-2.2,0.7-3.1-0.8-2.7-3.2l5.3-1c0.5-1.5,0.9-3,1.3-4.4
				l0.9-0.2c0.4,1.4,0.6,2.9,1.3,4.1c0.8,1.5,2,2.7,3.1,4L914.9,773.8z"/>
			<path d="M1023.1,693.2c2.2-2,4-1.4,4.9,0.2c1.1,2.3,1.9,4.8,2.3,7.3c0.2,0.8-0.9,2.4-1.7,2.7c-1.2,0.2-2.4-0.1-3.2-0.9
				c-1.1-1.2-1.6-2.9-1.8-5l3.4,3.2C1028,696.3,1027.4,695.1,1023.1,693.2z"/>
			<path d="M652.9,697.5c0.7-1.2,1.2-2.5,2.2-3.4c0.6-0.6,2-0.8,2.9-0.6c2.5,0.4,3.7,3.6,3,7.4c-0.5,2.8-2.1,4.3-4.7,3.6
				c-1.9-0.5-3.7-1.7-5-3.2c-1.1-1.5-1.3-3.7,1.8-3.9c0.6,1.9,1.4,3.5,4.4,3.6v-6L652.9,697.5z"/>
			<path d="M1049.5,699.4c-1.5-4.3-1.2-5.7,1-7.1c2.4-1.5,5.5-1.3,7.2,0.5c1.9,1.9,2.3,6.3,0.8,8.3c-1.7,2.3-4.7,2.5-9.4,0.2
				c1.8-0.4,3.2-0.6,4.3-1.1c1-0.5,2.2-1.3,2.4-2.1s-0.8-2.7-1.4-2.8c-1.1-0.1-2.5,0.6-3.6,1.2
				C1050.4,696.8,1050.2,697.8,1049.5,699.4z"/>
			<path d="M1153.2,812.6c-6.5,8.4-14.8,14.7-24.4,20.5C1132.1,827.9,1146.7,815.6,1153.2,812.6z"/>
			<path d="M1094,467.3l43.8,1.2c-14.6,1.6-29.2,1.7-43.8,0.1C1094,468.2,1094,467.8,1094,467.3z"/>
			<path d="M1077.4,470.4c-5.7,4.7-11.7,8.9-19,10.7l-0.6-1.1l19-10.7L1077.4,470.4z"/>
			<path d="M1069.9,506.4l-14.4,11.8l-2.6-2.1c5.3-3.9,10.6-7.7,16.4-10.7L1069.9,506.4z"/>
			<path d="M1148.3,825.5c-3.6,5-8,9.2-13.6,12C1138.4,832.7,1143,828.6,1148.3,825.5z"/>
			<path d="M529.3,516.7l3.1-4.7l-2.3,0.4l-0.3-0.5l21.6-13.2l0.5,0.7L529.3,516.7z"/>
			<path d="M620.8,691.1c2,4,1.8,8,0.3,11.7c-0.4,1-2.4,1.9-3.7,1.9c-1.8-0.1-2.7-1.9-2.2-3.5c1-3.1,2.2-6.2,3.5-9.2
				C619,691.6,620,691.5,620.8,691.1z M619.6,696.5l-1.3-0.3c-0.3,1.3-0.7,2.7-1,4l1.1,0.3C618.8,699.1,619.2,697.8,619.6,696.5
				L619.6,696.5z"/>
			<path d="M533.4,527.3c-0.3-0.6-0.7-1.2-1.1-1.7c-0.3-0.3-0.8-0.4-1.6-0.8c4-2.1,6.8-5.6,12.4-6.1
				C540.4,522.9,536.8,524.6,533.4,527.3z"/>
			<path d="M622.8,820.6c2-1.4,4.1-2.8,6.5-4.5C627.4,820.4,627.2,820.5,622.8,820.6z"/>
			<path d="M607.9,810.7l-4.4,3.6C603.7,811.3,605.6,810.7,607.9,810.7z"/>
			<path d="M1381.6,1058.3v32.3C1379.4,1083.5,1379.8,1063.1,1381.6,1058.3z"/>
			<path d="M271.4,722.2c-0.5,0.9-0.9,2.1-1.6,2.7c-11.9,10.4-23.6,20.8-35.7,30.9c-3.9,3.2-8.5,5.5-12.9,8.1
				c-0.7,0.4-1.5,0.4-2.6,0.7c1.2-3.1,17.2-16.6,25.3-22.4c9.1-6.6,17.8-13.8,26.7-20.8C270.8,721.7,271.1,721.9,271.4,722.2z"/>
			<path d="M228.9,765.8l60.5-44.1C279,733.6,241.6,761.5,228.9,765.8z"/>
			<path d="M291.4,719.3l3-2l0.4,0.6l-2.8,2.2L291.4,719.3z"/>
			<path d="M300,713.6l-2.8,2.2l-0.5-0.6l2.8-2.2L300,713.6z"/>
			<path d="M1212.4,797.5c1.1,6.8,2.2,13.7,3.4,20.5c1.3,8.1,2.7,16.2,3.9,24.4c0.3,2.3,0.5,4.5,0.5,6.8c0.1,10.9,0,21.7-0.7,32.6
				c-2.9-28-5.7-56-8.6-84L1212.4,797.5z"/>
			<path d="M1246.4,747.2c-0.4,2.8-0.3,4.7-1,6.2c-0.6,1.2-2.1,2.6-3.3,2.6c-1.2,0.1-3.2-1-3.7-2.1c-0.8-1.9-1.2-4-1.1-6
				c0.1-2.1,0.8-4.1,1.5-6.1c1-2.9,3.3-3.4,5-0.9C1245.1,743,1245.7,745.6,1246.4,747.2z M1241.3,742.6c-1,3.6-1.2,6.4,1,9
				C1243.2,748.7,1244.3,745.9,1241.3,742.6L1241.3,742.6z"/>
			<path d="M1222.7,942v16C1220.8,953.5,1220.8,951.8,1222.7,942z"/>
			<path d="M228.2,720c-5.4-3.2-9.5-9.3-10-14.4L228.2,720z"/>
			<path d="M231.9,697.1l6.7,8.1c-0.4,0.3-0.8,0.6-1.2,0.9c-1.7-3.1-4.4-5.5-5.3-9.1L231.9,697.1z"/>
			<path d="M232,697l-3-3l0.9-0.7c0.7,1.2,1.3,2.5,2,3.7L232,697z"/>
			<path d="M424.1,692.3l-24.6,15.2c-0.2-0.3-0.4-0.7-0.6-1c7.9-5.6,16.2-10.7,24.7-15.3L424.1,692.3z"/>
			<path d="M235.2,565.6l-2.3-3.9l1.1-0.7c0.8,1.2,1.6,2.5,2.4,3.7L235.2,565.6z"/>
			<path d="M1425.4,859c-1.9-5.5,1.1-10.4-0.4-15c-3.6-2.5-3,4.1-6,2.8c-0.2-3.8,1.2-5.9,4.2-6.1c2.1-0.2,4.1,0.6,4.2,2.9
				c0.2,4.4-0.1,8.7-0.3,13.1C1427.2,857.3,1426.4,857.8,1425.4,859z"/>
			<path d="M1415.9,848.9c2.6,4.3,2.7,4.6,1.5,10.6C1415,856,1416.1,852.3,1415.9,848.9z"/>
			<path d="M374.6,945.2c-5.7,7.5-13,13.2-20.8,19.5C355.3,960,367.6,948.4,374.6,945.2z"/>
			<path d="M454,684.2l21.6-15.6l0.6,0.5c-0.7,0.8-1.4,1.5-2.2,2.2c-4.7,3.6-9.4,7.2-14.3,10.6c-1.6,1.1-3.8,1.4-5.7,2.1L454,684.2z
				"/>
			<path d="M481.3,696.1l2.3-1.9l0.5,0.5c-0.3,0.4-0.7,0.8-1.1,1.1c-0.4,0.3-0.9,0.6-1.4,0.9L481.3,696.1z"/>
			<path d="M280,1049.8c-0.2,4.5-1.7,8.8-4.2,12.5c-1.1,1.5-2.4,2.8-4.4,2c-2-0.8-1.8-2.7-1.7-4.5c0.1-2.4,0.1-4.8,0.1-7.2
				c-0.1-1.2,0-2.4,0.1-3.6c0.7-3.5,3.2-5.3,6.3-4.7C279.1,1044.8,280.2,1046.4,280,1049.8z M275.6,1049.2l-1.5-0.2
				c-0.4,2.8-0.7,5.5-1.1,8.3C275.1,1054.8,276.4,1052.2,275.6,1049.2L275.6,1049.2z"/>
			<path d="M270.6,968.5c-0.4,1.6-0.8,3.2-1.3,5.3c-2.3-2.8-1.7-5.5-1.3-8.1c0.3-2,2.4-2.6,4.1-1.5c0.9,0.6,1.6,1.3,2.2,2.2
				c2.3,3.6,0.8,11.9-2.5,14.6c-2.3,1.9-5.2,1.2-6.3-1.7c-0.4-1.2-0.5-2.6-0.2-3.9l3,4C271.9,976.3,272.3,974.8,270.6,968.5z"/>
			<path d="M880.9,679.9c-7.7,2.5-75-0.2-85.2-3.2L880.9,679.9z"/>
			<path d="M869.8,660.6l10.1-9.4C877.8,655.7,874.6,658.9,869.8,660.6z"/>
			<path d="M904.7,616.2l-6.5,4.2C900.5,616.7,900.5,616.7,904.7,616.2z"/>
			<path d="M900.8,627.5l-1.8,1.7c-0.1-0.2-0.3-0.3-0.4-0.5l1.8-1.7L900.8,627.5z"/>
			<path d="M1328.4,801.6c-0.9,3.2-1.5,6.2-2.7,8.8c-0.5,1.1-2.5,2.3-3.6,2.1c-1.1-0.2-2.4-1.8-2.9-3.1c-0.5-1.6-0.4-3.4-0.3-5.2
				c-0.1-2.7,0-5.5,0.3-8.2c0.2-1.4,0.8-3.2,1.8-3.8c1.5-0.9,3.5-0.4,4.4,1.1c0,0.1,0.1,0.2,0.1,0.2
				C1326.8,796.1,1327.5,798.9,1328.4,801.6z"/>
			<path d="M285,1141.5c-0.2,0.8-0.4,2.7-1.1,4.4c-0.4,0.9-1.8,1.6-2.8,1.7c-0.5,0.1-1.4-1.4-1.6-2.3c-0.4-2-0.7-4.1-0.8-6.1
				c-0.2-2.7,1.2-4.7,3-4.7c2-0.1,3.2,1.4,3.3,4.3C285,1139.3,285,1139.8,285,1141.5z M282.2,1138.1l-0.9-0.4l-0.9,2.3
				c0.3,0.1,0.6,0.2,0.9,0.3C281.7,1139.6,282,1138.8,282.2,1138.1L282.2,1138.1z"/>
			<path d="M1256,597.2c6.3,8.6,10.4,18.5,16.7,28.4C1268,622.6,1259.7,608.4,1256,597.2z"/>
			<path d="M1259.1,594.2c5.5,7.6,12.5,14.2,15.5,23.5l-16.3-22.9L1259.1,594.2z"/>
			<path d="M490.2,891c2.9-5.4,2.7-7.4-1.6-9.8c1.3-0.6,2.5-1.6,3.1-1.3c1.1,0.5,2.6,1.8,2.6,2.7c0,2.9-0.4,5.8-1.1,8.6
				c-0.4,1.8-1.9,3.1-3.9,2.4c-1.8-0.6-1.9-2.3-1.6-3.9c0.1-0.7,0.3-1.3,0.7-2.6L490.2,891z"/>
			<path d="M875.7,521.7c-0.6-2.5-0.6-2.5,3.1-6.7l-8.3,3.1l-0.2-0.7l20.9-12.4l0.8,1.1L875.7,521.7z"/>
			<path d="M861.6,515.9c7.4-6.1,14.8-12.3,23.7-16.3C882.7,503.2,865.4,515.2,861.6,515.9z"/>
			<path d="M799.4,506.1l-5.8,4.5C794.7,507.9,796.3,506.1,799.4,506.1z"/>
			<path d="M890.1,516.7l1.8-1.5l0.5,0.4l-1.5,1.8L890.1,516.7z"/>
			<path d="M816.3,547.7c-4.2,3-8.4,6-12.5,9.2c-4.1,3.1-8.1,6.4-12.5,9.2c7.2-7.6,14.6-14.9,24.3-19.2L816.3,547.7z"/>
			<path d="M880.6,587c-0.2,3.4-4.7,4.2-2.1,8.4l-5.3-2L880.6,587z"/>
			<path d="M877.8,570.7l7.9-8.6l0.9,0.9c-2.8,2.7-4.9,6.1-8.9,7.6L877.8,570.7z"/>
			<path d="M871.5,576l6.3-5.3l-0.1-0.1l-6.3,5.3L871.5,576z"/>
			<path d="M859.2,586c-0.7,1.4-1.5,2.8-2.5,4.9c-0.5-0.9-1.2-1.8-1.1-2c0.9-1.2,1.9-2.3,3-3.3L859.2,586z"/>
			<path d="M871.4,575.9l-4,4.1l-0.8-1l4.8-3L871.4,575.9z"/>
			<path d="M864.3,582.1l-2.4,2l-0.4-0.5l2.3-2.1L864.3,582.1z"/>
			<path d="M839.2,834c-2.1,0-4.4-1.8-4.4-3.6c0-1.8,2.7-3.8,5-3.8c1.8,0.1,3.4,2,3.3,4C843,832.5,841.3,834,839.2,834z"/>
			<path d="M839.3,873.9c-0.7-1-2.2-2.3-2.5-3.9c-0.5-2.3,2-5.1,3.7-4.9c1.7,0.2,3.7,2.7,3.6,4.6C844,871.8,842.1,874,839.3,873.9z"
				/>
			<path d="M832.2,698.5c2.7,3.9,2.7,3.9,5.4,2.6c1.5,2,0.8,4.1-1.1,4.6c-1.4,0.3-3.6-0.9-4.8-2C830,702.1,829.8,700.1,832.2,698.5z
				"/>
			<path d="M1189.9,594.8c6.5,4.6,12.7,14.7,12.6,20.1C1199.3,613.5,1194.8,606.4,1189.9,594.8z"/>
			<path d="M1181.8,707.5c3.3,2.8,5.1,8.8,3.4,12.1c-0.6,1.1-2,2.3-3.1,2.3c-1,0-2.4-1.4-2.8-2.5
				C1177.7,715,1178.1,710.9,1181.8,707.5z"/>
			<path d="M497.4,936.5c-1.6,3.2-2.9,6.2-4.6,9c-1.1,1.7-2.8,2.7-4.9,1.8c-1.9-0.8-2.2-2.6-2-4.4c0.2-2-0.3-4.2,2.7-5
				c0.9-0.2,1.5-2.1,2.2-3.2c0.9-1.6,2.1-3.4,3.9-2.5C496,932.9,496.5,934.9,497.4,936.5z"/>
			<path d="M774.6,551.5c-0.7-1.9-1.4-3.8-2.2-5.6l0.8-0.4l2.1,5.4L774.6,551.5z"/>
			<path d="M895.5,916.1l-37.4-3.5c12.6-1.4,25,0.9,37.5,1.7L895.5,916.1z"/>
			<path d="M832,912.6h-12.4v-0.3H832V912.6z"/>
			<path d="M1419.1,428.4c7.3-6.1,16.5-6.9,25.3-9.7c-0.2,1.2-0.3,1.8-0.5,2.8l25.4-7C1453.2,421.6,1436.1,424.9,1419.1,428.4z"/>
			<path d="M893.8,560.6c1.5-1,3.2-2,4.6-3c2.6-1.9,4.9-4.3,8.7-4.9C904.4,557.6,898.1,561.2,893.8,560.6L893.8,560.6z"/>
			<path d="M774,480.2l6.1,23.1l-1.2,0.3C775,496.3,773.2,488.6,774,480.2C774,480.2,774,480.2,774,480.2z"/>
			<path d="M1272.2,579.3l-29.5-4.2l0.2-1.3l29.5,4.3L1272.2,579.3z"/>
		</g>
	</g>
</g>
</svg>
