<?xml version="1.0" encoding="utf-8"?>
<!-- Generator: Adobe Illustrator 21.0.0, SVG Export Plug-In . SVG Version: 6.00 Build 0)  -->
<svg version="1.1" id="Layer_1" xmlns="http://www.w3.org/2000/svg" xmlns:xlink="http://www.w3.org/1999/xlink" x="0px" y="0px"
	 width="600mm" height="600mm" viewBox="0 0 1700.79 1700.79" style="enable-background:new 0 0 1700.8 1700.8;" xml:space="preserve">
<style type="text/css">
	.st0{fill:#FFFFFF;}
</style>
<g id="Layer_2">
	<g id="Layer_1-2">
		<g>
			<g>
				<path d="M751.3,815.6l74.6-10.8l0.4,1.7c-4.2,2.7-9.3,2.4-14,3.4c-5,1.1-10.1,1.6-15.1,2.4c-4.8,0.7-9.7,1.4-14.5,2
					c-5.1,0.7-10.1,1.5-15.2,2c-5.1,0.4-10.1,0.4-15.5,0.7c-0.2,2.5-0.4,4.3-0.4,6.1c-0.3,44.1-0.5,88.1-0.8,132.2
					c0,3.4,0.7,6.7,0.9,10.1c0.4,4.7,1.1,9.3,1.3,13.9c0.8,19.8,1.4,39.6,2.1,59.4c0.1,0.8,0.3,1.7,0.6,2.5l48.7-7.2v8.4l-48.9,7.3
					c-1,7.7-2,15.3-3,23l1.2,0.3l2.8-5.9c0.5,4.2,1.2,7,1.3,9.9c0.2,10.9,0.2,21.7,0.2,32.6c0,2.5,0.6,5.3-3.3,5.8
					c-0.3,0-0.3,2.2-0.7,3.8l65.2-7.6c0.9,2.8,1.8,5.1,2.9,8.2c-5.3,0.7-10,1.4-14.8,2c-13.7,1.7-27.4,3.5-41.2,5
					c-3.3,0.3-5.2,1.8-7,4.5c-6.3,9.1-9,18.8-8.2,30c1.9,24.2,2.9,48.4,4.1,72.7c0.4,8.7,0.4,17.4,0.5,26.2c0.1,33,0.2,66,0.2,99
					c0.1,0.6,0.3,1.1,0.6,1.6l21.2-2.9c27-3.7,53.9-7.6,80.9-11c30-4,59.9-7.5,90-11.1c10.4-1.3,20.7-2,31.1-3.3
					c5.3-0.7,10.4-2,15.5-3.3c4.9-1.3,9.9-2.6,14.7-4.2c3.7-1.3,6.8-0.8,10,1.7c6.4,4.8,13.2,9.3,20.5,14.4
					c-2.1,0.7-3.3,1.4-4.7,1.5c-27.8,3.9-55.6,7.9-83.4,11.7c-29,4.1-58.2,8-87.2,12.1c-16.4,2.3-32.9,4.7-49.3,7.1
					c-4.8,0.7-9.6,1.7-14.4,2.8c-22.8,5.3-45.9,8.5-69.3,11.1c-41.7,4.7-83,11-124.3,18.5c-14.9,2.8-29.5,6.3-44,10.6
					c-14.9,4.3-30.2,6.9-45.3,10.3c-2.9,0.7-5.8,1.3-8.8,2c-1.4,12.1-3,24.1-4.2,36.2c-0.7,6.7-1.2,13.2-7.9,17.7
					c-3.6-0.3-7.8-0.5-12-1.1c-4.6-0.5-8.5-3.7-9.7-8.2c-3.6-12-6.9-24.1-6.4-36.9c0.2-3.8,0.3-7.6-3.7-10.4
					c-0.5,1.2-1.1,2.3-1.9,3.4c-2.5,3.3-6.2,3.9-9.4,1.3c-1.8-1.4-3.3-3.3-4.8-5.1c-11.5-12.7-20.2-27.3-29.9-41.4
					c-3.4-4.8-7.3-9.4-11-14c-0.7-0.8-1.4-1.4-2.3-2c-2.1,5-3.9,9.7-6.1,14.2c-2,4.1-5.6,7.1-9.9,8.5c-4.1,1.4-6.1,0.5-8.5-3.2
					c-0.7-1-1.2-2.4-2.2-3.1c-5.9-4-8.2-9.6-9.4-16.5c-1.7-8.6-4.1-16.9-7.3-25c-3.2-8.2-5.6-16.6-5.3-25.4
					c0.3-5.5-2.8-8.1-6.5-10.5c-7.6-4.9-13-11.2-13.8-20.6c-0.6-6.7-2.5-13.5-1.9-20c0.3-3.8,1-7.8,1.2-11.8
					c0.3-9.6,0.7-19.1,0.7-28.7c-0.3-45.8-0.9-91.5-0.9-137.3c0.1-117.4,0.3-235,0.8-352.4c0.1-33.6,0.1-67.3,0.4-100.9
					c0.4-41.5,0.9-83,1.7-124.5c0.3-11.5,0.1-23.3,2.9-34.2c2.4-9.4,1.1-18.3,1.6-27.4c0.1-1.4,0.2-3.2-0.4-4.4
					c-4.1-7.9-4-16.5-4.1-25c-0.2-25.1-0.2-50.3,0.1-75.3c0.1-5.9,1.2-11.8,1.8-17.7c0.8-8.6,0.7-17.1-4.5-24.5
					c-1.1-1.6-2-3.3-2.5-5.2c3.2,1.5,4.8,4.6,7.3,6.9c1.2,1.2,3.3,2.5,4.8,2.2c10.7-1.7,21.4-2.1,32.1-2.8c25-1.7,49.8-5.3,74.6-9.4
					c16-2.5,32.1-4.2,48.2-5c35.9-2.1,71.8-3.1,107.8-5.4c25-1.7,49.9-5.3,74.9-7.6c14.8-1.4,29.7-2,44.6-3.1
					c20.2-1.4,40.3-2.4,60.5-4.1c12.7-1.1,25.2-3.7,38-4.9c17.6-1.7,35.2-3.2,52.8-4.1c24-1.2,48-3.3,71.8-5.9
					c22.4-2.5,44.8-4.7,67.3-6.8c21.1-2,42.4-4.1,63.5-5.8c9.5-0.8,19.2-0.8,28.7-1.4c22.3-1.4,44.6-2.8,66.9-4.3
					c12.1-0.8,24.2-1.8,36.3-2.8c4-0.3,7.3,0.6,10.9,2.5c13.9,7.8,28,15.3,42,22.8c3.3,1.8,6.6,3.4,9.1,6.6c1.6,2.1,4.2,3.5,6.6,4.9
					c17.3,10.1,34.5,20.3,52,30c7.2,4,15.1,6.7,22.7,10.1c4.5,2,8.9,4,13.2,6.5c3,1.7,5.5,4.2,9.2,7l8.8,0.5
					c-3.7,6.1-9.4,4.8-14.2,7.2c-0.2,4.1-3.7,4.8-7.7,5.6l-1.6-4.2c-13.5-2.8-26.2,1.4-39.2,3.2c-35.8,5.2-71.7,9.6-107.8,11.3
					c-25.3,1.2-50.4,3.7-75.7,5.7c-2.7,0.3-5.5,0.3-8.3,0.4c-2.8,0.2-5.5-0.3-7.5,3.2c-0.8,1.5-4.6,1.9-7,2
					c-9.6,0.5-19.2,0.8-28.7,1.1c-1.7,0.1-3.4,0.2-5.1,0.3c-5.7,0.7-7.4,3.1-7.4,8.8c0,16-0.2,31.9-0.3,47.9c0,2.6-0.7,5.3-1,8
					l-1.4,0.1c-0.7-3.6-1.3-7-2-10.6c-1.5,8.6,0.4,17.2-1.9,25.6c-1.1-26.6-2.2-53.2-3.3-79c-15.2-5.9-30.1-3.6-44.7-2.3
					c-18.4,1.6-36.8,3.9-55.1,6.3c-4.5,0.6-8.9,2.3-13.3,3.5c0.1,0.5,0.2,1,0.2,1.5l24.1-1.1l0.1,0.8c-25.2,2.5-50.4,4.9-75.6,7.4
					s-50.4,5.2-75.6,6.9c-25.5,1.7-50.9,2.2-77.2,3.3c0,3.1,0,6.2,0,9.3c0.1,14.7,1.4,29.5-0.1,44c-3.9,39.1-1.5,78.2-1.4,117.3
					c0.3,83,1.1,165.9,1.6,248.9C751.3,808.9,751.3,811.6,751.3,815.6z M458.2,1381.5l-2.6-1.4c-0.2,0.5-0.3,1-0.5,1.5
					c-0.4,0.6-0.8,1.3-1.3,1.9c0.8-7.8-3-12.5-7.3-17.1c-0.8,8.1-1,16-1.1,24c0,1.3,0.9,2.8,1.9,3.8c2.5,2.7,5.4,5.3,8.1,7.9
					c2.7-0.4,4.2-1.8,4.4-4.5c0.3-5.5,0.8-11-1.8-16.3c0.4-3,1.1-6,1.2-9c0.1-4.8-0.1-4.8-3.7-7.1
					C454.3,1370.8,455.3,1376.6,458.2,1381.5L458.2,1381.5z M962.7,1339.6l-9.4,1.1c-20,2.4-40.1,4.8-60.1,7.1
					c-44.3,5.2-88.7,10.4-133,15.6c-5.6,0.7-5.6,0.7-7,7.2c0.8,0.1,1.7,0.1,2.5,0c8.7-1.3,17.2-2.5,25.9-3.8
					c59.1-8.5,118.2-17,177.3-25.4C960.2,1341.3,961.4,1340.2,962.7,1339.6l7.3,0.7l0.1-0.7H962.7z M427.1,1282.2l17.2,23.1l1.1-0.7
					c-11.3-23-25.1-44.5-38.8-66.1l-1.4,0.7c3.8,7.5,7.6,15,11.4,22.5c-1.2-1.2-2.5-2.1-3.4-3.5c-2-3.1-3.6-6.3-5.3-9.4
					c-13.2-24.5-26.6-49-39.8-73.5c-1-1.9-1.6-4.2-4.5-5.3c0,13.2,0.1,25.6-0.1,38.2c0,3.6,0.8,7.1,2.5,10.4
					c23.7,45.2,49.3,89.3,75.3,133.2c0.4,0.8,1.2,1.4,2.5,2.8c0.8-8.8,1.6-16.4-2.5-23.9c-6.7-12.1-12.7-24.5-19.1-36.8
					c-3.6-7-7.3-13.9-10.8-21c-0.7-1.4-0.8-3-1.3-4.5c2.2,0.2,3.5,0.8,4.3,1.8c3,3.3,5.8,6.8,8.8,10
					C424.4,1281.3,425.8,1281.6,427.1,1282.2L427.1,1282.2z M390,479.3l4.1,1l-31-64.6c-1,4-2.2,8,0.3,11.5
					c7.4,10.4,12.4,22.1,17.6,33.7c-1.4-1.5-3.1-2.9-4-4.6c-3.9-6.9-7.6-13.8-11.4-20.7c-0.8-1.4-1.8-2.5-3.4-4.8
					c-0.1,6.1-0.8,10.9,1.7,15.5c17.2,31.3,32.6,63.6,47,96.3c5.2,11.6,10.4,23.3,15.5,35c1.1,2.5,2.7,5.1,1.9,9.6
					c-2.2-3.4-3.8-5.5-5-7.9c-5-9.9-10.2-19.6-14.9-29.6c-13.6-28.9-26.9-57.8-40.3-86.8c-1.4-3.1-3.1-6.2-4.7-9.3
					c-1.6,6.4-1.8,12.1,1.8,17.4c2,3,3.5,6.4,5.1,9.6c10.2,19.9,21.1,39.3,29.2,60.2c3.1,7.9,6.5,15.7,9.7,23.6
					c0.5,1.4,0.8,3,1.2,4.5c-4.1-3.4-4.2-3.4-6.1-8.2c-11.5-28.2-24.9-55.4-38.2-82.8c-0.8-1.8-2-3.5-2.9-5.2
					c-1,6.2-1.4,12.4-1,18.7c0.2,2.9,0.8,5.8,2.2,8.4c11.3,21.2,23,42.2,34.2,63.4c13.1,24.9,25.3,50.1,35.6,76.3
					c2.4,6,4.8,12.1,7.1,18.2c0.8-1.7,1.1-3.7,0.9-5.5c-0.3-10-1.1-20-0.7-30c0.6-15.4-1.2-30.1-8.9-43.6c-0.3-0.6-0.5-1.2-0.7-1.8
					c-12.1-31.6-24.9-62.9-40.5-92.9C390.7,482.6,390.5,480.9,390,479.3L390,479.3z M404.3,411.6c-1.3-1.9-2.8-3.6-3.7-5.5
					c-8.2-17.1-16.1-34.2-24.4-51.3c-2.7-5.6-7.5-9.3-14.4-11.2c0.5,2.6,0.8,4.2,1.1,5.9c1.4,5.8,4,11.5,4.2,17.2
					c0.4,9.6,4.1,17.7,8.3,25.8c10.9,20.7,22.2,41.2,32.8,62c10.1,19.9,19.5,40.2,29.3,60.3c0.9,2,1.9,3.9,2.8,5.9
					c0.8-1,1.3-2.3,1.3-3.6c0.3-32.9,0.7-66,1-98.9c-0.1-2.3-0.6-4.6-1.5-6.7c-4.4-10.9-11-20.1-21.1-26.5c-2.5-1.6-4.8-3.6-7.1-5.3
					c-1.3-0.8-2.6-1.5-4.7-2.7c8.5,16.7,18.4,31.6,22.4,49.3c-0.7-0.2-1.3-0.6-1.5-1.3c-1.3-2.5-2.4-5-3.7-7.4
					c-8.8-16-14-34.1-27.7-47.3c-4.9-4.8-10.4-8.4-16-12.2c0.1,1.3,0.4,2.5,1.1,3.6c8.5,14.6,13.8,30.6,20.4,46
					c0.6,1.4,0.7,2.8,1,4.2L404.3,411.6z M374.9,719.4c-1.1-1.7-2.5-3.3-3.3-5.1c-4.6-9.9-9-19.7-13.6-29.6
					c-0.6-1.2-1.4-2.3-2.8-4.6c-0.2,3.6-0.4,5.6-0.4,7.6c-0.3,16-0.3,31.9-0.9,47.9c-0.8,19.2,0.2,38.3,1.7,57.4
					c0.4,5.3,1,10.5,3.9,15.3c13.7,22.7,23.1,47.3,30.9,72.5c0.4,1.4,0.7,2.8,1,4.2c-7.6-11.8-14-24.2-21.2-36.2
					c-7.1-11.9-10.7-25.8-20-38.5c-0.4,3.7-0.8,5.9-0.9,8.2c-0.1,15.8-0.2,31.5-0.2,47.3c0,4.3,2.2,7.9,4,11.5l1.6-0.3v-31.8
					c4.7,6.5,7.3,14.3,7.5,22.2c0.2,7.9,0,15.8,0.3,23.6c0.1,3.4,0.8,6.7,2.2,9.8c7.7,16.3,16,32.4,23.7,48.8
					c19.4,40.9,37.9,82.4,53.7,124.8c1.3,3.4,2,6.9,3,10.4c-3.2-5.5-7-10.7-9.4-16.6c-21.6-52.1-44.7-103.4-68.4-154.6
					c-0.9-2-2-3.9-3.1-5.9c-0.8,1.1-1.2,2.5-1.2,3.9c0.1,36.4,0.2,72.8,0.4,109.2c0.1,3.1,0.7,6.3,2,9.3
					c9.2,22.2,18.7,44.3,27.9,66.5c14.8,35.6,29.4,71.2,43.9,106.7c2.1,5.2,3.4,10.8,5,16.2l-1.8,0.7
					c-25.5-61.1-51.8-121.8-76.3-183.2c-0.5,14.2-0.3,28.3-0.5,42.3c-0.1,4.5,0.8,8.9,2.7,12.9c2.9,6.3,5.5,12.7,8.7,20.1
					c-4.7-3.6-5.5-9.1-11.3-10.4c0,7.5,0.1,14.4-0.1,21.4c-0.1,3.4,0.8,6.8,2.5,9.7c24.1,40.8,46.1,83,65.9,126.1
					c3.2,7,8,13.3,12.7,21.2c1.6-7.6,1.6-13.2-1.5-19.1c-17-32.1-33.7-64.4-50.5-96.7c-1-2-1.8-4-2.7-5.9l1.2-0.5
					c19.3,32.2,35.7,66,54.3,98.7c0.8-10,0.8-20,1-29.8c0.2-10.2,0.7-20.5,0.8-30.7c0.1-10-0.3-20-0.2-30
					c0.2-10.1,0.7-20.2,1.1-30.3c0.4,2,0.6,4.1,0.5,6.1c-0.1,13.8,0,27.6-0.2,41.4c-0.2,11-0.6,22.1-0.8,33.2
					c-0.3,13.8-0.3,27.7-0.4,41.5c0,5.3,2.4,10.1,6.1,12.7c1.3-21.1,0.9-181-0.7-186.6c-1,0.8-2.5,1.3-2.6,2.1
					c-0.4,1.8-0.3,3.8-0.3,5.7c0,11.7,0,23.5,0,35.2c-1-2.1-1-4.2-1-6.3c0.1-10.4,0.2-20.9,0.2-31.3c0-2.1,0.9-5-2.8-5.3
					c2.7-3.3,3.2-7.1,3.1-11.2c-0.2-4.1,0-8.2,0-12.2c0.7,3.2,0.4,6.4,0.7,9.6c0.2,3.2-0.8,6.6,1.1,9.9c3.9-0.7,3.1-3.4,3.1-5.5
					c0.1-15.3,0.1-30.7,0.2-45.9c0-3.4,0.1-6.8-0.1-10.2c-0.1-0.8-1.1-1.7-1.8-2.5l-1.1,0.3v24.9c-0.7-6.5-0.8-13.2-0.7-19.8
					c0.1-6.4-1.3-12.7-3.9-18.5c-10.3-23.4-20.2-46.9-30.3-70.3c-0.8-1.9-1.4-3.8-2-5.7c1.8,1.6,3.1,3.7,4,5.9
					c5.4,12.3,12.7,23.4,20.5,34.4c4.2,6,7.9,12.5,11.6,18.9c1.3,2.1,1.8,4.8,2.6,7.1l1.3-0.3c0-8.1,0-16.1,0-24.2
					c0-1.1-0.3-2.1-0.7-3.1c-2.1-4.6-4.5-9.1-6.4-13.7c-4.6-11-8.9-22.1-13.4-33.1c-1.7-4.2-3.2-8.3-5-12.4
					c-13.4-29.4-26.9-58.8-40.4-88.1c-0.8-1.8-1.5-3.6-2.3-5.3c1.7,1.1,3.1,2.7,3.8,4.5c7.6,15.6,15.4,31.3,23,47
					c7.6,15.9,15,32,24.7,46.8c1.1,1.7,2.4,4.1,4,4.7c3,1,3.7,3.1,4.6,5.5c2.3,6.1,4.8,12.1,7.1,18.2c1.1-12.6,1.4-25.2,1-37.8
					c-0.1-3-2.1-5.9-3.2-8.8c-3.7,0.4-3.6-2.8-4.4-4.8c-3.2-7.2-6.2-14.4-9.2-21.7c-0.6-1.4-1.7-3.2-1.2-4.2c1.8-3.5-0.3-6.1-1.4-9
					c-2.4-6.1-5-12.2-7.4-18.3c-0.7-1.7-1.1-3.5-1.7-5.2c10.2,18.2,18.4,37.2,28.6,56.8c0-17.8,0.2-34-0.1-50.2
					c0-3.6-0.8-7.1-2.2-10.4c-4.2-9.1-7.8-18.3-10-28c-5.4-23.5-14-45.9-24.2-67.8c-12.2-26.2-25.3-52.1-38-78
					c-0.6-1.1-0.9-2.8-1.9-3.3c-4.7-2.5-5.5-7.2-7.4-11.4c-2.1-4.7-4-9.4-6.1-14c-0.5-1.2-1.4-2.1-2.6-3.9
					c-1.3,14.4-0.8,27.9-3.8,42l-2.4-3.4c-1.4,8.8-1.1,8.7,2,16.1c5,12,9.8,24,14.4,36.1c1,2.7,1.5,5.6,2.3,8.5L374.9,719.4z
					 M362.8,316.2c-3.2-0.2-5.3-4.7-9.1-2.6c-1.4,2.7,0,4.4,1.4,6.4c4.4,6.1,11.2,9.7,16,15.2c6.3,7.1,14.9,9.8,24,14.2l-2.5-5.9
					c5.3,8.2,12.6,14.3,20.7,19.4c1.6,1,3.5,1.7,4.9,2.9c11.5,9.3,23.1,18.7,34.6,28.1c0.6,0.5,1.2,1.2,1.5,2c2.4,5,3.3,5.6,8.3,5
					c8.8-0.9,17.7-2.3,26.6-3c11-0.8,22.1-1.2,33.1-1.5c23.4-0.8,46.8-2.1,69.9-6.3c6.9-1.3,13.8-2.2,20.9-2.7
					c10.8-0.8,21.7-1.3,32.5-2c26.7-1.8,53.5-4.3,80.2-5.2c34.9-1.1,69.6-4.7,104.4-7.4c28.2-2.2,56.4-4.7,84.6-7
					c22.5-2,44.9-3.9,67.4-5.9c24.1-2.2,48.3-4.7,72.4-6.8c27.9-2.5,56-5.1,84-7.1c23.5-1.7,46.9-4.8,70.5-6.3c19-1.2,38-4.2,57-6.5
					c18.8-2.4,37.4-5.3,56.3-7.6c9.9-1.2,19.9-1.6,29.9-2.5c2-0.2,4.1-0.6,6-0.8c-3.3-2.7-7-5-10.9-6.8c-19.4-9.3-38.5-19.2-54.4-34
					c-1.3-1.1-2.7-2-4.2-2.7c-19.7-10.1-39.4-20.1-59.1-30.2c-1.9-0.9-4.1-0.9-6.2-1.4c1.2,2.1,2.8,3.1,4.4,3.9
					c9.2,5,18.3,9.9,27.3,15.1c3.4,2,6.4,4.9,9.3,7.6c0.8,0.8,1.1,2.3,1.7,3.5c-2.2-0.3-4.2-1.2-6.1-2.5c-4.5-2.9-8.8-5.9-13.4-8.6
					c-9-5.3-18.3-10.1-27.2-15.5c-2.9-1.8-6.3-2.5-9.7-2c-7.6,0.7-15.3,1.1-22.8,1.6c-3-3.7-3.3-3.9-7.3-4.5
					c-1.7-0.3-3.4-0.4-5.1-0.4c-16.8,0.7-33.6,1-50.4,2.4c-24.4,2-48.7,4.7-73,7.1c-16.7,1.7-33.5,3.5-50.1,5.2
					c-3.2,0.3-6.4,1.1-9.5,1c-2.5-0.1-6,2.2-7.1-2.4c-2.7,0.7-5.9,0.1-8.1,3.1c3.9,4.2,9.3,2.6,13.9,4.1c-2.4,0.7-4.8,1.1-7.3,1.2
					c-20.2,0.9-40.4,1.8-60.5,2.7c-29.3,1.4-58.7,2.6-88,4.4c-35.5,2.1-70.9,4.8-106.3,7c-25.3,1.6-50.5,2.7-75.8,4.3
					c-29,2-58.2,4.1-87.2,6.5c-20.5,1.7-41.1,4.2-61.6,5.8c-17,1.4-33.6,4.5-50.4,7.3c-4,0.7-8,1-12.1,1.4c-22.7,2-45.3,3.9-68,5.8
					c-4,0.3-7.9,0.5-12.4,0.8L362.8,316.2z M683.2,826.2L683.2,826.2c1-0.6,1.8-1.7,2.8-1.9c10.7-1.8,21.4-3.6,32.1-5.2
					c7.7-1.1,15.5-2,23.4-3c0.3-1.1,0.4-2.3,0.5-3.4c0.5-11-0.9-22.2,3.1-32.9c0.3-0.9,0.1-2.1,0.2-3.2
					c0.5-67.5,0.9-134.9,1.4-202.4c0-1.8-0.3-3.6-0.4-5.8l-6.7,0.9l-0.3-0.7l7.1-4c0.2-1.1,0.3-2.2,0.3-3.4
					c-0.1-41.5-0.3-83-0.3-124.5c0-14.4-2.6-28.3-5.9-42.1c-0.5-2.1-0.8-4.1-3.5-4.7c-6.4-1.5-12.7-3.3-19.4-2
					c-2.5,0.5-5.1,0.3-7.6,0.5c-24.3,2.3-48.8,1.2-73.1,5.2c-19.1,3.1-38.6,3.9-57.7,6.8c-15.5,2.3-31.2,3.7-47,3.8
					c-7.5,0.1-14.9,0.5-22.3,0.8c-1.3,0.2-2.5,0.4-3.8,0.8c0.1,0.4,0.1,0.9,0.2,1.4l56.8,2.9v1.5c-16.5,1.2-32.9,2.5-49.5,3.5
					c-11.2,0.7-22.5,0.7-33.8,1.4c-7.6,0.5-9.9,3.5-9.9,11.1c0,1.7,0.5,3.7-0.3,5c-3.3,6.3-3.2,13.1-3.3,19.9
					c-0.3,20.9-0.5,41.7-0.8,62.6c0,1.4,0.2,3.7-0.7,4.2c-3.2,2.5-2.2,5.8-2.2,8.7c0.1,11.5,0.7,23,0.3,34.5
					c-0.4,11.5,2.9,23,0.8,34.6c-0.1,0.5,0.5,1.1,0.8,1.8c31.1-4.2,62.2-8.4,93.5-9.8c-15.5,3.7-31.3,4.7-47.1,6.6
					c-15.7,2-31.4,4.2-47,7.4c0.6,84.1,1.1,167.5,1.7,251.2c10.2-2,20-4.2,29.7-5.9c9.8-1.7,19.8-3.1,29.6-4.5
					c10.1-1.4,20.2-2.9,30.3-4.3c9.9-1.4,19.8-2.9,29.7-4c9.6-1.1,19.2-2.9,29-2.2c-6.5,2-13.2,3.5-19.9,4.5
					c-36.4,5.3-72.9,10.3-109.3,15.5c-6.5,0.9-12.8,2.2-18.6,3.2v222c94-13.8,187.7-22.5,281.2-36.3c0-4.2,0.1-7.8,0-11.4
					c-0.3-9.3-0.8-18.7-1-28c-0.3-16.1-0.5-32.4-0.8-48.6c0-1.4,0.3-3.5-0.4-4.3c-4.4-4.8-3.4-10.8-3.4-16.3
					c-0.1-35.7,0.1-71.5,0.1-107.2c0-2.5,0-5,0-8.2C721.7,820.6,702.4,822.4,683.2,826.2z M467.7,1399.4c3.2-0.3,5.7-0.4,8.2-0.7
					c14.8-1.5,29.6-2.9,44.4-4.7c25.6-3.1,51.1-5.9,76.6-9.7c32-4.8,63.6-11.6,94.8-20.2c3.5-0.9,7-1.4,10.5-2.1
					c-6.1,4.9-13.2,7.1-20.3,9.1c-42.5,11.6-85.9,18.9-129.7,24.2c-23,2.7-46,5.2-69,7.9c-5,0.6-9.9,1.5-14.7,2.3v11.8
					c13.8-3.1,27.2-6.7,40.8-9.2c31.6-5.8,63.3-11.4,94.9-16.2c29.6-4.6,59.4-8.2,89.2-12.1c15.4-2.1,30.7-4.2,46.2-6.4
					c5.2-0.8,5.2-0.8,5.5-7c-7.6-0.4-15,2.6-22.8,1.5l21.8-4.9c0-3,0-5.5,0-8.1c-0.1-15.1-0.2-30.2-0.2-45.3c0-2.7-0.3-5.5,1.9-7.3
					c0,5.8-0.1,11.7,0,17.7c0.1,5.9-1,12.1,1.8,17.9c0.9-1,1.6-2.4,1.8-3.8c1.3-14.4-0.2-83.6-2.5-88.2v16.7h-1.3
					c0-6.7,0-13.4,0-20.1c0-19.2,0.3-38.3-0.1-57.5c-0.3-15.1-1.4-30.1-2-45.3c-0.1-2.6,0.3-5.3,0.6-9.2c1.4,2.5,2.1,4,2.8,5.3
					l0.9-0.4c-0.5-2.2-1-4.4-1.4-6.5c-0.8-0.2-1.5-0.3-2.3-0.3c-12.1,1.3-24.1,2.5-36.2,3.9c-34.9,4.1-69.8,7.8-104.6,12.3
					c-40.5,5.3-80.9,11.3-121.3,17.1c-10.2,1.4-14.4,6.1-15.2,16.3c-0.1,1,0,2.1,0,3.2c0.1,68.8,0.1,137.5,0.2,206.3
					C466.7,1391.4,467.2,1395.2,467.7,1399.4z M745.7,1051.8l-278.9,32.6v73.5c92.7-15.9,185.4-27.9,278.9-37.5V1051.8z
					 M363.1,538.6c-0.5,1.6-0.8,2-0.8,2.3c-0.1,22.2-0.3,44.2-0.3,66.4c0,2.5,0.9,5,1.8,7.3c6.6,17.2,15.6,33,24.5,49
					c17.5,31.7,34.6,63.5,47.3,97.5c5.6,14.9,10.4,30.1,15.5,45.3c0.4,1.4,1.3,2.5,2.5,4.9c0.3-1.1,0.4-2.2,0.6-3.4
					c0.3-34.6,0.7-69.4,0.9-104c0-2.1-0.4-4.2-1.2-6.2c-6.6-15.9-13.7-31.6-20.1-47.6c-19.9-49-45.2-95.3-69-142.3
					c-0.4-0.9-1.4-1.6-2.6-3.1c0,7.6-0.2,14.3,0.1,20.8c0.1,2.7,0.8,5.4,2,7.8c2.4,4.5,5.8,8.4,7.9,13c13.2,28,26.5,56.1,39.4,84.4
					c10.2,22.4,20,45.1,29.8,67.8c1.9,4.2,3.2,8.7,4.8,13.1c-27.3-55-50.4-111.8-76.8-167.7l-1.8,3
					C366.1,544.2,364.8,541.8,363.1,538.6z M384.6,1294.6c1.6,2.1,3.6,4.2,4.9,6.5c6.5,11,13.2,21.8,19.2,33.1
					c6.9,13.2,13,26.7,19.5,40.2c3.1,6.4,10.3,13.2,15.7,14.9c0-5-0.3-9.9,0.1-14.8c0.5-9.2-2.2-17.4-6.9-25.1
					c-24.4-40.2-49-80.2-70.9-121.9c-0.5-0.8-1-1.5-1.7-2.1l-1.3,0.3c-0.3,11.8-0.8,23.6-0.8,35.4c0,3.5,1.1,7,2.5,10.4
					c3.8,9,8.2,17.7,12.1,26.7c3.5,8,6.5,16.1,9.9,24.2c2.7,6.4,7.6,12.5,11.4,14.9l3.2-8.7C396.5,1317.1,388.4,1307,384.6,1294.6z
					 M439.6,540.7l2.1-0.5c-0.6-3.1-0.5-6.4-1.8-9.1c-9.1-20-17.9-40-27.9-59.5c-14.2-27.6-29.4-54.8-44.2-82
					c-1.1-2-2.3-3.9-3.9-6.5c-1.7,5.3-0.4,8.9,1.5,12.9c15.1,30.5,29.8,61.2,45.1,91.5C419.8,505.5,429.9,523,439.6,540.7z
					 M364.9,1136l-1.4,0.3c0,2.5,0.2,4.9,0,7.4c-0.5,6.4,1.1,11.9,4.2,17.6c14,25.3,30.7,48.9,46.7,72.9c0.3,0.4,0.8,0.7,2.2,1.7
					C400.6,1201.1,382.6,1168.6,364.9,1136z M387.8,1364.3l7.5,8.4c0.8-3.7,1.3-6.5,2-9.3c1-3.6,0.2-6.5-2.4-9.3
					c-6.2-6.7-12.1-13.8-18.2-20.5c-4.2-4.7-8.6-9.3-13.8-14.9c0.4,2.6,0.4,3.8,0.9,5c3.8,10.1,7.7,20.2,11.7,30.2
					c2.7,6.9,5.9,13.6,5.5,21.5l5.4,2.1C387,1372.9,387.3,1369.3,387.8,1364.3L387.8,1364.3z M492.3,1474.3c2.5-4.6,6.8-37,5.7-43.4
					l-22.4,4.3c0.2,1.5,0.1,2.6,0.3,3.6c3.3,10.5,6.7,21.1,10.1,31.6C487,1473.6,489.3,1474.4,492.3,1474.3z M349.6,427.7
					c-0.7,4.3-1.3,8.1-1.6,11.8c-0.3,4-0.5,8-0.5,12c0.2,18.3,0.6,36.6,0.7,54.9c0.1,46.4,0,92.7-0.1,139.1v7.3h1.3
					c0.1-2.3,0.3-4.6,0.3-6.9c0.3-35.3,0.6-70.6,0.9-105.9c0.3-23.4,0.9-46.8,1.1-70.1c0.1-7.8,2.3-15.6-0.1-23.4
					c-0.2-0.4,0.8-1.1,0.9-1.7C353.5,438.8,354.7,433,349.6,427.7z M454.1,549.3c0-3.5,0-5.6,0-7.7c-0.3-13.8-0.3-27.6-0.7-41.4
					c-0.6-20.4-1.4-40.8-2.1-61.1c-0.1-2.6-0.8-5.2-1.2-7.7c-0.9,0.8-1.4,2-1.4,3.2c0.3,34.4,0.5,68.9,0.8,103.3
					C449.4,541.7,450.5,545.1,454.1,549.3z M453.9,692.5l1.6-0.1c0-4.6,0.2-9.3-0.1-13.8c-0.3-4.6-1.1-9.3-1.4-13.9
					c-0.3-4.8-0.3-9.8-0.7-14.7c-0.4-4.7-1.2-9.3-1.8-13.9c-0.5-4.3,1.2-8.9-1.6-13.1c-0.5,1.9-0.8,3.7-0.8,5.6
					c-0.3,8.5-0.3,17-0.8,25.5c-0.3,4.6-0.2,9.3-3.8,12.8C447.9,675.8,450.9,684.1,453.9,692.5z M349.2,878.3
					c0,16.7-0.1,33.5,0.1,50.2c0,3,1.1,5.9,4.2,8.7c0.1-2.4,0.3-3.8,0.3-5.3c0.2-13.3,0.3-26.7,0.7-40.1
					C354.4,886.7,353,882.3,349.2,878.3z M349.3,996.3c0,16.6-0.2,33.1,0.1,49.7c0.1,3.5,1.6,6.9,2.5,10.4l1.4-0.3
					c0-14.9-0.1-29.7,0.1-44.6C353.4,1006.1,352.4,1001.1,349.3,996.3L349.3,996.3z M351,1066.3l-1.8,0.2c0.3,19.7-1,39.5,2.2,59.2
					c0.8-1.1,1.4-2.5,1.4-3.9c0-3.4-0.5-6.7-0.5-10.1c0.2-11.6,0.6-23.3,0.5-35C352.9,1073.1,351.7,1069.7,351,1066.3L351,1066.3z
					 M352.2,995.2c0.8-1.8,1.1-2.3,1.1-2.8c0.1-13.8,0.2-27.6,0.2-41.4c0-3.4-1.4-6.4-3.8-8.9c-0.4,1.9-0.6,3.7-0.5,5.6
					c0.1,12.5-0.1,25,0.3,37.5C349.6,988.2,351,991.1,352.2,995.2z M453.1,1370.3c2.5-10-2.3-17.2-6.3-25.9
					C444.9,1354.6,445.8,1362.9,453.1,1370.3L453.1,1370.3z M353.4,401.3c-5,8.5-5.2,20.2,0,25.6V401.3z M362,1291.4l17.9,22.9
					c-2.1-6.5-5.3-12.3-8.3-18.3C370,1292.6,367.5,1291.2,362,1291.4L362,1291.4z M348.9,1236.7c1.7-4.2,2.4-37.6,0-43.9V1236.7z
					 M453.3,1293.1c1.3-8-0.3-14.8-5.4-21.6C446.2,1280,447,1287,453.3,1293.1z M452.7,591.5c-4.8,4.3-3.5,11,4.2,20.3
					c-0.7-3.6-1.2-6-1.6-8.4c-0.2-0.8-0.3-1.9-0.1-2.6C457.3,595.8,457.3,595.8,452.7,591.5z M362.3,409.2c6.6-1.2,5.3,6.4,10.4,8.2
					l-8.3-18.8l-1.3,0.2C362.8,402.1,362.6,405.3,362.3,409.2z M349.2,1251.2l-1.4-0.1c-0.8,6.6-1.6,13.2-2.3,19.9
					c-0.3,2.2,1.1,3.4,3.7,3.6V1251.2z M350.2,1138.8h-0.8v47h0.8V1138.8z M533.2,290.6l0.1,1c6.1-0.5,12.2-0.9,18.3-1.4
					c6.1-0.5,12.1-1.2,18.2-1.8c0-0.3-0.1-0.8-0.1-1.1L533.2,290.6z M409.5,1342.8c-2.3,6.6,0,11.5,8.1,16.3
					C414.7,1353.2,412.2,1348.2,409.5,1342.8z M451.4,554.3l-1.6,0.3c-0.7,5.4,3.5,8.9,5.5,13.2l1.3-0.5L451.4,554.3z M447.2,1309.2
					c0.8,4.9,3,9.2,5.9,13.1C453.3,1317,449.8,1313.3,447.2,1309.2L447.2,1309.2z M462.8,298.4c0.1,0.4,0.1,0.8,0.2,1.2l16.2-2.1
					l-0.1-0.7L462.8,298.4z M425.7,537.1l-1.3,0.9l5.2,10.7l1.6-0.8L425.7,537.1z M464.5,411.1l9.5-2.6c0-0.3-0.1-0.5-0.1-0.8H464
					C464.1,409,464.3,409.9,464.5,411.1L464.5,411.1z M448.8,418.1c1.2-3.1,2.4-6.1-0.9-8.6L448.8,418.1z M349.8,1289.7
					c-0.8-3.8-2.5-5.5-5.5-7.6C344.6,1286.1,346.4,1287.7,349.8,1289.7z M367.6,1288.9l-3.7-6.5
					C362.9,1288.3,362.9,1288.3,367.6,1288.9L367.6,1288.9z M348.4,676.8h0.2v-9.3h-0.2V676.8z M399,491.4l0.9-0.4l-3.9-7.3
					l-0.7,0.3C396.6,486.3,397.8,488.8,399,491.4z M522.8,292.1v0.5l4.1-0.3v-0.3H522.8z M488.1,296v0.2h3V296H488.1z M511.9,293.4
					l-0.1,0.3l1.9-0.3H511.9z"/>
				<path d="M1037.8,1325.2c-1.5,0.3-3.2,1.1-4.5,0.7c-2-0.8-3.8-2.5-6.9-4.6l42-7.6c0-7.2-0.3-14,0.1-20.7
					c0.8-17.2,2-34.4,2.9-51.6c2-36.3,4.2-72.7,2.8-109.1c-0.3-5.3-0.9-10.6-1-16c0-5.8-2.4-10.7-5.2-15.4c-0.8-1.4-2.9-2.3-4.6-2.8
					c-4.2-1.4-8.5-2.4-12.7-3.4c-1.3-0.2-2.5-0.2-3.7,0c-26.7,2.8-53.3,5.6-80,8.6c-24.5,2.7-49.1,5.6-73.5,8.5
					c-19.6,2.3-39.3,4.6-58.9,7c-1.3,0.2-2.5,0.2-4.2,0.3l-2.8-8.7l245.2-29c0.7-8.2,1.7-16.2,2-24.2c0.5-12.3,0.5-24.7,1-37
					c0.2-4.2-0.4-8-3.1-11.5c-87,7.5-173.2,21.2-260.3,32.6v-8.5c87-11.9,173.5-25.1,260.9-33c1-23,0.6-45.3,4.1-67.4
					c1.8,22,2.5,44,2.8,66.7l95.6-9.9c0,0.3,0.1,0.5,0.1,0.8c-20.5,3.6-41,7.1-61.5,10.7c-1,0.2-2.6,0.2-2.9,0.8
					c-2.4,4.7-6.8,3.6-10.6,4.1c-5.7,0.8-11.4,1.2-17,1.8v67.6c11.3,2.5,22.9,2.8,34.3,0.8c50.2-8.1,100.4-16.2,150.7-23.4
					c26.4-3.8,51.8-11.8,78-16.7c3.7-0.7,7.4-1.5,11.6-2.5c0.3-9.1,0.7-17.9,1.1-26.8c0.2-3.7-0.7-7.7,2.5-10.9
					c0.3-0.3,0.3-1.2,0.3-1.9c0-10.2,0-20.4,0-31.4c-11.1,2-21.6,3.7-31.9,5.5c-19.7,3.6-39.2,7.6-59,10.6
					c-14.7,2.2-29.6,2.8-44.5,4.3c-9.3,0.9-18.5,2.3-28,2.5c2.7-0.8,5.4-2,8.2-2.5c18.6-3.5,37.2-6.9,55.9-10.2
					c26-4.6,52-9.1,78-13.5c6.9-1.2,13.8-2,21.3-2.9V735.5c-2.8,0.5-5.3,0.9-7.6,1.4c-37.9,8-75.9,15.2-114.5,19.4
					c-30.5,3.3-61,6.1-91.5,9.3c-15.9,1.6-31.7,3.7-47.6,5.5c-3.2,0.3-6.4,0.5-9.5,0.8c-3.4,0.4-6.9-0.3-9.3,3.7
					c-0.9,1.5-4.6,1.4-7.2,2.2c-0.2,1-0.3,2-0.3,3c-0.3,29.8-0.6,59.6-0.7,89.4c0,7.9,0.8,15.7,0.7,23.6c-0.2,9.8-0.8,19.5-1.4,29.3
					c-0.1,1.5-0.7,2.9-1.6,4.1c-0.9-24.7-4-49.3-3.7-74c0.3-24.9,0.1-49.8,0.1-75.5c-7,0.4-14.1,0.6-21.2,1.2
					c-31.2,2.6-61.7,9.6-92.7,14c-11.5,1.7-23.3,2.5-34.9,3.6c-1.5,0.2-3.1-0.3-4.4-1.1c1.3-0.4,2.5-1.2,3.7-1.4
					c36.8-5.9,73.5-11.7,110.3-17.6c5.7-0.8,11.4-1.3,17.2-2c3.6-0.3,6.8-0.8,10.2-2.7c3.4-2,7.8-1.7,12.1-2.5
					c0.2-2,0.4-3.9,0.4-5.8c0-13,0.4-26-0.1-39c-0.7-15.9,0.6-31.7,0.8-47.6c0.5-31.5,0.8-62.9,1.2-94.4c0.2-12.7,0.1-25.6,0.1-38.3
					c0-2.1,0-4.2,1.2-6.5c0.4,1,1.1,2,1.3,3c0.2,1.7,0.2,3.4,0.1,5.1c0.1,52,0.2,103.8,0.3,155.8c0,2.5-1,5.7,2.1,6.5
					c-0.7,1.8-2,3.5-2,5.3c0.2,17.5,0.5,34.9,0.9,52.4c0.1,4,3.1,6.5,6.5,5.8c2-0.4,4-1,7-1.9l-9.3-3.5c4.2-1,7.8,0.3,11.5,1.7
					c1.5,0.6,3.1,0.8,4.8,0.7c40.3-6.7,80.9-11.3,121.6-14.9c43.3-3.8,86-11.3,128.6-19.4c4.6-0.8,9.3-1.6,13.8-2.4
					c2.3-0.3,4.2-0.9,2.8-4.7c-3.7,0.3-7.4,0.7-11.1,0.8c-2.5,0.2-4.3-0.3-3.2-4.2l14.1-1.3c1.5-5.1,2.2-50.9,0.8-75.2
					c-0.3,7.2-0.2,14.4-0.8,21.5c-0.7,7.2,0.1,14.7-2.6,23.1c-3.1-19-2-155.9,1.3-165.4l1.4,2v-22.8c-7.9-1.1-15.5-0.2-23,1.1
					c-15.7,2.8-31.3,6-47,8.7c-8.2,1.5-16.4,2.5-24.7,2.8c-13.9,0.4-27.3,3.8-40.8,6.7c-22.8,4.8-45.9,7.1-69,9.2
					c-24.2,2.1-48.3,4-72.5,5.9c-2.6,0.2-5.3-0.2-7.9-0.3l-0.3-1.4c1.1-0.5,2.2-1.4,3.4-1.6c14.2-1.8,28.3-3.5,42.5-5
					c29-3.1,58-5.5,87-9.3c11.4-1.4,22.8-1.7,34.2-3.5c23.9-3.8,47.9-7.6,71.8-11.5c2.3-0.3,4.5-1.1,8.2-2l-6-1
					c-0.1-1.7-0.2-3.5-0.3-5.8c15-0.7,29.7,0.8,45.1-2c0.8-25.2,1.9-50.4,2.3-75.7c0.4-25,0.3-50.2,0.5-75.7l8.4-2.8
					c0.2,2.4,0.5,4.1,0.5,5.8c0,35.6,1.4,71.2-0.4,106.6c-2.6,52-0.7,103.8-0.7,155.7c0.1,137.7,0.3,275.5,0.8,413.2
					c0,4-0.7,8,2.1,11.6c0.7,0.9-0.1,3.1-0.4,4.8c-0.5,2.4-1.7,4.8-1.7,7.1c-0.3,42.8-0.8,85.6-0.8,128.4c0,11.5,1.4,22.9,1.6,34.4
					c0.3,16,0.3,31.9,0.3,47.9c0,2.1,0,4.2,0,6.6l4.8-0.4c-3.3-36.1-3.6-71.9-2.2-109.2c2.3,8,5.2,87.6,4.2,108.4l6.5,2
					c-1.3,4.2-1.3,4.2-14.3,8.6c0.2,2,0.4,4.3,0.7,6.5c0.3,2.7,0.8,5.9-2.3,7.3c-3.1,1.4-4.1-2.1-6.2-3.4c-0.7,0.1-1.3,0.2-1.9,0.3
					c-12.7,2.8-12.7,2.8-15.9,15.3s-6.9,24.6-9.9,36.9c-1.1,4.6-4.1,6.5-8.1,6.8c-5.2,0.3-10.2-0.9-13.9-5c-4.5-4.8-7.4-10-6.9-17.1
					c0.5-7.4-0.2-14.8-0.3-23.1c-8.1,1.4-15.3,2.7-22.6,3.7c-19.8,2.6-39.6,5.7-59.5,7.2c-8.1,0.7-16.1,2-24,3.7
					c-23.9,5.3-47.9,9.8-72,14c-23.4,4.2-47,7.5-70.6,11.3c-5.1,0.8-9.5,0.5-13.6-3.1c-3-2.6-6.5-4.7-10.1-7.1
					C1037.1,1327.5,1037.4,1326.4,1037.8,1325.2c8,2.5,15.8,0.3,23.6-1.2c1.7-0.4,3.4-1,5.1-1.7c-0.1-0.4-0.2-0.8-0.3-1.3
					c-2,0.3-4,0.6-5.9,0.8L1037.8,1325.2z M1358.1,1044.4c-21.1,4.1-41.1,7.9-61.1,11.7c-15.5,3-30.7,7.6-46.4,8.7
					c-35.5,2.6-70.6,7.8-105.5,14.4c-17.9,3.4-35.5,8.9-53.8,10.3c-3.6,0.3-7,0.9-10.6,1.4c0,3.6-0.2,6.5,0,9.4
					c0.3,3.8,1.2,7.6,1.1,11.4c-0.4,14.7-1.3,29.3-2,44c-0.9,24.5-1.6,48.9-2.8,73.4c-0.7,12.3-2.3,24.5-3.4,36.9
					c-0.2,2.3-0.1,4.7,0.2,7c0.3,2.5,1.2,4.8,1.3,7.3c0.3,6.4,0.1,12.7,0.3,19.2c0.1,1.5,0.3,3,0.5,4.5l0.8-0.1
					c0.6-6,1.1-12.1,1.9-19.6c4.5,9.9,0.7,19,2.4,27.8c11.5-1.4,22.8-2.8,33.9-4.1c10.1-1.2,20.5-1.6,30.4-3.7
					c67.9-14.1,136-26.9,204.9-35.4c4.2-0.5,8.3-1.4,12.9-2c-0.3-17.7,2.2-34.9-1.3-52h-1.4v28.3c-3.4-3.2-2.7-6.3-2.7-9.2
					c0.1-54.3,0.3-108.5,0.4-162.9C1358.2,1062.3,1358.1,1053.8,1358.1,1044.4z M1317.2,1297.1c0.7,9.3,1.3,17.9,1.9,26.5
					c0.2,2.3,0.3,4.7,0.6,7c0.3,2.3,3.3,4.8,5.8,4.8c2.5,0.1,3.2-1.7,3.8-3.6c0.8-2.5,1.4-4.9,2.1-7.3c2.7-9.3,5.4-18.8,8.2-28.1
					c0.4-1.4,0.7-2.7,1.1-4.5L1317.2,1297.1z M1363.2,534.7h-0.8v91.5h0.8V534.7z M1139.8,1313.8c-0.1-0.3-0.1-0.7-0.2-1l-5.6,1.1
					l0.2,0.8L1139.8,1313.8z"/>
				<path d="M1061.6,541c-1,3.1-4,2.9-6.2,3.3c-4.2,0.6-8.4,0.9-12.7,1.1c-11.2,0.5-22.5,0.7-33.7,1.4c-16.5,1.3-32.9,3.1-49.4,4.7
					c-14.4,1.4-28.6,2.9-43.6,4.4c1.3-4.2,4-4.4,6.7-4.6c9.3-0.8,18.6-1.5,27.9-2.5c19.4-2,38.8-4.2,58.3-5.9
					c11.8-1.1,23.8-1.4,35.6-2.1c3.8-0.3,7.6-0.7,11.4-1.1C1058.2,539.4,1058.2,539.3,1061.6,541z"/>
				<path d="M783.2,564.5c1-0.7,2-1.7,3-1.8c26.4-2.3,52.9-4.5,79.4-6.6c11.6-0.9,23.3-1.7,35-2.5c1.6-0.1,3.2,0,5.2,0
					c-1,3.8-3.8,3.5-6.2,3.7c-13.3,0.9-26.7,1.9-40.1,2.6c-24.8,1.4-49.7,2.8-74.5,4.2C784.4,564,783.8,564.2,783.2,564.5
					L783.2,564.5z"/>
				<path d="M329,815.3c0.8,28,1.5,56,2.3,84.1c0,2-0.3,3.8-0.7,5.7c-0.1,0.5-0.7,0.9-1.2,1.4C325.7,892.6,324.7,826,329,815.3z"/>
				<path d="M1242.6,989.8c3.7-0.2,6.6,1.4,8.2,4.2c1.9,3.2,1.3,7-0.6,10.4c-2.3,4.1-9.3,6.8-13.9,5.4c-3.9-1.1-6.5-6.3-6.1-11.5
					c0.3-3.4,2.2-5.5,5.1-6.7C1237.6,990.7,1240.1,990.4,1242.6,989.8z M1239.5,995.1c-2.4-0.1-4.2,0.4-4.3,3.3
					c-0.2,3.1,1.7,5.2,4.8,5.3c2.5,0.1,3.9-1.5,3.8-4.6C1244,996.1,1242.3,995.1,1239.5,995.1L1239.5,995.1z"/>
				<path d="M935.9,1040.6c0.1,4.8-5.6,9.8-11.2,10.2c-4.8,0.3-9.8-5.9-9.8-12.1c0-4.2,5.1-8.7,10.2-8.7
					C930.5,1030,935.7,1035.1,935.9,1040.6z M927.8,1034.9c-3.1,0.3-6.3-1.1-7.4,2.5c-0.4,1.4,0.3,4.1,1.4,5s3.8,1.1,5.2,0.4
					C930.4,1041.2,929,1038.3,927.8,1034.9L927.8,1034.9z"/>
				<path d="M1057.5,1109.9c0.8,2.8,1.8,5,1.9,7.2c0.1,2.9,0,5.9-1,8.6c-1.3,3.4-4,4.2-7.3,2.7c-7.9-3.6-8.5-7.8-6.5-14.9
					c0.8-3,3.3-4.4,6.3-4.4C1053.1,1109,1055.4,1109.6,1057.5,1109.9z M1054.7,1115c-5-0.1-5.8,0.6-5.7,4.4c0.1,2.1,0.7,3.8,3.2,3.7
					C1055.2,1122.8,1055.7,1121.2,1054.7,1115L1054.7,1115z"/>
				<path d="M1072.7,464.9c1.2,13.2,0.7,60.2-0.7,64.5c-0.2,0.1-0.4,0.1-0.7,0.1c-0.2-0.1-0.3-0.3-0.3-0.4
					c-0.1-20.2-0.2-40.4-0.3-60.5c0-0.8,0.2-1.7,0.4-2.5c0.1-0.3,0.5-0.7,0.8-0.9C1072.3,465,1072.5,464.9,1072.7,464.9z"/>
				<path d="M1379.1,396.8c-0.7-16.2-2.6-32.4-0.3-49.3C1381.6,354.9,1381.8,382.1,1379.1,396.8z"/>
				<path d="M833.9,806c3-4.3,3-4.3,27.5-4.9c-4.2,0.8-8.5,1.8-12.7,2.5C844.2,804.3,839.7,805,833.9,806z"/>
				<path d="M1084.5,458.8l-10.2,1.3C1077.3,456.5,1080.9,458,1084.5,458.8z"/>
				<path d="M1072.7,450.3v6c-2.5-2.5-1.8-4.2-1.3-6H1072.7z"/>
				<path d="M783.2,564.5h-7.5v-0.7L783.2,564.5L783.2,564.5z"/>
				<path d="M760.9,1054c-1-2.6-0.7-3.8,2.5-3.3C762.5,1051.9,761.8,1052.8,760.9,1054z"/>
				<path class="st0" d="M364,1282.3l3.7,6.5"/>
				<path d="M644.9,582.5l-44.6,4.8C604.7,583.1,631,580,644.9,582.5z"/>
				<path d="M701.2,573.2l-56.6,6.2l-0.2-1.3C663.5,577.1,681.9,571,701.2,573.2z"/>
				<path d="M656.2,828.6l5.9,1.1l-0.1,0.8l-6.2-0.5C655.9,829.5,656.1,829.1,656.2,828.6z"/>
				<path d="M683.2,826.2l-5.9,0.7v-1.2C679.3,825.8,681.2,826,683.2,826.2L683.2,826.2z"/>
				<path d="M387.6,338.3l-6.5-8.5L387.6,338.3z"/>
				<path d="M381.3,330.1l-8.1-6.5L381.3,330.1z"/>
				<path d="M709.2,1166.5c0.8-4.5,1-7.9,2-11c1.6-5.3,9.6-6.8,14.4-2.8c4.2,3.5,4.6,11.1,0.9,15.6c-3.8,4.8-10.1,5.9-14.6,2.4
					C710.5,1169.4,709.8,1167.4,709.2,1166.5z M722.2,1157.4c-2.5,0.5-4.4,0.4-5.6,1.3c-2.1,1.5-2.3,4-1.3,6.3c0.6,1,1.6,1.8,2.8,2
					c2.5,0.2,3.7-1.7,4.1-4C722.3,1161.7,722.2,1160.2,722.2,1157.4z"/>
				<path d="M388.4,942.8c-8.9-24.1-19.4-47.8-24.4-73.1c0.4-0.3,0.8-0.4,1.3-0.6c0.3,0,0.4,0.1,0.6,0.2c0.4,0.4,0.8,0.9,1.1,1.5
					c7.6,23.9,15.2,47.7,22.8,71.5L388.4,942.8z"/>
				<path d="M399.6,774.4c2.5,3.4,5.4,6.7,7.5,10.4c1.2,2.1,0.8,4.9,1.2,7.5l-1.6,0.4l-7.8-17.9L399.6,774.4z"/>
				<path d="M446.4,1084.7v5.8l-0.7,0.1c-0.3-2-0.5-3.9-0.8-5.8L446.4,1084.7L446.4,1084.7z"/>
				<path d="M374.8,719.5c0.8,1.4,1.8,2.8,2.6,4.2l-1.2,0.5c-0.4-1.6-0.8-3.2-1.3-4.8L374.8,719.5z"/>
				<path d="M619.3,1081.2c-0.2,8.7-4.8,12.4-12.1,10.8c-3.7-0.8-6.8-7.6-5.2-11.5c1.7-4.2,5.1-6.7,9.1-8.2c3.6-1.4,6.1,0.2,7.3,3.9
					C618.9,1077.8,619.2,1079.5,619.3,1081.2z M614.1,1077.9c-6.1-1.3-7.4,0.4-5.9,7.7C613.8,1085.5,614.9,1084.1,614.1,1077.9z"/>
				<path d="M472.7,1092.5c-0.8,16.9-1.6,33.3-2.4,50.7C467.2,1132.5,468.8,1098.7,472.7,1092.5z"/>
				<path d="M431.7,1137.4l-63.8-154.1l0.8-0.4c1.2,2.2,2.6,4.4,3.7,6.7c7.6,16.8,15.1,33.7,22.7,50.6c2.4,5.3,4.9,10.4,7.2,15.6
					c7.9,18.1,16,36.1,23.4,54.4c3.5,8.6,5.3,17.8,7.9,26.7L431.7,1137.4z"/>
				<path d="M384.4,619.7c8.2,14.2,14.8,29.2,19.7,44.8C400.3,662,389.4,637,384.4,619.7z"/>
				<path d="M404.2,411.7l10,17.7l-1.3,0.7C409.4,424.2,405.3,418.7,404.2,411.7L404.2,411.7z"/>
				<path d="M383.6,467.2l6.5,12.4L383.6,467.2z"/>
				<path d="M420,1271.2c3.3,1.1,3.6,4.2,4.7,6.9L420,1271.2z"/>
				<path d="M1335.4,1066c0.9,0.6,3.2,1.4,4.6,3c3.5,4.2,0.6,8.5-0.4,12.7c-0.8,3.5-4,4.8-7.3,5.1c-4.8,0.5-7.7-1.9-8.5-6.5
					C1322.6,1073.5,1328,1066,1335.4,1066z M1335.9,1070.6c-2.6,1.2-4.8,1.5-5.4,2.7c-0.8,1.4-1.1,4.2-0.3,5.3c0.8,1,3.5,1,5.8,1.5
					L1335.9,1070.6L1335.9,1070.6z"/>
			</g>
			<polygon points="822,1119.8 830.2,1119 827.4,1110.3 819.1,1111.6 			"/>
			<polygon points="1026.5,1321.2 1012.1,1324.4 1040.1,1341 1056.8,1339.2 1035.9,1322.9 			"/>
			<polygon points="804.3,1042.4 812.2,1041.3 812.2,1032.8 804.3,1034 			"/>
			<polygon points="826.2,806.6 833.9,806 839.4,802.4 825.8,804.9 			"/>
		</g>
	</g>
</g>
</svg>
