<svg id="Layer_1" data-name="Layer 1" xmlns="http://www.w3.org/2000/svg" width="600mm" height="600mm" viewBox="0 0 1700.79 1700.79">
  <title>sketches frames</title>
  <g>
    <path d="M328.2,519.18c4.38,4.56,8.74,9.15,13.17,13.67.79.81,1.9,1.83,2.89,1.86,20.22.65,40.44,1.61,60.66,1.59,22.83,0,45.67-1.48,68.5-1.37,19.48.1,38.95,1.65,58.43,2.33,40.18,1.38,80.32,4.31,120.6,1.58,17-1.16,34.17-.28,51.25-.71,18.59-.47,37.19-1.09,55.74-2.26,6.39-.41,12.6-3.07,19-4,24.8-3.56,49.81-3.21,74.74-2.73,36.88.71,73.74,2.34,110.61,3.68a25.4,25.4,0,0,0,15.06-4,10.29,10.29,0,0,1,5-1.46c18-.58,36-1.27,54-1.47,26.17-.29,52.34-.28,78.51-.2,5.67,0,11.34.81,17,1.26l.17,1.32-9.71,2.68c7.69,0,14.56.19,21.42,0,35.51-1.1,71-2.37,106.54-3.47q61-1.89,122-3.61c14.36-.43,28.72-1,43.08-1.32,3.42-.06,6.85,1.23,10.28,1.29,11.27.2,22.54.16,33.81.14,10.66,0,21.33-.1,32-.18,2,0,3.92-.21,5.87-.14,4,.15,7.9.57,11.86.6s7.74-.19,11.6-.49c2.21-.17,4.4-.71,7.55-1.25-3.14-2-5.68-3.68-8.35-5.16-49.94-27.74-99.81-55.61-149.87-83.14-41.73-22.94-84-44.88-123.9-71-13.65-8.94-26.76-18.7-40.11-28.1-1-.7-2.28-1.36-2.69-2.35a25.58,25.58,0,0,1-1.07-5.29c1.76-.1,4-.9,5.21-.15,4.13,2.45,7.87,5.54,11.84,8.25,33.74,23.07,69,43.69,104.92,63q19.57,10.52,39.2,20.92a14.44,14.44,0,0,0,4.63,1.66l-20.95-14.89.93-1.54a17.63,17.63,0,0,1,3.77,1.49c51,35.42,105.76,64.54,160.26,94.06,9.17,5,17.87,10.75,26.95,15.9,4.86,2.75,9.66,6.22,16,2.89,1.21-.64,5.18,1.17,5.65,2.59.6,1.81-.33,5.34-1.84,6.46-8.26,6.11-16.87,11.75-25.44,17.44-3.26,2.17-3.5,4.89.14,8.21-2.84,1.67-5.61,3.12-8.18,4.88-2.17,1.49-5.78,1.5-5.88,5.48,0,.46-2.3,1-3.58,1.28-12.39,2.42-12.48,2.41-12.31,15.1q1.94,143.63,4,287.23c.47,32.06,1.51,64.12,1.8,96.19.15,15.26-.83,30.53-1.31,45.79,0,.67-.22,1.33-.55,3.25a18,18,0,0,1-.81-2.75q-1.43-59.62-2.81-119.26c-.1-4.52.18-9.06-.15-13.56-.1-1.24-1.77-3.34-2.73-3.35-3.43,0-3.52-2-3.49-4.45.07-5.28,0-10.56,0-15.84h-1.25c0,5.29.41,10.62-.1,15.85-.71,7.3-2.74,14.5-3.13,21.8-1.67,31.72-2.11,63.44.11,95.18,1.13,16,1.17,32,2.2,48,.81,12.49,2.64,24.91,3.53,37.4.76,10.7.87,21.45,1.2,32.18.11,3.47,0,6.94.85,10.41,0-11,.09-22.06,0-33.09-.29-28-.49-56-1.1-83.93-.22-10.57-1.68-21.11-2.17-31.67a78.82,78.82,0,0,1,1.31-16.89c7.93,40.75,5.58,81.86,4.61,122.91l1.52.81,1.72-3.18a5.25,5.25,0,0,1,.54,1.32q.8,43.32,1.56,86.65c-3.45,7.76-2.3,16-2.49,24.1-.31,12.7-.32,25.41-.22,38.11,0,6.77-.13,8.34-3.12,13.09h-11.14c-.32,2.94-.68,5.73-.92,8.53-.3,3.61.66,7.58-3.72,9.76-.81.4-1,2.1-1.43,3.23-6.6,17.85-12.91,35.82-19.92,53.51a129.59,129.59,0,0,1-11.09,20.78c-2.5,4-6.3,7.15-9.49,10.7-.8.9-2.17,1.85-2.19,2.79-.11,6-4.3,5.39-8.21,5.47-16.75.35-19.45-2.29-20.34-18.89a95.77,95.77,0,0,0-2.39-18.37c-2.88-11.39-10.21-18.27-22.29-19.63-8.83-1-17.59-2.54-26.43-3.4-11.41-1.12-22.9-1.42-34.26-2.8a29.45,29.45,0,0,1-19.33-10.89c-1.4-1.66-3.62-2.63-5.43-4-9.26-6.73-15.62-15.94-21.49-25.5-1.54-2.52-3.15-3.46-6.12-3.4-39.17.81-78.35,1.3-117.51,2.25-56.4,1.37-112.8,2.81-169.18,4.74-22.65.77-45.25,3-67.89,4.36-8.28.49-16.86,1.63-24.87.14-27.19-5.08-54.35-.63-81.5-.69-37.2-.09-74.46.34-111.6,2.38-27,1.48-53.93-.09-80.87,1.44s-54.09,2.61-81.15,3.71c-3.33.14-4.81,1.35-6.4,4.25-6.34,11.56-15.77,20.55-25.42,29.33a77.6,77.6,0,0,0-5.62,6.36c-4.2,4.74-8.08,9.84-12.75,14-2.26,2-5.95,2.81-9.13,3.44q-21.5,4.31-43.1,8.09c-3,.52-6.5-.94-9.15.1-6.51,2.57-12.66,6.07-18.95,9.21-.92.45-2,1.58-2.66,1.36-3.27-1.1-3.64,1.1-3.93,3.24-.92,6.71-1.85,13.43-2.56,20.17s-.14,14-4.31,20.43l-3.41-1.92c-.26,1.22-.49,2.34-.49,2.34-5.65,1.4-10.6,2.88-15.65,3.71a6.6,6.6,0,0,1-5.35-1.87c-14.66-18.79-24.86-39.46-27.26-63.65-1.57-15.77-3.37-31.61-6.61-47.09-2.38-11.37-1.42-23-4.37-34.17a29.54,29.54,0,0,0-3.68-9.08c-14.77-21.6-30.07-42.85-44.52-64.65-8.08-12.19-15-25.17-22.1-38-1.66-3-3.51-3.91-6-2.28-3.19,2.07-4.76.4-6.25-1.91q-11.19-17.36-22.31-34.74a82.53,82.53,0,0,0-9.3-12.67l3.76,12.4-.53.71c-.76-.8-1.9-1.47-2.21-2.42a117.74,117.74,0,0,1-3.36-11.77c-2.46-11.43-10.91-19.18-16.9-28.46.72,10.87,1.86,21,9.2,30.3,10.38,13.12,18.88,27.72,28.35,41.58,4.31,6.32,4.48,6.2,13.17,7.19-1.07,3.63-1.35,6.77,2.52,9.55,2.75,2,1.72,5.58-.55,8.09-4.17,4.63-9.18,8.15-15.64,7.94-5.24-.17-11.26.12-15.45-2.33-4.59-2.69-8.56-7.79-10.9-12.73-4.64-9.8-7.7-20.33-12-30.33-2.37-5.56-6-10.59-8.76-16-.63-1.23-.8-3.81-.06-4.41,2.67-2.19,1.37-4.58,1.06-7-2.39-18.55-4.82-37.1-7.16-55.67-.64-5.08-.12-10.52-1.77-15.22-1.84-5.27-3.62-10.29-3.52-15.94a3.92,3.92,0,0,0-2.21-3c-3.42-.73-4.1-3.31-5.4-5.94a38,38,0,0,0-6.63-9.64c-4.1-4.19-4.76-8.94-4.66-14.45.38-21.47.47-42.93.61-64.4.07-10.73,0-21.46.59-32.27l.72,4.36.67,0c0-2.32,0-4.63,0-7,.17-26.78.79-53.56.41-80.33-.65-46-2.29-92.07-2.82-138.12-.5-44.14-.32-88.3,0-132.45.16-27.66,1.06-55.33,1.58-83a10.82,10.82,0,0,0-.73-4.39c-4.9-11.18-10.37-22.15-14.73-33.54-2.5-6.52-3.08-13.76-4.83-20.59-1.35-5.26-3.19-10.39-4.81-15.57l-1.14.36a3.28,3.28,0,0,1,.14-.84c4-8.6,4-8.36,13.71-8.11,10.87.28,21.76.17,32.64,0,4-.06,7.79-.93,9.15-5.82.23-.85,2.71-1.54,4.14-1.52,19.81.36,39.62.86,59.43,1.3,8.77.2,17.53.42,26.3.45,2.29,0,4.86.21,5.89-3,.25-.77,2.55-1.19,3.92-1.24a715.92,715.92,0,0,1,83.36,2.44c21.38,1.79,42.84,3.46,64.28,3.71,33.7.4,67.43-.41,101.14-.77,42.35-.46,84.7-.69,127-1.6,19.17-.41,38.3-2.25,57.45-3.42.25,0,.51.22,1.8.83l-6.45,2.21,0,.59c2,0,4,.05,6,0,82.24-2.74,164.47-5.89,246.73-8,26.71-.69,53.48,1.45,80.23,2.12,21.46.54,42.93.84,64.4,1.21q30.16.51,60.33,1c1.49,0,3-.14,5-.24l-1.78-4.29c4.12,1.88,7.45,2.95,10.29,4.78,17.89,11.55,35.67,23.26,53.47,34.94a43.66,43.66,0,0,1,3.53,2.89c-.19.5-.37,1-.56,1.51-2.33-.41-5-.25-7-1.31-9.87-5.22-19.67-10.59-29.24-16.32-2.53-1.51-4.58-4.24-6.15-6.83-1.83-3-4.15-4.18-7.45-3.91-48.63,4-97.36,2.25-146.06,2.7-26.91.26-53.82,1-80.73.8-33.57-.26-67.13-1.51-100.7-1.94-26-.33-52-.4-78,0-46.88.78-93.76,2-140.63,3.09-39.77.94-79.53,2.13-119.3,2.95-7.15.15-14.32-.93-21.48-2.17,29.19-4.8,58.71-4.59,88-7.28-4.89,0-9.77-.13-14.65,0q-109.77,3.25-219.53,6.61c-15.72.48-31.45,1-47.15,2-14.14.82-28.23,2.77-42.38,3.19-23.27.7-46.58.63-69.87.71a34.1,34.1,0,0,1-8.68-1.64c-6.9-1.84-13.72-1.1-20.84-.12v12.47l-1.05.08V352.19H152c1.61,4.4,2.27,9,4.7,12.35,15.91,21.7,31.29,43.86,51,62.43q8.37,7.88,16.69,15.8l-.81,1.33-6.5-2c3,3.47,5.36,6.3,7.87,9,6.81,7.27,13.75,14.43,20.54,21.73,2.75,3,5.16,6.27,7.85,9.32,4,4.59,9.78,7.52,12.9,13.14.67,1.2,2.87,1.49,4.27,2.36a11.29,11.29,0,0,1,2.71,2.3c4,4.78,7.64,9.92,12,14.37,7.61,7.79,15.62,15.17,23.5,22.69,1.38,1.31,2.93,2.44,4.35,3.61.39-3.36.75-6.36,1.23-10.45-45.52-48.87-93.29-104.9-92.9-110.42,2.27,2.27,4.08,3.89,5.67,5.7,27.44,31.45,54.79,63,82.35,94.34,4.47,5.08,9.82,9.39,14.76,14.06a7.47,7.47,0,0,1,2.51,3.67l-4.53-1.42-.55,1c1.42.74,2.86,2.15,4.26,2.11,4.8-.11,9.58-.72,15.84-1.27-2.52-2.9-4.38-5.25-6.45-7.39-1.89-1.95-4.38-3.41-5.91-5.58-1-1.44-.78-3.75-1.1-5.67Zm240,412.58a32.73,32.73,0,0,1,3.5-2.64c7.92-4.57,15.88-9.06,23.68-13.5-1.68-5.63-4.72-1.14-7.84-1.53.78-2.41,1.46-4.49,2.34-7.2l-18.6-26.43-64.58,36.12c3.32,5.07,6.5,9.49,9.2,14.18,2.51,4.36,4.24,9.18,6.88,13.45,1.11,1.79,4.13,4.16,5.5,3.74,5.86-1.81,12.23-.17,17.93-4.3,6.75-4.88,14.7-8.1,22.14-12L534.46,959l20.66,32,66.74-37.71-20.4-29.66c-2.92.22-5.31.7-7.66.54-7.53-.49-14.26,1.89-20.76,5.33C571.45,930.33,569.79,931,568.17,931.76ZM912.54,627.17l.94-.08c.14,2.07.38,4.14.42,6.21.18,10.58.41,21.17.43,31.76,0,22.54-.12,45.08,0,67.62.08,22.69.45,45.38.5,68.07.06,22.3,1.36,44.57,1.24,66.87-.1,18.6-.09,37.21-.19,55.81a64.46,64.46,0,0,1-.66,6.47l-1.29,0c-2.93-21.08-2.77-42.4-3.61-64L814,916.24l20.73,32.54c10.68-5.64,21-11.27,31.53-16.62s21.13-10.44,31.74-15.57a20.27,20.27,0,0,1,4.18-1c.25.61.51,1.21.77,1.82-10.47,6.41-20.86,13-31.44,19.19-10.77,6.32-21.75,12.3-32.77,18.52L864,996.94c5.51-2.68,10.66-5.22,15.83-7.7s10.12-4.75,15.18-7.14a81.14,81.14,0,0,1,15.27-5.84c.31.7.61,1.41.91,2.11l-44.3,24.24c.95,1.76,1.84,3.18,2.5,4.69,5.46,12.59,11,25.16,16.24,37.84.93,2.26.7,5,1,7.52l-1.5.43-5.43-8.13c-25,13.55-49.78,27-74.9,40.63l20.06,34.71c2-1.09,3.73-2,5.41-3,26.66-15.21,53-30.95,80.14-45.33,8.48-4.5,11.41-9.32,11.2-18.55q-1.23-51.94-1.22-103.91c0-25.54.92-51.08,1.36-76.63.12-6.93.57-14-4.77-19.64-.1-.11.13-.53.32-1.2l4.09,3.26c0-1.72,0-2.89,0-4.06-.28-44-.91-88-.7-132,.12-24.48,1.7-49,2.56-73.43.58-16.47,1-32.94,1.63-49.4.08-2.21-.65-3.2-2.71-4.41a96.66,96.66,0,0,1-15.95-11c-2-1.8-3.48-2.7-6-2.56-6,.33-12.09.53-18.14.76q-72.31,2.71-144.64,5.43c-34,1.28-68,2.54-102,4A24.73,24.73,0,0,0,625,591.2q-56.26,30.36-112.33,61.11a9.35,9.35,0,0,0-1.47,1.36l22.39,29.8,44.78-27.25.57.95L535.25,686l19.82,26.47,68.23-42-18.11-28.88,1.71-1.21,21.57,27c.95-.47,1.76-.83,2.54-1.26,24.42-13.3,48.3-27.64,74.27-37.9a4.06,4.06,0,0,0,2.19-1.49c1.93-4,5.75-4.48,9.41-5.44a29.17,29.17,0,0,0,7.14-2.61c5.77-3.31,11.56-4.62,17.53-.9,4.7,2.94,10.49,15.18,9.73,20.28a4.68,4.68,0,0,0-.34-1.47c-2.28-3.21-4.08-7.1-7.1-9.31-1.75-1.28-5-.48-6.63-3.41-.48-.85-3.56-1.19-4.73-.52-3.81,2.2-7.28,5-11,7.62-2.79-1.75-9.63.36-10.48,3.49s1.68,10.62,4.47,11.7a12,12,0,0,0,7,0c1.41-.37,2.41-2.26,3.31-3.18-.54-1.84-1.15-4-1.77-6.05,2.39.29,5,.12,7.13,1,3.78,1.48,6.32,5.57,11.15,5,3.28-.36,6.61-.24,9.3-.32,1,5.76,1.42,12.75,3.48,19.21,1.47,4.62,4.14,8.73,5.24,13.78,1.94,9,15.77,17.95,25.93,18,.13,0,.27-.31.42-.49-15.29-6.17-24.78-15.34-24-24.12,4,3.19,7.52,6.13,11.19,8.91,1.65,1.26,3.45,2.9,5.35,3.17,15,2.08,28.68-.11,38.38-13.47a5.41,5.41,0,0,1,3.16-2.24c6.13-.68,10.09-4.39,12.3-9.56,3.14-7.32,5.58-15,8.13-22.51,1-2.88,1.83-5.46,5.63-4.76.36,3.62.68,7,1,10.43.15,1.42.95,3.1.45,4.22-5.11,11.45-10.29,22.87-15.76,34.14a30.55,30.55,0,0,1-6.2,8.28c-3.83,3.71-6,3.41-9.74-.4l-11.46,7.36c10.58,2.16,26.32-1,32.07-14.24,5.06-11.6,10.45-23.08,18.78-32.87,1.07-1.26,1.34-3.21,2.28-5.61,3.58,1.13,7.22,2.36,10.91,3.43,2.82.82,5.15.4,5.86-3a14.54,14.54,0,0,0-6.59-15.22c-1-.61-2.42-1.51-2.46-2.33-.13-3.42-2.28-3.31-4.67-3.25-1.32,0-2.64-.17-3.91-.25-.41-4.5.94-6.14,4.75-5.54a34.73,34.73,0,0,1,6.42,2.12c11.34,4.19,16.81,13.57,14.69,25.42-.9,5-4.56,8.37-8.77,10.12-4.55,1.89-9.24.5-12.79-3.36-1.05-1.13-2.12-2.25-2.94-3.12-2.55,6.09-4.92,11.76-7.28,17.44-.29.69-.52,1.41-.75,2.13-2.38,7.45-4.48,15-7.22,22.34s-8.11,12.27-15.33,15.2c-7.59,3.08-15.5,3.54-23.6,3.22-9.59-.39-19.19-2.27-28.8,0a10.28,10.28,0,0,1-4.48-.36c-10.64-2.51-17.16-9.75-21.33-19.32a91.07,91.07,0,0,1-7.54-27.7c-.58-6.06-3.37-5.66-8.39-5-6,.76-12.64,1.82-18.26.21-7.27-2.09-12.3-7.65-9.83-18l-72.79,38.77,25.53,33.64c2.34-1.18,4.45-2.29,6.6-3.32q34.69-16.75,69.41-33.46c2.27-1.08,4.85-1.51,7.29-2.25a4.16,4.16,0,0,1-1.87,3.06c-10.68,6.6-20.65,13.64-33.69,16.61s-25.2,10.59-37.66,16.32c-2.92,1.35-5.55,3.35-8.61,5.23,9.93,12.94,19.68,25.46,29.19,38.16,2.09,2.81,3.89,3.49,7.09,1.93,4.49-2.19,9.21-3.92,13.84-5.85l.58,1.21-15.76,10c7.78,10,15.45,19.75,22.89,29.64,1.94,2.58,3.46,2.95,6.31,1.31,14.28-8.21,28.7-16.21,43.05-24.32a27.6,27.6,0,0,0,3-2.21l-48.2-59,1.48-1.24c20.21,16.43,35.29,37.68,52.59,57.2,18.14-11.49,37.5-20.54,54.07-34.27l-6.38-8.09.93-.88a53.76,53.76,0,0,1,5.92,4c2.71,2.35,5,2.2,8.09.41,6.8-4,13.83-7.49,20.84-11,2.76-1.39,5.73-2.36,8.6-3.52.2.36.39.72.58,1.08-7.71,8.69-18.28,13.76-27.19,20.18,8.85,13.19,17.41,26,26.06,38.76.65.95,2,2.08,3,2.06,6.1-.09,12.2-.48,18.49-.78L874.11,772c.42,6.8.81,13.08,1.16,18.62-2.61-4.19-5.75-9.26-9.2-14.82l-53.23,28.9c8.42,11.32,16.42,22.08,24.57,33.06,2-1,3.78-1.76,5.51-2.62,21.1-10.53,42.16-21.13,63.32-31.51,2.67-1.31,2.79-3.06,2.82-5.43.6-41.59,1.15-83.18,1.9-124.77C911.24,658,912,642.58,912.54,627.17Zm502.67,195.52-71.81,37.09c8.67,11.81,16.88,23,25.27,34.43,1.79-.76,3.41-1.49,5.07-2.14,5.35-2.09,10.66-4.28,16.09-6.11,1.42-.48,3.23.21,4.86.37a33.26,33.26,0,0,1-2.74,4.44,10.85,10.85,0,0,1-3,2c-5,2.82-9.92,5.62-15.12,8.57,6.76,9.83,13.53,19.47,20,29.28,1.78,2.68,3.18,3.15,6.17,1.74,10.11-4.76,20.38-9.2,30.62-13.68a25.8,25.8,0,0,1,4.32-1.1l.81,1.8c-11.71,6.81-23.42,13.62-34.88,20.3l49.39,78.39,17.65-7.25c.25.52.49,1,.73,1.55L1452.29,1023c.85,1.78,1.69,3.36,2.35,5,2.85,7.14,5.92,14.2,8.34,21.48,1,3.11,1.17,6.8-2.78,10.06l-15.57-31.75L1320,1095.62c1.35,4.08,2.54,7.7,3.74,11.32l-1.45.88-8.33-9.4-61.35,32.22c1.59,5.41,3.25,10.42,4.42,15.53.32,1.4-.84,3.14-1.32,4.73-1.21-1-2.83-1.71-3.55-3-2.46-4.29-4.61-8.76-7.07-13.53l-55.21,29.29c3.21,7.38,9.65,12.18,10.81,20-8.9-2.21-11.39-10.69-16.94-16.87l-49.68,26.64c2.34,4.31,4.55,7.9,6.28,11.7,1.37,3,3.35,3.61,6.45,3.42,16-.95,32-1.88,48-2.46,69.39-2.47,138.79-3.8,208.22-2.55,3.9.07,5.85-1.3,7.71-4.61,4.87-8.66,10.11-16.94,17.23-24.25,6.63-6.8,13-14.13,17.24-23.12,2.3-4.89,7-8.64,10.67-12.91l1.71,1.34-44.93,62.49.78,1.35c3.58,0,7.17-.23,10.73.07,3.71.31,5.94-1.06,8.26-4,12.12-15.65,24.38-31.2,37-46.45a17.14,17.14,0,0,0,4.33-12.2q-1.92-111.39-3.57-222.77c-.1-6.29,0-12.58,0-19.61-4.46,4.4-5.82,4.07-8,0-5.85-11.06-11.47-22.29-18.09-32.88C1435,851.44,1425.07,837.38,1415.21,822.69ZM935.68,647.61c-.23-.33-.47-.66-.7-1-.19,2.4-.52,4.8-.55,7.21-.4,26.15-1.25,52.31-1,78.46.42,46.58,1.51,93.16,2.37,139.73,0,1.78,0,3.89.84,5.28,4.25,6.75,8.82,13.31,13.42,20.16l50.88-30.39-22.65-35.7c-1.82.92-3.16,1.58-4.48,2.27-9.48,5-18.94,10.12-28.47,15.06-1.43.74-3.2.84-4.81,1.24-.22-.63-.45-1.25-.68-1.87l35.5-20.9-13.44-21.61,1-.65c5.33,6.71,10.65,13.41,16.15,20.32l56.25-31.79-27.45-41.88-65.2,35.39c-.28-.42-.57-.83-.86-1.24,2.58-2.18,4.91-4.8,7.78-6.47,17.09-10,34.3-19.78,51.47-29.65,1.38-.78,2.72-1.62,4.06-2.43l-9.74-18.89,1.56-.88,12,17.88,132.25-73.91-13.9-27,1.82-1.08c6.13,8.21,10.61,17.58,16.5,25.92l124.41-62.42c-8.28-12.45-16.34-24.3-24.07-36.35-2.43-3.8-5.28-5-9.68-4.82-30.2,1.34-60.41,2.74-90.62,3.51-10,.26-18.65,2.49-27,8.15-17,11.53-34.39,22.55-51.86,33.39-11.93,7.4-24.21,14.24-36.5,21.05-2.59,1.45-5.87,1.66-8.84,2.44-.25-.64-.51-1.28-.76-1.93l86.4-57.92c-18.14.82-35.64,1.6-53.15,2.45a6.1,6.1,0,0,0-3.3,1c-3.57,2.72-6.86,5.85-10.53,8.43-9.52,6.7-19.12,13.29-28.87,19.66-1.4.92-3.74.4-5.65.54.49-2,.88-4,1.53-5.9.21-.61,1.1-1,1.72-1.44,7.14-5.09,14.27-10.2,21.43-15.25,2.67-1.87,5.42-3.62,8.36-5.56-.72-.39-1-.63-1.19-.62-22.67.63-45.35,1.25-68,2a6.3,6.3,0,0,0-4.12,2.2c-9.5,12-19.67,23.51-27.94,36.27-4.94,7.62-3.39,17.31-1.12,26.17,0,.07.27.08.91.24,3.82-3.83,7.61-8.11,11.91-11.8a124.32,124.32,0,0,1,14.88-11c1.24-.78,4.47.17,5.7,1.4.74.73,0,4.19-1.16,5.33a43.47,43.47,0,0,1-9.38,7.08C951.44,639.83,943.51,643.64,935.68,647.61Zm414.44-59.31,1.83-.91,14.7,23.89c9.15-4.28,16.92-11.08,27.09-12.84-5.12,9.6-15.34,13.11-23.23,19.82,6.17,10.2,12.22,20.21,18.35,30.33,2-1,3.52-1.76,5-2.55q34.41-18.85,68.81-37.7c2.12-1.16,4.43-2,6.65-3l1.12,1.55c-1.92,2.11-3.58,4.57-5.81,6.29C1449.33,625,1432.75,634.6,1415.4,643c-7.58,3.65-15.08,7.48-23.09,11.47l27,43.82c5.77-2.68,10.63-5.13,15.65-7.18,1.51-.62,3.47-.14,5.23-.16-1,1.33-1.69,3-3,3.91-4.45,3-9.11,5.81-14,8.88,1,1.56,1.91,2.94,2.88,4.25,4.15,5.58,8.54,11,12.35,16.8,1,1.58,1.27,4.93.27,6.34-1.86,2.66-4.62,1.23-6.67-.58a27.22,27.22,0,0,1-3.62-4c-4.51-6-8.94-12.11-13.56-18.37l-51.21,26.58c2,2.78,3.67,5.08,5.24,7.47,4.15,6.29,8.7,12.38,12.22,19,4.75,8.93,8.07,18.65,13.15,27.37,4.36,7.47,10.23,14.08,15.67,20.89,1.12,1.41,3.2,2.21,5,2.9,2.36.9,4.87,1.43,8.17,2.36,3.83-2.92,9.2-4.69,13.78-9.19,5-4.92,13.46-6.31,20.46-9.14.49-.2,1.83.38,1.86.7a2.93,2.93,0,0,1-.68,2.28,27.63,27.63,0,0,1-4.22,2.63c-10.06,5.53-20.13,11-30.38,16.64,14.86,24.79,34.93,46.36,45.87,73.75-1.8-53.51,1.43-107-.51-160.56a149.8,149.8,0,0,0-14.8,9.56c-13,9.24-26.39,17.66-41.32,23.38-1.71.65-3.82.25-5.74.34,1.31-1.45,2.37-3.3,4-4.28,14.7-9,29.61-17.62,44.23-26.72,14.21-8.85,14-9,14.05-26.06.08-18.59.34-37.19.67-55.78.36-20.1,1-40.2,1.23-60.3a7.09,7.09,0,0,0-2.46-4.78,56.65,56.65,0,0,0-23.34-11.6c-1.84-.45-4-1.17-5.07-2.51-.62-.77.64-3,1.18-5.12-2.26,0-4.32,0-6.39,0-13.43-.15-26.86-.18-40.29-.52-4.63-.12-9.23-1.39-13.86-1.5-5.42-.12-10.85.7-16.28.67q-55.35-.33-110.71-.85h-5.08l27,37.86c2.58-1.27,4.84-2.48,7.17-3.54,7.56-3.43,15.06-7,22.76-10.1,2.12-.84,4.86-.13,7.32-.13l.47,2c-10,7.9-22.67,11.24-33.51,18.5l24,36.16,57.06-31.9ZM352,577.28c1.34.06,2.24.17,3.13.14q48.63-1.67,97.28-3.34c9.52-.33,19-.86,28.55-1.07,46.57-1,93.15-1.7,139.71-3.09,17.79-.53,36.1,1.94,53.06-6.29.69-.34,1.75.09,3.73.25l-7,5.28c3.23,0,5.35.05,7.46,0,33.26-.8,66.52-1.85,99.78-2.37,40.69-.63,81.37-.89,122.06-1.15,6.34,0,12.68.64,19,1.22,1,.09,1.88,1.41,2.82,2.16.64.8,2.06.54,2.78-.3,2-2.3,9.55-3.18,11.83-1.32,1,.83,2.49,1.78,3.62,1.63a67.71,67.71,0,0,0,11.74-2.39c3.9-1.23,7,1.5,10.53,1.41,8.91-.26,17.8-1,26.71-1.41,29.9-1.31,59.8-2.51,89.7-3.82,6.9-.3,13.79-.86,20.68-1.3-2.72-.25-5.44-.24-8.15-.25s-5.45,0-8.17-.09c-2.41-.12-4.81-.44-7.21-.67l.15-2.21c52.72-.6,105.5,1.43,157.73-2.81v-4.63c1.23.63,2.87,1,3.6,2,2.2,3,5.2,2.64,8.21,2.52,37-1.37,74-2.88,111-4.05,13.78-.44,27.59-.07,41.38-.07v-.54l-26.6,2.41c0,.68,0,1.35,0,2,7.42.43,14.84,1.25,22.26,1.23,19.06,0,38.12-.18,57.17-.76s38-1.72,57-2.69a6.62,6.62,0,0,0,3.27-1.25c10.23-7.24,20.41-14.56,30.6-21.87.9-.64,1.73-1.37,2.6-2.06-4-1.39-7.85-1.6-11.67-2s-7,.23-6.39,5.48c-5,0-9.68,0-14.34,0-1.2,0-3.24-.15-3.45.37-1.54,3.66-4.6,2.17-7,2.26-19.78.74-39.58,1.19-59.35,2.07-23.55,1.06-47.06,2.9-70.61,3.63-44.6,1.39-89.21,2.28-133.81,3.27q-84.61,1.88-169.23,3.52c-3.07.06-6.17-1-9.26-1.47-10.2-1.58-20.36-4-30.61-4.46-12.35-.58-24.78.76-37.17.77-92,.08-183.9.87-275.85,4.15-92.5,3.3-185.09,3.94-277.64,5.78-25.74.51-51.38-.17-76.77-5.09-2.07-.4-4.39.16-6.54.57-2.46.46-4.83,1.69-7.27,1.81-5.95.27-11.92.08-17.88.08l-.7,1.33,16.53,16c4.81-3.91,9.32.19,14.29-1.24C356.25,569.21,350.56,570.94,352,577.28Zm634.92,531.89c-10.78-19.19-21.38-37.68-31.57-56.39-2.76-5.06-4.27-10.79-6.35-16.21l1.78-.85,42.52,70.48,57.81-34.3c-8.78-14.31-17.27-28.14-25.91-42.2-17.44,8.53-34,17.72-53,20.84l50.21-25.17c-7.34-12.41-14.3-24.16-21.37-36.1-21.52,11.89-42.55,23.49-63.53,35.18a3.39,3.39,0,0,0-1.37,2.5c-.09,10.42-.06,20.83-.06,31.34l6.3-.73c-.56,1.36-.65,2.23-1,2.37-6.49,2.36-5.06,7.69-4.69,12.54q4.41,57.42,8.9,114.82c.79,10,1.86,20.06,2.82,30.29l100.34-4.79-12.91-21.25c-1.67.7-2.94,1.15-4.13,1.74-9.6,4.8-19.16,9.67-28.8,14.39-1.15.57-2.71.32-4.07.46a33.71,33.71,0,0,1,2.56-3.55,8.77,8.77,0,0,1,2.32-1.39l29.34-16.54L1013.26,1155c-14.25,7.63-27.86,15.2-43.31,18.08-.22-.47-.45-.94-.68-1.41l41.38-20.94c-7.06-12.47-13.69-24.32-20.55-36-.52-.89-2.86-1.44-4-1.09-6.53,1.89-12.95,4.13-19.43,6.2a27.91,27.91,0,0,1-3.42.66c-.1-.4-.19-.8-.29-1.2Zm98-238.82-20.5-32.24-56,32.3c9,13.93,17.7,27.47,26.52,41.14,17.87-10.61,35.25-20.88,52.55-31.3,1.17-.71,1.67-2.53,2-3,7.42-1.59,14.67-2.43,21.42-4.75,12.41-4.27,23.22-11.61,33.46-19.71,1.63-1.29,3.69-2.85,4.15-4.65,1.2-4.64,4.91-6.14,8.41-8.09l4.18-2.33L1110.8,759,1043,795.5l22.78,34.07,58.29-33.5c0,.49,0,1,0,1.46l9.21,1.41-63.88,36.19,18.06,28.2Zm-699.74,2.19c-9.49,5.23-18.4,10.39-27.55,15.05-3.5,1.77-4.53,3.82-4.56,7.67-.28,31.59-1.19,63.18-1.14,94.76,0,15.94-1.25,31.89,1.58,47.89a292.83,292.83,0,0,1,4.08,43.77c.25,10,5.6,17.16,9.93,25.57l56.76-37.09c-13.51-20.91-26.88-41.61-41-63.55-3.26,6.4-6.45,11.27-8.26,16.61s-2.15,10.93-3.25,17.06c-3.06-5.37-3.82-10.68-1.28-15.75,2.81-5.63,6.6-10.77,9.84-16.2.66-1.11,1.48-3,1-3.78-2.67-4.29-5.71-8.34-8.86-12.8-2.43,3.39-4.39,6.12-6.36,8.85l-.72-.46,5.91-11c-7.42.33-9.65-1.38-7.72-5.71,1.09-2.43.43-3.71-.62-5.42-1.67-2.71-3.39-5.38-4.93-8.16a23,23,0,0,1-1.32-3.82l1.51-1,14.22,17.73c2.26-2,4.13-3.6,6-5.18a8.21,8.21,0,0,1,2.49-1.6c2.47-.82,5.21-1.05,7.47-2.23,8.85-4.61,17.56-9.49,26.31-14.28,5.93-3.25,11.85-6.52,18.16-10L413.35,919.8c-2.06,1.15-3.88,2.19-5.72,3.18-15.43,8.32-30.84,16.67-46.33,24.86-1.13.6-2.89,0-4.35,0,.9-1,1.62-2.31,2.73-2.95,13.71-8,27.48-15.86,41.22-23.81,3.23-1.87,6.37-3.9,9.58-5.87ZM336,809.71l-4.66-.59-1.17-.75c8.28-3.32,4.68-9.75,5-15,.48-8.29.33-16.62.33-24.94,0-17.83,0-35.67,0-53.5,0-24.79-.27-49.57,0-74.36.18-17.22,1-34.44,1.68-51.65.16-3.89-.85-6.07-5.14-5.52l7.55-.5c-4.75-5.8-8.17-11.22-12.77-15.32-8.54-7.64-17.77-14.5-26.7-21.69-1.09-.88-2.09-1.85-2.57-2.27,0,12.38.09,24.75,0,37.13-.08,8.93,7.28,13.77,10,21.14l1.82-.52V560.5c5.1,6.64,9.06,13.47,13.63,19.85,2.39,3.34,2.83,6.69,2.84,10.48.11,36.75.73,73.51.32,110.25-.44,38.86-1.69,77.7-2.89,116.55-.73,23.41-2.89,46.8-3,70.2-.21,68.21.34,136.43.47,204.64,0,5.26.5,10.15,3.51,14.65,1,1.49,1.37,3.41,2.48,6.33l-5.55-4v9.34h13.38C335,1015.63,335.53,912.82,336,809.71Zm947.69-32.12c9.08,12.87,17.66,25,26.31,37.27,3.13-1.73,5.63-3.15,8.15-4.51q28.55-15.37,57.09-30.74a30.89,30.89,0,0,1,5-2.23,2.84,2.84,0,0,1,2.23.78c.23.2-.11,1.49-.55,1.91a19,19,0,0,1-3.29,2.4q-27.9,16.95-55.84,33.84c-2.55,1.55-5.18,3-8.07,4.61l24.91,33.79,73.77-35c-19-26.86-37.32-52.93-55.83-78.89-.59-.83-3-1.23-4-.76-4.27,1.91-8.38,4.19-12.5,6.42C1322.2,756.67,1303.36,766.92,1283.73,777.59Zm-138.49-99.53-133.43,71.61,28,41.07,67.55-37.19c-6.84-12.35-13.4-24.2-20-36l1.15-.65c7.4,11.52,14.79,23,22.33,34.82l59.42-32Zm-45.46,205L1148,962.43l67.46-36.5-23.1-38.78-27.69,14.39-.44-.79,26.31-16.59c-8.45-13.37-16.55-26.2-24.72-39.11Zm337.43,350.52c.54,5.7.78,10.36,1.46,15,1.49,10.06-3.21,19.46-12.27,23.43a6,6,0,0,1-4.88-.36c-.72-.46-.86-3.56-.11-4.26,3.74-3.56.39-6.51-.67-9.4-1.18-3.25-3.12-6.5-7.38-6.3-5.87.28-11.71.92-17.57,1.23-7.2.39-14.59,1.71-21.55.55a19.28,19.28,0,0,1-15.06-11.79c-1-2.3-2.29-4.38-5.64-4.19-14.18.8-28.38,1.35-42.57,2-.25,0-.49.32-1.1.74.44,9.13,4.25,17.24,9.15,24.92a16.4,16.4,0,0,0,11.51,7.38,140.71,140.71,0,0,0,16.6,2c11.31.55,22.71,0,33.94,1.27a69.72,69.72,0,0,1,22,6.21c5.55,2.63,9.94,7.73,14.62,11.55,0,1.71-.66,3.82.1,4.68,6.82,7.75,7.63,17.54,9.6,27,1,4.78,2.67,5.76,7.26,3.73,8.53-3.78,16.77-7.64,19.41-18.17.85-3.41,4.6-6,6.71-9.2,13.76-20.68,18.33-43.65,16.62-67.92ZM655.53,1002c-11.22,4.73-21.62,9.15-32,13.51-12.94,5.41-24.93,12.34-35.15,22a71.55,71.55,0,0,0-5.54,6.4c-2.39.22-4.45-.15-5.87.64-16.9,9.42-33.71,19-50.53,28.57-1.16.66-2.26,1.43-3.78,2.4l23.38,34.8,57-32.91-16.15-24.87c5.51-2,8.72-.46,11,4.29,1.69,3.52,4.22,6.63,6.39,9.91,7.1,10.75,7.31,11.13,18.78,5.06,15.89-8.42,31.45-17.46,47.12-26.28,3.37-1.9,6.63-4,10.18-6.16Q667.44,1019.95,655.53,1002Zm126.7,202.65c1.92,4.16,4,7.86,5.36,11.83,1.24,3.73,3.38,4.46,7,4.43,27.06-.25,54.12-.2,81.18-.47a9.55,9.55,0,0,0,6-2.93q17.07-17.87,33.72-36.13a9.38,9.38,0,0,0,2.22-5.55c.43-11.33.59-22.67.8-34,.07-3.57,0-7.13,0-10.88a8.34,8.34,0,0,0-2,.36q-31.53,17-63,34c-1.35.74-2.2,2.37-3,3.29-1.54.28-3.09.18-4.25.81C825.08,1181,803.92,1192.67,782.23,1204.61Zm393.35-487.68,48.82-26.52-16.58-31.55,1.88-1,18.08,30.82,69.76-38.59-23.62-36.77-124.38,62.49ZM650.06,994.31,633.31,969.8c5.05-1.42,7.92-.91,10.28,3,3.81,6.26,8.22,12.17,12.47,18.36l63.34-33.79-22.47-35.13c-19.85,10.66-39.15,21-58.43,31.39-2.55,1.38-5.78,2.06-5.4,6.29.14,1.67-1.07,3.46-1.91,5.89l-5-5.38c-13.31,7.06-26.44,13.88-39.43,21-9.2,5-18.22,10.37-27.72,15.81l22.83,35.12Zm464.4-237.11,51.42,78.58,58.48-29.23c-9.06-14.5-17.58-28.25-26.2-41.92-4.56-7.22-2.49-6.56-10.16-3.28-1,.45-2.13.82-3.19,1.23l-.25-.55,8.72-5.28c-6.43-10.38-12.69-20.48-19.19-31ZM216.72,532.52c.77,121,1.54,240.88,2.3,360.73l1.2,0q8.13-80.1,16.28-160.2l2.27.11c.47,20.55.94,41.09,1.45,63,.53-3.57,1.06-5.8,1.18-8,1.28-24.77,2.9-49.52,3.64-74.3,1.1-37,1.48-74.09,2.4-111.14.24-9.8,1.35-19.58,2-29.38a4.63,4.63,0,0,0-.46-3c-3.49-4.26-7.15-8.38-11.55-13.46-.11,2.29-.18,3.28-.19,4.27-.62,36.44-.89,72.88-2,109.3-.42,13.23-2.93,26.4-4.58,39.58a24.5,24.5,0,0,1-1.52,4.57l-1.36-.32c0-2.84-.06-5.68,0-8.53,1.13-47.47,2-95,3.6-142.41.32-9.62-1.59-17.39-8.88-23.76C220.57,537.89,219.21,535.61,216.72,532.52Zm71.1,519.94,1.1-.1L290.53,625l-1.1-.05c-.28,4.62-.54,9.24-.85,13.86q-4.35,63.57-8.69,127.14c-2.6,38.46-4.93,77-7.77,115.39-3.43,46.46-6.46,92.91-5.28,139.53,0,1.59.18,3.51,1,4.71C274.42,1034.61,281.15,1043.51,287.82,1052.46Zm621.09-247-66.34,38.9c1,1.44,2,2.76,3,4.1,5.07,7.14,10.25,14.21,15.11,21.48,1.3,1.94,1.64,4.53,2.42,6.81l-1.74,1.08c-9.83-8.87-16.77-20.36-25.52-30.4l-50,27.1,23.67,34.7c1.25-.53,2.22-.89,3.15-1.34q47.43-23.13,94.89-46.2c2.48-1.2,2.72-2.73,2.67-5-.37-15.26-.66-30.52-1-45.79C909.14,809.13,909,807.38,908.91,805.42Zm232.94,160.05-47.47-79.34L1038.6,917l21.85,32.74c7.14-6.42,15.31-7.37,24.75-6.7l-21.37,11.44,24.06,35.6c3.16-1.74,6-3.37,8.93-4.89,9.84-5.16,19-11.61,30.47-13.39C1132.16,971,1136.65,967.81,1141.85,965.47Zm-777,296.79c.28,3.58.21,6.8.82,9.87q9.06,45.76,18.36,91.47c.38,1.88.08,5,3.25,4.21,1.33-.31,2.9-2.42,3.18-3.94,1.66-8.74,2.63-17.63,4.49-26.33,1.79-8.36,5.18-15.65,14.95-17.8,3.9-.86,7.44-3.28,11.23-4.76s7.67-3.77,11.49-3.71c8.33.13,15.61-3.22,23.2-5.5a24.2,24.2,0,0,0,7.76-4.31c11.47-9.1,22.56-18.69,34.24-27.5,6.56-4.94,7-4.51,5.45-14-3.42.57-6.85,1.27-10.31,1.65-2.48.27-6.53,1.05-7.22,0-2.73-4.36-6.41-2.83-10.06-3.08-.27,1.11-.53,2-.68,2.84-2.38,14-12.54,22.54-26.82,22.47-8.92,0-17.85-.43-26.75,0-4.63.21-9.2,1.83-14.44,3,3.23,4.08,6.21,7.34,3.17,11.14-4.15,5.19-6.29-2.69-10.17-2-.94,2.63.14,7.17-5.61,6.64,4.16-2.18,4.53-5.83,2.38-8.12-4-4.26-4.13-9.28-4.39-14.31-.33-6.44-.08-12.91-.08-20Zm-1.16-97.49L363,1163l22.58-14-19.48-37a60.43,60.43,0,0,1-6.27,3.16c-4.85,1.7-6.12,4.83-6.07,10,.28,26-.16,52,.12,78,.11,9.64,1.38,19.28,2.41,28.9.17,1.61,1.47,4,2.78,4.46,5.69,1.89,8.39-.3,8.58-6.27,0-.86.23-1.72.4-2.93,20.13,3.18,40.08,6,61.3,6.37l-19.68-38.49c-7.26,3.6-13.85,7-20.52,10.16-9.45,4.53-17.13,6.35-21.28,5.09l39.15-20.69L401.44,1179c-4.32,4.55-8.09,8.64-12,12.57-.67.67-2,.68-3,1,.18-1.06,0-2.37.58-3.14,3.29-4.52,6.82-8.87,10.11-13.38.68-.94,1.36-2.66.95-3.48-3.25-6.6-6.77-13.08-10.27-19.72ZM550.49,592.7a5.57,5.57,0,0,0-1.21,0c-18.28.75-36.56,1.43-54.83,2.35a22.18,22.18,0,0,0-8.18,2.17c-26,12.36-50.19,27.9-74.24,43.58-15.87,10.33-33.17,18.76-45.74,32.36-1.75-.16-3.28-.79-4.26-.31-13.38,6.53-13.31,6.56-12.55,20.31a15.94,15.94,0,0,0,6.36,12.24l66.08-44.72c-1.11-2.95-2.16-5.72-3.2-8.49l.83-.44,4.48,6.6ZM591,1200.58c-6.88-12.69-13.52-24.94-20.31-37.45l-61.57,33.26c3.4,5.88,6.69,11.11,9.48,16.6,1.36,2.69,4.62,6.46.49,8.69-3.69,2-5.24-2.49-6.91-5-3.53-5.22-6.78-10.63-10.28-16.17L445,1232.78a4.2,4.2,0,0,0,2.95,1.1q46.69-.92,93.4-1.89a9.26,9.26,0,0,0,4.69-1.3C560.75,1220.93,575.41,1211.05,591,1200.58Zm-391.72-734c0,7.85,0,14.45,0,21.05q.7,224,1.3,448c0,6,2.94,9.54,7.12,13.6.1-1.3.18-1.88.19-2.46.33-31.77.75-63.53,1-95.3Q209.93,693.5,211,535.56c.06-7.73-.71-14.66-6.18-20.47a7.24,7.24,0,0,1-.92-1.87l.59-.59,5.88,4.6a5.79,5.79,0,0,0,.6-1.47c.17-10.59.38-21.18.41-31.77a7.34,7.34,0,0,0-1.41-4.13C206.78,475.66,203.38,471.62,199.3,466.59Zm736.8,555.34L998,984l-21.05-34.78L947.58,962c-.22-.45-.44-.9-.65-1.35l27.65-15.33L949,903.85c-7.41,2.75-7.41,2.75-9.08-.31l6.5-4-9.35-14.68-1,.35ZM831.87,958.71l-76.6,42.83,24.4,40,77.59-41.51Zm420.82-228.44,28.48,43.6,69.61-42.56q-13.15-19.5-27-40ZM349.82,672.13c2-1.1,3.36-1.74,4.61-2.53,16.71-10.44,31.44-23.73,48.53-33.67,4.64-2.7,8.46-6.8,12.67-10.24A7.62,7.62,0,0,1,417,625l-1.56,3.19c6.2-3.7,30.88-30,32.48-34.55-4.48,0-8.92.5-13.21-.11-8.59-1.2-14.94,1.73-20.55,8.23-3.92,4.55-9,8.08-13.59,12.06l-1.31-1.39,19-18-.52-1.27c-6.62,0-13.25.25-19.85-.1-4-.21-6.71,1.06-9.45,3.93-6.51,6.82-13.42,13.25-20.16,19.84l-1-.93,18.95-22.3c-4.52.45-7.94,1.25-11.29,1-8.89-.59-16.3,1.91-21.48,9.4-1.34,1.94-2.63,4.36-2.74,6.62-.54,10.86-.75,21.74-.9,32.61C349.72,652.61,349.82,662,349.82,672.13ZM615.14,792.49,685.45,754,654.6,712.9l-68.79,40.31C595.74,766.52,605.41,779.46,615.14,792.49Zm58.4,82,74.74-38.79c-10.42-13.55-20.23-26.3-30.09-39.1l-70.27,40.72ZM848.32,1160c1.86-1,3.42-1.9,5-2.73,20.9-10.84,41.82-21.63,62.63-32.63,1.27-.67,2.34-2.87,2.43-4.42.52-9,.69-18.1,1-27.16.25-6.52.58-13,.93-20.57l-91.92,53.82ZM505.06,648.62c-.6-1.82-1-3.13-1.79-5.39l3.6,3.76,101.54-57.2c-14.29.77-27.49,1.46-40.68,2.24a8,8,0,0,0-2.87,1.27c-7.21,3.82-14.31,7.87-21.64,11.45C506,622.91,468.75,641.06,433,662.12c-1.54.91-3,1.86-5,3.08l13.92,21.15Zm42,185.46,63.15-38.3c-4.9-6.71-9.68-13.29-14.5-19.84s-9.83-13.31-14.67-19.85c-17.28,7-56.61,31.32-62.54,38.64Zm255.92,79.06c-7.33-10.78-14.46-21-21.32-31.5-1.94-2.95-3.55-3.12-6.54-1.5-21.38,11.63-42.85,23.09-64.29,34.61-2.63,1.41-5.21,2.89-8.09,4.49l22.61,35.2Zm-95.69,169.27c-8.61-13.78-16.79-26.9-25.14-40.27l-68.78,38.45L640,1119.44ZM807.36,920l-77.58,41.4c7.68,12.12,15.08,23.81,22.77,35.93l76.51-43.16ZM549.8,1231.64c1.07,0,1.52.13,2,.09,28.9-2.62,57.81-5.2,86.7-8a18.46,18.46,0,0,0,7.1-2.58c11-6.39,21.83-13,32.73-19.48l6-3.64-22.42-34.25c-18,10.75-35.4,21.12-52.77,31.53-9.66,5.79-9.53,5.77-5.63,16.18.64,1.7-.22,4-.38,6-2-.93-4.6-1.36-5.82-2.89-2-2.54-3.12-5.79-4.61-8.75ZM254.85,1008.91c.12-2.54.23-3.83.23-5.11q.3-96.87.67-193.74c0-5.53,1.16-11,1.83-16.57.92-7.65,2.67-15.29,2.69-22.94q.14-42.18-.76-84.36c-.37-16.32-2.22-32.6-2.58-48.91-.4-17.83.26-35.68.19-53.53,0-2.64-1.47-5.29-2.26-7.93l-1.55.36c-.05,1.13-.15,2.25-.14,3.38.23,18,.86,36,.65,54-.54,45.2-.7,90.43-2.46,135.6-1.48,37.9-5.85,75.68-7.38,113.58-1.46,35.94-.89,72-1.18,107.95a6.15,6.15,0,0,0,.68,3.48C246.92,998.83,250.55,1003.37,254.85,1008.91ZM513.48,799.4l-61.74,35.27,27.32,40.23,62.06-37Zm238.15,40.79-73.7,40.89L698,912c28.56-8,53.24-22.18,75.59-41.52Zm465.12,88.21-67.24,36.12,25.39,38.77,64.26-35.85C1231.45,954,1224.24,941.46,1216.75,928.4Zm-467.41,76.1-61.52,34.72c8.45,13.54,16.63,26.66,24.93,40L774.16,1045C765.7,1031.18,757.66,1018.08,749.34,1004.5ZM413.67,1193.07c5.78,12.29,11.27,24.35,17.12,36.22,2.74,5.55,4.15,5.65,9.42,2.46q27.3-16.56,54.62-33.09c1.36-.83,2.66-1.74,4.12-2.69l-22.43-36.63ZM714,791.21l-25.33-33-69.74,39.38,24.52,33.43ZM473,878.38,445.67,838l-56.8,32.35L415,912.62Zm404.79,161.4c-5.72-11.22-11.46-22.49-17.48-34.32L783,1047.64l18,31.42Zm298.59-34c8.55,12.84,16.79,25.2,25.22,37.87l60.54-35.57-21.57-38.36Zm-576.2-97.13c1.15,4,3.11,2.81,5.28,1.64q26.37-14.12,52.8-28.14l9.4-5c-8.58-12.5-16.84-24.51-25.21-36.69l-65,36.44c6.11,8.75,11.93,16.84,17.46,25.12,1.72,2.57,3.29,2.87,5.94,1.65a41.86,41.86,0,0,1,6.71-1.87c.13.44.26.89.4,1.33Zm52.74-198.26-24.45-33.5-68.74,41.79,22.89,30.44Zm766.22,273.55-26-40.52-57.24,31.29c6.77,13.51,13.35,26.62,19.92,39.75Zm-672.38,16.52-22.92-36.12L660.7,998l25,38Zm639.91-343.3L1331.06,687c.85,1.5,1.29,2.44,1.86,3.28q11.73,17.24,23.49,34.43c3.19,4.64,5.76,5.35,11.09,2.92,1.47-2.35,3.06-4.79,5.3-6,11.39-5.92,23-11.5,34.44-17.22,1.54-.77,3-1.65,4.6-2.5ZM686.83,1202.83l-34.7,19c7.35.38,14.38-.5,21.43-.59,20.55-.27,41.11-.2,61.66-.34,3.14,0,6.78.44,9.31-.93,9.93-5.41,19.5-11.47,29.75-17.62l-18.83-36.69-61.81,33.45c2.74,6.85,5.26,13.15,7.77,19.44l-1.69.9C693.91,1215.4,691.39,1208.55,686.83,1202.83Zm416.44-46.17L1042.89,1188c3.72,8.48,7.15,16.3,10.9,24.87l79.73-3.64-6.29-11.28-4.16.87c3.39-1.86,2.75-4,1-6.47-1.2-1.73-2.08-3.68-3.14-5.51C1115.1,1176.87,1109.24,1166.86,1103.27,1156.66ZM673.19,885.49c-6.32,1.11-11.51,2-16.67,2.93-3.1.57-6.46.71-9.2,2.06q-13,6.4-25.48,13.68c-2.79,1.62-6.51,4.07-7,6.68-.91,4.62-3.43,6.9-7.55,8.62,7.14,10.46,14,20.47,21,30.66l64.32-34.77Zm106.24-125,29.64,38.91,52.39-31.34q-12.36-19.59-25.55-40.46ZM613.82,800.73,550.55,839l23.59,33.18,64.22-37.52Zm-70.31,320.2-61.14,34.86,23.53,36,61.06-34Zm-107-165.75-61,31.36,27.16,38.9,56.84-34.66ZM574.58,1153.9l59.17-31.29-26.29-38.51-56.74,32.65ZM401.89,765.84l61.48-37.91L440.84,694l-63.52,39.44Zm849.17,82-24.36-37.68-56.48,32.38,24.75,39Zm190.73,174.59c-6.93-11.78-13.64-23.19-20.35-34.58l-62.28,33.62,15.49,37.4ZM441.16,831.57l-18.85-27c-17.33,10.25-33.43,21.73-51.14,29.56-11.91,5.26-15.06,12.84-15.8,23.87-.6,9-1.55,17.87-2.35,26.81l1.25.46,27.92-18.36c-2-4.2-3.84-8.13-5.7-12.07l1.44-.85c4.37,1.9,4.58,7.51,8.29,10.5Zm669.65,204L1086.73,998,1031,1026.87c8.8,14,17.31,27.44,26.06,41.29Zm109.37-112L1278,890.81l-23.17-37.07-57.9,31.06Zm-529.57,271,61.68-34.66-20-35.17-64.1,35.61Zm-233.9-81.47,22,36.6,60.18-35.15c-8-12.11-15.61-23.64-23.32-35.3Zm791.94-380.8-48.29,23.62,30.09,47.4,46.81-26.5Zm-171.59,381.54-22.59-36.38L995.38,1110l21.84,36.93ZM823.12,1129l-62,33.62,18.8,36.71,63.41-36.47Zm-378-438c8.09,11.75,15.6,22.64,23.32,33.84l61.57-39L508.51,654.5Zm99.55,151.76-62.27,37c4.52,6.83,8.59,13,12.67,19.17,8,12,8.15,12.38,21,5.61,15.65-8.22,31-17.08,46.4-25.68,1.76-1,3.47-2.08,5.46-3.28Zm408.21,58.95,26,41,51.37-29.27-25.8-40.74ZM473.1,1153.17l-21.91-37.05-59.75,34.81L402,1170.51c6-5,10.67-11,18.34-12.69a11.35,11.35,0,0,1-2.58,4.29c-3.66,3.81-7.49,7.47-11.05,11.37-.83.91-1.57,2.83-1.17,3.8,1.43,3.43,3.38,6.66,5.28,10.26Zm770.73-189.12,57.37-34.69c-7.25-12-14.25-23.53-21.37-35.3l-58.48,31.67Zm23.61,40.89L1325,972l-20.34-36.71-59,31.72ZM464,997.31,405.65,1030c8.07,12.62,15.83,24.78,23.75,37.18l56.47-35Zm355.91,125.8c-7-12-13.68-23.28-20.45-34.82l-61.49,33.36L758,1156.83Zm-65-291,49.45-28L774,763.8l-49.5,28.91ZM518.32,1068.77c3.7-1.81,6.73-4.42,9.91-4.62,7.28-.44,12.9-4,18.47-7.86,9.5-6.62,18.89-13.41,28.31-20.16.19-.14.22-.52.39-.94l-22.21-34.13-57,33.52C503.66,1046.17,510.94,1057.4,518.32,1068.77Zm731.43-343.43,70.67-39.48-18.78-29.31-70.09,38.52ZM448.14,1110.77c-7.05-11.82-13.95-23.41-21-35.3l-57.79,34.94c6.74,12.36,13.22,24.24,19.81,36.34Zm802.42,15.15,60.09-32.17c-7.44-12-14.64-23.61-21.94-35.39l-58.41,30.81ZM523.5,955c-7.7-11.71-15.28-23.24-22.92-34.84l-58.84,32.18,23.76,35.17Zm768.34,93,56.17-29.53-19.45-39.72-57.27,32.85ZM981.72,829.47c7.85,12,15.42,23.54,23.07,35.22,8.49-3.93,16.36-8.27,24.72-11.27,12.29-4.4,20.89-13.71,30.91-21.46l-21.94-33.65Zm-714.86-239-2,.44,1.53,245.71q1.68-33.07,3.21-66.13c1.05-21.93.9-44,5-65.67,1.88,46.2-1,92.3-2.07,138.43a1.05,1.05,0,0,0,.55-.82c4.66-71.68,9.06-143.38,14.22-215,.85-11.82-7.42-17-12-25l-1,.45-1.65,29.73-1.2,0a49.59,49.59,0,0,1-.76-5.11c-.41-9.06-.52-18.15-1.19-27.19C269.3,597,267.79,593.79,266.86,590.5Zm222.85,447.75-57.18,34.23,21.08,35.23,58.08-34.78Zm776.1-23.31-60.14,35,20.43,32.89,59.45-31.34C1278.87,1039.15,1272.45,1027.24,1265.81,1014.94Zm-182,95.2,53.37-29.69-22.62-38.74-54,32Zm103.39,50.49,56.07-31-20.73-36.5-56.18,30Zm-528.76-2L637.6,1128.2l-59.25,31.07,19.26,36.84Zm536.2-111c-8.44-13-16.52-25.53-24.72-38.19l-50.76,29.42c7.69,13.23,15.1,26,22.69,39ZM643.84,1125l20.69,30,64.14-36.36-18-30.2ZM513.91,788.7l63.82-37c-7.52-10.28-14.73-20.13-22.13-30.26l-62.19,38.84Zm14.18,173.46L470,994.05c7.51,11.74,14.73,23,22.11,34.52l56.91-34Zm531.07-5.32-53.28,29.6c7.52,12.19,14.72,23.85,22.12,35.86l55.11-29.58Zm-759.41-294-1.31.11c0,4.51,0,9,0,13.51q.74,194.92,1.39,389.84c0,5.37,2.69,8.8,6.24,13,.13-1.85.27-2.87.28-3.88q.45-144.56.88-289.1a26.09,26.09,0,0,0-.53-4.46c-1.31-7.41-3.57-14.78-3.84-22.22-.93-25.24-1.09-50.5-1.71-75.75C301,676.87,300.23,669.85,299.75,662.83Zm1012,268.84,20.39,36.16,57.06-30.43-22.1-33.19Zm-144.11,74-24.27-38-51.85,27.72,23.72,37.11C1132.66,1023.56,1147.51,1010.44,1167.65,1005.66Zm-68.11,144.75c-6.66-10.83-13-21.08-19.34-31.5l-60.14,32.53,19.67,31.74Zm33.73,41.4,49-28.28-20.78-38-51,27ZM400.48,774.28c-1,.52-1.71.83-2.35,1.18-16.92,9.34-33.88,18.62-50.69,28.16-1.32.75-2.27,3.33-2.27,5.06.08,19,.37,38.07.62,57.11,0,1.32.19,2.63.3,3.94a225.4,225.4,0,0,0,5.85-23c.27-1.34-.76-3-1.23-4.56a55.18,55.18,0,0,1,4.24-6.78c.82-1,3.61-2,3.9-1.65,2,2.39,3.49.61,5-.31q24.94-15.25,49.84-30.56c1.64-1,3.25-2.08,5.06-3.25Zm395.38,308c-6.25-10.68-12.23-20.89-18.29-31.26l-61.37,34.27,18.12,30.36ZM1317,1090.5l51.71-28.29-18.09-36.57-55.28,29.16Zm-37.4-310.41-46.92,26.67,24.49,37.44,48.3-26.87ZM1338,862.57l-51.59,27.79,21.21,34.39,54.49-27.83ZM476.29,883.34l-58.44,33.89L438,946.8l58.45-32.9Zm11.64-119.75c-20.17,12.48-40.1,24.83-60.17,37.26l19.31,27.33,61.06-36Zm515,217.87,52.66-29.7-21.45-32.51-52.85,27.48ZM1333.3,856,1310,823.46l-48.93,26.69,23.12,36.47Zm-134.74,198L1145,1083.82c6,10.93,11.82,21.57,17.86,32.62l55.57-29.68Zm-667.12-366L472.1,730.3l17.44,24.57L551,715.25ZM781,867.8,831.31,841,807.1,808,758,836.21Zm584.84-247-57.16,32.12,18.79,29,55.94-30.41Zm-259.15,525.68L1158,1118.9l-17.77-32.62-53.2,28.87ZM405.73,771l18.61,25.26,59.94-37.95-16.91-24.4Zm822.41-74.18L1179.41,723c6.63,10.41,13,20.43,19.53,30.7l46.93-26.26ZM424.28,667.06l-65.6,42.14,15.45,20,63.53-40C433.14,681.67,428.92,674.7,424.28,667.06ZM396.7,769,373,736.35c-7.47,4.15-14.42,8.47-21.77,11.93-4.75,2.23-6.34,5.6-6.37,10.3-.05,6.8,0,13.61,0,20.41v20.28l1.32.89ZM231.36,979l1-.48,3.18-206.71a36.65,36.65,0,0,0-2.11,9.71c-3,27-6,54.06-8.82,81.11-2.45,23.42-6.22,46.74-4.9,70.43a154.75,154.75,0,0,1-.08,17.23c-.18,3.06-1.37,6.05-2,9.1a3.87,3.87,0,0,0,.2,2.74C222.28,967.81,226.84,973.39,231.36,979Zm237.58,279.6c-15.08,0-30.16-.06-45.24.05-3.75,0-7.8-.21-11.16,1.09-8.08,3.13-11.6,13.25-8.58,21.48,5.9-1.37,11.65-3.39,17.53-3.91a184.15,184.15,0,0,1,26.26-.54C457.84,1277.3,466.43,1270.69,468.94,1258.6Zm-238-240.5,1.35-.4c0-10,.06-19.93-.07-29.88a7,7,0,0,0-1.57-4.09c-6.74-8.07-13.64-16-20.41-24-.93-1.11-1.28-2.69-2.1-3.93-2.05-3.09-4.22-6.11-6.34-9.15a206.83,206.83,0,0,0-.8,27.83,15.71,15.71,0,0,0,2.74,8.23c8.11,11.11,16.57,22,24.92,32.88C229.33,1016.46,230.16,1017.26,230.92,1018.1Zm1202.42,184.52.81,1.85c7.82,0,15.68-.47,23.45.16,5.15.42,8.14-1.24,11.41-5.05a20.71,20.71,0,0,0,5.4-16c-.6-8.57-.37-17.2-.53-25.8,0-1.07-.26-2.14-.56-4.56C1459.45,1170.36,1446.4,1186.49,1433.34,1202.62Zm-1250.77-756c.53,55.84,1.05,110.44,1.57,165a4.27,4.27,0,0,0,2-3.1c1-8.09,2.43-16.18,2.67-24.3q1.29-44.16,1.83-88.34c.15-11.33-.91-22.68-.47-34C190.38,455.58,187.52,451.57,182.57,446.66ZM316.46,582a35.84,35.84,0,0,0-1.12,5.34c-.6,11.6-1.54,23.21-1.49,34.81.06,14.79,1.34,29.57,1.43,44.35.22,36.12,0,72.23.09,108.35,0,3.34.41,6.67.64,10,1.4-23.61,2.08-47.17,2.59-70.74q1.39-63.23,2.64-126.45C321.31,584.72,321.64,581.68,316.46,582ZM289,1095.84c0-3.26-.26-5.4,0-7.46,2.58-18.09-3.05-33.5-14.95-47-2.41-2.73-4.35-5.87-6.8-9.22-.89,10.38-1.73,19.94-2.51,29.51a2.94,2.94,0,0,0,.77,1.6C273.07,1073.79,280.65,1084.31,289,1095.84Zm48.53,101.6.78-.2c0-5.82,0-11.64,0-17.46,0-.67-.62-1.31-.88-2-1.07-2.68-2.9-5.33-3-8-.51-12.22-.53-24.46-.72-36.69,0-1.91,0-3.81,0-5.82H321c-.24,10.72-2,21.29,5.81,30a4.56,4.56,0,0,1,1.2,2.41c.23,2.66.23,5.34.31,8l-7.29-1.82a5.81,5.81,0,0,0-.85-.1c-3.18,4.11-2.88,5.54.87,9.29a78,78,0,0,1,8.11,9.49C332.16,1188.7,334.74,1193.13,337.49,1197.44Zm-63.08-677c0,5.31.42,9.22-.08,13-1.78,13.52,1.82,25.17,11.15,35.13a80.12,80.12,0,0,1,5,6.69c.72-12.34,1.38-23.3,2-34.27a4.4,4.4,0,0,0-.62-3C286.4,532.46,280.88,527,274.41,520.48ZM1374,1248.17c2.76-.12,5-.09,7.26-.34,9.87-1.14,19.77-2.17,29.6-3.61,7.28-1.07,12.23,1.94,16,7.8.59.93,1.28,1.81,2.61,3.66v-20.94c-1.36-.48-1.66-.7-1.91-.66-9.8,1.38-20-1.23-29.5,4-3.68,2-8.82,1.34-13.24,1.89-1.93-3.92-7.51-4.64-14.36-1.86C1373.32,1240.76,1376.85,1243.21,1374,1248.17Zm-488.38-28.08a4.44,4.44,0,0,0,1,.46c2.32.22,5.64-.33,5.21,3.13-.16,1.27-3.46,2.32-5.47,3.11a9.11,9.11,0,0,1-4,.29c-4.69-.43-7.79,2.21-11.42,5.68,6.67,0,12.61,0,18.54-.07a3,3,0,0,0,2-1.48c5.91-10,14-18,23.29-24.91,1-.77,2.38-1.92,2.46-3,.51-6.2.68-12.43,1-18.9Zm612.12-1.54,1.85.16c.16-1.59.42-3.18.45-4.77q.66-36.95,1.23-73.9a92.21,92.21,0,0,0-.64-13.09c-.16-1.26-2.08-2.3-3.19-3.44-1.1,1.2-2.9,2.27-3.15,3.63a87.59,87.59,0,0,0-1.43,13.51c-.2,9.31-.06,18.62-.06,27.63l5.62-.68c-1.84,3.53-4.49,6.21-4.34,8.72C1494.93,1190.42,1496.45,1204.48,1497.74,1218.55Zm-77-4.07-225.38,6,0,1.19C1223.29,1223.18,1418.05,1218,1420.69,1214.48Zm-1164-649.05c3.45-16.51,1.44-25.35-7.49-34.19-4.19,1.59-5.51,1-6.1-3.87-.54-4.44-1.43-8.46-5.85-11.59,0,9.35-.05,18.18.06,27a4.89,4.89,0,0,0,1.44,2.71C244.59,552,250.46,558.49,256.72,565.43ZM231.4,536.8c0-9.83,0-18.54,0-27.26a5,5,0,0,0-.43-2.63c-4.53-6.25-9.15-12.43-14.49-19.63,0,12.26-.05,23,.08,33.63a5.63,5.63,0,0,0,1.67,3.51C222.19,528.32,226.31,532.05,231.4,536.8Zm489.69,697.37.18,1.53c1.42,0,2.84,0,4.26,0q69.84-1.29,139.7-2.53c3.55-.06,5.07-1.64,6.06-5.28-8.38.55-16.34,1.31-24.31,1.56-39.3,1.21-78.6,2.27-117.89,3.46A62.74,62.74,0,0,0,721.09,1234.17ZM244.27,1054.23l-1.56.64c1.28,3.21,2,6.77,3.93,9.57q28.25,41.93,56.82,83.64c.62.91,1.4,1.7,2.91,3.53-.18-2.77.25-4.57-.45-5.66-4.33-6.77-8.92-13.38-13.41-20a17,17,0,0,1-1.84-3c-1.14-2.74-1.78-5.74-3.26-8.27-3.58-6.13-7.4-12.13-11.34-18-6.22-9.35-12.61-18.59-18.93-27.88l-1.07.69q13.81,22.08,27.62,44.17l-1.1.69Zm10.92-4.52c0-9.73-.53-18.19.13-26.56.81-10.2-7-15.09-11.94-23.06,0,11.67,0,22.06,0,32.45a5.32,5.32,0,0,0,.91,2.94C247.62,1040,251.05,1044.32,255.19,1049.71Zm99.6-338.44c-2.28,2.33-5.52,4.09-5.65,6-.56,8.93-.24,17.91-.24,27.35l20.93-12.76C364.86,725.08,360.18,718.67,354.79,711.27Zm607-131.18A71.29,71.29,0,0,1,953,580c-4.53-.59-7.4,1.22-9.55,5.07-.94,1.67-2.57,2.94-3.89,4.39l-1.62-.67,1.09-8.78c-1.29.1-2.42.88-2.43,1.69-.13,9.73-.08,19.47-.08,29.53Zm-730.76,463c1.3-5.92-.09-9.78-3.11-13.68-8.32-10.75-16.21-21.83-24.29-32.76-.65-.88-1.45-1.66-2.53-2.87-1.46,9.89,3.66,16.52,8.82,23.05,5.71,7.23,11.61,14.31,17.41,21.46C228.46,1039.66,229.49,1041.06,231.06,1043.1Zm128,219.1c2.4,32.37,3.57,64.86,17.14,95C371,1325.4,362.3,1294.25,359.1,1262.2Zm121.52,38.29.37,1L455.68,1316c8.79-1,17.18-3.52,23.64-9.59a196.27,196.27,0,0,0,18-19.69c2.81-3.46,4.35-8,6.46-12l-.78-.22-30.52,27Zm-205.17-733-1.06.43c0,3.46-.06,6.93,0,10.38.07,3-.73,6.64.66,8.85,3.7,5.88,8.38,11.14,12.67,16.65l1.26-.35c0-5.46,1.62-11.63-.37-16.22C285.53,580.06,280,574,275.45,567.46Zm215.41,14.09c7.11,5.16,7.11,5.29,15.49,4.9,11.16-.52,22.32-1.24,33.48-1.93,7.2-.44,14.39-1,21.59-1.46l0-1.51ZM327.25,337.73l-1,1.35c1.57,1,3.17,2.93,4.71,2.88,20.39-.62,40.78-1.48,61.16-2.35,5.12-.22,10.22-.68,15.33-1l0-.86ZM227,1063.52l-1,.78c11.75,18.27,23.51,36.53,35.57,55.27-.07-5.64.81-10.49-3.4-15.13-5-5.48-8.55-12.19-13-18.14-3.89-5.16-8.27-10-12.34-15C230.69,1068.81,228.88,1066.12,227,1063.52Zm-18.12,17.06c2.54,22.05,15.58,37.7,32.12,51.76.45-1.25,1-2.12.8-2.31C227.63,1115.56,219.36,1097.16,208.84,1080.58Zm540.78,140h33.75l-7-13Zm175.37.33c2.69.33,4-.74,3.94-4-.46-19.76-.72-39.53-1.23-59.29,0-1.6-1.52-3.17-2.71-5.5ZM306.32,1119.42c0-8.72-.32-16.72.11-24.68.3-5.6-2.6-9.12-6.35-12.68-.5,10.14-.78,20.21-.33,30.25C299.88,1115.25,301.4,1118.7,306.32,1119.42Zm-48.2-590.16c0-7.41-.41-14,.12-20.53.49-6.07-3.14-9.08-7.6-13,0,5.84.58,10.86-.14,15.68C249.42,518.57,252,523.89,258.12,529.26Zm46.54,102.43c7.24-2.77,3.32-20.56-6.67-29.82C296.65,612.57,298,622.73,304.66,631.69Zm-35.17-86.77c0-9.28-.22-17.27.08-25.24.17-4.36-1.89-6.87-5.49-9.39,0,8.18.2,15.83-.08,23.46C263.84,538.11,265.65,541.18,269.49,544.92Zm-87-131.44c0,6.32.44,12-.11,17.68-.62,6.24,3,9.49,7.14,13.18C191,433.09,189.74,422.91,182.48,413.48Zm54.46,67c1.44,9.19-3.7,19.48,5,27.35C240.57,498.63,246.42,488.28,236.94,480.47Zm278,796.12,1,.45L529.26,1260c-4.91.31-8.23.27-11.45.84a4.23,4.23,0,0,0-2.73,3C514.76,1268,515,1272.3,515,1276.59Zm971.73-557-.83.67v51.34c1.7-16.18,2.42-32.37,3-48.56C1488.84,721.93,1487.42,720.76,1486.68,719.61Zm-815.27,515.5.18.87c13.56,0,27.13.07,40.69-.08,2.32,0,4.63-1,6.94-1.57l-.32-1.76ZM268.81,578.84c2.5-11,.82-21.28-4.22-25.85C262.55,567.59,263.78,575.13,268.81,578.84Zm-2.33,349.67,1.38-.08c-1.19-15.36,5.31-30.82-1.38-45.66ZM199.66,444.43c-2.3,10.28,1.47,17.89,12.39,25.87C211,459.92,203.43,453.66,199.66,444.43Zm157.68,652.78-1.33.41c-.7,5.63-1.39,11.25-2.25,18.2l11-6.91ZM841.06,536.79l-.2,1.25c14.31.79,28.63.3,43,.22,0-.49,0-1,0-1.47ZM1299.81,1240l-9.68.5,12.49,16.81C1301.57,1250.79,1300.74,1245.68,1299.81,1240Zm124-23.29c9.92,0,19.7.06,29.47-.08,1.11,0,2.21-1.14,4.28-2.29C1445.12,1213.07,1426,1214.52,1423.81,1216.67Zm58.92-648.54c-2.55,13.91-2.55,13.91,2.53,15.58C1483.91,578.42,1487.24,572.57,1482.73,568.13ZM905.54,1226c11.05-2.51,12-3.52,10.38-11.53ZM685.1,577.81v.24H737v-.24Zm789.51,632.88c-3.74,3.72-8.94.91-11.94,5.66l11.94.57ZM215.67,453.59l-1.35.76L223,469.08C224.32,460.91,218.38,458.15,215.67,453.59ZM229,470.51c-.44,5-1.61,9.55,2.73,13.8C231.46,479.33,234.25,474.64,229,470.51ZM1479.5,533.65c-8-3.73-16.14-.73-24.21-1.26,7.78.66,15.57,1.1,23.36,1.53A2.8,2.8,0,0,0,1479.5,533.65Zm4.06,94.17-.84,0v18.88l.84,0ZM915.5,1232c0-.4,0-.8,0-1.2-4.75.48-9.62-2.15-14.31-.11,0,.44.05.87.07,1.31Zm9.59-648.27c-.65-2.54-.79-5.3-1.51-5.47-2.48-.56-5.17-.21-7.78-.21l0,.89ZM210,1043l1.11-.9-9.42-13.63-1.46,1Z"/>
    <path d="M1516.35,591.6c.76,11.29,2,22.58,2.19,33.88.83,49.57,1.54,99.15,1.84,148.73.06,9.62-1.91,19.26-3.53,28.82C1513.5,796,1512.81,598.13,1516.35,591.6Z"/>
    <path d="M436.18,317.45l247,1.6v2c-82.37,3-164.72,3.22-247-1.89Z"/>
    <path d="M328.2,519.18l.1.13a46.85,46.85,0,0,0-3.58-4.55c-11.15-11.11-22-22.47-29.62-36.41-.43-.79-1.28-1.52-1.34-2.32a14.44,14.44,0,0,1,.61-3.56c1,.38,2.46.45,3.06,1.19a80.74,80.74,0,0,1,4.91,7.06c10.11,15.5,24.07,27.36,37.52,39.7a83.68,83.68,0,0,1,7,6.45c1.12,1.3,1.39,3.33,2,5-1.74-.34-3.83-.2-5.17-1.13-3.84-2.66-7.34-5.79-11-8.66C331.27,521,329.7,520.15,328.2,519.18Z"/>
    <path d="M414,525c-13,3.87-71.64-11.42-80.42-20.55a54.13,54.13,0,0,1,6.29.83c15.45,4.23,30.84,8.64,46.31,12.76,6.41,1.71,13,2.77,19.47,4.29C408.52,523,411.25,524.07,414,525Z"/>
    <path d="M430,512.49c-7.28-2.19-14.63-4.17-21.82-6.62-5.69-1.94-11.24-4.33-16.75-6.78-1.29-.57-2.13-2.18-3.17-3.31,1.63-.19,3.47-1,4.85-.47,6.79,2.48,13.46,5.28,20.16,8,5.81,2.36,11.6,4.77,17.4,7.16C430.41,511.15,430.18,511.82,430,512.49Z"/>
    <path d="M1265.33,350.37l19.92,10.91c-.33.59-.65,1.19-1,1.78l-20-10.84Z"/>
    <path d="M163.06,791V773.94l1.4,0C164,779.56,163.54,785.14,163.06,791Z"/>
    <path d="M1386.9,1122.2c1.42,2.52,2.88,4.8,4,7.22,4.51,9.39,8.84,18.87,13.41,28.23,2.71,5.56,5.64,11,8.68,16.4,1.48,2.63,4,4,6.92,2.47,3.16-1.6,3.25-4.44,2.1-7.42a16.2,16.2,0,0,0-1.3-2.38c-5.39-9.09-10.86-18.14-16.14-27.3-3.9-6.75-7.55-13.63-11.4-20.62,6.64-4.69,14-8.12,18.66-14.71l-.86-1.6-21.75,10.12c-2.55-4.22-4.82-8.32-7.46-12.16-.94-1.37-2.78-2.12-4.21-3.15,0,1.73-.52,3.67.07,5.16,1.82,4.56,4.06,9,6.12,13.37L1240.34,1198a9.68,9.68,0,0,0,2.53.12c8.14-3.22,16.66-5.74,24.31-9.87,29.51-15.94,58.73-32.41,88.07-48.66C1365.68,1133.83,1376.14,1128.11,1386.9,1122.2Zm78.51-62.35-.9-1c-14.71,9.86-25.66,23.36-35.15,38.26Zm-59.88,112.8-1.8-.84c-.83,1.2-1.61,2.42-2.48,3.58-4.82,6.39-8.13,14.27-16.77,16.88a3,3,0,0,0-1.76,1.35c-.51,1.13-1.31,2.8-.85,3.54.65,1,2.74,2.31,3.5,2a13.93,13.93,0,0,0,5.28-4.17c2.07-2.87,3.3-6.35,5.36-9.23,2.28-3.17,5.19-5.87,7.63-8.93C1404.56,1175.64,1404.92,1174,1405.53,1172.65Zm-49.36,15.53c6.29-3.47,12.13-9.1,14.5-14Z" style="fill: #fff"/>
    <path d="M781.09,639c1.24-1.86,1.57-2.74,2.2-3.25C805.42,618,829.77,604.34,857,596.18c3.3-1,7-.7,10.48-1l.29,1.37Z"/>
    <path d="M717.26,596c-3.17,1.62-6.28,3.36-9.51,4.83-15,6.81-29.76,14.06-45.07,20-5,1.92-11.34.3-17.2-.15,23.07-10.61,45.46-23,71.19-26.22Z"/>
    <path d="M1386.9,1122.2c-10.76,5.91-21.22,11.63-31.65,17.41-29.34,16.25-58.56,32.72-88.07,48.66-7.65,4.13-16.17,6.65-24.31,9.87a9.68,9.68,0,0,1-2.53-.12l143.44-82.19c-2.06-4.42-4.3-8.81-6.12-13.37-.59-1.49-.08-3.43-.07-5.16,1.43,1,3.27,1.78,4.21,3.15,2.64,3.84,4.91,7.94,7.46,12.16l21.75-10.12.86,1.6c-4.68,6.59-12,10-18.66,14.71,3.85,7,7.5,13.87,11.4,20.62,5.28,9.16,10.75,18.21,16.14,27.3a16.2,16.2,0,0,1,1.3,2.38c1.15,3,1.06,5.82-2.1,7.42-2.94,1.49-5.44.16-6.92-2.47-3-5.39-6-10.84-8.68-16.4-4.57-9.36-8.9-18.84-13.41-28.23C1389.78,1127,1388.32,1124.72,1386.9,1122.2Z"/>
    <path d="M1465.41,1059.85l-36.05,37.27c9.49-14.9,20.44-28.4,35.15-38.26Z"/>
    <path d="M1405.53,1172.65c-.61,1.39-1,3-1.89,4.14-2.44,3.06-5.35,5.76-7.63,8.93-2.06,2.88-3.29,6.36-5.36,9.23a13.93,13.93,0,0,1-5.28,4.17c-.76.35-2.85-.91-3.5-2-.46-.74.34-2.41.85-3.54a3,3,0,0,1,1.76-1.35c8.64-2.61,12-10.49,16.77-16.88.87-1.16,1.65-2.38,2.48-3.58Z"/>
    <path d="M1356.17,1188.18l14.5-14C1368.3,1179.08,1362.46,1184.71,1356.17,1188.18Z"/>
    <path d="M1040.36,659.72l-9.77,2.27a24,24,0,0,0,11.94,11.27c11.86,5,29.71,1.79,38.25-7.82s16.33-20.21,24.51-30.31a10.65,10.65,0,0,1,3-2.14c1.71-1,3.47-1.88,5.21-2.8l-.49-1.44a16.05,16.05,0,0,1-3.65-.84c-2.62-1.29-3.37-3.41-.82-5.24,3.69-2.64,6.05-5.12,6.19-10.44.16-6.12,9.34-12.9,16.38-12.85a109.73,109.73,0,0,1,20.12,2.1c2,.38,4.29,3.4,4.82,5.61,1.88,7.82-3.94,20.86-11,24.85-2.2,1.26-5.13,1.47-7.76,1.67a35.69,35.69,0,0,1-8-.41c-1-.16-1.9-1.29-3.23-2.25-.7,2.08-1.36,4-2,6-.34,1-.33,2.48-1,2.92-5,3.17-4.1,9.09-6.56,13.35-3.53,6.1-7,12.54-11.85,17.5a241,241,0,0,1-24.86,21.68c-13.86,10.75-40.84,9.68-53.18-8.52-15.82,9.57-31.74,19.07-47.52,28.8-12.86,7.92-25.38,16.48-40.49,19.78-1.28.28-2.55.62-3.82.94L934,732c.78-.42,1.54-.89,2.34-1.25a34.87,34.87,0,0,0,3.71-1.55c17.87-10.73,35.65-21.59,53.57-32.23,10.07-6,20.34-11.64,31.45-18,.13-5.63-4.63-10.75-8.09-16.16s-8.16-10.06-12.44-14.93a6.54,6.54,0,0,0-3.52-2.3c-11.7-1.47-19.89-8.61-26.61-17.3-2-2.56-2-7.59-1.22-11.08,1.6-6.86,7.63-10.78,12.77-16.87v6.35c6.91-1.21,13.41,0,17.94,5.6,2.35,2.92,3.59,6.73,5.31,10.16,1,2,1.82,4.17,3,6.1,2.74,4.5,5.68,8.88,8.45,13.36a39.36,39.36,0,0,1,1.88,4.12c1.78,3.84,2.67,8.76,5.62,11.19C1030.84,659.45,1035.75,658.92,1040.36,659.72Zm79.4-47.6c4.4-2.64,9.25-5.36,13.72-1.45,4.8,4.2,6.73,9.84,4,16.46,5.2-4.73,7.3-10.91,9.12-16.22-2.45-2-4-3.34-5.63-4.51a6.53,6.53,0,0,0-3.14-1.48,93.55,93.55,0,0,0-12.19,0C1121.06,605.38,1119.23,607.82,1119.76,612.12ZM1002,624.39c-3.06-2.55-5.41-4.8-8-6.62-3.2-2.21-8.75,0-9.62,3.8a24,24,0,0,0-.64,8.46,6.42,6.42,0,0,0,3.48,4.21c2.35.93,4.09-.52,5.17-3a10.39,10.39,0,0,1,3.54-3.93C997.4,626.2,999.3,625.63,1002,624.39Zm108.9,20.52c-9.5,8.52-17.33,16.75-22,28.47C1097.55,664.77,1106.35,657.35,1110.88,644.91ZM993.65,631.52l16.81,15.26C1008.23,636,1004.1,632.41,993.65,631.52Zm49.24,55.25c9.2,5.21,23.16,4.06,31.28-2.66C1064.26,689.81,1053.71,687.06,1042.89,686.77Zm87.28-61.48c1,.71,1.26-1.76.15-4.5a23.8,23.8,0,0,0-2.49-3.9l-5.27,3.57Z"/>
    <path d="M1157.83,604c5.36-3.76,10.51-7.89,16.13-11.21,9.86-5.84,20-11.26,30.06-16.7a21.25,21.25,0,0,1,6.81-2.25c1.16-.18,2.52,1,3.79,1.53-.76,1.17-1.25,2.87-2.33,3.42-17.19,8.75-34.45,17.36-51.71,26a9.42,9.42,0,0,1-2,.54Z"/>
    <path d="M988.05,650.36c-3.46,5.42-46.87,31-51.17,30.13C938.72,674.4,980.7,649.68,988.05,650.36Z"/>
    <path d="M1100.65,637.76c-17.07,10.42-31.81,25-53.62,29,.84-1.2,1-1.73,1.33-1.86,15.48-6.24,27.84-17.49,42-25.92,2.81-1.68,6.08-2.59,9.13-3.86C1099.85,636,1100.25,636.87,1100.65,637.76Z"/>
    <path d="M971.29,635.21v17.93h-1V635.22Z"/>
  </g>
</svg>
