<svg id="Layer_1" data-name="Layer 1" xmlns="http://www.w3.org/2000/svg" width="600mm" height="600mm" viewBox="0 0 1700.79 1700.79">
  <g>
    <path d="M1517.93,1024.55q-.4-7.17-.82-14.33l-1.13-.06c-.16,2.15-.4,4.29-.45,6.44-.46,19.75-1,39.49-1.24,59.24-.06,4.87-2,10.25,2.85,14.37.85.73.62,2.88.65,4.37.55,26.44,2.84,53,1,79.27-1.44,20.6-1,41.11-1.8,61.65-.2,5.32,2.08,11-1.93,14.9l-55.07,6.44c-1.46,11.77-3,23.47-4.32,35.2-1.16,10.56-1.89,21.17-3,31.74-.88,8.3-4,11.59-12.24,13.46-2.67.6-5.71.44-8,1.69-7.32,4-12.06,0-16.64-4.74-9.27-9.63-12.76-21.87-15.23-34.5-2.5-12.81-4.84-25.65-7.33-38.46a41.33,41.33,0,0,0-1.57-5.12c-11.49,0-22.4-.24-33.3,0q-89.32,2.34-178.65,4.89c-62.59,1.7-125.18,3.13-187.76,5.16-20,.64-40,3-60,4.26-8.18.52-16.76,2-24.51.2-17.82-4.09-35.56-1.17-53.3-1.38s-35.25.61-52.87.93c-25.23.47-50.51,0-75.66,1.59-35.79,2.32-71.62.36-107.39,2.53s-71.62,3.8-107.44,5.46c-17.91.83-35.84,1.2-53.76,1.79-2.7.09-5.39.28-8.71.45-.81,4.76-1.62,9.19-2.31,13.62-2.59,16.5-5.72,32.91-5,49.78.4,9.38-6.86,17.67-17.46,20.7-9.8,2.8-19.32,2.78-26.74-5.57a20.69,20.69,0,0,1-4.46-8.62c-4.48-18.92-8.64-37.91-12.92-56.87-.66-3-1.39-5.88-2.27-9.56-5,.24-9.8.39-14.57.74-2.42.17-4.8.79-7.21,1.06-4.51.49-9.33,1.67-12.15-3.48-2-3.7-.45-6.9,5-11.55-1.24-4.19-2.24-8.17-3.62-12a38.05,38.05,0,0,0-4.06-8.88c-15.84-23-32.21-45.72-47.63-69-9.69-14.66-18-30.24-27-45.37-1.68-2.84-3.64-5.51-5.78-8.71-7,6.68-14.76,7-23.1,4.32-6.28-2-9.15-4.92-7.87-11.19,1.18-5.76-.17-10.82-1.64-16-3.22-11.4-7-22.66-9.78-34.16s-9.3-20.25-16.27-29.48a35.06,35.06,0,0,1-3.27,1.83c-5.93,2.52-9.71,1.07-10.77-5-1.44-8.34-2.11-16.82-2.94-25.25-.29-2.92,0-5.88,0-9.09h-6.38c-.21-.41-.75-.94-.7-1.42.69-6.8-3.3-11.48-7.35-16a15.83,15.83,0,0,1-4.35-11.47c.38-29.17.29-58.35.76-87.51.46-28.55,2.17-57.1,1.78-85.63-.16-12,.25-24.06.06-36.08-.2-12.76-.13-25.53-.47-38.28-.33-12.45-1.4-24.89-1.5-37.34-.4-50.75-.94-101.5-.71-152.25.26-55,1.31-110,2-165a52.51,52.51,0,0,0-.12-5.47c-.61-6.93-2.62-9.27-9.43-11.44-2.83-.9-5.6-2-8.73-3.12,4.14-4.06,4.14-4.06,10.42-5.35.48-1.85,1-3.76,1.63-6.28,2.07.65,4.36.66,5.18,1.76,4.1,5.52,9.81,5.65,15.59,4.91,30.67-3.92,61.32.76,92,.09,7-.15,14.47,2.21,20.76-3.55,1.22-1.11,4.09-.43,6.21-.55,31.35-1.78,62.5,1.33,93.72,3.36,30.3,2,60.58,3.91,91.06,3.14,54.68-1.4,109.4-1.27,164.1-2.27,25.2-.45,50.39-1.95,75.57-3.2,5-.26,8.69,3.35,14.16,3,28.49-1.94,57-3.08,85.6-4.14,33.4-1.23,66.83-2.12,100.24-3.09,17.93-.53,35.86-1.42,53.79-1.23,25.51.27,51,1.49,76.52,2.11,24.3.59,48.61.9,72.92,1.39,17.92.37,35.84,1,53.77,1.14,3.29,0,7.42,1.81,9.85-2.4,7.15,1.55,14.66-1.7,21.75,3.08,18.65,12.56,37.74,24.46,56.64,36.65,23.48,15.17,46.89,30.45,70.47,45.48,5.25,3.35,11.06,5.81,17.72,9.26-.78-3-1.13-4.27-1.65-6.21,55.59,33.8,104.74,75.65,157.37,112.6,1.56,1.09,2.21,3.47,3.38,5.42,10.34,1.33,21.18-4.78,33.26,1.43-10.9,9.32-23.37,7.25-35.41,9.65-.68,7.57-2,15-1.93,22.5q1.08,105.76,2.6,211.53c.95,62,2.4,124,3.3,186,.22,15.07-.83,30.15-1.29,45.23ZM264.39,1096,248,1073.09c-.7,1-1.06,1.32-1,1.51,3.07,11.13,11.33,18.93,17.92,27.8l1.91-2.31c1.58,3.55,2.76,7.36,4.81,10.62,11.39,18.08,23,36,34.54,54a17.23,17.23,0,0,0,2.7,2.7,13.28,13.28,0,0,0-2.25-8.65c-3.67-5.45-8-10.47-11.43-16.07s-5.6-11.94-9-17.57c-4.79-8-10-15.85-15.36-23.53C269.25,1099.35,266.57,1097.86,264.39,1096Zm612.23,153.74,19.14,1.8a111.05,111.05,0,0,1,23.79-26.19,12.56,12.56,0,0,0,4.2-7.37c.68-4.55.19-9.28.19-14.75l-31.13,33.9,6.86,5.61c-8.49,3.8-17.2,1.78-23.32,7.22.84-5-2.86-3.57-5.24-3.45-15.16.76-30.31,2-45.48,2.43-38.85,1-77.72,1.57-116.57,2.52-9,.22-18.07,1.25-27.1,1.92a28.64,28.64,0,0,0,10,1.13q88.81-1.59,177.61-3.26C871.91,1251.24,874.23,1250.33,876.62,1249.77ZM232.54,817.36v0l7.14-66.81,2.4.08v52a39.09,39.09,0,0,0,3.52-15.2q2.09-55.56,3.88-111.14Q251,633,252.24,589.73a9.9,9.9,0,0,0-1.45-5.8c-2.58-3.52-5.71-6.65-8.62-9.93a21.25,21.25,0,0,0-1.67,9.62c0,17.33.31,34.66-.08,52-.62,27.33-1,54.69-5.12,81.81-.51,3.43-1.47,6.79-2.23,10.18l-2.19-.28c0-2.87-.09-5.75,0-8.61.36-10,1-20,1.17-30.06q1.2-58.78,2.13-117.57c0-2.61-.32-5.72-1.71-7.75-3.19-4.63-7.14-8.72-12.13-14.63-.27,4.75-.56,7.32-.54,9.89q.9,145.88,1.91,291.75c.15,20,1.36,40.08,1.56,60.12.17,17.31-.29,34.63-.68,51.94-.12,5.37-.9,10.73-1.49,17.32l12.7,15.09,1.61-.89q1.59-99.28,3.19-198.58c-2.12,4.77-2.76,9.73-3.71,14.62A64.56,64.56,0,0,1,232.54,817.36Zm139.7,428.69c15.19,1.73,29.61,4.27,44.1,4.81,24.87.92,49.79.9,74.68.69,22.17-.18,44.39-.41,66.49-1.94,34.24-2.39,68.39-6.07,102.6-8.87,14.22-1.16,28.51-1.82,42.78-2.07s28.55.51,42.83.48c44.37-.09,88.74-.46,133.11-.41,5.2,0,8.38-1.89,11.58-5.55,7.81-8.91,15.32-18.23,24.14-26.06,7.83-7,10.17-14.6,10.13-24.68-.1-25.82.83-51.64,1.33-77.46.47-24.6,1.08-49.19,1.29-73.79.12-14-.75-28-.65-41.93.28-37.37,1.71-74.74,1.11-112.08-1-63.82-2.3-127.62.69-191.41,1.77-37.64,3.48-75.27,2.43-113-.09-3.19-.32-6.38-.48-9.65-3.25-.15-5.35-.34-7.46-.33q-60.63.34-121.24.74c-38.89.32-77.77,1-116.65,1.14-31.59.11-63.18,0-94.76-.66s-63.19-1.42-94.72-3.26a379.32,379.32,0,0,0-52.78.78c-1.6.13-4.35.93-4.47,1.73-.65,4.33-3.88,3.25-6.27,3.24-14.27-.08-28.57.12-42.79-.75-7.78-.47-14.4-.35-18.73,7.28a13.37,13.37,0,0,1-4.36,4.58c-9,5.57-12.07,13.78-11.34,23.93.19,2.72-.16,5.47,0,8.2a45.13,45.13,0,0,0,1.18,5.87c6.14-4.38,8.64-11.35,15.45-13.75a101.58,101.58,0,0,1-13,15.94c-2.67,2.73-4.38,5.28-4.42,9.41-.29,32.5-.6,65-1.42,97.5-.41,16,1.47,32.27-4,47.9-.48,1.36-.19,3-.17,4.53q.5,48.77,1,97.53a49.36,49.36,0,0,0,.72,5.62c2.55-5.16,3.55-10.47,5.24-15.54s0-11.64,7.85-15.7c-.66,4.25-1.19,7.06-1.52,9.91-1.57,13.25-4,26.49-4.43,39.78-1.12,36.74-1.44,73.5-1.93,110.25-.17,12.46-.63,25,.31,37.36,1.59,20.87,4.21,41.67,6.33,62.5.17,1.76.41,4-.42,5.31-4.46,7.14-4,15.14-4.09,22.9-.23,28.57-.33,57.14,0,85.7.12,10.5.76,21.1,3.58,32l9.26-.45C371.1,1251.27,371.61,1249,372.24,1246.05ZM955,1235.7c27.51-1.24,53.58-2.37,79.64-3.6,56.14-2.63,112.26-6,168.43-7.78,56.78-1.76,113.62-1.91,170.43-2.67,14.26-.19,28.51,0,42.7,0,1.22-1.86,2.27-3.34,3.2-4.89,5.29-8.85,10.79-17.39,18.13-24.93,6.25-6.41,10.86-14.46,16-21.93,2.77-4,5.64-7.8,10.23-9.94a104.44,104.44,0,0,1-9.65,15.47c-9.24,12.81-18.57,25.56-27.78,38.39a76.13,76.13,0,0,0-4,7c14.81,2.55,14.55,2.35,22.58-8.11,10-13,20.1-25.94,30.84-38.32,4.89-5.65,7.17-11.08,7-18.68-1.44-72.61-2.84-145.23-3.56-217.86-.53-53.14.08-106.3,0-159.45,0-28.25-.9-56.49-.7-84.73.25-36.14,1.2-72.28,1.84-108.41a29.88,29.88,0,0,1,.17-5.45c.29-1.45,1.29-2.75,2-4.12,8.92,26.66,6.17,54.25,11.16,81V558.78c-8-.28-16.11-.52-24.23-.88a64.25,64.25,0,0,1-8.09-.81c-4.1-.71-8.16-2.38-12.24-2.38-33.12,0-66.25-.18-99.35.54-57.11,1.26-114.2,3.6-171.32,4.61-63.49,1.12-127,1.26-190.52,1.82-3.86,0-7.73,0-11.84,0-6.17,17.58-19.17,29-30.38,43.45-1.08-7.62-1.22-7.74,2.92-12.85,6.7-8.26,13.65-16.31,20.39-24.54,1.18-1.43,1.82-3.31,3.17-5.88-10.74.31-20.28-.09-29.14.88V625.9c11.06-11.64,17.88-24.79,30.36-32.72a20.25,20.25,0,0,1-3.31,5.93c-7.83,10.07-15.61,20.19-23.63,30.11a21.81,21.81,0,0,0-5.29,14.09c-.47,36.45-1.8,72.91-1.57,109.35.3,47.7,2.21,95.4,2.66,143.1.48,51.64,0,103.29.12,154.94.05,16.7.35,33.43,1.47,50.09,2.53,37.57,5.6,75.11,8.56,112.65C953,1220.66,954.11,1227.83,955,1235.7ZM193,370.49c.26,9.9,7,16.55,12.47,23.58,16,20.72,34.11,39.55,53.42,57.24,5.6,5.12,11.37,10.15,16.27,15.9,14,16.43,27.39,33.36,41.39,49.78,8.47,9.93,17.57,19.34,26.55,28.82a11.08,11.08,0,0,0,5.93,3.46,159.13,159.13,0,0,0,18.13,1.13c22.17.21,44.35.42,66.52.31,18.23-.09,36.47-1.34,54.68-.82,29.75.85,59.47,3.32,89.23,4,31.27.73,62.57.23,93.86.15q33.27-.07,66.53-.48c25.52-.28,51-.83,76.57-1,49.22-.35,98.46-.47,147.68-.81q46.5-.32,93-1c90.24-1.24,180.49-2.37,270.73-3.87,42.82-.72,85.63-2.33,128.44.25,10.43.63,20.88,1.07,31.31,1.59a17.44,17.44,0,0,0-6.58-5.07c-29.48-15.25-57.75-32.43-83.77-53.12-23.78-18.92-47.23-38.25-71.09-57.07-30.57-24.12-62.46-46.28-97.32-63.92-4-2-8.51-4.59-10.54-8.17-3.05-5.37-6.85-6-12.06-5.65-11.51.83-23,1.94-34.57,2-42.85.2-85.71,0-128.56,0-4.86,0-9.72,0-14.58,0-28.86.36-57.72,1.12-86.57,1-32.21-.12-64.41-1.55-96.61-1.46-45.89.12-91.77.85-137.65,1.78-34.63.7-69.24,2.36-103.87,3.14-24.6.56-49.22.4-73.83.45-2.17,0-4.34-.81-6.5-1.24l.14-2.21,77.78-4.77A64.07,64.07,0,0,0,589,353.9c-37.07.75-74.16.93-111.2,2.41-56.43,2.25-112.9,3.21-169.25,8-30.21,2.58-60.73,1.6-91.11,2.05-6,.09-12-.66-17.77-1C197.79,366.78,195.74,368.37,193,370.49Zm77.24,237-2.2.14c0,3.21,0,6.41,0,9.62q.66,96.63,1.31,193.26c.21,35.25.12,70.5.41,105.75.12,14.87,1.3,29.73,1.27,44.59,0,24.91-.71,49.81-1,74.72,0,2.36-.12,5.25,1.1,7,6.19,8.85,12.79,17.4,19.66,26.59,2.29-11.45,3.72-412.89,1.58-422-2.94,42.19-5.84,83.91-8.74,125.62-.63-9.44.21-18.78.77-28.13,2-33.64,3.52-67.32,6.21-100.9.92-11.43-5.42-17.52-12.63-24.35-.91,4.26-.66,8.4-1,12.5-.31,3.77.88,8-2.42,11.83C271.53,631.41,276.12,618.66,270.22,607.51Zm66.88,528.76c.21-3.19.5-5.86.53-8.53q.9-103,1.7-206c.17-25.82-.28-51.64-.33-77.46q-.13-60.6-.1-121.2,0-40.53.46-81.06c.24-25.5.73-51,.94-76.5,0-2.92-.15-6.68-1.85-8.61-5.53-6.24-11.81-11.8-18.89-18.68,0,3.33-.08,4.79,0,6.24,1.23,20.87,3.55,41.77-1.41,62.52a29.29,29.29,0,0,0-.44,7.26c.37,20.63,1,41.25,1.15,61.88.17,24.61-.09,49.22-.14,73.83,0,13.64,0,27.29,0,40.94a23.62,23.62,0,0,0,2.18-10.46q1.77-81.09,3.5-162.19c.21-9.72.36-19.44.72-29.15a93.32,93.32,0,0,1,1.23-9.38,17.76,17.76,0,0,1,2.17,9.12c.32,53.47.81,106.93.79,160.39,0,21.87-1.05,43.73-1.74,65.6-1.28,40.67-3.43,81.33-3.8,122-.51,55,.32,110,.6,165,0,9-1.33,18.29,5.58,26.49l-5.08.51v7.44ZM202.52,483.15c-.15,3.4-.33,5.44-.33,7.48q.76,229.22,1.56,458.43c0,1.83.06,3.65,0,5.47-.06,4.33,2.14,7.19,6.59,10.15.23-3.83.53-6.71.55-9.6q1.44-201.86,2.86-403.73c.05-6.92.76-13.88-3.36-18.35,1.59-2.8,3.27-4.46,3.41-6.24.45-5.75-.3-11.63.56-17.29C216.05,498.65,211.89,490.69,202.52,483.15Zm55.85,541.54c0-4.77,0-7.75,0-10.72.15-47.42.14-94.83.55-142.25.21-24.53.41-48.94,3.12-73.55,4.48-40.78,1.8-81.93-.53-122.92-.76-13.33-1.06-26.7-1.24-40-.15-11.85.19-23.71.22-35.56,0-2.45.42-5.34-4-6.31,0,3.5,0,6.5,0,9.5q.33,38.29.69,76.59.63,71.15-4.93,142.09c-2.16,27.26-4.45,54.54-5.36,81.85-1.07,31.89-.32,63.83-1.18,95.72C245.46,1009.58,249.25,1017,258.37,1024.69ZM311.47,616c.29-3.17.52-4.87.6-6.58,1-24,2.1-47.9,2.92-71.86a10.26,10.26,0,0,0-2.38-6.41c-8.45-9.94-17.26-19.59-25.74-29.52-2.61-3.06-5.48-4.49-9.4-3.94a5.75,5.75,0,0,0-.61,1.72q.36,31.89.81,63.76c0,1.79,0,3.91.87,5.29,4.32,6.75,8.95,13.3,13.47,19.92l1.86-.75c.4-6.27.54-12.58,1.27-18.82s-.94-13,3.29-18.73c1.33,12.45,2.68,24.88,2.17,37.23C300.15,598,303.25,606.79,311.47,616Zm-2,479.13c.16-2.66.37-4.65.37-6.63q.4-141.21.76-282.41c0-2.42.27-5-.47-7.23-5.25-15.58-4.41-31.8-5-47.82-.66-18.2-.39-36.43-.68-54.65-.06-4.12-.79-8.24-1.22-12.36q-.61,154.72-.39,309c0,29.45.28,58.9.37,88.36C303.25,1086.54,303.46,1091.5,309.49,1095.09Zm115.59,187-31.65,1.51c5.37,23.38,10.49,45.66,15.62,68,2.74,0,4.56.17,6.34,0,7.74-.85,9.73-3.1,10.08-11a98.41,98.41,0,0,1,.7-10.89c2.17-13.78,4.55-27.52,6.81-41.29.36-2.15,1.8-4.71-2-6.35-3.52,5.9-1.73,12.41-2.83,18.38-1.2,6.56-2,13.2-3.21,19.76-1.11,6.12-2.49,12.2-3.75,18.29l-2.08-.35C419.18,1319.8,424.93,1302,425.08,1282.06Zm983.8-28.32c-.23,3-.66,4.79-.45,6.53q3,24.3,6.29,48.58a14.68,14.68,0,0,0,1.83,5.09c5.91,10.45,10.83,12.8,19.15,7.75.47-2.86,1-6.19,1.55-9.52a7,7,0,0,0-3.13,2.57,14.84,14.84,0,0,1-2.4,1.79l-2.06-.77c4.82-20.5,8.61-41.11,7.84-63.3ZM1508.55,969l2.2-.29,3.81,29.95a68.27,68.27,0,0,0,1-14.63c-.36-17.92-.89-35.83-1.11-53.76-.11-9.4.55-18.82.34-28.22-.08-3.72-.54-9.67-2.63-10.62-4.33-2-4.45-4.8-5.12-8.38-1.87,13.61-3.52,27.12-4.17,40.67-.66,13.95-.59,27.94-.38,41.91.2,13.66.94,27.3,1.49,41,.57,14,1.21,27.92,1.8,41.89.57,13.3.07,26.73,3.77,39.63l2.19-.18ZM272.7,558.37c0-4.56-.05-7.5,0-10.44.27-15.18.42-30.37.95-45.55.12-3.64,1.51-7.24,2.6-12.17-2.9-3.62-6.66-8.34-10.45-13-3.65-4.51-7.34-9-11.56-14.15a20.55,20.55,0,0,0-.9,3.25c.06,21.56.22,43.13.16,64.69,0,5.16,2.9,8,7.58,12.48.27-17.47-.18-33.2,3.13-48.77a18.25,18.25,0,0,1,2,8.3c.42,14.57.73,29.15,1.11,43.72C267.43,550.54,266.83,554.65,272.7,558.37Zm-48.39-78.08,1.9-.51c0-9.61,0-19.22,0-28.83,0-6.61,1.9-13.92-.34-19.63s-8.55-10-13.08-14.85c-3.37-3.64-6.75-7.27-11-11.88,0,13.86,0,25.84,0,37.82a7.1,7.1,0,0,0,1.08,3.43Q213.53,463.11,224.31,480.29ZM203.88,964.92c0,9,.18,17-.07,25.05a17.14,17.14,0,0,0,4,11.68c7.67,9.78,15.1,19.75,22.72,29.57.92,1.19,2.43,1.92,4.76,3.69,0-10.23.23-19-.14-27.78a15.56,15.56,0,0,0-3-8.18c-8.13-10.81-16.59-21.38-25-32C206.73,966.36,205.84,966.1,203.88,964.92ZM186.56,463.63c-2,14.6-.13,152.78,2.54,160.63.92-8.69,2.24-15.86,2.36-23,.66-41.87,1-83.74,1.58-125.61C193.11,470.62,191.64,466.82,186.56,463.63ZM1443.1,1220.19l.9,2.3c7.51,0,15-.09,22.54,0,7,.11,16-6.46,16.33-13.51.56-11.58,0-23.22-.08-34.84l-2-.61C1467.58,1188.54,1454.92,1204,1443.1,1220.19ZM233.75,437.84l-2,.87c0,18.35,0,36.69.08,55,0,.92,1.15,1.83,2.56,3.94,1-8.65,1.75-15.91,2.56-23.17a18,18,0,0,1,2.09,8.74q.56,14.55,1,29.1c.12,3.58.17,7.17,4.76,9.25a25.91,25.91,0,0,0,.7-3.71q.93-30.43,1.77-60.88a5.75,5.75,0,0,0-.67-3.45C242.43,448.25,238.06,443.07,233.75,437.84Zm38.5,613.44-1.8.87c-.73,8.68-1.51,17.36-2.14,26a5.61,5.61,0,0,0,1.09,3.35c7,9.77,14.06,19.48,22.37,31,0-11.66,0-21.2,0-30.73a5.13,5.13,0,0,0-1-2.48Q281.5,1065.26,272.25,1051.28Zm65,94H325c-.67,10.31-2.57,20.24,4.71,28.84a7.08,7.08,0,0,1,1.67,3.19c.41,2.54.48,5.14.69,7.71-2.49-.23-5-.49-7.47-.67a5.14,5.14,0,0,0-1.51.37c-3,2.57-1.37,4.78.39,7.06,4.76,6.18,9.46,12.42,14.24,18.58.94,1.21,2.16,2.2,4.73,4.75-.46-7.46.88-13.77-1.51-17.95-3.63-6.38-3.41-12.75-3.6-19.26C337.06,1167.34,337.28,1156.78,337.28,1145.26Zm1090.32,90.47c.05-1,.09-2,.14-3l-218.24,5.75c0,.57,0,1.15,0,1.72ZM220.35,504.8c-.43.77-1.17,1.46-1.16,2.15,0,9,0,18.09.32,27.13a9.33,9.33,0,0,0,2.23,5.62c3.41,3.65,7.27,6.88,11.26,10.55C237.75,529,234.79,518.58,220.35,504.8Zm1286.34,730.11,2.18-.44c0-1.78,0-3.56,0-5.33q.47-30.48,1-61c.11-7.28.41-14.56.16-21.83,0-1.59-2.09-3.12-3.22-4.67-1.25,1.41-3.51,2.77-3.59,4.25-.67,11.79-1.11,23.6-1.13,35.41,0,2,2.3,4.08,3.72,6.42-.78,2.37-2.83,5.51-2.64,8.5C1504,1209.17,1505.44,1222,1506.69,1234.91ZM258.79,579.26l2-1c0-5.74.22-11.48-.06-17.2-.31-6.45-3.43-12-9.45-13.87-3.84-1.16-4.87-2.8-5.2-5.95-.38-3.62-.82-7.11-5.64-8.87,0,8.13-.09,15.67.07,23.2a8.52,8.52,0,0,0,1.57,5C247.54,566.9,253.21,573,258.79,579.26Zm-12.44,439.29c0,8.91.61,16.2-.14,23.35-1.1,10.37,5,16.48,12.38,24.31,0-8.24-.51-14.79.12-21.24C259.75,1034.29,254.87,1026.65,246.35,1018.55Zm-12.74,40.94c2.26-6,0-9.17-2.45-12.41-7.45-10-14.77-20-22.22-30a46.21,46.21,0,0,0-4.44-4.42c-.2,8-.49,9,3.64,14.6C216.05,1037.9,224.55,1048.1,233.61,1059.49ZM279.22,583.4c-5.42,15.74,2.07,25.24,11.65,34.34C297.58,602.43,286,594.49,279.22,583.4ZM1390.8,469.59c-4.35-6.15-43.4-31.54-55.82-36a427.64,427.64,0,0,0,52.27,36.13C1388,470.19,1389.37,469.68,1390.8,469.59ZM931.21,1238.1l2.19.71c.64-1.63,1.85-3.27,1.82-4.9q-.45-29.1-1.33-58.22c0-1.34-1.41-2.64-2.68-4.84Zm-625.7-136.83-2.66.37c0,9-.21,18,.11,27,.12,3.48,1.26,7.09,7.08,7.42C308,1124.15,313.93,1111.8,305.51,1101.27Zm25-749.12c4.21,4.39,6.63,4.51,36.93,2.81,12.35-.69,24.7-1.25,37.05-1.88,0-.31,0-.62-.05-.93Zm-29,265.62c-1.1,16,.64,22.15,7.84,28.94C314.47,640.09,312.13,631.5,301.5,617.77ZM192.13,458.17c2.16-11.34.15-20.63-6.88-28.74C187.42,438.68,180.85,450,192.13,458.17Zm-.92-32.58c-5.28-6.13-3.6-13.27-3.53-20.17,0-3.64,0-7.29.08-10.93s-1-6.37-4.38-7.38c.43,9.61,1.11,19.18,1.19,28.75C184.61,420.74,187.12,423.38,191.21,425.59ZM1495.56,737.12a113.55,113.55,0,0,0,.53,34.23C1496.43,759.93,1498.48,748.5,1495.56,737.12Zm-1224-144.66c-.29-7.56,3.83-15.75-3.08-22.19C268.39,577.87,265.39,585.79,271.57,592.46ZM214.05,483.38c-1.23-8.38-6.18-14.72-11.26-22.52C199.58,473.22,208.75,477.23,214.05,483.38Zm1248.72,751.79c.11-.64.23-1.29.34-1.94H1435a5.33,5.33,0,0,0,4.25,1.92C1447.12,1235.2,1454.94,1235.17,1462.77,1235.17Zm-549.53,7.69c9.4-1.42,9.4-1.42,8.44-9.68Zm-739.67-869V388.2C178.53,379.59,178.53,379.59,173.57,373.82Zm1309.77,860.36-.2-3.07c-3.48-.1-7.05-.9-10.73,3.07Zm-574.57,14c-.09.72-.17,1.43-.26,2.14h11.23c0-.23,0-.46,0-.69Zm58.83.12-.16.29h11.61v-.29Zm543.58-150.19-.71,0q.18,3.35.38,6.69h.33ZM361.31,565.24c3.26,4.77,5.27,4.68,7.65.5Zm0,8.6-5.48-3.5c.15,2.77.24,4.57.39,7.38Zm1083.66,690.92,1,0c.15-1.79.31-3.58.46-5.37l-1.46-.08Z"/>
    <path d="M1276.08,368.32c18.65,5.13,174.68,108.54,202.06,132.74-3.33,1.63-5.24-.87-7.07-2.1-16.34-11-32.46-22.39-48.86-33.33q-64.71-43.2-129.6-86.13C1287.07,375.82,1281.59,372.05,1276.08,368.32Z"/>
    <path d="M469.2,333.83c72.09-.88,144.17-1.56,216.26.59C613.37,337.81,541.28,338.3,469.2,333.83Z"/>
    <path d="M279.53,827.15l.67.09v-17h-.67ZM282,782.89l-.69-.3v17.67l.69,0Zm-3.67,55-.57,0v15.32h.57Zm-2.21,41.95.4.34V866.77l-.4,0Zm-1.43,14.27h-.36v12.44h.36Zm-1.78,27.71-.43,0v10.61l.43,0Z" style="fill: #fff"/>
    <path d="M230.88,841.32l-.41-.26v6.34h.41Zm-3.69,36.57L227,878v2.56h.21Z" style="fill: #fff"/>
    <path d="M921.4,944c-7.54-20.79-7.41-250.78-.92-290.48.14,48.47.42,96.94.4,145.41S924,895.6,921.4,944Z"/>
    <path d="M848.74,668.21c0-6.11.07-10.63,0-15.14-.13-7.56,4.44-12.12,10.74-14.14A24.74,24.74,0,0,1,882,642.26c6.89,4.9,7.06,11.5,1.58,18.23a14,14,0,0,0-2.66,9c.36,5.46-2.1,8.69-6.44,10.87s-7.57-.1-10.63-2.83c-1.58-1.41-3.62-2.66-4.47-4.45C857.3,668.59,854,666.85,848.74,668.21Zm21.29.64c1.06-3.08,2.55-6,2.93-9.06a5.89,5.89,0,0,0-2.55-4.88c-2.52-1.18-5.23-.5-6.89,2.38C860.75,662.1,862.23,665.12,870,668.85Z"/>
    <path d="M406.24,624.45l65.21-58.71,1.26.92a19.15,19.15,0,0,1-2.09,3.9c-10.93,12.55-22.64,24.22-37.16,32.75-2.81,1.65-5.07,4.27-7.51,6.52-6,5.51-12,11.07-17.93,16.62Z"/>
    <path d="M377.38,624c15.32-18.37,30.93-36.45,52.34-48.53l-51,50C378.29,625,377.83,624.5,377.38,624Z"/>
    <path d="M369.38,688.73c3.07-12.12,20.85-28.58,41.89-37.9Z"/>
    <path d="M423.91,1177.71l-32.22,33.37-1.76-1.7c8.56-13.32,18.38-25.45,32.2-33.77Z"/>
    <path d="M413.29,956.92c-9.18,17.47-24.37,30.46-35.16,46.73C386.72,985.75,400.38,971.61,413.29,956.92Z"/>
    <path d="M374.31,1055.55c-4.06-12.23,2.64-20.32,9.39-28.42Z"/>
    <path d="M993.54,676.49c-12-.09-17.87-5.62-17.49-16.69a52.2,52.2,0,0,1,3.09-15c3.36-9.66,6.7-11.49,16.31-10.2,7.29,1,14.83,7.91,14.65,15a74,74,0,0,1-3.37,19.49C1004.75,675.6,999.06,677.13,993.54,676.49ZM988,656.78c0,2.05,0,2.66,0,3.27.11,2.66,1,4.8,4,5.18s4.27-1.44,5.07-4.06c.88-2.86,2.35-5.56,3-8.46.84-3.52-1.37-5.91-4.31-7.06-3.17-1.25-5.18.48-6,3.69C989.08,652.28,988.33,655.21,988,656.78Z"/>
    <path d="M1442.92,1107.15a88.14,88.14,0,0,1,30-28.65q-14.34,15-28.69,30.07C1443.8,1108.09,1443.36,1107.62,1442.92,1107.15Z"/>
    <path d="M1389.13,1213.11l11.54-6.55c-1.17,4.78-.83,8.38-4.85,10.1C1393.18,1217.79,1391.35,1217,1389.13,1213.11Z"/>
    <path d="M1366.19,1203.25l9.26-8.71,1.19,1.27-9.26,8.71Z"/>
    <path d="M1407.93,1196.49l4.25-5.79,1.63,1.1-4.23,6.11Z"/>
    <path d="M279.53,827.15V810.29h.67v17Z"/>
    <path d="M282,782.89v17.39l-.69,0V782.59Z"/>
    <path d="M278.32,837.86v15.36h-.57V837.89Z"/>
    <path d="M276.11,879.81V866.74l.4,0v13.38Z"/>
    <path d="M274.68,894.08v12.44h-.36V894.09Z"/>
    <path d="M272.9,921.79v10.63l-.43,0V921.83Z"/>
    <path d="M232.54,817.36v13.53l-.61,0q.3-6.74.61-13.49Z"/>
    <path d="M230.88,841.32v6.08h-.41v-6.34Z"/>
    <path d="M227.19,877.89v2.64H227V878Z"/>
  </g>
</svg>
